<svg xmlns="http://www.w3.org/2000/svg">
<defs>
<font id="d6ed49e17dc9669db8aba851fab901d6" horiz-adv-x='1024' >
  <font-face 
    font-family="PTSerifPro-NarrowBook"
    font-weight="400"
    font-stretch="condensed"
    units-per-em="2048"
    panose-1="2 10 5 6 4 5 5 2 2 4"
    ascent="1593"
    descent="-455"
    x-height="1024"
    cap-height="1434"
    bbox="-948 -555 2077 2083.62"
    underline-thickness="102"
    underline-position="-102"
    unicode-range="U+0020-FB04"
  />
<missing-glyph horiz-adv-x="1452" 
d="M471 106q14 0 12 -14h-26q0 14 14 14zM471 66q-14 0 -14 14h43v14q0 27 -31 27t-31 -35t33 -35q17 0 25 8l-7 11q-4 -4 -18 -4zM410 78q0 -10 -14 -10t-25 6l-6 -19q20 -4 30 -4q33 0 33 29q0 16 -21 24q-22 8 -22 14t10 7q10 0 27 -4l4 16q-20 4 -27 4q-33 0 -32 -26
q0 -14 21 -24q22 -9 22 -13zM207 127h10q18 0 19 -12q0 -14 -21 -15h-8v27zM188 141v-86h19v29h10q37 0 37 29t-39 28h-27zM1325 109q14 0 12 -15h-26q0 15 14 15zM1325 68q-14 0 -14 14h43v14q0 27 -31 27t-31 -35t33 -35q17 0 25 8l-7 11q-4 -4 -18 -4zM1237 96
q0 13 13 13q14 0 14 -21t-19 -20q-4 0 -8 4v24zM1219 121v-90h18v26q4 -4 12 -4q33 0 33 35t-27 35q-12 0 -20 -10h-4l-2 8h-10zM1165 31q12 0 21 30l24 60h-18l-12 -37v-12h-2l-2 12l-15 37h-20l28 -66q-4 -10 -10 -10l-4 2l-4 -14q2 -2 14 -2zM1141 127v14h-74v-14h29v-72
h16v72h29zM1042 68q-10 0 -10 9t12 9l13 -2v-6q-5 -10 -15 -10zM1073 72v26q0 25 -24 25q-11 0 -19 -4t-10 -4l2 -11q20 4 27 4t8 -10v-4l-13 2q-31 0 -30 -24q0 -18 20 -19q16 0 23 13h2l2 -11h14q-2 2 -2 17zM1000 123q-8 0 -13 -12h-2l-2 10h-14v-66h18v41q0 10 14 10
l7 -2l4 17q-4 2 -12 2zM922 68q-10 0 -11 10q0 8 13 8h6l4 -2v-6q-2 -10 -12 -10zM934 98v-4h-4q-2 2 -6 2q-31 0 -31 -24q0 -18 20 -19q14 0 21 13l6 -11h14q-2 2 -2 17v26q0 25 -24 25q-6 0 -31 -8l4 -11q16 4 23 5q10 0 10 -11zM842 127h10q18 0 18 -13t-20 -14h-8v27z
M823 141v-86h19v29h10q37 0 37 29t-39 28h-27zM728 80q-7 0 -7 10t10 10h6l6 11q-8 4 -18 4q-20 0 -20 -25t20 -24q10 0 18 4l-4 12q-4 -2 -11 -2zM692 91q0 36 34 36t34 -36t-34 -36t-34 36zM678 92q0 -51 48 -51t48 49t-49 49q-20 0 -34 -13q-13 -14 -13 -34zM637 141h-19

<glyph glyph-name="IJ" unicode="IJ" horiz-adv-x="1204" 
d="M653 1434h467v-58q-63 -33 -137 -49v-1159q0 -418 -287 -496l-20 29q61 59 93 155t32 289v1182q-99 24 -148 49v58zM557 0h-473v57q72 37 145 49v1221q-76 16 -145 49v58h473v-58q-57 -31 -145 -49v-1221q77 -16 145 -49v-57z" />
    <glyph glyph-name="ij" unicode="ij" horiz-adv-x="1069" 
d="M700 1374q0 53 33 85t86 32t85 -32t32 -85t-32 -85t-85 -32t-86 32t-33 85zM733 49v860l-119 17v49q86 45 244 74h47v-961q0 -343 -202 -483q-38 -27 -74 -39l-23 37q49 29 88 140t39 306zM158 1374q0 53 32 85q33 32 86 32t85 -32t32 -85t-32 -85t-85 -32t-86 32
q-32 32 -32 85zM481 0h-409v49q49 31 118 49v811l-118 17v49q92 43 243 74h47v-951q78 -20 119 -49v-49z" />
    <glyph glyph-name="uniF374.var.accented" unicode="&#xf374;`" horiz-adv-x="1028" 
d="M735 1614q35 0 89 -14t71 -31v-39l-336 -307l-43 34l209 357h10zM643 -18q-264 0 -407 140q-144 140 -144 430t148 430t358 140q211 0 317 -53q0 -137 -26 -283h-49l-84 232q-27 16 -123 16q-143 0 -241 -111q-97 -112 -107 -329l467 24q12 -36 12 -74t-6 -63
q-188 23 -473 27q10 -207 108 -323t264 -115q98 -1 123 28l72 203h49q20 -84 21 -256q-86 -63 -279 -63z" />
    <glyph glyph-name="uniF376.var.accented" unicode="&#xf376;`" horiz-adv-x="593" 
d="M444 1614q36 0 90 -14t70 -31v-39l-336 -307l-43 34l209 357h10zM510 0h-426v51q57 29 123 41v920q-66 12 -123 43v49h426v-49q-49 -27 -123 -43v-920q72 -14 123 -41v-51z" />
    <glyph glyph-name="uniF377.var.accented" unicode="&#xf377;`" horiz-adv-x="593" 
d="M510 0h-426v51q57 29 123 41v920q-66 12 -123 43v49h426v-49q-49 -27 -123 -43v-920q72 -14 123 -41v-51zM238 1616l264 254q39 0 99 -20t81 -46v-41l-412 -186zM442 1296q-46 0 -72 28t-26 74t27 75t71 29t72 -30q27 -28 27 -74t-27 -74t-72 -28zM147 1296q-45 0 -71 28
t-27 74q0 46 27 75q28 29 72 29t72 -30q28 -28 28 -74t-28 -74t-73 -28z" />
    <glyph glyph-name="uniF350.var.accented" unicode="&#xf350;`" horiz-adv-x="1075" 
d="M659 1614q35 0 89 -14t71 -31v-39l-336 -307l-43 34l209 357h10zM463 776l-113 -321h297l-115 323l-28 137h-4zM354 0h-354v51q53 29 111 41l385 1030h73l389 -1030q74 -16 117 -41v-51h-426v51q74 31 123 41l-96 275h-357l-98 -275q70 -10 133 -41v-51z" />
    <glyph glyph-name="uniF355.var.accented" unicode="&#xf355;`" horiz-adv-x="937" 
d="M549 1614q35 0 89 -14t71 -31v-39l-336 -307l-43 34l209 357h10zM51 1104h756q-4 -147 -21 -266h-49l-67 178h-314v-408h226l61 119h43q6 -80 6 -165t-6 -165h-43l-61 123h-226v-432h330l78 195h49q23 -135 23 -283h-785v51q63 31 125 41v920q-63 12 -125 41v51z" />
    <glyph glyph-name="uniF358.var.accented" unicode="&#xf358;`" horiz-adv-x="1183" 
d="M702 1614q36 0 90 -14t70 -31v-39l-336 -307l-43 34l209 357h10zM469 0h-418v51q70 33 125 41v920q-78 18 -125 41v51h418v-51q-63 -33 -113 -41v-656l-18 -120l74 126l426 613v37q-66 16 -125 41v51h420v-51q-41 -20 -127 -41v-920q66 -12 127 -41v-51h-420v51
q61 29 112 41v653l19 121l-68 -121l-432 -618v-35q59 -10 125 -41v-51z" />
    <glyph glyph-name="uniF35E.var.accented" unicode="&#xf35e;`" horiz-adv-x="1181" 
d="M690 1614q35 0 89 -14t71 -31v-39l-336 -307l-43 34l209 357h10zM582 1034q-151 0 -220 -132t-69 -348t79 -350t225 -134t219 134t73 349t-78 348t-229 133zM92 552q0 253 132 412q132 158 366 158t366 -158q134 -158 134 -412q0 -253 -134 -412q-134 -158 -366 -158
q-233 0 -366 158q-132 159 -132 412z" />
    <glyph glyph-name="uniF363.var.accented" unicode="&#xf363;`" horiz-adv-x="1026" 
d="M649 1614q35 0 89 -14t71 -31v-39l-336 -307l-43 34l209 357h10zM672 1104h354v-51q-37 -18 -111 -41l-292 -695q-70 -167 -136 -247t-141 -80q-18 0 -29 2q-18 29 -35 85t-22 95l29 47l168 -47q18 23 47 96l-393 744q-57 16 -111 41v51h434v-51q-53 -23 -121 -41
l238 -490l33 -100h2l30 102l181 488q-68 14 -125 41v51z" />
    <glyph glyph-name="uniF36B.var.accented" unicode="&#xf36b;`" horiz-adv-x="1368" 
d="M752 1614q35 0 89 -14t70 -31v-39l-336 -307l-43 34l209 357h11zM451 582q-63 0 -95 -9v-483q25 -6 112 -6t147 66t61 194q0 238 -225 238zM51 0v51q55 29 125 41v920q-63 12 -125 41v51h441v-51q-80 -31 -136 -41v-353q88 10 136 11q385 0 385 -326q0 -172 -119 -260
t-295 -88l-197 4h-215zM1317 0h-418v51q41 20 115 41v920q-66 14 -119 41v51h422v-51q-59 -31 -123 -41v-920q55 -8 123 -41v-51z" />
    <glyph glyph-name="uniF36D.var.accented" unicode="&#xf36d;`" horiz-adv-x="1019" 
d="M535 1614q35 0 89 -14t70 -31v-39l-336 -307l-43 34l209 357h11zM303 557q0 41 8 66h422q-8 201 -100 306t-252 105q-88 0 -121 -28l-78 -199h-49q-20 88 -20 250q86 66 278 65q537 0 537 -567q0 -147 -43 -261t-119 -180q-153 -133 -355 -133q-203 1 -309 56
q12 197 27 282h49l82 -233q27 -16 127 -16q141 0 243 123q101 123 103 344l-422 -48q-8 27 -8 68z" />
    <glyph glyph-name="uniF36E.var.accented" unicode="&#xf36e;`" horiz-adv-x="1548" 
d="M897 1614q35 0 89 -14t71 -31v-39l-336 -307l-43 34l209 357h10zM723 553q0 -483 278 -483q254 0 254 482t-276 482q-148 0 -202 -132q-54 -131 -54 -349zM471 0h-420v51q70 31 125 41v920q-66 10 -125 41v51h420v-51q-66 -31 -115 -41v-402h176q14 228 134 370t334 142
t335 -158t121 -412q0 -255 -120 -413q-120 -157 -343 -157t-340 147t-123 393h-174v-430q56 -12 115 -41v-51z" />
    <glyph glyph-name="uniF36F.var.accented" unicode="&#xf36f;`" horiz-adv-x="1024" 
d="M664 1614q35 0 89 -14t70 -31v-39l-336 -307l-43 34l209 357h11zM565 539q70 0 103 8v465q-27 8 -90 8q-242 0 -242 -238q0 -117 59 -180t170 -63zM973 1104v-51q-53 -27 -125 -41v-920q72 -14 125 -41v-51h-434v51q59 29 129 41v369h-146l-65 -137q-88 -189 -164 -281
l-57 -43h-220v45l72 37q96 111 179 239q83 127 98 148q-98 31 -162 109q-63 78 -64 202q0 166 126 247t310 81l183 -4h215z" />
    <glyph glyph-name="uniF371.var.accented" unicode="&#xf371;`" horiz-adv-x="937" 
d="M352 1305l129 350q27 5 79 -13t77 -38v-33l-238 -287zM592 1398q0 40 24 64t63 25q41 0 65 -25q24 -24 24 -64t-25 -64t-63 -24t-64 24q-24 24 -24 64zM154 1398q0 40 24 64t64 25q40 0 64 -25q24 -24 24 -64t-25 -64t-63 -24t-64 24q-24 24 -24 64zM51 1104h756
q-4 -147 -21 -266h-49l-67 178h-314v-408h226l61 119h43q6 -80 6 -165t-6 -165h-43l-61 123h-226v-432h330l78 195h49q23 -135 23 -283h-785v51q63 31 125 41v920q-63 12 -125 41v51z" />
    <glyph glyph-name="uniF38A.var.accented" unicode="&#xf38a;`" horiz-adv-x="1097" 
d="M737 1614q35 0 89 -14t71 -31v-39l-336 -307l-43 34l209 357h10zM0 1104h446v-51q-49 -20 -124 -41l221 -650l32 -133h5l22 136q54 221 146 419t170 285q45 49 106 53q37 -12 70 -80t34 -118l-32 -45l-154 45q-96 -146 -200 -420t-148 -522h-88l-389 1030q-63 18 -117 41
v51z" />
    <glyph glyph-name="afii10053.var.accented" unicode="&#x404;`" horiz-adv-x="1161" 
d="M877 1829q39 1 96 -19t76 -47v-41l-412 -186l-33 39l264 254h9zM737 -25q-311 1 -478 183t-167 559q0 552 375 699q106 42 231 42q219 0 346 -69q0 -188 -28 -349h-49l-95 295q-33 20 -153 21q-178 0 -301 -152t-135 -438l581 29q24 -90 8 -154q-301 29 -589 33
q10 -276 134 -436t333 -160q118 0 149 39l86 250h49q20 -123 21 -308q-98 -84 -318 -84z" />
    <glyph glyph-name="afii10055.var.accented" unicode="&#x406;`" horiz-adv-x="641" 
d="M514 1829q39 1 96 -19t76 -47v-41l-412 -186l-32 39l264 254h8zM557 0h-473v57q72 37 145 49v1221q-76 16 -145 49v58h473v-58q-57 -31 -145 -49v-1221q77 -16 145 -49v-57z" />
    <glyph glyph-name="afii10056.var.accented" unicode="&#x407;`" horiz-adv-x="636" 
d="M553 0h-471v57q72 37 145 49v1221q-70 14 -145 49v58h471v-58q-59 -31 -143 -49v-1221q77 -16 143 -49v-57zM252 1718l264 254q39 0 99 -19t81 -46v-41l-409 -187zM375 1616q0 45 28 70q29 24 76 24t76 -24t29 -70q0 -45 -29 -70q-29 -24 -76 -24t-76 24q-28 25 -28 70z
M53 1616q0 45 29 70q29 24 75 24q47 0 75 -24t28 -70q0 -45 -29 -70q-29 -24 -75 -24t-74 24q-29 24 -29 70z" />
    <glyph glyph-name="afii10017.var.accented" unicode="&#x410;`" horiz-adv-x="1239" 
d="M786 1829q38 1 96 -19t76 -47v-41l-411 -186l-33 39l264 254h8zM541 1024l-138 -436h361l-141 440l-33 176h-4zM403 0h-403v57q66 33 129 49l459 1352h59l455 -1352q92 -20 137 -49v-57h-471v57q82 35 147 49l-120 379h-428l-119 -379q77 -12 155 -49v-57z" />
    <glyph glyph-name="afii10022.var.accented" unicode="&#x415;`" horiz-adv-x="1050" 
d="M715 1829q39 1 96 -19t76 -47v-41l-412 -186l-33 39l265 254h8zM51 1434h862q-4 -199 -20 -328h-49l-76 225h-387v-549h287l71 152h45q13 -218 0 -410h-45l-71 156h-287v-578h410l88 246h49q20 -164 20 -348h-897v57q63 33 148 49v1221q-80 16 -148 49v58z" />
    <glyph glyph-name="afii10026.var.accented" unicode="&#x418;`" horiz-adv-x="1339" 
d="M838 1829q39 1 96 -19t76 -47v-41l-412 -186l-33 39l264 254h9zM516 0h-465v57q74 37 148 49v1221q-94 23 -148 49v58h465v-58q-70 -37 -135 -49v-901l-21 -154l89 162l520 844v49q-86 23 -146 49v58h465v-58q-49 -27 -149 -49v-1221q82 -14 149 -49v-57h-465v57
q76 37 133 49v900l21 151l-78 -151l-528 -854v-46q75 -14 145 -49v-57z" />
    <glyph glyph-name="afii10032.var.accented" unicode="&#x41e;`" horiz-adv-x="1335" 
d="M852 1829q39 1 96 -19t76 -47v-41l-412 -186l-32 39l264 254h8zM295 720q0 -282 100 -462q99 -180 281 -180t273 180t91 460t-98 459t-284 179t-275 -177q-88 -177 -88 -459zM92 717q0 329 154 535t422 206t422 -207t154 -535t-154 -534q-154 -207 -422 -207t-422 206
t-154 536z" />
    <glyph glyph-name="afii10037.var.accented" unicode="&#x423;`" horiz-adv-x="1193" 
d="M786 1829q38 1 96 -19t76 -47v-41l-411 -186l-33 39l264 254h8zM788 1434h406v-58q-47 -25 -131 -49l-346 -915q-84 -218 -154 -322t-157 -104q-10 0 -35 4q-45 76 -60 217l29 49l188 -53q33 33 58 141l-451 983q-86 23 -135 49v58h483v-58q-61 -29 -147 -49l297 -692
l37 -131h4l37 135l229 688q-86 14 -152 49v58z" />
    <glyph glyph-name="afii10045.var.accented" unicode="&#x42b;`" horiz-adv-x="1538" 
d="M903 1829q39 1 96 -19t76 -47v-41l-411 -186l-33 39l264 254h8zM502 766q-84 0 -121 -12v-648q29 -10 141 -10t189 91q78 91 77 262q1 317 -286 317zM51 0v57q70 37 148 49v1221q-74 16 -148 49v58h488v-58q-78 -35 -158 -49v-473q100 14 162 14q449 0 448 -422
q0 -224 -139 -338t-336 -114l-227 6h-238zM1487 0h-467v57q51 31 139 49v1221q-88 20 -141 49v58h469v-58q-61 -35 -146 -49v-1221q78 -14 146 -49v-57z" />
    <glyph glyph-name="afii10047.var.accented" unicode="&#x42d;`" horiz-adv-x="1142" 
d="M616 1829q38 1 96 -19t76 -47v-41l-411 -186l-33 39l264 254h8zM430 1458q621 0 621 -730q0 -376 -175 -564t-430 -189q-217 0 -344 70q10 219 29 348h47l96 -295q33 -20 156 -20q172 0 299 166t129 463l-518 -62q-10 45 -10 79t10 75h518q-12 274 -127 415t-313 142
q-109 0 -144 -39l-92 -250h-49q-20 123 -20 307q100 84 317 84z" />
    <glyph glyph-name="afii10048.var.accented" unicode="&#x42e;`" horiz-adv-x="1753" 
d="M999 1829q39 1 97 -19t75 -47v-41l-411 -186l-33 39l264 254h8zM786 717q0 -285 85 -462t266 -177q117 0 191 89t102 226t28 323t-31 323q-31 136 -111 227q-81 90 -208 90q-322 0 -322 -639zM518 0h-467v57q80 37 148 49v1221q-78 12 -148 49v58h467v-58
q-66 -33 -137 -49v-541h213q14 296 151 484t388 188t389 -204t139 -536q0 -332 -140 -537q-139 -206 -397 -206t-392 193t-140 516h-211v-578q74 -14 137 -49v-57z" />
    <glyph glyph-name="afii10049.var.accented" unicode="&#x42f;`" horiz-adv-x="1155" 
d="M840 1829q39 1 96 -19t76 -47v-41l-412 -186l-33 39l264 254h9zM651 690q82 0 123 15v622q-29 10 -108 10q-299 0 -299 -321q-1 -156 71 -241t213 -85zM1104 1434v-58q-61 -33 -148 -49v-1221q92 -16 148 -49v-57h-486v57q68 37 156 49v498h-178q-35 -68 -86 -184
t-96 -206q-45 -89 -103 -165l-61 -49h-234v49l86 49q95 118 183 267l75 133q47 82 70 118q-114 40 -190 140t-76 252t76 252q139 180 428 180l200 -6h236z" />
    <glyph glyph-name="afii10023.var.accented" unicode="&#x401;`" horiz-adv-x="1050" 
d="M399 1554l179 291q31 0 86 -19t73 -46v-39l-307 -225zM707 1614q1 46 25 70t64 24t64 -26t25 -68q0 -42 -25 -68q-24 -24 -64 -24t-65 23q-24 24 -24 69zM193 1615q1 45 25 69t65 24t65 -25t25 -69q0 -44 -25 -69q-24 -23 -64 -23t-66 24q-25 25 -25 69zM51 1434h862
q-4 -199 -20 -328h-49l-76 225h-387v-549h287l71 152h45q13 -218 0 -410h-45l-71 156h-287v-578h410l88 246h49q20 -164 20 -348h-897v57q63 33 148 49v1221q-80 16 -148 49v58z" />
    <glyph glyph-name="afii10065.var.accented" unicode="&#x430;`" horiz-adv-x="919" 
d="M590 1573q35 0 89 -14t71 -31v-39l-336 -307l-43 35l209 356h10zM584 496q-197 0 -266 -50q-68 -50 -68 -149t38 -149t112 -50q73 0 120 60t64 123v215zM317 -25q-109 0 -179 76t-70 197q0 180 117 244q118 63 399 79q6 63 6 123q0 268 -156 269q-74 0 -117 -21l-86 -246
h-49q-45 141 -53 254q143 98 346 99q283 0 283 -326l-10 -457l6 -147l125 -21v-41q-88 -51 -213 -77h-48q-23 63 -26 229h-10q-16 -92 -86 -163t-179 -71z" />
    <glyph glyph-name="afii10070.var.accented" unicode="&#x435;`" horiz-adv-x="911" 
d="M604 1573q35 0 89 -14t71 -31v-39l-336 -307l-43 35l209 356h10zM469 963q-92 0 -145 -84t-64 -279h387q2 25 2 70q0 135 -44 214t-136 79zM827 664q0 -66 -12 -150h-559q0 -184 77 -300t226 -116q63 0 129 22t96 52l27 -31q-31 -73 -118 -119t-187 -47q-209 -1 -322 143
q-112 144 -112 398t107 393q108 139 304 140q147 1 245 -91t99 -294z" />
    <glyph glyph-name="afii10074.var.accented" unicode="&#x438;`" horiz-adv-x="1110" 
d="M684 1573q35 0 89 -14t71 -31v-39l-336 -307l-43 35l209 356h10zM68 1024h391v-49q-39 -27 -109 -49v-574l-20 -190h10l70 153l381 709h251v-49q-55 -37 -118 -49v-828q90 -29 118 -49v-49h-389v49q47 33 107 49v596l18 162h-8l-70 -154l-376 -702h-256v49q45 27 118 49
v828q-69 12 -118 49v49z" />
    <glyph glyph-name="afii10080.var.accented" unicode="&#x43e;`" horiz-adv-x="1001" 
d="M608 1573q35 0 89 -14t71 -31v-39l-336 -307l-43 35l209 356h10zM256 522q0 -213 66 -337t208 -124q98 0 157 115q58 115 58 327t-62 336t-196 124q-109 0 -170 -114t-61 -327zM72 515q0 253 115 393q116 140 324 140t313 -140q106 -142 106 -397t-115 -395t-321 -140
t-314 142q-108 144 -108 397z" />
    <glyph glyph-name="afii10085.var.accented" unicode="&#x443;`" horiz-adv-x="913" 
d="M625 1573q35 0 89 -14t70 -31v-39l-335 -307l-43 35l208 356h11zM-20 1024h385v-47q-35 -29 -103 -51l225 -617l35 -127h4l27 129l168 615q-53 14 -98 49v49h311v-49q-37 -27 -103 -49l-286 -926q-76 -244 -147 -329t-177 -111q-35 57 -63 170l24 49h191q35 57 78 221
l-375 926q-39 10 -96 49v49z" />
    <glyph glyph-name="afii10093.var.accented" unicode="&#x44b;`" horiz-adv-x="1357" 
d="M780 1573q35 0 89 -14t71 -31v-39l-336 -307l-43 35l209 356h10zM1290 0h-399v49q66 37 106 49v828q-70 16 -108 49v49h401v-49q-39 -29 -121 -49v-828q70 -20 121 -49v-49zM474 536q-73 0 -116 -10v-440l95 -8q199 0 198 250q0 108 -52 158t-125 50zM68 0v49
q43 29 118 49v828q-49 6 -118 49v49h397v-49q-41 -29 -107 -49v-320q104 16 179 17q141 0 220 -74q79 -75 79 -229t-96 -241t-257 -87l-247 8h-168z" />
    <glyph glyph-name="afii10095.var.accented" unicode="&#x44d;`" horiz-adv-x="888" 
d="M530 1573q36 0 90 -14t70 -31v-39l-336 -307l-43 35l209 356h10zM384 -25q-188 0 -304 123l35 131h37l108 -145q39 -16 109 -16q121 0 191 112t73 303l-352 -30q-20 53 0 106h350q-10 403 -256 404q-76 0 -92 -15l-80 -252h-45q-39 131 -52 273q136 80 312 80t288 -123
q112 -124 112 -396t-124 -414q-122 -142 -310 -141z" />
    <glyph glyph-name="afii10096.var.accented" unicode="&#x44e;`" horiz-adv-x="1427" 
d="M797 1573q35 0 89 -14t70 -31v-39l-335 -307l-43 35l208 356h11zM934 963q-102 0 -162 -121t-59 -331q-1 -210 69 -330t172 -120q219 0 220 451q0 451 -240 451zM465 0h-397v49q43 27 118 49v828q-74 23 -118 49v49h397v-49q-47 -31 -107 -49v-365h177q8 229 118 359
q111 129 303 129q192 -1 295 -139q105 -138 105 -395t-108 -398t-297 -141t-299 124q-110 125 -117 375h-177v-377q56 -12 107 -49v-49z" />
    <glyph glyph-name="afii10097.var.accented" unicode="&#x44f;`" horiz-adv-x="964" 
d="M625 1573q35 0 89 -14t70 -31v-39l-335 -307l-43 35l208 356h11zM606 498v440q-61 12 -121 12q-193 0 -192 -221q0 -104 66 -168q67 -63 198 -63h49zM897 1024v-49q-35 -35 -119 -49v-828q72 -23 119 -49v-49h-397v49q39 29 106 49v351l-131 -21q-6 -12 -65 -137
t-144 -244l-57 -47h-209v49l100 49q61 76 146 209l90 146q-92 19 -156 87t-65 199q0 131 85 214t265 83l295 -12h137z" />
    <glyph glyph-name="afii10071.var.accented" unicode="&#x451;`" horiz-adv-x="911" 
d="M369 1264l129 350q27 4 79 -13t76 -38v-33l-237 -287zM608 1357q0 41 24 65t64 24t64 -25t24 -65t-24 -63t-64 -23t-64 24t-24 63zM170 1357q0 41 24 65t64 24t65 -25q23 -25 23 -65t-24 -63t-64 -23t-64 24t-24 63zM469 963q-92 0 -145 -84t-64 -279h387q2 25 2 70
q0 135 -44 214t-136 79zM827 664q0 -66 -12 -150h-559q0 -184 77 -300t226 -116q63 0 129 22t96 52l27 -31q-31 -73 -118 -119t-187 -47q-209 -1 -322 143q-112 144 -112 398t107 393q108 139 304 140q147 1 245 -91t99 -294z" />
    <glyph glyph-name="afii10101.var.accented" unicode="&#x454;`" horiz-adv-x="862" 
d="M590 1573q35 0 89 -14t71 -31v-39l-336 -307l-43 35l209 356h10zM610 518q0 -24 -10 -51h-342q14 -153 101 -261t210 -108t203 70l23 -27q-33 -73 -108 -119t-171 -47q-211 1 -328 145q-116 144 -116 395t119 392q121 141 311 141t291 -61q-10 -166 -60 -289h-47l-76 244
q-27 20 -84 21q-262 0 -270 -420l344 30q10 -31 10 -55z" />
    <glyph glyph-name="afii10103.var.accented" unicode="&#x456;`" horiz-adv-x="548" 
d="M391 1573q35 0 89 -14t71 -31v-39l-336 -307l-43 35l209 356h10zM481 0h-409v49q49 31 118 49v811l-118 17v49q92 43 243 74h47v-951q78 -20 119 -49v-49z" />
    <glyph glyph-name="afii10104.var.accented" unicode="&#x457;`" horiz-adv-x="632" 
d="M522 0h-409v49q49 31 118 49v811l-118 17v49q96 45 243 74h47v-951q76 -20 119 -49v-49zM530 1829q38 1 96 -19t76 -47v-41l-411 -186l-33 39l264 254h8zM365 1357q0 46 26 75q27 28 72 28t72 -28t27 -75q0 -46 -28 -74q-26 -28 -71 -28t-72 28q-26 28 -26 74zM70 1357
q0 46 26 75q27 28 72 28t73 -28q27 -28 27 -75q0 -46 -28 -74t-72 -28q-45 0 -72 28q-26 28 -26 74z" />
    <glyph glyph-name="afii10062.var.accented" unicode="&#x40e;`" horiz-adv-x="1193" 
d="M754 1952q39 0 96 -20t76 -46v-41l-348 -227l-31 39l198 295h9zM650 1497q-160 0 -242 73t-82 187q29 35 139 45l47 -26v-177q51 -29 139 -29t140 23v121l45 27q28 1 70 -13t63 -32q0 -86 -80 -142t-239 -57zM788 1434h406v-58q-47 -25 -131 -49l-346 -915
q-84 -218 -154 -322t-157 -104q-10 0 -35 4q-45 76 -60 217l29 49l188 -53q33 33 58 141l-451 983q-86 23 -135 49v58h483v-58q-61 -29 -147 -49l297 -692l37 -131h4l37 135l229 688q-86 14 -152 49v58z" />
    <glyph glyph-name="afii10110.var.accented" unicode="&#x45e;`" horiz-adv-x="913" 
d="M600 1649q35 -1 89 -15t71 -30v-39l-314 -281l-36 35l180 330h10zM492 1149q-160 0 -230 72t-69 178q49 43 137 55l47 -27v-182q45 -23 119 -23t127 17v147l47 27q86 -14 129 -55q1 -76 -73 -142t-234 -67zM-20 1024h385v-47q-35 -29 -103 -51l225 -617l35 -127h4l27 129
l168 615q-53 14 -98 49v49h311v-49q-37 -27 -103 -49l-286 -926q-76 -244 -147 -329t-177 -111q-35 57 -63 170l24 49h191q35 57 78 221l-375 926q-39 10 -96 49v49z" />
    <glyph glyph-name="afii10148.var.accented" unicode="&#x474;`" horiz-adv-x="1271" 
d="M850 1829q39 1 96 -19t76 -47v-41l-412 -186l-32 39l264 254h8zM0 1434h489v-58q-59 -25 -147 -49l274 -895l39 -160h4l25 160q66 281 178 557q113 276 205 397q49 62 129 72q37 -16 71 -98t36 -139l-31 -47l-174 55q-121 -205 -248 -567t-178 -687h-78l-457 1352
q-86 27 -137 49v58z" />
    <glyph glyph-name="afii10196.var.accented" unicode="&#x475;`" horiz-adv-x="927" 
d="M625 1573q35 0 89 -14t70 -31v-39l-335 -307l-43 35l208 356h11zM-18 1024h385v-47q-57 -35 -103 -51l207 -627l23 -106h4l18 120q92 428 207 631q57 100 137 100q12 0 19 -2q31 -27 55 -84t29 -106l-29 -49l-152 41q-78 -148 -170 -488l-94 -356l-90 -25l-350 951
q-53 20 -96 49v49z" />
    <glyph glyph-name="uni04AE.var.accented" unicode="&#x4ae;`" horiz-adv-x="1169" 
d="M852 1829q39 1 96 -19t76 -47v-41l-412 -186l-32 39l264 254h8zM770 1434h399v-58q-63 -37 -135 -49l-342 -717v-504q70 -10 137 -49v-57h-467v57q63 37 148 49v502l-365 719q-66 12 -145 49v58h487v-58q-53 -25 -137 -49l291 -608l274 608q-90 24 -145 49v58z" />
    <glyph glyph-name="uni04AF.var.accented" unicode="&#x4af;`" horiz-adv-x="919" 
d="M625 1573q35 0 89 -14t70 -31v-39l-335 -307l-43 35l208 356h11zM672 -410h-410v50q49 31 119 49v403l-303 834q-53 20 -96 49v49h385v-47q-57 -35 -103 -51l205 -627l37 -127h4l29 129l186 625q-49 14 -98 49v49h311v-49q-37 -27 -102 -49l-283 -828v-409
q76 -20 119 -49v-50z" />
    <glyph glyph-name="uni04B0.var.accented" unicode="&#x4b0;`" horiz-adv-x="1169" 
d="M844 1829q39 1 96 -19t76 -47v-41l-412 -186l-33 39l265 254h8zM770 1434h399v-58q-61 -35 -137 -49l-340 -717h262v-102h-262v-402q70 -10 137 -49v-57h-467v57q63 37 148 49v402h-262v102h260l-363 717q-66 12 -145 49v58h487v-58q-53 -25 -137 -49l293 -608l275 608
q-89 24 -148 49v58z" />
    <glyph glyph-name="uni04B1.var.accented" unicode="&#x4b1;`" horiz-adv-x="919" 
d="M627 1573q35 0 89 -14t70 -31v-39l-335 -307l-43 35l208 356h11zM164 0v102h211l-297 824q-53 20 -96 49v49h385v-47q-57 -35 -103 -51q158 -477 162 -488l76 -266h4q68 252 72 268l147 486q-49 14 -98 49v49h311v-49q-37 -27 -102 -49l-277 -824h211v-102h-217v-311
q76 -20 119 -49v-50h-410v50q49 31 119 49v311h-217z" />
    <glyph glyph-name="uni04D0.var.accented" unicode="&#x4d0;`" horiz-adv-x="1239" 
d="M731 1952q39 0 96 -20t76 -46v-41l-348 -227l-31 39l199 295h8zM628 1497q-159 0 -242 73t-83 187q29 35 139 45l47 -26v-177q51 -29 139 -29t140 23v121l45 27q29 1 71 -13t62 -32q0 -86 -80 -142t-238 -57zM541 1024l-138 -436h361l-141 440l-33 176h-4zM403 0h-403v57
q66 33 129 49l459 1352h59l455 -1352q92 -20 137 -49v-57h-471v57q82 35 147 49l-120 379h-428l-119 -379q77 -12 155 -49v-57z" />
    <glyph glyph-name="uni04D1.var.accented" unicode="&#x4d1;`" horiz-adv-x="919" 
d="M567 1649q35 -1 89 -15t71 -30v-39l-313 -281l-37 35l180 330h10zM459 1149q-160 0 -230 72t-69 178q49 43 137 55l47 -27v-182q45 -23 119 -23t127 17v147l47 27q86 -14 129 -55q0 -76 -74 -142t-233 -67zM584 496q-197 0 -266 -50q-68 -50 -68 -149t38 -149t112 -50
q73 0 120 60t64 123v215zM317 -25q-109 0 -179 76t-70 197q0 180 117 244q118 63 399 79q6 63 6 123q0 268 -156 269q-74 0 -117 -21l-86 -246h-49q-45 141 -53 254q143 98 346 99q283 0 283 -326l-10 -457l6 -147l125 -21v-41q-88 -51 -213 -77h-48q-23 63 -26 229h-10
q-16 -92 -86 -163t-179 -71z" />
    <glyph glyph-name="uni04D2.var.accented" unicode="&#x4d2;`" horiz-adv-x="1239" 
d="M481 1554l178 291q31 0 86 -19t74 -46v-39l-307 -225zM788 1614q0 46 25 70t65 24t64 -26t25 -68q0 -42 -25 -68q-24 -24 -64 -24t-65 24t-25 68zM274 1615q0 45 25 69t66 24t65 -25t25 -69q0 -44 -25 -69q-24 -23 -64 -23t-66 24t-26 69zM541 1024l-138 -436h361
l-141 440l-33 176h-4zM403 0h-403v57q66 33 129 49l459 1352h59l455 -1352q92 -20 137 -49v-57h-471v57q82 35 147 49l-120 379h-428l-119 -379q77 -12 155 -49v-57z" />
    <glyph glyph-name="uni04D3.var.accented" unicode="&#x4d3;`" horiz-adv-x="919" 
d="M342 1264l129 350q27 4 79 -13t77 -38v-33l-238 -287zM582 1357q0 41 24 65t63 24q41 0 65 -25t24 -65t-25 -63t-63 -23t-64 23q-24 24 -24 64zM143 1357q0 41 24 65q25 24 65 24t64 -25t24 -65t-26 -63q-24 -23 -63 -23t-63 24t-25 63zM584 496q-197 0 -266 -50
q-68 -50 -68 -149t38 -149t112 -50q73 0 120 60t64 123v215zM317 -25q-109 0 -179 76t-70 197q0 180 117 244q118 63 399 79q6 63 6 123q0 268 -156 269q-74 0 -117 -21l-86 -246h-49q-45 141 -53 254q143 98 346 99q283 0 283 -326l-10 -457l6 -147l125 -21v-41
q-88 -51 -213 -77h-48q-23 63 -26 229h-10q-16 -92 -86 -163t-179 -71z" />
    <glyph glyph-name="uni04D4.var.accented" unicode="&#x4d4;`" horiz-adv-x="1665" 
d="M1114 1829q39 1 96 -19t76 -47v-41l-412 -186l-32 39l264 254h8zM813 629v626h-4l-74 -190l-217 -436h295zM995 1331v-549h287l72 152h45q6 -102 6 -204t-6 -206h-45l-72 156h-287v-578h410l88 246h49q20 -164 21 -348h-895v57q63 33 145 49v420h-350l-207 -420
q74 -12 152 -49v-57h-406v57q63 33 129 49l637 1231q-66 18 -104 39v58h864q-4 -199 -21 -328h-49l-76 225h-387z" />
    <glyph glyph-name="uni04D5.var.accented" unicode="&#x4d5;`" horiz-adv-x="1409" 
d="M809 1573q35 0 89 -14t71 -31v-39l-336 -307l-43 35l209 356h10zM1147 672q0 291 -179 291q-92 0 -146 -84t-64 -279h387q2 25 2 72zM584 496q-197 0 -266 -50q-68 -50 -68 -149t38 -149t112 -50q73 0 120 58t64 116v224zM981 1049q147 1 245 -91t99 -294q0 -66 -12 -150
h-559q2 -186 79 -301t224 -115q63 0 129 22t96 52l27 -31q-29 -73 -117 -119t-196 -46t-212 52q-102 52 -153 175q-29 -98 -114 -163t-197 -65t-182 76t-70 197q0 180 117 244q118 63 399 79q6 63 6 123q0 268 -156 269q-74 0 -117 -21l-86 -246h-49q-45 141 -53 254
q143 98 336 98t244 -122q47 61 105 92t167 31z" />
    <glyph glyph-name="uni04D6.var.accented" unicode="&#x4d6;`" horiz-adv-x="1050" 
d="M612 1952q38 0 96 -20t76 -46v-41l-348 -227l-30 39l198 295h8zM509 1497q-159 0 -242 73t-83 187q29 35 140 45l47 -26v-177q51 -29 139 -29t139 23v121l45 27q29 1 71 -13t62 -32q0 -86 -79 -143q-80 -56 -239 -56zM51 1434h862q-4 -199 -20 -328h-49l-76 225h-387
v-549h287l71 152h45q13 -218 0 -410h-45l-71 156h-287v-578h410l88 246h49q20 -164 20 -348h-897v57q63 33 148 49v1221q-80 16 -148 49v58z" />
    <glyph glyph-name="uni04D7.var.accented" unicode="&#x4d7;`" horiz-adv-x="911" 
d="M582 1649q35 -1 89 -15t70 -30v-39l-313 -281l-37 35l180 330h11zM473 1149q-159 0 -229 72t-70 178q49 43 137 55l47 -27v-182q45 -23 119 -23t127 17v147l47 27q86 -14 129 -55q0 -76 -73 -143q-74 -66 -234 -66zM469 963q-92 0 -145 -84t-64 -279h387q2 25 2 70
q0 135 -44 214t-136 79zM827 664q0 -66 -12 -150h-559q0 -184 77 -300t226 -116q63 0 129 22t96 52l27 -31q-31 -73 -118 -119t-187 -47q-209 -1 -322 143q-112 144 -112 398t107 393q108 139 304 140q147 1 245 -91t99 -294z" />
    <glyph glyph-name="uni04D8.var.accented" unicode="&#x4d8;`" horiz-adv-x="1280" 
d="M709 1829q39 1 96 -19t76 -47v-41l-412 -186l-33 39l264 254h9zM646 78q163 0 254 144t97 435h-706q-2 -29 -2 -84q0 -213 97 -354t260 -141zM1188 722q0 -362 -146 -555q-146 -192 -402 -192q-255 0 -401 169t-147 495q0 55 6 121h899q-7 280 -121 438t-331 158
q-139 0 -191 -29l-94 -295h-49q-27 141 -27 344q154 82 371 82q311 0 472 -187t161 -549z" />
    <glyph glyph-name="afii10846.var.accented" unicode="&#x4d9;`" horiz-adv-x="937" 
d="M606 1573q35 0 89 -14t71 -31v-39l-336 -307l-43 35l209 356h10zM463 61q201 0 219 390h-414q-2 -20 -2 -58q0 -152 54 -242t143 -90zM436 963q-74 0 -119 -21l-86 -246h-49q-37 135 -45 254q143 98 337 98t293 -140q99 -142 99 -398t-108 -395t-301 -140
q-149 1 -261 105t-112 317q0 61 12 140h590q-2 199 -56 313t-194 113z" />
    <glyph glyph-name="uni04DA.var.accented" unicode="&#x4da;`" horiz-adv-x="1280" 
d="M465 1554l178 291q31 0 86 -19t74 -46v-39l-307 -225zM772 1614q0 46 25 70t65 24t64 -26t24 -68t-24 -68q-24 -24 -65 -24t-65 24t-24 68zM258 1615q0 45 25 69t65 24t66 -25q24 -25 24 -69t-24 -69q-24 -23 -65 -23q-39 0 -65 24t-26 69zM646 78q163 0 254 144t97 435
h-706q-2 -29 -2 -84q0 -213 97 -354t260 -141zM1188 722q0 -362 -146 -555q-146 -192 -402 -192q-255 0 -401 169t-147 495q0 55 6 121h899q-7 280 -121 438t-331 158q-139 0 -191 -29l-94 -295h-49q-27 141 -27 344q154 82 371 82q311 0 472 -187t161 -549z" />
    <glyph glyph-name="uni04DB.var.accented" unicode="&#x4db;`" horiz-adv-x="937" 
d="M362 1264l130 350q26 4 78 -13t77 -38v-33l-237 -287zM602 1357q0 41 24 65t64 24t64 -25t24 -65t-24 -63t-64 -23t-64 24t-24 63zM164 1357q0 41 24 65t64 24t64 -25t24 -65t-25 -63t-63 -23t-64 23q-24 24 -24 64zM463 61q201 0 219 390h-414q-2 -20 -2 -58
q0 -152 54 -242t143 -90zM436 963q-74 0 -119 -21l-86 -246h-49q-37 135 -45 254q143 98 337 98t293 -140q99 -142 99 -398t-108 -395t-301 -140q-149 1 -261 105t-112 317q0 61 12 140h590q-2 199 -56 313t-194 113z" />
    <glyph glyph-name="uni04E2.var.accented" unicode="&#x4e2;`" horiz-adv-x="1339" 
d="M950 1616h-547v102h547v-102zM842 2034q39 0 96 -20t76 -46v-41l-412 -186l-33 39l265 254h8zM516 0h-465v57q74 37 148 49v1221q-94 23 -148 49v58h465v-58q-70 -37 -135 -49v-901l-21 -154l89 162l520 844v49q-86 23 -146 49v58h465v-58q-49 -27 -149 -49v-1221
q82 -14 149 -49v-57h-465v57q76 37 133 49v900l21 151l-78 -151l-528 -854v-46q75 -14 145 -49v-57z" />
    <glyph glyph-name="uni04E3.var.accented" unicode="&#x4e3;`" horiz-adv-x="1110" 
d="M813 1227h-463v102h463v-102zM702 1763q36 0 90 -14t70 -31v-39l-336 -307l-43 35l209 356h10zM68 1024h391v-49q-39 -27 -109 -49v-574l-20 -190h10l70 153l381 709h251v-49q-55 -37 -118 -49v-828q90 -29 118 -49v-49h-389v49q47 33 107 49v596l18 162h-8l-70 -154
l-376 -702h-256v49q45 27 118 49v828q-69 12 -118 49v49z" />
    <glyph glyph-name="uni04E4.var.accented" unicode="&#x4e4;`" horiz-adv-x="1339" 
d="M532 1554l179 291q31 0 86 -19t73 -46v-39l-307 -225zM840 1614q0 46 24 70t65 24t65 -26t24 -68t-25 -68q-25 -24 -65 -24t-64 23q-24 24 -24 69zM326 1615q0 45 26 69t65 24q41 0 65 -25t24 -69t-25 -69q-25 -23 -65 -23t-65 24q-25 25 -25 69zM516 0h-465v57
q74 37 148 49v1221q-94 23 -148 49v58h465v-58q-70 -37 -135 -49v-901l-21 -154l89 162l520 844v49q-86 23 -146 49v58h465v-58q-49 -27 -149 -49v-1221q82 -14 149 -49v-57h-465v57q76 37 133 49v900l21 151l-78 -151l-528 -854v-46q75 -14 145 -49v-57z" />
    <glyph glyph-name="uni04E5.var.accented" unicode="&#x4e5;`" horiz-adv-x="1110" 
d="M451 1264l129 350q26 4 78 -13t77 -38v-33l-237 -287zM690 1357q0 41 24 65t64 24t64 -25t24 -65t-24 -63t-64 -23t-64 24t-24 63zM252 1357q0 41 24 65t64 24t64 -25t24 -65t-25 -63t-63 -23t-64 23q-24 24 -24 64zM68 1024h391v-49q-39 -27 -109 -49v-574l-20 -190h10
l70 153l381 709h251v-49q-55 -37 -118 -49v-828q90 -29 118 -49v-49h-389v49q47 33 107 49v596l18 162h-8l-70 -154l-376 -702h-256v49q45 27 118 49v828q-69 12 -118 49v49z" />
    <glyph glyph-name="uni04E6.var.accented" unicode="&#x4e6;`" horiz-adv-x="1335" 
d="M528 1554l179 291q31 0 86 -19t73 -46v-39l-307 -225zM836 1614q0 46 24 70t65 24t65 -26t24 -68t-25 -68q-25 -24 -65 -24t-64 23q-24 24 -24 69zM322 1615q0 45 26 69t65 24q41 0 65 -25t24 -69t-25 -69q-25 -23 -65 -23t-65 24q-25 25 -25 69zM295 720
q0 -282 100 -462q99 -180 281 -180t273 180t91 460t-98 459t-284 179t-275 -177q-88 -177 -88 -459zM92 717q0 329 154 535t422 206t422 -207t154 -535t-154 -534q-154 -207 -422 -207t-422 206t-154 536z" />
    <glyph glyph-name="uni04E7.var.accented" unicode="&#x4e7;`" horiz-adv-x="1001" 
d="M256 522q0 -213 66 -337t208 -124q98 0 157 115q58 115 58 327t-62 336t-196 124q-109 0 -170 -114t-61 -327zM72 515q0 253 115 393q116 140 324 140t313 -140q106 -142 106 -397t-115 -395t-321 -140t-314 142q-108 144 -108 397zM393 1264l129 350q27 4 79 -13t77 -38
v-33l-238 -287zM633 1357q-1 41 23 65t64 24t64 -25t25 -65q0 -40 -25 -63q-26 -23 -64 -23t-63 23q-24 24 -24 64zM195 1357q-1 41 23 65t65 24t65 -25t23 -65q0 -40 -25 -63q-26 -23 -64 -23t-63 23q-24 24 -24 64z" />
    <glyph glyph-name="uni04E8.var.accented" unicode="&#x4e8;`" horiz-adv-x="1335" 
d="M846 1829q39 1 96 -19t76 -47v-41l-412 -186l-33 39l265 254h8zM655 1356q-174 0 -260 -155t-98 -410h743q-14 253 -112 409t-273 156zM677 78q173 0 264 166t99 428h-745q9 -262 109 -428t273 -166zM92 717q0 329 154 535t422 206t422 -207t154 -535t-154 -534
q-154 -207 -422 -207t-422 206t-154 536z" />
    <glyph glyph-name="uni04E9.var.accented" unicode="&#x4e9;`" horiz-adv-x="1001" 
d="M625 1573q35 0 89 -14t70 -31v-39l-335 -307l-43 35l208 356h11zM532 61q92 -1 150 103t63 305h-489q6 -186 72 -297t204 -111zM496 963q-222 0 -240 -392h489q-10 178 -73 285q-64 107 -176 107zM72 515q0 253 115 393q116 140 324 140t313 -140q106 -142 106 -397
t-115 -395t-321 -140t-314 142q-108 144 -108 397z" />
    <glyph glyph-name="uni04EA.var.accented" unicode="&#x4ea;`" horiz-adv-x="1335" 
d="M528 1554l179 291q31 0 86 -19t73 -46v-39l-307 -225zM836 1614q0 46 24 70t65 24t65 -26t24 -68t-25 -68q-25 -24 -65 -24t-64 23q-24 24 -24 69zM322 1615q0 45 26 69t65 24q41 0 65 -25t24 -69t-25 -69q-25 -23 -65 -23t-65 24q-25 25 -25 69zM655 1356
q-174 0 -260 -155t-98 -410h743q-14 253 -112 409t-273 156zM677 78q173 0 264 166t99 428h-745q9 -262 109 -428t273 -166zM92 717q0 329 154 535t422 206t422 -207t154 -535t-154 -534q-154 -207 -422 -207t-422 206t-154 536z" />
    <glyph glyph-name="uni04EB.var.accented" unicode="&#x4eb;`" horiz-adv-x="1001" 
d="M403 1264l129 350q27 4 79 -13t77 -38v-33l-237 -287zM643 1357q0 41 24 65q23 24 63 24t65 -25t25 -65t-26 -63q-24 -23 -63 -23t-63 24t-25 63zM205 1357q-1 41 23 65t65 24t65 -25t23 -65q0 -40 -25 -63q-26 -23 -64 -23t-63 23q-24 24 -24 64zM532 61q92 -1 150 103
t63 305h-489q6 -186 72 -297t204 -111zM496 963q-222 0 -240 -392h489q-10 178 -73 285q-64 107 -176 107zM72 515q0 253 115 393q116 140 324 140t313 -140q106 -142 106 -397t-115 -395t-321 -140t-314 142q-108 144 -108 397z" />
    <glyph glyph-name="uni04EC.var.accented" unicode="&#x4ec;`" horiz-adv-x="1142" 
d="M365 1554l178 291q31 0 86 -19t73 -46v-39l-307 -225zM672 1614q0 46 24 70t65 24t65 -26t24 -68t-25 -68q-25 -24 -65 -24t-64 23q-24 24 -24 69zM158 1615q0 45 26 69t65 24q41 0 65 -25t24 -69t-25 -69q-25 -23 -65 -23t-65 24q-25 25 -25 69zM430 1458
q621 0 621 -730q0 -376 -175 -564t-430 -189q-217 0 -344 70q10 219 29 348h47l96 -295q33 -20 156 -20q172 0 299 166t129 463l-518 -62q-10 45 -10 79t10 75h518q-12 274 -127 415t-313 142q-109 0 -144 -39l-92 -250h-49q-20 123 -20 307q100 84 317 84z" />
    <glyph glyph-name="uni04ED.var.accented" unicode="&#x4ed;`" horiz-adv-x="888" 
d="M328 1264l129 350q27 4 79 -13t76 -38v-33l-237 -287zM567 1357q0 41 24 65q23 24 63 24t65 -25t25 -65t-26 -63q-24 -23 -63 -23t-63 24t-25 63zM129 1357q0 41 24 65q25 24 65 24t64 -25t24 -65t-26 -63q-24 -23 -63 -23t-63 24t-25 63zM384 -25q-188 0 -304 123
l35 131h37l108 -145q39 -16 109 -16q121 0 191 112t73 303l-352 -30q-20 53 0 106h350q-10 403 -256 404q-76 0 -92 -15l-80 -252h-45q-39 131 -52 273q136 80 312 80t288 -123q112 -124 112 -396t-124 -414q-122 -142 -310 -141z" />
    <glyph glyph-name="uni04EE.var.accented" unicode="&#x4ee;`" horiz-adv-x="1193" 
d="M911 1616h-546v102h546v-102zM786 2034q38 0 96 -20t76 -46v-41l-411 -186l-33 39l264 254h8zM788 1434h406v-58q-47 -25 -131 -49l-346 -915q-84 -218 -154 -322t-157 -104q-10 0 -35 4q-45 76 -60 217l29 49l188 -53q33 33 58 141l-451 983q-86 23 -135 49v58h483v-58
q-61 -29 -147 -49l297 -692l37 -131h4l37 135l229 688q-86 14 -152 49v58z" />
    <glyph glyph-name="uni04EF.var.accented" unicode="&#x4ef;`" horiz-adv-x="913" 
d="M606 1763q35 0 89 -14t71 -31v-39l-336 -307l-43 35l209 356h10zM715 1227h-463v102h463v-102zM-20 1024h385v-47q-35 -29 -103 -51l225 -617l35 -127h4l27 129l168 615q-53 14 -98 49v49h311v-49q-37 -27 -103 -49l-286 -926q-76 -244 -147 -329t-177 -111
q-35 57 -63 170l24 49h191q35 57 78 221l-375 926q-39 10 -96 49v49z" />
    <glyph glyph-name="uni04F0.var.accented" unicode="&#x4f0;`" horiz-adv-x="1193" 
d="M489 1554l179 291q31 0 86 -19t73 -46v-39l-307 -225zM797 1614q1 46 25 70t64 24t64 -26t25 -68q0 -42 -25 -68q-24 -24 -64 -24t-65 23q-24 24 -24 69zM283 1615q1 45 25 69t65 24t65 -25t25 -69q0 -44 -25 -69q-24 -23 -64 -23t-66 24q-25 25 -25 69zM788 1434h406
v-58q-47 -25 -131 -49l-346 -915q-84 -218 -154 -322t-157 -104q-10 0 -35 4q-45 76 -60 217l29 49l188 -53q33 33 58 141l-451 983q-86 23 -135 49v58h483v-58q-61 -29 -147 -49l297 -692l37 -131h4l37 135l229 688q-86 14 -152 49v58z" />
    <glyph glyph-name="uni04F1.var.accented" unicode="&#x4f1;`" horiz-adv-x="913" 
d="M385 1264l129 350q27 4 79 -13t77 -38v-33l-238 -287zM625 1357q-1 41 23 65t64 24t64 -25t25 -65q0 -40 -25 -63q-26 -23 -64 -23t-63 23q-24 24 -24 64zM186 1357q0 41 24 65t64 24t65 -25q23 -25 23 -65t-24 -63t-64 -23t-64 24t-24 63zM-20 1024h385v-47
q-35 -29 -103 -51l225 -617l35 -127h4l27 129l168 615q-53 14 -98 49v49h311v-49q-37 -27 -103 -49l-286 -926q-76 -244 -147 -329t-177 -111q-35 57 -63 170l24 49h191q35 57 78 221l-375 926q-39 10 -96 49v49z" />
    <glyph glyph-name="uni04F2.var.accented" unicode="&#x4f2;`" horiz-adv-x="1193" 
d="M788 1954q29 0 67 -14t56 -31v-39l-299 -258l-41 35l209 307h8zM934 1796q33 0 83 -16t64 -37l-2 -21l-352 -172l-41 37l240 209h8zM467 1819q33 -1 81 -15t58 -32v-29l-233 -189l-37 37l123 228h8zM788 1434h406v-58q-47 -25 -131 -49l-346 -915q-84 -218 -154 -322
t-157 -104q-10 0 -35 4q-45 76 -60 217l29 49l188 -53q33 33 58 141l-451 983q-86 23 -135 49v58h483v-58q-61 -29 -147 -49l297 -692l37 -131h4l37 135l229 688q-86 14 -152 49v58z" />
    <glyph glyph-name="uni04F3.var.accented" unicode="&#x4f3;`" horiz-adv-x="913" 
d="M641 1716q35 0 90 -14t72 -31v-39l-275 -311l-39 35l142 360h10zM809 1573q35 -1 84 -17t65 -40v-25l-366 -262l-39 35l248 309h8zM371 1573q33 0 86 -13t61 -30v-29l-248 -272l-45 31l137 313h9zM-20 1024h385v-47q-35 -29 -103 -51l225 -617l35 -127h4l27 129l168 615
q-53 14 -98 49v49h311v-49q-37 -27 -103 -49l-286 -926q-76 -244 -147 -329t-177 -111q-35 57 -63 170l24 49h191q35 57 78 221l-375 926q-39 10 -96 49v49z" />
    <glyph glyph-name="uni04F8.var.accented" unicode="&#x4f8;`" horiz-adv-x="1538" 
d="M629 1554l178 291q31 0 86 -19t74 -46v-39l-308 -225zM936 1614q0 46 25 70t65 24t64 -26t24 -68t-24 -68q-24 -24 -65 -24t-65 24t-24 68zM422 1615q0 45 24 69t66 24q41 0 66 -25q24 -25 24 -69t-24 -69q-24 -23 -65 -23q-40 0 -66 24q-25 25 -25 69zM502 766
q-84 0 -121 -12v-648q29 -10 141 -10t189 91q78 91 77 262q1 317 -286 317zM51 0v57q70 37 148 49v1221q-74 16 -148 49v58h488v-58q-78 -35 -158 -49v-473q100 14 162 14q449 0 448 -422q0 -224 -139 -338t-336 -114l-227 6h-238zM1487 0h-467v57q51 31 139 49v1221
q-88 20 -141 49v58h469v-58q-61 -35 -146 -49v-1221q78 -14 146 -49v-57z" />
    <glyph glyph-name="uni04F9.var.accented" unicode="&#x4f9;`" horiz-adv-x="1357" 
d="M571 1264l129 350q27 4 79 -13t77 -38v-33l-238 -287zM811 1357q0 41 24 65q23 24 63 24t65 -25t25 -65t-26 -63q-24 -23 -63 -23t-63 24t-25 63zM373 1357q-1 41 23 65t65 24t65 -25t23 -65q0 -40 -25 -63q-26 -23 -64 -23t-63 23q-24 24 -24 64zM1290 0h-399v49
q66 37 106 49v828q-70 16 -108 49v49h401v-49q-39 -29 -121 -49v-828q70 -20 121 -49v-49zM474 536q-73 0 -116 -10v-440l95 -8q199 0 198 250q0 108 -52 158t-125 50zM68 0v49q43 29 118 49v828q-49 6 -118 49v49h397v-49q-41 -29 -107 -49v-320q104 16 179 17
q141 0 220 -74q79 -75 79 -229t-96 -241t-257 -87l-247 8h-168z" />
    <glyph glyph-name="uniF37E.var.accented" unicode="&#xf37e;`" horiz-adv-x="1026" 
d="M471 1360l180 330q35 0 93 -14t77 -31v-39l-313 -281zM553 1190q-159 0 -229 72t-70 178q49 43 137 55l47 -27v-182q45 -22 119 -22t127 16v147l47 27q86 -14 129 -55q0 -77 -74 -143t-233 -66zM672 1104h354v-51q-37 -18 -111 -41l-292 -695q-70 -167 -136 -247
t-141 -80q-18 0 -29 2q-18 29 -35 85t-22 95l29 47l168 -47q18 23 47 96l-393 744q-57 16 -111 41v51h434v-51q-53 -23 -121 -41l238 -490l33 -100h2l30 102l181 488q-68 14 -125 41v51z" />
    <glyph glyph-name="uniF3A2.var.accented" unicode="&#xf3a2;`" horiz-adv-x="1017" 
d="M717 1614q35 0 89 -14t71 -31v-39l-336 -307l-43 34l209 357h10zM666 1104h352v-51q-61 -33 -113 -41l-291 -545v-375q59 -8 117 -41v-51h-422v51q53 29 125 41v373l-309 547q-53 10 -125 41v51h442v-51q-57 -27 -114 -41l237 -449l228 449q-76 21 -127 41v51z" />
    <glyph glyph-name="uniF3A3.accented" unicode="&#xf3a3;`" horiz-adv-x="1017" 
d="M700 1614q36 0 90 -14t70 -31v-39l-336 -307l-43 34l209 357h10zM666 1104h352v-51q-61 -33 -113 -41l-291 -545h220v-88h-220v-287q59 -10 117 -41v-51h-424v51q57 29 127 41v287h-217v88h215l-307 545q-53 10 -125 41v51h442v-51q-57 -27 -114 -41l237 -449l228 449
q-76 21 -127 41v51z" />
    <glyph glyph-name="uniF3B2.var.accented" unicode="&#xf3b2;`" horiz-adv-x="1075" 
d="M449 1360l180 330q35 0 93 -14t77 -31v-39l-314 -281zM531 1190q-160 0 -230 72t-70 178q49 43 138 55l47 -27v-182q45 -22 119 -22t127 16v147l47 27q86 -14 129 -55q0 -77 -74 -143t-233 -66zM463 776l-113 -321h297l-115 323l-28 137h-4zM354 0h-354v51q53 29 111 41
l385 1030h73l389 -1030q74 -16 117 -41v-51h-426v51q74 31 123 41l-96 275h-357l-98 -275q70 -10 133 -41v-51z" />
    <glyph glyph-name="uniF3B3.var.accented" unicode="&#xf3b3;`" horiz-adv-x="1075" 
d="M438 1305l129 350q27 5 79 -13t77 -38v-33l-238 -287zM678 1398q0 40 24 64t63 25q41 0 65 -25q24 -24 24 -64t-25 -64t-63 -24t-64 24q-24 24 -24 64zM240 1398q0 40 24 64t64 25q40 0 64 -25q24 -24 24 -64t-25 -64t-63 -24t-64 24q-24 24 -24 64zM463 776l-113 -321
h297l-115 323l-28 137h-4zM354 0h-354v51q53 29 111 41l385 1030h73l389 -1030q74 -16 117 -41v-51h-426v51q74 31 123 41l-96 275h-357l-98 -275q70 -10 133 -41v-51z" />
    <glyph glyph-name="uniF3B4.var.accented" unicode="&#xf3b4;`" horiz-adv-x="1456" 
d="M905 1614q35 0 89 -14t71 -31v-39l-336 -307l-43 34l209 357h10zM694 485v469h-4l-59 -145l-182 -324h245zM872 1016v-408h224l65 119h41q6 -80 6 -165t-6 -165h-41l-65 123h-224v-432h330l78 195h49q23 -158 23 -283h-781v51q63 31 123 41v305h-295l-170 -305
q70 -12 125 -41v-51h-352v51q53 29 109 41l538 928q-53 14 -90 33v51h766q-4 -131 -22 -266h-50l-67 178h-314z" />
    <glyph glyph-name="uniF3B5.var.accented" unicode="&#xf3b5;`" horiz-adv-x="937" 
d="M369 1360l180 330q35 0 93 -14t77 -31v-39l-313 -281zM451 1190q-160 0 -230 72t-69 178q49 43 137 55l47 -27v-182q45 -22 119 -22t127 16v147l47 27q86 -14 129 -55q0 -77 -74 -143t-233 -66zM51 1104h756q-4 -147 -21 -266h-49l-67 178h-314v-408h226l61 119h43
q6 -80 6 -165t-6 -165h-43l-61 123h-226v-432h330l78 195h49q23 -135 23 -283h-785v51q63 31 125 41v920q-63 12 -125 41v51z" />
    <glyph glyph-name="uniF3B6.var.accented" unicode="&#xf3b6;`" horiz-adv-x="1130" 
d="M653 1614q35 0 89 -14t71 -31v-39l-336 -307l-43 34l209 357h10zM569 70q262 0 275 432h-553q-4 -45 -4 -70q-1 -156 75 -259t207 -103zM1038 554q0 -278 -126 -424q-126 -148 -348 -148t-347 129t-125 378q0 47 6 101h746q-4 213 -95 329t-268 115q-113 0 -153 -22
l-82 -234h-49q-25 121 -25 279q135 66 324 65q264 0 403 -145t139 -423z" />
    <glyph glyph-name="uniF3B7.accented" unicode="&#xf3b7;`" horiz-adv-x="1130" 
d="M430 1305l129 350q27 5 79 -13t77 -38v-33l-238 -287zM670 1398q0 40 24 64t63 25q41 0 65 -25q24 -24 24 -64t-25 -64t-63 -24t-64 24q-24 24 -24 64zM231 1398q0 40 24 64q25 24 65 25q40 0 64 -25q24 -24 24 -64t-25 -64t-64 -24t-63 24t-25 64zM569 70q262 0 275 432
h-553q-4 -45 -4 -70q-1 -156 75 -259t207 -103zM1038 554q0 -278 -126 -424q-126 -148 -348 -148t-347 129t-125 378q0 47 6 101h746q-4 213 -95 329t-268 115q-113 0 -153 -22l-82 -234h-49q-25 121 -25 279q135 66 324 65q264 0 403 -145t139 -423z" />
    <glyph glyph-name="uniF3BB.var.accented" unicode="&#xf3bb;`" horiz-adv-x="1183" 
d="M715 1804q35 0 89 -14t70 -31v-39l-335 -307l-43 35l209 356h10zM823 1268h-463v102h463v-102zM469 0h-418v51q70 33 125 41v920q-78 18 -125 41v51h418v-51q-63 -33 -113 -41v-656l-18 -120l74 126l426 613v37q-66 16 -125 41v51h420v-51q-41 -20 -127 -41v-920
q66 -12 127 -41v-51h-420v51q61 29 112 41v653l19 121l-68 -121l-432 -618v-35q59 -10 125 -41v-51z" />
    <glyph glyph-name="uniF3BC.var.accented" unicode="&#xf3bc;`" horiz-adv-x="1183" 
d="M483 1305l129 350q27 5 79 -13t77 -38v-33l-238 -287zM723 1398q-1 40 23 64t64 25q40 0 64 -25q24 -24 25 -64q0 -40 -25 -64q-26 -24 -64 -24t-62 24t-25 64zM285 1398q-1 40 23 64t65 25q41 0 65 -25q24 -24 23 -64q0 -40 -25 -64q-26 -24 -64 -24t-63 24
q-24 24 -24 64zM469 0h-418v51q70 33 125 41v920q-78 18 -125 41v51h418v-51q-63 -33 -113 -41v-656l-18 -120l74 126l426 613v37q-66 16 -125 41v51h420v-51q-41 -20 -127 -41v-920q66 -12 127 -41v-51h-420v51q61 29 112 41v653l19 121l-68 -121l-432 -618v-35
q59 -10 125 -41v-51z" />
    <glyph glyph-name="uniF3BD.var.accented" unicode="&#xf3bd;`" horiz-adv-x="1181" 
d="M582 1034q-151 0 -220 -132t-69 -348t79 -350t225 -134t219 134t73 349t-78 348t-229 133zM92 552q0 253 132 412q132 158 366 158t366 -158q134 -158 134 -412q0 -253 -134 -412q-134 -158 -366 -158q-233 0 -366 158q-132 159 -132 412zM483 1305l129 350q27 5 79 -13
t77 -38v-33l-238 -287zM723 1398q-1 40 23 64t64 25q40 0 64 -25q24 -24 25 -64q0 -40 -25 -64q-26 -24 -64 -24t-62 24t-25 64zM285 1398q-1 40 23 64t65 25q41 0 65 -25q24 -24 23 -64q0 -40 -25 -64q-26 -24 -64 -24t-63 24q-24 24 -24 64z" />
    <glyph glyph-name="uniF3BE.var.accented" unicode="&#xf3be;`" horiz-adv-x="1181" 
d="M729 1614q35 0 89 -14t71 -31v-39l-336 -307l-43 34l209 357h10zM581 1034q-142 0 -211 -116t-77 -310h596q-10 194 -88 310t-220 116zM598 70q137 0 210 120t81 316h-596q10 -196 89 -316t216 -120zM92 552q0 253 132 412q132 158 366 158t366 -158q134 -158 134 -412
q0 -253 -134 -412q-134 -158 -366 -158q-233 0 -366 158q-132 159 -132 412z" />
    <glyph glyph-name="uniF3BF.accented" unicode="&#xf3bf;`" horiz-adv-x="1181" 
d="M485 1305l129 350q27 5 79 -13t77 -38v-33l-238 -287zM725 1398q0 40 24 64q23 24 63 25q40 0 65 -25q25 -24 25 -64t-26 -64q-24 -24 -63 -24t-63 24t-25 64zM287 1398q-1 40 23 64t65 25q41 0 65 -25q24 -24 23 -64q0 -40 -25 -64q-26 -24 -64 -24t-63 24
q-24 24 -24 64zM581 1034q-142 0 -211 -116t-77 -310h596q-10 194 -88 310t-220 116zM598 70q137 0 210 120t81 316h-596q10 -196 89 -316t216 -120zM92 552q0 253 132 412q132 158 366 158t366 -158q134 -158 134 -412q0 -253 -134 -412q-134 -158 -366 -158
q-233 0 -366 158q-132 159 -132 412z" />
    <glyph glyph-name="uniF3C0.var.accented" unicode="&#xf3c0;`" horiz-adv-x="1019" 
d="M342 1305l129 350q27 5 79 -13t77 -38v-33l-238 -287zM582 1398q0 40 24 64t63 25q41 0 65 -25q24 -24 24 -64t-25 -64t-63 -24t-64 24q-24 24 -24 64zM143 1398q0 40 24 64q25 24 65 25q40 0 64 -25q24 -24 24 -64t-26 -64q-24 -24 -63 -24t-63 24t-25 64zM303 557
q0 41 8 66h422q-8 201 -100 306t-252 105q-88 0 -121 -28l-78 -199h-49q-20 88 -20 250q86 66 278 65q537 0 537 -567q0 -147 -43 -261t-119 -180q-153 -133 -355 -133q-203 1 -309 56q12 197 27 282h49l82 -233q27 -16 127 -16q141 0 243 123q101 123 103 344l-422 -48
q-8 27 -8 68z" />
    <glyph glyph-name="uniF3C1.var.accented" unicode="&#xf3c1;`" horiz-adv-x="1026" 
d="M676 1804q35 0 89 -14t71 -31v-39l-336 -307l-43 35l209 356h10zM784 1268h-462v102h462v-102zM672 1104h354v-51q-37 -18 -111 -41l-292 -695q-70 -167 -136 -247t-141 -80q-18 0 -29 2q-18 29 -35 85t-22 95l29 47l168 -47q18 23 47 96l-393 744q-57 16 -111 41v51h434
v-51q-53 -23 -121 -41l238 -490l33 -100h2l30 102l181 488q-68 14 -125 41v51z" />
    <glyph glyph-name="uniF3C2.var.accented" unicode="&#xf3c2;`" horiz-adv-x="1026" 
d="M444 1305l129 350q27 5 79 -13t77 -38v-33l-237 -287zM684 1398q0 40 24 64t64 25q40 0 64 -25q24 -24 24 -64t-24 -64t-64 -24t-64 24t-24 64zM246 1398q0 40 24 64t64 25q40 0 64 -25q24 -24 24 -64t-25 -64t-63 -24t-64 24q-24 24 -24 64zM672 1104h354v-51
q-37 -18 -111 -41l-292 -695q-70 -167 -136 -247t-141 -80q-18 0 -29 2q-18 29 -35 85t-22 95l29 47l168 -47q18 23 47 96l-393 744q-57 16 -111 41v51h434v-51q-53 -23 -121 -41l238 -490l33 -100h2l30 102l181 488q-68 14 -125 41v51z" />
    <glyph glyph-name="uniF3C3.var.accented" unicode="&#xf3c3;`" horiz-adv-x="1026" 
d="M530 1397l142 360q35 0 94 -13t78 -32v-39l-275 -311zM594 1305l248 309q33 0 86 -16t71 -42v-24l-366 -262zM266 1300l137 314q31 0 89 -13t67 -30v-29l-248 -272zM672 1104h354v-51q-37 -18 -111 -41l-292 -695q-70 -167 -136 -247t-141 -80q-18 0 -29 2q-18 29 -35 85
t-22 95l29 47l168 -47q18 23 47 96l-393 744q-57 16 -111 41v51h434v-51q-53 -23 -121 -41l238 -490l33 -100h2l30 102l181 488q-68 14 -125 41v51z" />
    <glyph glyph-name="uniF3C6.accented" unicode="&#xf3c6;`" horiz-adv-x="1368" 
d="M588 1305l129 350q27 5 79 -13t76 -38v-33l-237 -287zM827 1398q0 40 24 64q23 24 63 25q40 0 65 -25q25 -24 25 -64t-25 -64t-64 -24t-63 24t-25 64zM389 1398q0 40 24 64q25 24 65 25q40 0 64 -25q24 -24 24 -64t-26 -64q-24 -24 -63 -24t-63 24t-25 64zM451 582
q-63 0 -95 -9v-483q25 -6 112 -6t147 66t61 194q0 238 -225 238zM51 0v51q55 29 125 41v920q-63 12 -125 41v51h441v-51q-80 -31 -136 -41v-353q88 10 136 11q385 0 385 -326q0 -172 -119 -260t-295 -88l-197 4h-215zM1317 0h-418v51q41 20 115 41v920q-66 14 -119 41v51
h422v-51q-59 -31 -123 -41v-920q55 -8 123 -41v-51z" />
    <glyph glyph-name="uniF684" unicode="&#xf769;&#xf76a;" horiz-adv-x="1099" 
d="M594 1104h422v-51q-47 -27 -115 -41v-858q0 -338 -270 -406l-21 29q53 47 82 126t29 236v873q-82 18 -127 41v51zM510 0h-426v51q57 29 123 41v920q-66 12 -123 43v49h426v-49q-49 -27 -123 -43v-920q72 -14 123 -41v-51z" />
    <glyph glyph-name="f_f" unicode="ff" horiz-adv-x="1187" 
d="M367 1075v-51h389v90q0 106 20 195q-90 63 -194 63t-160 -80t-55 -217zM1118 1540q115 0 172 -24q-10 -113 -41 -228h-47l-80 174q-110 0 -152 -66t-42 -270v-102h205v-98h-205v-828q96 -12 172 -49v-49h-459v49q51 35 115 49v828h-389v-828q68 -8 147 -49v-49h-438v49
q55 37 119 49v828h-138v49q63 45 138 67v58q0 172 100 265t266 93t246 -74q84 156 311 156z" />
    <glyph glyph-name="fi" unicode="fi" horiz-adv-x="1091" 
d="M1026 0h-408v49q43 29 117 49v828h-370v-828q88 -12 165 -49v-49h-456v49q55 37 119 49v828h-138v49q63 45 138 67v72q0 248 132 342q116 84 285 84q80 0 175 -19t130 -46q-4 -63 -41 -187h-63l-147 174q-299 0 -299 -336v-102h186q190 0 309 25h47v-951q76 -20 119 -49
v-49z" />
    <glyph glyph-name="fl" unicode="fl" horiz-adv-x="1114" 
d="M575 1462q-109 0 -159 -68t-51 -268v-102h204v-98h-204v-828q92 -12 165 -49v-49h-456v49q55 37 119 49v828h-138v49q63 45 138 67v72q0 238 93 332t261 94q90 0 172 -37q127 35 145 37h47v-1442q92 -25 136 -49v-49h-422v49q51 31 114 49v1303q-96 61 -164 61z" />
    <glyph glyph-name="f_f_i" unicode="ffi" horiz-adv-x="1654" 
d="M367 1075v-51h387v90q0 100 28 191q-92 67 -198 67t-162 -80t-55 -217zM1587 0h-409v49q45 29 118 49v828h-370v-828q92 -12 166 -49v-49h-453v49q55 37 115 49v828h-387v-828q68 -8 147 -49v-49h-438v49q55 37 119 49v828h-138v49q63 45 138 67v58q0 172 100 265t271 93
t251 -82q102 164 354 164q81 0 177 -19t131 -46q-6 -72 -41 -187h-64l-149 174q-299 0 -299 -336v-102h188q188 0 307 25h47v-951q76 -20 119 -49v-49z" />
    <glyph glyph-name="f_f_l" unicode="ffl" horiz-adv-x="1677" 
d="M367 1075v-51h387v90q0 106 20 195q-86 63 -191 63t-161 -80t-55 -217zM1139 1462q-109 0 -161 -68t-52 -268v-102h204v-98h-204v-828q90 -12 168 -49v-49h-455v49q55 37 115 49v828h-387v-828q68 -8 147 -49v-49h-438v49q55 37 119 49v828h-138v49q63 45 138 67v58
q0 172 100 265t266 93t246 -74q80 156 301 156q94 0 172 -37q123 33 150 37h45v-1442q88 -23 135 -49v-49h-424v49q60 33 117 49v1303q-96 61 -164 61z" />
    <glyph glyph-name=".notdef" horiz-adv-x="1452" 
d="M471 106q14 0 12 -14h-26q0 14 14 14zM471 66q-14 0 -14 14h43v14q0 27 -31 27t-31 -35t33 -35q17 0 25 8l-7 11q-4 -4 -18 -4zM410 78q0 -10 -14 -10t-25 6l-6 -19q20 -4 30 -4q33 0 33 29q0 16 -21 24q-22 8 -22 14t10 7q10 0 27 -4l4 16q-20 4 -27 4q-33 0 -32 -26
q0 -14 21 -24q22 -9 22 -13zM207 127h10q18 0 19 -12q0 -14 -21 -15h-8v27zM188 141v-86h19v29h10q37 0 37 29t-39 28h-27zM1325 109q14 0 12 -15h-26q0 15 14 15zM1325 68q-14 0 -14 14h43v14q0 27 -31 27t-31 -35t33 -35q17 0 25 8l-7 11q-4 -4 -18 -4zM1237 96
q0 13 13 13q14 0 14 -21t-19 -20q-4 0 -8 4v24zM1219 121v-90h18v26q4 -4 12 -4q33 0 33 35t-27 35q-12 0 -20 -10h-4l-2 8h-10zM1165 31q12 0 21 30l24 60h-18l-12 -37v-12h-2l-2 12l-15 37h-20l28 -66q-4 -10 -10 -10l-4 2l-4 -14q2 -2 14 -2zM1141 127v14h-74v-14h29v-72
h16v72h29zM1042 68q-10 0 -10 9t12 9l13 -2v-6q-5 -10 -15 -10zM1073 72v26q0 25 -24 25q-11 0 -19 -4t-10 -4l2 -11q20 4 27 4t8 -10v-4l-13 2q-31 0 -30 -24q0 -18 20 -19q16 0 23 13h2l2 -11h14q-2 2 -2 17zM1000 123q-8 0 -13 -12h-2l-2 10h-14v-66h18v41q0 10 14 10
l7 -2l4 17q-4 2 -12 2zM922 68q-10 0 -11 10q0 8 13 8h6l4 -2v-6q-2 -10 -12 -10zM934 98v-4h-4q-2 2 -6 2q-31 0 -31 -24q0 -18 20 -19q14 0 21 13l6 -11h14q-2 2 -2 17v26q0 25 -24 25q-6 0 -31 -8l4 -11q16 4 23 5q10 0 10 -11zM842 127h10q18 0 18 -13t-20 -14h-8v27z
M823 141v-86h19v29h10q37 0 37 29t-39 28h-27zM728 80q-7 0 -7 10t10 10h6l6 11q-8 4 -18 4q-20 0 -20 -25t20 -24q10 0 18 4l-4 12q-4 -2 -11 -2zM692 91q0 36 34 36t34 -36t-34 -36t-34 36zM678 92q0 -51 48 -51t48 49t-49 49q-20 0 -34 -13q-13 -14 -13 -34zM637 141h-19
q-10 0 -10 -8q-2 -4 -2 -10v-4h-10v-15h10v-51h17v51h16v15h-16q0 8 8 8h12l2 12q0 2 -8 2zM565 119v-66h19v66h-19zM574 141q-10 0 -9 -9q0 -9 9 -9t10 8q0 10 -10 10zM544 121q-5 0 -16 -10v8h-14v-66h16v41q6 10 12 10t11 -2l2 17q-6 2 -11 2zM332 125v14h-72v-14h27v-72
h18v72h27zM1270 1229l-103 102l-399 -444l-399 444l-103 -102l404 -451l-404 -450l103 -103l399 445l399 -445l103 103l-406 450zM102 0v1434h1332v-1434h-1332z" />
    <glyph glyph-name=".null" horiz-adv-x="0" 
 />
    <glyph glyph-name="nonmarkingreturn" horiz-adv-x="681" 
 />
    <glyph glyph-name="space" unicode=" " horiz-adv-x="442" 
 />
    <glyph glyph-name="exclam" unicode="!" horiz-adv-x="591" 
d="M213 115q0 59 35 95t91 36t91 -36t35 -95t-35 -95t-91 -36t-91 36t-35 95zM337 1434q46 0 87 -23v-608l-62 -357h-49l-61 357v608q39 23 85 23z" />
    <glyph glyph-name="quotedbl" unicode="&#x22;" horiz-adv-x="690" 
d="M215 1036l-61 336q18 62 79 62t80 -62l-59 -336h-39zM438 1036l-61 336q17 62 79 62t81 -62l-60 -336h-39z" />
    <glyph glyph-name="numbersign" unicode="#" 
d="M385 883l-63 -312h253l64 312h-254zM481 119l74 362h-252l-76 -362h-98l76 362h-146l27 90h137l64 312h-137l26 90h133l72 342h96l-69 -342h251l72 342h96l-71 -342h145l-33 -90h-133l-63 -312h139l-33 -90h-127l-73 -362h-97z" />
    <glyph glyph-name="dollar" unicode="$" 
d="M266 1128q0 -180 170 -282v508q-78 -10 -124 -74t-46 -152zM707 347q1 99 -47 163t-134 113v-533q82 26 132 92t49 165zM432 -143v118q-102 0 -192 32t-134 73q16 201 31 237h49l107 -198q51 -41 139 -41v592q-10 0 -10 4l-55 31q-86 47 -137 86q-50 39 -93 117t-43 186
q0 145 95 247t243 115v100h96v-100q143 -10 267 -72q-4 -68 -45 -178h-50l-90 137q-41 10 -82 11v-555q205 -94 290 -208q60 -81 60 -233t-92 -253q-94 -101 -258 -123v-125h-96z" />
    <glyph glyph-name="percent" unicode="%" horiz-adv-x="1460" 
d="M168 49l1053 1403l63 -59l-1053 -1405zM891 328q0 -125 41 -198t119 -73q157 1 157 271t-158 270t-159 -270zM733 321q0 163 89 257q88 94 230 94t228 -87t86 -252t-87 -257t-230 -92t-230 87q-86 87 -86 250zM252 1114q0 -125 41 -198t119 -72q158 0 157 270t-159 270
t-158 -270zM94 1107q0 163 89 257t231 94t227 -87q86 -87 86 -252t-87 -257t-230 -92t-230 87q-86 87 -86 250z" />
    <glyph glyph-name="ampersand" unicode="&#x26;" horiz-adv-x="1568" 
d="M633 -25q-190 0 -306 117t-116 295t111 309q86 103 174 168q-53 68 -88 158t-35 164q1 112 75 192t199 80t198 -59t73 -175t-62 -209t-166 -184q141 -201 375 -438q35 55 73 193t38 276q0 43 -2 64q-55 12 -105 49v49h369v-49q-49 -35 -119 -49q-29 -219 -83 -377
t-99 -223q162 -152 278 -228l98 -49v-49h-262q-145 109 -217 193q-56 -88 -162 -153t-239 -65zM786 1219q0 69 -34 113t-105 44q-69 0 -101 -53t-32 -125t42 -161t95 -158q135 131 135 340zM401 442q0 -158 85 -261t216 -103q165 0 269 176q-102 102 -234 274
q-131 172 -194 279q-76 -90 -109 -173t-33 -192z" />
    <glyph glyph-name="quotesingle" unicode="'" horiz-adv-x="401" 
d="M215 1036l-61 336q18 62 79 62t80 -62l-59 -336h-39z" />
    <glyph glyph-name="parenleft" unicode="(" horiz-adv-x="624" 
d="M268 498q0 -533 322 -891l-45 -37q-207 176 -324 396t-117 537t133 546q67 115 139 203t175 186l39 -33q-160 -193 -241 -401t-81 -506z" />
    <glyph glyph-name="parenright" unicode=")" horiz-adv-x="624" 
d="M354 518q0 297 -79 494t-240 393l39 33q102 -88 177 -174q180 -206 236 -447q33 -137 33 -299q0 -592 -440 -948l-45 37q319 356 319 911z" />
    <glyph glyph-name="asterisk" unicode="*" horiz-adv-x="839" 
d="M418 1536q54 0 74 -25l-46 -266q-14 -10 -26 -10t-27 10l-45 266q16 25 70 25zM479 1217l178 178q27 -2 56 -48t16 -83l-225 -101q-25 21 -25 54zM731 1010q-1 -20 -25 -56q-24 -37 -51 -43l-176 170q0 34 25 52l223 -91q4 -12 4 -32zM422 772q-58 0 -72 23l45 264
q16 8 28 8t28 -8l43 -264q-14 -23 -72 -23zM365 1083l-181 -170q-27 2 -56 47t-17 82l225 93q29 -17 29 -52zM338 1167l-227 99q-5 12 -5 30t26 57q26 38 52 44l181 -176q0 -42 -27 -54z" />
    <glyph glyph-name="plus" unicode="+" 
d="M78 653v103h356v432h98v-432h357v-103h-357v-444h-98v444h-356z" />
    <glyph glyph-name="comma" unicode="," horiz-adv-x="514" 
d="M252 -43v18q-53 51 -123 76q-4 25 -4 39q0 60 35 110t71 52q70 -10 116 -66t46 -166q-1 -108 -75 -228t-191 -161l-35 60q68 29 114 105t46 161z" />
    <glyph glyph-name="hyphen" unicode="-" horiz-adv-x="761" 
d="M127 516v123h508v-123h-508z" />
    <glyph glyph-name="period" unicode="." horiz-adv-x="505" 
d="M127 115q0 59 35 95t91 36t91 -36t35 -95t-35 -95t-91 -36t-91 36t-35 95z" />
    <glyph glyph-name="slash" unicode="/" horiz-adv-x="620" 
d="M-68 -227l656 1685l80 -37l-658 -1687z" />
    <glyph glyph-name="zero" unicode="0" 
d="M242 717q0 -659 227 -660q139 0 198 157q58 157 58 503q0 494 -124 613q-48 46 -120 46q-129 0 -184 -158t-55 -501zM59 717q0 365 110 553t312 188q426 0 426 -741q-1 -365 -113 -553t-323 -189q-412 1 -412 742z" />
    <glyph glyph-name="one" unicode="1" 
d="M772 0h-534v57q98 47 182 70v1012l8 121q-84 -39 -217 -39l-8 45q217 80 342 192h47v-1331q84 -23 180 -70v-57z" />
    <glyph glyph-name="two" unicode="2" 
d="M465 1458q170 0 259 -101t89 -251q0 -346 -467 -870l-78 -80v-9l103 13h311l88 229h47q20 -238 21 -389h-752v59q546 626 549 1002q0 125 -55 210t-152 85q-61 0 -129 -25l-59 -291h-45q-47 139 -78 287q135 131 348 131z" />
    <glyph glyph-name="three" unicode="3" 
d="M463 68q96 0 166 97q69 97 69 234t-73 218q-74 81 -189 81h-114v52l301 469l61 71v8l-98 -12h-301l-70 -209h-47q-39 242 -39 357h711v-60l-301 -459l-78 -90v-4l61 15q166 -8 262 -123t96 -301t-129 -312q-130 -125 -311 -125q-88 0 -184 29t-147 74l51 182h39
q6 -8 63 -77t80 -99q49 -16 121 -16z" />
    <glyph glyph-name="four" unicode="4" 
d="M557 502v536l18 148h-4l-71 -148l-299 -483l-72 -68l127 15h301zM866 0h-475v57q88 35 166 49v293h-549v41l668 1018h53v-956h229v-103h-229v-293q71 -16 137 -49v-57z" />
    <glyph glyph-name="five" unicode="5" 
d="M422 874q184 0 295 -112t111 -322t-127 -338q-126 -128 -302 -127q-78 0 -165 29t-136 74l54 182h36q2 -2 127 -176q66 -16 82 -16q117 0 193 100t76 251t-92 231t-236 79q-6 0 -141 -2l71 707h434l78 112h47q-8 -172 -36 -266h-449l-41 -406h121z" />
    <glyph glyph-name="six" unicode="6" 
d="M727 418q0 145 -61 238t-168 94q-78 0 -138 -48t-88 -114q-4 -37 -4 -127q0 -145 66 -269t176 -124t164 102q53 103 53 248zM553 852q160 0 258 -112t98 -306q-1 -192 -113 -325t-300 -133t-298 148q-112 148 -112 388q0 367 198 628t476 330l20 -57q-199 -82 -339 -271
t-162 -437q33 59 107 103t167 44z" />
    <glyph glyph-name="seven" unicode="7" 
d="M115 1434h755v-56q-174 -348 -248 -626t-139 -752h-188q129 584 397 1198l56 98l-95 -10h-383l-69 -209h-47q-39 242 -39 357z" />
    <glyph glyph-name="eight" unicode="8" 
d="M297 1142q0 -80 18 -128q37 -102 224 -211q133 125 133 295q0 128 -48 198t-136 70t-139 -72q-52 -72 -52 -152zM713 330q0 114 -78 201t-211 161q-92 -64 -133 -160t-41 -200t58 -184t172 -80t173 74q60 74 60 188zM86 318q0 141 80 246t209 157q-242 141 -242 379
q0 160 98 259q97 99 259 99t252 -90t92 -235q0 -223 -248 -355q295 -168 295 -430q0 -160 -108 -266t-297 -106t-290 100q-100 101 -100 242z" />
    <glyph glyph-name="nine" unicode="9" 
d="M717 934q-1 170 -59 301t-168 131t-168 -98q-56 -98 -56 -246t64 -243t166 -95q156 0 217 123q4 35 4 127zM84 1002q0 200 109 328t305 128t298 -147t103 -408q0 -375 -180 -634t-451 -294l-35 58q203 61 324 241t150 424q-94 -116 -255 -116t-265 110q-103 110 -103 310
z" />
    <glyph glyph-name="colon" unicode=":" horiz-adv-x="591" 
d="M213 115q0 59 35 95t91 36t91 -36t35 -95t-35 -95t-91 -36t-91 36t-35 95zM213 909q0 59 35 95t91 36t91 -36t35 -94q0 -60 -35 -96t-91 -36t-91 36t-35 95z" />
    <glyph glyph-name="semicolon" unicode=";" horiz-adv-x="600" 
d="M221 909q0 59 35 95t91 36t91 -36t35 -94q0 -60 -35 -96t-91 -36t-91 36t-35 95zM346 -43v18q-53 51 -123 76q-4 25 -4 39q0 60 35 110t72 52q70 -10 116 -66t45 -166q-1 -108 -75 -228t-191 -161l-35 60q68 29 114 105t46 161z" />
    <glyph glyph-name="less" unicode="&#x3c;" 
d="M776 211l-692 453v63l694 481l45 -86l-444 -313l-154 -84l152 -63l473 -324z" />
    <glyph glyph-name="equal" unicode="=" 
d="M78 489v103h811v-103h-811zM78 817v103h811v-103h-811z" />
    <glyph glyph-name="greater" unicode="&#x3e;" 
d="M195 1208l692 -452v-64l-694 -481l-46 86l445 313l153 84l-151 64l-473 323z" />
    <glyph glyph-name="question" unicode="?" horiz-adv-x="856" 
d="M258 115q0 59 35 95t91 36t91 -36t35 -95t-35 -95t-91 -36t-91 36t-35 95zM467 1458q156 0 242 -93t86 -241q0 -189 -142 -329l-118 -119q-144 -144 -144 -311h-39q-14 59 -14 129q0 132 96 260l82 102q98 123 97 236q-1 114 -50 189t-151 75t-138 -39l-43 -250h-47
q-49 178 -59 307q119 84 342 84z" />
    <glyph glyph-name="at" unicode="@" horiz-adv-x="1916" 
d="M713 356q0 -116 27 -171q28 -54 95 -54t147 132t142 310l47 301q-55 44 -137 44t-158 -92t-120 -224q-43 -130 -43 -246zM1235 238q0 -127 68 -127q125 1 241 159t115 398q1 307 -191 497t-477 191q-321 0 -519 -247t-198 -608t196 -564t513 -203q129 0 240 57l30 -86
q-119 -74 -307 -74q-330 -1 -554 223t-224 644t240 690t584 270t557 -213q214 -213 214 -577q1 -262 -151 -461t-348 -199q-174 0 -174 207q0 68 18 164h-6q-45 -143 -140 -257t-199 -114t-163 84t-59 242t64 321q65 162 176 264q112 101 237 101q90 0 184 -47q63 33 144 33
l-93 -588q-18 -125 -18 -180z" />
    <glyph glyph-name="A" unicode="A" horiz-adv-x="1239" 
d="M541 1024l-138 -436h361l-141 440l-33 176h-4zM403 0h-403v57q66 33 129 49l459 1352h59l455 -1352q92 -20 137 -49v-57h-471v57q82 35 147 49l-120 379h-428l-119 -379q77 -12 155 -49v-57z" />
    <glyph glyph-name="B" unicode="B" horiz-adv-x="1114" 
d="M371 780h86q80 0 141 11q84 33 135 107t51 190q0 114 -68 185q-70 71 -180 71t-165 -11v-553zM549 90q119 0 205 87t86 220q0 281 -338 281h-131v-569q59 -19 178 -19zM51 0v57q74 41 148 49v1221q-80 16 -148 49v58h201l293 12q422 0 422 -340q0 -111 -65 -208
t-179 -130v-8q127 -25 213 -111t86 -241q0 -208 -146 -314t-350 -106l-297 12h-178z" />
    <glyph glyph-name="C" unicode="C" horiz-adv-x="1161" 
d="M737 -25q-311 1 -478 183t-167 559q0 552 375 699q106 42 231 42q219 0 346 -69q0 -188 -28 -349h-49l-95 295q-33 20 -153 21q-188 0 -312 -164t-124 -466t125 -475t342 -173q118 0 149 39l86 250h49q20 -123 21 -308q-98 -84 -318 -84z" />
    <glyph glyph-name="D" unicode="D" horiz-adv-x="1280" 
d="M528 1348q-119 0 -157 -11v-1245q45 -8 166 -8q227 0 337 185t111 466q0 106 -24 209q-61 248 -221 346q-94 58 -212 58zM51 0v57q63 33 148 49v1221q-90 23 -148 49v58h187l311 16q305 0 472 -187t167 -527t-171 -547q-171 -208 -505 -207l-287 18h-174z" />
    <glyph glyph-name="E" unicode="E" horiz-adv-x="1050" 
d="M51 1434h862q-4 -199 -20 -328h-49l-76 225h-387v-549h287l71 152h45q13 -218 0 -410h-45l-71 156h-287v-578h410l88 246h49q20 -164 20 -348h-897v57q63 33 148 49v1221q-80 16 -148 49v58z" />
    <glyph glyph-name="F" unicode="F" horiz-adv-x="987" 
d="M362 639v-533q82 -12 156 -49v-57h-467v57q74 37 129 49v1221q-78 20 -129 49v58h854q-4 -174 -20 -328h-49l-76 225h-398v-590h316l65 131h45q8 -119 8 -182t-8 -186h-45l-65 135h-316z" />
    <glyph glyph-name="G" unicode="G" horiz-adv-x="1243" 
d="M723 -25q-299 -1 -465 183t-166 559q0 195 51 341t139 231q176 169 410 169q233 0 357 -69q0 -193 -27 -349h-49l-96 295q-33 20 -156 21q-188 0 -313 -165t-125 -463t129 -474t323 -176q61 0 123 26t80 48v417q-72 8 -170 49v58h444v-58q-42 -35 -110 -49v-469
q-76 -49 -184 -87t-195 -38z" />
    <glyph glyph-name="H" unicode="H" horiz-adv-x="1320" 
d="M516 0h-465v57q68 33 148 49v1221q-90 16 -148 49v58h465v-58q-59 -37 -135 -49v-541h559v541q-68 14 -135 49v58h465v-58q-49 -29 -148 -49v-1221q88 -16 148 -49v-57h-465v57q59 33 135 49v578h-559v-578q69 -16 135 -49v-57z" />
    <glyph glyph-name="I" unicode="I" horiz-adv-x="641" 
d="M557 0h-473v57q72 37 145 49v1221q-76 16 -145 49v58h473v-58q-57 -31 -145 -49v-1221q77 -16 145 -49v-57z" />
    <glyph glyph-name="J" unicode="J" horiz-adv-x="618" 
d="M68 1434h467v-58q-63 -33 -138 -49v-1159q0 -418 -286 -496l-21 29q61 59 93 155t32 289v1182q-98 24 -147 49v58z" />
    <glyph glyph-name="K" unicode="K" horiz-adv-x="1175" 
d="M692 1434h406v-58q-66 -35 -137 -49l-361 -551q319 -467 490 -678l86 -49v-49h-234l-63 49q-219 301 -410 639h-88v-582q82 -16 135 -49v-57h-465v57q74 33 148 49v1221q-86 12 -148 49v58h465v-58q-57 -29 -135 -49v-573l108 28l332 545q-66 14 -129 49v58z" />
    <glyph glyph-name="L" unicode="L" horiz-adv-x="995" 
d="M51 1434h502v-58q-82 -37 -172 -49v-1225h407l109 328h49q20 -154 20 -280t-1 -150h-914v57q61 33 148 49v1221q-89 16 -148 49v58z" />
    <glyph glyph-name="M" unicode="M" horiz-adv-x="1572" 
d="M295 1036v-932q72 -16 139 -47v-57h-383v57q63 31 148 49v1221q-84 18 -148 49v58h379l311 -949l60 -211h2l61 215l320 945h338v-58q-63 -33 -138 -49v-1223q83 -16 136 -47v-57h-455v57q53 27 147 49v930l7 238h-15l-59 -219l-369 -1055h-51l-350 1057l-66 239h-16
q2 -242 2 -260z" />
    <glyph glyph-name="N" unicode="N" horiz-adv-x="1325" 
d="M879 1434h395v-58q-72 -53 -150 -80v-1321h-106l-653 1139l-72 160h-4l16 -160v-985q84 -29 139 -72v-57h-393v57q57 41 150 72v1180q-80 33 -138 69v56h312l563 -988l84 -176h6q-6 158 -8 176v850q-86 41 -141 80v58z" />
    <glyph glyph-name="O" unicode="O" horiz-adv-x="1335" 
d="M295 720q0 -282 100 -462q99 -180 281 -180t273 180t91 460t-98 459t-284 179t-275 -177q-88 -177 -88 -459zM92 717q0 329 154 535t422 206t422 -207t154 -535t-154 -534q-154 -207 -422 -207t-422 206t-154 536z" />
    <glyph glyph-name="P" unicode="P" horiz-adv-x="1081" 
d="M502 1348q-84 0 -121 -13v-667q29 -10 143 -10t201 87q86 87 86 259t-81 258t-228 86zM1014 1008q0 -225 -142 -339t-352 -114q-106 0 -139 8v-457q102 -16 174 -49v-57h-504v57q55 31 148 49v1221q-68 12 -148 49v58h168l322 16q189 0 324 -93q69 -48 109 -137t40 -212z
" />
    <glyph glyph-name="Q" unicode="Q" horiz-adv-x="1335" 
d="M295 720q0 -282 100 -462q99 -180 281 -180t273 180t91 460t-98 459t-284 179t-275 -177q-88 -177 -88 -459zM92 717q0 329 154 535t422 206t422 -207t154 -535t-154 -534q-154 -207 -422 -207t-422 206t-154 536zM1059 -410q-86 0 -199 46q-114 46 -268 120t-281 113
l54 37q25 4 73 4q119 0 356 -79q236 -79 354 -79t214 37l10 -25q-166 -174 -313 -174z" />
    <glyph glyph-name="R" unicode="R" horiz-adv-x="1159" 
d="M500 1348q-82 0 -119 -13v-616h127q120 0 194 92q74 91 74 239t-74 223t-202 75zM963 1049q0 -145 -68 -245t-188 -145q143 -260 337 -550l97 -60v-49h-226l-69 57q-182 268 -297 580h-168v-531q94 -23 151 -49v-57h-481v57q61 31 148 49v1221q-92 20 -148 49v58h162
l330 16q190 0 305 -98t115 -303z" />
    <glyph glyph-name="S" unicode="S" horiz-adv-x="970" 
d="M435 78q112 0 189 72q76 72 76 178t-61 174t-147 114t-174 102q-88 54 -148 149q-61 95 -61 244t104 248t274 99q219 0 349 -67q-8 -160 -45 -349h-50l-73 281q-59 33 -167 33t-161 -62t-53 -160q0 -172 209 -287q86 -49 173 -103t148 -146t62 -217q0 -186 -118 -296
t-323 -110q-106 0 -199 30t-137 67q8 186 45 368h50l73 -301q53 -61 165 -61z" />
    <glyph glyph-name="T" unicode="T" horiz-adv-x="1124" 
d="M821 0h-518v57q96 37 168 49v1225h-268l-97 -287h-49q-18 137 -22 390h1055q-4 -252 -23 -390h-47l-98 287h-269v-1225q113 -22 168 -49v-57z" />
    <glyph glyph-name="U" unicode="U" horiz-adv-x="1216" 
d="M16 1434h467v-58q-51 -27 -137 -49v-844q0 -209 78 -297t233 -88q297 0 297 385v824q-76 29 -145 69v58h391v-58q-74 -49 -141 -69v-828q0 -252 -113 -375q-114 -122 -328 -122t-334 116t-120 348v881q-78 12 -148 49v58z" />
    <glyph glyph-name="V" unicode="V" horiz-adv-x="1241" 
d="M831 1434h410v-58q-43 -29 -131 -49l-405 -1327l-107 -25l-461 1352q-86 27 -137 49v58h489v-58q-59 -25 -147 -49l303 -952l37 -160h4l37 164l262 948q-86 20 -154 49v58z" />
    <glyph glyph-name="W" unicode="W" horiz-adv-x="1699" 
d="M1290 1434h410v-58q-63 -33 -131 -49l-301 -1327l-119 -25l-291 1129l-283 -1104l-116 -25l-324 1352q-59 12 -135 49v58h479v-58q-84 -35 -147 -49l178 -838l39 -266h4l61 271l244 940h66l260 -942l53 -267h4l41 271l164 831q-70 12 -156 49v58z" />
    <glyph glyph-name="X" unicode="X" horiz-adv-x="1218" 
d="M719 1434h418v-58q-63 -29 -136 -49l-317 -559l371 -662q84 -16 145 -49v-57h-487v57q59 37 135 49l-283 521l-270 -523q92 -14 143 -47v-57h-420v57q49 29 134 49l352 615l-338 606q-61 18 -141 49v58h487v-58q-63 -29 -137 -49l248 -469l243 469q-81 20 -147 49v58z
" />
    <glyph glyph-name="Y" unicode="Y" horiz-adv-x="1169" 
d="M770 1434h399v-58q-63 -37 -135 -49l-342 -717v-504q70 -10 137 -49v-57h-467v57q63 37 148 49v502l-365 719q-66 12 -145 49v58h487v-58q-53 -25 -137 -49l291 -608l274 608q-90 24 -145 49v58z" />
    <glyph glyph-name="Z" unicode="Z" horiz-adv-x="1101" 
d="M70 0v102l743 1229h-545l-108 -287h-49q-23 174 -23 390h926v-103l-742 -1229h580l109 287h49q23 -174 22 -389h-962z" />
    <glyph glyph-name="bracketleft" unicode="[" horiz-adv-x="557" 
d="M147 -471v1905h349v-82h-189v-1741h189v-82h-349z" />
    <glyph glyph-name="backslash" unicode="\" horiz-adv-x="688" 
d="M-8 1458l745 -1677l-75 -47l-748 1679z" />
    <glyph glyph-name="bracketright" unicode="]" horiz-adv-x="557" 
d="M410 1434v-1905h-349v82h189v1741h-189v82h349z" />
    <glyph glyph-name="asciicircum" unicode="^" horiz-adv-x="901" 
d="M84 889l336 567h59l307 -567h-163l-158 313l-41 139l-57 -141l-179 -311h-104z" />
    <glyph glyph-name="underscore" unicode="_" horiz-adv-x="739" 
d="M0 -401v102h739v-102h-739z" />
    <glyph glyph-name="grave" unicode="`" horiz-adv-x="583" 
d="M283 1573h10l188 -356l-43 -35l-336 307v39q18 16 80 30t101 15z" />
    <glyph glyph-name="a" unicode="a" horiz-adv-x="919" 
d="M584 496q-197 0 -266 -50q-68 -50 -68 -149t38 -149t112 -50q73 0 120 60t64 123v215zM317 -25q-109 0 -179 76t-70 197q0 180 117 244q118 63 399 79q6 63 6 123q0 268 -156 269q-74 0 -117 -21l-86 -246h-49q-45 141 -53 254q143 98 346 99q283 0 283 -326l-10 -457
l6 -147l125 -21v-41q-88 -51 -213 -77h-48q-23 63 -26 229h-10q-16 -92 -86 -163t-179 -71z" />
    <glyph glyph-name="b" unicode="b" horiz-adv-x="989" 
d="M488 68q114 0 180 120t66 320q-1 418 -210 418q-160 0 -217 -240v-573q67 -45 181 -45zM307 1540v-719h4q33 103 106 165t163 63q338 0 338 -521q0 -266 -122 -406t-350 -140q-86 0 -178 23t-133 54v1342l-135 16v49q55 27 262 74h45z" />
    <glyph glyph-name="c" unicode="c" horiz-adv-x="841" 
d="M256 512q0 -168 80 -291t225 -123q111 0 189 70l24 -27q-34 -73 -108 -119t-170 -47q-209 -1 -317 143q-107 144 -107 397t112 393t298 140t290 -61q-16 -184 -57 -289h-53l-76 244q-25 20 -82 21q-124 -1 -186 -107t-62 -344z" />
    <glyph glyph-name="d" unicode="d" horiz-adv-x="1007" 
d="M467 98q164 0 211 240v582q-57 36 -175 36q-119 0 -183 -122t-64 -314t54 -307t157 -115zM428 -25q-356 0 -356 533q0 256 112 395q113 139 308 139q104 0 186 -32v391l-137 16v49q76 37 260 74h49v-1425l117 -17v-41q-113 -61 -226 -77h-47l-16 223h-6q-18 -94 -86 -161
t-158 -67z" />
    <glyph glyph-name="e" unicode="e" horiz-adv-x="911" 
d="M469 963q-92 0 -145 -84t-64 -279h387q2 25 2 70q0 135 -44 214t-136 79zM827 664q0 -66 -12 -150h-559q0 -184 77 -300t226 -116q63 0 129 22t96 52l27 -31q-31 -73 -118 -119t-187 -47q-209 -1 -322 143q-112 144 -112 398t107 393q108 139 304 140q147 1 245 -91
t99 -294z" />
    <glyph glyph-name="f" unicode="f" horiz-adv-x="622" 
d="M553 1540q117 0 172 -24q-8 -117 -41 -228h-47l-78 174q-109 0 -151 -66t-43 -270v-102h204v-98h-204v-828q90 -12 172 -49v-49h-463v49q55 37 119 49v828h-138v49q63 45 138 67v72q0 238 95 332t265 94z" />
    <glyph glyph-name="g" unicode="g" horiz-adv-x="954" 
d="M258 719q0 -244 191 -244q98 0 144 67t46 177q0 244 -190 244q-103 1 -147 -61t-44 -183zM713 -166q0 113 -133 170q-43 18 -80 29l-86 24q-49 14 -80 25q-109 -80 -109 -211q0 -219 260 -219q228 0 228 182zM86 719q0 145 96 237t278 93q184 0 269 -86q100 78 219 114
q29 -45 29 -112l-23 -50h-190q47 -80 47 -214t-94 -223t-268 -89q-70 0 -103 8q-2 -8 -18 -36t-15 -61q0 -67 153 -103t269 -92q63 -30 105 -88t43 -140q0 -143 -119 -227q-120 -84 -312 -84t-295 74t-103 185t56 171t177 104q-96 47 -97 142q0 45 34 91t77 75
q-102 31 -159 116q-56 86 -56 195z" />
    <glyph glyph-name="h" unicode="h" horiz-adv-x="1067" 
d="M1036 0h-395v49q47 31 104 49v486q0 168 -39 255q-40 87 -132 87t-152 -67q-61 -67 -88 -161v-600q68 -18 104 -49v-49h-395v49q53 33 119 49v1303l-137 16v49q80 37 264 74h45v-723h2q41 102 114 167t166 65q154 -1 228 -95t74 -336v-520q81 -20 118 -49v-49z" />
    <glyph glyph-name="i" unicode="i" horiz-adv-x="546" 
d="M158 1374q0 53 32 85q33 32 86 32t85 -32t32 -85t-32 -85t-85 -32t-86 32q-32 32 -32 85zM481 0h-409v49q49 31 118 49v811l-118 17v49q92 43 243 74h47v-951q78 -20 119 -49v-49z" />
    <glyph glyph-name="j" unicode="j" horiz-adv-x="524" 
d="M158 1374q0 53 32 85q33 32 86 32t85 -32t32 -85t-32 -85t-85 -32t-86 32q-32 32 -32 85zM188 49v860l-118 17v49q86 45 243 74h47v-961q0 -136 -32 -240t-81 -160q-87 -97 -163 -122l-23 37q49 29 89 140q38 111 38 306z" />
    <glyph glyph-name="k" unicode="k" horiz-adv-x="942" 
d="M545 1024h354v-49q-70 -35 -137 -49q-174 -252 -256 -344q180 -281 336 -484l100 -49v-49h-231l-49 49q-90 133 -271 440l-57 21v-412q55 -10 117 -49v-49h-408v49q57 33 119 49v1303l-137 16v49q49 25 264 74h45v-981h45q129 156 254 367q-45 14 -88 49v49z" />
    <glyph glyph-name="l" unicode="l" horiz-adv-x="548" 
d="M481 0h-409v49q57 33 118 49v1303l-137 16v49q78 41 262 74h47v-1442q60 -14 119 -49v-49z" />
    <glyph glyph-name="m" unicode="m" horiz-adv-x="1564" 
d="M995 0h-391v49q37 25 105 49v480q0 180 -33 264t-116 84t-137 -66t-77 -158v-604q63 -20 105 -49v-49h-396v49q49 27 119 49v811l-119 17v49q92 45 244 74h47v-232q31 100 103 166q71 66 169 66q98 -1 164 -55t86 -197q33 117 107 185t178 67q139 1 201 -93t61 -342v-516
q63 -12 119 -49v-49h-393v49q53 35 102 49v516q0 160 -33 236t-131 76q-154 0 -198 -244v-584q59 -20 114 -49v-49z" />
    <glyph glyph-name="n" unicode="n" horiz-adv-x="1081" 
d="M1051 0h-400v49q47 29 107 49v486q0 168 -40 255t-131 87t-153 -67t-88 -161v-600q53 -12 107 -49v-49h-398v49q47 29 119 49v811l-119 17v49q86 41 244 74h47v-232q41 102 114 167t169 65q153 -1 227 -95t74 -336v-520q74 -14 121 -49v-49z" />
    <glyph glyph-name="o" unicode="o" horiz-adv-x="1001" 
d="M256 522q0 -213 66 -337t208 -124q98 0 157 115q58 115 58 327t-62 336t-196 124q-109 0 -170 -114t-61 -327zM72 515q0 253 115 393q116 140 324 140t313 -140q106 -142 106 -397t-115 -395t-321 -140t-314 142q-108 144 -108 397z" />
    <glyph glyph-name="p" unicode="p" horiz-adv-x="1026" 
d="M553 926q-162 0 -209 -242v-575q59 -47 175 -47q115 0 183 132q68 134 68 341q0 391 -217 391zM463 -410h-410v50q59 33 119 49v1220l-119 17v49q92 45 244 74h47v-230q78 229 272 230q338 0 338 -514q0 -258 -116 -409t-310 -151q-102 0 -184 41v-327q60 -10 119 -49
v-50z" />
    <glyph glyph-name="q" unicode="q" horiz-adv-x="993" 
d="M467 98q162 0 209 238v592q-90 29 -174 28q-246 0 -246 -446q0 -412 211 -412zM676 182h-8q-28 -90 -92 -148t-156 -59q-348 0 -348 533q0 262 117 398q118 136 339 136q90 0 184 -19t136 -44v-1290q61 -12 119 -49v-50h-410v50q55 35 119 49v493z" />
    <glyph glyph-name="r" unicode="r" horiz-adv-x="700" 
d="M688 881h-239q-66 -45 -103 -166v-617q76 -10 143 -49v-49h-434v49q47 29 119 49v811l-119 17v49q96 45 244 74h47v-211h6q37 84 111 148t158 65l24 -2q25 -53 43 -119v-49z" />
    <glyph glyph-name="s" unicode="s" horiz-adv-x="784" 
d="M358 61q74 0 124 51q50 52 50 118t-45 116t-108 89q-63 38 -127 82q-154 109 -154 287q0 100 83 172t200 73q170 0 285 -45q-12 -127 -50 -267h-45l-69 209q-40 16 -102 16t-98 -46t-36 -106q0 -104 154 -198l127 -82q63 -42 108 -106t45 -148q0 -135 -97 -218t-243 -83
t-280 58q8 137 51 274h47l80 -223q26 -23 100 -23z" />
    <glyph glyph-name="t" unicode="t" horiz-adv-x="673" 
d="M27 926v49q68 49 143 69v177q24 24 73 47q50 24 52 26h47v-270h266v-98h-266v-602q0 -121 33 -173t102 -53q102 0 162 25l14 -27q-35 -43 -109 -82t-151 -39q-223 0 -223 295v656h-143z" />
    <glyph glyph-name="u" unicode="u" horiz-adv-x="1044" 
d="M489 98q152 0 220 244v567l-117 17v49q100 45 242 74h47v-934l118 -17v-41q-123 -61 -223 -77h-47l-12 243h-8q-15 -92 -93 -170t-182 -78q-152 1 -224 95t-71 336l11 503l-119 17v49q96 41 245 74h48l-13 -609q0 -172 38 -257t140 -85z" />
    <glyph glyph-name="v" unicode="v" horiz-adv-x="919" 
d="M-18 1024h385v-47q-57 -35 -103 -51l207 -627l35 -127h4l27 129l188 625q-49 14 -98 49v49h311v-49q-37 -27 -102 -49l-322 -926l-84 -25l-352 951q-53 20 -96 49v49z" />
    <glyph glyph-name="w" unicode="w" horiz-adv-x="1320" 
d="M-18 1024h383v-47q-63 -39 -105 -51l156 -607l22 -147h4l27 150l195 679l57 23l207 -705l35 -147h2l28 150l135 604q-45 10 -100 49v49h311v-49q-37 -27 -102 -49l-256 -926l-102 -25l-177 588l-34 170h-4l-41 -170l-162 -563l-101 -25l-282 951q-61 23 -96 49v49z" />
    <glyph glyph-name="x" unicode="x" horiz-adv-x="944" 
d="M926 0h-379v47q61 41 90 51l-197 342l-198 -342q37 -16 88 -49v-49h-312v49q49 35 101 49l268 410l-270 418q-51 20 -88 49v49h372v-47q-55 -41 -90 -51l187 -314l180 314q-59 20 -88 49v49h303v-49q-32 -26 -100 -49l-248 -377l284 -451q61 -23 97 -49v-49z" />
    <glyph glyph-name="y" unicode="y" horiz-adv-x="913" 
d="M-20 1024h385v-47q-35 -29 -103 -51l225 -617l35 -127h4l27 129l168 615q-53 14 -98 49v49h311v-49q-37 -27 -103 -49l-286 -926q-76 -244 -147 -329t-177 -111q-35 57 -63 170l24 49h191q35 57 78 221l-375 926q-39 10 -96 49v49z" />
    <glyph glyph-name="z" unicode="z" horiz-adv-x="884" 
d="M791 0h-715v49l514 889h-336l-80 -242h-47q-23 143 -23 328h687v-49l-515 -889h349l96 262h47q23 -166 23 -348z" />
    <glyph glyph-name="braceleft" unicode="{" horiz-adv-x="624" 
d="M238 -256v485q0 103 -37 163t-107 61v57q68 0 106 61t38 154v492q0 100 45 158t129 59h166v-82h-84q-92 0 -93 -123v-481q0 -120 -60 -182t-138 -74v-13q74 -10 136 -77t62 -187v-481q0 -123 95 -123h82v-82h-166q-82 -1 -128 55t-46 160z" />
    <glyph glyph-name="bar" unicode="|" horiz-adv-x="425" 
d="M166 -266v1700h96v-1700h-96z" />
    <glyph glyph-name="braceright" unicode="}" horiz-adv-x="624" 
d="M133 -389q92 0 90 123v483q0 123 53 184t130 72v12q-72 8 -127 76t-56 189v479q0 63 -21 93q-22 30 -71 30h-84v82h168q82 0 127 -56t45 -159v-484q0 -103 37 -163t106 -60v-57q-68 1 -106 -61t-37 -154v-494q0 -100 -44 -158t-130 -59h-166v82h86z" />
    <glyph glyph-name="asciitilde" unicode="~" horiz-adv-x="954" 
d="M342 852q61 0 173 -70q111 -70 177 -70t133 70l25 -43q-88 -152 -205 -151q-61 0 -177 70t-173 69q-86 0 -164 -113l-29 48q113 190 240 190z" />
    <glyph glyph-name="uni00A0" unicode="&#xa0;" horiz-adv-x="442" 
 />
    <glyph glyph-name="exclamdown" unicode="&#xa1;" horiz-adv-x="591" 
d="M379 918q0 -60 -35 -96t-91 -36t-91 36t-35 96t35 95q35 36 91 36t91 -36t35 -95zM229 586h50l61 -357v-610q-37 -23 -88 -23t-84 23v610z" />
    <glyph glyph-name="cent" unicode="&#xa2;" 
d="M295 512q0 -123 52 -226t151 -153v813q-203 -74 -203 -434zM594 -25v-323h-98v332q-188 31 -287 170q-98 139 -98 359t104 358t281 169v312h98v-303q170 0 274 -62q-16 -184 -57 -289h-47l-74 244q-27 20 -80 21h-18v-859q31 -6 65 -6q111 0 189 70l24 -27
q-32 -76 -106 -121t-170 -45z" />
    <glyph glyph-name="sterling" unicode="&#xa3;" 
d="M55 680v102h152q-70 162 -70 320q-1 158 103 257t274 99q229 0 350 -67q-8 -172 -47 -349h-47l-72 281q-66 33 -184 33q-143 0 -186 -133q-12 -43 -13 -95q2 -145 72 -346h275v-102h-244q20 -88 20 -166q0 -203 -98 -301l-59 -57v-9l100 13h356l88 229h45
q23 -262 23 -389h-832v59q227 113 230 347q0 156 -41 274h-195z" />
    <glyph glyph-name="currency" unicode="&#xa4;" 
d="M483 541q74 0 124 47t50 121q0 73 -50 121t-124 50t-124 -48t-50 -124t50 -120q50 -47 124 -47zM203 706q0 104 53 173l-70 22l-170 172l105 105l170 -172l24 -68q76 55 173 53t165 -53l25 68l170 170l104 -105l-172 -170l-65 -22q49 -68 49 -168t-49 -174l65 -21
l170 -172l-104 -104l-170 170l-23 67q-72 -49 -166 -49t-176 49l-20 -65l-172 -170l-105 104l172 170l70 23q-53 63 -53 167z" />
    <glyph glyph-name="yen" unicode="&#xa5;" 
d="M651 1434h400v-58q-61 -35 -138 -49l-286 -643h254v-102h-289v-131h289v-103h-289v-242q70 -10 137 -49v-57h-467v57q63 37 148 49v242h-291v103h291v131h-291v102h252l-308 643q-66 12 -145 49v58h488v-58q-53 -25 -138 -49l273 -608l258 608q-89 24 -148 49v58z" />
    <glyph glyph-name="brokenbar" unicode="&#xa6;" horiz-adv-x="425" 
d="M262 1434v-656h-96v656h96zM166 -266v655h96v-655h-96z" />
    <glyph glyph-name="section" unicode="&#xa7;" horiz-adv-x="956" 
d="M639 522q43 66 43 125t-31 92l-28 33q-26 31 -106 66q-79 36 -91 43q-64 -33 -108 -91t-44 -116q0 -113 85 -171q59 -41 176 -91q61 44 104 110zM448 -82q70 0 124 50t55 120t-53 115t-131 75t-153 64t-130 106q-53 70 -54 177q0 184 236 297q-180 98 -180 282
q0 110 83 182t241 72t274 -45q-8 -66 -45 -205h-47l-101 148q-39 16 -99 16t-100 -45q-38 -45 -38 -109t53 -114q53 -49 130 -81t154 -69q77 -36 130 -102t53 -160q0 -193 -232 -315q174 -87 174 -233t-94 -229q-96 -83 -256 -83t-299 57q4 71 25 134q20 63 25 79h47
l112 -161q26 -23 96 -23z" />
    <glyph glyph-name="dieresis" unicode="&#xa8;" horiz-adv-x="808" 
d="M606 1255q-44 0 -72 28t-28 74t28 75q28 28 72 28t73 -28q28 -28 28 -75q0 -46 -28 -74t-73 -28zM102 1357q0 46 28 75q28 28 73 28t73 -28t27 -75q0 -46 -28 -74q-29 -28 -73 -28t-72 28t-28 74z" />
    <glyph glyph-name="copyright" unicode="&#xa9;" horiz-adv-x="1628" 
d="M874 168q-184 0 -309 112t-125 314t129 316t293 114t250 -41q4 -37 -1 -110t-15 -113h-49l-62 168q-23 14 -104 14q-119 0 -188 -93t-69 -248t70 -253q68 -98 207 -98q75 -1 100 24l58 146h49q25 -96 10 -205q-60 -47 -244 -47zM1460 592q0 276 -184 454t-445 177
q-261 0 -435 -174t-173 -454q0 -280 178 -455q179 -175 441 -175t440 175q178 176 178 452zM1563 594q0 -326 -213 -524t-514 -197q-301 -1 -508 195t-207 524t213 526t508 197q295 0 508 -198q213 -197 213 -523z" />
    <glyph glyph-name="ordfeminine" unicode="&#xaa;" horiz-adv-x="780" 
d="M332 864q106 0 157 135v107q-25 2 -87 2t-113 -33t-51 -87t26 -89t68 -35zM367 1378q-51 0 -99 -20l-41 -115h-49q-41 51 -45 146q109 63 293 63q113 0 158 -51t45 -156l-6 -340l90 -20v-51q-76 -47 -158 -58h-33q-23 66 -22 139h-8q-70 -143 -216 -143q-84 0 -136 53
t-52 142q0 207 352 207l49 -3q2 16 3 66q0 141 -125 141z" />
    <glyph glyph-name="guillemotleft" unicode="&#xab;" horiz-adv-x="854" 
d="M442 117l-399 413l389 420l47 -37l-252 -370l262 -387zM715 121l-320 409l307 416l48 -35l-191 -366l201 -387z" />
    <glyph glyph-name="logicalnot" unicode="&#xac;" 
d="M100 668v123h768v-381h-114v258h-654z" />
    <glyph glyph-name="uni00AD" unicode="&#xad;" horiz-adv-x="761" 
d="M127 516v123h508v-123h-508z" />
    <glyph glyph-name="registered" unicode="&#xae;" horiz-adv-x="1423" 
d="M806 1190q-46 0 -71 -6v-217h66q121 0 121 114q0 53 -35 81t-81 28zM1102 633h-101l-57 22q-68 82 -135 254h-74v-211q39 -2 76 -18v-47h-252v47q35 12 72 18v482q-35 2 -72 22v43h76l172 8q98 0 164 -43t65 -129q0 -109 -147 -155l29 -45l28 -52q68 -96 109 -131l47 -24
v-41zM808 463q194 0 320 125t127 334q0 210 -130 336q-131 126 -325 126t-320 -126t-126 -333q0 -208 130 -335t324 -127zM262 924q0 254 156 398t390 144t386 -144q154 -144 154 -398t-156 -398t-390 -145q-234 1 -386 145q-154 144 -154 398z" />
    <glyph glyph-name="macron" unicode="&#xaf;" horiz-adv-x="667" 
d="M565 1309h-463v102h463v-102z" />
    <glyph glyph-name="degree" unicode="&#xb0;" horiz-adv-x="761" 
d="M555 1167q0 89 -42 141t-111 52q-68 0 -110 -52t-42 -137q0 -84 45 -138t111 -54t108 50q41 50 41 138zM147 1166q0 128 74 210q73 82 183 82t182 -76t72 -210t-74 -213q-72 -79 -181 -79t-183 80q-74 78 -73 206z" />
    <glyph glyph-name="plusminus" unicode="&#xb1;" 
d="M78 367v102h811v-102h-811zM78 899v102h356v433h98v-433h357v-102h-357v-321h-98v321h-356z" />
    <glyph glyph-name="twosuperior" unicode="&#xb2;" horiz-adv-x="778" 
d="M379 1665q272 0 272 -238q-1 -133 -109 -268t-290 -246v-12l57 14h244l80 138h41q16 -115 16 -262h-612v63q162 102 289 260t127 289q0 84 -33 127t-108 43t-120 -31l-36 -229h-43q-23 39 -51 124t-31 130q152 98 307 98z" />
    <glyph glyph-name="threesuperior" unicode="&#xb3;" horiz-adv-x="778" 
d="M384 864q70 0 110 47q41 47 41 123t-42 114t-141 38h-61v51l153 227l78 86v4l-110 -8h-158l-66 -190h-41q-18 49 -33 145t-16 146h557v-72l-166 -217l-69 -84v-2l55 8q93 0 155 -63t62 -185t-91 -190q-91 -70 -249 -70q-72 0 -150 28t-124 66l61 187h33q20 -25 90 -168
q52 -21 122 -21z" />
    <glyph glyph-name="acute" unicode="&#xb4;" horiz-adv-x="583" 
d="M322 1573q35 0 89 -14t70 -31v-39l-336 -307l-43 35l209 356h11z" />
    <glyph glyph-name="mu" unicode="&#xb5;" horiz-adv-x="1044" 
d="M477 98q165 0 234 244v567l-119 17v49q98 45 244 74h47v-934l118 -17v-41q-123 -61 -225 -77h-47l-12 243h-8q-15 -92 -93 -170q-78 -77 -188 -77t-174 55h-10l67 -391v-50q-43 -14 -89 -14t-83 14v1319l-108 17v49q98 43 243 74h48l-11 -609q0 -172 38 -257t128 -85z
" />
    <glyph glyph-name="mu" unicode="&#x3bc;" horiz-adv-x="1044" 
d="M477 98q165 0 234 244v567l-119 17v49q98 45 244 74h47v-934l118 -17v-41q-123 -61 -225 -77h-47l-12 243h-8q-15 -92 -93 -170q-78 -77 -188 -77t-174 55h-10l67 -391v-50q-43 -14 -89 -14t-83 14v1319l-108 17v49q98 43 243 74h48l-11 -609q0 -172 38 -257t128 -85z
" />
    <glyph glyph-name="paragraph" unicode="&#xb6;" horiz-adv-x="927" 
d="M596 193v1144h-80v-1288q0 -199 -45 -289q69 34 97 138t28 295zM682 193q0 -177 -31 -279t-77 -140t-125 -57q-61 -113 -183 -151l-20 37q184 88 184 446v586q-131 0 -226 96q-95 97 -95 285t93 303t269 115h348v-58q-67 -37 -137 -49v-1134z" />
    <glyph glyph-name="periodcentered" unicode="&#xb7;" horiz-adv-x="432" 
d="M90 627q0 59 35 95t91 36t91 -36t35 -95t-35 -95t-91 -36t-91 36t-35 95z" />
    <glyph glyph-name="cedilla" unicode="&#xb8;" horiz-adv-x="503" 
d="M117 -512h-15v59q147 23 148 138q0 49 -35 73t-111 29l66 215h86l-47 -141q193 -6 192 -146q0 -107 -88 -167t-196 -60z" />
    <glyph glyph-name="onesuperior" unicode="&#xb9;" horiz-adv-x="778" 
d="M662 791h-510v40q106 51 182 70v512l8 92q-70 -23 -178 -22h-25v55q141 35 285 127h57v-764q115 -31 181 -70v-40z" />
    <glyph glyph-name="ordmasculine" unicode="&#xba;" horiz-adv-x="788" 
d="M236 1114q0 -125 40 -198t119 -72q158 0 158 270q-1 270 -159 270t-158 -270zM78 1107q0 163 89 257t230 94t227 -87t87 -252q0 -165 -87 -257q-86 -92 -230 -92t-230 87t-86 250z" />
    <glyph glyph-name="guillemotright" unicode="&#xbb;" horiz-adv-x="854" 
d="M811 530l-399 -413l-47 39l262 376l-254 381l49 37zM459 530l-318 -409l-47 37l201 377l-193 376l50 35z" />
    <glyph glyph-name="onequarter" unicode="&#xbc;" horiz-adv-x="1693" 
d="M307 49l1053 1403l63 -59l-1052 -1405zM629 578h-510v40q106 51 182 70v512l8 92q-70 -23 -178 -22h-25v55q141 35 285 127h58v-764q114 -31 180 -70v-40zM1260 334v272l18 88h-6l-64 -88l-194 -239l-66 -48l113 15h199zM1513 0h-385v41q70 37 132 49v152h-439v45
l516 587h70v-540h168v-92h-168v-152q63 -14 106 -49v-41z" />
    <glyph glyph-name="onehalf" unicode="&#xbd;" horiz-adv-x="1814" 
d="M307 49l1053 1403l63 -59l-1052 -1405zM629 578h-510v40q106 51 182 70v512l8 92q-70 -23 -178 -22h-25v55q141 35 285 127h58v-764q114 -31 180 -70v-40zM1380 874q272 0 273 -237q0 -133 -109 -268t-291 -246v-12l58 14h243l80 137h41q16 -115 17 -262h-613v63
q162 103 289 261t127 288q0 84 -33 127q-34 43 -108 43t-119 -30l-37 -230h-43q-23 37 -50 123q-28 86 -32 131q152 98 307 98z" />
    <glyph glyph-name="threequarters" unicode="&#xbe;" horiz-adv-x="1783" 
d="M397 49l1053 1403l63 -59l-1052 -1405zM1350 334v272l18 88h-6l-64 -88l-194 -239l-66 -48l113 15h199zM1604 0h-385v41q70 37 131 49v152h-439v45l516 587h70v-540h168v-92h-168v-152q64 -14 107 -49v-41zM426 651q70 0 111 47t41 123t-42 114t-141 38h-61v51l153 227
l78 86v4l-110 -8h-158l-66 -190h-41q-18 49 -33 145t-16 146h557v-72l-166 -217l-69 -84v-2l55 8q92 0 154 -63q62 -62 63 -184q0 -122 -91 -192t-249 -69q-71 0 -149 28t-125 66l61 187h33q20 -25 90 -168q51 -21 121 -21z" />
    <glyph glyph-name="questiondown" unicode="&#xbf;" horiz-adv-x="856" 
d="M598 918q0 -60 -35 -96t-91 -36t-91 36t-35 96t35 95q35 36 91 36t91 -36t35 -95zM389 -426q-156 0 -242 93t-86 241q0 188 142 330l119 118q143 143 143 312h37q14 -63 14 -140t-43 -163q-43 -85 -93 -139t-93 -132t-43 -173t49 -170t149 -75t140 39l43 250h47
q49 -195 59 -307q-119 -84 -342 -84z" />
    <glyph glyph-name="Agrave" unicode="&#xc0;" horiz-adv-x="1239" 
d="M416 1829l258 -254l-35 -39l-408 186v41q17 25 77 45t100 21h8zM541 1024l-138 -436h361l-141 440l-33 176h-4zM403 0h-403v57q66 33 129 49l459 1352h59l455 -1352q92 -20 137 -49v-57h-471v57q82 35 147 49l-120 379h-428l-119 -379q77 -12 155 -49v-57z" />
    <glyph glyph-name="Aacute" unicode="&#xc1;" horiz-adv-x="1239" 
d="M823 1829q39 1 97 -19t75 -47v-41l-411 -186l-33 39l264 254h8zM541 1024l-138 -436h361l-141 440l-33 176h-4zM403 0h-403v57q66 33 129 49l459 1352h59l455 -1352q92 -20 137 -49v-57h-471v57q82 35 147 49l-120 379h-428l-119 -379q77 -12 155 -49v-57z" />
    <glyph glyph-name="Acircumflex" unicode="&#xc2;" horiz-adv-x="1239" 
d="M614 1659l-219 -117l-28 37l229 229q26 16 53 0l225 -223l-28 -41zM541 1024l-138 -436h361l-141 440l-33 176h-4zM403 0h-403v57q66 33 129 49l459 1352h59l455 -1352q92 -20 137 -49v-57h-471v57q82 35 147 49l-120 379h-428l-119 -379q77 -12 155 -49v-57z" />
    <glyph glyph-name="Atilde" unicode="&#xc3;" horiz-adv-x="1239" 
d="M790 1698q44 0 95 41l24 -56q-102 -113 -200 -112q-47 0 -123 35q-76 34 -121 34t-98 -51l-35 56q117 119 221 118q45 -1 119 -33t118 -32zM541 1024l-138 -436h361l-141 440l-33 176h-4zM403 0h-403v57q66 33 129 49l459 1352h59l455 -1352q92 -20 137 -49v-57h-471v57
q82 35 147 49l-120 379h-428l-119 -379q77 -12 155 -49v-57z" />
    <glyph glyph-name="Adieresis" unicode="&#xc4;" horiz-adv-x="1239" 
d="M717 1616q0 45 29 70q30 24 77 24t76 -24t29 -70q0 -45 -30 -70q-30 -24 -76 -24t-76 24q-29 25 -29 70zM311 1616q0 45 30 70q30 24 77 24t77 -24q29 -24 29 -70q0 -45 -30 -70q-30 -24 -76 -24q-47 0 -77 24t-30 70zM541 1024l-138 -436h361l-141 440l-33 176h-4z
M403 0h-403v57q66 33 129 49l459 1352h59l455 -1352q92 -20 137 -49v-57h-471v57q82 35 147 49l-120 379h-428l-119 -379q77 -12 155 -49v-57z" />
    <glyph glyph-name="Aring" unicode="&#xc5;" horiz-adv-x="1239" 
d="M518 1614q0 -40 30 -60t66 -20q104 0 105 78q0 50 -30 72t-68 22q-103 0 -103 -92zM541 1024l-138 -436h361l-141 440l-33 176h-4zM414 1620q0 74 60 121t146 47t144 -43q59 -43 59 -120t-50 -121t-124 -52l453 -1346q92 -20 137 -49v-57h-471v57q82 35 147 49l-120 379
h-428l-119 -379q78 -12 155 -49v-57h-403v57q66 33 129 49l457 1348q-80 8 -126 50t-46 116z" />
    <glyph glyph-name="AE" unicode="&#xc6;" horiz-adv-x="1665" 
d="M813 629v626h-4l-74 -190l-217 -436h295zM995 1331v-549h287l72 152h45q6 -102 6 -204t-6 -206h-45l-72 156h-287v-578h410l88 246h49q20 -164 21 -348h-895v57q63 33 145 49v420h-350l-207 -420q74 -12 152 -49v-57h-406v57q63 33 129 49l637 1231q-66 18 -104 39v58
h864q-4 -199 -21 -328h-49l-76 225h-387z" />
    <glyph glyph-name="Ccedilla" unicode="&#xc7;" horiz-adv-x="1161" 
d="M713 -350q0 55 -39 82t-121 32l65 220q-526 66 -526 733q0 552 375 699q106 42 231 42q219 0 346 -69q0 -188 -28 -349h-49l-95 295q-33 20 -153 21q-188 0 -312 -164t-124 -466t125 -475t342 -173q118 0 149 39l86 250h49q20 -123 21 -308q-98 -84 -348 -84l-43 -129
q106 -2 160 -45t55 -116q1 -111 -105 -174t-227 -64v64q166 29 166 139z" />
    <glyph glyph-name="Egrave" unicode="&#xc8;" horiz-adv-x="1050" 
d="M387 1829l258 -254l-35 -39l-407 186v41q17 25 77 45t99 21h8zM51 1434h862q-4 -199 -20 -328h-49l-76 225h-387v-549h287l71 152h45q13 -218 0 -410h-45l-71 156h-287v-578h410l88 246h49q20 -164 20 -348h-897v57q63 33 148 49v1221q-80 16 -148 49v58z" />
    <glyph glyph-name="Eacute" unicode="&#xc9;" horiz-adv-x="1050" 
d="M662 1829q39 1 96 -19t76 -47v-41l-412 -186l-33 39l264 254h9zM51 1434h862q-4 -199 -20 -328h-49l-76 225h-387v-549h287l71 152h45q13 -218 0 -410h-45l-71 156h-287v-578h410l88 246h49q20 -164 20 -348h-897v57q63 33 148 49v1221q-80 16 -148 49v58z" />
    <glyph glyph-name="Ecircumflex" unicode="&#xca;" horiz-adv-x="1050" 
d="M537 1659l-220 -117l-28 37l229 229q8 6 24 6t29 -6l226 -223l-29 -41zM51 1434h862q-4 -199 -20 -328h-49l-76 225h-387v-549h287l71 152h45q13 -218 0 -410h-45l-71 156h-287v-578h410l88 246h49q20 -164 20 -348h-897v57q63 33 148 49v1221q-80 16 -148 49v58z" />
    <glyph glyph-name="Edieresis" unicode="&#xcb;" horiz-adv-x="1050" 
d="M616 1616q0 45 30 70q30 24 77 24t76 -24t29 -70q0 -45 -30 -70q-30 -24 -76 -24t-76 24t-30 70zM211 1616q0 45 30 70q31 24 77 24t76 -24t30 -70q0 -45 -30 -70q-30 -24 -77 -24t-77 24t-29 70zM51 1434h862q-4 -199 -20 -328h-49l-76 225h-387v-549h287l71 152h45
q13 -218 0 -410h-45l-71 156h-287v-578h410l88 246h49q20 -164 20 -348h-897v57q63 33 148 49v1221q-80 16 -148 49v58z" />
    <glyph glyph-name="Igrave" unicode="&#xcc;" horiz-adv-x="641" 
d="M248 1829l258 -254l-35 -39l-408 186v41q17 25 77 45t100 21h8zM557 0h-473v57q72 37 145 49v1221q-76 16 -145 49v58h473v-58q-57 -31 -145 -49v-1221q77 -16 145 -49v-57z" />
    <glyph glyph-name="Iacute" unicode="&#xcd;" horiz-adv-x="641" 
d="M438 1829q38 1 96 -19t76 -47v-41l-411 -186l-33 39l264 254h8zM557 0h-473v57q72 37 145 49v1221q-76 16 -145 49v58h473v-58q-57 -31 -145 -49v-1221q77 -16 145 -49v-57z" />
    <glyph glyph-name="Icircumflex" unicode="&#xce;" horiz-adv-x="641" 
d="M313 1659l-219 -117l-28 37l229 229q9 6 25 6t28 -6l225 -223l-28 -41zM557 0h-473v57q72 37 145 49v1221q-76 16 -145 49v58h473v-58q-57 -31 -145 -49v-1221q77 -16 145 -49v-57z" />
    <glyph glyph-name="Idieresis" unicode="&#xcf;" horiz-adv-x="641" 
d="M416 1616q0 45 29 70q30 24 77 24t76 -24t29 -70q0 -45 -30 -70q-30 -24 -76 -24t-76 24q-29 25 -29 70zM10 1616q0 45 30 70q30 24 77 24t77 -24t30 -70q0 -45 -30 -70q-30 -24 -77 -24t-77 24t-30 70zM557 0h-473v57q72 37 145 49v1221q-76 16 -145 49v58h473v-58
q-57 -31 -145 -49v-1221q77 -16 145 -49v-57z" />
    <glyph glyph-name="Eth" unicode="&#xd0;" horiz-adv-x="1282" 
d="M529 1348q-118 0 -158 -11v-555h297v-102h-297v-588q45 -8 165 -8q333 0 426 404q53 233 -3 468q-57 234 -219 334q-94 58 -211 58zM51 0v57q63 33 148 49v574h-160v102h160v545q-90 23 -148 49v58h187l313 16q305 0 472 -187t167 -527t-172 -547q-172 -208 -506 -207
l-285 18h-176z" />
    <glyph glyph-name="Ntilde" unicode="&#xd1;" horiz-adv-x="1325" 
d="M833 1698q44 0 95 41l24 -56q-102 -113 -200 -112q-47 0 -123 35q-76 34 -121 34t-98 -51l-35 56q117 119 221 118q45 -1 119 -33t118 -32zM879 1434h395v-58q-72 -53 -150 -80v-1321h-106l-653 1139l-72 160h-4l16 -160v-985q84 -29 139 -72v-57h-393v57q57 41 150 72
v1180q-80 33 -138 69v56h312l563 -988l84 -176h6q-6 158 -8 176v850q-86 41 -141 80v58z" />
    <glyph glyph-name="Ograve" unicode="&#xd2;" horiz-adv-x="1335" 
d="M535 1829l258 -254l-35 -39l-408 186v41q16 25 76 45t100 21h9zM295 720q0 -282 100 -462q99 -180 281 -180t273 180t91 460t-98 459t-284 179t-275 -177q-88 -177 -88 -459zM92 717q0 329 154 535t422 206t422 -207t154 -535t-154 -534q-154 -207 -422 -207t-422 206
t-154 536z" />
    <glyph glyph-name="Oacute" unicode="&#xd3;" horiz-adv-x="1335" 
d="M770 1829q39 1 96 -19t76 -47v-41l-412 -186l-32 39l264 254h8zM295 720q0 -282 100 -462q99 -180 281 -180t273 180t91 460t-98 459t-284 179t-275 -177q-88 -177 -88 -459zM92 717q0 329 154 535t422 206t422 -207t154 -535t-154 -534q-154 -207 -422 -207t-422 206
t-154 536z" />
    <glyph glyph-name="Ocircumflex" unicode="&#xd4;" horiz-adv-x="1335" 
d="M662 1659l-220 -117l-28 37l229 229q9 6 25 6t28 -6l226 -223l-29 -41zM295 720q0 -282 100 -462q99 -180 281 -180t273 180t91 460t-98 459t-284 179t-275 -177q-88 -177 -88 -459zM92 717q0 329 154 535t422 206t422 -207t154 -535t-154 -534q-154 -207 -422 -207
t-422 206t-154 536z" />
    <glyph glyph-name="Otilde" unicode="&#xd5;" horiz-adv-x="1335" 
d="M837 1698q44 0 95 41l24 -56q-102 -113 -200 -112q-47 0 -123 35q-76 34 -121 34t-98 -51l-35 56q117 119 221 118q45 -1 119 -33t118 -32zM295 720q0 -282 100 -462q99 -180 281 -180t273 180t91 460t-98 459t-284 179t-275 -177q-88 -177 -88 -459zM92 717
q0 329 154 535t422 206t422 -207t154 -535t-154 -534q-154 -207 -422 -207t-422 206t-154 536z" />
    <glyph glyph-name="Odieresis" unicode="&#xd6;" horiz-adv-x="1335" 
d="M764 1616q0 45 30 70q30 24 76 24t76 -24q29 -24 29 -70q0 -45 -30 -70q-30 -24 -76 -24q-45 0 -75 24t-30 70zM358 1616q0 45 30 70q30 24 77 24t77 -24t30 -70q0 -45 -30 -70q-30 -24 -77 -24t-77 24t-30 70zM295 720q0 -282 100 -462q99 -180 281 -180t273 180t91 460
t-98 459t-284 179t-275 -177q-88 -177 -88 -459zM92 717q0 329 154 535t422 206t422 -207t154 -535t-154 -534q-154 -207 -422 -207t-422 206t-154 536z" />
    <glyph glyph-name="multiply" unicode="&#xd7;" 
d="M229 344l-69 72l250 289l-246 286l69 72l248 -285l252 289l70 -72l-250 -288l256 -295l-72 -74l-256 295z" />
    <glyph glyph-name="Oslash" unicode="&#xd8;" horiz-adv-x="1335" 
d="M1040 710q0 272 -82 437l-514 -961q92 -109 240 -108q174 0 265 180t91 452zM295 728q0 -274 84 -447l516 964q-98 111 -242 111q-182 0 -270 -177t-88 -451zM92 717q0 329 154 535t422 206q170 0 299 -94l53 96l92 -57l-59 -111q190 -207 190 -555q1 -348 -153 -555
t-422 -207q-168 0 -299 91l-50 -93l-88 58l56 102q-195 205 -195 584z" />
    <glyph glyph-name="Ugrave" unicode="&#xd9;" horiz-adv-x="1216" 
d="M473 1829l258 -254l-35 -39l-407 186v41q17 25 77 45t99 21h8zM16 1434h467v-58q-51 -27 -137 -49v-844q0 -209 78 -297t233 -88q297 0 297 385v824q-76 29 -145 69v58h391v-58q-74 -49 -141 -69v-828q0 -252 -113 -375q-114 -122 -328 -122t-334 116t-120 348v881
q-78 12 -148 49v58z" />
    <glyph glyph-name="Uacute" unicode="&#xda;" horiz-adv-x="1216" 
d="M854 1829q39 1 96 -19t76 -47v-41l-412 -186l-32 39l264 254h8zM16 1434h467v-58q-51 -27 -137 -49v-844q0 -209 78 -297t233 -88q297 0 297 385v824q-76 29 -145 69v58h391v-58q-74 -49 -141 -69v-828q0 -252 -113 -375q-114 -122 -328 -122t-334 116t-120 348v881
q-78 12 -148 49v58z" />
    <glyph glyph-name="Ucircumflex" unicode="&#xdb;" horiz-adv-x="1216" 
d="M643 1659l-219 -117l-29 37l230 229q22 17 53 0l225 -223l-29 -41zM16 1434h467v-58q-51 -27 -137 -49v-844q0 -209 78 -297t233 -88q297 0 297 385v824q-76 29 -145 69v58h391v-58q-74 -49 -141 -69v-828q0 -252 -113 -375q-114 -122 -328 -122t-334 116t-120 348v881
q-78 12 -148 49v58z" />
    <glyph glyph-name="Udieresis" unicode="&#xdc;" horiz-adv-x="1216" 
d="M745 1616q0 45 30 70q30 24 77 24t76 -24q28 -24 28 -70q0 -45 -30 -70q-30 -24 -75 -24q-46 0 -76 24t-30 70zM340 1616q0 45 30 70q30 24 76 24t77 -24q30 -24 30 -70q0 -45 -30 -70q-30 -24 -77 -24q-46 0 -76 24t-30 70zM16 1434h467v-58q-51 -27 -137 -49v-844
q0 -209 78 -297t233 -88q297 0 297 385v824q-76 29 -145 69v58h391v-58q-74 -49 -141 -69v-828q0 -252 -113 -375q-114 -122 -328 -122t-334 116t-120 348v881q-78 12 -148 49v58z" />
    <glyph glyph-name="Yacute" unicode="&#xdd;" horiz-adv-x="1169" 
d="M852 1829q39 1 96 -19t76 -47v-41l-412 -186l-32 39l264 254h8zM770 1434h399v-58q-63 -37 -135 -49l-342 -717v-504q70 -10 137 -49v-57h-467v57q63 37 148 49v502l-365 719q-66 12 -145 49v58h487v-58q-53 -25 -137 -49l291 -608l274 608q-90 24 -145 49v58z" />
    <glyph glyph-name="Thorn" unicode="&#xde;" horiz-adv-x="1079" 
d="M502 1130q-84 0 -121 -12v-647q29 -10 143 -10t199 87q86 87 86 250q0 164 -81 248t-226 84zM555 0h-504v57q55 31 148 49v1221q-72 14 -144 49v58h471v-58q-61 -31 -145 -49v-102q106 8 181 8q168 0 309 -98t141 -324q0 -227 -142 -340t-350 -113q-106 1 -139 9v-261
q102 -16 174 -49v-57z" />
    <glyph glyph-name="germandbls" unicode="&#xdf;" horiz-adv-x="1161" 
d="M612 1454q-64 0 -101 -12q-38 -12 -74 -49q-72 -74 -72 -318v-1075h-291v49q55 37 119 49v828h-138v49q63 45 138 67v72q0 323 268 407q63 19 131 19q180 0 269 -106t93 -258q-143 -23 -217 -89t-73 -194q0 -57 32 -109t78 -86l105 -77l104 -84q47 -41 79 -108t32 -146
q0 -143 -89 -225t-249 -83q-160 0 -295 58q6 90 45 172h45l119 -127q32 -16 98 -16t112 50t46 117q0 124 -111 207l-104 78q-55 43 -104 86q-48 43 -80 115t-31 162q-1 231 290 333q-2 90 -56 167t-118 77z" />
    <glyph glyph-name="agrave" unicode="&#xe0;" horiz-adv-x="919" 
d="M377 1573h10l188 -356l-43 -35l-335 307v39q18 16 79 30t101 15zM584 496q-197 0 -266 -50q-68 -50 -68 -149t38 -149t112 -50q73 0 120 60t64 123v215zM317 -25q-109 0 -179 76t-70 197q0 180 117 244q118 63 399 79q6 63 6 123q0 268 -156 269q-74 0 -117 -21l-86 -246
h-49q-45 141 -53 254q143 98 346 99q283 0 283 -326l-10 -457l6 -147l125 -21v-41q-88 -51 -213 -77h-48q-23 63 -26 229h-10q-16 -92 -86 -163t-179 -71z" />
    <glyph glyph-name="aacute" unicode="&#xe1;" horiz-adv-x="919" 
d="M561 1573q35 0 89 -14t71 -31v-39l-336 -307l-43 35l209 356h10zM584 496q-197 0 -266 -50q-68 -50 -68 -149t38 -149t112 -50q73 0 120 60t64 123v215zM317 -25q-109 0 -179 76t-70 197q0 180 117 244q118 63 399 79q6 63 6 123q0 268 -156 269q-74 0 -117 -21l-86 -246
h-49q-45 141 -53 254q143 98 346 99q283 0 283 -326l-10 -457l6 -147l125 -21v-41q-88 -51 -213 -77h-48q-23 63 -26 229h-10q-16 -92 -86 -163t-179 -71z" />
    <glyph glyph-name="acircumflex" unicode="&#xe2;" horiz-adv-x="919" 
d="M460 1630q14 0 25 -6l205 -379l-51 -33l-186 222l-162 -222l-53 31l198 381q10 6 24 6zM584 496q-197 0 -266 -50q-68 -50 -68 -149t38 -149t112 -50q73 0 120 60t64 123v215zM317 -25q-109 0 -179 76t-70 197q0 180 117 244q118 63 399 79q6 63 6 123q0 268 -156 269
q-74 0 -117 -21l-86 -246h-49q-45 141 -53 254q143 98 346 99q283 0 283 -326l-10 -457l6 -147l125 -21v-41q-88 -51 -213 -77h-48q-23 63 -26 229h-10q-16 -92 -86 -163t-179 -71z" />
    <glyph glyph-name="atilde" unicode="&#xe3;" horiz-adv-x="919" 
d="M291 1333q-43 0 -94 -51l-35 55q113 119 215 119q45 0 113 -33t111 -33q42 0 91 42l27 -56q-102 -113 -197 -112q-44 0 -116 34t-115 35zM584 496q-197 0 -266 -50q-68 -50 -68 -149t38 -149t112 -50q73 0 120 60t64 123v215zM317 -25q-109 0 -179 76t-70 197
q0 180 117 244q118 63 399 79q6 63 6 123q0 268 -156 269q-74 0 -117 -21l-86 -246h-49q-45 141 -53 254q143 98 346 99q283 0 283 -326l-10 -457l6 -147l125 -21v-41q-88 -51 -213 -77h-48q-23 63 -26 229h-10q-16 -92 -86 -163t-179 -71z" />
    <glyph glyph-name="adieresis" unicode="&#xe4;" horiz-adv-x="919" 
d="M545 1357q0 46 27 75q28 28 73 28t73 -28t28 -75q0 -46 -28 -74t-73 -28t-73 28q-27 28 -27 74zM141 1357q0 46 28 75q28 28 73 28q44 0 72 -28t28 -75q0 -46 -28 -74t-72 -28t-73 28q-28 28 -28 74zM584 496q-197 0 -266 -50q-68 -50 -68 -149t38 -149t112 -50
q73 0 120 60t64 123v215zM317 -25q-109 0 -179 76t-70 197q0 180 117 244q118 63 399 79q6 63 6 123q0 268 -156 269q-74 0 -117 -21l-86 -246h-49q-45 141 -53 254q143 98 346 99q283 0 283 -326l-10 -457l6 -147l125 -21v-41q-88 -51 -213 -77h-48q-23 63 -26 229h-10
q-16 -92 -86 -163t-179 -71z" />
    <glyph glyph-name="aring" unicode="&#xe5;" horiz-adv-x="919" 
d="M358 1405q0 -51 24 -79t54 -28q82 0 82 101q0 53 -22 85q-23 32 -58 32q-80 0 -80 -111zM260 1401q0 84 52 140t129 56t126 -51t49 -136t-52 -139t-129 -54t-126 50t-49 134zM584 496q-197 0 -266 -50q-68 -50 -68 -149t38 -149t112 -50q73 0 120 60t64 123v215zM317 -25
q-109 0 -179 76t-70 197q0 180 117 244q118 63 399 79q6 63 6 123q0 268 -156 269q-74 0 -117 -21l-86 -246h-49q-45 141 -53 254q143 98 346 99q283 0 283 -326l-10 -457l6 -147l125 -21v-41q-88 -51 -213 -77h-48q-23 63 -26 229h-10q-16 -92 -86 -163t-179 -71z" />
    <glyph glyph-name="ae" unicode="&#xe6;" horiz-adv-x="1409" 
d="M1147 672q0 291 -179 291q-92 0 -146 -84t-64 -279h387q2 25 2 72zM584 496q-197 0 -266 -50q-68 -50 -68 -149t38 -149t112 -50q73 0 120 58t64 116v224zM981 1049q147 1 245 -91t99 -294q0 -66 -12 -150h-559q2 -186 79 -301t224 -115q63 0 129 22t96 52l27 -31
q-29 -73 -117 -119t-196 -46t-212 52q-102 52 -153 175q-29 -98 -114 -163t-197 -65t-182 76t-70 197q0 180 117 244q118 63 399 79q6 63 6 123q0 268 -156 269q-74 0 -117 -21l-86 -246h-49q-45 141 -53 254q143 98 336 98t244 -122q47 61 105 92t167 31z" />
    <glyph glyph-name="ccedilla" unicode="&#xe7;" horiz-adv-x="841" 
d="M358 -512h-14v59q147 23 148 138q0 49 -35 73t-111 29l62 197q-166 29 -251 168q-85 140 -85 378t112 378t298 140t290 -61q-16 -184 -57 -289h-53l-76 244q-25 20 -82 21q-124 -1 -186 -107t-62 -344q0 -168 80 -291t225 -123q111 0 189 70l24 -27q-34 -76 -110 -121
t-177 -45l-38 -114q195 -6 194 -146q0 -107 -88 -167t-197 -60z" />
    <glyph glyph-name="egrave" unicode="&#xe8;" horiz-adv-x="911" 
d="M393 1573h10l189 -356l-43 -35l-336 307v39q17 16 79 30t101 15zM469 963q-92 0 -145 -84t-64 -279h387q2 25 2 70q0 135 -44 214t-136 79zM827 664q0 -66 -12 -150h-559q0 -184 77 -300t226 -116q63 0 129 22t96 52l27 -31q-31 -73 -118 -119t-187 -47q-209 -1 -322 143
q-112 144 -112 398t107 393q108 139 304 140q147 1 245 -91t99 -294z" />
    <glyph glyph-name="eacute" unicode="&#xe9;" horiz-adv-x="911" 
d="M588 1573q35 0 89 -14t71 -31v-39l-336 -307l-43 35l209 356h10zM469 963q-92 0 -145 -84t-64 -279h387q2 25 2 70q0 135 -44 214t-136 79zM827 664q0 -66 -12 -150h-559q0 -184 77 -300t226 -116q63 0 129 22t96 52l27 -31q-31 -73 -118 -119t-187 -47q-209 -1 -322 143
q-112 144 -112 398t107 393q108 139 304 140q147 1 245 -91t99 -294z" />
    <glyph glyph-name="ecircumflex" unicode="&#xea;" horiz-adv-x="911" 
d="M470 1630q16 0 26 -6l204 -379l-51 -33l-186 222l-162 -222l-53 31l198 381q8 6 24 6zM469 963q-92 0 -145 -84t-64 -279h387q2 25 2 70q0 135 -44 214t-136 79zM827 664q0 -66 -12 -150h-559q0 -184 77 -300t226 -116q63 0 129 22t96 52l27 -31q-31 -73 -118 -119
t-187 -47q-209 -1 -322 143q-112 144 -112 398t107 393q108 139 304 140q147 1 245 -91t99 -294z" />
    <glyph glyph-name="edieresis" unicode="&#xeb;" horiz-adv-x="911" 
d="M569 1357q0 46 28 75q28 28 73 28q44 0 72 -28t28 -75q0 -46 -28 -74t-72 -28t-73 28q-28 28 -28 74zM266 1255q-44 0 -72 28t-28 74t28 75q28 28 72 28t73 -28q28 -28 28 -75q0 -46 -28 -74t-73 -28zM469 963q-92 0 -145 -84t-64 -279h387q2 25 2 70q0 135 -44 214
t-136 79zM827 664q0 -66 -12 -150h-559q0 -184 77 -300t226 -116q63 0 129 22t96 52l27 -31q-31 -73 -118 -119t-187 -47q-209 -1 -322 143q-112 144 -112 398t107 393q108 139 304 140q147 1 245 -91t99 -294z" />
    <glyph glyph-name="igrave" unicode="&#xec;" horiz-adv-x="548" 
d="M168 1573h10l189 -356l-43 -35l-336 307v39q18 16 80 30t100 15zM481 0h-409v49q49 31 118 49v811l-118 17v49q92 43 243 74h47v-951q78 -20 119 -49v-49z" />
    <glyph glyph-name="iacute" unicode="&#xed;" horiz-adv-x="548" 
d="M367 1573q35 0 89 -14t70 -31v-39l-336 -307l-43 35l209 356h11zM481 0h-409v49q49 31 118 49v811l-118 17v49q92 43 243 74h47v-951q78 -20 119 -49v-49z" />
    <glyph glyph-name="icircumflex" unicode="&#xee;" horiz-adv-x="548" 
d="M270 1630q16 0 25 -6l205 -379l-51 -33l-187 222l-162 -222l-53 31l199 381q8 6 24 6zM481 0h-409v49q49 31 118 49v811l-118 17v49q92 43 243 74h47v-951q78 -20 119 -49v-49z" />
    <glyph glyph-name="idieresis" unicode="&#xef;" horiz-adv-x="548" 
d="M481 0h-409v49q49 31 118 49v811l-118 17v49q92 43 243 74h47v-951q78 -20 119 -49v-49zM375 1357q0 46 27 75q28 28 73 28t73 -28t28 -75q0 -46 -28 -74t-73 -28t-73 28q-27 28 -27 74zM-29 1357q0 46 28 75q28 28 73 28q44 0 72 -28t28 -75q0 -46 -28 -74t-72 -28
t-73 28q-28 28 -28 74z" />
    <glyph glyph-name="eth" unicode="&#xf0;" horiz-adv-x="970" 
d="M479 946q-111 0 -179 -116t-67 -314q0 -196 69 -322q70 -126 184 -126t173 132t59 334t-20 289q-61 123 -219 123zM272 1536h117q113 -37 219 -154l197 95l35 -84l-164 -80q227 -299 227 -721q1 -279 -109 -448t-313 -169q-203 1 -317 145t-115 390q0 246 118 392
q119 146 273 146t252 -116q-53 190 -143 328l-223 -109l-39 84l202 96q-98 121 -217 172v33z" />
    <glyph glyph-name="ntilde" unicode="&#xf1;" horiz-adv-x="1081" 
d="M391 1333q-43 0 -94 -51l-35 55q113 119 215 119q45 0 114 -33t111 -33t91 42l26 -56q-102 -113 -196 -112q-45 0 -117 34t-115 35zM1051 0h-400v49q47 29 107 49v486q0 168 -40 255t-131 87t-153 -67t-88 -161v-600q53 -12 107 -49v-49h-398v49q47 29 119 49v811
l-119 17v49q86 41 244 74h47v-232q41 102 114 167t169 65q153 -1 227 -95t74 -336v-520q74 -14 121 -49v-49z" />
    <glyph glyph-name="ograve" unicode="&#xf2;" horiz-adv-x="1001" 
d="M420 1573h10l188 -356l-43 -35l-335 307v39q18 16 79 30t101 15zM256 522q0 -213 66 -337t208 -124q98 0 157 115q58 115 58 327t-62 336t-196 124q-109 0 -170 -114t-61 -327zM72 515q0 253 115 393q116 140 324 140t313 -140q106 -142 106 -397t-115 -395t-321 -140
t-314 142q-108 144 -108 397z" />
    <glyph glyph-name="oacute" unicode="&#xf3;" horiz-adv-x="1001" 
d="M606 1573q35 0 89 -14t71 -31v-39l-336 -307l-43 35l209 356h10zM256 522q0 -213 66 -337t208 -124q98 0 157 115q58 115 58 327t-62 336t-196 124q-109 0 -170 -114t-61 -327zM72 515q0 253 115 393q116 140 324 140t313 -140q106 -142 106 -397t-115 -395t-321 -140
t-314 142q-108 144 -108 397z" />
    <glyph glyph-name="ocircumflex" unicode="&#xf4;" horiz-adv-x="1001" 
d="M498 1630q14 0 24 -6l205 -379l-51 -33l-187 222l-161 -222l-54 31l199 381q11 6 25 6zM256 522q0 -213 66 -337t208 -124q98 0 157 115q58 115 58 327t-62 336t-196 124q-109 0 -170 -114t-61 -327zM72 515q0 253 115 393q116 140 324 140t313 -140q106 -142 106 -397
t-115 -395t-321 -140t-314 142q-108 144 -108 397z" />
    <glyph glyph-name="otilde" unicode="&#xf5;" horiz-adv-x="1001" 
d="M352 1333q-43 0 -94 -51l-35 55q113 119 215 119q45 0 114 -33t111 -33t91 42l26 -56q-102 -113 -196 -112q-45 0 -117 34t-115 35zM256 522q0 -213 66 -337t208 -124q98 0 157 115q58 115 58 327t-62 336t-196 124q-109 0 -170 -114t-61 -327zM72 515q0 253 115 393
q116 140 324 140t313 -140q106 -142 106 -397t-115 -395t-321 -140t-314 142q-108 144 -108 397z" />
    <glyph glyph-name="odieresis" unicode="&#xf6;" horiz-adv-x="1001" 
d="M702 1255q-44 0 -72 28t-28 74t28 75q28 28 72 28t73 -28q28 -28 28 -75q0 -46 -28 -74t-73 -28zM199 1357q0 46 27 75q28 28 73 28t73 -28t28 -75q0 -46 -28 -74t-73 -28t-73 28q-27 28 -27 74zM256 522q0 -213 66 -337t208 -124q98 0 157 115q58 115 58 327t-62 336
t-196 124q-109 0 -170 -114t-61 -327zM72 515q0 253 115 393q116 140 324 140t313 -140q106 -142 106 -397t-115 -395t-321 -140t-314 142q-108 144 -108 397z" />
    <glyph glyph-name="divide" unicode="&#xf7;" 
d="M78 653v103h811v-103h-811zM356 317q0 59 35 95t91 37q56 0 91 -36q35 -35 35 -95t-35 -96t-91 -36t-91 36t-35 95zM356 1098q0 59 35 95t91 36t91 -36t35 -95q0 -60 -35 -96t-91 -36t-91 37q-35 36 -35 95z" />
    <glyph glyph-name="oslash" unicode="&#xf8;" horiz-adv-x="1001" 
d="M745 484q0 192 -38 307l-359 -648q66 -82 174 -82t166 115q57 116 57 308zM256 532q0 -202 45 -309l358 649q-63 90 -172 90t-170 -113q-61 -115 -61 -317zM72 496q0 272 115 412q116 140 315 141q141 0 229 -62l82 146l72 -50l-84 -149q129 -138 129 -408t-115 -410
t-313 -141q-129 0 -221 58l-91 -160l-69 51l88 160q-137 140 -137 412z" />
    <glyph glyph-name="ugrave" unicode="&#xf9;" horiz-adv-x="1044" 
d="M440 1573h11l188 -356l-43 -35l-336 307v39q18 16 80 30t100 15zM489 98q152 0 220 244v567l-117 17v49q100 45 242 74h47v-934l118 -17v-41q-123 -61 -223 -77h-47l-12 243h-8q-15 -92 -93 -170t-182 -78q-152 1 -224 95t-71 336l11 503l-119 17v49q96 41 245 74h48
l-13 -609q0 -172 38 -257t140 -85z" />
    <glyph glyph-name="uacute" unicode="&#xfa;" horiz-adv-x="1044" 
d="M618 1573q36 0 90 -14t70 -31v-39l-336 -307l-43 35l209 356h10zM489 98q152 0 220 244v567l-117 17v49q100 45 242 74h47v-934l118 -17v-41q-123 -61 -223 -77h-47l-12 243h-8q-15 -92 -93 -170t-182 -78q-152 1 -224 95t-71 336l11 503l-119 17v49q96 41 245 74h48
l-13 -609q0 -172 38 -257t140 -85z" />
    <glyph glyph-name="ucircumflex" unicode="&#xfb;" horiz-adv-x="1044" 
d="M516 1630q16 0 25 -6l204 -379l-51 -33l-186 222l-162 -222l-53 31l199 381q8 6 24 6zM489 98q152 0 220 244v567l-117 17v49q100 45 242 74h47v-934l118 -17v-41q-123 -61 -223 -77h-47l-12 243h-8q-15 -92 -93 -170t-182 -78q-152 1 -224 95t-71 336l11 503l-119 17v49
q96 41 245 74h48l-13 -609q0 -172 38 -257t140 -85z" />
    <glyph glyph-name="udieresis" unicode="&#xfc;" horiz-adv-x="1044" 
d="M621 1357q0 46 27 75q28 28 73 28t73 -28t28 -75q0 -46 -28 -74t-73 -28t-73 28q-27 28 -27 74zM317 1255q-45 0 -73 28t-27 74q0 46 28 75q29 28 73 28t72 -28t28 -75q0 -46 -28 -74t-73 -28zM489 98q152 0 220 244v567l-117 17v49q100 45 242 74h47v-934l118 -17v-41
q-123 -61 -223 -77h-47l-12 243h-8q-15 -92 -93 -170t-182 -78q-152 1 -224 95t-71 336l11 503l-119 17v49q96 41 245 74h48l-13 -609q0 -172 38 -257t140 -85z" />
    <glyph glyph-name="yacute" unicode="&#xfd;" horiz-adv-x="913" 
d="M578 1573q35 0 89 -14t70 -31v-39l-336 -307l-43 35l209 356h11zM-20 1024h385v-47q-35 -29 -103 -51l225 -617l35 -127h4l27 129l168 615q-53 14 -98 49v49h311v-49q-37 -27 -103 -49l-286 -926q-76 -244 -147 -329t-177 -111q-35 57 -63 170l24 49h191q35 57 78 221
l-375 926q-39 10 -96 49v49z" />
    <glyph glyph-name="thorn" unicode="&#xfe;" horiz-adv-x="1028" 
d="M551 926q-162 0 -209 -242v-575q61 -47 176 -47q114 0 182 132q68 134 68 341q0 391 -217 391zM342 1540v-721h2q78 229 270 230q338 0 338 -514q0 -258 -116 -409t-310 -151q-100 0 -184 41v-327q59 -10 119 -49v-50h-410v50q62 35 119 49v1712l-137 16v49q78 39 264 74
h45z" />
    <glyph glyph-name="ydieresis" unicode="&#xff;" horiz-adv-x="913" 
d="M578 1357q0 46 27 75q28 28 73 28t73 -28q27 -28 27 -75q0 -46 -28 -74t-72 -28q-45 0 -73 28q-27 28 -27 74zM274 1255q-44 0 -72 28t-28 74t28 75q28 28 72 28t73 -28q28 -28 28 -75q0 -46 -28 -74t-73 -28zM-20 1024h385v-47q-35 -29 -103 -51l225 -617l35 -127h4
l27 129l168 615q-53 14 -98 49v49h311v-49q-37 -27 -103 -49l-286 -926q-76 -244 -147 -329t-177 -111q-35 57 -63 170l24 49h191q35 57 78 221l-375 926q-39 10 -96 49v49z" />
    <glyph glyph-name="Amacron" unicode="&#x100;" horiz-adv-x="1239" 
d="M895 1616h-547v102h547v-102zM541 1024l-138 -436h361l-141 440l-33 176h-4zM403 0h-403v57q66 33 129 49l459 1352h59l455 -1352q92 -20 137 -49v-57h-471v57q82 35 147 49l-120 379h-428l-119 -379q77 -12 155 -49v-57z" />
    <glyph glyph-name="amacron" unicode="&#x101;" horiz-adv-x="919" 
d="M688 1309h-463v102h463v-102zM584 496q-197 0 -266 -50q-68 -50 -68 -149t38 -149t112 -50q73 0 120 60t64 123v215zM317 -25q-109 0 -179 76t-70 197q0 180 117 244q118 63 399 79q6 63 6 123q0 268 -156 269q-74 0 -117 -21l-86 -246h-49q-45 141 -53 254
q143 98 346 99q283 0 283 -326l-10 -457l6 -147l125 -21v-41q-88 -51 -213 -77h-48q-23 63 -26 229h-10q-16 -92 -86 -163t-179 -71z" />
    <glyph glyph-name="Abreve" unicode="&#x102;" horiz-adv-x="1239" 
d="M842 1806q29 0 55 -26q-35 -94 -109 -160t-168 -66t-166 60q-73 60 -108 170q18 31 57 31q12 0 21 -3q25 -50 86 -84t119 -34q146 -1 209 112h4zM541 1024l-138 -436h361l-141 440l-33 176h-4zM403 0h-403v57q66 33 129 49l459 1352h59l455 -1352q92 -20 137 -49v-57
h-471v57q82 35 147 49l-120 379h-428l-119 -379q77 -12 155 -49v-57z" />
    <glyph glyph-name="abreve" unicode="&#x103;" horiz-adv-x="919" 
d="M467 1366q127 0 197 127l45 -20q-35 -103 -97 -175t-147 -71q-178 0 -252 250l51 24q29 -53 89 -94t114 -41zM584 496q-197 0 -266 -50q-68 -50 -68 -149t38 -149t112 -50q73 0 120 60t64 123v215zM317 -25q-109 0 -179 76t-70 197q0 180 117 244q118 63 399 79
q6 63 6 123q0 268 -156 269q-74 0 -117 -21l-86 -246h-49q-45 141 -53 254q143 98 346 99q283 0 283 -326l-10 -457l6 -147l125 -21v-41q-88 -51 -213 -77h-48q-23 63 -26 229h-10q-16 -92 -86 -163t-179 -71z" />
    <glyph glyph-name="Aogonek" unicode="&#x104;" horiz-adv-x="1239" 
d="M541 1024l-138 -436h361l-141 440l-33 176h-4zM403 0h-403v57q66 33 129 49l459 1352h59l455 -1352q92 -20 137 -49v-57h-76q-178 -117 -178 -276q0 -58 33 -96t87 -38t97 13v-58q-66 -57 -160 -57t-153 56t-59 150t60 166q60 73 173 140h-295v57q82 35 147 49l-120 379
h-428l-119 -379q77 -12 155 -49v-57z" />
    <glyph glyph-name="aogonek" unicode="&#x105;" horiz-adv-x="919" 
d="M584 496q-197 0 -266 -50q-68 -50 -68 -149t38 -149t112 -50q73 0 120 60t64 123v215zM641 -242q0 -47 27 -86q28 -39 70 -39t102 19v-64q-62 -41 -152 -41q-90 -1 -147 49t-58 130q0 154 172 254h-37q-23 63 -26 229h-10q-16 -92 -86 -163t-179 -71t-179 76t-70 197
q0 180 117 244q118 63 399 79q6 63 6 123q0 268 -156 269q-74 0 -117 -21l-86 -246h-49q-45 141 -53 254q143 98 346 99q283 0 283 -326l-10 -457l6 -147l125 -21v-41q-7 -6 -25 -13t-27 -13q-186 -104 -186 -273z" />
    <glyph glyph-name="Cacute" unicode="&#x106;" horiz-adv-x="1161" 
d="M801 1829q39 1 96 -19t76 -47v-41l-412 -186l-33 39l265 254h8zM737 -25q-311 1 -478 183t-167 559q0 552 375 699q106 42 231 42q219 0 346 -69q0 -188 -28 -349h-49l-95 295q-33 20 -153 21q-188 0 -312 -164t-124 -466t125 -475t342 -173q118 0 149 39l86 250h49
q20 -123 21 -308q-98 -84 -318 -84z" />
    <glyph glyph-name="cacute" unicode="&#x107;" horiz-adv-x="841" 
d="M578 1573q35 0 89 -14t70 -31v-39l-336 -307l-43 35l209 356h11zM256 512q0 -168 80 -291t225 -123q111 0 189 70l24 -27q-34 -73 -108 -119t-170 -47q-209 -1 -317 143q-107 144 -107 397t112 393t298 140t290 -61q-16 -184 -57 -289h-53l-76 244q-25 20 -82 21
q-124 -1 -186 -107t-62 -344z" />
    <glyph glyph-name="Ccircumflex" unicode="&#x108;" horiz-adv-x="1161" 
d="M668 1659l-219 -117l-29 37l229 229q9 6 25 6t28 -6l226 -223l-29 -41zM737 -25q-311 1 -478 183t-167 559q0 552 375 699q106 42 231 42q219 0 346 -69q0 -188 -28 -349h-49l-95 295q-33 20 -153 21q-188 0 -312 -164t-124 -466t125 -475t342 -173q118 0 149 39l86 250
h49q20 -123 21 -308q-98 -84 -318 -84z" />
    <glyph glyph-name="ccircumflex" unicode="&#x109;" horiz-adv-x="841" 
d="M470 1630q16 0 26 -6l204 -379l-51 -33l-186 222l-162 -222l-53 31l198 381q8 6 24 6zM256 512q0 -168 80 -291t225 -123q111 0 189 70l24 -27q-34 -73 -108 -119t-170 -47q-209 -1 -317 143q-107 144 -107 397t112 393t298 140t290 -61q-16 -184 -57 -289h-53l-76 244
q-25 20 -82 21q-124 -1 -186 -107t-62 -344z" />
    <glyph glyph-name="Cdotaccent" unicode="&#x10a;" horiz-adv-x="1161" 
d="M565 1673q0 51 34 80t87 29t86 -29t33 -80t-33 -80t-86 -29t-87 30q-34 28 -34 79zM737 -25q-311 1 -478 183t-167 559q0 552 375 699q106 42 231 42q219 0 346 -69q0 -188 -28 -349h-49l-95 295q-33 20 -153 21q-188 0 -312 -164t-124 -466t125 -475t342 -173
q118 0 149 39l86 250h49q20 -123 21 -308q-98 -84 -318 -84z" />
    <glyph glyph-name="cdotaccent" unicode="&#x10b;" horiz-adv-x="841" 
d="M356 1374q0 53 33 85t86 32t85 -32t32 -85t-32 -85t-85 -32t-86 32t-33 85zM256 512q0 -168 80 -291t225 -123q111 0 189 70l24 -27q-34 -73 -108 -119t-170 -47q-209 -1 -317 143q-107 144 -107 397t112 393t298 140t290 -61q-16 -184 -57 -289h-53l-76 244
q-25 20 -82 21q-124 -1 -186 -107t-62 -344z" />
    <glyph glyph-name="Ccaron" unicode="&#x10c;" horiz-adv-x="1161" 
d="M694 1548q-18 0 -26 6l-226 224q16 39 47 39l211 -113l203 113q31 0 47 -33l-229 -230q-9 -6 -27 -6zM737 -25q-311 1 -478 183t-167 559q0 552 375 699q106 42 231 42q219 0 346 -69q0 -188 -28 -349h-49l-95 295q-33 20 -153 21q-188 0 -312 -164t-124 -466t125 -475
t342 -173q118 0 149 39l86 250h49q20 -123 21 -308q-98 -84 -318 -84z" />
    <glyph glyph-name="ccaron" unicode="&#x10d;" horiz-adv-x="841" 
d="M471 1411l180 221q41 0 54 -30l-224 -381q-25 -15 -49 0l-219 378q14 33 63 33zM256 512q0 -168 80 -291t225 -123q111 0 189 70l24 -27q-34 -73 -108 -119t-170 -47q-209 -1 -317 143q-107 144 -107 397t112 393t298 140t290 -61q-16 -184 -57 -289h-53l-76 244
q-25 20 -82 21q-124 -1 -186 -107t-62 -344z" />
    <glyph glyph-name="Dcaron" unicode="&#x10e;" horiz-adv-x="1280" 
d="M541 1548q-16 0 -27 6l-225 224q16 39 47 39l211 -113l203 113q31 0 47 -33l-230 -230q-10 -6 -26 -6zM528 1348q-119 0 -157 -11v-1245q45 -8 166 -8q227 0 337 185t111 466q0 106 -24 209q-61 248 -221 346q-94 58 -212 58zM51 0v57q63 33 148 49v1221q-90 23 -148 49
v58h187l311 16q305 0 472 -187t167 -527t-171 -547q-171 -208 -505 -207l-287 18h-174z" />
    <glyph glyph-name="dcaron" unicode="&#x10f;" horiz-adv-x="1007" 
d="M1032 1536q33 0 77 -13t62 -32q-13 -105 -77 -215t-136 -182l-36 20q78 186 77 391l23 31h10zM467 98q164 0 211 240v582q-57 36 -175 36q-119 0 -183 -122t-64 -314t54 -307t157 -115zM428 -25q-356 0 -356 533q0 256 112 395q113 139 308 139q104 0 186 -32v391
l-137 16v49q76 37 260 74h49v-1425l117 -17v-41q-113 -61 -226 -77h-47l-16 223h-6q-18 -94 -86 -161t-158 -67z" />
    <glyph glyph-name="Dcroat" unicode="&#x110;" horiz-adv-x="1282" 
d="M529 1348q-118 0 -158 -11v-555h297v-102h-297v-588q45 -8 165 -8q333 0 426 404q53 233 -3 468q-57 234 -219 334q-94 58 -211 58zM51 0v57q63 33 148 49v574h-160v102h160v545q-90 23 -148 49v58h187l313 16q305 0 472 -187t167 -527t-172 -547q-172 -208 -506 -207
l-285 18h-176z" />
    <glyph glyph-name="dcroat" unicode="&#x111;" horiz-adv-x="1007" 
d="M467 98q164 0 211 240v582q-57 36 -175 36q-119 0 -183 -122t-64 -314t54 -307t157 -115zM403 1171v103h275v127l-137 16v49q76 37 262 74h47v-266h164v-103h-164v-1056l119 -17v-41q-113 -61 -226 -77h-49l-16 223h-6q-18 -94 -86 -161t-158 -67q-356 0 -356 533
q0 256 112 395q113 139 308 139q104 0 186 -32v161h-275z" />
    <glyph glyph-name="Emacron" unicode="&#x112;" horiz-adv-x="1050" 
d="M819 1616h-547v102h547v-102zM51 1434h862q-4 -199 -20 -328h-49l-76 225h-387v-549h287l71 152h45q13 -218 0 -410h-45l-71 156h-287v-578h410l88 246h49q20 -164 20 -348h-897v57q63 33 148 49v1221q-80 16 -148 49v58z" />
    <glyph glyph-name="emacron" unicode="&#x113;" horiz-adv-x="911" 
d="M705 1309h-463v102h463v-102zM469 963q-92 0 -145 -84t-64 -279h387q2 25 2 70q0 135 -44 214t-136 79zM827 664q0 -66 -12 -150h-559q0 -184 77 -300t226 -116q63 0 129 22t96 52l27 -31q-31 -73 -118 -119t-187 -47q-209 -1 -322 143q-112 144 -112 398t107 393
q108 139 304 140q147 1 245 -91t99 -294z" />
    <glyph glyph-name="Ebreve" unicode="&#x114;" horiz-adv-x="1050" 
d="M774 1806q29 0 55 -26q-35 -94 -109 -160t-167 -66q-94 0 -167 60t-107 170q18 31 57 31q12 0 20 -3q25 -50 86 -84t119 -34q146 -1 209 112h4zM51 1434h862q-4 -199 -20 -328h-49l-76 225h-387v-549h287l71 152h45q13 -218 0 -410h-45l-71 156h-287v-578h410l88 246h49
q20 -164 20 -348h-897v57q63 33 148 49v1221q-80 16 -148 49v58z" />
    <glyph glyph-name="ebreve" unicode="&#x115;" horiz-adv-x="911" 
d="M467 1366q127 0 197 127l45 -20q-35 -103 -97 -175t-147 -71q-178 0 -252 250l51 24q29 -53 89 -94t114 -41zM469 963q-92 0 -145 -84t-64 -279h387q2 25 2 70q0 135 -44 214t-136 79zM827 664q0 -66 -12 -150h-559q0 -184 77 -300t226 -116q63 0 129 22t96 52l27 -31
q-31 -73 -118 -119t-187 -47q-209 -1 -322 143q-112 144 -112 398t107 393q108 139 304 140q147 1 245 -91t99 -294z" />
    <glyph glyph-name="Edotaccent" unicode="&#x116;" horiz-adv-x="1050" 
d="M408 1673q0 51 33 80q34 29 87 29t86 -29t33 -80t-33 -80t-86 -29t-87 29q-33 29 -33 80zM51 1434h862q-4 -199 -20 -328h-49l-76 225h-387v-549h287l71 152h45q13 -218 0 -410h-45l-71 156h-287v-578h410l88 246h49q20 -164 20 -348h-897v57q63 33 148 49v1221
q-80 16 -148 49v58z" />
    <glyph glyph-name="edotaccent" unicode="&#x117;" horiz-adv-x="911" 
d="M352 1374q0 53 33 85t86 32t85 -32t32 -85t-32 -85t-85 -32t-86 32t-33 85zM469 963q-92 0 -145 -84t-64 -279h387q2 25 2 70q0 135 -44 214t-136 79zM827 664q0 -66 -12 -150h-559q0 -184 77 -300t226 -116q63 0 129 22t96 52l27 -31q-31 -73 -118 -119t-187 -47
q-209 -1 -322 143q-112 144 -112 398t107 393q108 139 304 140q147 1 245 -91t99 -294z" />
    <glyph glyph-name="Eogonek" unicode="&#x118;" horiz-adv-x="1050" 
d="M51 1434h862q-4 -199 -20 -328h-49l-76 225h-387v-549h287l71 152h45q13 -218 0 -410h-45l-71 156h-287v-578h410l88 246h49q20 -100 20 -348h-78q-180 -115 -180 -276q0 -58 33 -96t87 -38t97 13v-58q-66 -57 -159 -57t-153 56t-60 150t60 166q60 73 175 140h-719v57
q63 33 148 49v1221q-80 16 -148 49v58z" />
    <glyph glyph-name="eogonek" unicode="&#x119;" horiz-adv-x="911" 
d="M469 963q-92 0 -145 -84t-64 -279h387q2 25 2 70q0 135 -44 214t-136 79zM512 -242q0 -47 26 -86t70 -39t103 19v-64q-63 -41 -153 -41q-90 -1 -147 49q-56 50 -57 130q0 147 162 249q-217 1 -331 141q-113 140 -113 397t107 396q108 139 304 140q147 1 245 -91t99 -294
q0 -66 -12 -150h-559q0 -184 77 -300t226 -116q63 0 129 22t96 52l27 -31q-37 -84 -145 -133q-154 -98 -154 -250z" />
    <glyph glyph-name="Ecaron" unicode="&#x11a;" horiz-adv-x="1050" 
d="M532 1548q-16 0 -26 6l-225 224q16 39 47 39l211 -113l202 113q31 0 47 -33l-229 -230q-11 -6 -27 -6zM51 1434h862q-4 -199 -20 -328h-49l-76 225h-387v-549h287l71 152h45q13 -218 0 -410h-45l-71 156h-287v-578h410l88 246h49q20 -164 20 -348h-897v57q63 33 148 49
v1221q-80 16 -148 49v58z" />
    <glyph glyph-name="ecaron" unicode="&#x11b;" horiz-adv-x="911" 
d="M471 1411l180 221q41 0 54 -30l-224 -381q-25 -15 -49 0l-219 378q14 33 63 33zM469 963q-92 0 -145 -84t-64 -279h387q2 25 2 70q0 135 -44 214t-136 79zM827 664q0 -66 -12 -150h-559q0 -184 77 -300t226 -116q63 0 129 22t96 52l27 -31q-31 -73 -118 -119t-187 -47
q-209 -1 -322 143q-112 144 -112 398t107 393q108 139 304 140q147 1 245 -91t99 -294z" />
    <glyph glyph-name="Gcircumflex" unicode="&#x11c;" horiz-adv-x="1243" 
d="M672 1659l-219 -117l-29 37l229 229q23 17 54 0l225 -223l-29 -41zM723 -25q-299 -1 -465 183t-166 559q0 195 51 341t139 231q176 169 410 169q233 0 357 -69q0 -193 -27 -349h-49l-96 295q-33 20 -156 21q-188 0 -313 -165t-125 -463t129 -474t323 -176q61 0 123 26
t80 48v417q-72 8 -170 49v58h444v-58q-42 -35 -110 -49v-469q-76 -49 -184 -87t-195 -38z" />
    <glyph glyph-name="gcircumflex" unicode="&#x11d;" horiz-adv-x="954" 
d="M440 1630q14 0 25 -6l205 -379l-52 -33l-186 222l-162 -222l-53 31l199 381q10 6 24 6zM258 719q0 -244 191 -244q98 0 144 67t46 177q0 244 -190 244q-103 1 -147 -61t-44 -183zM713 -166q0 113 -133 170q-43 18 -80 29l-86 24q-49 14 -80 25q-109 -80 -109 -211
q0 -219 260 -219q228 0 228 182zM86 719q0 145 96 237t278 93q184 0 269 -86q100 78 219 114q29 -45 29 -112l-23 -50h-190q47 -80 47 -214t-94 -223t-268 -89q-70 0 -103 8q-2 -8 -18 -36t-15 -61q0 -67 153 -103t269 -92q63 -30 105 -88t43 -140q0 -143 -119 -227
q-120 -84 -312 -84t-295 74t-103 185t56 171t177 104q-96 47 -97 142q0 45 34 91t77 75q-102 31 -159 116q-56 86 -56 195z" />
    <glyph glyph-name="Gbreve" unicode="&#x11e;" horiz-adv-x="1243" 
d="M936 1806q29 0 55 -26q-35 -94 -109 -160t-167 -66q-94 0 -167 60t-108 170q18 31 58 31q12 0 20 -3q25 -50 86 -84t119 -34q146 -1 209 112h4zM723 -25q-299 -1 -465 183t-166 559q0 195 51 341t139 231q176 169 410 169q233 0 357 -69q0 -193 -27 -349h-49l-96 295
q-33 20 -156 21q-188 0 -313 -165t-125 -463t129 -474t323 -176q61 0 123 26t80 48v417q-72 8 -170 49v58h444v-58q-42 -35 -110 -49v-469q-76 -49 -184 -87t-195 -38z" />
    <glyph glyph-name="gbreve" unicode="&#x11f;" horiz-adv-x="954" 
d="M449 1366q126 0 196 127l45 -20q-35 -103 -97 -175t-147 -71q-178 0 -251 250l51 24q29 -53 89 -94t114 -41zM258 719q0 -244 191 -244q98 0 144 67t46 177q0 244 -190 244q-103 1 -147 -61t-44 -183zM713 -166q0 113 -133 170q-43 18 -80 29l-86 24q-49 14 -80 25
q-109 -80 -109 -211q0 -219 260 -219q228 0 228 182zM86 719q0 145 96 237t278 93q184 0 269 -86q100 78 219 114q29 -45 29 -112l-23 -50h-190q47 -80 47 -214t-94 -223t-268 -89q-70 0 -103 8q-2 -8 -18 -36t-15 -61q0 -67 153 -103t269 -92q63 -30 105 -88t43 -140
q0 -143 -119 -227q-120 -84 -312 -84t-295 74t-103 185t56 171t177 104q-96 47 -97 142q0 45 34 91t77 75q-102 31 -159 116q-56 86 -56 195z" />
    <glyph glyph-name="Gdotaccent" unicode="&#x120;" horiz-adv-x="1243" 
d="M600 1673q0 51 34 80t87 29t86 -29t33 -80t-33 -80t-86 -29t-87 30q-34 28 -34 79zM723 -25q-299 -1 -465 183t-166 559q0 195 51 341t139 231q176 169 410 169q233 0 357 -69q0 -193 -27 -349h-49l-96 295q-33 20 -156 21q-188 0 -313 -165t-125 -463t129 -474t323 -176
q61 0 123 26t80 48v417q-72 8 -170 49v58h444v-58q-42 -35 -110 -49v-469q-76 -49 -184 -87t-195 -38z" />
    <glyph glyph-name="gdotaccent" unicode="&#x121;" horiz-adv-x="954" 
d="M328 1374q0 53 32 85q33 32 86 32t85 -32t32 -85t-32 -85t-85 -32t-86 32q-32 32 -32 85zM258 719q0 -244 191 -244q98 0 144 67t46 177q0 244 -190 244q-103 1 -147 -61t-44 -183zM713 -166q0 113 -133 170q-43 18 -80 29l-86 24q-49 14 -80 25q-109 -80 -109 -211
q0 -219 260 -219q228 0 228 182zM86 719q0 145 96 237t278 93q184 0 269 -86q100 78 219 114q29 -45 29 -112l-23 -50h-190q47 -80 47 -214t-94 -223t-268 -89q-70 0 -103 8q-2 -8 -18 -36t-15 -61q0 -67 153 -103t269 -92q63 -30 105 -88t43 -140q0 -143 -119 -227
q-120 -84 -312 -84t-295 74t-103 185t56 171t177 104q-96 47 -97 142q0 45 34 91t77 75q-102 31 -159 116q-56 86 -56 195z" />
    <glyph glyph-name="Gcommaaccent" unicode="&#x122;" horiz-adv-x="1243" 
d="M670 -342v12q-41 35 -121 66q-4 20 -4 33q0 51 35 92t71 43q68 -8 115 -56t47 -138q0 -89 -56 -162q-57 -72 -153 -103l-26 68q36 18 64 56t28 89zM723 -25q-299 -1 -465 183t-166 559q0 195 51 341t139 231q176 169 410 169q233 0 357 -69q0 -193 -27 -349h-49l-96 295
q-33 20 -156 21q-188 0 -313 -165t-125 -463t129 -474t323 -176q61 0 123 26t80 48v417q-72 8 -170 49v58h444v-58q-42 -35 -110 -49v-469q-76 -49 -184 -87t-195 -38z" />
    <glyph glyph-name="gcommaaccent" unicode="&#x123;" horiz-adv-x="954" 
d="M575 1346q0 -51 -33 -93q-34 -41 -71 -43q-63 8 -104 56t-41 137q0 91 56 165t144 97l27 -68q-100 -47 -100 -153q49 -39 118 -66q4 -20 4 -32zM258 719q0 -244 191 -244q98 0 144 67t46 177q0 244 -190 244q-103 1 -147 -61t-44 -183zM713 -166q0 113 -133 170
q-43 18 -80 29l-86 24q-49 14 -80 25q-109 -80 -109 -211q0 -219 260 -219q228 0 228 182zM86 719q0 145 96 237t278 93q184 0 269 -86q100 78 219 114q29 -45 29 -112l-23 -50h-190q47 -80 47 -214t-94 -223t-268 -89q-70 0 -103 8q-2 -8 -18 -36t-15 -61q0 -67 153 -103
t269 -92q63 -30 105 -88t43 -140q0 -143 -119 -227q-120 -84 -312 -84t-295 74t-103 185t56 171t177 104q-96 47 -97 142q0 45 34 91t77 75q-102 31 -159 116q-56 86 -56 195z" />
    <glyph glyph-name="Hcircumflex" unicode="&#x124;" horiz-adv-x="1320" 
d="M653 1659l-219 -117l-28 37l229 229q9 6 25 6t28 -6l225 -223l-28 -41zM516 0h-465v57q68 33 148 49v1221q-90 16 -148 49v58h465v-58q-59 -37 -135 -49v-541h559v541q-68 14 -135 49v58h465v-58q-49 -29 -148 -49v-1221q88 -16 148 -49v-57h-465v57q59 33 135 49v578
h-559v-578q69 -16 135 -49v-57z" />
    <glyph glyph-name="hcircumflex" unicode="&#x125;" horiz-adv-x="1067" 
d="M268 1659l-219 -117l-29 37l230 229q25 15 53 0l225 -223l-28 -41zM1036 0h-395v49q47 31 104 49v486q0 168 -39 255q-40 87 -132 87t-152 -67q-61 -67 -88 -161v-600q68 -18 104 -49v-49h-395v49q53 33 119 49v1303l-137 16v49q80 37 264 74h45v-723h2q41 102 114 167
t166 65q154 -1 228 -95t74 -336v-520q81 -20 118 -49v-49z" />
    <glyph glyph-name="Hbar" unicode="&#x126;" horiz-adv-x="1320" 
d="M381 786h559v252h-559v-252zM55 1038v103h144v186q-90 16 -148 49v58h465v-58q-59 -37 -135 -49v-186h559v186q-68 14 -135 49v58h465v-58q-49 -29 -148 -49v-186h144v-103h-144v-932q88 -16 148 -49v-57h-465v57q59 33 135 49v578h-559v-578q70 -16 135 -49v-57h-465v57
q68 33 148 49v932h-144z" />
    <glyph glyph-name="hbar" unicode="&#x127;" horiz-adv-x="1067" 
d="M6 1171v103h156v127l-137 16v49q80 37 264 74h45v-266h284v-103h-284v-354h2q41 102 114 167t166 65q154 -1 228 -95t74 -336v-520q82 -20 118 -49v-49h-395v49q47 31 104 49v486q0 168 -39 255q-40 87 -132 87t-152 -67q-61 -67 -88 -161v-600q68 -18 104 -49v-49h-395
v49q53 33 119 49v1073h-156z" />
    <glyph glyph-name="Itilde" unicode="&#x128;" horiz-adv-x="641" 
d="M489 1698q44 0 95 41l24 -56q-102 -113 -200 -112q-47 0 -123 35q-76 34 -121 34t-98 -51l-35 56q117 119 221 118q45 -1 119 -33t118 -32zM557 0h-473v57q72 37 145 49v1221q-76 16 -145 49v58h473v-58q-57 -31 -145 -49v-1221q77 -16 145 -49v-57z" />
    <glyph glyph-name="itilde" unicode="&#x129;" horiz-adv-x="548" 
d="M123 1333q-43 0 -94 -51l-35 55q113 119 215 119q45 0 114 -33t111 -33t90 42l27 -56q-102 -113 -197 -112q-44 0 -116 34t-115 35zM481 0h-409v49q49 31 118 49v811l-118 17v49q92 43 243 74h47v-951q78 -20 119 -49v-49z" />
    <glyph glyph-name="Imacron" unicode="&#x12a;" horiz-adv-x="641" 
d="M594 1616h-547v102h547v-102zM557 0h-473v57q72 37 145 49v1221q-76 16 -145 49v58h473v-58q-57 -31 -145 -49v-1221q77 -16 145 -49v-57z" />
    <glyph glyph-name="imacron" unicode="&#x12b;" horiz-adv-x="548" 
d="M504 1309h-463v102h463v-102zM481 0h-409v49q49 31 118 49v811l-118 17v49q92 43 243 74h47v-951q78 -20 119 -49v-49z" />
    <glyph glyph-name="Ibreve" unicode="&#x12c;" horiz-adv-x="641" 
d="M539 1806q29 0 55 -26q-35 -94 -109 -160q-73 -66 -167 -66t-167 60t-108 170q18 31 57 31q12 0 21 -3q25 -50 86 -84t119 -34q146 -1 209 112h4zM557 0h-473v57q72 37 145 49v1221q-76 16 -145 49v58h473v-58q-57 -31 -145 -49v-1221q77 -16 145 -49v-57z" />
    <glyph glyph-name="ibreve" unicode="&#x12d;" horiz-adv-x="548" 
d="M279 1366q126 0 196 127l45 -20q-35 -103 -97 -175t-147 -71q-178 0 -251 250l51 24q29 -53 89 -94t114 -41zM481 0h-409v49q49 31 118 49v811l-118 17v49q92 43 243 74h47v-951q78 -20 119 -49v-49z" />
    <glyph glyph-name="Iogonek" unicode="&#x12e;" horiz-adv-x="641" 
d="M557 0h-72q-182 -117 -182 -276q0 -58 33 -96t87 -38t97 13v-58q-60 -57 -156 -57t-155 56t-59 150t60 166q60 73 175 140h-301v57q72 37 145 49v1221q-76 16 -145 49v58h473v-58q-57 -31 -145 -49v-1221q77 -16 145 -49v-57z" />
    <glyph glyph-name="iogonek" unicode="&#x12f;" horiz-adv-x="557" 
d="M170 1368q0 49 30 80t79 31t79 -30t31 -81q0 -51 -31 -81q-32 -30 -80 -30t-78 31t-30 80zM485 0h-69q-137 -98 -137 -242q-1 -47 25 -86t70 -39t103 19v-64q-63 -41 -153 -41q-90 -1 -146 49t-57 130q0 166 205 274h-250v49q49 31 119 49v811l-119 17v49q92 43 243 74
h48v-951q77 -20 118 -49v-49z" />
    <glyph glyph-name="Idotaccent" unicode="&#x130;" horiz-adv-x="641" 
d="M199 1673q0 51 33 80q34 29 87 29t87 -29t32 -80q0 -51 -32 -80t-86 -29t-88 29q-33 29 -33 80zM557 0h-473v57q72 37 145 49v1221q-76 16 -145 49v58h473v-58q-57 -31 -145 -49v-1221q77 -16 145 -49v-57z" />
    <glyph glyph-name="dotlessi" unicode="&#x131;" horiz-adv-x="546" 
d="M481 0h-409v49q49 31 118 49v811l-118 17v49q92 43 243 74h47v-951q78 -20 119 -49v-49z" />
    <glyph glyph-name="Jcircumflex" unicode="&#x134;" horiz-adv-x="618" 
d="M299 1659l-219 -117l-29 37l230 229q25 15 53 0l225 -223l-29 -41zM68 1434h467v-58q-63 -33 -138 -49v-1159q0 -418 -286 -496l-21 29q61 59 93 155t32 289v1182q-98 24 -147 49v58z" />
    <glyph glyph-name="jcircumflex" unicode="&#x135;" horiz-adv-x="524" 
d="M266 1630q16 0 25 -6l205 -379l-52 -33l-186 222l-162 -222l-53 31l199 381q8 6 24 6zM188 49v860l-118 17v49q86 45 243 74h47v-961q0 -136 -32 -240t-81 -160q-87 -97 -163 -122l-23 37q49 29 89 140q38 111 38 306z" />
    <glyph glyph-name="Kcommaaccent" unicode="&#x136;" horiz-adv-x="1175" 
d="M442 -231q0 51 35 92t72 43q68 -8 115 -56t47 -138q-1 -90 -57 -162t-152 -103l-27 68q37 18 65 56t27 89v12q-41 35 -121 66q-4 20 -4 33zM692 1434h406v-58q-66 -35 -137 -49l-361 -551q319 -467 490 -678l86 -49v-49h-234l-63 49q-219 301 -410 639h-88v-582
q82 -16 135 -49v-57h-465v57q74 33 148 49v1221q-86 12 -148 49v58h465v-58q-57 -29 -135 -49v-573l108 28l332 545q-66 14 -129 49v58z" />
    <glyph glyph-name="kcommaaccent" unicode="&#x137;" horiz-adv-x="942" 
d="M342 -231q0 51 34 92t70 43q62 -8 104 -56t42 -137q0 -90 -56 -165q-57 -74 -145 -97l-26 68q100 47 100 153q-49 39 -119 66q-4 20 -4 33zM545 1024h354v-49q-70 -35 -137 -49q-174 -252 -256 -344q180 -281 336 -484l100 -49v-49h-231l-49 49q-90 133 -271 440l-57 21
v-412q55 -10 117 -49v-49h-408v49q57 33 119 49v1303l-137 16v49q49 25 264 74h45v-981h45q129 156 254 367q-45 14 -88 49v49z" />
    <glyph glyph-name="kgreenlandic" unicode="&#x138;" horiz-adv-x="983" 
d="M588 1024h354v-49q-35 -29 -121 -60q-115 -160 -272 -346q55 -69 175 -235t175 -236l84 -49v-49h-217l-57 47q-47 66 -95 139l-184 301h-72v-389q82 -27 115 -49v-49h-405v49q49 35 118 49v828q-66 16 -118 49v49h378v-49q-41 -31 -88 -49v-389l82 20q25 35 113 150
t141 208q-65 31 -106 60v49z" />
    <glyph glyph-name="Lacute" unicode="&#x139;" horiz-adv-x="995" 
d="M535 1829q39 1 96 -19t76 -47v-41l-412 -186l-33 39l264 254h9zM51 1434h502v-58q-82 -37 -172 -49v-1225h407l109 328h49q20 -154 20 -280t-1 -150h-914v57q61 33 148 49v1221q-89 16 -148 49v58z" />
    <glyph glyph-name="lacute" unicode="&#x13a;" horiz-adv-x="548" 
d="M422 1829q39 1 96 -19t76 -47v-41l-412 -186l-32 39l264 254h8zM481 0h-409v49q57 33 118 49v1303l-137 16v49q78 41 262 74h47v-1442q60 -14 119 -49v-49z" />
    <glyph glyph-name="Lcommaaccent" unicode="&#x13b;" horiz-adv-x="995" 
d="M492 -342v12q-41 35 -121 66q-4 20 -4 33q0 51 34 92q35 41 72 43q68 -8 115 -56t47 -138q0 -89 -56 -162q-57 -72 -153 -103l-27 68q37 18 65 56t28 89zM51 1434h502v-58q-82 -37 -172 -49v-1225h407l109 328h49q20 -154 20 -280t-1 -150h-914v57q61 33 148 49v1221
q-89 16 -148 49v58z" />
    <glyph glyph-name="lcommaaccent" unicode="&#x13c;" horiz-adv-x="548" 
d="M156 -231q0 51 33 92q34 41 71 43q62 -8 104 -56t42 -137q0 -91 -56 -165t-145 -97l-27 68q100 47 101 153q-49 39 -119 66q-4 20 -4 33zM481 0h-409v49q57 33 118 49v1303l-137 16v49q78 41 262 74h47v-1442q60 -14 119 -49v-49z" />
    <glyph glyph-name="Lcaron" unicode="&#x13d;" horiz-adv-x="995" 
d="M731 1458q37 0 90 -19t74 -46q-14 -104 -88 -214t-148 -163l-36 20q78 186 77 391l23 31h8zM51 1434h502v-58q-82 -37 -172 -49v-1225h407l109 328h49q20 -154 20 -280t-1 -150h-914v57q61 33 148 49v1221q-89 16 -148 49v58z" />
    <glyph glyph-name="lcaron" unicode="&#x13e;" horiz-adv-x="548" 
d="M553 1536q33 0 77 -13t62 -32q-14 -105 -78 -215t-135 -182l-37 20q78 186 78 391l23 31h10zM481 0h-409v49q57 33 118 49v1303l-137 16v49q78 41 262 74h47v-1442q60 -14 119 -49v-49z" />
    <glyph glyph-name="Ldot" unicode="&#x13f;" horiz-adv-x="995" 
d="M641 791q0 59 35 95t91 36t91 -36t35 -95t-35 -95t-91 -37q-56 1 -91 37t-35 95zM51 1434h502v-58q-82 -37 -172 -49v-1225h407l109 328h49q20 -154 20 -280t-1 -150h-914v57q61 33 148 49v1221q-89 16 -148 49v58z" />
    <glyph glyph-name="ldot" unicode="&#x140;" horiz-adv-x="563" 
d="M432 729q0 59 35 95t91 36t91 -36t35 -95t-35 -95t-91 -36t-91 36t-35 95zM481 0h-409v49q57 33 118 49v1303l-137 16v49q78 41 262 74h47v-1442q60 -14 119 -49v-49z" />
    <glyph glyph-name="Lslash" unicode="&#x141;" horiz-adv-x="995" 
d="M49 1434h504v-58q-86 -37 -172 -49v-530l237 174v-131l-237 -174v-564h407l107 328h49q20 -143 21 -430h-916v57q61 33 150 49v445l-168 -119v131l168 119v645q-84 14 -150 49v58z" />
    <glyph glyph-name="lslash" unicode="&#x142;" horiz-adv-x="591" 
d="M383 1540v-709l166 119v-131l-166 -119v-602q61 -16 119 -49v-49h-410v49q66 35 119 49v496l-168 -121v131l168 121v676l-135 16v49q74 39 260 74h47z" />
    <glyph glyph-name="Nacute" unicode="&#x143;" horiz-adv-x="1325" 
d="M854 1829q39 1 96 -19t76 -47v-41l-412 -186l-32 39l264 254h8zM879 1434h395v-58q-72 -53 -150 -80v-1321h-106l-653 1139l-72 160h-4l16 -160v-985q84 -29 139 -72v-57h-393v57q57 41 150 72v1180q-80 33 -138 69v56h312l563 -988l84 -176h6q-6 158 -8 176v850
q-86 41 -141 80v58z" />
    <glyph glyph-name="nacute" unicode="&#x144;" horiz-adv-x="1081" 
d="M692 1573q35 0 89 -14t71 -31v-39l-336 -307l-43 35l209 356h10zM1051 0h-400v49q47 29 107 49v486q0 168 -40 255t-131 87t-153 -67t-88 -161v-600q53 -12 107 -49v-49h-398v49q47 29 119 49v811l-119 17v49q86 41 244 74h47v-232q41 102 114 167t169 65q153 -1 227 -95
t74 -336v-520q74 -14 121 -49v-49z" />
    <glyph glyph-name="Ncommaaccent" unicode="&#x145;" horiz-adv-x="1325" 
d="M524 -231q0 51 35 92t72 43q69 -8 115 -56t46 -138t-56 -162t-152 -103l-27 68q37 18 65 56t27 89v12q-41 35 -121 66q-4 20 -4 33zM879 1434h395v-58q-72 -53 -150 -80v-1321h-106l-653 1139l-72 160h-4l16 -160v-985q84 -29 139 -72v-57h-393v57q57 41 150 72v1180
q-80 33 -138 69v56h312l563 -988l84 -176h6q-6 158 -8 176v850q-86 41 -141 80v58z" />
    <glyph glyph-name="ncommaaccent" unicode="&#x146;" horiz-adv-x="1081" 
d="M428 -231q0 51 34 92t70 43q62 -8 104 -56t42 -137q0 -90 -56 -165q-57 -74 -145 -97l-26 68q100 47 100 153q-49 39 -119 66q-4 20 -4 33zM1051 0h-400v49q47 29 107 49v486q0 168 -40 255t-131 87t-153 -67t-88 -161v-600q53 -12 107 -49v-49h-398v49q47 29 119 49v811
l-119 17v49q86 41 244 74h47v-232q41 102 114 167t169 65q153 -1 227 -95t74 -336v-520q74 -14 121 -49v-49z" />
    <glyph glyph-name="Ncaron" unicode="&#x147;" horiz-adv-x="1325" 
d="M662 1548q-18 0 -27 6l-225 224q16 39 47 39l211 -113l202 113q31 0 48 -33l-230 -230q-8 -6 -26 -6zM879 1434h395v-58q-72 -53 -150 -80v-1321h-106l-653 1139l-72 160h-4l16 -160v-985q84 -29 139 -72v-57h-393v57q57 41 150 72v1180q-80 33 -138 69v56h312l563 -988
l84 -176h6q-6 158 -8 176v850q-86 41 -141 80v58z" />
    <glyph glyph-name="ncaron" unicode="&#x148;" horiz-adv-x="1081" 
d="M553 1411l180 221q41 0 53 -30l-223 -381q-28 -17 -49 0l-219 378q14 33 63 33zM1051 0h-400v49q47 29 107 49v486q0 168 -40 255t-131 87t-153 -67t-88 -161v-600q53 -12 107 -49v-49h-398v49q47 29 119 49v811l-119 17v49q86 41 244 74h47v-232q41 102 114 167t169 65
q153 -1 227 -95t74 -336v-520q74 -14 121 -49v-49z" />
    <glyph glyph-name="napostrophe" unicode="&#x149;" horiz-adv-x="1175" 
d="M37 1178v20q-43 35 -119 66q-4 20 -4 32q0 50 34 92t70 44q68 -8 114 -56t46 -140t-74 -194t-190 -137l-29 68q66 25 109 80t43 125zM1145 0h-400v49q47 29 107 49v486q0 168 -40 255t-131 87t-153 -67t-88 -161v-600q53 -12 107 -49v-49h-397v49q47 29 118 49v811
l-118 17v49q86 41 243 74h47v-232q41 102 114 167t169 65q153 -1 227 -95t74 -336v-520q74 -14 121 -49v-49z" />
    <glyph glyph-name="Eng" unicode="&#x14a;" horiz-adv-x="1320" 
d="M442 0h-391v57q57 41 150 72v1180q-80 33 -138 69v56h312l561 -1016l84 -176h8l-10 176v878q-80 39 -139 80v58h391v-58q-68 -53 -150 -80v-1321q0 -257 -87 -335q-46 -42 -103 -58t-148 -16l-10 51q104 27 154 107t49 278l-613 1112l-69 160h-6l16 -160v-985
q88 -31 139 -72v-57z" />
    <glyph glyph-name="eng" unicode="&#x14b;" horiz-adv-x="1079" 
d="M758 2v582q0 168 -40 255t-131 87t-153 -67t-88 -161v-600q53 -12 107 -49v-49h-398v49q47 29 119 49v811l-119 17v49q86 41 244 74h47v-232q41 102 114 167t169 65q153 -1 227 -95t74 -336v-618q0 -312 -148 -390q-68 -36 -182 -44l-8 53q100 35 133 105t33 278z" />
    <glyph glyph-name="Omacron" unicode="&#x14c;" horiz-adv-x="1335" 
d="M942 1616h-547v102h547v-102zM295 720q0 -282 100 -462q99 -180 281 -180t273 180t91 460t-98 459t-284 179t-275 -177q-88 -177 -88 -459zM92 717q0 329 154 535t422 206t422 -207t154 -535t-154 -534q-154 -207 -422 -207t-422 206t-154 536z" />
    <glyph glyph-name="omacron" unicode="&#x14d;" horiz-adv-x="1001" 
d="M733 1309h-463v102h463v-102zM256 522q0 -213 66 -337t208 -124q98 0 157 115q58 115 58 327t-62 336t-196 124q-109 0 -170 -114t-61 -327zM72 515q0 253 115 393q116 140 324 140t313 -140q106 -142 106 -397t-115 -395t-321 -140t-314 142q-108 144 -108 397z" />
    <glyph glyph-name="Obreve" unicode="&#x14e;" horiz-adv-x="1335" 
d="M889 1806q29 0 55 -26q-34 -94 -108 -160t-168 -66t-167 60t-108 170q18 31 58 31q12 0 20 -3q25 -50 86 -84t119 -34q146 -1 209 112h4zM295 720q0 -282 100 -462q99 -180 281 -180t273 180t91 460t-98 459t-284 179t-275 -177q-88 -177 -88 -459zM92 717q0 329 154 535
t422 206t422 -207t154 -535t-154 -534q-154 -207 -422 -207t-422 206t-154 536z" />
    <glyph glyph-name="obreve" unicode="&#x14f;" horiz-adv-x="1001" 
d="M508 1366q127 0 197 127l45 -20q-36 -103 -98 -175t-146 -71q-178 0 -252 250l51 24q29 -53 89 -94t114 -41zM256 522q0 -213 66 -337t208 -124q98 0 157 115q58 115 58 327t-62 336t-196 124q-109 0 -170 -114t-61 -327zM72 515q0 253 115 393q116 140 324 140t313 -140
q106 -142 106 -397t-115 -395t-321 -140t-314 142q-108 144 -108 397z" />
    <glyph glyph-name="Ohungarumlaut" unicode="&#x150;" horiz-adv-x="1335" 
d="M907 1819q33 -1 83 -17t65 -37l-2 -20l-320 -195l-41 37l207 232h8zM592 1819q33 -1 80 -15t57 -32v-29l-235 -189l-37 37l127 228h8zM295 720q0 -282 100 -462q99 -180 281 -180t273 180t91 460t-98 459t-284 179t-275 -177q-88 -177 -88 -459zM92 717q0 329 154 535
t422 206t422 -207t154 -535t-154 -534q-154 -207 -422 -207t-422 206t-154 536z" />
    <glyph glyph-name="ohungarumlaut" unicode="&#x151;" horiz-adv-x="1001" 
d="M768 1573q35 -1 83 -17t64 -40v-25l-358 -262l-39 35l242 309h8zM451 1573q33 0 86 -13t61 -30v-29l-248 -272l-45 31l137 313h9zM256 522q0 -213 66 -337t208 -124q98 0 157 115q58 115 58 327t-62 336t-196 124q-109 0 -170 -114t-61 -327zM72 515q0 253 115 393
q116 140 324 140t313 -140q106 -142 106 -397t-115 -395t-321 -140t-314 142q-108 144 -108 397z" />
    <glyph glyph-name="OE" unicode="&#x152;" horiz-adv-x="1722" 
d="M684 78q109 0 186 39v1190q-102 49 -217 49q-182 0 -270 -177t-88 -459q1 -282 101 -462t288 -180zM1620 0h-746q-104 -25 -206 -25q-268 0 -422 206t-154 536q0 329 154 535t422 206q102 0 202 -24h715q-4 -199 -20 -328h-49l-76 225h-387v-549h286l72 152h45
q6 -102 6 -204t-6 -206h-45l-72 156h-286v-578h409l88 246h49q21 -164 21 -348z" />
    <glyph glyph-name="oe" unicode="&#x153;" horiz-adv-x="1585" 
d="M1323 666q0 297 -181 297q-94 0 -146 -84t-62 -279h387q2 23 2 66zM1501 664q0 -66 -12 -150h-561q2 -184 79 -300t226 -116q63 0 128 22t95 52l29 -31q-31 -73 -118 -119q-187 -100 -390 5q-100 51 -139 131q-113 -182 -331 -182t-327 142q-108 144 -108 397t115 393
q116 140 315 141q236 0 334 -179q43 86 133 132t188 47q147 1 245 -91t99 -294zM256 522q0 -213 66 -337t210 -124q98 0 157 115t59 326t-64 336t-197 125q-109 0 -170 -114t-61 -327z" />
    <glyph glyph-name="Racute" unicode="&#x154;" horiz-adv-x="1159" 
d="M698 1829q38 1 96 -19t76 -47v-41l-411 -186l-33 39l264 254h8zM500 1348q-82 0 -119 -13v-616h127q120 0 194 92q74 91 74 239t-74 223t-202 75zM963 1049q0 -145 -68 -245t-188 -145q143 -260 337 -550l97 -60v-49h-226l-69 57q-182 268 -297 580h-168v-531
q94 -23 151 -49v-57h-481v57q61 31 148 49v1221q-92 20 -148 49v58h162l330 16q190 0 305 -98t115 -303z" />
    <glyph glyph-name="racute" unicode="&#x155;" horiz-adv-x="700" 
d="M506 1573q35 0 89 -14t71 -31v-39l-336 -307l-43 35l209 356h10zM688 881h-239q-66 -45 -103 -166v-617q76 -10 143 -49v-49h-434v49q47 29 119 49v811l-119 17v49q96 45 244 74h47v-211h6q37 84 111 148t158 65l24 -2q25 -53 43 -119v-49z" />
    <glyph glyph-name="Rcommaaccent" unicode="&#x156;" horiz-adv-x="1159" 
d="M438 -231q0 51 35 92t72 43q69 -8 115 -56t46 -138t-56 -162t-152 -103l-27 68q37 18 65 56t27 89v12q-41 35 -121 66q-4 20 -4 33zM500 1348q-82 0 -119 -13v-616h127q120 0 194 92q74 91 74 239t-74 223t-202 75zM963 1049q0 -145 -68 -245t-188 -145
q143 -260 337 -550l97 -60v-49h-226l-69 57q-182 268 -297 580h-168v-531q94 -23 151 -49v-57h-481v57q61 31 148 49v1221q-92 20 -148 49v58h162l330 16q190 0 305 -98t115 -303z" />
    <glyph glyph-name="rcommaaccent" unicode="&#x157;" horiz-adv-x="700" 
d="M178 -231q0 51 34 92t71 43q63 -8 104 -56t41 -137q0 -90 -56 -165q-57 -74 -145 -97l-26 68q100 47 100 153q-49 39 -119 66q-4 20 -4 33zM688 881h-239q-66 -45 -103 -166v-617q76 -10 143 -49v-49h-434v49q47 29 119 49v811l-119 17v49q96 45 244 74h47v-211h6
q37 84 111 148t158 65l24 -2q25 -53 43 -119v-49z" />
    <glyph glyph-name="Rcaron" unicode="&#x158;" horiz-adv-x="1159" 
d="M516 1548q-16 0 -27 6l-225 224q16 39 47 39l211 -113l203 113q31 0 47 -33l-229 -230q-11 -6 -27 -6zM500 1348q-82 0 -119 -13v-616h127q120 0 194 92q74 91 74 239t-74 223t-202 75zM963 1049q0 -145 -68 -245t-188 -145q143 -260 337 -550l97 -60v-49h-226l-69 57
q-182 268 -297 580h-168v-531q94 -23 151 -49v-57h-481v57q61 31 148 49v1221q-92 20 -148 49v58h162l330 16q190 0 305 -98t115 -303z" />
    <glyph glyph-name="rcaron" unicode="&#x159;" horiz-adv-x="700" 
d="M408 1411l180 221q41 0 53 -30l-223 -381q-8 -7 -24 -7t-25 7l-219 378q14 33 63 33zM688 881h-239q-66 -45 -103 -166v-617q76 -10 143 -49v-49h-434v49q47 29 119 49v811l-119 17v49q96 45 244 74h47v-211h6q37 84 111 148t158 65l24 -2q25 -53 43 -119v-49z" />
    <glyph glyph-name="Sacute" unicode="&#x15a;" horiz-adv-x="970" 
d="M670 1829q39 1 96 -19t76 -47v-41l-412 -186l-33 39l265 254h8zM435 78q112 0 189 72q76 72 76 178t-61 174t-147 114t-174 102q-88 54 -148 149q-61 95 -61 244t104 248t274 99q219 0 349 -67q-8 -160 -45 -349h-50l-73 281q-59 33 -167 33t-161 -62t-53 -160
q0 -172 209 -287q86 -49 173 -103t148 -146t62 -217q0 -186 -118 -296t-323 -110q-106 0 -199 30t-137 67q8 186 45 368h50l73 -301q53 -61 165 -61z" />
    <glyph glyph-name="sacute" unicode="&#x15b;" horiz-adv-x="784" 
d="M512 1573q35 0 89 -14t71 -31v-39l-336 -307l-43 35l209 356h10zM358 61q74 0 124 51q50 52 50 118t-45 116t-108 89q-63 38 -127 82q-154 109 -154 287q0 100 83 172t200 73q170 0 285 -45q-12 -127 -50 -267h-45l-69 209q-40 16 -102 16t-98 -46t-36 -106
q0 -104 154 -198l127 -82q63 -42 108 -106t45 -148q0 -135 -97 -218t-243 -83t-280 58q8 137 51 274h47l80 -223q26 -23 100 -23z" />
    <glyph glyph-name="Scircumflex" unicode="&#x15c;" horiz-adv-x="970" 
d="M510 1659l-219 -117l-29 37l230 229q22 17 53 0l225 -223l-29 -41zM435 78q112 0 189 72q76 72 76 178t-61 174t-147 114t-174 102q-88 54 -148 149q-61 95 -61 244t104 248t274 99q219 0 349 -67q-8 -160 -45 -349h-50l-73 281q-59 33 -167 33t-161 -62t-53 -160
q0 -172 209 -287q86 -49 173 -103t148 -146t62 -217q0 -186 -118 -296t-323 -110q-106 0 -199 30t-137 67q8 186 45 368h50l73 -301q53 -61 165 -61z" />
    <glyph glyph-name="scircumflex" unicode="&#x15d;" horiz-adv-x="784" 
d="M391 1630q14 0 25 -6l205 -379l-52 -33l-186 222l-162 -222l-53 31l199 381q10 6 24 6zM358 61q74 0 124 51q50 52 50 118t-45 116t-108 89q-63 38 -127 82q-154 109 -154 287q0 100 83 172t200 73q170 0 285 -45q-12 -127 -50 -267h-45l-69 209q-40 16 -102 16t-98 -46
t-36 -106q0 -104 154 -198l127 -82q63 -42 108 -106t45 -148q0 -135 -97 -218t-243 -83t-280 58q8 137 51 274h47l80 -223q26 -23 100 -23z" />
    <glyph glyph-name="Scedilla" unicode="&#x15e;" horiz-adv-x="970" 
d="M435 78q112 0 189 72q76 72 76 178t-61 174t-147 114t-174 102q-88 54 -148 149q-61 95 -61 244t104 248t274 99q219 0 349 -67q-8 -160 -45 -349h-50l-73 281q-59 33 -167 33t-161 -62t-53 -160q0 -172 209 -287q86 -49 173 -103t148 -146t62 -217q1 -172 -101 -280
t-282 -121l-45 -134q106 -2 160 -45t55 -116q0 -111 -106 -174t-226 -64v64q166 29 166 139q0 55 -39 82t-121 32l63 211q-96 4 -179 33t-122 64q8 186 45 368h50l73 -301q53 -61 165 -61z" />
    <glyph glyph-name="scedilla" unicode="&#x15f;" horiz-adv-x="817" 
d="M371 61q86 0 140 50t54 123t-48 124t-117 83q-70 32 -138 69q-68 36 -116 108t-48 180t83 180t216 71q186 0 301 -45q-12 -127 -49 -267h-45l-69 209q-39 16 -115 16t-115 -44q-39 -45 -39 -110t48 -114t117 -81q69 -33 137 -69t117 -102q48 -66 48 -159q0 -135 -89 -218
t-241 -90l-38 -114q195 -6 194 -146q0 -107 -88 -167t-197 -60h-14v59q147 23 148 138q0 49 -35 73t-111 29l60 188q-131 10 -242 58q8 137 51 274h47l80 -223q27 -23 113 -23z" />
    <glyph glyph-name="Scaron" unicode="&#x160;" horiz-adv-x="970" 
d="M502 1548q-18 0 -27 6l-225 224q16 39 47 39l211 -113l203 113q31 0 47 -33l-230 -230q-8 -6 -26 -6zM435 78q112 0 189 72q76 72 76 178t-61 174t-147 114t-174 102q-88 54 -148 149q-61 95 -61 244t104 248t274 99q219 0 349 -67q-8 -160 -45 -349h-50l-73 281
q-59 33 -167 33t-161 -62t-53 -160q0 -172 209 -287q86 -49 173 -103t148 -146t62 -217q0 -186 -118 -296t-323 -110q-106 0 -199 30t-137 67q8 186 45 368h50l73 -301q53 -61 165 -61z" />
    <glyph glyph-name="scaron" unicode="&#x161;" horiz-adv-x="784" 
d="M406 1411l180 221q41 0 53 -30l-223 -381q-26 -16 -49 0l-220 378q14 33 64 33zM358 61q74 0 124 51q50 52 50 118t-45 116t-108 89q-63 38 -127 82q-154 109 -154 287q0 100 83 172t200 73q170 0 285 -45q-12 -127 -50 -267h-45l-69 209q-40 16 -102 16t-98 -46
t-36 -106q0 -104 154 -198l127 -82q63 -42 108 -106t45 -148q0 -135 -97 -218t-243 -83t-280 58q8 137 51 274h47l80 -223q26 -23 100 -23z" />
    <glyph glyph-name="Tcedilla" unicode="&#x162;" horiz-adv-x="1124" 
d="M821 0h-221l-53 -154q107 -2 161 -45t54 -116q0 -111 -106 -174t-224 -64v64q164 29 164 139q0 55 -39 82t-121 32l70 236h-203v57q96 37 168 49v1225h-268l-97 -287h-49q-18 137 -22 390h1055q-4 -252 -23 -390h-47l-98 287h-269v-1225q113 -22 168 -49v-57z" />
    <glyph glyph-name="tcedilla" unicode="&#x163;" horiz-adv-x="673" 
d="M27 926v49q68 49 143 69v177q27 27 70 51t75 22h27v-270h266v-98h-266v-602q0 -121 33 -173t102 -53q102 0 162 25l14 -27q-35 -43 -105 -82t-142 -39q-18 0 -29 2l-37 -116q193 -6 192 -146q0 -107 -88 -167t-196 -60h-15v59q147 23 148 138q0 49 -35 73t-110 29l61 207
q-127 49 -127 276v656h-143z" />
    <glyph glyph-name="Tcaron" unicode="&#x164;" horiz-adv-x="1124" 
d="M562 1548q-16 0 -27 6l-226 224q16 39 47 39l211 -113l203 113q31 0 47 -33l-229 -230q-10 -6 -26 -6zM821 0h-518v57q96 37 168 49v1225h-268l-97 -287h-49q-18 137 -22 390h1055q-4 -252 -23 -390h-47l-98 287h-269v-1225q113 -22 168 -49v-57z" />
    <glyph glyph-name="tcaron" unicode="&#x165;" horiz-adv-x="673" 
d="M537 1536q33 0 77 -13t62 -32q-14 -105 -78 -215t-135 -182l-37 20q78 186 78 391l22 31h11zM27 926v49q68 49 143 69v177q24 24 73 47q50 24 52 26h47v-270h266v-98h-266v-602q0 -121 33 -173t102 -53q102 0 162 25l14 -27q-35 -43 -109 -82t-151 -39q-223 0 -223 295
v656h-143z" />
    <glyph glyph-name="Tbar" unicode="&#x166;" horiz-adv-x="1146" 
d="M121 735v103h366v493h-268l-96 -287h-49q-18 137 -23 390h1055q-4 -252 -23 -390h-47l-98 287h-268v-493h366v-103h-366v-629q113 -23 168 -49v-57h-519v57q96 37 168 49v629h-366z" />
    <glyph glyph-name="tbar" unicode="&#x167;" horiz-adv-x="677" 
d="M41 926v49q68 49 143 69v156q16 16 125 74h47v-250h250v-98h-250v-308h250v-102h-250v-192q0 -126 25 -176t92 -50q104 0 164 25l12 -27q-35 -43 -109 -82t-151 -39q-109 0 -157 70t-48 225v246h-139v102h139v308h-143z" />
    <glyph glyph-name="Utilde" unicode="&#x168;" horiz-adv-x="1216" 
d="M820 1698q44 0 95 41l25 -56q-102 -113 -201 -112q-47 0 -123 35q-76 34 -120 34t-99 -51l-35 56q117 119 222 118q44 -1 118 -33t118 -32zM16 1434h467v-58q-51 -27 -137 -49v-844q0 -209 78 -297t233 -88q297 0 297 385v824q-76 29 -145 69v58h391v-58
q-74 -49 -141 -69v-828q0 -252 -113 -375q-114 -122 -328 -122t-334 116t-120 348v881q-78 12 -148 49v58z" />
    <glyph glyph-name="utilde" unicode="&#x169;" horiz-adv-x="1044" 
d="M370 1333q-42 0 -94 -51l-34 55q113 119 215 119q45 0 113 -33t111 -33q42 0 91 42l27 -56q-102 -113 -197 -112q-45 0 -117 34q-73 34 -115 35zM489 98q152 0 220 244v567l-117 17v49q100 45 242 74h47v-934l118 -17v-41q-123 -61 -223 -77h-47l-12 243h-8
q-15 -92 -93 -170t-182 -78q-152 1 -224 95t-71 336l11 503l-119 17v49q96 41 245 74h48l-13 -609q0 -172 38 -257t140 -85z" />
    <glyph glyph-name="Umacron" unicode="&#x16a;" horiz-adv-x="1216" 
d="M920 1616h-547v102h547v-102zM16 1434h467v-58q-51 -27 -137 -49v-844q0 -209 78 -297t233 -88q297 0 297 385v824q-76 29 -145 69v58h391v-58q-74 -49 -141 -69v-828q0 -252 -113 -375q-114 -122 -328 -122t-334 116t-120 348v881q-78 12 -148 49v58z" />
    <glyph glyph-name="umacron" unicode="&#x16b;" horiz-adv-x="1044" 
d="M752 1309h-463v102h463v-102zM489 98q152 0 220 244v567l-117 17v49q100 45 242 74h47v-934l118 -17v-41q-123 -61 -223 -77h-47l-12 243h-8q-15 -92 -93 -170t-182 -78q-152 1 -224 95t-71 336l11 503l-119 17v49q96 41 245 74h48l-13 -609q0 -172 38 -257t140 -85z" />
    <glyph glyph-name="Ubreve" unicode="&#x16c;" horiz-adv-x="1216" 
d="M854 1806q29 0 55 -26q-35 -94 -109 -160t-167 -66q-94 0 -167 60t-108 170q18 31 58 31q12 0 20 -3q25 -50 86 -84t119 -34q146 -1 209 112h4zM16 1434h467v-58q-51 -27 -137 -49v-844q0 -209 78 -297t233 -88q297 0 297 385v824q-76 29 -145 69v58h391v-58
q-74 -49 -141 -69v-828q0 -252 -113 -375q-114 -122 -328 -122t-334 116t-120 348v881q-78 12 -148 49v58z" />
    <glyph glyph-name="ubreve" unicode="&#x16d;" horiz-adv-x="1044" 
d="M522 1366q127 0 197 127l45 -20q-35 -103 -97 -175t-147 -71q-178 0 -252 250l51 24q29 -53 89 -94t114 -41zM489 98q152 0 220 244v567l-117 17v49q100 45 242 74h47v-934l118 -17v-41q-123 -61 -223 -77h-47l-12 243h-8q-15 -92 -93 -170t-182 -78q-152 1 -224 95
t-71 336l11 503l-119 17v49q96 41 245 74h48l-13 -609q0 -172 38 -257t140 -85z" />
    <glyph glyph-name="Uring" unicode="&#x16e;" horiz-adv-x="1216" 
d="M549 1614q0 -40 30 -60t66 -20q104 0 105 78q0 50 -30 72t-69 22q-102 0 -102 -92zM648 1452q-90 0 -146 43q-58 43 -58 121t60 125t146 47q84 0 144 -43t60 -123t-58 -125t-148 -45zM16 1434h467v-58q-51 -27 -137 -49v-844q0 -209 78 -297t233 -88q297 0 297 385v824
q-76 29 -145 69v58h391v-58q-74 -49 -141 -69v-828q0 -252 -113 -375q-114 -122 -328 -122t-334 116t-120 348v881q-78 12 -148 49v58z" />
    <glyph glyph-name="uring" unicode="&#x16f;" horiz-adv-x="1044" 
d="M440 1405q0 -51 24 -79t54 -28q82 0 82 101q0 53 -22 85q-23 32 -58 32q-80 0 -80 -111zM342 1401q0 84 52 140t129 56t126 -51t49 -136t-52 -139t-129 -54t-126 50t-49 134zM489 98q152 0 220 244v567l-117 17v49q100 45 242 74h47v-934l118 -17v-41q-123 -61 -223 -77
h-47l-12 243h-8q-15 -92 -93 -170t-182 -78q-152 1 -224 95t-71 336l11 503l-119 17v49q96 41 245 74h48l-13 -609q0 -172 38 -257t140 -85z" />
    <glyph glyph-name="Uhungarumlaut" unicode="&#x170;" horiz-adv-x="1216" 
d="M887 1819q33 -1 83 -17t64 -37l-2 -20l-319 -195l-41 37l207 232h8zM571 1819q33 -1 80 -15t58 -32v-29l-236 -189l-37 37l127 228h8zM16 1434h467v-58q-51 -27 -137 -49v-844q0 -209 78 -297t233 -88q297 0 297 385v824q-76 29 -145 69v58h391v-58q-74 -49 -141 -69
v-828q0 -252 -113 -375q-114 -122 -328 -122t-334 116t-120 348v881q-78 12 -148 49v58z" />
    <glyph glyph-name="uhungarumlaut" unicode="&#x171;" horiz-adv-x="1044" 
d="M766 1573q33 -1 82 -17t65 -40v-25l-358 -262l-39 35l242 309h8zM449 1573q33 0 86 -13t61 -30v-29l-248 -272l-45 31l137 313h9zM489 98q152 0 220 244v567l-117 17v49q100 45 242 74h47v-934l118 -17v-41q-123 -61 -223 -77h-47l-12 243h-8q-15 -92 -93 -170t-182 -78
q-152 1 -224 95t-71 336l11 503l-119 17v49q96 41 245 74h48l-13 -609q0 -172 38 -257t140 -85z" />
    <glyph glyph-name="Uogonek" unicode="&#x172;" horiz-adv-x="1216" 
d="M16 1434h467v-58q-51 -27 -137 -49v-844q0 -209 78 -297t233 -88q297 0 297 385v824q-76 29 -145 69v58h391v-58q-74 -49 -141 -69v-828q0 -360 -234 -463q-207 -119 -207 -292q0 -58 33 -96t86 -38t99 13v-58q-66 -57 -160 -57t-154 56q-59 56 -59 145q0 164 205 295
q-12 -2 -37 -2q-227 0 -347 116t-120 348v881q-78 12 -148 49v58z" />
    <glyph glyph-name="uogonek" unicode="&#x173;" horiz-adv-x="1044" 
d="M489 98q152 0 220 244v567l-117 17v49q100 45 242 74h47v-934l118 -17v-41q-54 -21 -84 -41q-166 -102 -165 -258q0 -47 26 -86t70 -39q43 0 102 19v-64q-63 -41 -153 -41q-91 1 -147 49t-56 130q0 154 172 254h-35l-12 243h-8q-17 -92 -93 -170t-165 -78q-158 0 -225 76
t-82 220q-5 57 -5 135l11 503l-119 17v49q176 74 262 74h29l-11 -609q0 -172 38 -257t140 -85z" />
    <glyph glyph-name="Wcircumflex" unicode="&#x174;" horiz-adv-x="1699" 
d="M887 1659l-219 -117l-29 37l229 229q23 17 54 0l225 -223l-29 -41zM1290 1434h410v-58q-63 -33 -131 -49l-301 -1327l-119 -25l-291 1129l-283 -1104l-116 -25l-324 1352q-59 12 -135 49v58h479v-58q-84 -35 -147 -49l178 -838l39 -266h4l61 271l244 940h66l260 -942
l53 -267h4l41 271l164 831q-70 12 -156 49v58z" />
    <glyph glyph-name="wcircumflex" unicode="&#x175;" horiz-adv-x="1320" 
d="M676 1630q16 0 24 -6l205 -379l-51 -33l-186 222l-162 -222l-53 31l198 381q9 6 25 6zM-18 1024h383v-47q-63 -39 -105 -51l156 -607l22 -147h4l27 150l195 679l57 23l207 -705l35 -147h2l28 150l135 604q-45 10 -100 49v49h311v-49q-37 -27 -102 -49l-256 -926l-102 -25
l-177 588l-34 170h-4l-41 -170l-162 -563l-101 -25l-282 951q-61 23 -96 49v49z" />
    <glyph glyph-name="Ycircumflex" unicode="&#x176;" horiz-adv-x="1169" 
d="M614 1659l-219 -117l-28 37l229 229q26 16 53 0l225 -223l-28 -41zM770 1434h399v-58q-63 -37 -135 -49l-342 -717v-504q70 -10 137 -49v-57h-467v57q63 37 148 49v502l-365 719q-66 12 -145 49v58h487v-58q-53 -25 -137 -49l291 -608l274 608q-90 24 -145 49v58z" />
    <glyph glyph-name="ycircumflex" unicode="&#x177;" horiz-adv-x="913" 
d="M494 1630q16 0 26 -6l205 -379l-51 -33l-187 222l-161 -222l-54 31l199 381q7 6 23 6zM-20 1024h385v-47q-35 -29 -103 -51l225 -617l35 -127h4l27 129l168 615q-53 14 -98 49v49h311v-49q-37 -27 -103 -49l-286 -926q-76 -244 -147 -329t-177 -111q-35 57 -63 170l24 49
h191q35 57 78 221l-375 926q-39 10 -96 49v49z" />
    <glyph glyph-name="Ydieresis" unicode="&#x178;" horiz-adv-x="1169" 
d="M725 1616q0 45 30 70q31 24 77 24t75 -24t29 -70q0 -45 -30 -70q-30 -24 -76 -24t-76 24t-29 70zM319 1616q0 45 30 70q30 24 77 24t77 -24q29 -24 29 -70q0 -45 -30 -70q-30 -24 -76 -24q-47 0 -77 24t-30 70zM770 1434h399v-58q-63 -37 -135 -49l-342 -717v-504
q70 -10 137 -49v-57h-467v57q63 37 148 49v502l-365 719q-66 12 -145 49v58h487v-58q-53 -25 -137 -49l291 -608l274 608q-90 24 -145 49v58z" />
    <glyph glyph-name="Zacute" unicode="&#x179;" horiz-adv-x="1101" 
d="M735 1829q39 1 96 -19t76 -47v-41l-411 -186l-33 39l264 254h8zM70 0v102l743 1229h-545l-108 -287h-49q-23 174 -23 390h926v-103l-742 -1229h580l109 287h49q23 -174 22 -389h-962z" />
    <glyph glyph-name="zacute" unicode="&#x17a;" horiz-adv-x="884" 
d="M545 1573q35 0 89 -14t71 -31v-39l-336 -307l-43 35l209 356h10zM791 0h-715v49l514 889h-336l-80 -242h-47q-23 143 -23 328h687v-49l-515 -889h349l96 262h47q23 -166 23 -348z" />
    <glyph glyph-name="Zdotaccent" unicode="&#x17b;" horiz-adv-x="1101" 
d="M426 1673q0 51 34 80t87 29t86 -29t33 -80t-33 -80t-86 -29t-87 30q-34 28 -34 79zM70 0v102l743 1229h-545l-108 -287h-49q-23 174 -23 390h926v-103l-742 -1229h580l109 287h49q23 -174 22 -389h-962z" />
    <glyph glyph-name="zdotaccent" unicode="&#x17c;" horiz-adv-x="884" 
d="M324 1374q0 53 32 85q33 32 86 32t85 -32t32 -85t-32 -85t-85 -32t-86 32q-32 32 -32 85zM791 0h-715v49l514 889h-336l-80 -242h-47q-23 143 -23 328h687v-49l-515 -889h349l96 262h47q23 -166 23 -348z" />
    <glyph glyph-name="Zcaron" unicode="&#x17d;" horiz-adv-x="1101" 
d="M554 1548q-16 0 -28 6l-225 224q16 39 47 39l211 -113l203 113q31 0 47 -33l-229 -230q-10 -6 -26 -6zM70 0v102l743 1229h-545l-108 -287h-49q-23 174 -23 390h926v-103l-742 -1229h580l109 287h49q23 -174 22 -389h-962z" />
    <glyph glyph-name="zcaron" unicode="&#x17e;" horiz-adv-x="884" 
d="M455 1411l180 221q41 0 53 -30l-223 -381q-9 -7 -25 -7t-24 7l-219 378q14 33 63 33zM791 0h-715v49l514 889h-336l-80 -242h-47q-23 143 -23 328h687v-49l-515 -889h349l96 262h47q23 -166 23 -348z" />
    <glyph glyph-name="longs" unicode="&#x17f;" horiz-adv-x="622" 
d="M553 1540q117 0 172 -24q-8 -117 -41 -228h-47l-78 174q-109 0 -151 -66t-43 -270v-1028q90 -12 172 -49v-49h-463v49q55 37 119 49v828h-138v49q63 45 138 67v72q0 238 95 332t265 94z" />
    <glyph glyph-name="uni018F" unicode="&#x18f;" horiz-adv-x="1280" 
d="M646 78q163 0 254 144t97 435h-706q-2 -29 -2 -84q0 -213 97 -354t260 -141zM1188 722q0 -362 -146 -555q-146 -192 -402 -192q-255 0 -401 169t-147 495q0 55 6 121h899q-7 280 -121 438t-331 158q-139 0 -191 -29l-94 -295h-49q-27 141 -27 344q154 82 371 82
q311 0 472 -187t161 -549z" />
    <glyph glyph-name="florin" unicode="&#x192;" 
d="M221 926v49q63 41 154 67l12 72q41 238 147 332t269 94q88 0 149 -31q0 -102 -71 -172l-136 125q-39 -12 -61 -24t-48 -45q-48 -58 -87 -267l-19 -102h201q2 -8 2 -34t-20 -64h-201l-113 -838q-18 -136 -65 -240q-48 -104 -106 -159q-104 -98 -185 -123l-14 37
q55 31 119 147t90 299l114 877h-131z" />
    <glyph glyph-name="uni01DD" unicode="&#x1dd;" horiz-adv-x="937" 
d="M463 61q201 0 219 390h-414q-2 -20 -2 -58q0 -152 54 -242t143 -90zM436 963q-74 0 -119 -21l-86 -246h-49q-37 135 -45 254q143 98 337 98t293 -140q99 -142 99 -398t-108 -395t-301 -140q-149 1 -261 105t-112 317q0 61 12 140h590q-2 199 -56 313t-194 113z" />
    <glyph glyph-name="Gcaron" unicode="&#x1e6;" horiz-adv-x="1243" 
d="M684 1548q-16 0 -27 6l-225 224q16 39 47 39l211 -113l203 113q31 0 47 -33l-229 -230q-11 -6 -27 -6zM723 -25q-299 -1 -465 183t-166 559q0 195 51 341t139 231q176 169 410 169q233 0 357 -69q0 -193 -27 -349h-49l-96 295q-33 20 -156 21q-188 0 -313 -165t-125 -463
t129 -474t323 -176q61 0 123 26t80 48v417q-72 8 -170 49v58h444v-58q-42 -35 -110 -49v-469q-76 -49 -184 -87t-195 -38z" />
    <glyph glyph-name="gcaron" unicode="&#x1e7;" horiz-adv-x="954" 
d="M457 1411l180 221q41 0 53 -30l-223 -381q-9 -7 -25 -7t-24 7l-219 378q14 33 63 33zM258 719q0 -244 191 -244q98 0 144 67t46 177q0 244 -190 244q-103 1 -147 -61t-44 -183zM713 -166q0 113 -133 170q-43 18 -80 29l-86 24q-49 14 -80 25q-109 -80 -109 -211
q0 -219 260 -219q228 0 228 182zM86 719q0 145 96 237t278 93q184 0 269 -86q100 78 219 114q29 -45 29 -112l-23 -50h-190q47 -80 47 -214t-94 -223t-268 -89q-70 0 -103 8q-2 -8 -18 -36t-15 -61q0 -67 153 -103t269 -92q63 -30 105 -88t43 -140q0 -143 -119 -227
q-120 -84 -312 -84t-295 74t-103 185t56 171t177 104q-96 47 -97 142q0 45 34 91t77 75q-102 31 -159 116q-56 86 -56 195z" />
    <glyph glyph-name="uni01F4" unicode="&#x1f4;" horiz-adv-x="1243" 
d="M852 1829q39 1 96 -19t76 -47v-41l-412 -186l-32 39l264 254h8zM723 -25q-299 -1 -465 183t-166 559q0 195 51 341t139 231q176 169 410 169q233 0 357 -69q0 -193 -27 -349h-49l-96 295q-33 20 -156 21q-188 0 -313 -165t-125 -463t129 -474t323 -176q61 0 123 26t80 48
v417q-72 8 -170 49v58h444v-58q-42 -35 -110 -49v-469q-76 -49 -184 -87t-195 -38z" />
    <glyph glyph-name="uni01F5" unicode="&#x1f5;" horiz-adv-x="954" 
d="M612 1573q35 0 89 -14t71 -31v-39l-336 -307l-43 35l209 356h10zM258 719q0 -244 191 -244q98 0 144 67t46 177q0 244 -190 244q-103 1 -147 -61t-44 -183zM713 -166q0 113 -133 170q-43 18 -80 29l-86 24q-49 14 -80 25q-109 -80 -109 -211q0 -219 260 -219
q228 0 228 182zM86 719q0 145 96 237t278 93q184 0 269 -86q100 78 219 114q29 -45 29 -112l-23 -50h-190q47 -80 47 -214t-94 -223t-268 -89q-70 0 -103 8q-2 -8 -18 -36t-15 -61q0 -67 153 -103t269 -92q63 -30 105 -88t43 -140q0 -143 -119 -227q-120 -84 -312 -84
t-295 74t-103 185t56 171t177 104q-96 47 -97 142q0 45 34 91t77 75q-102 31 -159 116q-56 86 -56 195z" />
    <glyph glyph-name="Aringacute" unicode="&#x1fa;" horiz-adv-x="1239" 
d="M526 1614q0 -40 30 -60t67 -20q102 0 102 78q0 50 -29 72t-67 22q-103 0 -103 -92zM541 1024l-138 -436h361l-141 440l-33 176h-4zM553 1860l262 223q35 4 97 -18t83 -48v-41l-409 -155zM422 1620q0 74 59 121t145 47t146 -42q59 -42 59 -122t-52 -125t-130 -47
l453 -1346q92 -20 137 -49v-57h-471v57q82 35 147 49l-120 379h-428l-119 -379q78 -12 155 -49v-57h-403v57q66 33 129 49l455 1348q-76 8 -119 50t-43 116z" />
    <glyph glyph-name="aringacute" unicode="&#x1fb;" horiz-adv-x="919" 
d="M604 1829q39 1 96 -19t76 -47v-41l-411 -186l-33 39l264 254h8zM358 1323q0 -51 24 -79t54 -27q82 0 82 100q0 53 -22 85q-23 32 -58 32q-80 0 -80 -111zM260 1319q0 84 52 140q52 57 129 57t126 -52t49 -136q0 -85 -52 -139t-129 -54t-126 50t-49 134zM584 496
q-197 0 -266 -50q-68 -50 -68 -149t38 -149t112 -50q73 0 120 60t64 123v215zM317 -25q-109 0 -179 76t-70 197q0 180 117 244q118 63 399 79q6 63 6 123q0 268 -156 269q-74 0 -117 -21l-86 -246h-49q-45 141 -53 254q143 98 346 99q283 0 283 -326l-10 -457l6 -147
l125 -21v-41q-88 -51 -213 -77h-48q-23 63 -26 229h-10q-16 -92 -86 -163t-179 -71z" />
    <glyph glyph-name="AEacute" unicode="&#x1fc;" horiz-adv-x="1665" 
d="M1116 1829q39 1 96 -19t76 -47v-41l-411 -186l-33 39l264 254h8zM813 629v626h-4l-74 -190l-217 -436h295zM995 1331v-549h287l72 152h45q6 -102 6 -204t-6 -206h-45l-72 156h-287v-578h410l88 246h49q20 -164 21 -348h-895v57q63 33 145 49v420h-350l-207 -420
q74 -12 152 -49v-57h-406v57q63 33 129 49l637 1231q-66 18 -104 39v58h864q-4 -199 -21 -328h-49l-76 225h-387z" />
    <glyph glyph-name="aeacute" unicode="&#x1fd;" horiz-adv-x="1409" 
d="M842 1573q35 0 89 -14t70 -31v-39l-335 -307l-43 35l208 356h11zM1147 672q0 291 -179 291q-92 0 -146 -84t-64 -279h387q2 25 2 72zM584 496q-197 0 -266 -50q-68 -50 -68 -149t38 -149t112 -50q73 0 120 58t64 116v224zM981 1049q147 1 245 -91t99 -294q0 -66 -12 -150
h-559q2 -186 79 -301t224 -115q63 0 129 22t96 52l27 -31q-29 -73 -117 -119t-196 -46t-212 52q-102 52 -153 175q-29 -98 -114 -163t-197 -65t-182 76t-70 197q0 180 117 244q118 63 399 79q6 63 6 123q0 268 -156 269q-74 0 -117 -21l-86 -246h-49q-45 141 -53 254
q143 98 336 98t244 -122q47 61 105 92t167 31z" />
    <glyph glyph-name="Oslashacute" unicode="&#x1fe;" horiz-adv-x="1335" 
d="M877 1829q39 1 96 -19t76 -47v-41l-412 -186l-33 39l264 254h9zM1040 710q0 272 -82 437l-514 -961q92 -109 240 -108q174 0 265 180t91 452zM295 728q0 -274 84 -447l516 964q-98 111 -242 111q-182 0 -270 -177t-88 -451zM92 717q0 329 154 535t422 206q170 0 299 -94
l53 96l92 -57l-59 -111q190 -207 190 -555q1 -348 -153 -555t-422 -207q-168 0 -299 91l-50 -93l-88 58l56 102q-195 205 -195 584z" />
    <glyph glyph-name="oslashacute" unicode="&#x1ff;" horiz-adv-x="1001" 
d="M645 1573q35 0 89 -14t71 -31v-39l-336 -307l-43 35l209 356h10zM745 484q0 192 -38 307l-359 -648q66 -82 174 -82t166 115q57 116 57 308zM256 532q0 -202 45 -309l358 649q-63 90 -172 90t-170 -113q-61 -115 -61 -317zM72 496q0 272 115 412q116 140 315 141
q141 0 229 -62l82 146l72 -50l-84 -149q129 -138 129 -408t-115 -410t-313 -141q-129 0 -221 58l-91 -160l-69 51l88 160q-137 140 -137 412z" />
    <glyph glyph-name="Scommaaccent" unicode="&#x218;" horiz-adv-x="970" 
d="M473 -342v12q-41 35 -121 66q-4 20 -4 33q0 51 35 92t72 43q69 -8 115 -56t46 -138t-56 -162t-152 -103l-27 68q37 18 65 56t27 89zM435 78q112 0 189 72q76 72 76 178t-61 174t-147 114t-174 102q-88 54 -148 149q-61 95 -61 244t104 248t274 99q219 0 349 -67
q-8 -160 -45 -349h-50l-73 281q-59 33 -167 33t-161 -62t-53 -160q0 -172 209 -287q86 -49 173 -103t148 -146t62 -217q0 -186 -118 -296t-323 -110q-106 0 -199 30t-137 67q8 186 45 368h50l73 -301q53 -61 165 -61z" />
    <glyph glyph-name="scommaaccent" unicode="&#x219;" horiz-adv-x="784" 
d="M244 -231q0 51 34 92t70 43q62 -8 104 -56t42 -137q0 -91 -56 -165t-145 -97l-27 68q100 47 101 153q-49 39 -119 66q-4 20 -4 33zM358 61q74 0 124 51q50 52 50 118t-45 116t-108 89q-63 38 -127 82q-154 109 -154 287q0 100 83 172t200 73q170 0 285 -45
q-12 -127 -50 -267h-45l-69 209q-40 16 -102 16t-98 -46t-36 -106q0 -104 154 -198l127 -82q63 -42 108 -106t45 -148q0 -135 -97 -218t-243 -83t-280 58q8 137 51 274h47l80 -223q26 -23 100 -23z" />
    <glyph glyph-name="Tcommaaccent" unicode="&#x21a;" horiz-adv-x="1124" 
d="M438 -231q0 51 35 92t72 43q69 -8 115 -56t46 -138t-56 -162t-152 -103l-27 68q37 18 65 56t27 89v12q-41 35 -121 66q-4 20 -4 33zM821 0h-518v57q96 37 168 49v1225h-268l-97 -287h-49q-18 137 -22 390h1055q-4 -252 -23 -390h-47l-98 287h-269v-1225q113 -22 168 -49
v-57z" />
    <glyph glyph-name="tcommaaccent" unicode="&#x21b;" horiz-adv-x="673" 
d="M229 -231q0 51 34 92t71 43q63 -8 104 -56t41 -137q0 -91 -56 -165t-144 -97l-27 68q100 47 100 153q-49 39 -119 66q-4 20 -4 33zM27 926v49q68 49 143 69v177q24 24 73 47q50 24 52 26h47v-270h266v-98h-266v-602q0 -121 33 -173t102 -53q102 0 162 25l14 -27
q-35 -43 -109 -82t-151 -39q-223 0 -223 295v656h-143z" />
    <glyph glyph-name="uni0237" unicode="&#x237;" horiz-adv-x="524" 
d="M188 49v860l-118 17v49q86 45 243 74h47v-961q0 -136 -32 -240t-81 -160q-87 -97 -163 -122l-23 37q49 29 89 140q38 111 38 306z" />
    <glyph glyph-name="uni0259" unicode="&#x259;" horiz-adv-x="937" 
d="M463 61q201 0 219 390h-414q-2 -20 -2 -58q0 -152 54 -242t143 -90zM436 963q-74 0 -119 -21l-86 -246h-49q-37 135 -45 254q143 98 337 98t293 -140q99 -142 99 -398t-108 -395t-301 -140q-149 1 -261 105t-112 317q0 61 12 140h590q-2 199 -56 313t-194 113z" />
    <glyph glyph-name="afii57929" unicode="&#x2bc;" horiz-adv-x="497" 
d="M254 1178v20q-43 35 -119 66q-4 20 -4 32q0 50 34 92t71 44q68 -8 114 -56t45 -140q0 -93 -73 -195q-74 -101 -191 -136l-29 68q66 25 109 80t43 125z" />
    <glyph glyph-name="circumflex" unicode="&#x2c6;" horiz-adv-x="657" 
d="M326 1630q14 0 24 -6l205 -379l-51 -33l-187 222l-161 -222l-54 31l199 381q11 6 25 6z" />
    <glyph glyph-name="caron" unicode="&#x2c7;" horiz-adv-x="696" 
d="M360 1411l181 221q41 0 53 -30l-223 -381q-26 -16 -49 0l-220 378q14 33 64 33z" />
    <glyph glyph-name="breve" unicode="&#x2d8;" horiz-adv-x="700" 
d="M356 1366q127 0 197 127l45 -20q-35 -103 -97 -175t-147 -71q-178 0 -252 250l52 24q29 -53 89 -94t113 -41z" />
    <glyph glyph-name="dotaccent" unicode="&#x2d9;" horiz-adv-x="440" 
d="M102 1374q0 53 33 85t86 32t85 -32t32 -85t-32 -85t-85 -32t-86 32t-33 85z" />
    <glyph glyph-name="ring" unicode="&#x2da;" horiz-adv-x="561" 
d="M201 1405q-1 -51 23 -79t55 -28q82 0 81 101q0 53 -22 85q-23 32 -57 32q-80 0 -80 -111zM102 1401q0 84 52 140t130 56q77 0 126 -51t49 -136t-52 -139t-129 -54q-76 0 -126 50t-50 134z" />
    <glyph glyph-name="ogonek" unicode="&#x2db;" horiz-adv-x="565" 
d="M260 -242q0 -47 26 -86t70 -39t103 19v-64q-63 -41 -153 -41q-90 -1 -147 49q-56 50 -57 130q0 198 291 315h70q-203 -111 -203 -283z" />
    <glyph glyph-name="tilde" unicode="&#x2dc;" horiz-adv-x="761" 
d="M232 1333q-42 0 -95 -51l-35 55q113 119 215 119q45 0 114 -33t111 -33t91 42l26 -56q-102 -113 -196 -112q-45 0 -117 34t-114 35z" />
    <glyph glyph-name="hungarumlaut" unicode="&#x2dd;" horiz-adv-x="815" 
d="M565 1573q33 -1 82 -17t66 -40v-25l-359 -262l-39 35l242 309h8zM248 1573q33 0 86 -13t61 -30v-29l-248 -272l-45 31l138 313h8z" />
    <glyph glyph-name="uni02EE" unicode="&#x2ee;" horiz-adv-x="860" 
d="M256 1178v20q-43 35 -119 66q-4 20 -4 32q0 50 34 92t71 44q68 -8 114 -56t45 -140q0 -93 -73 -195q-74 -101 -191 -136l-29 68q66 25 109 80t43 125zM588 1178v20q-43 35 -119 66q-4 20 -4 32q0 50 34 92t70 44q68 -8 114 -56t46 -140q1 -92 -73 -194t-191 -137l-29 68
q66 25 109 80t43 125z" />
    <glyph glyph-name="gravecomb" unicode="&#x300;" horiz-adv-x="4" 
d="M-635 1573h10l189 -356l-43 -35l-336 307v39q17 16 79 30t101 15z" />
    <glyph glyph-name="acutecomb" unicode="&#x301;" horiz-adv-x="4" 
d="M-324 1573q36 0 90 -14t70 -31v-39l-336 -307l-43 35l209 356h10z" />
    <glyph glyph-name="uni0394" unicode="&#x394;" horiz-adv-x="1173" 
d="M918 123l-367 1042l-383 -1042h750zM1137 0h-1100v61l528 1373h53l519 -1373v-61z" />
    <glyph glyph-name="uni0394" unicode="&#x2206;" horiz-adv-x="1173" 
d="M918 123l-367 1042l-383 -1042h750zM1137 0h-1100v61l528 1373h53l519 -1373v-61z" />
    <glyph glyph-name="uni03A9" unicode="&#x3a9;" horiz-adv-x="1437" 
d="M631 0h-533q0 152 21 389h47l80 -242h286q-170 72 -284 234t-115 385q0 312 163 502t436 190t425 -181t152 -489q0 -233 -118 -404t-271 -237h270l80 242h47q20 -238 20 -389h-514v162q104 47 194 209q89 161 89 405t-96 412t-288 168t-289 -161t-97 -402t96 -413
t199 -218v-162z" />
    <glyph glyph-name="uni03A9" unicode="&#x2126;" horiz-adv-x="1437" 
d="M631 0h-533q0 152 21 389h47l80 -242h286q-170 72 -284 234t-115 385q0 312 163 502t436 190t425 -181t152 -489q0 -233 -118 -404t-271 -237h270l80 242h47q20 -238 20 -389h-514v162q104 47 194 209q89 161 89 405t-96 412t-288 168t-289 -161t-97 -402t96 -413
t199 -218v-162z" />
    <glyph glyph-name="pi" unicode="&#x3c0;" horiz-adv-x="1120" 
d="M913 901h-22v-784l119 -17v-41q-109 -55 -254 -77h-47v919h-336v-405q0 -297 -72 -496q-20 -12 -102 -12t-82 12l-8 16q77 132 125 402t49 483h-31q-102 0 -184 -121l-25 17q25 117 77 178t183 61l506 -12q123 0 166 9t76 44l26 -18q-6 -68 -48 -113t-116 -45z" />
    <glyph glyph-name="afii10023" unicode="&#x401;" horiz-adv-x="1050" 
d="M627 1616q0 45 29 70q30 24 77 24t76 -24t29 -70q0 -45 -30 -70q-30 -24 -76 -24t-76 24q-29 25 -29 70zM221 1616q0 45 30 70q30 24 77 24q46 0 76 -24t30 -70q0 -45 -30 -70q-30 -24 -76 -24t-77 24q-30 24 -30 70zM51 1434h862q-4 -199 -20 -328h-49l-76 225h-387
v-549h287l71 152h45q13 -218 0 -410h-45l-71 156h-287v-578h410l88 246h49q20 -164 20 -348h-897v57q63 33 148 49v1221q-80 16 -148 49v58z" />
    <glyph glyph-name="afii10051" unicode="&#x402;" horiz-adv-x="1361" 
d="M1294 487q0 -297 -106 -401q-52 -52 -116 -72t-154 -20l-11 51q70 18 110 53t67 127q28 92 28 248q0 313 -217 313q-139 0 -258 -86v-594q72 -25 125 -49v-57h-475v57q96 37 168 49v1225h-269l-96 -287h-49q-18 137 -23 390h1055q-4 -252 -22 -390h-47l-99 287h-268v-534
q147 92 314 92q167 1 255 -87t88 -315z" />
    <glyph glyph-name="afii10052" unicode="&#x403;" horiz-adv-x="919" 
d="M674 1829q39 1 96 -19t76 -47v-41l-412 -186l-33 39l265 254h8zM381 1331v-1225q90 -16 172 -49v-57h-502v57q74 33 148 49v1221q-74 16 -148 49v58h850q0 -244 -20 -406h-50l-94 303h-356z" />
    <glyph glyph-name="afii10053" unicode="&#x404;" horiz-adv-x="1161" 
d="M737 -25q-311 1 -478 183t-167 559q0 552 375 699q106 42 231 42q219 0 346 -69q0 -188 -28 -349h-49l-95 295q-33 20 -153 21q-178 0 -301 -152t-135 -438l581 29q24 -90 8 -154q-301 29 -589 33q10 -276 134 -436t333 -160q118 0 149 39l86 250h49q20 -123 21 -308
q-98 -84 -318 -84z" />
    <glyph glyph-name="afii10054" unicode="&#x405;" horiz-adv-x="970" 
d="M435 78q112 0 189 72q76 72 76 178t-61 174t-147 114t-174 102q-88 54 -148 149q-61 95 -61 244t104 248t274 99q219 0 349 -67q-8 -160 -45 -349h-50l-73 281q-59 33 -167 33t-161 -62t-53 -160q0 -172 209 -287q86 -49 173 -103t148 -146t62 -217q0 -186 -118 -296
t-323 -110q-106 0 -199 30t-137 67q8 186 45 368h50l73 -301q53 -61 165 -61z" />
    <glyph glyph-name="afii10055" unicode="&#x406;" horiz-adv-x="641" 
d="M557 0h-473v57q72 37 145 49v1221q-76 16 -145 49v58h473v-58q-57 -31 -145 -49v-1221q77 -16 145 -49v-57z" />
    <glyph glyph-name="afii10056" unicode="&#x407;" horiz-adv-x="636" 
d="M553 0h-471v57q72 37 145 49v1221q-70 14 -145 49v58h471v-58q-59 -31 -143 -49v-1221q77 -16 143 -49v-57zM375 1616q0 45 28 70q29 24 76 24t76 -24t29 -70q0 -45 -29 -70q-29 -24 -76 -24t-76 24q-28 25 -28 70zM53 1616q0 45 29 70q29 24 75 24q47 0 75 -24t28 -70
q0 -45 -29 -70q-29 -24 -75 -24t-74 24q-29 24 -29 70z" />
    <glyph glyph-name="afii10057" unicode="&#x408;" horiz-adv-x="618" 
d="M68 1434h467v-58q-63 -33 -138 -49v-1159q0 -418 -286 -496l-21 29q61 59 93 155t32 289v1182q-98 24 -147 49v58z" />
    <glyph glyph-name="afii10058" unicode="&#x409;" horiz-adv-x="1671" 
d="M1112 766q-84 0 -121 -12v-648q29 -10 125 -10q129 0 207 91t78 253t-74 244t-215 82zM672 0v57q68 37 137 49v1225h-334q-12 -590 -65 -848t-154 -405q-70 -102 -188 -103q-29 37 -56 110t-28 122l28 49l209 -41q143 274 144 1102q-117 23 -183 59v58h969v-58
q-76 -35 -160 -49v-473q100 14 162 14q451 0 451 -422q0 -224 -140 -338t-338 -114l-229 6h-225z" />
    <glyph glyph-name="afii10059" unicode="&#x40a;" horiz-adv-x="1800" 
d="M1241 723q-82 0 -119 -12v-605q30 -10 142 -10t189 80t77 234t-74 233q-74 80 -215 80zM805 0v57q72 39 135 49v605h-559v-605q70 -16 135 -49v-57h-465v57q68 33 148 49v1221q-90 16 -148 49v58h465v-58q-59 -37 -135 -49v-514h559v514q-57 12 -135 49v58h475v-58
q-78 -35 -158 -49v-516q76 14 162 14q449 0 449 -407q-1 -220 -139 -322t-339 -102l-227 6h-223z" />
    <glyph glyph-name="afii10060" unicode="&#x40b;" horiz-adv-x="1406" 
d="M637 1331v-534q147 92 304 92t239 -83t82 -298v-402q70 -12 129 -49v-57h-312v473q0 154 -44 234q-43 79 -161 79t-237 -86v-594q68 -23 127 -49v-57h-477v57q96 37 168 49v1225h-269l-96 -287h-49q-18 137 -23 390h1055q-4 -252 -22 -390h-47l-97 287h-270z" />
    <glyph glyph-name="afii10061" unicode="&#x40c;" horiz-adv-x="1175" 
d="M764 1829q39 1 96 -19t76 -47v-41l-412 -186l-32 39l264 254h8zM692 1434h406v-58q-66 -35 -137 -49l-361 -551q319 -467 490 -678l86 -49v-49h-234l-63 49q-219 301 -410 639h-88v-582q82 -16 135 -49v-57h-465v57q74 33 148 49v1221q-86 12 -148 49v58h465v-58
q-57 -29 -135 -49v-573l108 28l332 545q-66 14 -129 49v58z" />
    <glyph glyph-name="afii10062" unicode="&#x40e;" horiz-adv-x="1193" 
d="M640 1497q-159 0 -242 73t-83 187q35 37 140 45l47 -26v-177q51 -29 139 -29t139 23v183l45 26q74 0 133 -45q0 -115 -80 -187t-238 -73zM788 1434h406v-58q-47 -25 -131 -49l-346 -915q-84 -218 -154 -322t-157 -104q-10 0 -35 4q-45 76 -60 217l29 49l188 -53
q33 33 58 141l-451 983q-86 23 -135 49v58h483v-58q-61 -29 -147 -49l297 -692l37 -131h4l37 135l229 688q-86 14 -152 49v58z" />
    <glyph glyph-name="afii10145" unicode="&#x40f;" horiz-adv-x="1302" 
d="M516 1434v-58q-66 -33 -135 -49v-1225h541v1225q-96 20 -136 49v58h465v-58q-76 -39 -147 -49v-1221q98 -20 147 -49v-57h-512q-18 -164 -63 -389h-49q-43 229 -66 389h-510v57q68 33 148 49v1221q-84 14 -148 49v58h465z" />
    <glyph glyph-name="afii10017" unicode="&#x410;" horiz-adv-x="1239" 
d="M541 1024l-138 -436h361l-141 440l-33 176h-4zM403 0h-403v57q66 33 129 49l459 1352h59l455 -1352q92 -20 137 -49v-57h-471v57q82 35 147 49l-120 379h-428l-119 -379q77 -12 155 -49v-57z" />
    <glyph glyph-name="afii10018" unicode="&#x411;" horiz-adv-x="1087" 
d="M502 745q-84 0 -121 -12v-627q29 -10 143 -10t191 84q78 84 78 243t-74 241t-217 81zM51 0v57q72 37 148 49v1221q-68 12 -148 49v58h873q0 -203 -21 -365h-49l-96 262h-377v-497q100 14 166 14q197 0 323 -99t125 -317q0 -218 -135 -329q-135 -110 -342 -109l-235 6
h-232z" />
    <glyph glyph-name="afii10019" unicode="&#x412;" horiz-adv-x="1114" 
d="M371 780h86q80 0 141 11q84 33 135 107t51 190q0 114 -68 185q-70 71 -180 71t-165 -11v-553zM549 90q119 0 205 87t86 220q0 281 -338 281h-131v-569q59 -19 178 -19zM51 0v57q74 41 148 49v1221q-80 16 -148 49v58h201l293 12q422 0 422 -340q0 -111 -65 -208
t-179 -130v-8q127 -25 213 -111t86 -241q0 -208 -146 -314t-350 -106l-297 12h-178z" />
    <glyph glyph-name="afii10020" unicode="&#x413;" horiz-adv-x="919" 
d="M381 1331v-1225q90 -16 172 -49v-57h-502v57q74 33 148 49v1221q-74 16 -148 49v58h850q0 -244 -20 -406h-50l-94 303h-356z" />
    <glyph glyph-name="afii10021" unicode="&#x414;" horiz-adv-x="1241" 
d="M825 102v1229h-342q-33 -819 -217 -1229h559zM1008 102h206q-4 -203 -38 -409h-48l-79 307h-885l-78 -307h-47q-35 158 -39 409h152q94 168 157 516t66 699q-104 25 -185 59v58h965v-58q-66 -29 -147 -49v-1225z" />
    <glyph glyph-name="afii10022" unicode="&#x415;" horiz-adv-x="1050" 
d="M51 1434h862q-4 -199 -20 -328h-49l-76 225h-387v-549h287l71 152h45q13 -218 0 -410h-45l-71 156h-287v-578h410l88 246h49q20 -164 20 -348h-897v57q63 33 148 49v1221q-80 16 -148 49v58z" />
    <glyph glyph-name="afii10024" unicode="&#x416;" horiz-adv-x="1720" 
d="M766 770v557q-76 23 -127 49v58h422v-58q-43 -25 -117 -49v-573l125 28l299 545q-63 23 -131 49v58h405v-58q-49 -27 -135 -49l-327 -551q18 -27 185 -288t271 -390l84 -49v-49h-233l-62 49q-99 126 -262 432l-112 207h-107v-582q76 -23 119 -49v-57h-426v57
q55 33 129 49v599l-107 -29l-110 -205q-156 -293 -254 -422l-62 -49h-233v49l84 49q197 242 451 660l-340 569q-74 23 -127 49v58h405v-58q-49 -29 -123 -49l301 -557h115z" />
    <glyph glyph-name="afii10025" unicode="&#x417;" horiz-adv-x="1001" 
d="M435 -25q-206 0 -347 80q0 119 47 338h49l74 -284q53 -31 178 -31t207 92t82 236t-75 214q-75 69 -193 68l-138 -22q-8 30 -8 60t6 54h58q80 0 145 11q168 69 168 297q0 116 -66 192q-67 76 -181 76t-144 -39l-92 -250h-49q-23 135 -23 307q100 84 291 84t309 -67
q141 -79 139 -285q0 -109 -57 -199t-168 -139v-8q262 -51 262 -352q0 -211 -134 -322t-340 -111z" />
    <glyph glyph-name="afii10026" unicode="&#x418;" horiz-adv-x="1339" 
d="M516 0h-465v57q74 37 148 49v1221q-94 23 -148 49v58h465v-58q-70 -37 -135 -49v-901l-21 -154l89 162l520 844v49q-86 23 -146 49v58h465v-58q-49 -27 -149 -49v-1221q82 -14 149 -49v-57h-465v57q76 37 133 49v900l21 151l-78 -151l-528 -854v-46q75 -14 145 -49v-57z
" />
    <glyph glyph-name="afii10027" unicode="&#x419;" horiz-adv-x="1339" 
d="M681 1497q-159 0 -242 73t-83 187q35 37 140 45l47 -26v-177q51 -29 139 -29t139 23v183l45 26q74 0 133 -45q1 -115 -79 -187t-239 -73zM516 0h-465v57q74 37 148 49v1221q-94 23 -148 49v58h465v-58q-70 -37 -135 -49v-901l-21 -154l89 162l520 844v49q-86 23 -146 49
v58h465v-58q-49 -27 -149 -49v-1221q82 -14 149 -49v-57h-465v57q76 37 133 49v900l21 151l-78 -151l-528 -854v-46q75 -14 145 -49v-57z" />
    <glyph glyph-name="afii10028" unicode="&#x41a;" horiz-adv-x="1175" 
d="M692 1434h406v-58q-66 -35 -137 -49l-361 -551q319 -467 490 -678l86 -49v-49h-234l-63 49q-219 301 -410 639h-88v-582q82 -16 135 -49v-57h-465v57q74 33 148 49v1221q-86 12 -148 49v58h465v-58q-57 -29 -135 -49v-573l108 28l332 545q-66 14 -129 49v58z" />
    <glyph glyph-name="afii10029" unicode="&#x41b;" horiz-adv-x="1191" 
d="M182 1434h959v-58q-61 -35 -150 -49v-1221q82 -14 150 -49v-57h-469v57q51 27 137 49v1225h-334q-12 -590 -65 -848t-154 -405q-70 -102 -188 -103q-29 37 -56 110t-28 122l28 49l209 -41q144 275 144 1102q-117 23 -183 59v58z" />
    <glyph glyph-name="afii10030" unicode="&#x41c;" horiz-adv-x="1572" 
d="M295 1036v-932q72 -16 139 -47v-57h-383v57q63 31 148 49v1221q-84 18 -148 49v58h379l311 -949l60 -211h2l61 215l320 945h338v-58q-63 -33 -138 -49v-1223q83 -16 136 -47v-57h-455v57q53 27 147 49v930l7 238h-15l-59 -219l-369 -1055h-51l-350 1057l-66 239h-16
q2 -242 2 -260z" />
    <glyph glyph-name="afii10031" unicode="&#x41d;" horiz-adv-x="1320" 
d="M516 0h-465v57q68 33 148 49v1221q-90 16 -148 49v58h465v-58q-59 -37 -135 -49v-541h559v541q-68 14 -135 49v58h465v-58q-49 -29 -148 -49v-1221q88 -16 148 -49v-57h-465v57q59 33 135 49v578h-559v-578q69 -16 135 -49v-57z" />
    <glyph glyph-name="afii10032" unicode="&#x41e;" horiz-adv-x="1335" 
d="M295 720q0 -282 100 -462q99 -180 281 -180t273 180t91 460t-98 459t-284 179t-275 -177q-88 -177 -88 -459zM92 717q0 329 154 535t422 206t422 -207t154 -535t-154 -534q-154 -207 -422 -207t-422 206t-154 536z" />
    <glyph glyph-name="afii10033" unicode="&#x41f;" horiz-adv-x="1302" 
d="M516 0h-465v57q63 35 148 49v1221q-80 16 -148 49v58h1200v-58q-49 -29 -147 -49v-1221q72 -10 147 -49v-57h-465v57q39 29 136 49v1225h-541v-1225q69 -16 135 -49v-57z" />
    <glyph glyph-name="afii10034" unicode="&#x420;" horiz-adv-x="1081" 
d="M502 1348q-84 0 -121 -13v-667q29 -10 143 -10t201 87q86 87 86 259t-81 258t-228 86zM1014 1008q0 -225 -142 -339t-352 -114q-106 0 -139 8v-457q102 -16 174 -49v-57h-504v57q55 31 148 49v1221q-68 12 -148 49v58h168l322 16q189 0 324 -93q69 -48 109 -137t40 -212z
" />
    <glyph glyph-name="afii10035" unicode="&#x421;" horiz-adv-x="1161" 
d="M737 -25q-311 1 -478 183t-167 559q0 552 375 699q106 42 231 42q219 0 346 -69q0 -188 -28 -349h-49l-95 295q-33 20 -153 21q-188 0 -312 -164t-124 -466t125 -475t342 -173q118 0 149 39l86 250h49q20 -123 21 -308q-98 -84 -318 -84z" />
    <glyph glyph-name="afii10036" unicode="&#x422;" horiz-adv-x="1124" 
d="M821 0h-518v57q96 37 168 49v1225h-268l-97 -287h-49q-18 137 -22 390h1055q-4 -252 -23 -390h-47l-98 287h-269v-1225q113 -22 168 -49v-57z" />
    <glyph glyph-name="afii10037" unicode="&#x423;" horiz-adv-x="1193" 
d="M788 1434h406v-58q-47 -25 -131 -49l-346 -915q-84 -218 -154 -322t-157 -104q-10 0 -35 4q-45 76 -60 217l29 49l188 -53q33 33 58 141l-451 983q-86 23 -135 49v58h483v-58q-61 -29 -147 -49l297 -692l37 -131h4l37 135l229 688q-86 14 -152 49v58z" />
    <glyph glyph-name="afii10038" unicode="&#x424;" horiz-adv-x="1425" 
d="M545 313q53 0 86 11v813q-43 6 -86 6q-121 0 -208 -110t-87 -308t82 -305t213 -107zM893 1143q-59 0 -98 -13v-811q23 -6 86 -6q125 0 210 108t85 307t-74 307t-209 108zM502 1434h413v-58q-43 -27 -118 -49v-104q53 14 153 14q178 0 293 -136t115 -373t-131 -373
t-307 -136q-82 0 -123 14v-127q76 -20 118 -49v-57h-413v57q51 31 127 47v125q-55 -10 -154 -10q-164 0 -286 126q-121 126 -121 368t130 383t314 141q78 0 117 -8v98q-80 20 -127 49v58z" />
    <glyph glyph-name="afii10039" unicode="&#x425;" horiz-adv-x="1218" 
d="M719 1434h418v-58q-63 -29 -136 -49l-317 -559l371 -662q84 -16 145 -49v-57h-487v57q59 37 135 49l-283 521l-270 -523q92 -14 143 -47v-57h-420v57q49 29 134 49l352 615l-338 606q-61 18 -141 49v58h487v-58q-63 -29 -137 -49l248 -469l243 469q-81 20 -147 49v58z
" />
    <glyph glyph-name="afii10040" unicode="&#x426;" horiz-adv-x="1329" 
d="M51 0v57q51 29 148 49v1221q-78 12 -148 49v58h463v-58q-53 -29 -133 -49v-1225h532v1225q-72 12 -135 49v58h467v-58q-70 -33 -149 -49v-1225h207q-4 -190 -37 -409h-49l-78 307h-1088z" />
    <glyph glyph-name="afii10041" unicode="&#x427;" horiz-adv-x="1155" 
d="M1104 0h-467v57q78 39 166 49v531q-143 -92 -311 -92t-258 84q-89 84 -89 297v401q-63 12 -129 49v58h428v-58q-63 -37 -116 -49v-366q0 -313 217 -314q141 0 258 86v594q-72 25 -125 49v58h426v-58q-47 -27 -119 -49v-1221q68 -14 119 -49v-57z" />
    <glyph glyph-name="afii10042" unicode="&#x428;" horiz-adv-x="1689" 
d="M641 1434h412v-58q-55 -33 -115 -49v-1225h393v1225q-59 14 -119 49v58h426v-58q-49 -27 -125 -49v-1221q76 -16 125 -49v-57h-1587v57q63 37 129 49v1221q-68 16 -129 49v58h426v-58q-43 -27 -115 -49v-1225h394v1225q-70 22 -115 49v58z" />
    <glyph glyph-name="afii10043" unicode="&#x429;" horiz-adv-x="1744" 
d="M51 0v57q66 37 129 49v1221q-68 12 -129 49v58h426v-58q-39 -25 -115 -49v-1225h394v1225q-78 27 -115 49v58h412v-58q-33 -29 -115 -49v-1225h393v1225q-63 14 -119 49v58h426v-58q-49 -33 -125 -49v-1225h205q0 -193 -37 -409h-49l-78 307h-1503z" />
    <glyph glyph-name="afii10044" unicode="&#x42a;" horiz-adv-x="1310" 
d="M731 766q-82 0 -121 -12v-648q31 -10 125 -10q133 0 218 88t85 265q0 317 -307 317zM281 0v57q63 33 147 49v1225h-229l-93 -287h-49q-16 118 -22 390h735v-58q-63 -27 -160 -49v-473q104 14 162 14q471 0 471 -422q0 -154 -73 -259q-134 -193 -427 -193l-229 6h-233z
" />
    <glyph glyph-name="afii10045" unicode="&#x42b;" horiz-adv-x="1538" 
d="M502 766q-84 0 -121 -12v-648q29 -10 141 -10t189 91q78 91 77 262q1 317 -286 317zM51 0v57q70 37 148 49v1221q-74 16 -148 49v58h488v-58q-78 -35 -158 -49v-473q100 14 162 14q449 0 448 -422q0 -224 -139 -338t-336 -114l-227 6h-238zM1487 0h-467v57q51 31 139 49
v1221q-88 20 -141 49v58h469v-58q-61 -35 -146 -49v-1221q78 -14 146 -49v-57z" />
    <glyph glyph-name="afii10046" unicode="&#x42c;" horiz-adv-x="1083" 
d="M502 766q-84 0 -121 -12v-648q29 -10 127 -10q133 0 219 88t86 265q0 317 -311 317zM51 0v57q70 37 148 49v1221q-80 16 -148 49v58h490v-58q-72 -35 -160 -49v-473q100 14 164 14q471 0 471 -422q0 -227 -144 -340t-358 -112l-227 6h-236z" />
    <glyph glyph-name="afii10047" unicode="&#x42d;" horiz-adv-x="1142" 
d="M430 1458q621 0 621 -730q0 -376 -175 -564t-430 -189q-217 0 -344 70q10 219 29 348h47l96 -295q33 -20 156 -20q172 0 299 166t129 463l-518 -62q-10 45 -10 79t10 75h518q-12 274 -127 415t-313 142q-109 0 -144 -39l-92 -250h-49q-20 123 -20 307q100 84 317 84z" />
    <glyph glyph-name="afii10048" unicode="&#x42e;" horiz-adv-x="1753" 
d="M786 717q0 -285 85 -462t266 -177q117 0 191 89t102 226t28 323t-31 323q-31 136 -111 227q-81 90 -208 90q-322 0 -322 -639zM518 0h-467v57q80 37 148 49v1221q-78 12 -148 49v58h467v-58q-66 -33 -137 -49v-541h213q14 296 151 484t388 188t389 -204t139 -536
q0 -332 -140 -537q-139 -206 -397 -206t-392 193t-140 516h-211v-578q74 -14 137 -49v-57z" />
    <glyph glyph-name="afii10049" unicode="&#x42f;" horiz-adv-x="1155" 
d="M651 690q82 0 123 15v622q-29 10 -108 10q-299 0 -299 -321q-1 -156 71 -241t213 -85zM1104 1434v-58q-61 -33 -148 -49v-1221q92 -16 148 -49v-57h-486v57q68 37 156 49v498h-178q-35 -68 -86 -184t-96 -206q-45 -89 -103 -165l-61 -49h-234v49l86 49q95 118 183 267
l75 133q47 82 70 118q-114 40 -190 140t-76 252t76 252q139 180 428 180l200 -6h236z" />
    <glyph glyph-name="afii10065" unicode="&#x430;" horiz-adv-x="919" 
d="M584 496q-197 0 -266 -50q-68 -50 -68 -149t38 -149t112 -50q73 0 120 60t64 123v215zM317 -25q-109 0 -179 76t-70 197q0 180 117 244q118 63 399 79q6 63 6 123q0 268 -156 269q-74 0 -117 -21l-86 -246h-49q-45 141 -53 254q143 98 346 99q283 0 283 -326l-10 -457
l6 -147l125 -21v-41q-88 -51 -213 -77h-48q-23 63 -26 229h-10q-16 -92 -86 -163t-179 -71z" />
    <glyph glyph-name="afii10066" unicode="&#x431;" horiz-adv-x="980" 
d="M254 537q0 -244 70 -360t179 -116t166 113q56 113 56 317t-70 305t-194 101q-47 0 -99 -35t-90 -90q-18 -104 -18 -235zM72 535q0 666 274 839q133 84 354 84l117 103h47q-2 -68 -18 -149t-31 -109q-230 0 -331 -29t-147 -67q-106 -88 -141 -251q-19 -88 -28 -208h10
q46 112 148 192t211 80q373 0 372 -502q-1 -242 -117 -392t-308 -151q-192 0 -302 150t-110 410z" />
    <glyph glyph-name="afii10067" unicode="&#x432;" horiz-adv-x="958" 
d="M467 946q-84 0 -109 -8v-395l197 20q39 23 69 75t30 140t-52 128q-51 40 -135 40zM358 485v-399q27 -8 127 -8t153 53q52 53 52 151t-60 151q-60 52 -161 52h-111zM823 788q0 -90 -60 -150t-140 -81q109 -9 180 -75t71 -183q0 -155 -112 -231t-285 -76l-229 8h-180v49
q53 33 118 49v828q-66 14 -118 49v49h170l249 8q166 0 251 -56t85 -188z" />
    <glyph glyph-name="afii10068" unicode="&#x433;" horiz-adv-x="782" 
d="M68 1024h682q-4 -162 -25 -328h-49l-80 242h-238v-840q100 -20 162 -49v-49h-452v49q43 29 118 49v830q-70 14 -118 47v49z" />
    <glyph glyph-name="afii10069" unicode="&#x434;" horiz-adv-x="1038" 
d="M655 926h-256q-2 -512 -147 -828h403v828zM172 1024h774v-49q-49 -37 -119 -49v-828h160q0 -203 -18 -401h-49l-82 303h-674l-82 -303h-47q-20 221 -21 401h125q57 78 107 280q49 202 51 527q-66 20 -125 70v49z" />
    <glyph glyph-name="afii10070" unicode="&#x435;" horiz-adv-x="911" 
d="M469 963q-92 0 -145 -84t-64 -279h387q2 25 2 70q0 135 -44 214t-136 79zM827 664q0 -66 -12 -150h-559q0 -184 77 -300t226 -116q63 0 129 22t96 52l27 -31q-31 -73 -118 -119t-187 -47q-209 -1 -322 143q-112 144 -112 398t107 393q108 139 304 140q147 1 245 -91
t99 -294z" />
    <glyph glyph-name="afii10072" unicode="&#x436;" horiz-adv-x="1314" 
d="M961 1024h317v-49q-27 -25 -102 -49q-88 -137 -240 -355q4 -6 120 -191t187 -282l72 -49v-49h-197l-51 47q-37 55 -86 146l-94 180q-47 90 -62 114h-86v-389q59 -16 107 -49v-49h-369v49q51 29 101 49v402l-97 -21q0 -2 -91 -184t-142 -248l-55 -47h-193v49l84 49
q72 94 176 270t115 189q-139 188 -248 369q-47 12 -90 49v49h317v-49q-35 -29 -90 -49q74 -152 221 -377h93v377q-57 14 -99 49v49h355v-49q-39 -37 -95 -49v-389l99 20q117 180 213 369q-57 22 -90 49v49z" />
    <glyph glyph-name="afii10073" unicode="&#x437;" horiz-adv-x="856" 
d="M369 68q102 0 156 70q55 70 55 166q0 95 -33 132t-105 51l-168 -30q-8 25 -8 55t8 51h183q37 19 69 75t31 134q0 190 -172 191q-74 0 -102 -15l-80 -231h-47q-39 125 -43 266q121 66 287 66q329 0 329 -240q0 -90 -59 -157t-142 -97q104 -10 170 -76t66 -174
q0 -160 -98 -245t-284 -85t-302 123l35 131h37q70 -88 108 -145q39 -16 109 -16z" />
    <glyph glyph-name="afii10074" unicode="&#x438;" horiz-adv-x="1110" 
d="M68 1024h391v-49q-39 -27 -109 -49v-574l-20 -190h10l70 153l381 709h251v-49q-55 -37 -118 -49v-828q90 -29 118 -49v-49h-389v49q47 33 107 49v596l18 162h-8l-70 -154l-376 -702h-256v49q45 27 118 49v828q-69 12 -118 49v49z" />
    <glyph glyph-name="afii10075" unicode="&#x439;" horiz-adv-x="1110" 
d="M572 1149q-160 0 -230 72t-70 178q51 45 138 55l47 -27v-182q45 -23 117 -23t124 17v188l47 27q82 -12 132 -55q0 -106 -72 -178t-233 -72zM68 1024h391v-49q-39 -27 -109 -49v-574l-20 -190h10l70 153l381 709h251v-49q-55 -37 -118 -49v-828q90 -29 118 -49v-49h-389
v49q47 33 107 49v596l18 162h-8l-70 -154l-376 -702h-256v49q45 27 118 49v828q-69 12 -118 49v49z" />
    <glyph glyph-name="afii10076" unicode="&#x43a;" horiz-adv-x="983" 
d="M588 1024h354v-49q-35 -29 -121 -60q-115 -160 -272 -346q55 -69 175 -235t175 -236l84 -49v-49h-217l-57 47q-47 66 -95 139l-184 301h-72v-389q82 -27 115 -49v-49h-405v49q49 35 118 49v828q-66 16 -118 49v49h378v-49q-41 -31 -88 -49v-389l82 20q25 35 113 150
t141 208q-65 31 -106 60v49z" />
    <glyph glyph-name="afii10077" unicode="&#x43b;" horiz-adv-x="985" 
d="M172 1024h746v-49q-55 -37 -117 -49v-828q66 -18 117 -49v-49h-396v49q45 35 107 49v840h-236q-14 -629 -155 -868q-57 -100 -134 -101q-10 0 -16 2q-72 92 -82 191l27 49l155 -41q47 90 75 303t30 432q-61 20 -121 70v49z" />
    <glyph glyph-name="afii10078" unicode="&#x43c;" horiz-adv-x="1333" 
d="M375 0h-322v49q57 33 119 49l29 807q-59 27 -119 70v49h360l183 -608l32 -142h7l36 144l193 606h350v-49q-55 -37 -119 -49l37 -828q57 -12 119 -49v-49h-391v49q39 25 108 49l-36 840h-15l-295 -938h-51l-291 938h-14l-29 -840q68 -22 109 -49v-49z" />
    <glyph glyph-name="afii10079" unicode="&#x43d;" horiz-adv-x="1110" 
d="M465 0h-397v49q43 27 118 49v828q-76 23 -118 49v49h397v-49q-45 -29 -107 -49v-365h394v365q-61 12 -107 49v49h397v-49q-49 -33 -118 -49v-828q80 -18 118 -49v-49h-397v49q47 37 107 49v377h-394v-377q56 -12 107 -49v-49z" />
    <glyph glyph-name="afii10080" unicode="&#x43e;" horiz-adv-x="1001" 
d="M256 522q0 -213 66 -337t208 -124q98 0 157 115q58 115 58 327t-62 336t-196 124q-109 0 -170 -114t-61 -327zM72 515q0 253 115 393q116 140 324 140t313 -140q106 -142 106 -397t-115 -395t-321 -140t-314 142q-108 144 -108 397z" />
    <glyph glyph-name="afii10081" unicode="&#x43f;" horiz-adv-x="1107" 
d="M465 0h-397v49q63 39 118 49v828q-80 23 -118 49v49h972v-49q-57 -41 -118 -49v-828q59 -12 118 -49v-49h-397v49q41 31 107 49v840h-392v-840q62 -20 107 -49v-49z" />
    <glyph glyph-name="afii10082" unicode="&#x440;" horiz-adv-x="1026" 
d="M553 926q-162 0 -209 -242v-575q59 -47 175 -47q115 0 183 132q68 134 68 341q0 391 -217 391zM463 -410h-410v50q59 33 119 49v1220l-119 17v49q92 45 244 74h47v-230q78 229 272 230q338 0 338 -514q0 -258 -116 -409t-310 -151q-102 0 -184 41v-327q60 -10 119 -49
v-50z" />
    <glyph glyph-name="afii10083" unicode="&#x441;" horiz-adv-x="841" 
d="M256 512q0 -168 80 -291t225 -123q111 0 189 70l24 -27q-34 -73 -108 -119t-170 -47q-209 -1 -317 143q-107 144 -107 397t112 393t298 140t290 -61q-16 -184 -57 -289h-53l-76 244q-25 20 -82 21q-124 -1 -186 -107t-62 -344z" />
    <glyph glyph-name="afii10084" unicode="&#x442;" horiz-adv-x="905" 
d="M659 0h-413v49q55 33 121 49v840h-166l-80 -242h-49q-20 184 -23 328h807q-2 -145 -22 -328h-50l-79 242h-166v-840q91 -26 120 -49v-49z" />
    <glyph glyph-name="afii10085" unicode="&#x443;" horiz-adv-x="913" 
d="M-20 1024h385v-47q-35 -29 -103 -51l225 -617l35 -127h4l27 129l168 615q-53 14 -98 49v49h311v-49q-37 -27 -103 -49l-286 -926q-76 -244 -147 -329t-177 -111q-35 57 -63 170l24 49h191q35 57 78 221l-375 926q-39 10 -96 49v49z" />
    <glyph glyph-name="afii10086" unicode="&#x444;" horiz-adv-x="1314" 
d="M873 950q-93 0 -136 -43v-796q43 -37 127 -37t143 105q58 105 58 336t-49 333q-50 102 -143 102zM461 74q76 0 117 47v794q-45 35 -129 35q-83 0 -141 -98t-58 -297q0 -481 211 -481zM858 -410h-401v50q53 35 118 49v364q-59 -78 -155 -78q-160 0 -254 125
q-94 126 -94 394t97 411t269 144q100 0 137 -66v418l-137 16v49q98 49 256 74h45v-569q57 78 168 78q158 0 247 -120q89 -119 89 -387t-97 -418t-261 -149q-98 0 -146 64v-350q70 -12 119 -49v-50z" />
    <glyph glyph-name="afii10087" unicode="&#x445;" horiz-adv-x="944" 
d="M926 0h-379v47q61 41 90 51l-197 342l-198 -342q37 -16 88 -49v-49h-312v49q49 35 101 49l268 410l-270 418q-51 20 -88 49v49h372v-47q-55 -41 -90 -51l187 -314l180 314q-59 20 -88 49v49h303v-49q-32 -26 -100 -49l-248 -377l284 -451q61 -23 97 -49v-49z" />
    <glyph glyph-name="afii10088" unicode="&#x446;" horiz-adv-x="1114" 
d="M68 0v49q49 35 118 49v828q-66 12 -118 49v49h397v-49q-47 -31 -107 -49v-840h373v840q-47 12 -106 49v49h397v-49q-49 -31 -119 -49v-840h162q-4 -133 -21 -389h-49l-82 303h-845z" />
    <glyph glyph-name="afii10089" unicode="&#x447;" horiz-adv-x="1013" 
d="M25 1024h395v-49q-43 -35 -105 -49v-250q0 -215 154 -215q94 0 186 65v400q-57 12 -106 49v49h397v-49q-45 -33 -119 -49v-828q80 -20 119 -49v-49h-436v49q76 35 145 49v371q-96 -121 -254 -121q-121 0 -189 78t-69 211v289q-65 14 -118 49v49z" />
    <glyph glyph-name="afii10090" unicode="&#x448;" horiz-adv-x="1511" 
d="M842 86h311v840q-57 16 -96 49v49h387v-49q-57 -35 -119 -49v-828q66 -14 119 -49v-49h-1376v49q53 35 118 49v828q-66 10 -118 49v49h385v-49q-41 -33 -95 -49v-840h312v840q-68 23 -107 49v49h375v-49q-31 -27 -96 -49v-840z" />
    <glyph glyph-name="afii10091" unicode="&#x449;" horiz-adv-x="1536" 
d="M68 0v49q53 35 118 49v828q-61 14 -118 49v49h385v-49q-41 -33 -95 -49v-840h312v840q-57 12 -107 49v49h375v-49q-39 -33 -96 -49v-840h311v840q-57 16 -96 49v49h387v-49q-43 -29 -119 -49v-840h162q-2 -135 -23 -389h-47l-84 303h-1265z" />
    <glyph glyph-name="afii10092" unicode="&#x44a;" horiz-adv-x="1046" 
d="M195 0v49q53 35 118 49v840h-137l-80 -242h-49q-18 160 -22 328h569v-49q-37 -29 -109 -49v-320q104 16 183 17q313 0 313 -297q0 -160 -100 -247t-269 -87l-245 8h-172zM609 536q-77 0 -124 -10v-440l95 -8q102 0 159 63t57 179t-54 166q-56 50 -133 50z" />
    <glyph glyph-name="afii10093" unicode="&#x44b;" horiz-adv-x="1357" 
d="M1290 0h-399v49q66 37 106 49v828q-70 16 -108 49v49h401v-49q-39 -29 -121 -49v-828q70 -20 121 -49v-49zM474 536q-73 0 -116 -10v-440l95 -8q199 0 198 250q0 108 -52 158t-125 50zM68 0v49q43 29 118 49v828q-49 6 -118 49v49h397v-49q-41 -29 -107 -49v-320
q104 16 179 17q141 0 220 -74q79 -75 79 -229t-96 -241t-257 -87l-247 8h-168z" />
    <glyph glyph-name="afii10094" unicode="&#x44c;" horiz-adv-x="919" 
d="M480 536q-79 0 -122 -10v-440l95 -8q102 0 159 63q58 63 58 179t-56 166t-134 50zM68 0v49q43 27 118 49v828q-51 12 -118 49v49h397v-49q-46 -29 -107 -49v-320q104 16 181 17q315 0 315 -297q0 -160 -101 -247t-268 -87l-249 8h-168z" />
    <glyph glyph-name="afii10095" unicode="&#x44d;" horiz-adv-x="888" 
d="M384 -25q-188 0 -304 123l35 131h37l108 -145q39 -16 109 -16q121 0 191 112t73 303l-352 -30q-20 53 0 106h350q-10 403 -256 404q-76 0 -92 -15l-80 -252h-45q-39 131 -52 273q136 80 312 80t288 -123q112 -124 112 -396t-124 -414q-122 -142 -310 -141z" />
    <glyph glyph-name="afii10096" unicode="&#x44e;" horiz-adv-x="1427" 
d="M934 963q-102 0 -162 -121t-59 -331q-1 -210 69 -330t172 -120q219 0 220 451q0 451 -240 451zM465 0h-397v49q43 27 118 49v828q-74 23 -118 49v49h397v-49q-47 -31 -107 -49v-365h177q8 229 118 359q111 129 303 129q192 -1 295 -139q105 -138 105 -395t-108 -398
t-297 -141t-299 124q-110 125 -117 375h-177v-377q56 -12 107 -49v-49z" />
    <glyph glyph-name="afii10097" unicode="&#x44f;" horiz-adv-x="964" 
d="M606 498v440q-61 12 -121 12q-193 0 -192 -221q0 -104 66 -168q67 -63 198 -63h49zM897 1024v-49q-35 -35 -119 -49v-828q72 -23 119 -49v-49h-397v49q39 29 106 49v351l-131 -21q-6 -12 -65 -137t-144 -244l-57 -47h-209v49l100 49q61 76 146 209l90 146q-92 19 -156 87
t-65 199q0 131 85 214t265 83l295 -12h137z" />
    <glyph glyph-name="afii10071" unicode="&#x451;" horiz-adv-x="911" 
d="M573 1357q0 46 28 75q28 28 73 28q44 0 72 -28t28 -75q0 -46 -28 -74t-72 -28t-73 28q-28 28 -28 74zM270 1255q-44 0 -72 28t-28 74t28 75q28 28 72 28t73 -28q28 -28 28 -75q0 -46 -28 -74t-73 -28zM469 963q-92 0 -145 -84t-64 -279h387q2 25 2 70q0 135 -44 214
t-136 79zM827 664q0 -66 -12 -150h-559q0 -184 77 -300t226 -116q63 0 129 22t96 52l27 -31q-31 -73 -118 -119t-187 -47q-209 -1 -322 143q-112 144 -112 398t107 393q108 139 304 140q147 1 245 -91t99 -294z" />
    <glyph glyph-name="afii10099" unicode="&#x452;" horiz-adv-x="1044" 
d="M39 1120v103h123v178l-137 16v49q80 37 264 74h45v-317h371v-103h-371v-379h2q41 102 114 167t166 65q154 0 228 -94t74 -336v-541q0 -313 -150 -392q-68 -36 -182 -44l-8 53q100 35 134 106t33 277v506q0 168 -39 255q-40 87 -132 87t-152 -67q-61 -67 -88 -160v-525
q72 -18 106 -49v-49h-397v49q53 33 119 49v1022h-123z" />
    <glyph glyph-name="afii10100" unicode="&#x453;" horiz-adv-x="782" 
d="M547 1573q35 0 89 -14t71 -31v-39l-336 -307l-43 35l209 356h10zM68 1024h682q-4 -162 -25 -328h-49l-80 242h-238v-840q100 -20 162 -49v-49h-452v49q43 29 118 49v830q-70 14 -118 47v49z" />
    <glyph glyph-name="afii10101" unicode="&#x454;" horiz-adv-x="862" 
d="M610 518q0 -24 -10 -51h-342q14 -153 101 -261t210 -108t203 70l23 -27q-33 -73 -108 -119t-171 -47q-211 1 -328 145q-116 144 -116 395t119 392q121 141 311 141t291 -61q-10 -166 -60 -289h-47l-76 244q-27 20 -84 21q-262 0 -270 -420l344 30q10 -31 10 -55z" />
    <glyph glyph-name="afii10102" unicode="&#x455;" horiz-adv-x="784" 
d="M358 61q74 0 124 51q50 52 50 118t-45 116t-108 89q-63 38 -127 82q-154 109 -154 287q0 100 83 172t200 73q170 0 285 -45q-12 -127 -50 -267h-45l-69 209q-40 16 -102 16t-98 -46t-36 -106q0 -104 154 -198l127 -82q63 -42 108 -106t45 -148q0 -135 -97 -218t-243 -83
t-280 58q8 137 51 274h47l80 -223q26 -23 100 -23z" />
    <glyph glyph-name="afii10103" unicode="&#x456;" horiz-adv-x="546" 
d="M158 1374q0 53 32 85q33 32 86 32t85 -32t32 -85t-32 -85t-85 -32t-86 32q-32 32 -32 85zM481 0h-409v49q49 31 118 49v811l-118 17v49q92 43 243 74h47v-951q78 -20 119 -49v-49z" />
    <glyph glyph-name="afii10104" unicode="&#x457;" horiz-adv-x="630" 
d="M522 0h-409v49q49 31 118 49v811l-118 17v49q96 45 243 74h47v-951q76 -20 119 -49v-49zM365 1374q0 51 26 83q27 32 72 32t72 -32t27 -83t-28 -83q-26 -31 -71 -31t-72 31q-26 32 -26 83zM70 1374q0 51 26 83q27 32 72 32t73 -32q27 -32 27 -83t-28 -83q-28 -31 -72 -31
q-45 0 -72 31q-26 32 -26 83z" />
    <glyph glyph-name="afii10105" unicode="&#x458;" horiz-adv-x="524" 
d="M158 1374q0 53 32 85q33 32 86 32t85 -32t32 -85t-32 -85t-85 -32t-86 32q-32 32 -32 85zM188 49v860l-118 17v49q86 45 243 74h47v-961q0 -136 -32 -240t-81 -160q-87 -97 -163 -122l-23 37q49 29 89 140q38 111 38 306z" />
    <glyph glyph-name="afii10106" unicode="&#x459;" horiz-adv-x="1345" 
d="M1096 328q0 108 -54 158t-124 50t-117 -10v-440l92 -8q203 0 203 250zM522 0v49q45 35 107 49v840h-236q-14 -629 -155 -868q-57 -100 -134 -101q-10 0 -16 2q-72 92 -82 191l27 49l155 -41q47 90 75 303t30 432q-61 20 -121 70v49h746v-49q-33 -23 -117 -49v-320
q104 16 178 17q141 0 221 -74q80 -75 80 -229t-97 -241t-259 -87l-248 8h-154z" />
    <glyph glyph-name="afii10107" unicode="&#x45a;" horiz-adv-x="1468" 
d="M1219 328q1 108 -53 158t-126 50t-116 -10v-440l94 -8q201 0 201 250zM643 0v49q45 37 109 49v377h-394v-377q55 -12 107 -49v-49h-397v49q43 27 118 49v828q-76 23 -118 49v49h397v-49q-45 -29 -107 -49v-365h394v365q-61 12 -107 49v49h397v-49q-35 -23 -118 -49v-320
q104 16 178 17q141 0 221 -74q80 -75 80 -229t-97 -241t-257 -87l-248 8h-158z" />
    <glyph glyph-name="afii10108" unicode="&#x45b;" horiz-adv-x="1062" 
d="M39 1120v103h123v178l-137 16v49q80 37 264 74h45v-317h371v-103h-371v-379h2q41 102 114 167t166 65q154 0 228 -94t74 -336v-428l114 -17v-41q-115 -57 -239 -77h-48v528q0 168 -39 255q-40 87 -132 87t-152 -67q-61 -67 -88 -160v-525q72 -18 106 -49v-49h-397v49
q53 33 119 49v1022h-123z" />
    </font>
</defs>
</svg>
