<?xml version="1.0" standalone="no"?>
<!DOCTYPE svg PUBLIC "-//W3C//DTD SVG 1.1//EN" "http://www.w3.org/Graphics/SVG/1.1/DTD/svg11.dtd" >
<svg xmlns="http://www.w3.org/2000/svg">
<metadata>
Created by FontPrep 20130207 at Sun Apr  2 14:07:00 2017
 By Eugene Lee
Copyright (c) 1990-1997 ParaGraph. All Rights Reserved. ITC New Baskerville is a registered trade mark of International Typeface Corporation.
</metadata>
<defs>
<font id="28308f021e5f782277b6f6a1f44aceae" horiz-adv-x='1024' >
  <font-face 
    font-family="NewBaskervilleExpOdC-BoldItalic"
    font-weight="700"
    font-style="italic"
    font-stretch="normal"
    units-per-em="2048"
    panose-1="0 0 8 0 0 0 0 0 0 0"
    ascent="1468"
    descent="-580"
    x-height="897"
    cap-height="1368"
    bbox="-571 -580 2771 1847.06"
    underline-thickness="102"
    underline-position="-102"
    slope="-15"
    unicode-range="U+0020-F739"
  />
<missing-glyph horiz-adv-x="477" 
 />
    <glyph glyph-name=".notdef" horiz-adv-x="477" 
 />
    <glyph glyph-name=".null" horiz-adv-x="0" 
 />
    <glyph glyph-name="nonmarkingreturn" horiz-adv-x="681" 
 />
    <glyph glyph-name="space" unicode=" " horiz-adv-x="477" 
 />
    <glyph glyph-name="space" unicode="&#xa0;" horiz-adv-x="477" 
 />
    <glyph glyph-name="exclam" unicode="!" horiz-adv-x="704" 
d="M207 135q0 59 44 103t103 45q60 0 104 -44q44 -43 44 -103t-44 -104t-104 -44t-103 44q-44 44 -44 103zM803 1252q0 -68 -64 -212l-266 -596l-59 15l88 680q20 160 51 199q43 59 109 60q65 1 103 -39q38 -39 38 -107z" />
    <glyph glyph-name="quotedbl" unicode="&#x22;" horiz-adv-x="794" 
d="M780 817h-104l84 551h239zM391 817h-104l84 551h239z" />
    <glyph glyph-name="numbersign" unicode="#" horiz-adv-x="1433" 
d="M815 571l96 228h-204l-97 -228h205zM776 121h-149l151 360h-205l-151 -360h-152l154 360h-219l37 90h219l96 228h-219l39 90h217l151 362h152l-154 -362h207l152 362h149l-151 -362h219l-39 -90h-219l-94 -228h217l-37 -90h-219z" />
    <glyph glyph-name="dollar" unicode="$" horiz-adv-x="1052" 
d="M659 569l-137 -522q123 6 202 86t79 203q-1 151 -144 233zM508 1081q0 -118 133 -202l125 428q-118 -2 -188 -68t-70 -158zM1153 1166q0 -58 -28 -90q-27 -32 -65 -32t-60 18t-28 40q-6 20 -14 58q-6 38 -13 61t-27 45t-56 30l-137 -467q297 -158 297 -417
q0 -180 -142 -308t-378 -131l-86 -295h-99l86 295q-163 23 -241 93t-78 149q0 43 30 73t68 30t60 -19q24 -19 30 -37t16 -58t20 -64q9 -24 40 -54t76 -39l156 576q-274 150 -275 374q0 181 139 285t342 96l52 174h96l-49 -174q141 -29 205 -91q64 -63 63 -121z" />
    <glyph glyph-name="percent" unicode="%" horiz-adv-x="2060" 
d="M1855 437q1 129 -37 173t-83 43q-97 0 -181 -148t-84 -315q0 -90 36 -129t83 -38q106 0 187 142q79 143 79 272zM1937 451q0 -189 -106 -351t-285 -161q-127 0 -224 86q-97 87 -97 255t128 316t304 149q119 0 200 -75q80 -76 80 -219zM1026 1147q0 98 -40 145t-91 47
q-72 0 -134 -87q-62 -86 -93 -194t-31 -190t37 -123t88 -40q104 0 184 138t80 304zM1256 1200q-74 0 -166 37q14 -66 14 -125q0 -207 -116 -354t-271 -148q-121 0 -222 91t-101 251t121 317q122 157 290 156q65 0 105 -18q38 -19 44 -23t33 -19t29 -15q137 -80 233 -80
q186 0 377 209h68l-963 -1596h-108l817 1354q-110 -37 -184 -37z" />
    <glyph glyph-name="ampersand" unicode="&#x26;" horiz-adv-x="1918" 
d="M788 1042q39 0 79 -28t40 -81q0 -52 -43 -91t-110 -39q-111 0 -156 100q-90 -45 -138 -121t-48 -159q0 -162 167 -278t515 -116q215 0 343 122t128 259q0 88 -68 152t-174 63q-105 0 -169 -39t-64 -89t47 -50q7 -1 49 15t76 16t64 -23t30 -73t-51 -96t-133 -46t-130 58
t-49 141q0 137 113 243t287 107q79 0 201 -18t198 -19q147 0 213 64t66 149q0 86 -68 86q-35 0 -59 -24l-25 -31q-25 -33 -49 -45t-68 -12q-44 1 -68 27t-24 74t57 94t151 46t167 -54q72 -54 72 -182t-116 -251q-58 -61 -168 -97t-253 -30q43 -106 43 -154q0 -258 -221 -452
q-220 -194 -528 -195q-308 0 -496 139t-189 365q1 156 95 290t239 210q-12 53 -12 106q0 156 121 271t276 114q113 0 164 -39t51 -80q1 -41 -29 -73t-76 -31q-46 0 -77 30q-4 3 -14 12q-73 66 -117 67q-74 0 -131 -62t-57 -134q0 -73 38 -120q49 12 88 12z" />
    <glyph glyph-name="quotesingle" unicode="'" horiz-adv-x="413" 
d="M399 817h-112l84 551h247z" />
    <glyph glyph-name="parenleft" unicode="(" horiz-adv-x="835" 
d="M516 160q0 -295 115 -570l-45 -26q-256 381 -256 807q0 476 385 877q94 99 198 179l37 -47q-434 -469 -434 -1220z" />
    <glyph glyph-name="parenright" unicode=")" horiz-adv-x="835" 
d="M555 831q0 313 -117 570l47 26q256 -389 256 -806q-1 -305 -163 -581t-420 -476l-37 47q113 117 194 265q82 146 128 272t79 308t33 375z" />
    <glyph glyph-name="asterisk" unicode="*" horiz-adv-x="1087" 
d="M650 551q-38 0 -68 26q-30 27 -31 77t61 114t76 91q14 26 19 71v6q-1 8 -13 8t-22 -2t-18 -3t-18 -7q-11 -6 -15 -8q-3 -2 -17 -12t-30 -22q-16 -11 -24 -20q-7 -9 -24 -21q-16 -11 -26 -19t-16 -12q-6 -3 -25 -12q-18 -9 -52 -9q-34 -1 -65 27t-31 68t29 71t69 31
q41 0 113 -12q72 -11 101 -11h12q57 0 59 20v2q-2 21 -54 53t-120 58t-96 57q-20 29 -20 65t30 64q31 28 62 27q66 0 102 -67q15 -31 28 -66t15 -39q41 -123 84 -123q29 0 29 100v19q0 31 -10 69t-11 75q0 36 28 76t71 40q42 0 70 -27t28 -63q0 -68 -79 -149t-79 -138
q0 -18 28 -18q52 0 132 74t132 75q52 0 81 -32q29 -33 29 -71t-32 -68t-74 -30t-78 12t-109 15l-17 2q-18 0 -18 -2q-57 -6 -58 -16q0 -53 146 -103q46 -16 64 -27q18 -12 43 -28t32 -41q6 -24 6 -48q1 -24 -21 -54t-59 -29q-37 0 -53 5t-40 33q-23 28 -50 94q-26 66 -38 92
q-12 25 -32 47t-32 22q-27 0 -27 -121l21 -141q0 -51 -30 -83t-68 -32z" />
    <glyph glyph-name="plus" unicode="+" horiz-adv-x="1124" 
d="M178 784h416v404h131v-404h418v-127h-418v-403h-131v403h-416v127z" />
    <glyph glyph-name="comma" unicode="," horiz-adv-x="538" 
d="M106 122q0 58 44 96t116 38q70 0 122 -58t52 -155q0 -143 -111 -249t-263 -154l-23 53q254 96 283 323q-104 -63 -180 9q-40 39 -40 97z" />
    <glyph glyph-name="hyphen" unicode="-" horiz-adv-x="372" 
d="M457 549l-54 -195h-362l53 195h363z" />
    <glyph glyph-name="hyphen" unicode="&#xad;" horiz-adv-x="372" 
d="M457 549l-54 -195h-362l53 195h363z" />
    <glyph glyph-name="period" unicode="." horiz-adv-x="579" 
d="M160 133q0 59 44 103t103 45q59 0 103 -44q44 -43 45 -103q0 -60 -44 -104q-43 -44 -103 -44t-104 44t-44 103z" />
    <glyph glyph-name="slash" unicode="/" horiz-adv-x="1116" 
d="M1264 1393l-1141 -1803h-109l1141 1803h109z" />
    <glyph glyph-name="colon" unicode=":" horiz-adv-x="606" 
d="M160 133q0 59 44 103t103 45q59 0 103 -44q44 -43 45 -103q0 -60 -44 -104q-43 -44 -103 -44t-104 44t-44 103zM334 758q0 59 44 103t103 44t103 -44t45 -103q0 -60 -44 -104q-43 -44 -103 -44t-104 44t-44 104z" />
    <glyph glyph-name="semicolon" unicode=";" horiz-adv-x="604" 
d="M332 758q0 59 44 103t103 44t103 -44t45 -103q0 -60 -44 -104q-43 -44 -103 -44t-104 44t-44 104zM156 125q0 55 39 100t113 45t128 -62q55 -62 56 -161q0 -137 -108 -253t-280 -171l-22 51q268 117 293 338q-115 -57 -181 16q-38 42 -38 97z" />
    <glyph glyph-name="less" unicode="&#x3c;" horiz-adv-x="1196" 
d="M539 811l565 -379v-289l-858 582v14l858 543v-108z" />
    <glyph glyph-name="equal" unicode="=" horiz-adv-x="1126" 
d="M178 633h967v-123h-967v123zM178 934h967v-123h-967v123z" />
    <glyph glyph-name="greater" unicode="&#x3e;" horiz-adv-x="1196" 
d="M811 614l-565 379v289l858 -582v-14l-858 -543v109z" />
    <glyph glyph-name="question" unicode="?" horiz-adv-x="907" 
d="M342 135q0 59 44 103t103 45q59 0 103 -44q44 -43 45 -103q0 -60 -44 -104q-43 -44 -103 -44t-104 44t-44 103zM626 369q-92 0 -149 53q-57 54 -57 120q0 126 83 197q56 49 155 114q100 65 159 131t59 149q0 82 -56 133t-122 51t-117 -25q-51 -26 -51 -56t27 -36
q7 -2 27 -4q70 -7 88 -46q8 -19 8 -58t-34 -73t-96 -34t-106 48q-45 48 -45 118q0 100 83 174q82 74 222 74t244 -94t105 -244q0 -100 -70 -208q-23 -34 -87 -86t-153 -107q-89 -56 -119 -87q-42 -42 -42 -75q0 -47 53 -47t125 45l26 16l37 -57q-105 -86 -197 -86z" />
    <glyph glyph-name="at" unicode="@" horiz-adv-x="2074" 
d="M1354 871q0 96 -42 133t-95 36q-86 0 -166 -112t-123 -257q-43 -144 -43 -222t14 -109q28 -63 113 -68q96 0 179 113t123 251t40 235zM1448 358q0 -88 102 -88q145 0 270 163q124 163 124 423t-194 441t-530 181t-579 -259q-242 -260 -242 -617q0 -298 184 -512
q91 -106 243 -168t345 -61q350 0 656 215l31 -45q-309 -227 -680 -227t-646 200q-131 96 -208 249q-78 153 -78 334q0 368 246 651q120 138 312 222t427 84q360 0 566 -198t206 -504q0 -266 -153 -452t-359 -187q-92 0 -152 51q-59 51 -65 143q-53 -88 -131 -142t-162 -54
q-117 0 -206 99t-89 251q0 203 156 377t360 174q80 0 133 -44t66 -122l47 149h186l-166 -622q-20 -76 -20 -105z" />
    <glyph glyph-name="A" unicode="A" horiz-adv-x="1253" 
d="M850 528l-78 514q-193 -295 -305 -514h383zM899 174q0 45 -25 188l-12 70h-450l-13 -20q-113 -186 -112 -246q1 -37 27 -60t47 -27t85 -11l-20 -72l-264 6l-225 -6l20 72q63 8 113 42t74 66t59 94q377 676 678 1116h98l172 -1064q25 -145 46 -195q22 -49 83 -55l45 -4
l-20 -72l-291 6l-301 -6l20 72l33 2q104 6 123 40q10 18 10 64z" />
    <glyph glyph-name="B" unicode="B" horiz-adv-x="1306" 
d="M537 205q1 -53 37 -88t102 -35q145 0 221 126t76 254t-72 184t-190 52l-52 -2l-104 -377q-18 -61 -18 -114zM905 1280q-55 0 -72 -13t-32 -63l-115 -416l45 -2q174 -8 268 78t95 232q0 184 -189 184zM500 1218q0 40 -20 56q-20 18 -95 20l-61 2l20 72l328 -6l248 4
q242 4 354 -86t110 -214q0 -124 -106 -226t-348 -113q162 -19 257 -111t95 -209t-71 -213q-42 -58 -105 -102t-172 -70q-109 -28 -246 -26l-315 6l-340 -6l20 72q104 0 136 50q19 30 28 50q8 20 23 72l225 809q35 129 35 169z" />
    <glyph glyph-name="C" unicode="C" horiz-adv-x="1302" 
d="M479 430q0 -117 31 -196q31 -78 81 -112q84 -56 185 -59q150 0 268 111t181 262h82l-35 -131q-2 -10 -18 -69t-36 -127q-19 -68 -36 -121h-82l-2 118q-172 -133 -420 -133q-128 1 -230 49t-162 126q-122 158 -122 366q0 209 107 413q108 204 297 335q190 131 400 131
t345 -127l61 102h76l-25 -123q-15 -74 -28 -155q-14 -80 -29 -140h-78q-8 164 -70 259t-208 96q-201 0 -367 -257t-166 -618z" />
    <glyph glyph-name="D" unicode="D" horiz-adv-x="1603" 
d="M666 216q0 -36 10 -60t50 -48t105 -24q137 0 247 88t170 222q124 277 124 532q0 264 -227 334q-55 16 -95 16t-54 -2q-41 -6 -53 -36q-5 -13 -7 -17t-7 -24t-7 -26l-238 -852q-18 -67 -18 -103zM934 1362q84 0 130 -1t130 -14q248 -38 381 -225q92 -130 92 -326
t-100 -386q-229 -426 -764 -414l-305 6q-145 2 -334 -6l20 72q73 0 121 30q28 18 50 83q5 15 18 59l241 864q41 141 -5 171q-26 17 -87 19l-63 2l20 72l352 -6h103z" />
    <glyph glyph-name="E" unicode="E" horiz-adv-x="1251" 
d="M500 1210q0 34 -22 56q-22 20 -42 23t-57 5l-55 2l18 72q303 -14 1036 0q10 -219 23 -348h-76q-43 266 -342 266h-88q-49 0 -54 -5t-13 -11q-15 -12 -33 -78l-115 -416h59q119 0 195 44t113 157h75q-78 -270 -135 -541h-78q8 47 9 99q0 152 -197 151h-68l-98 -346
q-23 -84 -23 -127q0 -125 205 -125t318 71q113 72 168 216h73l-104 -379l-864 6l-295 -6l20 72q104 0 134 46q29 46 53 128l225 813q35 121 35 155z" />
    <glyph glyph-name="F" unicode="F" horiz-adv-x="1130" 
d="M909 532q0 88 -57 119t-154 31h-47l-102 -367q-33 -105 -33 -137q0 -83 42 -97q9 -3 14 -5q6 -2 16 -3t14 -2t14 -1h13l63 -2l-20 -72l-338 6l-301 -6l20 72q90 0 125 36t62 136l225 809q35 127 35 165q0 74 -115 80l-61 2l18 72q313 -14 1016 0l24 -346h-75
q-45 264 -351 264h-59q-39 0 -61 -15t-28 -29q-5 -14 -13 -46l-121 -430h67q104 0 183 52q78 52 106 151h78l-133 -535h-76q10 86 10 98z" />
    <glyph glyph-name="G" unicode="G" horiz-adv-x="1505" 
d="M1100 357q0 47 -4 64t-30 35t-75 21l-59 2l16 72h621l-21 -72l-55 -2q-63 -2 -89 -56t-48 -157t-23 -117l-12 -57q-137 0 -297 -58t-299 -59q-260 0 -411 150t-150 401q0 213 108 414q109 201 299 328t389 127t349 -117l53 92h86l-80 -416h-78q2 174 -80 263t-194 90
q-154 1 -280 -139t-192 -339t-65 -410q0 -211 111 -289q92 -65 184 -66q217 -2 291 168q35 80 35 127z" />
    <glyph glyph-name="H" unicode="H" horiz-adv-x="1593" 
d="M483 1215q0 43 -22 60q-23 17 -90 19l-64 2l21 72l352 -6l289 6l-21 -72l-41 -2q-39 0 -57 -12l-28 -19q-10 -7 -19 -21q-8 -14 -15 -25q-7 -10 -17 -50q-11 -40 -11 -43l-105 -376h572l100 356q41 139 -2 171q-23 17 -90 19l-64 2l21 72l352 -6l289 6l-21 -72l-40 -2
q-56 -4 -82 -29q-27 -25 -36 -48q-8 -23 -12 -32t-10 -33t-8 -28l-242 -864q-20 -66 -20 -108t22 -59t38 -19q17 -2 53 -4l61 -2l-18 -72l-353 6l-288 -6l18 72l43 2q50 3 90 33q25 19 57 137l117 413h-575l-109 -393q-20 -66 -20 -115q0 -70 92 -75h20l62 -2l-19 -72
l-352 6l-289 -6l19 72l43 2q50 3 90 33q12 9 25 42t17 42q3 9 15 53l242 864q20 68 20 111z" />
    <glyph glyph-name="I" unicode="I" horiz-adv-x="741" 
d="M330 1296l20 72l352 -6l289 6l-20 -72l-45 -2q-72 -4 -99 -53q-26 -49 -47 -125l-241 -876q-34 -114 4 -149q20 -19 82 -21l67 -2l-18 -72l-352 6l-289 -6l18 72l43 2q79 4 107 51q17 29 30 69l14 42t1 8l241 876q18 61 19 103q0 74 -113 75z" />
    <glyph glyph-name="J" unicode="J" horiz-adv-x="722" 
d="M-96 -553q-166 -1 -248 63t-82 146q0 51 37 85t81 34q79 0 105 -63q16 -40 24 -66q7 -27 9 -31t10 -27t18 -31q11 -7 21 -15t37 -7q26 0 52 11t46 40t40 61q22 35 54 157q33 122 39 143l308 1102q35 125 35 153q-1 84 -80 91q-12 1 -35 1l-62 2l19 72l299 -6l342 6
l-21 -72l-47 -2q-59 -2 -86 -38t-49 -117l-256 -920q-98 -354 -147 -463q-98 -217 -269 -278q-84 -31 -194 -31z" />
    <glyph glyph-name="K" unicode="K" horiz-adv-x="1382" 
d="M983 138q0 32 -74 186l-166 342l-110 -70l-80 -281q-37 -127 -37 -163t23 -56t39 -22t51 -4l63 -2l-18 -72l-332 6q-100 2 -309 -6l20 72q90 0 125 36t62 136l225 809q35 131 35 153q0 68 -53 83q-24 7 -62 9l-61 2l18 72l303 -6l338 6l-18 -72q-76 0 -99 -17
q-24 -17 -36 -25t-21 -30q-10 -24 -13 -29q-4 -5 -12 -37t-8 -34l-108 -399q213 145 344 256l100 84q137 123 137 171t-82 56l-57 4l18 72l224 -6l282 6l2 -72q-131 -29 -256 -133l-170 -145q-14 -12 -44 -38t-65 -52q-34 -25 -102 -80l-38 -31l245 -508q33 -65 45 -89
t42 -64t66 -60q36 -18 87 -28l-21 -72l-303 6l-301 -6l21 72l49 4q31 2 46 5q46 9 46 61z" />
    <glyph glyph-name="L" unicode="L" horiz-adv-x="1296" 
d="M694 84q190 0 303 70t183 239h80q-27 -82 -115 -397l-256 4l-889 -4l20 72q86 0 124 38t65 134l242 864q23 80 23 118t-27 54q-26 16 -89 18l-61 2l20 72l353 -6l288 6l-20 -72l-43 -2q-69 -2 -97 -42t-53 -128l-215 -776q-24 -84 -24 -135t43 -90t145 -39z" />
    <glyph glyph-name="M" unicode="M" horiz-adv-x="1851" 
d="M350 193q0 -125 180 -125l-20 -72q-168 8 -260 6l-234 -6l11 72q98 2 144 54t81 175l221 758q35 121 35 157q0 78 -119 82l-37 2l21 72l223 -6l225 6l152 -993l602 993l223 -6l217 6l-10 -72l-49 -4q-70 -6 -98 -51t-46 -145l-139 -820q-12 -72 -12 -92q0 -59 34 -85
t113 -29l35 -2l-10 -72l-367 6l-301 -6l21 72l41 6q83 12 113 47t53 155l163 873l-688 -1153h-102l-168 1153l-205 -735q-43 -152 -43 -221z" />
    <glyph glyph-name="N" unicode="N" horiz-adv-x="1476" 
d="M388 96q36 -16 91 -22l43 -6l-16 -72l-258 4l-225 -4l4 72q113 2 159 70t103 263l223 813q-35 76 -143 80l-43 2l20 72q139 -8 223 -6l183 6l475 -989l162 610q31 113 30 180q0 111 -135 123l-41 4l21 72l223 -6q82 -2 235 6v-72q-57 -4 -82 -23q-24 -19 -36 -27t-26 -31
q-14 -25 -19 -31q-7 -6 -17 -37t-12 -35t-12 -41t-11 -39l-288 -1059h-95l-544 1104l-185 -690q-43 -158 -43 -217q0 -58 36 -74z" />
    <glyph glyph-name="O" unicode="O" horiz-adv-x="1445" 
d="M1227 1016q0 289 -223 289q-102 0 -207 -98q-45 -42 -103 -131t-110 -210q-115 -281 -115 -489q0 -100 24 -169q23 -70 63 -98q66 -47 134 -49q129 -1 261 143t218 445q58 203 58 367zM1522 874q0 -225 -110 -431t-304 -338t-426 -132q-230 -1 -374 147t-144 378t115 434
q115 205 309 333q196 128 420 128t369 -147t145 -372z" />
    <glyph glyph-name="P" unicode="P" horiz-adv-x="1214" 
d="M767 725q72 0 146 27q74 28 114 66q103 99 103 269q0 56 -24 102q-24 45 -70 67t-108 22q-63 0 -90 -22t-45 -87l-123 -442q25 -2 97 -2zM1430 1048q0 -66 -14 -116q-14 -52 -59 -108q-146 -187 -587 -187q-12 0 -123 6l-108 -383q-39 -138 2 -170q23 -18 90 -20l82 -2
l-19 -72l-372 6l-289 -6l18 72l43 2q51 2 83 30t41 54q9 25 26 86l239 864q23 82 23 122t-31 53t-84 15l-63 2l22 72l352 -6l119 2q286 7 413 -47q54 -23 100 -57q96 -74 96 -212z" />
    <glyph glyph-name="Q" unicode="Q" horiz-adv-x="1419" 
d="M657 59q135 1 263 145t202 366q76 222 76 422q0 201 -82 264q-62 47 -137 49q-111 1 -214 -99q-184 -178 -277 -546q-40 -157 -40 -303t61 -222q60 -76 148 -76zM629 -125q127 0 358 -104q80 -35 116 -51q37 -16 113 -34q76 -19 140 -20q121 0 186 56t80 55q25 0 25 -31
q1 -109 -97 -211t-256 -102q-80 0 -167 36q-87 35 -123 61t-112 84q-75 58 -116 86t-118 60t-146 31q-113 0 -213 -60t-138 -36q-13 8 -14 20q0 41 24 59t104 42q103 30 207 107q28 21 75 50q-197 33 -307 173t-109 324q0 184 66 349q137 339 442 495q156 79 326 79
q236 1 380 -143t144 -377t-111 -438q-62 -116 -154 -209t-236 -164q-146 -71 -326 -95q-72 -39 -162 -100q80 8 119 8z" />
    <glyph glyph-name="R" unicode="R" horiz-adv-x="1351" 
d="M733 729q190 0 282 108q91 108 91 234q0 207 -252 207q-25 0 -39 -11t-17 -19t-10 -31l-135 -488h80zM1409 1063q0 -147 -128 -260t-361 -127q260 -23 272 -322l4 -88v-22q0 -18 1 -26t2 -24q1 -18 4 -26t7 -22t23 -33q19 -18 51 -17q55 0 111 66l20 24l62 -45
q-113 -168 -310 -168q-127 0 -203 76t-73 203l6 217q2 84 -48 128t-142 44h-78l-88 -324q-35 -139 -35 -175t29 -50q29 -16 86 -20l71 -4l-18 -72l-342 4l-299 -4l20 72q93 -4 125 48t51 126l228 815q33 117 32 153t-26 61q-18 16 -101 21l-51 4l19 72l293 -8l286 8
q333 11 448 -147q52 -73 52 -158z" />
    <glyph glyph-name="S" unicode="S" horiz-adv-x="989" 
d="M742 1305q-89 -1 -140 -57t-51 -113t13 -84t28 -58t56 -73q40 -42 46 -48t33 -32t59 -56q172 -167 210 -288q19 -61 20 -131q0 -170 -120 -281t-326 -111t-359 150l-51 -107h-88q49 231 80 428l75 -10q2 -170 88 -271q85 -101 195 -101t179 56q69 58 69 138t-42 156
t-73 108t-103 106t-113 118q-40 44 -77 122t-37 162q0 158 112 261t282 103t313 -120l51 96h82l-18 -80q-61 -268 -70 -317l-76 14l-2 49q-6 137 -81 204t-164 67z" />
    <glyph glyph-name="T" unicode="T" horiz-adv-x="1288" 
d="M780 139q0 -66 121 -69l74 -2l-19 -72l-340 6l-374 -6l18 72l62 2q50 2 74 8t55 45t51 117l289 1036h-50q-267 0 -363 -125q-44 -57 -69 -147h-82l107 364q328 -4 426 -4l758 4l-2 -383h-74q-11 217 -162 268q-68 23 -152 23h-47l-272 -971q-29 -92 -29 -166z" />
    <glyph glyph-name="U" unicode="U" horiz-adv-x="1437" 
d="M532 342q0 -129 88 -187q88 -59 197 -59q213 -1 321 180q54 90 88 184t68 236l84 336q43 184 -24 229q-33 22 -88 29l-41 6l20 72q29 -4 187 -5t274 5l-2 -72q-127 -16 -178 -133q-27 -61 -47 -147l-90 -373q-29 -119 -55 -198t-77 -177t-113 -155t-164 -99t-235 -41
q-201 1 -347 101t-146 284q0 113 45 287l119 428q26 100 26 128q-1 70 -44 82q-17 5 -26 8t-53 3l-32 2l18 72l279 -6q123 -2 342 6l-21 -72q-98 4 -136 -57q-28 -46 -44 -98l-158 -555q-35 -115 -35 -244z" />
    <glyph glyph-name="V" unicode="V" horiz-adv-x="1208" 
d="M1219 1199q0 35 -20 57q-20 23 -81 34h-8l-47 6l20 72l299 -6l185 6l-19 -72q-76 -18 -106 -45q-30 -26 -40 -33t-28 -31t-44 -56t-27 -37l-197 -269q-94 -129 -195 -252l-493 -606h-103l82 1131q8 88 -19 137t-140 61l20 72l297 -4l336 4l-21 -72l-55 -4q-83 0 -95 -21
q-28 -50 -36 -104q-8 -53 -12 -100l-64 -715l228 289q229 291 306 407t77 151z" />
    <glyph glyph-name="W" unicode="W" horiz-adv-x="1757" 
d="M401 1122q0 149 -84 169q-33 9 -81 5l20 72q199 -8 297 -6l305 6l-20 -72l-54 -2q-38 -2 -60 -15t-33 -53t-15 -136l-27 -670l330 541q129 215 129 249t-30 61q-30 28 -107 25l20 72q197 -8 297 -6l275 6l-19 -72l-33 -4q-81 -10 -111 -46t-28 -163l4 -663l215 362
q211 354 211 437q0 27 -26 51t-70 24l-29 2l19 72l223 -6l201 6l-2 -72q-110 -31 -173 -108t-124 -197l-37 -67q-209 -387 -578 -957h-92l-10 1016l-633 -1016h-96l26 1057v98z" />
    <glyph glyph-name="X" unicode="X" horiz-adv-x="1294" 
d="M731 1231q0 -25 43 -125l107 -254l141 168q88 104 115 143t26 70q0 57 -94 61l-45 2l20 72q113 -6 228 -6t268 6v-72q-86 -7 -118 -24l-43 -24q-35 -16 -75 -60t-58 -66q-18 -23 -46 -51l-272 -311l202 -471q40 -91 72 -137q33 -46 72 -63t92 -21l-20 -72q-172 6 -213 6
h-222q-35 0 -194 -6l18 72l43 2q109 4 109 57q0 37 -49 149l-117 269l-35 -39q-78 -86 -167 -202t-89 -159q0 -72 115 -75l43 -2l-21 -72l-282 6l-226 -6l2 72q96 16 168 70t170 169l283 332l-205 463q-47 112 -98 154t-133 40l18 72q174 -8 299 -6l320 6l-19 -72l-39 -2
q-94 -4 -94 -63z" />
    <glyph glyph-name="Y" unicode="Y" horiz-adv-x="1167" 
d="M698 1092l111 -383l35 47q115 159 198 266q84 107 98 142q15 35 15 53q0 66 -106 75l-43 4l20 72l223 -6l258 6l-2 -72q-151 -18 -274 -189q-218 -304 -391 -509l-82 -283q-31 -111 -31 -153t18 -64q19 -20 37 -23t54 -5l67 -2l-18 -72q-223 8 -342 6l-314 -6l21 72
q104 -8 142 46q30 41 57 126l104 370l-152 510q-25 83 -49 117q-24 33 -59 45t-88 14l20 72q160 -6 193 -6h221q39 0 217 6l-20 -72l-37 -4l-33 -4q-18 0 -28 -4t-19 -7q-41 -12 -41 -68t20 -117z" />
    <glyph glyph-name="Z" unicode="Z" horiz-adv-x="1165" 
d="M821 1274q-190 0 -304 -49t-212 -197h-84l58 152q63 168 71 188l332 -4l625 4l-15 -51l-841 -1227h151q292 0 442 133q70 61 123 156h80q-43 -141 -112 -324l-23 -59l-344 4l-686 -4l14 53l836 1225h-111z" />
    <glyph glyph-name="bracketleft" unicode="[" horiz-adv-x="942" 
d="M821 1319l-456 -1653h229l-25 -76h-413l499 1803h416l-24 -74h-226z" />
    <glyph glyph-name="backslash" unicode="\" horiz-adv-x="536" 
d="M287 1393h108l142 -1803h-111z" />
    <glyph glyph-name="bracketright" unicode="]" horiz-adv-x="872" 
d="M336 -336l457 1653h-230l25 76h413l-499 -1803h-416l25 74h225z" />
    <glyph glyph-name="asciicircum" unicode="^" horiz-adv-x="1404" 
d="M934 1141l-379 -566h-289l582 859h14l543 -859h-109z" />
    <glyph glyph-name="underscore" unicode="_" horiz-adv-x="1026" 
d="M0 -184h1026v-127h-1026v127z" />
    <glyph glyph-name="grave" unicode="`" horiz-adv-x="667" 
d="M287 1286q0 37 23 57q54 45 111 -1q6 -4 20 -22q14 -19 26 -34l201 -262h-58l-254 174q-27 18 -39 28q-30 23 -30 60z" />
    <glyph glyph-name="a" unicode="a" horiz-adv-x="1064" 
d="M778 642q0 74 -34 108t-74 32q-80 0 -153 -103t-111 -229t-39 -203t29 -113t71 -36q84 0 159 108q76 108 114 234q38 128 38 202zM897 182q0 -64 39 -63q29 0 67 41t74 112l10 21l46 -21l-15 -28q-131 -264 -299 -264q-53 0 -94 30t-41 88q0 59 6 90h-4
q-51 -96 -136 -152t-180 -56t-171 72t-76 218q0 246 159 436t343 191q78 0 130 -41t70 -108l45 129h217l-20 -68q-170 -563 -170 -627z" />
    <glyph glyph-name="b" unicode="b" horiz-adv-x="987" 
d="M768 643q0 137 -109 137q-75 0 -147 -108t-114 -249q-42 -142 -42 -256t103 -114q85 0 159 110t112 245t38 235zM756 897q100 0 175 -69t75 -210t-54 -264q-54 -122 -139 -202q-84 -80 -185 -126t-208 -46q-106 0 -182 70t-76 173q0 104 51 297l135 504q39 146 39 184
t-20 53t-43 19t-66 8l-27 2l17 58q250 -3 432 24l-170 -606q109 131 246 131z" />
    <glyph glyph-name="c" unicode="c" horiz-adv-x="796" 
d="M430 -20q-145 0 -226 93t-81 233q-1 140 65 274t192 225q126 92 260 92t204 -50t69 -126q-1 -51 -31 -90t-85 -39t-88 28t-33 59t7 47t22 38q14 23 14 35q0 41 -55 41q-80 0 -150 -106t-104 -237q-34 -129 -33 -231q0 -102 46 -141t104 -39q59 0 119 42t91 80t54 75
l49 -35l-27 -39q-158 -229 -383 -229z" />
    <glyph glyph-name="d" unicode="d" horiz-adv-x="1081" 
d="M784 670q0 66 -34 98t-76 33q-115 0 -210 -176t-95 -377q-1 -82 31 -115t75 -33q70 0 132 66t100 160q77 195 77 344zM951 119q36 0 78 54t63 95l12 25l39 -21q-49 -116 -134 -204t-173 -88q-61 0 -101 46q-39 46 -39 119v33q-57 -92 -143 -145q-87 -53 -185 -53t-172 78
t-73 214q0 134 57 278t174 252t259 108t210 -140l86 330q25 98 25 127t-18 46t-38 22q-22 5 -61 10l-41 4l17 57l59 2q207 7 369 25l-246 -916q-59 -217 -59 -287t35 -71z" />
    <glyph glyph-name="e" unicode="e" horiz-adv-x="837" 
d="M743 745q0 41 -21 67q-22 26 -54 26q-68 0 -136 -94t-120 -316q150 45 240 136t91 181zM123 283q0 201 140 400q67 93 177 153t234 61q124 0 192 -48t68 -122q0 -101 -127 -197t-373 -157l-41 -11q-14 -57 -14 -126q0 -68 40 -106q41 -38 107 -38t136 55t112 113l19 25
l53 -41q-70 -111 -174 -188q-104 -76 -234 -76t-222 74q-93 74 -93 229z" />
    <glyph glyph-name="f" unicode="f" horiz-adv-x="550" 
d="M-116 -573q-72 0 -118 42t-46 92t30 78q31 28 66 27q78 0 88 -90q12 -72 47 -72q10 0 14 2q31 10 55 90t89 359l192 840h-172l21 82h174q62 339 273 460q99 58 204 59q106 1 153 -38t47 -85q-1 -46 -29 -78t-67 -32q-74 0 -114 107q-20 47 -56 47q-92 0 -160 -330
l-22 -110h197l-23 -82h-197l-96 -433q-6 -27 -28 -128t-31 -143q-10 -42 -35 -135t-44 -139t-51 -120t-65 -113t-76 -81t-95 -59q-53 -17 -125 -17z" />
    <glyph glyph-name="g" unicode="g" horiz-adv-x="919" 
d="M721 719q0 59 -30 86t-66 26q-87 0 -149 -144t-62 -265q0 -59 28 -89t68 -30q84 0 148 131t63 285zM143 -307q0 -178 338 -178q109 0 168 54q59 53 59 109t-20 84q-33 44 -108 59q-76 16 -124 22q-236 30 -304 85q-28 20 -48 58t-20 84q0 94 71 148t162 71
q-135 85 -135 227t119 262t307 119q139 0 248 -70q88 98 178 99q43 0 72 -26t29 -58q-1 -32 -21 -59q-20 -25 -52 -25t-62 24t-44 25q-14 0 -20 -3t-17 -12t-18 -14q49 -68 49 -149t-24 -145t-71 -122q-48 -57 -134 -93t-199 -38q-12 0 -57 2q-150 7 -185 -26
q-17 -16 -18 -43q0 -63 113 -80q18 -2 71 -9t76 -10t75 -12t111 -30q58 -21 102 -53q91 -67 91 -191q0 -118 -92 -220q-47 -52 -140 -84t-218 -32q-219 0 -345 78q-125 78 -124 180q0 57 34 99t98 42t111 -53q-82 -20 -82 -96z" />
    <glyph glyph-name="h" unicode="h" horiz-adv-x="1081" 
d="M858 897q74 0 126 -41t52 -133t-49 -236l-63 -196q-31 -88 -31 -121q0 -53 41 -53q74 0 156 162l12 24l41 -12q-59 -152 -153 -232t-187 -79q-66 0 -108 42t-42 108t35 173l84 266q27 84 27 119q0 76 -66 76q-76 0 -163 -106t-167 -355l-98 -303h-219l293 1090
q27 94 27 137t-31 58t-101 22l-26 2l16 57q283 7 430 27l-202 -772q57 115 154 195t212 81z" />
    <glyph glyph-name="i" unicode="i" horiz-adv-x="622" 
d="M422 1286q0 53 39 92t92 39t92 -39t39 -92t-39 -92t-92 -39t-92 39t-39 92zM180 137q0 76 30 158t84 213t54 183q0 79 -45 79q-68 0 -158 -156l-14 -24l-39 22q74 141 163 213t169 72t122 -41t42 -106t-33 -158l-100 -295q-35 -98 -35 -126t15 -41t34 -13q72 0 145 141
l23 43l41 -20q-62 -145 -156 -223t-190 -78q-66 0 -109 40t-43 117z" />
    <glyph glyph-name="j" unicode="j" horiz-adv-x="557" 
d="M438 1286q0 53 39 92t92 39t93 -39t38 -92q0 -53 -38 -92t-92 -39t-93 39t-39 92zM567 748q0 -82 -61 -314l-84 -315q-97 -379 -227 -528q-53 -60 -131 -101t-174 -41q-95 0 -156 43q-62 43 -62 92t28 80t81 31q73 0 104 -105q20 -65 53 -65t57 37q23 38 37 64t30 67
q54 147 72 219q18 73 38 143l72 262q12 45 34 120t27 102t19 79t14 102t-29 50q-49 0 -143 -162l-16 -28l-44 24l19 33q27 47 35 61t43 64q97 138 206 136q158 -3 158 -150z" />
    <glyph glyph-name="k" unicode="k" horiz-adv-x="958" 
d="M778 702q0 35 -22 58q-23 23 -56 22q-88 0 -170 -105t-120 -265q208 72 288 148t80 142zM856 96q51 0 121 164l10 25l41 -13l-10 -28q-69 -187 -165 -239q-48 -25 -115 -25q-66 0 -110 42t-44 115q0 35 16 105t16 109q0 38 -38 61l-191 -82l-90 -330h-227l290 1081
q29 106 29 138t-21 54q-22 23 -46 27t-64 7l-27 2l17 57q281 7 424 27l-174 -676q133 180 323 180q82 0 125 -43q43 -42 43 -106q1 -64 -67 -145t-230 -148l-39 -17q66 -4 113 -44t53 -107v-41l-6 -78q0 -72 43 -72z" />
    <glyph glyph-name="l" unicode="l" horiz-adv-x="542" 
d="M375 178q0 -52 37 -51q66 0 147 195l47 -13q-29 -88 -95 -194q-38 -59 -96 -97t-130 -38t-111 42t-39 101t35 199l219 819q12 49 12 86t-20 52t-43 19t-66 9l-26 2l14 57q290 7 442 27l-288 -1020q-39 -143 -39 -195z" />
    <glyph glyph-name="m" unicode="m" horiz-adv-x="1517" 
d="M1360 897q150 0 158 -160q0 -114 -80 -314q-80 -199 -80 -253t37 -55q49 0 139 149l12 21l41 -25l-14 -29q-127 -252 -295 -251q-72 0 -115 40t-43 102t22 137t82 227t60 216q0 66 -53 66q-68 0 -153 -134t-144 -319l-105 -315h-217l166 553q35 119 35 149q0 63 -47 64
q-51 0 -129 -89t-174 -378l-98 -299h-218l97 326q84 283 84 376q0 57 -37 58q-49 0 -139 -180l-43 20q74 186 191 261q56 36 114 36t95 -35q38 -36 38 -108t-17 -129h7q55 104 145 188t190 84q56 0 102 -33t46 -108q0 -35 -23 -131h7q55 121 151 197t205 75z" />
    <glyph glyph-name="n" unicode="n" horiz-adv-x="1040" 
d="M293 692q0 74 -37 74q-53 0 -125 -160l-10 -22l-43 18l14 31q89 190 184 238q49 26 109 26q137 0 137 -156q0 -61 -18 -149h4q36 83 100 159q123 146 271 146q84 0 127 -47t43 -119q0 -33 -22 -132t-79 -252q-58 -152 -57 -181q0 -53 43 -53q51 0 133 143l18 33l39 -23
q-74 -139 -142 -213t-171 -73q-63 0 -108 36q-44 37 -44 105t29 155l98 306q29 88 29 120q0 66 -61 66q-48 0 -102 -59t-122 -196t-114 -286l-74 -227h-217l98 362q70 256 70 330z" />
    <glyph glyph-name="o" unicode="o" horiz-adv-x="948" 
d="M754 700q0 127 -105 127q-86 0 -151 -106q-52 -80 -98 -259q-46 -180 -46 -266t33 -116t72 -31q141 0 233 309q62 215 62 342zM979 539q0 -215 -155 -387t-369 -172q-156 0 -244 104t-88 252q0 215 151 388q152 173 367 173q156 0 247 -101t91 -257z" />
    <glyph glyph-name="p" unicode="p" horiz-adv-x="1083" 
d="M877 638q0 85 -36 116t-79 30q-70 0 -138 -91t-106 -220q-39 -129 -39 -244q0 -139 105 -139q80 0 150 104t107 231q36 128 36 213zM866 897q106 0 177 -74t71 -225q0 -248 -139 -433t-338 -185q-143 0 -205 129l-108 -412q-18 -74 -19 -107q0 -80 82 -86l51 -4l-16 -59
l-268 4l-242 -4l16 59l39 4q72 7 104 96q13 36 21 68t10 39l273 1014q-95 -45 -149 -99t-87 -149l-57 23q18 61 55 114t62 76t87 74t100 99t63 142l59 218l197 -35l-113 -424q113 137 274 137z" />
    <glyph glyph-name="q" unicode="q" horiz-adv-x="987" 
d="M465 100q79 0 151 108t107 232t35 200q0 74 -31 108t-74 34q-83 0 -153 -101t-105 -223t-35 -206t33 -118t72 -34zM717 -406q1 -36 29 -60t71 -26l45 -2l-14 -57l-199 4l-336 -4l17 57l41 2q57 2 86 46t51 124l113 439q-111 -137 -252 -137q-94 0 -170 72t-76 210
q0 140 58 282t174 248q115 106 259 105q144 0 193 -164l37 144h211l-307 -1137q-31 -110 -31 -146z" />
    <glyph glyph-name="r" unicode="r" horiz-adv-x="792" 
d="M287 700q0 55 -35 56q-63 0 -125 -152l-12 -31l-45 23q66 160 148 230t154 71q72 0 107 -42q35 -43 35 -107t-27 -170l7 -3l28 60q58 114 98 164q77 98 179 98q57 0 106 -33t49 -97t-36 -98t-90 -34q-60 1 -101 73q-10 18 -35 17q-51 0 -109 -100t-147 -361l-90 -264
h-233l90 285q84 264 84 415z" />
    <glyph glyph-name="s" unicode="s" horiz-adv-x="712" 
d="M356 51q51 0 86 38t35 94t-52 117q-17 22 -61 71t-68 79t-46 80t-23 99q0 111 90 189q91 78 233 79q142 0 200 -49q58 -48 57 -98q0 -50 -25 -76q-24 -26 -60 -27q-36 1 -55 19t-24 33q-4 15 -8 44q-14 90 -82 91q-47 0 -77 -33t-30 -86t76 -133q122 -122 148 -174
q34 -69 37 -138q-1 -122 -91 -206t-236 -84t-224 54t-78 132q0 47 25 76q26 28 71 28t71 -26t25 -64l-6 -59q0 -27 20 -49t72 -21z" />
    <glyph glyph-name="t" unicode="t" horiz-adv-x="583" 
d="M377 178q0 -74 47 -74q76 0 170 170l18 35l39 -20q-30 -71 -111 -184q-42 -56 -102 -91q-60 -34 -126 -34t-112 45t-46 132t43 238l106 400h-168l19 82h172l86 313h223l-84 -313h199l-23 -82h-199l-114 -435q-37 -145 -37 -182z" />
    <glyph glyph-name="u" unicode="u" horiz-adv-x="1087" 
d="M172 145q0 33 18 119t57 192t61 166t22 89q0 53 -43 53q-51 0 -133 -143l-19 -33l-39 22q74 139 143 213t171 74q63 0 107 -37t44 -91q0 -55 -11 -104t-18 -65l-98 -305q-29 -88 -28 -121q0 -66 61 -65q47 0 101 59t121 194t116 287l74 228h217l-99 -363
q-69 -256 -69 -330t37 -73q53 0 125 159l10 23l43 -19l-15 -30q-88 -188 -184 -239q-49 -26 -108 -25q-137 0 -138 155q0 61 19 150h-4q-36 -81 -117 -180q-106 -125 -260 -125q-78 0 -121 47t-43 118z" />
    <glyph glyph-name="v" unicode="v" horiz-adv-x="954" 
d="M813 797q0 39 24 69t68 31q115 1 115 -157t-80 -336t-225 -301q-145 -124 -312 -123q-117 0 -185 58t-66 148q0 184 274 459l55 55l-4 7q-45 -33 -85 -33t-87 14t-74 14t-35 -10t-3 -23t-3 -23t-34 -11q-35 1 -35 69t41 125q81 113 223 7q45 -45 83 -45t52 14
q14 15 22 33t12 22q3 4 4 6t3 7t4 7t8 11q6 8 13 10q6 2 10 3t14 1t24 -13q14 -14 13 -34q0 -20 -69 -151q-156 -291 -156 -420q0 -80 36 -123t87 -43q100 0 193 129t93 338l-6 84q-12 123 -12 125z" />
    <glyph glyph-name="w" unicode="w" horiz-adv-x="1409" 
d="M1315 561q-1 69 -13 141q-12 71 -12 105q0 35 25 63t59 27q104 0 105 -162q0 -205 -138 -459q-74 -137 -178 -217q-103 -79 -213 -79t-164 58q-53 58 -49 146q-150 -205 -342 -204q-96 0 -155 61t-60 156q0 190 285 491l-6 8q-53 -37 -111 -37q-58 1 -83 11t-47 10
t-32 -16t-12 -27q-4 -25 -24 -25q-29 0 -29 95q0 38 16 80q31 83 119 83q59 0 98 -34l19 -19q41 -41 77 -41t53 30q5 9 11 31t8 25q14 41 51 41q49 0 50 -53q1 -16 -9 -34t-45 -78q-171 -295 -172 -459q0 -74 39 -112q38 -38 100 -38t119 75t86 185l113 424h229l-120 -444
q-43 -167 9 -224q30 -33 75 -32q94 0 181 127t87 321z" />
    <glyph glyph-name="x" unicode="x" horiz-adv-x="874" 
d="M682 -20q-59 0 -102 51q-16 18 -38 59t-30 63t-29 72l-24 64l-39 -62q-121 -194 -186 -229q-34 -18 -74 -18t-70 28q-29 28 -29 70q0 90 89 205l18 24l45 -31q-51 -70 -51 -124t39 -54q28 0 56 36q52 68 70 101q19 32 27 41l70 103l-102 264q-35 96 -60 96
q-43 0 -65 -129l-7 -32l-59 12l6 31q57 276 221 276q92 0 140 -79q28 -45 61 -128l25 -67l49 73q76 113 130 157t107 44t83 -28t30 -70q0 -68 -109 -209l-47 35l17 24q39 59 39 107t-39 47q-55 0 -176 -187l-54 -81l54 -152l9 -27q7 -20 11 -32l11 -33q7 -21 13 -35t15 -32
q32 -73 64 -74q41 0 79 120l13 37l55 -16l-14 -45q-86 -266 -242 -266z" />
    <glyph glyph-name="y" unicode="y" horiz-adv-x="827" 
d="M264 897q186 0 275 -405q45 -211 61 -441q59 115 105 254q45 139 45 217t-44 166t-42 122q0 34 26 60t54 27q124 0 124 -172q0 -281 -197 -661t-403 -537q-123 -94 -235 -94q-67 1 -93 31t-26 67t28 66t62 29t86 -17q68 -14 78 -15q94 0 166 88t72 240q0 154 -74 456
t-127 345q-15 10 -27 10q-32 1 -43 -59q-12 -60 -10 -123l2 -41h-49l-2 45q-8 217 69 288q59 54 119 54z" />
    <glyph glyph-name="z" unicode="z" horiz-adv-x="749" 
d="M378 238l236 -17q48 0 74 27q27 27 27 59l-2 19v14q2 16 20 16q17 0 33 -38t16 -124t-61 -150t-140 -64t-155 47q-23 14 -67 46q-43 32 -71 46t-55 14t-47 -16q-20 -15 -25 -27t-19 -39l-19 -39q-15 -32 -41 -32q-52 0 -53 47q0 33 34 71l521 582q-63 -29 -105 -29
t-108 8q-65 9 -79 9q-41 2 -56 -27l-12 -21q-9 -21 -9 -51q-6 -20 -22 -20q-23 0 -37 49t-15 98q-1 90 57 146t135 55q77 0 184 -82q65 -49 115 -49t91 89q19 42 53 42q45 0 45 -41q1 -28 -19 -45q-20 -18 -22 -20l-504 -576q63 23 102 23z" />
    <glyph glyph-name="braceleft" unicode="{" horiz-adv-x="811" 
d="M449 460q1 -70 -19 -133q-20 -61 -32 -95q-82 -237 -81 -310q0 -72 37 -108t75 -43q38 -6 83 -2l-12 -50l-131 2q-144 0 -195 40t-51 124t37 199l37 104q76 183 75 310q0 88 -141 86l10 43q104 -18 159 41q54 59 89 209l10 45q62 262 110 336q48 73 78 105q50 53 136 61
t125 8l127 2l-14 -50q-170 12 -239 -90q-36 -53 -54 -102t-41 -137l-21 -80q-60 -253 -168 -321q-51 -32 -125 -46v-6q53 -8 95 -40t41 -102z" />
    <glyph glyph-name="bar" unicode="|" horiz-adv-x="587" 
d="M307 1364h166v-1706h-166v1706z" />
    <glyph glyph-name="braceright" unicode="}" horiz-adv-x="819" 
d="M354 744q0 58 22 134t58 191q37 115 37 184q0 145 -195 131l15 50l125 -2q156 0 200 -38q43 -38 43 -108q1 -71 -17 -149q-18 -79 -64 -225t-46 -197q1 -82 144 -88l-12 -43q-97 13 -142 -30q-25 -24 -44 -45q-23 -26 -58 -171l-37 -156q-45 -184 -70 -241
q-98 -215 -366 -220l-131 -2l14 50q166 -20 236 86q37 57 57 110t45 150l22 84q57 208 104 276t97 91q51 23 101 36l2 6q-140 21 -140 136z" />
    <glyph glyph-name="asciitilde" unicode="~" horiz-adv-x="1306" 
d="M878 1264q-70 0 -184 42q-113 42 -168 42t-88 -20t-52 -42t-21 -24l-19 -19l-39 25q117 215 268 215q81 0 181 -40t159 -40q105 0 181 98l39 -24q-41 -85 -114 -149t-143 -64z" />
    <glyph glyph-name="currency" unicode="&#xa4;" horiz-adv-x="1323" 
d="M473 702q0 -131 90 -221t221 -90t222 90q90 90 90 221q0 132 -90 222t-222 90t-221 -90q-90 -90 -90 -222zM1288 704q0 -176 -108 -313l194 -194l-84 -86l-196 196q-132 -109 -308 -109t-311 107l-194 -194l-84 86l192 194q-109 137 -109 312t107 307l-194 194l86 84
l192 -192q133 110 310 110t317 -108l194 192l86 -84l-196 -196q106 -130 106 -306z" />
    <glyph glyph-name="brokenbar" unicode="&#xa6;" horiz-adv-x="532" 
d="M324 1370h168v-551h-168v551zM324 0v549h168v-549h-168z" />
    <glyph glyph-name="section" unicode="&#xa7;" horiz-adv-x="1136" 
d="M809 289q45 0 81 36t36 83q0 94 -128 246t-204 151q-43 0 -78 -33t-35 -89t76 -170q75 -114 141 -169t111 -55zM540 -309q-138 1 -223 65q-86 64 -86 158q0 61 38 97t85 36t80 -31q33 -32 33 -70q-1 -38 -17 -58t-34 -41q-18 -20 -19 -33q-1 -12 11 -24q29 -32 121 -33
q91 -1 138 47q46 48 46 106q0 111 -174 305q-63 72 -99 114q-36 41 -72 113t-36 131q0 106 64 198q65 91 167 91q31 0 62 -8q-103 133 -103 260t102 201t234 74q131 1 210 -61t79 -140q0 -49 -33 -86t-80 -37t-78 32q-30 32 -30 69t9 49q9 13 25 29t17 41q0 25 -35 37
t-63 13q-72 0 -123 -43t-51 -95q1 -53 33 -115t54 -91t80 -101t94 -124q36 -51 68 -127t33 -147q0 -113 -69 -185t-158 -71q-27 0 -60 8q106 -123 106 -250t-104 -215t-242 -88z" />
    <glyph glyph-name="copyright" unicode="&#xa9;" horiz-adv-x="1560" 
d="M1194 1071v-248h-37q-27 82 -86 132q-59 51 -135 51t-134 -81t-58 -246t54 -239q56 -74 142 -73q113 0 219 120l39 -36q-127 -152 -296 -152q-170 0 -280 103q-110 104 -110 270t111 280t272 115q61 0 174 -39q74 -29 86 43h39zM270 684q0 -258 184 -441t441 -183
q258 0 441 182q184 184 184 441t-184 439t-441 182t-441 -180q-184 -182 -184 -440zM184 684q0 295 208 501t504 206t503 -207t207 -501t-208 -502t-503 -208t-503 208t-208 503z" />
    <glyph glyph-name="guillemotleft" unicode="&#xab;" horiz-adv-x="954" 
d="M991 741q0 -43 -256 -295l13 -20q113 -193 118 -256v-8q-2 -12 -13 -12t-34 26q-78 98 -196 213l-68 66l66 45q25 16 67 45t78 52q35 23 176 140q25 20 35 21q14 0 14 -17zM649 739q0 -43 -256 -295l13 -20q113 -193 118 -256v-8q-10 -30 -47 14q-78 98 -196 213l-68 66
l66 45q25 16 67 45t78 52q35 23 176 140q25 20 35 21q14 0 14 -17z" />
    <glyph glyph-name="logicalnot" unicode="&#xac;" horiz-adv-x="1052" 
d="M797 0v428h-619v119h893v-547h-274z" />
    <glyph glyph-name="registered" unicode="&#xae;" horiz-adv-x="1648" 
d="M629 707h55q156 0 156 146t-170 146h-41v-292zM326 1057h385q230 0 300 -90q33 -45 33 -116t-43 -120t-104 -67l168 -267q35 -49 88 -49v-39h-244l-204 357h-76v-238q0 -43 15 -60t52 -18h35v-41h-399v41h37q61 0 61 78v510q0 43 -15 60t-53 18h-36v41zM86 684
q0 -258 183 -441t441 -183t442 182q183 184 183 441t-183 439t-441 182q-257 0 -441 -180q-184 -182 -184 -440zM0 684q0 295 208 501t504 206t502 -207t207 -501q0 -294 -208 -502q-209 -208 -503 -208t-502 208t-208 503z" />
    <glyph glyph-name="degree" unicode="&#xb0;" horiz-adv-x="811" 
d="M479 1137q0 -63 44 -107q43 -44 107 -45q64 0 108 44q44 43 44 107t-44 108t-107 44t-107 -44t-45 -107zM379 1137q0 104 75 179t179 75t179 -75t75 -179q0 -103 -75 -179t-179 -76t-179 76q-75 75 -75 179z" />
    <glyph glyph-name="plusminus" unicode="&#xb1;" horiz-adv-x="1124" 
d="M178 195h965v-127h-965v127zM178 799h416v403h131v-403h418v-127h-418v-391h-131v391h-416v127z" />
    <glyph glyph-name="mu" unicode="&#xb5;" horiz-adv-x="1073" 
d="M918 180q0 -70 43 -69q63 0 126 143l17 37l39 -15l-15 -34q-43 -104 -115 -184q-73 -79 -163 -78q-152 0 -160 126l-2 25q-164 -162 -285 -162q-75 0 -115 49t-34 125q-31 -125 -36 -267t-20 -184t-49 -66q-34 -23 -76 -23q-42 1 -66 29q-39 46 -22 102t52 123
q166 379 244 669l94 351h221l-141 -529q-33 -127 -33 -174q0 -92 72 -92q43 0 102 41t100 90l178 664h220q-176 -555 -176 -697z" />
    <glyph glyph-name="mu" unicode="&#x3bc;" horiz-adv-x="1073" 
d="M918 180q0 -70 43 -69q63 0 126 143l17 37l39 -15l-15 -34q-43 -104 -115 -184q-73 -79 -163 -78q-152 0 -160 126l-2 25q-164 -162 -285 -162q-75 0 -115 49t-34 125q-31 -125 -36 -267t-20 -184t-49 -66q-34 -23 -76 -23q-42 1 -66 29q-39 46 -22 102t52 123
q166 379 244 669l94 351h221l-141 -529q-33 -127 -33 -174q0 -92 72 -92q43 0 102 41t100 90l178 664h220q-176 -555 -176 -697z" />
    <glyph glyph-name="paragraph" unicode="&#xb6;" horiz-adv-x="1126" 
d="M733 -272q0 -29 24 -44q25 -16 47 -18t64 -2h21l-21 -74h-368l469 1678h-99l-469 -1678h-389l21 74h30q127 0 171 48t96 235l192 692h-22q-270 0 -271 160q0 203 127 376q64 85 178 138t259 55q23 0 215 -8t358 8l-23 -74l-36 -2q-119 -4 -162 -73q-34 -52 -51 -121
l-324 -1153q-37 -133 -37 -217z" />
    <glyph glyph-name="periodcentered" unicode="&#xb7;" horiz-adv-x="512" 
d="M109 451q0 59 44 103t103 44t103 -44t44 -103t-44 -103t-103 -45q-59 1 -103 45t-44 103z" />
    <glyph glyph-name="periodcentered" unicode="&#x2219;" horiz-adv-x="512" 
d="M109 451q0 59 44 103t103 44t103 -44t44 -103t-44 -103t-103 -45q-59 1 -103 45t-44 103z" />
    <glyph glyph-name="guillemotright" unicode="&#xbb;" horiz-adv-x="952" 
d="M537 145q-16 0 -17 19q0 41 256 295l-12 20q-102 170 -119 252v12q7 40 63 -32t181 -195l67 -65l-36 -25q-283 -188 -347 -254q-20 -27 -36 -27zM195 145q-16 0 -17 19q0 41 256 295l-12 20q-102 170 -119 252v12q4 13 16 13q11 0 57 -58t171 -182l67 -65l-36 -25
q-283 -188 -347 -254q-20 -27 -36 -27z" />
    <glyph glyph-name="afii10023" unicode="&#x401;" horiz-adv-x="1251" 
d="M956 1585q0 51 36 87t87 36t87 -36t36 -87t-36 -87t-87 -36t-87 36t-36 87zM559 1585q0 51 36 87t87 36t87 -36t36 -87t-36 -87t-87 -36t-87 36t-36 87zM500 1210q0 34 -22 56q-22 20 -42 23t-57 5l-55 2l18 72q303 -14 1036 0q10 -219 23 -348h-76q-43 266 -342 266h-74
q-8 0 -25 1q-43 3 -60 -19q-17 -24 -31 -76l-115 -416h61q119 0 195 44t113 157h75q-78 -270 -135 -541h-78q8 47 9 99q0 152 -197 151h-68l-98 -346q-23 -84 -23 -127q0 -125 205 -125t318 71q113 72 168 216h73l-104 -379l-864 6l-295 -6l20 72q104 0 134 46q29 46 53 128
l225 813q35 121 35 155z" />
    <glyph glyph-name="afii10051" unicode="&#x402;" horiz-adv-x="1681" 
d="M1192 1276h-102l-142 -506q178 51 305 51q127 1 199 -23q125 -41 173 -142q36 -72 36 -176q1 -104 -61 -220q-62 -117 -189 -200t-279 -83t-226 65q-73 65 -72 144q0 41 29 72q30 31 71 31q40 0 62 -22t28 -41t13 -55t11 -50q4 -15 20 -35q17 -20 44 -20q84 0 163 122
t79 316q0 201 -199 201q-84 0 -233 -31l-189 -674l-110 2l-375 -6l18 72l62 2q50 2 74 8t55 45t51 117l289 1036h-80q-234 0 -332 -126q-45 -58 -70 -146h-82l107 364q330 -4 426 -4l788 4l-2 -383h-73q-12 291 -287 291z" />
    <glyph glyph-name="afii10052" unicode="&#x403;" horiz-adv-x="1097" 
d="M1182 1847q38 1 66 -27t28 -63q0 -70 -115 -137l-338 -199h-84l293 336q29 33 41 46t41 29t68 15zM915 1282q-50 0 -64 -7q-15 -7 -21 -9t-14 -16q-7 -14 -12 -35t-7 -27l-256 -922q-26 -94 -15 -126q16 -50 69 -59q17 -3 48 -5l27 -2l-21 -78q-215 8 -327 6l-289 -6
l18 72l43 2q51 2 83 30t41 54q9 25 26 86l239 864q41 141 -5 171q-26 17 -87 19l-63 2l20 72l352 -6l664 6l-12 -352h-76q-6 76 -38 130t-67 80q-75 56 -202 56h-54z" />
    <glyph glyph-name="afii10053" unicode="&#x404;" horiz-adv-x="1302" 
d="M994 729q30 1 85 19t90 40l33 -51q-72 -59 -165 -109t-149 -50t-112 34q-65 48 -93 61t-75 13t-100 -29q-29 -105 -29 -219q0 -223 98 -304q81 -66 166 -66q127 0 262 91q134 91 203 244l82 -41q-84 -176 -242 -284t-377 -107q-220 0 -364 151q-143 151 -143 376t106 429
t296 335t402 131q210 0 345 -127l61 102h76l-25 -123q-15 -74 -28 -155q-14 -80 -29 -140h-78q-18 354 -278 355q-142 1 -282 -147t-202 -415q135 90 222 91q42 0 74 -18t62 -41q30 -22 54 -34t54 -12z" />
    <glyph glyph-name="afii10054" unicode="&#x405;" horiz-adv-x="989" 
d="M742 1305q-89 -1 -140 -57t-51 -113t13 -84t28 -58t56 -73q40 -42 46 -48t33 -32t59 -56q172 -167 210 -288q19 -61 20 -131q0 -170 -120 -281t-326 -111t-359 150l-51 -107h-88q49 231 80 428l75 -10q2 -170 88 -271q85 -101 195 -101t179 56q69 58 69 138t-42 156
t-73 108t-103 106t-113 118q-40 44 -77 122t-37 162q0 158 112 261t282 103t313 -120l51 96h82l-18 -80q-61 -268 -70 -317l-76 14l-2 49q-6 137 -81 204t-164 67z" />
    <glyph glyph-name="afii10055" unicode="&#x406;" horiz-adv-x="741" 
d="M330 1296l20 72l352 -6l289 6l-20 -72l-45 -2q-72 -4 -99 -53q-26 -49 -47 -125l-241 -876q-34 -114 4 -149q20 -19 82 -21l67 -2l-18 -72l-352 6l-289 -6l18 72l43 2q79 4 107 51q17 29 30 69l14 42t1 8l241 876q18 61 19 103q0 74 -113 75z" />
    <glyph glyph-name="afii10056" unicode="&#x407;" horiz-adv-x="741" 
d="M727 1552q0 51 36 87t87 36t87 -36t36 -87t-36 -87q-36 -35 -87 -35t-87 36t-36 86zM377 1552q0 51 36 87t87 36t87 -36t36 -87t-36 -87q-36 -35 -87 -35t-87 36t-36 86zM330 1296l20 72l352 -6l289 6l-20 -72l-45 -2q-72 -4 -99 -53q-26 -49 -47 -125l-241 -876
q-34 -114 4 -149q20 -19 82 -21l67 -2l-18 -72l-352 6l-289 -6l18 72l43 2q79 4 107 51q17 29 30 69l14 42t1 8l241 876q18 61 19 103q0 74 -113 75z" />
    <glyph glyph-name="afii10057" unicode="&#x408;" horiz-adv-x="722" 
d="M-96 -553q-166 -1 -248 63t-82 146q0 51 37 85t81 34q79 0 105 -63q16 -40 24 -66q7 -27 9 -31t10 -27t18 -31q11 -7 21 -15t37 -7q26 0 52 11t46 40t40 61q22 35 54 157q33 122 39 143l308 1102q35 125 35 153q-1 84 -80 91q-12 1 -35 1l-62 2l19 72l299 -6l342 6
l-21 -72l-47 -2q-59 -2 -86 -38t-49 -117l-256 -920q-98 -354 -147 -463q-98 -217 -269 -278q-84 -31 -194 -31z" />
    <glyph glyph-name="afii10058" unicode="&#x409;" horiz-adv-x="1853" 
d="M1448 98q125 0 223 124t98 300q0 182 -190 183q-90 -1 -117 -5l-114 -434q-43 -168 100 -168zM1493 1362q166 0 332 6l-21 -72l-26 -2q-47 -4 -69 -9q-69 -16 -97 -80q-18 -40 -37 -107l-82 -303q61 6 121 6q246 0 342 -60q137 -84 137 -241q0 -194 -142 -342
q-71 -74 -193 -118t-275 -44l-355 6q-133 0 -329 -6l22 72l27 2q57 4 93 16q35 12 57 43t29 49t17 51t11 39l262 944q10 35 1 45t-38 11h-174q-18 0 -32 -2t-26 -3t-22 -9t-17 -9q-7 -2 -15 -14t-14 -20q-7 -8 -18 -47q-12 -39 -22 -60l-86 -238q-213 -584 -461 -790
q-121 -102 -262 -103q-61 0 -106 35t-45 96t40 103q40 41 98 41t104 -36t59 -36q61 0 127 70q127 135 240 377q114 242 161 413q33 98 19 154t-47 76q-32 20 -93 26l-35 4l23 72l158 -4l67 -2h592z" />
    <glyph glyph-name="afii10059" unicode="&#x40a;" horiz-adv-x="2179" 
d="M1833 532q0 164 -188 164q-74 0 -123 -12l-115 -418q-31 -120 21 -151q28 -16 79 -17q104 0 183 78q78 78 110 174q33 96 33 182zM1350 1104q20 72 20 108t-14 57t-99 25l-61 2l21 72l352 -6l289 6l-21 -72l-43 -2q-81 -4 -107 -55q-26 -50 -42 -115l-95 -346
q90 12 133 13q475 0 476 -299q1 -139 -101 -283q-102 -143 -260 -179t-481 -30l-129 2l-291 -6l21 72l43 2q56 4 77 23q37 34 52 90t16 57l117 413h-576l-106 -393q-40 -139 1 -171q22 -17 91 -19l61 -2l-20 -72l-350 6l-291 -6l20 72l43 2q75 4 101 46q16 26 21 36t15 49
l252 903q28 108 19 142q-8 34 -39 40t-72 8l-61 2l20 72l353 -6l288 6l-20 -72l-43 -2q-81 -6 -113 -64q-19 -37 -28 -71q-9 -33 -9 -35l-104 -376h575z" />
    <glyph glyph-name="afii10060" unicode="&#x40b;" horiz-adv-x="1757" 
d="M1196 1276h-104l-140 -506q195 51 336 51q356 0 357 -256q0 -88 -21 -153l-47 -152q-18 -47 -18 -106q0 -78 104 -84h8l66 -2l-23 -72l-352 6l-272 -6l20 72l27 2q63 4 91 36t56 134l45 159q29 109 29 163t-44 98t-138 44t-254 -30l-101 -369q-35 -125 -35 -166
q0 -70 121 -69h33l-20 -74l-297 6l-375 -6l18 72l64 2q82 4 118 34t64 136l289 1036h-80q-234 0 -334 -126q-45 -58 -70 -146h-81l106 364q461 -4 549 -4l665 4l-2 -383h-73q-12 291 -285 291z" />
    <glyph glyph-name="afii10061" unicode="&#x40c;" horiz-adv-x="1609" 
d="M1506 1847q38 1 66 -27t27 -63q0 -70 -114 -137l-338 -199h-84l293 336q29 33 41 46t41 29q30 16 68 15zM840 1362q50 0 124 3t169 3l-21 -72l-47 -4q-129 -12 -168 -65q-23 -31 -31 -53t-22 -72l-92 -338h98q80 0 146 42t98 80q31 38 99 142q68 103 105 150
q38 47 92 102q108 109 240 109q92 1 138 -45t46 -104t-44 -96t-104 -38t-103 31l-21 14q-43 31 -74 31q-30 0 -70 -42t-100 -138t-73 -113q-80 -109 -183 -162v-8q152 -53 226 -244q14 -37 43 -140t56 -150q28 -46 81 -46t90 70l70 -39q-52 -94 -142 -145t-172 -51
q-140 -1 -213 72q-55 57 -86 230l-32 201q-19 117 -53 151t-113 34h-74l-109 -396q-29 -100 -16 -131q23 -53 129 -63l45 -4l-22 -72l-289 6h-135q-51 0 -124 -3t-169 -3l22 72l45 4q98 10 127 26q59 35 97 170l229 834q36 126 2 158q-36 32 -95 32h-22l-43 4l21 72l289 -6
h135z" />
    <glyph glyph-name="afii10062" unicode="&#x40e;" horiz-adv-x="1331" 
d="M803 1802q101 0 99 -74q-1 -50 -33 -72q-17 -13 -17 -28q0 -34 42 -64t120 -30t148 30t71 64l-14 66q1 44 37 76t92 32q96 0 96 -82q0 -92 -123 -177t-328 -85q-149 0 -233 62t-84 128q0 68 38 111t89 43zM274 1368q115 -4 435 -4l61 2q10 0 44 1t106 1l-19 -78l-33 -4
q-103 -12 -124 -65q-11 -27 -11 -65t33 -136l121 -410q369 528 368 592q0 100 -122 88l18 78q115 -8 195 -6l225 6l-19 -78q-86 -14 -163 -104t-457 -672q-180 -281 -290 -388q-111 -107 -178 -133q-66 -26 -134 -26t-117 40q-49 39 -49 101t48 104t106 42t106 -44t85 -44
q36 0 83 59l82 105l-260 817q-23 73 -56 107t-102 36z" />
    <glyph glyph-name="afii10145" unicode="&#x40f;" horiz-adv-x="1599" 
d="M1366 150q0 -78 83 -78q3 0 30 -2l61 -2l-18 -72l-283 6h-88q-205 0 -299 -74t-166 -286h-82q23 109 23 221q0 139 -254 139h-101l-239 -6l20 72l41 2q84 5 116 64q10 22 20 60t14 46l241 864q39 140 -1 171q-22 17 -91 19l-61 2l18 72l352 -6l289 6l-18 -72l-43 -2
q-73 -4 -98 -50t-48 -120l-266 -952q-19 -72 60 -74h393q45 0 71 24t33 50l258 932q40 139 -1 171q-22 17 -91 19l-61 2l18 72l352 -6l289 6l-18 -72l-43 -2q-73 -4 -98 -50t-48 -120l-239 -864q-27 -82 -27 -110z" />
    <glyph glyph-name="afii10017" unicode="&#x410;" horiz-adv-x="1253" 
d="M850 528l-78 514q-193 -295 -305 -514h383zM899 174q0 45 -25 188l-12 70h-450l-13 -20q-113 -186 -112 -246q1 -37 27 -60t47 -27t85 -11l-20 -72l-264 6l-225 -6l20 72q63 8 113 42t74 66t59 94q377 676 678 1116h98l172 -1064q25 -145 46 -195q22 -49 83 -55l45 -4
l-20 -72l-291 6l-301 -6l20 72l33 2q104 6 123 40q10 18 10 64z" />
    <glyph glyph-name="afii10018" unicode="&#x411;" horiz-adv-x="1282" 
d="M639 100q104 0 182 77t109 166t31 165q0 193 -224 192q-50 0 -75 -4l-119 -430q-47 -166 96 -166zM961 1282h-43q-76 0 -91 -21t-20 -44q-6 -23 -8 -29l-109 -393l80 6q25 2 116 2t184 -30q152 -49 202 -180q18 -50 18 -106q0 -193 -150 -325t-310 -151t-309 -13
q-150 6 -199 4l-289 -6l18 72l43 2q79 4 107 51q17 29 30 69l14 42t1 8l239 864q19 74 19 108t-20 54t-38 23t-53 5l-63 2l20 72l352 -6l654 6l-13 -352h-75q-4 83 -59 166q-31 44 -95 72t-153 28z" />
    <glyph glyph-name="afii10019" unicode="&#x412;" horiz-adv-x="1306" 
d="M537 205q1 -53 37 -88t102 -35q145 0 221 126t76 254t-72 184t-190 52l-52 -2l-104 -377q-18 -61 -18 -114zM905 1280q-55 0 -72 -13t-32 -63l-115 -416l45 -2q174 -8 268 78t95 232q0 184 -189 184zM500 1218q0 40 -20 56q-20 18 -95 20l-61 2l20 72l328 -6l248 4
q242 4 354 -86t110 -214q0 -124 -106 -226t-348 -113q162 -19 257 -111t95 -209t-71 -213q-42 -58 -105 -102t-172 -70q-109 -28 -246 -26l-315 6l-340 -6l20 72q104 0 136 50q19 30 28 50q8 20 23 72l225 809q35 129 35 169z" />
    <glyph glyph-name="afii10020" unicode="&#x413;" horiz-adv-x="1097" 
d="M915 1282q-50 0 -64 -7q-15 -7 -21 -9t-14 -16q-7 -14 -12 -35t-7 -27l-256 -922q-26 -94 -15 -126q16 -50 69 -59q17 -3 48 -5l27 -2l-21 -78q-215 8 -327 6l-289 -6l18 72l43 2q51 2 83 30t41 54q9 25 26 86l239 864q41 141 -5 171q-26 17 -87 19l-63 2l20 72l352 -6
l664 6l-12 -352h-76q-6 76 -38 130t-67 80q-75 56 -202 56h-54z" />
    <glyph glyph-name="afii10021" unicode="&#x414;" horiz-adv-x="1533" 
d="M1251 1255q0 12 -37 13h-215q-70 0 -88 -62l-59 -184q-133 -412 -426 -793q-45 -61 -70 -79q-24 -18 -24 -31q0 -18 30 -19h504q45 0 65 24t36 79l280 1007q4 12 4 45zM932 1362h575q45 0 114 3t155 3l-23 -72l-41 -4q-84 -8 -110 -22q-57 -39 -95 -168l-256 -918
q-8 -33 -8 -51q0 -33 57 -33h113l-135 -477h-78q13 99 6 169q-8 70 -22 98t-26 46t-38 31q-25 13 -40 19q-33 15 -89 14h-532q-59 0 -91 -2t-92 -22t-103 -56q-42 -37 -96 -113t-100 -184h-79l135 477h65q61 0 113 43q150 125 300 368q151 243 232 527q41 151 6 201
q-19 27 -44 37t-66 16l-31 4l23 72q270 -6 301 -6z" />
    <glyph glyph-name="afii10022" unicode="&#x415;" horiz-adv-x="1251" 
d="M500 1210q0 34 -22 56q-22 20 -42 23t-57 5l-55 2l18 72q303 -14 1036 0q10 -219 23 -348h-76q-43 266 -342 266h-88q-49 0 -54 -5t-13 -11q-15 -12 -33 -78l-115 -416h59q119 0 195 44t113 157h75q-78 -270 -135 -541h-78q8 47 9 99q0 152 -197 151h-68l-98 -346
q-23 -84 -23 -127q0 -125 205 -125t318 71q113 72 168 216h73l-104 -379l-864 6l-295 -6l20 72q104 0 134 46q29 46 53 128l225 813q35 121 35 155z" />
    <glyph glyph-name="afii10024" unicode="&#x416;" horiz-adv-x="2330" 
d="M1571 1362q49 0 123 3t170 3l-23 -78l-45 -4q-98 -10 -129 -31q-57 -39 -92 -159l-92 -332h98q119 0 192 75q41 41 67 75t75 110q142 220 237 292t199 72t144 -41t40 -101t-50 -98q-49 -38 -109 -38t-94 36t-76 36t-87 -56q-46 -56 -85 -130q-39 -72 -107 -152t-143 -117
v-8q86 -25 141 -108t109 -257q23 -93 33 -113q10 -19 24 -49q23 -50 74 -52q51 -1 90 69l69 -39q-43 -90 -131 -143t-196 -54q-250 0 -281 303l-22 201q-12 113 -52 149t-114 36h-74l-111 -394q-10 -38 -13 -66t-5 -46t10 -32q11 -14 15 -22q4 -6 28 -12t29 -6l53 -6l43 -4
l-22 -78l-289 6h-135q-51 0 -124 -3t-169 -3l22 78l48 4q63 6 102 18q38 12 62 41t33 53t24 76l110 396h-65q-80 0 -140 -41t-129 -144l-131 -201q-39 -59 -58 -88q-19 -30 -64 -78q-125 -135 -329 -136t-229 208l86 29q14 -72 68 -72q33 0 65 32q32 33 52 55t63 72t80 91
q258 287 449 332v6q-55 33 -84 147q-6 23 -15 115q-8 92 -29 143q-22 50 -71 50q-16 0 -67 -36t-105 -36t-83 35q-28 35 -28 82q0 74 66 118t164 44q199 0 246 -242q17 -86 24 -156q14 -127 53 -177t133 -50h105l92 332q25 94 11 143q-5 17 -31 29t-39 13q-12 1 -56 5l-45 4
l23 78l289 -6h135z" />
    <glyph glyph-name="afii10025" unicode="&#x417;" horiz-adv-x="1165" 
d="M639 764q145 0 227 112t82 219t-46 153t-122 46q-113 0 -214 -100t-156 -244h-91q51 172 113 418h92l2 -78q154 102 326 102t282 -71q110 -72 110 -200t-88 -234q-87 -106 -257 -154v-6q121 -10 189 -94t67 -197q0 -186 -208 -324t-462 -139q-172 0 -303 70t-131 199
q0 74 46 126q47 52 111 52t101 -30t37 -78t-31 -90t-30 -60q0 -35 46 -67t128 -32q145 0 261 122t116 286q0 68 -27 113q-27 46 -82 66t-100 20h-113l25 94h100z" />
    <glyph glyph-name="afii10026" unicode="&#x418;" horiz-adv-x="1730" 
d="M744 1362q198 0 329 6l-20 -72l-27 -2q-92 -6 -136 -42t-75 -148l-190 -690l796 684q34 101 15 145t-117 51l-25 2l21 78q102 -12 326 -12t329 12l-20 -78l-27 -2q-92 -6 -136 -42t-75 -148l-231 -844q-38 -140 13 -171q26 -15 87 -19l27 -2l-21 -72q-174 6 -363 6
t-294 -12l22 78l27 2q98 8 139 46t70 144l190 686l-794 -682q-54 -137 20 -175q32 -15 80 -19l27 -2l-21 -78q-104 12 -292 12t-365 -6l22 72l27 2q92 6 135 42t74 148l233 844q36 127 1 159q-19 17 -39 22t-64 9l-25 2l21 72q128 -6 326 -6z" />
    <glyph glyph-name="afii10027" unicode="&#x419;" horiz-adv-x="1730" 
d="M1548 1802q96 0 97 -82q0 -92 -123 -177t-328 -85q-150 0 -234 62t-83 128q0 68 37 111q38 43 90 43q98 0 98 -73q0 -35 -25 -58q-59 -54 18 -107q42 -30 120 -30q79 0 149 30t70 64l-15 66q0 44 37 76t92 32zM744 1362q198 0 329 6l-20 -72l-27 -2q-44 -2 -66 -7
q-69 -15 -103 -81q-22 -39 -40 -102l-190 -690l794 684q34 101 15 145t-117 51l-25 2l21 78q102 -12 326 -12t329 12l-20 -78l-27 -2q-92 -6 -136 -42t-75 -148l-231 -844q-38 -140 13 -171q26 -15 87 -19l27 -2l-21 -72q-133 6 -329 6t-328 -6l22 72l27 2q98 8 139 46
t70 144l190 686l-794 -682q-54 -137 20 -175q32 -15 80 -19l27 -2l-21 -72q-132 6 -328 6t-329 -6l22 72l27 2q92 6 135 42t74 148l233 844q36 127 1 159q-19 17 -39 22t-64 9l-25 2l21 72q128 -6 326 -6z" />
    <glyph glyph-name="afii10028" unicode="&#x41a;" horiz-adv-x="1609" 
d="M840 1362q50 0 124 3t169 3l-21 -72l-47 -4q-129 -12 -168 -65q-23 -31 -31 -53t-22 -72l-92 -338h98q80 0 146 42t98 80q31 38 99 142q68 103 105 150q38 47 92 102q108 109 240 109q92 1 138 -45t46 -104t-44 -96t-104 -38t-103 31l-21 14q-43 31 -74 31q-30 0 -70 -42
t-100 -138t-73 -113q-80 -109 -183 -162v-8q152 -53 226 -244q14 -37 43 -140t56 -150q28 -46 81 -46t90 70l70 -39q-52 -94 -142 -145t-172 -51q-140 -1 -213 72q-55 57 -86 230l-32 201q-19 117 -53 151t-113 34h-74l-109 -396q-29 -100 -16 -131q23 -53 129 -63l45 -4
l-22 -72l-289 6h-135q-51 0 -124 -3t-169 -3l22 72l45 4q98 10 127 26q59 35 97 170l229 834q36 126 2 158q-36 32 -95 32h-22l-43 4l21 72l289 -6h135z" />
    <glyph glyph-name="afii10029" unicode="&#x41b;" horiz-adv-x="1597" 
d="M1569 1362q45 0 113 3t155 3l-22 -72l-41 -4q-90 -10 -119 -30q-51 -35 -86 -160l-232 -840q-8 -28 -12 -52t-7 -41t0 -31t4 -22t10 -16l12 -12t34 -10t58 -6l39 -4l-23 -72l-264 6h-148q-48 0 -114 -3t-154 -3l23 72l43 4q92 8 133 41t73 149l265 950q10 35 1 45t-38 11
h-174q-76 0 -102 -27t-42 -73t-17 -48t-2 -7t-3 -9l-86 -242q-205 -571 -461 -786q-121 -102 -262 -103q-61 0 -107 35q-45 35 -45 96q0 60 41 102q40 42 98 42t104 -36t58 -36q59 0 127 70q129 135 241 374t161 412q33 98 17 156t-46 78q-31 20 -92 26l-35 4l23 72l157 -4
l68 -2h676z" />
    <glyph glyph-name="afii10030" unicode="&#x41c;" horiz-adv-x="1851" 
d="M350 193q0 -125 180 -125l-20 -72q-168 8 -260 6l-234 -6l11 72q98 2 144 54t81 175l221 758q35 121 35 157q0 78 -119 82l-37 2l21 72l223 -6l225 6l152 -993l602 993l223 -6l217 6l-10 -72l-49 -4q-70 -6 -98 -51t-46 -145l-139 -820q-12 -72 -12 -92q0 -59 34 -85
t113 -29l35 -2l-10 -72l-367 6l-301 -6l21 72l41 6q83 12 113 47t53 155l163 873l-688 -1153h-102l-168 1153l-205 -735q-43 -152 -43 -221z" />
    <glyph glyph-name="afii10031" unicode="&#x41d;" horiz-adv-x="1593" 
d="M483 1215q0 43 -22 60q-23 17 -90 19l-64 2l21 72l352 -6l289 6l-21 -72l-41 -2q-39 0 -57 -12l-28 -19q-10 -7 -19 -21q-8 -14 -15 -25q-7 -10 -17 -50q-11 -40 -11 -43l-105 -376h572l100 356q41 139 -2 171q-23 17 -90 19l-64 2l21 72l352 -6l289 6l-21 -72l-40 -2
q-56 -4 -82 -29q-27 -25 -36 -48q-8 -23 -12 -32t-10 -33t-8 -28l-242 -864q-20 -66 -20 -108t22 -59t38 -19q17 -2 53 -4l61 -2l-18 -72l-353 6l-288 -6l18 72l43 2q50 3 90 33q25 19 57 137l117 413h-575l-109 -393q-20 -66 -20 -115q0 -70 92 -75h20l62 -2l-19 -72
l-352 6l-289 -6l19 72l43 2q50 3 90 33q12 9 25 42t17 42q3 9 15 53l242 864q20 68 20 111z" />
    <glyph glyph-name="afii10032" unicode="&#x41e;" horiz-adv-x="1445" 
d="M1227 1016q0 289 -223 289q-102 0 -207 -98q-45 -42 -103 -131t-110 -210q-115 -281 -115 -489q0 -100 24 -169q23 -70 63 -98q66 -47 134 -49q129 -1 261 143t218 445q58 203 58 367zM1522 874q0 -225 -110 -431t-304 -338t-426 -132q-230 -1 -374 147t-144 378t115 434
q115 205 309 333q196 128 420 128t369 -147t145 -372z" />
    <glyph glyph-name="afii10033" unicode="&#x41f;" horiz-adv-x="1597" 
d="M1366 149q0 -41 23 -59t90 -20l61 -2l-18 -72l-353 6l-288 -6l18 72l43 2q95 6 122 87q13 39 26 83l266 952q2 14 2 30t-16 30q-16 13 -48 14h-393q-45 0 -71 -24t-31 -50l-260 -932q-39 -138 2 -170q23 -18 90 -20l61 -2l-18 -72l-352 6l-289 -6l18 72l43 2q95 6 122 86
q13 40 26 84l241 864q41 141 -5 171q-26 17 -87 19l-63 2l20 72l1200 -6l289 6l-20 -72l-41 -2q-58 -4 -79 -23t-34 -45t-23 -61t-12 -41l-242 -864q-20 -70 -20 -111z" />
    <glyph glyph-name="afii10034" unicode="&#x420;" horiz-adv-x="1214" 
d="M767 725q72 0 146 27q74 28 114 66q103 99 103 269q0 56 -24 102q-24 45 -70 67t-108 22q-63 0 -90 -22t-45 -87l-123 -442q25 -2 97 -2zM1430 1048q0 -66 -14 -116q-14 -52 -59 -108q-146 -187 -587 -187q-12 0 -123 6l-108 -383q-39 -138 2 -170q23 -18 90 -20l82 -2
l-19 -72l-372 6l-289 -6l18 72l43 2q51 2 83 30t41 54q9 25 26 86l239 864q23 82 23 122t-31 53t-84 15l-63 2l22 72l352 -6l119 2q286 7 413 -47q54 -23 100 -57q96 -74 96 -212z" />
    <glyph glyph-name="afii10035" unicode="&#x421;" horiz-adv-x="1302" 
d="M479 430q0 -117 31 -196q31 -78 81 -112q84 -56 185 -59q150 0 268 111t181 262h82l-35 -131q-2 -10 -18 -69t-36 -127q-19 -68 -36 -121h-82l-2 118q-172 -133 -420 -133q-128 1 -230 49t-162 126q-122 158 -122 366q0 209 107 413q108 204 297 335q190 131 400 131
t345 -127l61 102h76l-25 -123q-15 -74 -28 -155q-14 -80 -29 -140h-78q-8 164 -70 259t-208 96q-201 0 -367 -257t-166 -618z" />
    <glyph glyph-name="afii10036" unicode="&#x422;" horiz-adv-x="1288" 
d="M780 139q0 -66 121 -69l74 -2l-19 -72l-340 6l-374 -6l18 72l62 2q50 2 74 8t55 45t51 117l289 1036h-50q-267 0 -363 -125q-44 -57 -69 -147h-82l107 364q328 -4 426 -4l758 4l-2 -383h-74q-11 217 -162 268q-68 23 -152 23h-47l-272 -971q-29 -92 -29 -166z" />
    <glyph glyph-name="afii10037" unicode="&#x423;" horiz-adv-x="1388" 
d="M332 1368q115 -4 434 -4l61 2q10 0 44 1t106 1l-19 -72l-32 -4q-106 -13 -125 -65q-10 -27 -10 -62t32 -145l121 -410q13 16 60 85q46 69 114 165t105 160q36 64 63 111t27 77q0 100 -123 88l18 72q115 -8 195 -6l225 6l-18 -72q-131 -33 -297 -284q-33 -49 -205 -317
q-173 -268 -291 -416q-117 -148 -217 -227t-219 -79q-80 0 -123 43q-43 44 -43 98t38 95t99 41t113 -39q53 -47 83 -47t73 37t69 73l41 56l-260 823q-23 72 -55 107q-33 35 -103 36z" />
    <glyph glyph-name="afii10038" unicode="&#x424;" horiz-adv-x="1673" 
d="M461 598q-1 -133 69 -205t172 -76l216 775q-193 -20 -325 -168t-132 -326zM1452 811q0 145 -75 210t-169 71l-215 -775q197 23 328 168t131 326zM1233 1411q47 0 113 3t155 3l-22 -71l-43 -5q-45 -4 -75 -11t-68 -40t-52 -88l-10 -37h41q121 1 212 -27t140 -67t87 -105
t38 -158q0 -197 -160 -369q-82 -87 -230 -141t-343 -54h-41l-12 -47q-16 -61 3 -95t113 -45l39 -4l-20 -71l-267 6h-153q-48 0 -114 -3t-152 -3l20 71l43 4q49 3 79 11t66 40t50 89l12 47h-41q-256 0 -367 103t-110 253q0 212 174 380q86 83 231 134t328 51h41l10 37
q13 48 7 66q-5 18 -8 28t-15 18t-20 13q-8 6 -43 10t-38 4l-38 5l22 71l264 -6h154z" />
    <glyph glyph-name="afii10039" unicode="&#x425;" horiz-adv-x="1294" 
d="M731 1231q0 -25 43 -125l107 -254l141 168q88 104 115 143t26 70q0 57 -94 61l-45 2l20 72q113 -6 228 -6t268 6v-72q-86 -7 -118 -24l-43 -24q-35 -16 -75 -60t-58 -66q-18 -23 -46 -51l-272 -311l202 -471q40 -91 72 -137q33 -46 72 -63t92 -21l-20 -72q-172 6 -213 6
h-222q-35 0 -194 -6l18 72l43 2q109 4 109 57q0 37 -49 149l-117 269l-35 -39q-78 -86 -167 -202t-89 -159q0 -72 115 -75l43 -2l-21 -72l-282 6l-226 -6l2 72q96 16 168 70t170 169l283 332l-205 463q-47 112 -98 154t-133 40l18 72q174 -8 299 -6l320 6l-19 -72l-39 -2
q-94 -4 -94 -63z" />
    <glyph glyph-name="afii10040" unicode="&#x426;" horiz-adv-x="1658" 
d="M1055 2h-733l-289 -6l20 72l41 2q84 5 116 64q10 22 20 60t14 46l241 864q39 140 -1 171q-22 17 -91 19l-61 2l18 72l352 -6l289 6l-18 -72l-43 -2q-73 -4 -98 -50t-48 -120l-266 -952q-19 -72 60 -74h393q45 0 71 24t31 50l260 932q40 139 -1 171q-22 17 -91 19l-61 2
l18 72l352 -6l289 6l-18 -72l-43 -2q-98 -4 -140 -157q-2 -8 -4 -13l-264 -942q0 -2 -7 -19t-7 -32q0 -33 59 -33h111l-129 -454h-80q24 237 -53 303q-41 35 -86 45t-123 10z" />
    <glyph glyph-name="afii10041" unicode="&#x427;" horiz-adv-x="1513" 
d="M956 2q-50 0 -122 -3t-164 -3l22 72l43 4q66 6 106 17q39 11 63 41t32 52t25 80l92 340q-199 -63 -361 -63q-356 0 -356 254q0 41 24 131l48 172q35 132 3 164q-19 18 -39 23t-65 9l-41 4l23 72l264 -6h149q42 0 106 3t144 3l-22 -72l-41 -4q-49 -4 -76 -14t-59 -54
t-54 -128l-45 -162q-23 -76 -22 -135q0 -141 205 -142q119 0 241 41l111 398q34 90 20 142t-102 56l-41 2l23 72l245 -6h150q45 0 113 3t155 3l-22 -72l-41 -4q-102 -10 -142 -54t-65 -142l-232 -828q-33 -84 -15 -135t118 -61l39 -4l-23 -72l-264 6h-150z" />
    <glyph glyph-name="afii10042" unicode="&#x428;" horiz-adv-x="2271" 
d="M2038 139q0 -31 22 -49t90 -20l62 -2l-19 -72l-1871 6l-289 -6l18 72l43 2q79 4 107 51q17 29 30 69l14 42t1 8l239 864q41 139 -2 171q-23 17 -90 19l-63 2l20 72l352 -6l289 6l-20 -72l-41 -2q-65 -6 -92 -40q-27 -33 -34 -58q-7 -24 -12 -46t-8 -26l-254 -911
q0 -4 -13 -45t9 -52q36 -18 82 -18h244q18 0 34 2t27 3q13 1 23 7t16 9q6 2 13 11q6 9 9 12q3 2 7 16t10 32t6 23l248 891q41 139 -2 171q-23 17 -90 19l-63 2l20 72l352 -6l289 6l-20 -72l-41 -2q-54 -4 -81 -29q-27 -24 -38 -51t-19 -57q-8 -29 -10 -33l-254 -911
q-2 -4 -6 -19t-10 -31t5 -33q21 -32 91 -32h244q18 0 34 2t27 3q13 1 23 7t16 9q6 2 12 11t10 12q3 2 7 16t10 32t6 23l248 891q20 66 20 110t-22 61q-23 17 -90 19l-64 2l21 72l352 -6l289 6l-21 -72l-41 -2q-65 -7 -90 -38q-25 -32 -41 -76t-16 -56l-238 -864
q-2 -10 -11 -33t-12 -40t-3 -48z" />
    <glyph glyph-name="afii10043" unicode="&#x429;" horiz-adv-x="2271" 
d="M1726 2h-1404l-289 -6l18 72l43 2q79 4 107 51q17 29 30 69l14 42t1 8l239 864q41 139 -2 171q-23 17 -90 19l-63 2l20 72l352 -6l289 6l-20 -72l-41 -2q-54 -4 -81 -29q-27 -24 -37 -47q-9 -24 -12 -33t-9 -33t-9 -28l-254 -911q-2 -4 -6 -19q-4 -16 -10 -32t5 -32
q21 -32 91 -32h244q18 0 34 2t27 3q13 1 23 7t16 9q6 2 13 11q6 9 9 12q3 2 7 16t10 32t6 23l248 891q41 139 -2 171q-23 17 -90 19l-63 2l20 72l352 -6l289 6l-20 -72l-41 -2q-101 -10 -131 -115q-1 -7 -7 -29t-8 -26l-254 -911q0 -4 -13 -45t9 -52q36 -18 82 -18h244
q50 0 65 6t25 8t18 12q8 9 15 16t15 37q7 31 9 36l246 891q20 66 20 110t-22 61q-23 17 -90 19l-64 2l21 72l352 -6l289 6l-21 -72l-41 -2q-91 -9 -121 -90q-11 -29 -17 -53q-5 -23 -7 -27l-262 -942q-12 -37 -12 -51q0 -33 59 -33h109l-130 -454h-79q24 238 -54 303
q-41 35 -86 45t-123 10z" />
    <glyph glyph-name="afii10044" unicode="&#x42a;" horiz-adv-x="1574" 
d="M795 188q1 -90 117 -90t210 113q43 53 77 142t34 163q0 188 -189 189q-89 -1 -116 -5l-121 -434q-12 -45 -12 -78zM780 1249q0 10 -30 11h-45q-139 0 -245 -72t-155 -211h-78q84 252 123 391l463 -6h156l288 6l-20 -72l-45 -2q-54 -3 -85 -31t-42 -71q-12 -43 -27 -94
l-84 -303q66 6 130 6q243 0 358 -73q112 -72 112 -238q0 -92 -58 -205t-150 -181q-150 -109 -406 -108l-354 6q-168 0 -330 -6l20 72l27 2q96 8 137 44t74 152l254 916q12 47 12 67z" />
    <glyph glyph-name="afii10045" unicode="&#x42b;" horiz-adv-x="1925" 
d="M1702 148q0 -38 20 -57t82 -21l72 -2l-18 -72l-353 6l-288 -6l18 72l43 2q50 3 90 33q25 19 57 137l246 876q18 61 19 103q0 74 -113 75l-64 2l21 72l352 -6l289 6l-21 -72l-45 -2q-71 -4 -99 -56t-46 -122l-246 -876q-16 -54 -16 -92zM967 543q0 162 -189 162
q-75 -1 -112 -5l-121 -434q-31 -118 18 -150q27 -17 78 -18q102 0 180 79t112 177t34 189zM810 801q215 0 301 -37q118 -48 157 -130q39 -81 11 -230q-11 -58 -51 -135t-104 -134t-180 -98q-117 -41 -270 -41l-225 4q-299 0 -416 -4l18 72l43 2q51 2 83 30t41 54q9 25 26 86
l243 876q18 61 19 103q0 74 -113 75l-63 2l20 72l352 -6l289 6l-20 -72l-45 -2q-57 -2 -88 -41t-58 -137l-88 -321q60 6 118 6z" />
    <glyph glyph-name="afii10046" unicode="&#x42c;" horiz-adv-x="1310" 
d="M641 98q102 0 180 79t112 177t34 189q0 162 -189 162q-89 -1 -116 -5l-119 -434q-49 -168 98 -168zM810 801q216 0 301 -37q118 -48 157 -130q39 -81 11 -230q-11 -58 -51 -135t-104 -134t-180 -98q-117 -41 -270 -41l-225 4q-299 0 -416 -4l18 72l43 2q51 2 83 30t41 54
q9 25 26 86l243 876q18 61 19 103q0 74 -113 75l-63 2l20 72l352 -6l289 6l-20 -72l-45 -2q-75 -4 -101 -55t-47 -123l-88 -321q62 6 120 6z" />
    <glyph glyph-name="afii10047" unicode="&#x42d;" horiz-adv-x="1425" 
d="M1011 1393q211 1 353 -145t141 -380q-1 -154 -67 -310q-148 -348 -470 -502q-176 -83 -354 -83t-314 73t-136 198q0 74 46 126t117 52t107 -34t35 -81q0 -47 -31 -84t-30 -51q0 -39 46 -73q46 -33 114 -33t117 13q48 13 113 54q134 85 237 287q58 115 100 264
q-135 -90 -220 -90q-47 0 -94 27q-8 4 -63 38q-55 33 -86 33t-87 -20t-91 -45l-33 51q74 66 168 116t154 50t131 -51q70 -51 128 -51q57 -1 115 28q29 102 29 233t-71 209t-197 78t-247 -102q-122 -102 -194 -244h-90l139 436h88l-4 -108q190 121 401 121z" />
    <glyph glyph-name="afii10048" unicode="&#x42e;" horiz-adv-x="2105" 
d="M1886 1016q0 289 -213 289q-129 0 -254 -158t-197 -373t-73 -392q0 -177 62 -249t149 -72q127 1 250 143q124 142 200 364t76 448zM2181 876q1 -224 -107 -431q-108 -206 -300 -339t-417 -133q-225 -1 -361 147t-136 386q0 78 14 147h-225l-110 -393q-20 -66 -21 -115
q0 -70 92 -75h21l61 -2l-18 -72l-352 6l-289 -6l18 72l43 2q95 6 122 86q13 40 26 84l241 864q41 139 -2 171q-23 17 -90 19l-63 2l20 72l352 -6l289 6l-20 -72l-41 -2q-81 -6 -113 -64q-19 -37 -28 -71q-9 -33 -9 -35l-104 -376h223q82 288 307 466q224 178 460 178
t376 -146t141 -370z" />
    <glyph glyph-name="afii10049" unicode="&#x42f;" horiz-adv-x="1413" 
d="M1143 1274h-27q-123 0 -211 -67q-160 -122 -160 -312q-1 -90 59 -136t150 -46h80l140 504q12 57 -31 57zM940 621q-154 0 -238 -144l-118 -201q-41 -70 -70 -110t-81 -91q-102 -102 -281 -102q-66 0 -113 24q-76 39 -98 127q-8 28 -13 58l86 29q12 -72 68 -72q37 0 81 41
t111 126q68 85 97 116q186 203 379 237v7q-135 2 -224 85q-88 83 -88 198t84 219q167 206 557 200l307 -6l267 6l-21 -72l-45 -2q-37 -2 -69 -17q-42 -20 -75 -142q-9 -33 -11 -39l-238 -856q-14 -57 -14 -95q0 -74 102 -75l72 -2l-19 -72l-352 6l-289 -6l19 72l43 2
q55 4 72 21q18 17 27 27t18 33q9 24 16 39t20 78l99 353h-68z" />
    <glyph glyph-name="afii10065" unicode="&#x430;" horiz-adv-x="1064" 
d="M778 642q0 74 -34 108t-74 32q-80 0 -153 -103t-111 -229t-39 -203t29 -113t71 -36q84 0 159 108q76 108 114 234q38 128 38 202zM897 182q0 -64 39 -63q29 0 67 41t74 112l10 21l46 -21l-15 -28q-131 -264 -299 -264q-53 0 -94 30t-41 88q0 59 6 90h-4
q-51 -96 -136 -152t-180 -56t-171 72t-76 218q0 246 159 436t343 191q78 0 130 -41t70 -108l45 129h217l-20 -68q-170 -563 -170 -627z" />
    <glyph glyph-name="afii10066" unicode="&#x431;" horiz-adv-x="948" 
d="M754 690q0 139 -113 139q-75 1 -143 -113t-106 -264t-38 -246q0 -98 34 -128t77 -29q86 0 156 124q69 125 101 269t32 248zM657 897q123 0 223 -93t99 -265q0 -215 -155 -387t-369 -172q-139 0 -236 95q-96 95 -96 309t106 484q47 123 112 212q65 88 125 138t142 82
t138 41t132 17t112 14q95 16 106 76h75l-10 -31q-63 -188 -200 -241q-66 -25 -207 -47t-219 -56q-119 -51 -185 -150t-108 -251h10q70 111 176 168t229 57z" />
    <glyph glyph-name="afii10067" unicode="&#x432;" horiz-adv-x="907" 
d="M340 182q0 -139 117 -139q94 0 146 72t52 170q0 137 -168 125l-108 -7l-14 -49q-25 -88 -25 -172zM676 834q-98 0 -166 -109q-43 -70 -96 -217l-15 -41l86 4q147 6 221 83q73 77 72 171q0 51 -26 80q-27 29 -76 29zM899 293q0 -119 -132 -216t-331 -97q-237 0 -298 195
q-15 49 -15 107q0 147 89 301q108 191 288 269q104 45 225 45t193 -48t71 -132q0 -156 -209 -225l-37 -13v-8q86 -15 121 -67t35 -111z" />
    <glyph glyph-name="afii10068" unicode="&#x433;" horiz-adv-x="751" 
d="M586 897q104 0 166 -55t61 -141q0 -87 -62 -141q-61 -54 -167 -96t-140 -65q-90 -66 -90 -176q0 -57 34 -90t87 -33q121 0 225 170l52 -32l-19 -31q-135 -227 -371 -227q-119 0 -179 64t-60 131q0 113 63 179q23 25 72 53q48 29 68 35q228 76 267 152q15 31 15 77
q0 45 -33 75t-85 30t-115 -46q-64 -46 -107 -138l-57 26q59 139 165 209t210 70z" />
    <glyph glyph-name="afii10069" unicode="&#x434;" horiz-adv-x="978" 
d="M354 215q0 -97 31 -131t74 -35q133 0 233 309q51 162 80 349q-8 57 -45 90t-78 32q-139 0 -227 -290q-68 -227 -68 -324zM590 1423q451 0 450 -600q0 -184 -40 -334q-40 -151 -101 -243t-141 -154q-146 -114 -300 -113q-155 1 -245 103t-90 268q0 236 169 392t349 155
q88 0 164 -74q10 72 10 131q0 218 -79 310q-80 92 -168 92t-162 -45l-33 59q102 53 217 53z" />
    <glyph glyph-name="afii10070" unicode="&#x435;" horiz-adv-x="837" 
d="M743 745q0 41 -21 67q-22 26 -54 26q-68 0 -136 -94t-120 -316q150 45 240 136t91 181zM123 283q0 201 140 400q67 93 177 153t234 61q124 0 192 -48t68 -122q0 -101 -127 -197t-373 -157l-41 -11q-14 -57 -14 -126q0 -68 40 -106q41 -38 107 -38t136 55t112 113l19 25
l53 -41q-70 -111 -174 -188q-104 -76 -234 -76t-222 74q-93 74 -93 229z" />
    <glyph glyph-name="afii10072" unicode="&#x436;" horiz-adv-x="1855" 
d="M1732 897q84 0 144 -47q60 -46 61 -102q-1 -56 -27 -92t-73 -36t-74 22t-27 50t14 58q13 30 13 45q-2 35 -53 35q-52 0 -112 -92q-60 -91 -99 -225q-39 -135 -39 -243t39 -146t95 -38t117 54q60 54 97 134l45 -26q-61 -125 -163 -197q-102 -71 -216 -71t-179 101t-65 199
t13 152h-123l-114 -432h-211l118 432h-122q-55 -213 -189 -333t-283 -119q-106 0 -164 51q-59 51 -59 106t32 92t78 37t75 -24t29 -56q0 -31 -6 -42q-5 -11 -16 -29t-12 -31q0 -37 48 -37q128 0 216 323q40 146 40 246t-39 137q-39 38 -95 38q-56 -1 -116 -55t-99 -132
l-45 27q58 123 162 195t212 71q108 0 176 -93t69 -249q0 -43 -2 -63h123l102 385h213l-104 -385h123q59 156 149 252t164 124q75 29 159 29z" />
    <glyph glyph-name="afii10073" unicode="&#x437;" horiz-adv-x="808" 
d="M584 285q0 139 -123 139h-72l19 68h75q84 0 130 45t46 105q0 134 -122 134q-102 0 -171 -82q-52 -60 -79 -114l-60 30q150 287 428 287q117 0 176 -58q59 -57 59 -137t-51 -140q-52 -60 -139 -81v-8q60 -18 100 -63t40 -113q0 -127 -106 -222t-318 -95q-145 0 -225 53
q-79 53 -78 133q0 55 34 87q35 32 83 32t77 -29q29 -28 29 -56t-4 -36t-14 -26t-9 -29q0 -66 84 -66t137 68t54 174z" />
    <glyph glyph-name="afii10074" unicode="&#x438;" horiz-adv-x="1087" 
d="M172 144q0 70 35 180t79 235t44 152q0 53 -43 53q-51 0 -133 -143l-19 -33l-39 22q74 139 143 213t171 74q63 0 107 -37q44 -36 44 -104t-29 -156l-98 -305q-29 -88 -28 -121q0 -66 61 -65q47 0 101 59t121 194t116 287l74 228h217l-99 -363q-69 -256 -69 -330t37 -73
q53 0 125 159l10 23l43 -19l-15 -30q-88 -188 -184 -239q-49 -26 -108 -25q-137 0 -138 155q0 61 19 150h-4q-36 -81 -117 -180q-106 -125 -260 -125q-78 0 -121 47t-43 117z" />
    <glyph glyph-name="afii10075" unicode="&#x439;" horiz-adv-x="1089" 
d="M745 1290l-14 -63q0 -63 55 -64q57 -1 151 67t155 144l43 -33q-211 -258 -406 -258q-111 1 -177 51t-67 124q0 74 44 113q43 38 99 38q118 0 117 -119zM285 552q47 130 47 159q0 53 -43 53q-53 0 -135 -143l-19 -33l-39 22q72 139 143 213t173 74q63 0 107 -37
q44 -36 44 -104t-28 -156l-99 -305q-29 -88 -28 -121q0 -66 61 -65q47 0 101 59t121 194t116 287l74 228h217l-99 -363q-69 -256 -69 -330t37 -73q53 0 125 159l10 23l43 -19l-15 -30q-88 -188 -184 -239q-49 -26 -108 -25q-137 0 -138 155q0 61 19 150h-4
q-33 -76 -117 -179q-47 -57 -114 -92q-66 -34 -142 -34t-123 43t-47 132q0 88 113 397z" />
    <glyph glyph-name="afii10076" unicode="&#x43a;" horiz-adv-x="999" 
d="M279 766q-57 0 -140 -182l-43 18q24 68 95 171q37 54 93 89t119 35q131 0 132 -156q0 -104 -29 -198l-14 -51h38q76 0 129 88q14 23 53 101t79 125q76 93 182 91q65 0 97 -35t32 -78q0 -42 -26 -74t-82 -32t-76 41q-21 41 -48 41t-46 -30t-43 -81q-23 -51 -36 -74
q-47 -90 -116 -110v-6q109 -16 155 -156q7 -23 27 -101t33 -92q14 -13 28 -14q51 0 111 152l14 37l41 -15l-8 -24q-43 -129 -102 -198t-166 -68q-63 0 -102 36q-38 37 -49 77t-19 110l-17 119q-8 61 -24 84t-45 22h-31l-115 -428h-217l99 362q70 254 69 349q0 55 -32 55z
" />
    <glyph glyph-name="afii10077" unicode="&#x43b;" horiz-adv-x="1021" 
d="M753 813q-38 0 -80 -26q-42 -25 -70 -59t-57 -104t-77 -245q-47 -174 -92 -254q-84 -145 -234 -145q-63 0 -103 38t-40 88t31 82t89 33q58 0 91 -65q12 -31 31 -31q51 0 92 86t81 230t48 169q59 154 155 220t265 67q77 0 107 -13t30 -50q0 -14 -16 -68l-25 -82
q-119 -398 -119 -486t35 -87q55 0 127 143l16 33l39 -11l-22 -51q-59 -137 -133 -191t-136 -54t-105 32q-42 32 -42 126t37 229l112 413q2 4 2 18t-37 15z" />
    <glyph glyph-name="afii10078" unicode="&#x43c;" horiz-adv-x="1357" 
d="M1243 111q33 0 69 52t56 99l12 29l39 -15l-12 -28q-115 -268 -287 -268q-63 0 -104 40t-41 117q0 76 57 285l66 242h-6l-398 -664h-61l-76 655h-6l-96 -331q-51 -174 -111 -259t-176 -85q-74 0 -111 40t-37 86q0 48 30 82t89 33q59 0 90 -61q16 -31 40 -31q47 0 74 70
q28 70 46 135l96 338q43 152 -104 151h-55l16 54h408l73 -535l328 535h233l-38 -121q-145 -446 -146 -586q0 -59 43 -59z" />
    <glyph glyph-name="afii10079" unicode="&#x43d;" horiz-adv-x="1054" 
d="M674 124q0 71 28 185l33 119h-270l-115 -428h-217l41 137q127 424 127 574q0 55 -33 55q-32 0 -68 -49t-61 -109l-10 -24l-43 18l14 33q115 262 293 262q57 0 93 -38t36 -126t-26 -190l-15 -51h271l104 385h217l-31 -111q-24 -88 -56 -201t-44 -155t-30 -112
q-18 -71 -17 -129q0 -59 39 -58q63 0 127 143l16 37l39 -15l-14 -34q-39 -98 -115 -180t-164 -82q-63 0 -106 36t-43 108z" />
    <glyph glyph-name="afii10080" unicode="&#x43e;" horiz-adv-x="948" 
d="M754 700q0 127 -105 127q-86 0 -151 -106q-52 -80 -98 -259q-46 -180 -46 -266t33 -116t72 -31q141 0 233 309q62 215 62 342zM979 539q0 -215 -155 -387t-369 -172q-156 0 -244 104t-88 252q0 215 151 388q152 173 367 173q156 0 247 -101t91 -257z" />
    <glyph glyph-name="afii10081" unicode="&#x43f;" horiz-adv-x="1040" 
d="M815 702q0 66 -61 66q-48 0 -102 -59t-122 -196t-114 -286l-74 -227h-217l98 362q70 256 70 332q0 27 -2 39q-6 33 -35 33q-10 0 -27 -8q-41 -23 -98 -152l-10 -22l-43 18l14 31q89 190 184 238q49 26 109 26q137 0 137 -156q0 -61 -18 -149h4q36 83 100 159
q123 146 271 146q84 0 127 -47t43 -125t-79 -302t-79 -260t18 -43t25 -7q51 0 133 143l18 33l39 -23q-111 -211 -209 -262q-49 -25 -104 -24q-98 0 -131 66t-10 163q2 8 7 30t11 37l98 306q29 95 29 120z" />
    <glyph glyph-name="afii10082" unicode="&#x440;" horiz-adv-x="1083" 
d="M877 638q0 85 -36 116t-79 30q-70 0 -138 -91t-106 -220q-39 -129 -39 -244q0 -139 105 -139q80 0 150 104t107 231q36 128 36 213zM866 897q106 0 177 -74t71 -225q0 -248 -139 -433t-338 -185q-143 0 -205 129l-108 -412q-18 -74 -19 -107q0 -80 82 -86l51 -4l-16 -59
l-268 4l-242 -4l16 59l39 4q72 7 104 96q13 36 21 68t10 39l273 1014q-95 -45 -149 -99t-87 -149l-57 23q18 61 55 114t62 76t87 74t100 99t63 142l59 218l197 -35l-113 -424q113 137 274 137z" />
    <glyph glyph-name="afii10083" unicode="&#x441;" horiz-adv-x="796" 
d="M430 -20q-145 0 -226 93t-81 233q-1 140 65 274t192 225q126 92 260 92t204 -50t69 -126q-1 -51 -31 -90t-85 -39t-88 28t-33 59t7 47t22 38q14 23 14 35q0 41 -55 41q-80 0 -150 -106t-104 -237q-34 -129 -33 -231q0 -102 46 -141t104 -39q59 0 119 42t91 80t54 75
l49 -35l-27 -39q-158 -229 -383 -229z" />
    <glyph glyph-name="afii10084" unicode="&#x442;" horiz-adv-x="1517" 
d="M974 864q46 -33 46 -92t-23 -147h7q55 121 151 197t205 75q150 0 158 -160q0 -49 -12 -100t-80 -229t-68 -236q0 -57 37 -57q49 0 139 149l12 21l41 -25l-14 -29q-23 -47 -49 -84q-113 -168 -246 -167q-72 0 -115 40t-43 122q0 81 82 288q82 206 82 272t-53 66
q-65 0 -136 -114q-106 -170 -161 -339l-105 -315h-217l166 553q35 119 35 149q0 63 -47 64q-51 0 -129 -89t-174 -378l-98 -299h-218l97 326q84 283 84 376q0 57 -37 58q-49 0 -139 -180l-43 20q20 53 61 119q111 178 248 178q53 0 91 -35q38 -36 38 -108t-17 -129h7
q88 164 211 235q63 37 122 37q58 0 104 -33z" />
    <glyph glyph-name="afii10085" unicode="&#x443;" horiz-adv-x="827" 
d="M264 897q186 0 275 -405q45 -211 61 -441q59 115 105 254q45 139 45 217t-44 166t-42 122q0 34 26 60t54 27q124 0 124 -172q0 -281 -197 -661t-403 -537q-123 -94 -235 -94q-67 1 -93 31t-26 67t28 66t62 29t86 -17q68 -14 78 -15q94 0 166 88t72 240q0 154 -74 456
t-127 345q-15 10 -27 10q-32 1 -43 -59q-12 -60 -10 -123l2 -41h-49l-2 45q-8 217 69 288q59 54 119 54z" />
    <glyph glyph-name="afii10086" unicode="&#x444;" horiz-adv-x="1386" 
d="M624 829q-102 0 -153 -111q-37 -80 -49 -129q-12 -50 -40 -151t-28 -175q0 -75 2 -97q7 -78 37 -99q31 -20 79 -20t106 47l141 688q-45 47 -95 47zM897 47q143 0 213 285q55 223 55 338t-47 144q-25 15 -72 15t-106 -47l-141 -688q43 -47 98 -47zM123 276q0 231 128 426
t318 195q100 0 166 -41l6 23q70 256 203 384t281 128q92 0 142 -38t50 -88q-1 -50 -29 -79t-67 -29q-70 0 -115 107q-20 47 -55 47q-51 0 -104 -109t-86 -319l-5 -27q86 41 184 41t178 -78q79 -78 79 -219q0 -233 -128 -427t-319 -193q-98 0 -166 40l-12 -47
q-41 -157 -103 -273t-129 -173q-126 -107 -235 -107q-78 0 -128 40t-50 94t31 80q32 26 70 26t58 -26t18 -56q-3 -80 54 -80q52 0 106 112t85 318l14 92q-85 -40 -191 -40t-178 84t-71 212z" />
    <glyph glyph-name="afii10087" unicode="&#x445;" horiz-adv-x="874" 
d="M682 -20q-59 0 -102 51q-16 18 -38 59t-30 63t-29 72l-24 64l-39 -62q-121 -194 -186 -229q-34 -18 -74 -18t-70 28q-29 28 -29 70q0 90 89 205l18 24l45 -31q-51 -70 -51 -124t39 -54q28 0 56 36q52 68 70 101q19 32 27 41l70 103l-102 264q-35 96 -60 96
q-43 0 -65 -129l-7 -32l-59 12l6 31q57 276 221 276q92 0 140 -79q28 -45 61 -128l25 -67l49 73q76 113 130 157t107 44t83 -28t30 -70q0 -68 -109 -209l-47 35l17 24q39 59 39 107t-39 47q-55 0 -176 -187l-54 -81l54 -152l9 -27q7 -20 11 -32l11 -33q7 -21 13 -35t15 -32
q32 -73 64 -74q41 0 79 120l13 37l55 -16l-14 -45q-86 -266 -242 -266z" />
    <glyph glyph-name="afii10088" unicode="&#x446;" horiz-adv-x="1116" 
d="M787 -319q-93 0 -173 59t-120 59t-41 -35q0 -11 22 -35q22 -25 22 -49q1 -24 -19 -44t-53 -21q-35 -1 -59 21t-24 61q0 79 81 143t159 64t160 -45t100 -45t35 7t42 35q25 29 39 57l20 41q6 13 22 48q15 35 20 45l-6 4q-82 -72 -170 -71q-152 0 -152 159q0 43 21 140h-4
q-53 -117 -151 -208t-216 -91q-68 0 -119 38t-51 112q0 72 37 194l98 323q18 57 19 78q0 43 -35 43q-66 0 -137 -135l-19 -33l-39 16q129 281 320 281q66 0 106 -35t41 -89q0 -55 -5 -77t-42 -149l-74 -223q-41 -125 -41 -152q0 -66 58 -66q80 0 183 184t175 400l62 187h223
l-39 -121q-143 -438 -143 -574q0 -72 34 -71q24 0 64 27t63 52l56 -26q-56 -123 -104 -239t-81 -154q-72 -90 -165 -90z" />
    <glyph glyph-name="afii10089" unicode="&#x447;" horiz-adv-x="983" 
d="M856 111q63 0 129 147l14 33l39 -15l-14 -34q-57 -138 -134 -200t-148 -62q-72 0 -108 40t-36 109q0 68 35 180l45 158l-6 2q-51 -84 -132 -141q-81 -58 -157 -58t-127 39t-51 125q1 50 33 160t32 131q0 43 -34 43q-63 0 -136 -129l-22 -41l-37 20q133 279 319 279
q72 0 110 -39t38 -80t-37 -163q-37 -123 -37 -158q0 -59 51 -60q72 0 155 116t108 214l38 150h218l-39 -129q-6 -23 -31 -100q-95 -292 -113 -466v-30q4 -41 35 -41z" />
    <glyph glyph-name="afii10090" unicode="&#x448;" horiz-adv-x="1521" 
d="M870 174q0 -63 50 -63t119 82q84 94 182 385l98 299h217l-96 -326q-84 -283 -84 -377q0 -57 37 -57q42 0 84 77q10 19 16 28q6 10 15 30t12 24l10 21l47 -18l-12 -27q-123 -272 -299 -272q-57 0 -94 37q-36 38 -36 108t17 127h-6q-55 -104 -145 -188t-191 -84
q-57 0 -102 32t-45 109q0 35 22 131h-6q-56 -121 -152 -197q-96 -75 -203 -75t-138 70q-21 52 -21 109q0 58 33 152t75 206q52 140 52 193q0 52 -37 52q-49 0 -139 -150l-13 -20l-41 24l15 29q127 252 295 252q72 0 114 -41q42 -40 43 -102t-21 -136t-82 -227
q-60 -151 -60 -217t53 -65q69 0 153 134t144 318l104 316h217l-166 -553q-35 -119 -35 -150z" />
    <glyph glyph-name="afii10091" unicode="&#x449;" horiz-adv-x="1538" 
d="M870 174q0 -63 50 -63t119 82q84 94 182 385l98 299h217l-96 -326q-84 -287 -84 -385q0 -20 10 -38t27 -17q35 0 110 79l56 -26q-56 -123 -104 -239t-81 -154q-72 -90 -165 -90t-173 59t-120 59t-42 -35q0 -14 23 -34t23 -47t-20 -47t-53 -21q-34 -1 -59 21t-24 61
q0 79 81 143t159 64t160 -45q80 -45 108 -45t50 22t32 36q12 14 26 41l20 41q6 13 22 48q15 35 20 45l-6 4q-78 -72 -170 -71q-53 0 -84 30t-38 58q-7 29 -7 78t16 106h-6q-55 -104 -145 -188t-191 -84q-57 0 -102 32t-45 109q0 35 22 131h-6q-56 -121 -152 -197
q-96 -75 -203 -75t-138 70q-21 52 -21 109q0 58 33 152t75 206q52 140 52 193q0 52 -37 52q-49 0 -139 -150l-13 -20l-41 24l15 29q127 252 295 252q72 0 114 -41q42 -40 43 -102t-21 -136t-82 -227q-60 -151 -60 -217t53 -65q69 0 153 134t144 318l104 316h217l-166 -553
q-35 -119 -35 -150z" />
    <glyph glyph-name="afii10092" unicode="&#x44a;" horiz-adv-x="878" 
d="M399 186q0 -139 111 -139q82 0 143 75t62 187q0 160 -146 160q-47 0 -80 -10l-18 -33q-72 -127 -72 -240zM588 772q-143 -49 -197 -49q-54 1 -104 23q-49 22 -76 22t-43 -17t-16 -40q0 -49 49 -72l-29 -41q-90 39 -90 117t46 130t141 52t183 -36t156 -36q92 51 140 51
q83 1 86 -47q0 -80 -164 -63q-72 -92 -150 -242q98 25 158 25q130 0 196 -71t66 -167q0 -131 -120 -231t-295 -100t-257 78t-82 202q0 84 48 174t124 154t234 170z" />
    <glyph glyph-name="afii10093" unicode="&#x44b;" horiz-adv-x="1320" 
d="M938 120q0 64 33 189l153 568h217l-38 -129q-143 -474 -143 -556t34 -82q35 0 70 47q35 46 57 97l16 37l39 -15q-20 -55 -48 -111t-96 -121q-68 -64 -142 -64q-72 0 -112 38t-40 102zM467 47q72 0 130 67t67 185q4 55 -13 93q-16 38 -44 52q-50 25 -91 25t-74 -10
l-18 -35q-64 -118 -64 -214t32 -130t75 -33zM416 897q129 0 129 -156q0 -57 -56 -180l-16 -37q98 25 158 25q131 0 194 -72t64 -166q0 -137 -127 -234q-128 -97 -288 -97t-230 74t-70 176q0 100 62 241l63 143q29 68 29 110t-35 42q-55 0 -135 -150l-17 -30l-45 20l25 47
q127 244 295 244z" />
    <glyph glyph-name="afii10094" unicode="&#x44c;" horiz-adv-x="833" 
d="M467 47q72 0 130 67t67 185q4 55 -13 93q-16 38 -44 52q-50 25 -91 25t-74 -10l-18 -35q-64 -118 -64 -214t32 -130t75 -33zM416 897q129 0 129 -156q0 -57 -56 -180l-16 -37q98 25 158 25q131 0 194 -72t64 -166q0 -137 -127 -234q-128 -97 -288 -97t-230 74t-70 176
q0 100 62 241l63 143q29 68 29 110t-35 42q-55 0 -135 -150l-17 -30l-45 20l25 47q127 244 295 244z" />
    <glyph glyph-name="afii10095" unicode="&#x44d;" horiz-adv-x="899" 
d="M381 526q45 0 100 -34t85 -33q30 0 89 35q6 31 7 59q0 229 -150 229t-246 -196l-59 30q158 281 405 281q133 0 219 -101q87 -102 87 -244t-52 -251t-135 -177q-174 -146 -362 -144q-117 0 -192 50t-75 128q0 53 33 92t88 39t84 -30t29 -66q0 -37 -20 -69t-19 -42
q0 -33 55 -33q190 0 281 330l12 45q-88 -66 -132 -66t-109 37q-64 37 -84 37t-64 -31l-31 35q84 90 156 90z" />
    <glyph glyph-name="afii10096" unicode="&#x44e;" horiz-adv-x="1462" 
d="M1255 690q0 137 -108 137q-68 -1 -127 -79q-94 -126 -146 -402q-18 -102 -18 -169t33 -97t72 -31q147 0 233 309q61 221 61 332zM1140 897q159 0 250 -101t91 -257q0 -215 -155 -387t-370 -172q-156 0 -244 104t-87 252q0 51 8 92h-154l-112 -428h-217l40 137
q127 426 127 574q0 55 -32 55q-61 0 -129 -158l-11 -24l-43 18q25 73 79 149q103 146 227 146q125 0 124 -156q1 -124 -36 -249h151q51 186 193 296t300 109z" />
    <glyph glyph-name="afii10097" unicode="&#x44f;" horiz-adv-x="974" 
d="M709 831q-104 0 -168 -65q-63 -66 -63 -142t38 -120q39 -45 113 -45h39l98 366q-29 6 -57 6zM813 192q0 -82 35 -82t70 47q35 46 57 97l16 37l39 -15q-20 -55 -48 -111t-96 -121q-68 -64 -140 -64t-113 38t-41 110q0 70 33 181l22 82h-63q-47 0 -74 -19
q-41 -29 -103 -159q-62 -131 -90 -168q-50 -65 -141 -65q-90 0 -133 51t-43 109t29 108l47 -19q-18 -33 -18 -75t36 -43q27 0 50 40q131 235 315 271v6q-92 2 -154 59q-61 57 -61 135t38 130t84 80q106 66 318 65q106 0 311 -20l-39 -129q-143 -474 -143 -556z" />
    <glyph glyph-name="afii10071" unicode="&#x451;" horiz-adv-x="841" 
d="M846 1245q0 53 40 92t91 39t91 -39t40 -92t-40 -92t-91 -39t-91 39t-40 92zM416 1245q0 53 40 92t91 39t91 -39t40 -92t-40 -92t-91 -39t-91 39t-40 92zM743 745q0 41 -21 67q-22 26 -54 26q-68 0 -136 -94t-120 -316q150 45 240 136t91 181zM123 283q0 201 140 400
q67 93 177 153t234 61q124 0 192 -48t68 -122q0 -101 -127 -197t-373 -157l-41 -11q-14 -57 -14 -126q0 -68 40 -106q41 -38 107 -38t136 55t112 113l19 25l53 -41q-70 -111 -174 -188q-104 -76 -234 -76t-222 74q-93 74 -93 229z" />
    <glyph glyph-name="afii10099" unicode="&#x452;" horiz-adv-x="1042" 
d="M815 897q59 0 100 -23q84 -47 84 -152q1 -105 -65 -347t-117 -377q-209 -549 -518 -549q-96 0 -158 43q-61 43 -61 92t28 80t80 31q71 0 105 -106q10 -34 21 -49t32 -15q135 0 345 822q65 255 65 336t-66 81q-76 0 -163 -106t-167 -355l-98 -303h-219l281 1047h-201
l14 57h203q22 62 22 114t-30 67q-31 15 -101 22l-26 2l16 57q283 7 430 27l-76 -289h302l-15 -57h-303l-110 -426q49 102 144 189t222 87z" />
    <glyph glyph-name="afii10100" unicode="&#x453;" horiz-adv-x="751" 
d="M840 1370q50 0 68 -26q45 -67 -14 -112q-13 -10 -25 -19q-13 -9 -15 -11l-252 -178h-65l200 270q53 76 103 76zM586 897q104 0 166 -55t61 -141q0 -87 -62 -141q-61 -54 -167 -96t-140 -65q-90 -66 -90 -176q0 -57 34 -90t87 -33q121 0 225 170l52 -32l-19 -31
q-135 -227 -371 -227q-119 0 -179 64t-60 131q0 113 63 179q23 25 72 53q48 29 68 35q228 76 267 152q15 31 15 77q0 45 -33 75t-85 30t-115 -46q-64 -46 -107 -138l-57 26q59 139 165 209t210 70z" />
    <glyph glyph-name="afii10101" unicode="&#x454;" horiz-adv-x="796" 
d="M430 -20q-145 0 -226 93t-81 233q-1 140 65 274t192 225q126 92 259 92t204 -51t70 -125q-1 -47 -31 -78t-75 -31t-76 25t-31 74q0 17 10 47t9 41q0 41 -55 41q-80 0 -153 -104t-110 -253q91 63 131 63t70 -14t69 -36t60 -23q21 0 64 31l30 -35q-27 -31 -75 -61t-86 -29
q-40 -1 -86 27t-60 34t-45 6t-86 -40q-10 -45 -10 -111q1 -209 147 -209t267 197l49 -35l-27 -39q-158 -229 -383 -229z" />
    <glyph glyph-name="afii10102" unicode="&#x455;" horiz-adv-x="712" 
d="M356 51q51 0 86 38t35 94t-52 117q-17 22 -61 71t-68 79t-46 80t-23 99q0 111 90 189q91 78 233 79q142 0 200 -49q58 -48 57 -98q0 -50 -25 -76q-24 -26 -60 -27q-36 1 -55 19t-24 33q-4 15 -8 44q-14 90 -82 91q-47 0 -77 -33t-30 -86t76 -133q122 -122 148 -174
q34 -69 37 -138q-1 -122 -91 -206t-236 -84t-224 54t-78 132q0 47 25 76q26 28 71 28t71 -26t25 -64l-6 -59q0 -27 20 -49t72 -21z" />
    <glyph glyph-name="afii10103" unicode="&#x456;" horiz-adv-x="622" 
d="M422 1286q0 53 39 92t92 39t92 -39t39 -92t-39 -92t-92 -39t-92 39t-39 92zM180 137q0 76 30 158t84 213t54 183q0 79 -45 79q-68 0 -158 -156l-14 -24l-39 22q74 141 163 213t169 72t122 -41t42 -106t-33 -158l-100 -295q-35 -98 -35 -126t15 -41t34 -13q72 0 145 141
l23 43l41 -20q-62 -145 -156 -223t-190 -78q-66 0 -109 40t-43 117z" />
    <glyph glyph-name="afii10104" unicode="&#x457;" horiz-adv-x="671" 
d="M530 1284q0 49 35 84t84 35t84 -35t35 -84t-35 -84t-84 -35t-84 35t-35 84zM162 1284q0 49 35 84t84 35t84 -35t35 -84t-36 -84q-34 -35 -83 -35t-84 35t-35 84zM131 147q0 86 84 288q84 203 84 269t-45 66q-66 0 -158 -156l-14 -24l-39 22q74 141 163 213t169 72
t122 -41q42 -40 42 -104t-33 -160l-100 -295q-2 -7 -8 -21t-16 -48q-11 -34 -11 -60q0 -25 15 -38t34 -13q72 0 145 141l23 43l41 -20q-63 -145 -157 -223t-189 -78q-66 0 -109 40t-43 127z" />
    <glyph glyph-name="afii10105" unicode="&#x458;" horiz-adv-x="557" 
d="M438 1286q0 53 39 92t92 39t93 -39t38 -92q0 -53 -38 -92t-92 -39t-93 39t-39 92zM567 748q0 -82 -61 -314l-84 -315q-97 -379 -227 -528q-53 -60 -131 -101t-174 -41q-95 0 -156 43q-62 43 -62 92t28 80t81 31q73 0 104 -105q20 -65 53 -65t57 37q23 38 37 64t30 67
q54 147 72 219q18 73 38 143l72 262q12 45 34 120t27 102t19 79t14 102t-29 50q-49 0 -143 -162l-16 -28l-44 24l19 33q27 47 35 61t43 64q97 138 206 136q158 -3 158 -150z" />
    <glyph glyph-name="afii10106" unicode="&#x459;" horiz-adv-x="1277" 
d="M840 176q0 -129 86 -129q94 0 145 90t51 162q0 170 -155 170q-29 0 -66 -10l-12 -43q-49 -170 -49 -240zM774 795q0 18 -38 18t-80 -26q-42 -25 -70 -59t-56 -104q-29 -70 -77 -245q-47 -174 -91 -252q-84 -147 -235 -147q-70 0 -109 36q-38 36 -38 87q0 50 31 84
q32 34 89 34t89 -62q18 -34 42 -34q47 0 85 80t76 222t54 183q60 154 156 220t264 67q76 0 107 -13t31 -50q0 -14 -17 -68l-69 -242q98 25 157 25q131 0 195 -72t63 -166q0 -135 -127 -233t-298 -98t-238 106q-33 51 -33 121t27 164l108 409q2 4 2 15z" />
    <glyph glyph-name="afii10107" unicode="&#x45a;" horiz-adv-x="1294" 
d="M856 176q0 -129 86 -129q100 0 148 91t49 164q0 73 -19 104q-39 63 -137 63q-28 0 -65 -10l-13 -43q-49 -176 -49 -240zM1092 549q131 0 194 -72t64 -166q0 -135 -127 -233t-310 -98q-82 0 -138 26q-114 52 -120 182q0 84 11 129l26 111h-270l-115 -428h-217l41 137
q127 424 127 574q0 55 -33 55t-69 -49t-60 -109l-10 -24l-43 18l14 33q115 262 293 262q57 0 93 -38t36 -126t-26 -190l-15 -51h271l104 385h217l-96 -353q98 25 158 25z" />
    <glyph glyph-name="afii10108" unicode="&#x45b;" horiz-adv-x="1142" 
d="M815 897q74 0 126 -41t52 -133t-49 -236l-63 -196q-31 -88 -31 -121q0 -53 41 -53q76 0 156 162l12 24l41 -12q-58 -152 -152 -232t-188 -79q-66 0 -108 42t-42 108t35 173l84 266q27 84 27 119q0 76 -66 76q-76 0 -163 -106t-167 -355l-98 -303h-219l281 1047h-201
l14 57h203q22 62 22 114t-30 67q-31 15 -101 22l-26 2l16 57q283 7 430 27l-76 -289h302l-15 -57h-303l-110 -426q57 115 154 195t212 81z" />
    <glyph glyph-name="afii10109" unicode="&#x45c;" horiz-adv-x="999" 
d="M906 1370q50 0 68 -25q17 -26 17 -58t-32 -55q-9 -8 -23 -18t-16 -12l-252 -178h-66l201 270q53 76 103 76zM279 766q-57 0 -140 -182l-43 18q24 68 95 171q37 54 93 89t119 35q131 0 132 -156q0 -104 -29 -198l-14 -51h38q76 0 129 88q14 23 53 101t79 125q76 93 182 91
q65 0 97 -35t32 -78q0 -42 -26 -74t-82 -32t-76 41q-21 41 -48 41t-46 -30t-43 -81q-23 -51 -36 -74q-47 -90 -116 -110v-6q109 -16 155 -156q7 -23 27 -101t33 -92q14 -13 28 -14q51 0 111 152l14 37l41 -15l-8 -24q-43 -129 -102 -198t-166 -68q-63 0 -102 36
q-38 37 -49 77t-19 110l-17 119q-8 61 -24 84t-45 22h-31l-115 -428h-217l99 362q70 254 69 349q0 55 -32 55z" />
    <glyph glyph-name="afii10110" unicode="&#x45e;" horiz-adv-x="903" 
d="M610 1260l-14 -64q0 -47 66 -47q126 0 294 211l54 -47q-209 -260 -416 -260q-112 0 -178 50q-66 51 -66 125t44 112t96 38q122 0 120 -118zM248 897q186 0 274 -405q45 -211 62 -441q59 115 104 254t45 217t-43 166t-43 122t27 60t54 27q124 0 124 -172q0 -284 -198 -663
t-402 -535q-123 -94 -236 -94q-66 1 -92 31t-26 67t27 66q28 29 62 29t87 -17q68 -14 78 -15q94 0 166 88t71 240q0 154 -74 456t-127 345q-14 10 -26 10q-33 1 -44 -59t-9 -123l2 -41h-50l-2 45q-10 276 134 331q29 11 55 11z" />
    <glyph glyph-name="afii10193" unicode="&#x45f;" horiz-adv-x="1134" 
d="M446 -254l-4 68q0 49 19 89q18 40 51 90t49 91h47q-10 -26 -2 -96t8 -123q1 -220 -243 -281l-19 43q94 25 94 119zM647 135q0 61 19 150h-4q-31 -71 -117 -179q-47 -57 -114 -92q-67 -34 -143 -34t-122 43q-47 43 -47 119q0 102 113 410q46 125 46 168q1 44 -42 44
q-53 0 -136 -143l-18 -33l-39 22q72 139 142 213q71 74 173 74q64 0 108 -37t44 -91q0 -89 -29 -169l-98 -305q-29 -88 -29 -121q0 -66 62 -65q47 0 101 59t120 192t117 289l73 228h217l-98 -363q-70 -256 -70 -330t37 -73q51 0 125 159l11 23l43 -19l-15 -30
q-88 -188 -184 -239q-49 -26 -109 -25q-137 0 -137 155z" />
    <glyph glyph-name="afii10050" unicode="&#x490;" horiz-adv-x="1167" 
d="M1040 1362q202 0 310 127q51 61 88 156h78q-72 -209 -119 -385h-523q-39 0 -50 -12t-27 -66l-258 -922q-31 -112 -17 -151q4 -13 30 -25t77 -14l65 -2l-20 -72l-352 6l-289 -6l20 72l41 2q94 6 121 79q10 29 17 57t10 34l241 864q39 140 -1 171q-22 17 -91 19l-61 2
l20 72l350 -6h340z" />
    <glyph glyph-name="afii10098" unicode="&#x491;" horiz-adv-x="825" 
d="M123 823h-55l16 54h414q178 1 273 75t128 174h49l-84 -317h-385l-217 -809h-219l178 672q21 56 -2 116q-13 35 -96 35z" />
    <glyph glyph-name="endash" unicode="&#x2013;" horiz-adv-x="1333" 
d="M246 786h964v-127h-964v127z" />
    <glyph glyph-name="emdash" unicode="&#x2014;" horiz-adv-x="1105" 
d="M1190 549l-53 -195h-1106l53 195h1106z" />
    <glyph glyph-name="quoteleft" unicode="&#x2018;" horiz-adv-x="538" 
d="M515 1059q42 0 86 -37t44 -96q0 -60 -44 -98q-43 -38 -113 -38t-123 59q-53 58 -54 152q1 129 105 241t270 165l23 -53q-95 -35 -181 -113t-104 -211q49 29 91 29z" />
    <glyph glyph-name="quoteright" unicode="&#x2019;" horiz-adv-x="538" 
d="M379 1273q0 58 44 96q45 38 115 38t122 -58t53 -155q1 -144 -111 -250t-264 -153l-23 53q254 96 283 323q-105 -64 -179 9q-40 39 -40 97z" />
    <glyph glyph-name="quotesinglbase" unicode="&#x201a;" horiz-adv-x="538" 
d="M106 122q0 58 44 96t116 38q70 0 122 -58t52 -155q0 -143 -111 -249t-263 -154l-23 53q254 96 283 323q-104 -63 -180 9q-40 39 -40 97z" />
    <glyph glyph-name="quotedblleft" unicode="&#x201c;" horiz-adv-x="956" 
d="M905 1059q43 0 86 -36t43 -96q0 -61 -44 -99t-114 -38t-122 59q-53 58 -54 152q0 129 104 241t271 165l23 -53q-96 -35 -182 -113t-103 -211q49 29 92 29zM494 1059q42 0 86 -37t45 -96q0 -60 -44 -98t-114 -38t-123 59q-53 58 -53 152q0 129 104 241q105 112 271 165
l22 -53q-96 -35 -181 -113t-104 -211q49 29 91 29z" />
    <glyph glyph-name="quotedblright" unicode="&#x201d;" horiz-adv-x="954" 
d="M786 1273q0 58 44 96t115 38t123 -58t52 -155q0 -143 -111 -250q-112 -106 -264 -153l-22 53q254 96 283 323q-104 -63 -180 9q-40 39 -40 97zM377 1273q0 58 44 96q45 38 115 38t122 -58t53 -155q1 -144 -111 -250t-264 -153l-23 53q254 96 283 323q-105 -64 -179 9
q-40 39 -40 97z" />
    <glyph glyph-name="quotedblbase" unicode="&#x201e;" horiz-adv-x="954" 
d="M516 122q0 58 44 96t115 38t123 -58t52 -155q0 -143 -112 -249t-263 -154l-22 53q254 96 282 323q-105 -64 -179 9q-40 39 -40 97zM106 122q0 58 44 96t116 38q70 0 122 -58t52 -155q0 -143 -111 -249t-263 -154l-23 53q254 96 283 323q-104 -63 -180 9q-40 39 -40 97z
" />
    <glyph glyph-name="dagger" unicode="&#x2020;" horiz-adv-x="1157" 
d="M1150 909q28 1 44 -25t16 -61t-26 -69t-66 -35q-42 0 -114 47t-107 47q-94 0 -141 -80l69 -94q-127 -291 -239 -694l-99 -355h-38l55 371q59 403 55 703l117 69q-20 86 -88 86q-37 0 -111 -44q-75 -44 -113 -44t-70 34t-32 72t20 57t42 19q51 0 53 -41l-6 -43
q0 -31 26 -30q26 0 38 13q11 13 14 15q2 1 10 13q7 12 23 32t31 31q15 13 53 15t79 -29t59 -31t18 24t-18 75q-20 50 -20 96q0 115 76 161q35 18 35 34t-20 36q-19 21 -19 56q0 34 22 56t62 22q38 0 67 -26q29 -24 29 -57v-2q0 -29 -21 -42q-4 -3 -16 -10q-45 -26 -45 -48
q0 -4 18 -51q27 -53 27 -93t-11 -63q-10 -24 -14 -32t-24 -36q-20 -26 -36 -46q-16 -18 -17 -31v-11q2 -12 17 -12t61 29q90 57 131 -3q8 -13 20 -40q31 -63 64 -64q18 0 18 19l-18 59q0 18 16 34t44 17z" />
    <glyph glyph-name="daggerdbl" unicode="&#x2021;" horiz-adv-x="1165" 
d="M698 -55q35 0 117 36q82 35 117 35t53 -18q19 -18 19 -51t-25 -72t-59 -39t-47 20t-9 32q4 14 12 28q7 14 7 27q0 8 -13 8t-24 -15t-19 -25q-8 -9 -12 -15q-69 -94 -153 -41q-16 -61 -68 -123q-6 -6 -11 -12t-11 -11q-6 -4 -7 -14q0 -11 18 -21q17 -10 17 -36t-30 -58
q-30 -31 -76 -31t-60 35q-4 10 1 42t48 52q18 10 21 19v8q0 4 -6 17t-15 42t2 91q-37 -18 -71 -19q-54 0 -66 81q-3 22 -9 28q-5 6 -15 6q-20 1 -22 -25q-1 -26 -3 -40t-25 -32q-22 -18 -48 -18t-38 12t-12 44t30 78t78 46t114 -36t100 -35q35 0 55 10l-51 72l196 407h41
l-8 -407l-84 -72q16 -10 51 -10zM1150 1008q-1 24 2 36t26 32q24 20 50 22q26 0 38 -12t12 -44t-32 -78t-78 -46t-112 36t-100 35q-35 0 -55 -10l49 -72l-194 -407h-41l6 407l86 72q-16 10 -51 10t-122 -36q-87 -35 -116 -35t-49 17t-20 48t22 73q23 42 60 42t50 -18t8 -32
t-11 -30t-6 -26t8 -9t17 5q9 5 29 34q49 75 95 75q45 1 70 -18q17 57 45 93t40 47t13 20q1 10 -17 20t-18 36t25 58t77 31q63 0 64 -69q0 -35 -49 -60q-18 -10 -21 -18v-8q0 -4 12 -34t11 -47q0 -17 -6 -69q81 34 109 6q23 -22 33 -83q3 -19 23 -19q19 1 18 25z" />
    <glyph glyph-name="bullet" unicode="&#x2022;" horiz-adv-x="780" 
d="M309 586q-1 82 57 139t140 57t139 -57t57 -139t-57 -140t-139 -57q-82 -1 -140 57t-57 140z" />
    <glyph glyph-name="ellipsis" unicode="&#x2026;" horiz-adv-x="1767" 
d="M1274 133q0 59 44 103t103 45q59 0 103 -44q44 -43 45 -103q0 -60 -44 -104q-43 -44 -103 -44t-104 44t-44 103zM735 133q0 59 44 103q43 44 103 45q60 0 104 -44q44 -43 44 -103t-44 -104t-103 -44t-104 44q-44 44 -44 103zM197 133q0 59 44 103t103 45q59 0 103 -44
q45 -43 45 -103t-44 -104t-104 -44q-59 0 -103 44t-44 103z" />
    <glyph glyph-name="perthousand" unicode="&#x2030;" horiz-adv-x="2861" 
d="M2421 23q106 -1 187 143t81 272t-39 172t-82 43q-98 0 -181 -148t-83 -315q0 -108 40 -137q40 -30 77 -30zM2771 451q0 -189 -108 -351t-285 -161q-129 0 -225 86q-95 85 -95 255t126 318t304 147q123 1 203 -77t80 -217zM1876 437q0 129 -38 173t-83 43q-98 0 -181 -148
t-83 -315q0 -90 36 -129t83 -38q106 1 186 143t80 271zM1958 451q0 -189 -106 -351t-285 -161q-127 0 -225 86q-97 87 -97 255t128 316t304 149q119 1 200 -75t81 -219zM1047 1147q0 98 -40 145t-102 47t-124 -87q-62 -86 -93 -194t-31 -190t37 -123t88 -40q104 0 185 138
q80 138 80 304zM1276 1200q-74 0 -166 37q14 -66 14 -125q0 -207 -116 -354t-271 -148q-121 0 -222 91t-101 251t122 317t289 156q65 0 105 -18q39 -19 45 -23t33 -19t28 -15q137 -80 234 -80q186 0 377 209h67l-962 -1596h-109l817 1354q-110 -37 -184 -37z" />
    <glyph glyph-name="guilsinglleft" unicode="&#x2039;" horiz-adv-x="708" 
d="M227 453l66 45q25 16 67 45t83 55q40 26 171 137q25 20 35 21q14 0 15 -17q0 -43 -256 -295l12 -20q113 -193 119 -256v-8q-1 -12 -13 -12t-34 26q-78 98 -197 213z" />
    <glyph glyph-name="guilsinglright" unicode="&#x203a;" horiz-adv-x="618" 
d="M195 145q-16 0 -17 19q0 41 256 295l-12 20q-102 170 -119 252v12q4 13 16 13q11 0 57 -58t171 -182l67 -65l-36 -25q-283 -188 -347 -254q-20 -27 -36 -27z" />
    <glyph glyph-name="Euro" unicode="&#x20ac;" 
d="M892 897q236 0 308 -68l-18 -114h-45q6 123 -203 123q-148 0 -238 -78t-149 -230h483l-47 -53h-455q-2 -6 -6 -20l-6 -21q-4 -14 -10 -41h403l-49 -55h-366q-25 -147 33 -224t196 -77q203 0 266 123h45l-43 -111q-113 -69 -341 -69t-325 90t-75 268h-137l49 55h92l8 43
q2 6 6 20t6 19h-124l49 53h96q78 182 220 274q141 92 377 93z" />
    <glyph glyph-name="afii61352" unicode="&#x2116;" horiz-adv-x="2271" 
d="M2251 0h-629l37 131h629zM1939 461q0 -59 33 -83t64 -24q117 0 178 158q12 32 40 124q47 156 9 215q-27 42 -76 42t-98 -46q-49 -45 -71 -97t-51 -141q-28 -89 -28 -148zM2000 297q-96 0 -178 62t-81 182q0 120 102 239q68 78 167 124t202 46q104 0 184 -62t80 -181
t-81 -223t-212 -154q-87 -33 -183 -33zM1935 1292q-96 0 -154 -139q-37 -87 -83 -254l-248 -926h-94l-545 1104l-184 -698q-43 -166 -109 -259t-130 -120t-170 -27q-104 0 -150 44q-46 45 -48 101q0 56 42 106t112 50q84 0 84 -98l-2 -57q0 -45 50 -45q93 0 154 138
q41 94 85 255l198 747q-35 76 -143 80l-43 2l21 72q139 -8 223 -6l182 6l475 -989l162 608q71 262 190 341q94 63 202 64t160 -41t52 -104q0 -63 -43 -109t-108 -46q-84 0 -84 98l4 43q0 59 -58 59z" />
    <glyph glyph-name="trademark" unicode="&#x2122;" horiz-adv-x="2199" 
d="M1333 1270q0 26 -19 34q-19 9 -63 9h-16l14 55l148 -2l145 2l100 -571l355 571l145 -2l135 2v-55q-68 2 -88 -24t-32 -101l-76 -469q-6 -49 -6 -53q0 -53 77 -62l37 -4l-16 -55l-229 4l-195 -4l14 55l37 4q56 6 72 42q8 19 14 52l90 496l-397 -649h-76l-108 649
l-113 -406q-23 -80 -22 -110q0 -70 83 -76l31 -2l-16 -55l-168 4l-148 -4l2 55q47 0 77 22t39 44t22 63l131 447q20 68 20 94zM668 649q0 -23 7 -35t40 -12h37l39 -2l-15 -55l-219 4l-242 -4l17 55l41 2q53 2 72 24t32 70l168 604h-37q-145 0 -198 -68q-29 -36 -43 -91h-68
l23 76q43 147 45 151h749l-4 -117l6 -123h-63q-14 188 -211 172l-158 -563q-18 -66 -18 -88z" />
    <glyph glyph-name="zerooldstyle" unicode="&#xf730;" 
d="M739 819q-147 0 -243 -284q-64 -186 -64 -293t43 -146t98 -39q78 0 150 113t107 247q36 134 36 226q0 176 -127 176zM741 897q167 0 269 -99t102 -266q0 -126 -66 -252t-194 -213q-129 -87 -295 -87t-268 102t-103 268q0 121 65 242t195 213t295 92z" />
    <glyph glyph-name="oneoldstyle" unicode="&#xf731;" 
d="M571 726q0 34 -23 50t-93 25l-62 4l19 69l252 -4h151l244 4l-19 -69l-67 -2q-68 -2 -100 -44t-48 -108l-118 -420q-13 -49 -13 -88q-1 -65 119 -73l61 -4l-20 -70l-272 4h-136l-241 -4l20 70l54 4q75 6 107 42t50 97l125 446q10 37 10 71z" />
    <glyph glyph-name="twooldstyle" unicode="&#xf732;" 
d="M846 199q72 0 129 114h76l-103 -317l-264 4h-489v41l467 346q135 100 135 195q-1 66 -51 102t-118 35q-68 0 -123 -33q-54 -33 -65 -108l-4 -33q-6 -55 -37 -56q-16 1 -32 19t-17 61q0 127 90 219q103 109 269 109q116 0 212 -49q52 -27 84 -81q31 -54 31 -125t-43 -140
t-238 -172q-34 -18 -53 -29l-161 -100l2 -2h303z" />
    <glyph glyph-name="threeoldstyle" unicode="&#xf733;" 
d="M806 897q226 0 295 -96q52 -75 52 -139q0 -218 -285 -330v-2q184 -74 184 -234t-109 -291q-110 -131 -304 -206q-254 -100 -516 -88l20 75q177 8 311 58t204 123q136 139 137 274q0 188 -166 188q-72 0 -114 -18t-56 -18t-29 13q-10 9 -10 23q0 45 108 68l27 6
q383 76 383 246q0 127 -170 127q-85 0 -120 -10q-36 -10 -82 -28q-46 -16 -79 -26l66 238q131 47 253 47z" />
    <glyph glyph-name="fouroldstyle" unicode="&#xf734;" 
d="M680 115l137 493q-218 -203 -303 -281q-86 -77 -219 -212h385zM1153 113q0 -12 -8 -37l-31 -76h-227l-137 -487h-240l137 487h-504l35 123q190 194 301 297q111 102 271 248t245 225h142l-217 -778h163l50 10q20 0 20 -12z" />
    <glyph glyph-name="fiveoldstyle" unicode="&#xf735;" 
d="M903 827q98 -1 146 15q47 16 53 18t8 3t5 3t9 2t21 2h10q14 -4 14 -28q0 -54 -118 -134q-55 -38 -149 -64t-174 -26q-81 0 -183 21l-49 -176q53 4 79 4q115 0 199 -28q84 -27 128 -65t76 -102t32 -151q0 -227 -252 -415t-676 -198l12 74q319 20 502 174q182 154 182 310
q0 186 -268 186q-68 0 -174 -19l-6 13q131 393 194 647h49q147 -66 330 -66z" />
    <glyph glyph-name="sixoldstyle" unicode="&#xf736;" 
d="M397 254q0 -197 131 -197q82 0 158 125q47 78 83 200t36 214t-90 92q-55 0 -92 -76q-19 -37 -27 -40t-16 -3q-33 0 -33 33t43 98q68 104 188 104t197 -71q76 -72 76 -207q0 -211 -152 -379t-362 -167q-158 0 -266 106t-107 303q0 385 328 666q268 227 628 311l23 -68
q-393 -131 -584 -454q-72 -123 -117 -291t-45 -299z" />
    <glyph glyph-name="sevenoldstyle" unicode="&#xf737;" 
d="M508 676q-119 0 -174 -141l-19 -48h-71l137 500h78l-13 -43q-10 -37 14 -53t50 -17h616v-18q-80 -139 -144 -275q-64 -137 -212 -455q-147 -318 -287 -599h-319q135 208 328 459q268 367 448 690h-432z" />
    <glyph glyph-name="eightoldstyle" unicode="&#xf738;" 
d="M340 274q0 -98 66 -160t168 -62t165 78q63 79 64 179q-1 152 -146 275l-67 57q-134 -68 -192 -169q-58 -100 -58 -198zM987 1110q0 96 -54 150t-142 55q-89 1 -143 -59t-54 -138t29 -126t92 -109l67 -66q205 109 205 293zM554 -27q-202 -1 -306 95t-105 229
q0 266 344 385l41 14l-41 43q-119 123 -119 295t131 265q130 93 302 93t272 -82q101 -83 101 -212t-104 -212q-75 -60 -189 -112l-37 -16l28 -29q45 -45 74 -81t59 -106t29 -145q0 -182 -139 -303t-341 -121z" />
    <glyph glyph-name="nineoldstyle" unicode="&#xf739;" 
d="M899 623q0 197 -131 196q-82 0 -158 -125q-47 -78 -83 -200q-35 -122 -35 -213q0 -92 90 -93q53 0 92 76q2 4 4 10q25 31 39 33q33 0 33 -33t-43 -98q-68 -104 -189 -104q-120 0 -196 72t-76 206q0 211 151 379q152 168 363 168q158 -1 266 -107t107 -303
q0 -385 -328 -665q-269 -227 -629 -311l-22 67q549 183 700 746q45 168 45 299z" />
    <glyph glyph-name="hyphenminus" horiz-adv-x="372" 
d="M457 549l-54 -195h-362l53 195h363z" />
    <glyph glyph-name="accent" horiz-adv-x="2" 
d="M-81 1370q50 0 68 -25q17 -26 17 -58t-32 -55q-30 -23 -40 -30l-251 -178h-66l201 270q53 76 103 76z" />
    <glyph glyph-name="Accent" horiz-adv-x="2" 
d="M-129 1847q39 1 67 -27t27 -63q0 -70 -115 -137l-337 -199h-84l292 336q29 33 41 46t41 29t68 15z" />
    </font>
</defs>
</svg>
