<?xml version="1.0" standalone="no"?>
<!DOCTYPE svg PUBLIC "-//W3C//DTD SVG 1.1//EN" "http://www.w3.org/Graphics/SVG/1.1/DTD/svg11.dtd" >
<svg xmlns="http://www.w3.org/2000/svg">
<metadata>
Created by FontPrep 20130207 at Sun Apr  2 14:44:24 2017
 By Eugene Lee
Copyright (c) 1990-1997 ParaGraph. All Rights Reserved. ITC New Baskerville is a registered trade mark of International Typeface Corporation.
</metadata>
<defs>
<font id="73435eb8f048b37f67c9919dc9f017bd" horiz-adv-x='1024' >
  <font-face 
    font-family="NewBaskervilleC"
    font-weight="400"
    font-stretch="normal"
    units-per-em="2048"
    panose-1="0 0 5 0 0 0 0 0 0 0"
    ascent="1470"
    descent="-578"
    x-height="893"
    cap-height="1368"
    bbox="-971 -578 2320 1878"
    underline-thickness="102"
    underline-position="-102"
    unicode-range="U+0020-2122"
  />
<missing-glyph horiz-adv-x="477" 
 />
    <glyph glyph-name=".notdef" horiz-adv-x="477" 
 />
    <glyph glyph-name=".null" horiz-adv-x="0" 
 />
    <glyph glyph-name="nonmarkingreturn" horiz-adv-x="681" 
 />
    <glyph glyph-name="space" unicode=" " horiz-adv-x="477" 
 />
    <glyph glyph-name="space" unicode="&#xa0;" horiz-adv-x="477" 
 />
    <glyph glyph-name="exclam" unicode="!" horiz-adv-x="659" 
d="M211 98q0 49 35 84t84 35t84 -35t35 -84t-35 -84q-35 -34 -84 -34t-84 34t-35 84zM217 1264q0 64 33 102q33 39 80 39t80 -39q32 -38 32 -102t-30 -226q-60 -323 -56 -706h-53q4 383 -55 706q-31 162 -31 226z" />
    <glyph glyph-name="quotedbl" unicode="&#x22;" horiz-adv-x="684" 
d="M557 817h-86l-55 549h196zM213 817h-86l-55 549h196z" />
    <glyph glyph-name="numbersign" unicode="#" horiz-adv-x="1091" 
d="M633 565l57 242h-233l-56 -242h232zM653 121h-123l86 368h-233l-86 -368h-123l86 368h-231l18 76h232l55 242h-232l19 76h231l86 368h123l-86 -368h232l86 368h122l-86 -368h234l-19 -76h-231l-57 -242h233l-18 -76h-232z" />
    <glyph glyph-name="dollar" unicode="$" horiz-adv-x="954" 
d="M514 606v-567q86 16 152 103t65 186q0 158 -176 256zM252 1090q0 -152 170 -228l33 -14v479q-95 -18 -149 -83t-54 -154zM455 1552h59v-168l21 2q129 0 213 -66t83 -142q1 -41 -23 -67t-60 -26t-61 23q-26 23 -25 63l8 66q0 55 -52 82q-31 16 -88 16h-16v-510l43 -18
q315 -137 315 -414q0 -157 -105 -267t-253 -138v-289h-59v285h-25q-174 0 -261 61t-87 145q0 39 22 66q23 27 62 27q88 0 90 -99q0 -78 40 -118t140 -39l19 2v604l-39 18q-224 105 -276 230q-26 61 -25 137q0 141 101 239t239 123v172z" />
    <glyph glyph-name="percent" unicode="%" horiz-adv-x="1888" 
d="M1636 467q0 109 -50 168t-118 59q-125 0 -214 -167t-89 -320q0 -93 41 -149t111 -56q119 0 219 131t100 334zM1434 750q110 0 190 -75t80 -202q0 -283 -170 -444q-90 -86 -215 -86t-217 88q-92 89 -92 253t125 315t299 151zM811 1139q0 109 -48 168t-114 59
q-123 0 -217 -160t-94 -327q0 -103 48 -155t116 -52q125 0 217 148t92 319zM879 1082q-1 -91 -51 -211q-50 -119 -141 -189t-199 -70t-207 85q-98 85 -99 237q0 205 136 346t294 141q78 1 188 -71t228 -72q182 0 365 203h67l-948 -1598h-86l836 1413q-142 -74 -234 -74
t-176 31q27 -80 27 -171z" />
    <glyph glyph-name="ampersand" unicode="&#x26;" horiz-adv-x="1538" 
d="M281 326q0 -102 65 -180q66 -77 166 -76q149 0 274 147q-176 182 -323 399q-182 -131 -182 -290zM764 1114q0 117 -51 180q-51 64 -122 64t-123 -53t-52 -140q0 -162 168 -391q78 55 122 134t51 123t7 83zM1183 -20q-181 0 -356 198q-186 -205 -419 -205q-141 0 -228 77
q-86 77 -86 196q0 76 38 148t100 125q109 92 204 140q-143 186 -143 392q0 166 95 261t222 95t207 -76t80 -198q0 -221 -279 -402q123 -178 297 -356q33 47 96 163t108 177q85 118 196 116q61 1 106 -37t45 -92t-30 -90q-30 -35 -80 -34q-96 0 -90 114q0 47 -25 47
q-39 1 -90 -71t-113 -190t-80 -146l48 -48q37 -38 51 -50t46 -43q32 -29 50 -41l45 -30q132 -86 268 75l37 -33q-139 -182 -320 -182z" />
    <glyph glyph-name="quotesingle" unicode="'" horiz-adv-x="456" 
d="M283 817h-93l-53 549h199z" />
    <glyph glyph-name="parenleft" unicode="(" horiz-adv-x="823" 
d="M369 502q0 -540 311 -903l-45 -43q-213 208 -322 464t-109 482t109 483q109 256 322 465l45 -43q-311 -365 -311 -905z" />
    <glyph glyph-name="parenright" unicode=")" horiz-adv-x="823" 
d="M454 503q0 539 -311 904l45 43q213 -209 322 -465q108 -256 108 -482q0 -227 -108 -483t-322 -464l-45 43q311 365 311 904z" />
    <glyph glyph-name="asterisk" unicode="*" horiz-adv-x="1019" 
d="M561 988q0 -17 86 -56q27 -12 95 -18t111 -27q42 -21 42 -63t-24 -66q-25 -24 -61 -23q-36 -1 -58 17t-49 58t-41 60t-54 44t-63 30h-8q-8 -4 -9 -22v-52q-2 -27 0 -26q2 -44 32 -98t30 -100t-26 -68t-54 -21q-28 0 -54 22q-26 23 -26 67t30 100t32 108v66q0 25 -17 24
q-12 0 -50 -24t-55 -38t-42 -54q-54 -86 -115 -93q-35 -2 -61 21q-26 22 -27 66q0 44 42 64t111 27q69 6 95 19q86 39 86 57t-86 58q-27 12 -95 18q-68 7 -111 27q-42 20 -42 62t23 66q24 24 60 24t64 -26q28 -24 55 -65q28 -41 42 -55t55 -40t51 -26q17 0 17 49t-5 71
t-31 82t-26 102t26 64q54 46 108 0q26 -22 26 -67t-30 -101t-32 -110v-63q0 -27 18 -27t60 30q44 30 58 48t39 58q26 40 49 58q24 18 60 17q36 1 60 -23t23 -66q0 -73 -153 -89q-69 -6 -95 -18q-86 -42 -86 -59z" />
    <glyph glyph-name="plus" unicode="+" horiz-adv-x="1081" 
d="M68 762h417v399h109v-399h420v-105h-420v-399h-109v399h-417v105z" />
    <glyph glyph-name="comma" unicode="," horiz-adv-x="618" 
d="M354 2v4q-36 -26 -74 -26t-69 28t-31 77q0 48 33 81t85 33t97 -47q45 -48 45 -140t-58 -177t-155 -138l-28 35q115 83 139 164q16 55 16 106z" />
    <glyph glyph-name="hyphen" unicode="-" horiz-adv-x="464" 
d="M444 467h-424v133h424v-133z" />
    <glyph glyph-name="hyphen" unicode="&#xad;" horiz-adv-x="464" 
d="M444 467h-424v133h424v-133z" />
    <glyph glyph-name="period" unicode="." horiz-adv-x="536" 
d="M269 217q46 0 82 -37t36 -82t-33 -82q-33 -36 -85 -36t-86 34q-33 34 -33 85q0 52 36 85q37 33 83 33z" />
    <glyph glyph-name="slash" unicode="/" horiz-adv-x="1456" 
d="M164 -410h-88l1163 1829h94z" />
    <glyph glyph-name="zero" unicode="0" 
d="M557 1352q-82 0 -149 -80q-117 -137 -117 -592q0 -321 37 -457t105 -183q42 -28 100 -28q120 0 180 117t69 238q17 208 17 344q0 360 -68 514q-57 127 -174 127zM553 1399q182 1 313 -187t131 -528q1 -127 -33 -263t-88 -226q-54 -89 -102 -133t-108 -68
q-125 -50 -231 -12q-223 74 -308 430q-35 150 -35 270t33 249q33 130 78 215q78 147 187 208q81 45 163 45z" />
    <glyph glyph-name="one" unicode="1" 
d="M483 1049q0 160 -30 190t-99 31l-145 -2v45q258 14 459 106v-1136q0 -117 13 -157t36 -52q52 -27 125 -27l39 -4v-47l-314 6q-104 2 -315 -6v47l41 2q131 6 161 48t29 190v766z" />
    <glyph glyph-name="two" unicode="2" 
d="M809 0h-713q18 32 38 62t37 54q15 24 38 52t35 45q12 16 38 44t33 38q8 10 35 39t32 33q8 7 106 108q222 230 267 376q24 79 23 169q0 166 -79 247t-191 81t-182 -67q-72 -67 -72 -164t53 -157t121 -61q68 0 123 64q2 -74 -59 -116q-60 -42 -150 -42q-90 1 -160 69
t-70 187t103 229q102 110 320 109q218 0 337 -113t119 -264t-75 -257q-75 -105 -206 -210q-44 -35 -115 -87t-103 -79q-117 -92 -205 -213h678l-58 -293h-47l2 29q3 77 -17 86q-7 2 -36 2z" />
    <glyph glyph-name="three" unicode="3" horiz-adv-x="1087" 
d="M995 442q0 -209 -172 -343t-383 -134q-162 -1 -251 59t-89 136q0 40 26 64t69 24t67 -32q23 -32 40 -73q22 -53 52 -96q31 -43 128 -43t188 64q53 36 85 120t31 207q0 324 -221 324q-82 0 -136 -77t-96 -77t-42 39q0 27 21 44q35 28 67 46q326 184 326 412
q-1 118 -55 174t-146 57q-92 0 -154 -56q-62 -55 -63 -121q1 -66 31 -114t94 -48t125 46q-51 -133 -187 -133q-80 0 -137 46t-57 130q0 113 104 212t276 99t271 -72q98 -74 98 -188q0 -236 -342 -376l53 2q170 6 274 -85t105 -237z" />
    <glyph glyph-name="four" unicode="4" 
d="M616 516v627l-477 -627h477zM616 248v196h-555v72l684 889h48v-889h245v-72h-245v-196q0 -100 12 -124t15 -32q2 -10 16 -18t17 -12t21 -7q18 -4 23 -4l109 -8v-47l-291 6q-111 2 -318 -6v47l52 4q61 7 97 19q57 20 67 98q3 25 3 84z" />
    <glyph glyph-name="five" unicode="5" 
d="M557 1294q178 0 313 146q-20 -136 -117 -223q-42 -37 -121 -66t-164 -29t-185 29l-27 -428q127 147 342 147q164 0 279 -100t114 -272q0 -227 -164 -380t-389 -153q-178 -1 -262 61t-84 136q0 42 24 66t64 24q80 0 107 -102q12 -39 25 -64q13 -26 50 -48q36 -22 80 -22
t74 4t81 30q52 26 90 71t67 137t28 217q0 330 -243 330q-76 0 -150 -38t-113 -114q10 -29 11 -69q0 -66 -43 -66q-51 0 -51 62l45 837q141 -123 319 -123z" />
    <glyph glyph-name="six" unicode="6" horiz-adv-x="1093" 
d="M291 471q0 -459 262 -459q250 0 250 402q1 176 -27 260t-76 116t-128 32q-82 0 -159 -62q-77 -61 -122 -139v-150zM587 883q167 0 292 -111q125 -110 125 -310t-127 -348t-324 -149q-134 0 -257 92q-122 92 -176 301q-30 117 -30 268t41 298q77 278 217 376
q140 99 280 99t207 -48q67 -47 67 -97q-1 -107 -87 -107q-29 0 -53 15q-24 14 -33 30q-10 16 -26 47q-15 31 -27 48t-42 37t-69 19q-278 1 -274 -638q129 178 296 178z" />
    <glyph glyph-name="seven" unicode="7" 
d="M1028 1364v-35q-141 -274 -249 -579t-156 -560q1 -2 -5 -26t-9 -49t-12 -43t-17 -38t-30 -39q-22 -20 -40 -26t-48 -6t-59 27t-29 83t46 166q45 110 194 394l289 555h-485q-136 0 -168 -36q-50 -53 -74 -148l-12 -50h-49l121 576h53l-6 -31q-24 -106 10 -124
q20 -11 59 -11h676z" />
    <glyph glyph-name="eight" unicode="8" 
d="M545 12q145 0 231 85t86 204t-109 201q-73 56 -153 93q-80 38 -88 42l-78 37q-193 -119 -192 -340q0 -146 79 -234t224 -88zM805 1055q0 153 -83 225q-82 72 -196 72t-186 -72t-72 -173t118 -183t218 -115l70 -31q131 125 131 277zM946 1081q0 -106 -68 -189t-159 -134
q117 -54 199 -152t81 -221q0 -176 -128 -298q-129 -122 -329 -122q-200 1 -327 101t-127 231t84 235t215 164q-77 37 -137 95q-115 110 -115 258q0 149 124 249t290 100q165 0 281 -91q116 -92 116 -226z" />
    <glyph glyph-name="nine" unicode="9" horiz-adv-x="1093" 
d="M803 893q0 459 -262 459q-250 0 -250 -402q0 -243 56 -325t157 -81q100 1 177 61t122 138v150zM505 481q-165 0 -290 112q-125 113 -125 311t127 346t324 149q161 0 302 -133q73 -70 117 -205t44 -303t-42 -316q-79 -280 -218 -379q-139 -98 -276 -98q-138 0 -207 48
t-68 114q0 39 25 66q26 27 61 26q61 0 112 -90q23 -41 33 -57t38 -34t66 -18q190 0 248 293q31 170 27 346q-133 -178 -298 -178z" />
    <glyph glyph-name="colon" unicode=":" horiz-adv-x="536" 
d="M269 217q46 0 82 -37t36 -82t-33 -82q-33 -36 -85 -36t-86 34q-33 34 -33 85q0 52 36 85q37 33 83 33zM269 915q46 1 82 -35t36 -83t-36 -83t-82 -36t-83 32t-36 87q0 55 36 87q37 31 83 31z" />
    <glyph glyph-name="semicolon" unicode=";" horiz-adv-x="503" 
d="M297 2v4q-33 -26 -72 -26t-71 30t-31 76q0 47 33 80q32 33 84 33t98 -47q46 -48 45 -140t-59 -177t-154 -138l-29 35q114 82 135 150q21 69 21 120zM250 911q53 0 86 -37q33 -36 33 -82t-37 -82t-82 -36t-82 36t-37 82t33 82t86 37z" />
    <glyph glyph-name="less" unicode="&#x3c;" horiz-adv-x="1110" 
d="M168 500l852 -437v-104l-938 475v131l938 475v-104z" />
    <glyph glyph-name="equal" unicode="=" horiz-adv-x="1081" 
d="M68 612h946v-102h-946v102zM68 907h946v-102h-946v102z" />
    <glyph glyph-name="greater" unicode="&#x3e;" horiz-adv-x="1110" 
d="M942 500l-852 436v104l938 -475v-131l-938 -475v104z" />
    <glyph glyph-name="question" unicode="?" horiz-adv-x="829" 
d="M147 98q0 49 35 84t84 35t84 -35t35 -84t-35 -84q-35 -34 -84 -34t-84 34t-35 84zM287 342h-56v391h86q229 0 292 108q28 48 28 122q0 119 -70 207t-180 87q-43 0 -93 -10t-96 -10t-74 26q-28 27 -28 59t29 60t102 29q185 0 331 -156t147 -352q0 -83 -28 -147t-65 -99
q-88 -83 -237 -102q-43 -2 -88 0v-213z" />
    <glyph glyph-name="at" unicode="@" horiz-adv-x="1992" 
d="M735 444q0 -100 52 -145t112 -45q123 0 224 158t124 415q2 101 -46 161t-111 61q-92 0 -178 -112t-131 -253q-46 -140 -46 -240zM123 625q0 258 139 470q138 213 362 327t478 114q354 0 561 -197t207 -485t-151 -477q-151 -188 -326 -189q-99 0 -161 60t-65 160
q-51 -96 -134 -158t-187 -62t-184 98q-82 98 -82 230q0 133 66 264q67 131 185 224q119 92 250 92q93 0 143 -62t62 -141l51 184h158l-152 -524q-41 -141 -41 -195t32 -80q30 -28 79 -28q162 0 285 182t123 408q0 274 -198 457q-199 183 -539 183t-588 -259
q-248 -261 -248 -617t215 -558t577 -202t660 219l24 -36q-305 -231 -694 -231t-648 232t-259 597z" />
    <glyph glyph-name="A" unicode="A" horiz-adv-x="1376" 
d="M377 563h461l-230 590zM1190 2h-111q-55 0 -254 -6v47l47 2q62 2 90 34q28 33 28 71t-56 178l-70 172h-512l-28 -72q-94 -238 -95 -276q0 -102 129 -107l41 -2v-47q-182 6 -225 6h-53l-168 -6v47q102 8 165 93q62 85 150 308l377 961h70l432 -1071q63 -156 119 -224
t157 -67v-47q-198 6 -233 6z" />
    <glyph glyph-name="B" unicode="B" horiz-adv-x="1366" 
d="M487 655v-374q0 -94 36 -162t187 -69q152 -1 235 84t83 215t-67 225q-37 52 -118 84t-196 32h-115q-45 0 -45 -35zM487 1253v-462q0 -47 39 -48h109q129 0 204 82t75 205t-74 205t-236 82h-51q-43 -1 -55 -15t-11 -49zM274 1077q0 143 -32 189t-115 51l-51 4v47
q172 -6 192 -6h107q252 6 254 6q305 0 418 -111q90 -90 92 -210q0 -243 -314 -312v-6q152 -12 288 -84q75 -39 121 -111t46 -169q0 -369 -594 -369l-348 6q-156 0 -262 -6v47l51 4q84 4 116 50t31 190v790z" />
    <glyph glyph-name="C" unicode="C" horiz-adv-x="1433" 
d="M352 678q0 -379 180 -539q133 -119 314 -119q127 0 223 60t142 143q46 82 77 203l12 47h37v-457h-26l-49 107q-201 -158 -492 -158q-290 0 -484 200t-194 511t210 517t519 206q223 0 422 -131l33 98h33l14 -412h-47q-27 184 -152 286t-285 103q-160 0 -308 -125
q-81 -69 -130 -208t-49 -332z" />
    <glyph glyph-name="D" unicode="D" horiz-adv-x="1542" 
d="M487 1251v-913q-1 -152 49 -220t183 -67q133 0 216 35t131 88q124 137 124 459q0 214 -54 358t-155 221q-129 101 -334 101h-59q-55 1 -78 -13t-23 -49zM274 1077q0 143 -32 191t-115 51l-51 2v47l268 -6q55 -2 176 0t188 1t173 -17t176 -48q71 -32 149 -94
q78 -63 135 -155q109 -175 109 -395q0 -380 -286 -560q-73 -47 -238 -81q-93 -17 -268 -17l-279 6q-125 2 -303 -6v47l51 4q84 4 116 50t31 190v790z" />
    <glyph glyph-name="E" unicode="E" horiz-adv-x="1275" 
d="M528 682h-41v-369q0 -153 65 -205t235 -52q384 -1 391 276h47q-6 -98 -11 -336l-833 6q-158 0 -305 -6v47l51 4q84 4 116 50t31 190v790q0 143 -32 189t-115 51l-51 4v47q145 -6 305 -6l727 6v-309h-43l-6 28q-29 135 -97 180q-69 44 -243 44h-162q-49 0 -59 -9t-11 -45
v-520h41q139 1 220 71t75 187h51q-12 -291 0 -542h-51q-12 229 -295 229z" />
    <glyph glyph-name="F" unicode="F" horiz-adv-x="1198" 
d="M879 958v-524h-43q8 143 -91 189q-76 34 -163 34h-95v-340q0 -79 3 -115q2 -36 20 -76t57 -56t107 -23l45 -4v-47q-158 6 -266 6h-72q-186 0 -305 -6v47l51 4q84 6 116 49t31 191v790q0 147 -31 191q-32 43 -116 49l-51 4v47q145 -6 305 -6l731 6l35 -321h-47
q-31 176 -169 228q-98 36 -222 36h-91q-84 1 -108 -11t-23 -59v-528h117q111 1 168 73t64 172h43z" />
    <glyph glyph-name="G" unicode="G" horiz-adv-x="1587" 
d="M352 675q0 -167 35 -292t84 -192t118 -107t123 -52q167 -34 322 37q61 28 101 93q39 66 39 165t-39 144t-140 41v47h541v-47l-33 -2q-53 -4 -80 -38q-42 -52 -20 -339q-88 -2 -176 -41q-17 -8 -71 -36t-91 -44q-104 -45 -260 -47q-299 0 -506 180t-207 510t213 537
t543 207q223 0 405 -129l43 94h25l-18 -418h-43q-6 172 -121 285t-293 112q-134 0 -246 -67q-72 -43 -124 -113q-52 -69 -88 -195t-36 -293z" />
    <glyph glyph-name="H" unicode="H" horiz-adv-x="1722" 
d="M381 1362q186 0 305 6v-47l-51 -4q-84 -4 -116 -50t-32 -190v-342h748v342q0 143 -32 189t-116 51l-51 4v47q119 -6 305 -6t306 6v-47l-52 -4q-83 -4 -115 -50t-32 -190v-790q0 -143 32 -189t115 -51l52 -4v-47q-119 6 -305 6t-306 -6v47l51 4q84 4 116 50t32 190v381
h-748v-381q0 -143 32 -189t116 -51l51 -4v-47q-119 6 -305 6t-305 -6v47l51 4q84 4 116 50t31 190v790q0 143 -32 189t-115 51l-51 4v47q119 -6 305 -6z" />
    <glyph glyph-name="I" unicode="I" horiz-adv-x="770" 
d="M313 1362h144q104 0 258 6v-47l-45 -4q-66 -7 -103 -23t-53 -56t-19 -75t-3 -116v-730q0 -184 42 -222q42 -39 136 -48l45 -4v-47q-154 6 -258 6h-144q-104 0 -258 -6v47l45 4q66 7 103 23t53 56t19 75t4 116v730q-1 117 -11 160t-28 59q-47 43 -140 51l-45 4v47
q154 -6 258 -6z" />
    <glyph glyph-name="J" unicode="J" horiz-adv-x="776" 
d="M498 1047v-1051q0 -80 -4 -137t-29 -141t-68 -135q-43 -52 -129 -91t-228 -39t-224 44t-82 108q0 33 22 57t57 25q33 -1 55 -15t30 -26t22 -41q53 -104 150 -105q63 0 106 28t71 68t37 208q1 40 1 107v1136q-1 117 -11 160t-28 59q-47 43 -140 51l-45 4v47q154 -6 258 -6
h144q104 0 258 6v-47l-45 -4q-66 -7 -103 -23q-63 -28 -72 -131q-3 -34 -3 -116z" />
    <glyph glyph-name="K" unicode="K" horiz-adv-x="1486" 
d="M487 287q0 -143 32 -189t116 -51l51 -4v-47q-119 6 -305 6t-305 -6v47l51 4q84 4 116 50t31 190v790q0 143 -32 189t-115 51l-51 4v47q119 -6 305 -6t305 6v-47l-51 -4q-84 -4 -116 -50t-32 -190v-487q504 518 504 649q0 56 -60 70q-22 4 -75 10l-22 2v47q172 -10 274 -6
l190 6v-47q-68 -1 -110 -21t-86 -75l-135 -172l-213 -258l344 -400q44 -51 110 -135q139 -176 196 -201q30 -12 62 -12l41 -4v-47l-331 6l-304 -6v47l60 4q102 8 102 57q0 43 -125 193l-293 350l-129 -135v-225z" />
    <glyph glyph-name="L" unicode="L" horiz-adv-x="1312" 
d="M487 1047v-711q0 -191 79 -242q42 -27 82 -34t128 -7t154 8t138 37q139 57 159 264h51l-18 -366l-82 4h-693q-317 0 -409 -4v47l51 4q84 4 116 50t31 190v790q0 143 -32 189t-115 51l-51 4v47q123 -6 192 -6h185q104 0 258 6v-47l-45 -4q-66 -7 -103 -23
q-61 -27 -73 -131q-3 -34 -3 -116z" />
    <glyph glyph-name="M" unicode="M" horiz-adv-x="1861" 
d="M342 317q0 -117 10 -159q10 -44 28 -60q48 -43 140 -51l45 -4v-47q-151 6 -265 6t-224 -6v47l51 4q84 4 119 62q29 45 28 208v760q0 143 -32 189t-115 51l-51 4v47q166 -6 207 -6l202 2l451 -1026l444 1026l172 -2q131 0 234 6v-47l-51 -4q-84 -4 -116 -50t-32 -190v-790
q0 -143 32 -189t116 -51l51 -4v-47q-119 6 -305 6t-305 -6v47l51 4q84 4 116 50t31 190v884l-502 -1175h-20l-510 1175v-854z" />
    <glyph glyph-name="N" unicode="N" horiz-adv-x="1632" 
d="M1358 -31h-58l-960 1161v-772q0 -207 39 -250q44 -53 145 -63l29 -2v-47q-117 6 -180 6h-127l-166 -6v47l35 2q150 6 160 169q4 68 4 106v880q-78 127 -228 121v47l213 -6l150 6l882 -1067v584q0 172 -16 280q-18 150 -141 154l-56 2v47l238 -6l235 6v-47l-30 -2
q-86 -4 -121 -47q-47 -59 -47 -377v-926z" />
    <glyph glyph-name="O" unicode="O" horiz-adv-x="1695" 
d="M1343 673q0 500 -319 636q-82 35 -170 34q-209 1 -355 -167q-147 -168 -147 -499t142 -494t341 -163q198 0 345 137q76 71 120 203t43 313zM868 1399q304 0 520 -207t216 -515t-228 -510t-535 -202q-308 0 -529 205q-220 205 -220 508q0 205 110 372t286 258t380 91z" />
    <glyph glyph-name="P" unicode="P" horiz-adv-x="1251" 
d="M487 1235v-539q57 -8 140 -8t147 30t94 81q56 92 58 215q0 301 -314 301h-22q-46 0 -64 -3q-38 -7 -39 -77zM1165 1010q0 -166 -138 -270t-376 -103q-25 0 -164 8v-328q0 -157 33 -207t158 -63l45 -4v-47q-158 6 -270 6h-144q-123 0 -233 -6v47l51 4q84 6 116 49t31 191
v790q0 143 -32 189t-115 51l-51 4v47q123 -6 192 -6h121l195 2q275 0 384 -51t153 -122q44 -70 44 -181z" />
    <glyph glyph-name="Q" unicode="Q" horiz-adv-x="1705" 
d="M352 682q0 -328 140 -497t355 -169t359 178t144 486t-140 485q-140 178 -343 178q-202 0 -352 -151q-75 -76 -119 -208t-44 -302zM864 1399q302 0 524 -201t222 -504q0 -206 -134 -407q-71 -105 -204 -189q-134 -84 -312 -124t-280 -101q43 6 84 6q134 0 368 -91t384 -91
t231 96q4 4 15 21t22 18q12 0 12 -41q0 -141 -108 -231t-270 -90t-322 124l-164 127q-47 37 -119 68t-125 31t-87 -18q-33 -18 -53 -26q-20 -9 -34 -24q-66 -41 -90 -41q-45 0 -45 41q0 33 48 55q13 6 23 11t30 11q20 5 35 10t17 5l211 119q-415 91 -570 387
q-79 151 -80 342t110 358t287 258t374 91z" />
    <glyph glyph-name="R" unicode="R" horiz-adv-x="1419" 
d="M487 1255v-571h23q100 0 156 6t127 40q69 34 109 102t40 146q0 160 -85 248q-85 89 -282 89h-22q-66 -1 -66 -60zM487 635v-348q0 -147 32 -191t116 -49l51 -4v-47q-119 6 -305 6t-305 -6v47l51 4q84 4 116 50t31 190v790q0 143 -32 189t-115 51l-51 4v47q123 -6 192 -6
h111q109 0 201 2t158 1q193 -3 281 -47t120 -104q41 -80 43 -186q0 -156 -109 -253t-272 -105l454 -523q78 -90 189 -104v-47l-164 6l-180 -6q-10 12 -39 49t-49 57q-8 12 -22 28t-33 43q-19 26 -29 38l-269 332q-76 92 -135 92h-37z" />
    <glyph glyph-name="S" unicode="S" horiz-adv-x="1036" 
d="M985 375q0 -137 -79 -233q-147 -177 -431 -177q-180 0 -352 125l-51 -86h-21v408h43q27 -172 130 -282q104 -110 242 -110t231 69t93 199t-102 208q-82 62 -205 112q-14 6 -62 26q-123 52 -217 129q-122 98 -122 259t113 269t288 108t324 -109l51 82h21l10 -362h-43
q-21 92 -88 196q-88 138 -262 138q-92 0 -169 -59q-77 -58 -77 -169t94 -177q74 -51 177 -96q103 -44 159 -72q162 -81 220 -154q85 -105 85 -242z" />
    <glyph glyph-name="T" unicode="T" horiz-adv-x="1392" 
d="M492 1362h409q201 0 428 6l12 -319h-49l-2 22q-10 113 -70 172t-227 60h-84q-74 -1 -90 -13t-16 -45v-928q0 -79 3 -115q9 -104 77 -132q39 -16 106 -23l45 -4v-47q-158 6 -266 6h-143q-109 0 -267 -6v47l45 4q68 7 107 23q65 28 77 132q3 36 3 115v928q0 25 -4 34
q-10 22 -103 24h-84q-166 1 -226 -59t-71 -173l-2 -22h-49l12 319q227 -6 429 -6z" />
    <glyph glyph-name="U" unicode="U" horiz-adv-x="1646" 
d="M487 1077v-606q0 -223 99 -327q42 -42 118 -72t183 -29q424 0 424 508v385q1 203 -15 245q-16 43 -32 75q-29 59 -111 63l-55 2v47l237 -6l236 6v-47l-31 -2q-37 -2 -57 -7q-20 -6 -47 -26t-39 -59q-25 -78 -25 -332v-360q0 -569 -555 -570q-543 0 -543 484v628
q0 147 -31 191q-32 43 -116 49l-51 4v47q119 -6 305 -6t305 6v-47l-51 -4q-84 -4 -116 -50t-32 -190z" />
    <glyph glyph-name="V" unicode="V" horiz-adv-x="1382" 
d="M259 1362q155 0 308 6v-47l-28 -2q-92 -6 -104 -19q-30 -32 -32 -77q-1 -79 129 -403t244 -580q94 201 196 473t128 357t26 129q-1 84 -48 104q-29 12 -79 16l-32 2v47q103 -6 223 -6t233 6v-47l-32 -2q-74 -4 -117 -56t-96 -188l-209 -540q-95 -244 -238 -568h-63
q-139 315 -234 555l-223 568q-45 112 -91 168t-118 61l-33 2v47q135 -6 290 -6z" />
    <glyph glyph-name="W" unicode="W" horiz-adv-x="1908" 
d="M401 1227q0 -51 41 -189l242 -784l172 563q63 201 156 551h67l342 -1098q76 220 165 520t89 394q0 125 -143 135l-33 2v47l236 -6l204 6v-47l-34 -4q-53 -6 -90 -49t-53 -87t-40 -132q-117 -451 -344 -1090h-71l-328 1061q-137 -475 -158 -535l-178 -526h-72l-383 1167
l-8 21q-6 20 -10 37t-23 47q-18 31 -25 37l-18 18q-32 33 -81 33l-43 2v47l286 -6l322 6v-47l-35 -2q-74 -5 -113 -23t-39 -69z" />
    <glyph glyph-name="X" unicode="X" horiz-adv-x="1482" 
d="M1042 95q0 24 -22 60q-23 36 -100 134l-238 303l-156 -201q-90 -115 -139 -197t4 -126q23 -18 103 -23l34 -2v-47q-178 8 -278 6l-217 -6v47q156 18 266 162l342 434l-444 563q-47 61 -86 86t-101 33v47l271 -6l319 6v-47l-43 -2q-86 -4 -102 -25q-10 -10 -11 -28
q0 -41 86 -150l256 -321l58 75q137 182 180 254t43 109q0 70 -102 82l-47 6v47l276 -6l190 6v-47q-76 -11 -112 -29t-75 -64q-40 -46 -92 -116t-67 -88l-217 -276l477 -598q45 -56 75 -74t65 -25l55 -8v-47q-205 6 -293 6l-315 -6v47l59 2q35 2 51 4q47 6 47 46z" />
    <glyph glyph-name="Y" unicode="Y" horiz-adv-x="1310" 
d="M557 1321h-25q-102 0 -121 -29q-11 -14 -12 -39q0 -55 111 -254l213 -383l147 228q49 76 121 208t72 181q0 76 -102 84l-46 4v47q150 -8 236 -6l190 6v-47l-30 -4q-48 -7 -66 -22t-25 -20q-8 -5 -18 -17t-14 -18q-4 -5 -14 -21q-10 -17 -14 -21t-13 -21q-10 -17 -12 -20
l-377 -614v-226q0 -79 3 -115q9 -104 77 -132q39 -16 106 -23l45 -4v-47q-158 6 -266 6h-143q-109 0 -267 -6v47l45 4q68 7 107 23q65 28 77 132q3 36 3 115v205l-344 615q-23 45 -32 58t-21 33t-20 27q-7 5 -20 19q-33 35 -88 41l-40 6v47l258 -6l319 6v-47z" />
    <glyph glyph-name="Z" unicode="Z" horiz-adv-x="1191" 
d="M508 1313q-172 0 -228 -38t-84 -105t-32 -128h-51q16 233 16 326h987l-790 -1313h376q201 0 277 66q39 33 73 109t44 149h45q-18 -182 -23 -379h-1067l797 1313h-340z" />
    <glyph glyph-name="bracketleft" unicode="[" horiz-adv-x="909" 
d="M762 1354h-301v-1698h301v-66h-440v1829h440v-65z" />
    <glyph glyph-name="backslash" unicode="\" horiz-adv-x="1208" 
d="M1145 -410l-1170 1829h95l1163 -1829h-88z" />
    <glyph glyph-name="bracketright" unicode="]" horiz-adv-x="909" 
d="M147 -344h302v1698h-302v65h441v-1829h-441v66z" />
    <glyph glyph-name="asciicircum" unicode="^" horiz-adv-x="966" 
d="M483 1241l-358 -727h-125l412 829h143l412 -829h-125z" />
    <glyph glyph-name="underscore" unicode="_" horiz-adv-x="1028" 
d="M0 -182h1028v-105h-1028v105z" />
    <glyph glyph-name="grave" unicode="`" horiz-adv-x="688" 
d="M135 1344q-1 24 19 42t51 18t67 -40l295 -320h-57l-279 187q-4 2 -26 16q-55 33 -65 61q-4 12 -5 36z" />
    <glyph glyph-name="a" unicode="a" horiz-adv-x="989" 
d="M254 196q0 -56 36 -96t101 -41q92 0 227 117v344l-36 -16q-246 -107 -301 -204q-27 -48 -27 -104zM291 -27q-101 -1 -161 55t-60 129t26 110q26 36 48 65t72 57q123 69 322 145q69 27 77 50q3 8 3 32v29q0 123 -35 173t-139 50t-149 -26t-49 -88q-8 -96 -88 -97
q-31 -1 -54 19t-22 57q0 78 100 130t278 52t258 -65q34 -27 52 -79t22 -94t3 -118v-303q0 -144 30 -174q16 -16 50 -16t65 51l10 16l39 -22q-70 -137 -184 -138q-59 0 -110 40q-50 40 -68 110q-176 -150 -336 -150z" />
    <glyph glyph-name="b" unicode="b" horiz-adv-x="1173" 
d="M362 604v-289q0 -285 226 -284q129 0 213 99t84 300q0 328 -196 403q-42 15 -94 15t-99 -20q-110 -48 -129 -174q-5 -25 -5 -50zM186 -12v1122q0 117 -23 156q-24 39 -97 43l-35 2v41q173 18 331 67v-620q98 117 276 117t316 -122q140 -122 140 -333t-131 -349t-329 -138
t-319 132l-102 -118h-27z" />
    <glyph glyph-name="c" unicode="c" horiz-adv-x="964" 
d="M544 -27q-212 0 -337 124t-125 326t140 347t376 145q131 0 197 -43t65 -100q0 -33 -18 -53t-51 -21q-76 0 -103 88q-14 56 -52 69q-19 7 -48 7q-113 0 -205 -98t-92 -315q0 -125 30 -212q29 -87 79 -126q89 -70 188 -70q149 0 262 131l43 -39q-137 -160 -349 -160z" />
    <glyph glyph-name="d" unicode="d" horiz-adv-x="1232" 
d="M825 344v184q0 202 -97 268q-76 52 -139 52t-110 -20t-92 -62q-45 -43 -73 -126t-27 -194q0 -221 82 -316q83 -95 193 -95q110 1 186 75t77 234zM825 1141q0 43 -3 69t-30 60q-28 33 -79 37l-45 4v41q174 25 333 67v-1102q0 -188 59 -220q26 -13 75 -13h36v-43
q-92 -18 -278 -72q-29 63 -43 162q-125 -158 -323 -158q-197 1 -323 137t-126 330t129 334t316 141q187 0 302 -129v355z" />
    <glyph glyph-name="e" unicode="e" horiz-adv-x="1032" 
d="M553 868q-90 0 -159 -74t-87 -184l371 6q53 2 65 10t13 36q0 110 -56 158t-147 48zM80 440q0 192 141 333q141 142 348 142q162 0 270 -93t117 -224v-23q-2 -18 -34 -18h-625q-8 -43 -8 -98q0 -188 94 -297q93 -108 239 -108t257 141l43 -45q-138 -176 -362 -176
t-352 136q-128 138 -128 330z" />
    <glyph glyph-name="f" unicode="f" horiz-adv-x="686" 
d="M381 836v-549q0 -169 34 -195q51 -42 130 -45l61 -4v-47q-184 8 -282 6l-263 -6v47l43 2q63 2 82 45q18 43 19 131v615h-168v53h168v106q0 199 98 304t268 106q115 0 194 -36t79 -93q0 -26 -18 -48t-48 -22q-53 0 -90 70q-16 31 -24 44q-23 38 -79 38q-57 0 -97 -23
t-60 -53q-47 -69 -47 -229v-164h256v-53h-256z" />
    <glyph glyph-name="g" unicode="g" horiz-adv-x="1079" 
d="M468 868q-86 0 -142 -82t-56 -224t64 -202t142 -61q79 0 141 66q63 65 63 223t-62 219t-150 61zM856 584q0 -306 -367 -332q-82 -4 -122 -8q-127 -10 -127 -80q0 -60 111 -68q29 -2 53 -3t76 -4t116 -6t104 -9q274 -37 275 -291q0 -160 -127 -260t-336 -101
q-346 0 -428 200q-18 44 -18 104t46 107q46 48 106 48t87 -37q-51 -14 -79 -55t-28 -85q1 -83 56 -146q70 -84 245 -83t255 69t80 156q0 90 -65 155q-36 33 -173 47q-116 8 -152 8q-176 8 -244 53t-67 123q0 78 50 130t134 67q-100 35 -161 115q-62 80 -62 202
q0 121 109 218t273 97t274 -94q119 88 189 88q70 -1 103 -25t33 -58t-18 -56t-49 -20q-31 0 -69 36t-60 37q-46 0 -93 -39q70 -96 70 -200z" />
    <glyph glyph-name="h" unicode="h" horiz-adv-x="1239" 
d="M1028 592v-336q0 -115 18 -155t68 -48l57 -10v-47q-123 6 -153 6h-164q-29 0 -145 -6v47l59 10q55 8 70 49q14 41 14 154v365q0 59 -5 74t-12 43t-17 38q-9 10 -23 28t-50 32t-81 14q-270 0 -271 -358v-306q-1 -75 15 -93q39 -44 86 -46l43 -4v-47q-117 6 -146 6h-164
q-31 0 -153 -6v47l43 6q84 12 94 84q6 44 6 80v895q0 98 -12 134t-36 48t-65 17l-43 4v41q107 10 332 67v-671q111 168 324 167q86 -1 148 -25t93 -56q70 -72 70 -242z" />
    <glyph glyph-name="i" unicode="i" horiz-adv-x="612" 
d="M283 1395q45 0 79 -34t33 -79q0 -45 -34 -79q-35 -34 -79 -34t-78 34t-34 79t34 79t79 34zM395 227q-1 -96 19 -137t94 -45l37 -2v-47q-131 6 -176 6h-123q-45 0 -176 -6v47l36 2q74 4 94 45q19 41 19 137v426q0 80 -19 116t-77 34l-62 -2v47q219 45 334 80v-701z" />
    <glyph glyph-name="j" unicode="j" horiz-adv-x="567" 
d="M264 1395q47 0 80 -34t33 -79t-33 -79t-80 -34t-80 34t-32 79q0 45 32 79q33 34 80 34zM377 -113q0 -236 -95 -343q-98 -107 -316 -107q-122 0 -193 40q-72 40 -72 95q0 29 19 48t51 20q55 0 99 -78t114 -78q116 0 167 73q50 73 50 357v739q1 80 -19 116t-78 34l-61 -2
v47q219 45 334 80v-1041z" />
    <glyph glyph-name="k" unicode="k" horiz-adv-x="1091" 
d="M940 846h-18q-45 0 -68 -14q-24 -14 -34 -18q-10 -5 -32 -24q-20 -20 -23 -24t-28 -29l-190 -211l381 -383q86 -86 153 -100v-47q-143 12 -250 0l-395 422l-43 -43v-180q0 -45 4 -70t31 -51t78 -29l31 -2v-47q-158 8 -230 6l-233 -6v47l35 4q61 6 85 33t23 115v890
q0 101 -12 142t-36 56t-65 22l-43 6v41q111 14 332 67v-977l35 35q78 78 169 183t91 141q0 45 -86 45h-22v47l194 -6q31 0 166 6v-47z" />
    <glyph glyph-name="l" unicode="l" horiz-adv-x="585" 
d="M387 201q0 -49 4 -75t29 -50t74 -29l36 -4v-47q-112 6 -232 6t-230 -6v47l36 4q70 8 89 44q18 36 18 110v967q0 12 -6 48q-7 36 -19 49q-37 39 -102 44l-29 2v41q174 24 332 67v-1218z" />
    <glyph glyph-name="m" unicode="m" horiz-adv-x="1804" 
d="M642 848q-249 0 -249 -342v-311q0 -100 35 -121t78 -27l31 -4v-47l-244 6q-100 2 -219 -6v47l32 4q51 7 73 23q23 16 31 46q7 30 7 79v423q0 115 -27 152t-94 37h-28v47q111 10 290 74q18 -102 25 -183q111 170 322 170t276 -170q104 170 324 170q82 -1 140 -27t86 -59
q62 -73 62 -241v-393q0 -107 32 -126t71 -22l41 -4v-47q-111 10 -230 6l-233 -6v47l35 4q79 8 93 47q15 39 15 101v327q0 201 -43 260q-43 64 -149 65t-159 -75t-63 -140q-10 -65 -10 -110v-327q0 -108 32 -126q32 -19 71 -22l41 -4v-47l-248 6q-94 2 -215 -6v47l33 4
q67 8 89 40t21 108v350q0 220 -82 275q-41 28 -93 28z" />
    <glyph glyph-name="n" unicode="n" horiz-adv-x="1239" 
d="M705 915q324 0 323 -327v-393q0 -88 25 -116t73 -32l45 -4v-47q-117 6 -145 6h-164q-31 0 -153 -6v47l36 4q63 8 85 40t22 108v413q0 240 -190 240q-76 0 -130 -31t-80 -69q-58 -86 -59 -242v-311q-1 -61 15 -93t33 -40q17 -7 57 -13l39 -6v-47q-117 6 -146 6h-164
q-31 0 -153 -6v47l37 4q59 8 83 43t23 105v423q0 135 -35 162q-20 16 -34 20t-48 5l-32 2v47q113 10 286 74q27 -104 27 -203q111 190 324 190z" />
    <glyph glyph-name="o" unicode="o" horiz-adv-x="1163" 
d="M604 868q-51 0 -81 -5q-31 -5 -75 -31t-76 -67q-32 -42 -57 -125t-25 -196q0 -114 26 -196q24 -82 56 -124t86 -73t123 -31t124 31t87 73t56 125t24 195t-24 196q-25 83 -56 125q-32 43 -85 73q-52 30 -103 30zM582 915q205 0 352 -135t147 -336q0 -202 -147 -336
t-352 -134q-204 0 -352 134q-148 136 -148 336t147 336q148 135 353 135z" />
    <glyph glyph-name="p" unicode="p" horiz-adv-x="1216" 
d="M387 571v-254q1 -121 63 -197t180 -77q118 0 207 99t89 304q0 125 -29 212t-76 125q-83 67 -183 67t-176 -79t-75 -200zM387 -358q0 -64 15 -98q14 -34 32 -42t53 -12l58 -6v-47q-197 6 -283 6t-194 -6v47l36 4q49 6 74 32t29 50t4 72v983q0 135 -52 170q-28 18 -71 18
h-27v41q141 18 295 74q14 -63 13 -185q106 172 308 172t330 -137t128 -348q1 -211 -141 -334t-316 -123t-291 119v-450z" />
    <glyph glyph-name="q" unicode="q" horiz-adv-x="1189" 
d="M809 381v172q0 170 -67 239q-67 68 -173 68t-192 -99t-86 -319t78 -314q78 -95 188 -95q252 0 252 348zM985 -324q0 -59 3 -90q3 -30 28 -64t74 -36l38 -2v-47l-223 6q-90 2 -254 -6v47l33 2q82 6 104 49t21 141v433q-96 -135 -288 -135q-191 0 -315 131
q-124 132 -124 333t135 339t334 138q162 0 293 -98l141 94v-1235z" />
    <glyph glyph-name="r" unicode="r" horiz-adv-x="847" 
d="M665 915q91 1 127 -33t36 -68t-18 -58q-17 -24 -52 -23q-57 0 -90 58q-2 2 -4 8q-23 43 -60 43q-64 0 -122 -56t-73 -120q-15 -66 -16 -189v-282q0 -112 48 -133q26 -11 69 -15l41 -4v-47l-238 6q-76 2 -239 -6v47l30 2q91 5 106 79q7 34 7 71v423q0 117 -26 150t-91 37
l-32 2v47q147 18 280 74q23 -72 27 -223q41 94 120 152t170 58z" />
    <glyph glyph-name="s" unicode="s" horiz-adv-x="768" 
d="M612 915v-262h-41q-16 86 -71 151t-146 64q-59 0 -96 -32t-37 -69q0 -82 71 -133q44 -30 85 -51q177 -91 233 -147q80 -76 80 -190t-89 -194q-89 -79 -218 -79t-231 76l-41 -61h-33v297h39q19 -101 81 -183t175 -82q80 0 127 43t47 105q0 86 -101 154q-37 25 -132 75
t-140 86q-84 69 -85 174t68 182t180 77t210 -52l41 51h24z" />
    <glyph glyph-name="t" unicode="t" horiz-adv-x="675" 
d="M319 836v-590q0 -150 55 -191q28 -20 70 -20q42 -1 85 27q42 28 69 73l37 -29l-19 -28q-68 -104 -227 -104t-209 93q-35 67 -37 154v615h-108v22l22 14q156 98 230 252h32v-235h238v-53h-238z" />
    <glyph glyph-name="u" unicode="u" horiz-adv-x="1222" 
d="M203 647q0 119 -27 150t-88 43l-31 6v47l158 -6l164 6v-621q0 -49 6 -70t13 -48t33 -57q41 -46 133 -46q91 0 180 82t90 242v272q0 100 -18 137t-91 54l-35 8v47q98 -8 184 -6l136 6v-657q0 -110 39 -132t67 -14l45 4v-49q-252 -63 -284 -76q-37 119 -43 197
q-62 -90 -154 -141t-195 -52q-283 0 -282 328v346z" />
    <glyph glyph-name="v" unicode="v" horiz-adv-x="937" 
d="M414 846h-31q-84 0 -88 -58v-22q2 -12 16 -57l215 -527l103 256q104 264 104 332q0 37 -23 53q-24 16 -73 21l-23 2v47l166 -6l138 6v-47q-85 -19 -122 -105q-20 -47 -48 -127l-134 -348q-66 -164 -131 -307h-43l-321 766q-29 71 -51 93t-62 26l-26 2v47l223 -6l211 6
v-47z" />
    <glyph glyph-name="w" unicode="w" horiz-adv-x="1366" 
d="M414 846h-31q-88 0 -88 -60q0 -16 16 -75l150 -496l246 678h41l235 -680q111 276 168 496q20 43 4 86t-90 49l-23 2v47l166 -6l138 6v-47q-94 -25 -132 -127q-14 -37 -91 -277t-173 -481h-43l-241 641l-240 -641h-43l-264 766q-25 71 -51 93t-62 24l-26 2v47l223 -6
l211 6v-47z" />
    <glyph glyph-name="x" unicode="x" horiz-adv-x="1083" 
d="M582 43h59q59 0 59 35q0 29 -40 69q-11 12 -15 17l-168 198l-24 -28q-158 -182 -158 -232t115 -59v-47q-92 10 -195 6l-197 -6v47q133 10 240 141l180 224l-270 342q-70 88 -150 96v47q118 -6 222 -6t223 6v-47h-37q-76 0 -76 -31q0 -49 172 -242l35 -38l37 45
q143 176 143 217q0 20 -21 34q-22 14 -57 15h-32v47l202 -6l166 6v-47q-106 0 -198 -109l-205 -243l282 -328q86 -98 185 -123v-47l-219 6l-258 -6v47z" />
    <glyph glyph-name="y" unicode="y" horiz-adv-x="876" 
d="M-45 846v47l213 -6l233 6v-47l-39 -4q-35 -4 -49 -7q-37 -8 -38 -50t57 -181l162 -389l165 399q49 119 50 170q0 51 -76 58l-37 4v47l158 -6l139 6v-47q-29 2 -55 -11t-52 -68t-52 -119t-42 -101l-348 -809q-74 -174 -117 -243t-96 -68q-25 0 -42 17t-17 44q0 66 103 109
q35 14 57 46t61 119l108 250l-303 709q-32 69 -60 97t-83 28z" />
    <glyph glyph-name="z" unicode="z" horiz-adv-x="868" 
d="M365 846q-109 0 -162 -31t-66 -131h-41l19 209h698l-534 -846h243q161 0 218 80q30 41 40 104h35l-18 -231h-756l537 846h-213z" />
    <glyph glyph-name="braceleft" unicode="{" horiz-adv-x="1024" 
d="M715 1460h98v-47q-123 15 -193 -51t-71 -180l2 -324q0 -213 -170 -250v-8q170 -37 170 -250l-2 -323q0 -115 71 -182t193 -50v-47h-98q-193 0 -259 71t-65 185l6 412q2 94 -53 135t-139 35v37q84 -5 139 35t53 135l-6 411q-1 116 65 186t259 70z" />
    <glyph glyph-name="bar" unicode="|" horiz-adv-x="952" 
d="M410 1364h133v-1706h-133v1706z" />
    <glyph glyph-name="braceright" unicode="}" horiz-adv-x="1024" 
d="M211 1460h98q193 0 259 -70t65 -186l-6 -411q-2 -93 53 -135t139 -35v-37q-84 6 -139 -35t-53 -135l6 -412q2 -116 -65 -186t-259 -70h-98v47q123 -15 193 51t71 181l-2 323q0 213 170 250v8q-170 37 -170 250l2 324q0 116 -71 182t-193 49v47z" />
    <glyph glyph-name="asciitilde" unicode="~" horiz-adv-x="1103" 
d="M340 606q-72 0 -152 -86l-20 -22l-33 20q117 207 275 207q63 0 174 -41t170 -41q114 1 194 107l33 -21q-47 -94 -122 -149q-75 -56 -144 -56t-185 41q-118 41 -190 41z" />
    <glyph glyph-name="currency" unicode="&#xa4;" horiz-adv-x="1341" 
d="M680 356q140 0 242 102t102 242t-101 242t-243 102t-242 -101q-102 -101 -102 -243t102 -242q102 -102 242 -102zM680 1192q176 0 311 -111l189 189l69 -70l-188 -188q111 -136 111 -312t-111 -311l188 -188l-69 -70l-189 188q-135 -111 -311 -111t-311 111l-189 -188
l-69 70l188 188q-111 135 -111 311t111 312l-188 188l69 70l189 -189q135 111 311 111z" />
    <glyph glyph-name="brokenbar" unicode="&#xa6;" horiz-adv-x="954" 
d="M410 346h135v-688l-135 2v686zM410 1364h135v-686h-135v686z" />
    <glyph glyph-name="section" unicode="&#xa7;" horiz-adv-x="1093" 
d="M227 616q0 -58 42 -99q42 -42 124 -89l234 -133q76 -43 127 -82q120 83 120 181t-190 202l-190 104q-92 55 -127 82q-66 -16 -103 -62t-37 -104zM936 -80q0 -146 -102 -252t-288 -106t-297 89q-110 89 -110 191q0 54 31 98t83 44t85 -33t33 -72q0 -55 -40 -92
q-40 -38 -40 -68q0 -47 81 -77q82 -30 190 -29q108 0 189 62t81 147t-56 147q-37 47 -148 106q-28 15 -103 54t-113 59t-98 64q-62 44 -92 81q-79 100 -79 200q0 215 187 278q-135 123 -135 265t89 232t259 91q170 0 258 -73t88 -165q0 -49 -32 -86t-80 -37t-79 31
q-30 31 -30 80t51 90q23 23 22 39q0 29 -56 49q-55 21 -165 21t-168 -56t-59 -134q0 -77 59 -132q25 -23 37 -35t47 -34q35 -21 46 -27q12 -6 52 -28t90 -49q247 -133 302 -259q29 -63 28 -141q1 -156 -159 -269q141 -117 141 -264z" />
    <glyph glyph-name="copyright" unicode="&#xa9;" horiz-adv-x="1644" 
d="M1124 1069v-235h-34q-23 80 -82 132q-58 52 -154 52t-169 -83t-73 -255t74 -249t176 -77q131 0 240 129l35 -32q-119 -152 -292 -152t-284 103q-111 102 -111 268t112 282q110 116 276 117q48 1 118 -25t84 -26t18 2q9 3 17 14q8 10 8 21l7 14h34zM823 43q262 0 451 189
q188 190 188 452t-188 450t-450 189q-262 0 -452 -188q-190 -189 -190 -451t190 -452t451 -189zM823 -27q-291 0 -501 210t-209 501q0 291 209 500q208 209 500 209t501 -209t209 -501t-209 -501t-500 -209z" />
    <glyph glyph-name="guillemotleft" unicode="&#xab;" horiz-adv-x="1005" 
d="M862 164q0 -19 -16 -19q-8 0 -21 13q-115 121 -336 299q221 178 336 299q12 12 21 12q16 0 16 -28t-44 -84q-44 -57 -72 -88q-28 -30 -35 -40l-60 -71l60 -72q3 -4 31 -37t42 -50t36 -46t32 -49t10 -39zM516 164q0 -19 -16 -19q-8 0 -21 13q-115 121 -336 299
q221 178 336 299q12 12 21 12q16 0 16 -28t-44 -84q-44 -57 -72 -88q-28 -30 -35 -40l-60 -71l60 -72q3 -4 31 -37t42 -50t36 -46t32 -49t10 -39z" />
    <glyph glyph-name="logicalnot" unicode="&#xac;" horiz-adv-x="1007" 
d="M719 0v449h-658v98h885v-547h-227z" />
    <glyph glyph-name="registered" unicode="&#xae;" horiz-adv-x="1644" 
d="M721 700h102q164 0 164 152q0 72 -41 114t-123 42h-102v-308zM483 311v37q57 -2 77 14q19 16 20 64v516q0 46 -16 62t-52 16h-35v37h350q301 0 301 -205q0 -61 -36 -113q-37 -51 -105 -71l158 -269q29 -51 92 -51v-37h-201l-205 355h-110v-240q0 -45 15 -61t52 -17h35
v-37h-340zM823 43q262 0 451 189q188 190 188 452t-188 450t-450 189q-262 0 -452 -188q-190 -189 -190 -451t190 -452t451 -189zM823 -27q-291 0 -501 210t-209 501q0 291 209 500q208 209 500 209t501 -209t209 -501t-209 -501t-500 -209z" />
    <glyph glyph-name="degree" unicode="&#xb0;" horiz-adv-x="743" 
d="M227 1243q0 -59 44 -102q45 -43 103 -43t101 44t43 102t-44 102t-101 43q-57 0 -102 -43q-44 -44 -44 -103zM154 1243q0 91 63 155t155 64t156 -63t64 -155t-64 -156t-155 -64q-92 0 -156 63q-63 64 -63 156z" />
    <glyph glyph-name="plusminus" unicode="&#xb1;" horiz-adv-x="1028" 
d="M41 197h946v-105h-946v105zM41 780h418v400h108v-400h420v-104h-420v-391h-108v391h-418v104z" />
    <glyph glyph-name="mu" unicode="&#xb5;" horiz-adv-x="1126" 
d="M967 88q29 0 77 18v-32l-190 -94q-18 -8 -39 2q-55 27 -74 129q-4 20 -4 30l-18 -18q-81 -82 -143 -118t-142 -36t-139 49t-82 129l-2 -49q-4 -96 23 -210q28 -114 28 -164t-26 -83q-26 -32 -65 -32q-37 0 -63 31t-26 64t13 117q61 391 61 730v387h176v-588
q0 -276 170 -276q70 0 129 44t96 103v717h176v-715q0 -135 64 -135z" />
    <glyph glyph-name="mu" unicode="&#x3bc;" horiz-adv-x="1126" 
d="M967 88q29 0 77 18v-32l-190 -94q-18 -8 -39 2q-55 27 -74 129q-4 20 -4 30l-18 -18q-81 -82 -143 -118t-142 -36t-139 49t-82 129l-2 -49q-4 -96 23 -210q28 -114 28 -164t-26 -83q-26 -32 -65 -32q-37 0 -63 31t-26 64t13 117q61 391 61 730v387h176v-588
q0 -276 170 -276q70 0 129 44t96 103v717h176v-715q0 -135 64 -135z" />
    <glyph glyph-name="paragraph" unicode="&#xb6;" horiz-adv-x="1210" 
d="M717 1300h-133v-1708l-332 -6v47l45 5q51 0 84 9t55 37t29 83q6 55 6 157v717h-35q-73 -1 -143 21q-69 22 -113 55q-43 33 -78 101t-34 163q0 169 105 277t335 106l182 -2l338 6v-47l-43 -4q-65 0 -75 -4q-11 -5 -31 -19q-47 -34 -50 -233v-1243q0 -88 29 -128t133 -52
l37 -5v-47l-311 6v1708z" />
    <glyph glyph-name="periodcentered" unicode="&#xb7;" horiz-adv-x="512" 
d="M137 456q0 52 37 84t83 33q46 -1 82 -37t36 -81t-33 -82t-85 -37t-86 34t-34 86z" />
    <glyph glyph-name="periodcentered" unicode="&#x2219;" horiz-adv-x="512" 
d="M137 456q0 52 37 84t83 33q46 -1 82 -37t36 -81t-33 -82t-85 -37t-86 34t-34 86z" />
    <glyph glyph-name="guillemotright" unicode="&#xbb;" horiz-adv-x="1005" 
d="M506 768q8 0 20 -12q115 -121 336 -299q-221 -178 -336 -299q-12 -12 -24 -12t-12 18q-1 46 120 184q29 33 31 37l59 72l-59 71q-8 10 -33 38q-115 129 -119 179q0 23 17 23zM160 768q8 0 20 -12q115 -121 336 -299q-221 -178 -336 -299q-12 -12 -24 -12t-12 18
q-1 46 120 184q29 33 31 37l59 72l-59 71q-8 10 -33 38q-115 129 -119 179q0 23 17 23z" />
    <glyph glyph-name="afii10023" unicode="&#x401;" horiz-adv-x="1275" 
d="M841 1526q-46 0 -80 34t-34 77q0 44 31 79t83 35t82 -36q29 -36 29 -78q0 -43 -32 -77t-79 -34zM551 1637q0 -43 -33 -77t-79 -34q-45 0 -79 34t-34 77q0 44 30 79q31 35 83 35t82 -36t30 -78zM528 682h-41v-369q0 -153 65 -205t235 -52q384 -1 391 276h47
q-6 -98 -11 -336l-833 6q-158 0 -305 -6v47l51 4q84 4 116 50t31 190v790q0 143 -32 189t-115 51l-51 4v47q145 -6 305 -6l727 6v-309h-43l-6 28q-29 135 -97 180q-69 44 -243 44h-162q-49 0 -59 -9t-11 -45v-520h41q139 1 220 71t75 187h51q-12 -291 0 -542h-51
q-12 229 -295 229z" />
    <glyph glyph-name="afii10051" unicode="&#x402;" horiz-adv-x="1656" 
d="M539 317v928q0 23 -3 32q-8 24 -104 26h-63q-167 1 -227 -59t-70 -173l-2 -22h-50l13 319q227 -6 428 -6h409q201 0 428 6l13 -319h-49l-2 22q-10 113 -70 172t-227 60h-105q-96 0 -104 -26q-2 -9 -2 -32v-463q172 53 290 54q238 0 404 -111t166 -307t-131 -324
t-330 -129q-162 0 -242 44t-80 108q0 33 23 57t63 25q40 0 59 -24q20 -24 37 -58q17 -33 30 -51t43 -36t81 -18t95 38q100 88 100 367q0 85 -28 161t-64 114q-86 89 -240 88q-154 0 -276 -61v-719q-209 2 -445 -4v47l45 4q68 7 107 23q65 28 77 132q3 36 3 115z" />
    <glyph glyph-name="afii10052" unicode="&#x403;" horiz-adv-x="1196" 
d="M913 1878q25 0 42 -23t18 -52t-20 -53t-99 -58l-315 -166h-74l360 315q31 27 47 32t41 5zM266 1077q0 143 -32 189t-115 51l-51 4v47q139 -6 270 -6h106l682 6l29 -334h-63l-7 29q-20 98 -99 172t-247 74h-170q-68 -1 -78 -21t-11 -27t-1 -34v-910q0 -183 44 -219
q54 -39 155 -51l45 -4v-47q-357 11 -655 0v47l51 4q84 4 116 50t31 190v790z" />
    <glyph glyph-name="afii10053" unicode="&#x404;" horiz-adv-x="1411" 
d="M854 1348q-211 0 -356 -169t-142 -466q147 86 221 86t152 -38q79 -37 121 -55t124 -18t177 82l31 -39q-180 -156 -326 -156q-63 1 -103 19t-67 32l-39 19q-79 37 -151 37t-140 -27q2 -165 41 -287t93 -188t127 -104t125 -49q52 -10 104 -11q180 0 286 104t160 306l13 47
h36v-457h-26l-49 107q-201 -158 -473 -158q-309 0 -503 200t-194 511t210 517t519 206q223 0 422 -131l33 98h33l14 -412h-47q-25 168 -141 281q-117 113 -285 113z" />
    <glyph glyph-name="afii10054" unicode="&#x405;" horiz-adv-x="1036" 
d="M985 375q0 -137 -79 -233q-147 -177 -431 -177q-180 0 -352 125l-51 -86h-21v408h43q27 -172 130 -282q104 -110 242 -110t231 69t93 199t-102 208q-82 62 -205 112q-14 6 -62 26q-123 52 -217 129q-122 98 -122 259t113 269t288 108t324 -109l51 82h21l10 -362h-43
q-21 92 -88 196q-88 138 -262 138q-92 0 -169 -59q-77 -58 -77 -169t94 -177q74 -51 177 -96q103 -44 159 -72q162 -81 220 -154q85 -105 85 -242z" />
    <glyph glyph-name="afii10055" unicode="&#x406;" horiz-adv-x="720" 
d="M360 1362q186 0 306 6v-47l-52 -4q-84 -6 -116 -49t-31 -191v-790q0 -147 32 -191t115 -49l52 -4v-47q-120 6 -306 6t-305 -6v47l51 4q84 6 116 49t32 191v790q0 147 -32 191t-116 49l-51 4v47q119 -6 305 -6z" />
    <glyph glyph-name="afii10056" unicode="&#x407;" horiz-adv-x="720" 
d="M414 1595q0 51 36 87t87 36t87 -36t36 -87t-36 -87t-87 -36t-87 36t-36 87zM61 1595q0 51 36 87t87 36t87 -36t36 -87t-36 -87t-87 -36t-87 36t-36 87zM360 1362q186 0 306 6v-47l-52 -4q-84 -6 -116 -49t-31 -191v-790q0 -147 32 -191t115 -49l52 -4v-47q-120 6 -306 6
t-305 -6v47l51 4q84 6 116 49t32 191v790q0 147 -32 191t-116 49l-51 4v47q119 -6 305 -6z" />
    <glyph glyph-name="afii10057" unicode="&#x408;" horiz-adv-x="776" 
d="M498 1047v-1051q0 -80 -4 -137t-29 -141t-68 -135q-43 -52 -129 -91t-228 -39t-224 44t-82 108q0 33 22 57t57 25q33 -1 55 -15t30 -26t22 -41q53 -104 150 -105q63 0 106 28t71 68t37 208q1 40 1 107v1136q-1 117 -11 160t-28 59q-47 43 -140 51l-45 4v47q154 -6 258 -6
h144q104 0 258 6v-47l-45 -4q-66 -7 -103 -23q-63 -28 -72 -131q-3 -34 -3 -116z" />
    <glyph glyph-name="afii10058" unicode="&#x409;" horiz-adv-x="2084" 
d="M1249 305q0 -152 50 -204q49 -52 151 -52q202 0 272 118q58 95 60 220q0 324 -404 324q-86 0 -129 -4v-402zM1036 303v907q0 38 -16 58t-28 22t-31 2h-162q-61 0 -77 -21q-15 -22 -33 -191t-52 -402q-63 -401 -199 -567q-117 -145 -266 -146q-66 0 -115 32t-49 89t30 92
t72 35t62 -11t47 -39t64 -28q39 1 97 61t118 248t102 584q14 145 -22 213q-37 68 -191 78l-33 2v47q205 -6 264 -6h596q150 0 234 6v-47l-51 -4q-84 -6 -116 -49t-32 -191v-317q81 6 221 6t230 -23q129 -27 208 -93q78 -66 102 -130q24 -63 24 -133q0 -129 -62 -214
t-141 -122q-121 -55 -393 -55q-18 0 -252 5t-348 -5v47l39 4q80 7 118 39q37 33 40 123q1 29 1 94z" />
    <glyph glyph-name="afii10059" unicode="&#x40a;" horiz-adv-x="2299" 
d="M1658 49q338 0 339 348q0 313 -404 314q-86 0 -129 -4v-402q0 -152 50 -204t144 -52zM1251 303v387h-747v-373q0 -117 10 -159q10 -44 28 -60q48 -43 140 -51l45 -4v-47q-154 6 -258 6h-143q-104 0 -258 -6v47l45 4q67 7 103 23q61 27 72 131q3 35 3 116v730
q0 117 -10 159q-11 44 -29 60q-48 43 -139 51l-45 4v47q154 -6 258 -6h143q104 0 258 6v-47l-45 -4q-66 -7 -102 -23t-54 -56q-16 -40 -19 -75t-3 -116v-295h747v325q0 147 -31 191q-32 43 -116 49l-51 4v47q119 -6 305 -6t305 6v-47l-51 -4q-84 -6 -116 -49t-32 -191v-317
q70 6 140 6q639 0 645 -379q2 -96 -34 -169t-90 -114t-155 -72t-264 -35q-162 -3 -300 3t-353 -4v47l39 4q78 7 125 45q30 26 33 117q1 29 1 94z" />
    <glyph glyph-name="afii10060" unicode="&#x40b;" horiz-adv-x="1863" 
d="M539 317v928q0 23 -3 32q-8 24 -104 26h-63q-167 1 -227 -59t-70 -173l-2 -22h-50l13 319q227 -6 428 -6h409q201 0 428 6l13 -319h-49l-2 22q-10 113 -70 172t-227 60h-105q-96 0 -104 -26q-2 -9 -2 -32v-459q178 52 349 52q276 1 389 -108q83 -79 83 -263v-150
q0 -117 10 -159q11 -44 29 -60q48 -43 139 -51l45 -4v-47q-154 6 -258 6h-143q-104 0 -258 -6v47l45 4q66 7 102 23q61 27 73 131q3 35 3 116v187q0 89 -14 117t-36 61q-57 86 -268 86q-129 0 -290 -45v-406q0 -79 3 -115t20 -76t56 -56t107 -23l45 -4v-47q-158 6 -266 6
h-144q-108 0 -266 -6v47l45 4q68 7 107 23q65 28 77 132q3 36 3 115z" />
    <glyph glyph-name="afii10061" unicode="&#x40c;" horiz-adv-x="1499" 
d="M1087 1878q25 0 42 -23t18 -52t-20 -53t-99 -58l-315 -166h-74l360 315q31 27 47 32t41 5zM487 668v-381q0 -143 32 -189t116 -51l51 -4v-47q-119 6 -305 6t-305 -6v47l51 4q84 4 116 50t31 190v790q0 143 -32 189t-115 51l-51 4v47q119 -6 305 -6t305 6v-47l-51 -4
q-84 -4 -116 -50t-32 -190v-342h138q133 0 215 135q47 79 112 260q109 268 299 269q61 0 99 -32t36 -80q0 -48 -30 -82t-73 -34q-42 1 -83 23q-42 22 -74 22q-46 1 -91 -92t-70 -170q-41 -100 -80 -155t-109 -88v-6q142 -31 228 -141q87 -110 134 -201q46 -91 58 -110
t28 -48q64 -113 128 -113q63 0 100 80l47 -25q-80 -182 -248 -182q-134 0 -202 81q-35 42 -53 74q-17 32 -44 93l-125 283q-41 94 -88 133t-116 39h-136z" />
    <glyph glyph-name="afii10062" unicode="&#x40e;" horiz-adv-x="1402" 
d="M1069 1706q-1 -98 -109 -167t-260 -69t-260 69t-108 167q0 55 32 81q32 25 78 25t69 -26q24 -26 24 -46q0 -21 -13 -65q-16 -37 -16 -53q0 -45 61 -73q61 -27 133 -27t134 27q61 28 61 73l-29 109q0 31 24 57t70 24q46 0 78 -26t31 -80zM336 1362q122 0 252 6v-47l-35 -2
q-125 -6 -125 -86q0 -35 29 -84l372 -623l258 514q59 119 60 177q0 96 -117 102l-39 2v47q177 -6 237 -6t111 1t77 3t28 2v-47l-29 -2q-90 -5 -136 -75q-46 -69 -89 -163l-361 -712q-45 -87 -77 -143q-101 -173 -220 -227q-72 -34 -160 -34t-129 43q-42 43 -42 91t30 83
q31 35 93 35t110 -61q6 -8 16 -22q26 -35 65 -36q38 0 82 46t71 98l39 73l-474 787q-5 6 -27 44t-44 70q-22 34 -62 68q-39 34 -77 35l-33 2v47q224 -6 346 -6z" />
    <glyph glyph-name="afii10145" unicode="&#x40f;" horiz-adv-x="1722" 
d="M291 317v730q0 117 -10 159q-11 44 -29 60q-48 43 -139 51l-45 4v47q154 -6 258 -6h143q104 0 258 6v-47l-45 -4q-66 -7 -102 -23t-54 -56q-16 -40 -19 -75t-3 -116v-900q0 -53 19 -67t71 -14h534q69 0 80 23t11 58v900q-1 117 -11 160t-28 59q-47 43 -140 51l-45 4v47
q154 -6 258 -6h144q104 0 258 6v-47l-45 -4q-66 -7 -103 -23t-53 -56t-19 -75t-3 -116v-730q0 -184 42 -222q42 -39 136 -48l45 -4v-47q-164 8 -752 6q-1 -106 23 -190t41 -153t-14 -151q-13 -40 -65 -56q-13 -3 -26 -3q-55 0 -89 59t-7 189q6 29 30 117t23 188
q-588 2 -751 -6v47l45 4q67 7 103 23q61 27 72 131q3 35 3 116z" />
    <glyph glyph-name="afii10017" unicode="&#x410;" horiz-adv-x="1376" 
d="M377 563h461l-230 590zM1190 2h-111q-55 0 -254 -6v47l47 2q62 2 90 34q28 33 28 71t-56 178l-70 172h-512l-28 -72q-94 -238 -95 -276q0 -102 129 -107l41 -2v-47q-182 6 -225 6h-53l-168 -6v47q102 8 165 93q62 85 150 308l377 961h70l432 -1071q63 -156 119 -224
t157 -67v-47q-198 6 -233 6z" />
    <glyph glyph-name="afii10018" unicode="&#x411;" horiz-adv-x="1366" 
d="M487 373q0 -188 41 -256t177 -68q95 0 163 33t101 86q59 95 59 200t-37 175q-37 71 -84 103t-124 56t-165 23q-88 0 -131 -4v-348zM1128 1047h-43l-4 32q-22 182 -171 215q-71 17 -171 17h-161q-70 0 -80 -24q-11 -24 -11 -58v-455q49 2 150 2q643 0 643 -399
q0 -164 -123 -271q-57 -50 -139 -76t-142 -30t-110 -4t-408 6q-145 0 -282 -6v47l51 4q84 4 116 50t31 190v790q0 143 -32 189t-115 51l-51 4v47q111 -6 192 -6l860 6v-321z" />
    <glyph glyph-name="afii10019" unicode="&#x412;" horiz-adv-x="1366" 
d="M487 655v-374q0 -94 36 -162t187 -69q152 -1 235 84t83 215t-67 225q-37 52 -118 84t-196 32h-115q-45 0 -45 -35zM487 1253v-462q0 -47 39 -48h109q129 0 204 82t75 205t-74 205t-236 82h-51q-43 -1 -55 -15t-11 -49zM274 1077q0 143 -32 189t-115 51l-51 4v47
q172 -6 192 -6h107q252 6 254 6q305 0 418 -111q90 -90 92 -210q0 -243 -314 -312v-6q152 -12 288 -84q75 -39 121 -111t46 -169q0 -369 -594 -369l-348 6q-156 0 -262 -6v47l51 4q84 4 116 50t31 190v790z" />
    <glyph glyph-name="afii10020" unicode="&#x413;" horiz-adv-x="1196" 
d="M266 1077q0 143 -32 189t-115 51l-51 4v47q139 -6 270 -6h106l682 6l29 -334h-63l-7 29q-20 98 -99 172t-247 74h-170q-68 -1 -78 -21t-11 -27t-1 -34v-910q0 -183 44 -219q54 -39 155 -51l45 -4v-47q-357 11 -655 0v47l51 4q84 4 116 50t31 190v790z" />
    <glyph glyph-name="afii10021" unicode="&#x414;" horiz-adv-x="1480" 
d="M993 170v1040q0 38 -16 58q-17 20 -29 22t-30 2h-168q-44 0 -58 -5q-36 -12 -53 -187q-39 -383 -130 -606q-70 -173 -136 -283t-66 -123q0 -20 47 -20h561q41 0 60 19q18 20 18 83zM1405 -371h-47q-46 244 -160 314q-57 35 -109 46t-126 11h-492q-63 0 -96 -2t-92 -20
t-95 -56t-74 -112t-57 -181h-47v439h99q94 0 221 237q180 336 221 723q16 143 -22 212t-191 79l-33 2v47q205 -6 264 -6h584q117 0 252 6v-47l-51 -4q-84 -6 -116 -49t-32 -191v-927q0 -50 16 -66t62 -16h121v-439z" />
    <glyph glyph-name="afii10022" unicode="&#x415;" horiz-adv-x="1275" 
d="M528 682h-41v-369q0 -153 65 -205t235 -52q384 -1 391 276h47q-6 -98 -11 -336l-833 6q-158 0 -305 -6v47l51 4q84 4 116 50t31 190v790q0 143 -32 189t-115 51l-51 4v47q145 -6 305 -6l727 6v-309h-43l-6 28q-29 135 -97 180q-69 44 -243 44h-162q-49 0 -59 -9t-11 -45
v-520h41q139 1 220 71t75 187h51q-12 -291 0 -542h-51q-12 229 -295 229z" />
    <glyph glyph-name="afii10024" unicode="&#x416;" horiz-adv-x="2183" 
d="M1092 2q-188 0 -330 -6v47l45 4q67 7 103 23q64 29 72 131q3 35 3 116v351h-123q-137 0 -205 -172l-110 -283q-45 -115 -110 -181t-189 -67q-168 0 -248 182l47 25q37 -80 98 -80q35 0 57 22t36 38q12 16 28 45t28 48q11 19 30 57q66 138 154 253q89 115 231 150v6
q-68 35 -107 90t-80 153q-72 184 -102 223t-66 40q-64 0 -82 -23t-63 -23t-77 33t-32 82t36 81t97 32q160 0 261 -180q36 -70 78 -180t65 -150q84 -154 225 -154h123v312q0 117 -10 159q-11 44 -29 60q-48 43 -139 51l-45 4v47q142 -6 330 -6t329 6v-47l-45 -4
q-66 -7 -102 -23q-61 -27 -73 -131q-3 -35 -3 -116v-312h123q136 0 215 135q35 59 69 147t44 113q109 268 301 269q61 0 97 -32t36 -81t-32 -82t-77 -33t-63 23q-19 23 -69 23q-50 1 -80 -39t-101 -224q-41 -98 -80 -153t-106 -90v-6q139 -32 228 -146q65 -83 126 -199
q12 -20 49 -95t70 -115q49 -58 90 -58q61 0 98 80l47 -25q-80 -182 -248 -182q-125 0 -189 67t-110 181l-110 283q-68 172 -205 172h-123v-351q0 -117 10 -159q10 -44 28 -60q48 -43 140 -51l45 -4v-47q-141 6 -329 6z" />
    <glyph glyph-name="afii10025" unicode="&#x417;" horiz-adv-x="1228" 
d="M555 20q141 0 246 84q104 84 104 254q0 324 -352 324h-113v61h121q135 0 213 81q78 82 78 224t-76 219t-189 77t-214 -72q-55 -39 -99 -122t-65 -200h-55l12 416h43l33 -82q150 115 368 115q218 -1 343 -105q126 -104 126 -234t-82 -221t-215 -112v-6q168 -7 272 -103
t103 -229q-1 -164 -151 -294t-431 -130q-217 0 -360 82t-143 207q0 57 31 89q32 32 77 32t80 -29t35 -84l-16 -102q0 -68 95 -104t181 -36z" />
    <glyph glyph-name="afii10026" unicode="&#x418;" horiz-adv-x="1722" 
d="M487 221q0 -61 15 -92q31 -72 137 -82l47 -4v-47q-119 6 -305 6t-305 -6v47l51 4q84 4 116 50t31 190v790q0 143 -32 189t-115 51l-51 4v47q119 -6 305 -6t305 6v-47l-51 -4q-84 -4 -116 -50t-32 -190v-749l748 817q4 51 -14 90q-29 72 -138 82l-47 4v47q119 -6 305 -6
t306 6v-47l-52 -4q-83 -4 -115 -50t-32 -190v-790q0 -143 32 -189t115 -51l52 -4v-47q-119 6 -305 6t-306 -6v47l51 4q84 4 116 50t32 190v764l-748 -818v-12z" />
    <glyph glyph-name="afii10027" unicode="&#x419;" horiz-adv-x="1722" 
d="M860 1470q-152 0 -260 69t-108 167q0 55 31 81q32 25 78 25t70 -26q23 -26 23 -46q0 -21 -12 -65q-16 -37 -16 -53q0 -45 61 -73q61 -27 133 -27t133 28t62 72q0 16 -17 53q-12 43 -12 65t24 48t70 24q46 0 77 -26q32 -26 32 -80q-1 -98 -109 -167t-260 -69zM487 221
q0 -61 15 -92q31 -72 137 -82l47 -4v-47q-119 6 -305 6t-305 -6v47l51 4q84 4 116 50t31 190v790q0 143 -32 189t-115 51l-51 4v47q119 -6 305 -6t305 6v-47l-51 -4q-84 -4 -116 -50t-32 -190v-749l748 817q4 51 -14 90q-29 72 -138 82l-47 4v47q119 -6 305 -6t306 6v-47
l-52 -4q-83 -4 -115 -50t-32 -190v-790q0 -143 32 -189t115 -51l52 -4v-47q-119 6 -305 6t-306 -6v47l51 4q84 4 116 50t32 190v764l-748 -818v-12z" />
    <glyph glyph-name="afii10028" unicode="&#x41a;" horiz-adv-x="1499" 
d="M487 668v-381q0 -143 32 -189t116 -51l51 -4v-47q-119 6 -305 6t-305 -6v47l51 4q84 4 116 50t31 190v790q0 143 -32 189t-115 51l-51 4v47q119 -6 305 -6t305 6v-47l-51 -4q-84 -4 -116 -50t-32 -190v-342h138q133 0 215 135q47 79 112 260q109 268 299 269q61 0 99 -32
t36 -80q0 -48 -30 -82t-73 -34q-42 1 -83 23q-42 22 -74 22q-46 1 -91 -92t-70 -170q-41 -100 -80 -155t-109 -88v-6q142 -31 228 -141q87 -110 134 -201q46 -91 58 -110t28 -48q64 -113 128 -113q63 0 100 80l47 -25q-80 -182 -248 -182q-134 0 -202 81q-35 42 -53 74
q-17 32 -44 93l-125 283q-41 94 -88 133t-116 39h-136z" />
    <glyph glyph-name="afii10029" unicode="&#x41b;" horiz-adv-x="1505" 
d="M600 1362h637q70 0 193 6v-47l-52 -4q-84 -6 -116 -49t-31 -191v-790q0 -147 32 -191t115 -49l52 -4v-47q-120 6 -306 6t-305 -6v47l51 4q84 6 116 49t32 191v925q0 38 -16 58t-29 22q-12 2 -31 2h-162q-61 0 -82 -30q-10 -16 -30 -202t-50 -384q-66 -412 -190 -562
t-274 -151q-78 0 -121 39t-43 90t30 85q31 34 82 34t88 -39q38 -39 76 -39q38 1 95 61q58 60 119 248t102 584q14 145 -23 213t-190 78l-33 2v47q205 -6 264 -6z" />
    <glyph glyph-name="afii10030" unicode="&#x41c;" horiz-adv-x="1861" 
d="M342 317q0 -117 10 -159q10 -44 28 -60q48 -43 140 -51l45 -4v-47q-151 6 -265 6t-224 -6v47l51 4q84 4 119 62q29 45 28 208v760q0 145 -32 190q-32 46 -115 50l-51 4v47q166 -6 207 -6l202 2l451 -1026l444 1026l172 -2q131 0 234 6v-47l-51 -4q-84 -4 -116 -50
t-32 -190v-790q0 -143 32 -189t116 -51l51 -4v-47q-119 6 -305 6t-305 -6v47l51 4q84 4 116 50t31 190v884l-502 -1175h-20l-510 1175v-854z" />
    <glyph glyph-name="afii10031" unicode="&#x41d;" horiz-adv-x="1722" 
d="M381 1362q186 0 305 6v-47l-51 -4q-84 -4 -116 -50t-32 -190v-342h748v342q0 143 -32 189t-116 51l-51 4v47q119 -6 305 -6t306 6v-47l-52 -4q-83 -4 -115 -50t-32 -190v-790q0 -143 32 -189t115 -51l52 -4v-47q-119 6 -305 6t-306 -6v47l51 4q84 4 116 50t32 190v381
h-748v-381q0 -143 32 -189t116 -51l51 -4v-47q-119 6 -305 6t-305 -6v47l51 4q84 4 116 50t31 190v790q0 143 -32 189t-115 51l-51 4v47q119 -6 305 -6z" />
    <glyph glyph-name="afii10032" unicode="&#x41e;" horiz-adv-x="1695" 
d="M1343 673q0 500 -319 636q-82 35 -170 34q-209 1 -355 -167q-147 -168 -147 -499t142 -494t341 -163q198 0 345 137q76 71 120 203t43 313zM868 1399q304 0 520 -207t216 -515t-228 -510t-535 -202q-308 0 -529 205q-220 205 -220 508q0 205 110 372t286 258t380 91z" />
    <glyph glyph-name="afii10033" unicode="&#x41f;" horiz-adv-x="1691" 
d="M1204 287v925q0 53 -18 68q-23 14 -72 14h-536q-69 0 -80 -23t-11 -59v-925q0 -143 32 -189t116 -51l51 -4v-47q-119 6 -305 6t-305 -6v47l51 4q84 4 116 50t31 190v790q0 143 -32 189t-115 51l-51 4v47q137 -6 385 -6h770q248 0 385 6v-47l-51 -4q-84 -4 -116 -50
t-32 -190v-790q0 -143 32 -189t116 -51l51 -4v-47q-119 6 -305 6t-305 -6v47l51 4q83 5 115 51t32 189z" />
    <glyph glyph-name="afii10034" unicode="&#x420;" horiz-adv-x="1251" 
d="M487 1235v-539q57 -8 140 -8t147 30t94 81q56 92 58 215q0 301 -314 301h-22q-46 0 -64 -3q-38 -7 -39 -77zM1165 1010q0 -166 -138 -270t-376 -103q-25 0 -164 8v-328q0 -157 33 -207t158 -63l45 -4v-47q-158 6 -270 6h-144q-123 0 -233 -6v47l51 4q84 6 116 49t31 191
v790q0 143 -32 189t-115 51l-51 4v47q123 -6 192 -6h121l195 2q275 0 384 -51t153 -122q44 -70 44 -181z" />
    <glyph glyph-name="afii10035" unicode="&#x421;" horiz-adv-x="1429" 
d="M352 678q0 -379 180 -539q137 -119 310 -119q342 0 446 406l12 47h37v-457h-26l-49 107q-201 -158 -492 -158q-290 0 -484 200t-194 511t210 517t519 206q223 0 422 -131l33 98h33l14 -412h-47q-27 184 -152 286t-285 103q-160 0 -308 -125q-81 -69 -130 -208t-49 -332z
" />
    <glyph glyph-name="afii10036" unicode="&#x422;" horiz-adv-x="1392" 
d="M492 1362h409q201 0 428 6l12 -319h-49l-2 22q-10 113 -70 172t-227 60h-84q-74 -1 -90 -13t-16 -45v-928q0 -79 3 -115q9 -104 77 -132q39 -16 106 -23l45 -4v-47q-158 6 -266 6h-143q-109 0 -267 -6v47l45 4q68 7 107 23q65 28 77 132q3 36 3 115v928q0 25 -4 34
q-10 22 -103 24h-84q-166 1 -226 -59t-71 -173l-2 -22h-49l12 319q227 -6 429 -6z" />
    <glyph glyph-name="afii10037" unicode="&#x423;" horiz-adv-x="1402" 
d="M336 1362q122 0 252 6v-47l-35 -2q-125 -6 -125 -86q0 -35 29 -84l372 -623l258 514q59 119 60 177q0 96 -117 102l-39 2v47q177 -6 237 -6t111 1t77 3t28 2v-47l-29 -2q-90 -5 -136 -75q-46 -69 -89 -163l-361 -712q-45 -87 -77 -143q-101 -173 -220 -227
q-72 -34 -160 -34t-129 43q-42 43 -42 91t30 83q31 35 93 35t110 -61q6 -8 16 -22q26 -35 65 -36q38 0 82 46t71 98l39 73l-474 787q-5 6 -27 44t-44 70q-22 34 -62 68q-39 34 -77 35l-33 2v47q224 -6 346 -6z" />
    <glyph glyph-name="afii10038" unicode="&#x424;" horiz-adv-x="1699" 
d="M731 299h19v819h-19q-88 0 -159 -27q-70 -27 -112 -65t-75 -122t-33 -196t33 -195t75 -122t113 -65q70 -26 158 -27zM969 1118h-19v-819h19q87 0 158 27t113 65q42 39 75 122t33 196t-33 195t-75 122t-113 66q-70 26 -158 26zM850 2q-109 0 -299 -6v47l51 2
q147 4 148 162v41h-39q-162 0 -287 43q-220 76 -298 260q-34 78 -34 158q0 166 137 305q70 70 195 112t287 43h39v31q0 158 -148 162l-51 2v47q190 -6 299 -6t299 6v-47l-51 -2q-147 -4 -148 -162v-31h39q162 0 287 -43q124 -42 194 -112q138 -138 138 -306t-138 -305
q-70 -71 -194 -113t-287 -42h-39v-41q0 -158 148 -162l51 -2v-47q-190 6 -299 6z" />
    <glyph glyph-name="afii10039" unicode="&#x425;" horiz-adv-x="1482" 
d="M1042 95q0 24 -22 60q-23 36 -100 134l-238 303l-156 -201q-162 -209 -161 -266q0 -35 23 -57t50 -21q27 0 56 -2l34 -2v-47q-199 6 -278 6l-217 -6v47q156 18 266 162l342 434l-444 563q-47 61 -86 86t-101 33v47l271 -6l319 6v-47l-43 -2q-86 -4 -102 -25
q-10 -10 -11 -28q0 -43 86 -150l254 -315l60 69q59 68 141 192t82 171q0 70 -102 82l-47 6v47l276 -6l190 6v-47q-76 -11 -112 -29t-75 -64q-40 -46 -92 -116t-67 -88l-217 -276l477 -598q45 -56 75 -74t65 -25l55 -8v-47q-205 6 -293 6l-315 -6v47l59 2q35 2 51 4
q47 6 47 46z" />
    <glyph glyph-name="afii10040" unicode="&#x426;" horiz-adv-x="1691" 
d="M1311 1362q186 0 305 6v-47l-51 -4q-84 -6 -116 -49t-32 -191v-925q1 -50 17 -66t61 -16h121v-441h-47q-50 282 -210 344q-75 29 -185 29h-799q-195 0 -299 -6v47l51 4q84 6 116 49t31 191v790q0 147 -31 191q-32 43 -116 49l-51 4v47q119 -6 305 -6t305 6v-47l-51 -4
q-84 -6 -116 -49t-32 -191v-901q0 -74 29 -90t117 -16h442q95 0 112 25t17 79v903q0 147 -32 191t-115 49l-51 4v47q119 -6 305 -6z" />
    <glyph glyph-name="afii10041" unicode="&#x427;" horiz-adv-x="1570" 
d="M1296 1077v-790q0 -143 32 -189t116 -51l51 -4v-47q-123 6 -192 6h-234q-39 0 -209 -6v47l45 4q66 7 103 23t53 56t19 75t3 116v293q-201 -57 -353 -57q-253 0 -368 83q-44 34 -78 94t-34 147v200q0 143 -32 189t-116 51l-51 4v47q119 -6 305 -6t306 6v-47l-52 -4
q-84 -4 -116 -50t-31 -190v-176q1 -162 67 -221t222 -59t331 51v405q1 143 -31 189t-116 51l-51 4v47q119 -6 305 -6t305 6v-47l-51 -4q-84 -4 -116 -50t-32 -190z" />
    <glyph glyph-name="afii10042" unicode="&#x428;" horiz-adv-x="2281" 
d="M1900 1362q186 0 306 6v-47l-52 -4q-84 -4 -116 -50t-31 -190v-790q0 -143 32 -189t115 -51l52 -4v-47q-123 6 -193 6h-1638q-195 0 -299 -6v47l51 4q84 4 116 50t31 190v790q0 143 -32 189t-115 51l-51 4v47q119 -6 305 -6t305 6v-47l-51 -4q-84 -4 -116 -50t-32 -190
v-895q1 -68 21 -90t67 -22h330q95 0 112 25t17 79v903q0 143 -32 189t-115 51l-51 4v47q119 -6 305 -6t305 6v-47l-51 -4q-84 -4 -116 -50t-32 -190v-903q-1 -53 13 -73q22 -31 116 -31h330q47 0 68 22q20 23 20 90v895q0 143 -32 189t-115 51l-52 4v47q119 -6 305 -6z" />
    <glyph glyph-name="afii10043" unicode="&#x429;" horiz-adv-x="2281" 
d="M1900 1362q186 0 306 6v-47l-52 -4q-84 -4 -116 -50t-31 -190v-927q0 -48 16 -64t62 -16h121v-441h-47q-18 102 -53 175q-34 73 -69 111q-64 68 -178 83q-38 4 -96 4h-1388q-195 0 -299 -6v47l51 4q84 4 116 50t31 190v790q0 143 -32 189t-115 51l-51 4v47q119 -6 305 -6
t305 6v-47l-51 -4q-84 -4 -116 -50t-32 -190v-895q1 -68 21 -90t67 -22h330q95 0 112 25t17 79v903q0 143 -32 189t-115 51l-51 4v47q119 -6 305 -6t305 6v-47l-51 -4q-84 -4 -116 -50t-32 -190v-903q-1 -53 13 -73q22 -31 116 -31h330q47 0 68 22q20 23 20 90v895
q0 143 -32 189t-115 51l-52 4v47q119 -6 305 -6z" />
    <glyph glyph-name="afii10044" unicode="&#x42a;" horiz-adv-x="1587" 
d="M731 281q0 -173 103 -212q49 -19 124 -20q131 0 219 84q87 84 87 250q0 90 -30 157q-30 68 -72 102q-102 84 -322 83q-35 0 -109 -4v-440zM518 287v962q0 25 -4 34q-10 22 -102 24h-58q-272 0 -291 -258h-43v319l558 -6l352 6v-47l-41 -4q-94 -8 -125 -47
q-33 -35 -33 -193v-307q72 6 139 6q645 0 646 -389q0 -387 -555 -391q-135 -2 -229 1t-220 3l-193 -4v47l52 4q83 4 115 50t32 190z" />
    <glyph glyph-name="afii10045" unicode="&#x42b;" horiz-adv-x="2064" 
d="M1683 1362q186 0 306 6v-47l-52 -4q-83 -4 -115 -50t-32 -190v-790q0 -143 32 -189t115 -51l52 -4v-47q-119 6 -305 6t-306 -6v47l52 4q84 4 116 50t31 190v790q0 143 -32 189t-115 51l-52 4v47q119 -6 305 -6zM487 281q0 -92 36 -161t184 -70q147 -1 230 90t83 257
q0 328 -404 328q-86 0 -129 -4v-440zM381 1362q186 0 305 6v-47l-51 -4q-84 -6 -116 -49t-32 -191v-307q72 6 140 6q213 0 355 -37t222 -147q68 -90 68 -194q0 -203 -124 -287q-124 -85 -236 -100t-275 -16q-161 -1 -229 3t-114 4t-218 -6v47l51 4q84 4 116 50t31 190v790
q0 147 -31 191q-32 43 -116 49l-51 4v47q119 -6 305 -6z" />
    <glyph glyph-name="afii10046" unicode="&#x42c;" horiz-adv-x="1343" 
d="M487 281q0 -92 36 -161t184 -70q147 -1 230 90t83 257q0 328 -404 328q-86 0 -129 -4v-440zM274 1077q0 147 -31 191q-32 43 -116 49l-51 4v47q119 -6 305 -6t305 6v-47l-51 -4q-84 -6 -116 -49t-32 -191v-307q72 6 140 6q213 0 355 -37t222 -147q68 -90 68 -194
q0 -203 -124 -287q-124 -85 -236 -100t-195 -15l-449 4l-192 -4v47l51 4q84 4 116 50t31 190v790z" />
    <glyph glyph-name="afii10047" unicode="&#x42d;" horiz-adv-x="1429" 
d="M470 725q-75 0 -189 -78l-27 41q193 150 321 150q63 0 103 -18t68 -32q111 -56 186 -57q76 0 145 31q4 264 -130 423t-345 158q-154 -1 -276 -105t-150 -284h-47l14 412h33l33 -98q172 131 403 131q322 0 524 -202t201 -513q0 -219 -103 -386t-271 -250t-383 -83t-357 92
q-141 92 -141 205q0 49 33 83t83 34t82 -31t31 -82l-16 -104q0 -49 57 -82q100 -59 238 -60q207 0 347 176t140 509q-143 -91 -215 -91t-116 19q-43 19 -144 67q-57 25 -132 25z" />
    <glyph glyph-name="afii10048" unicode="&#x42e;" horiz-adv-x="2324" 
d="M1972 674q0 182 -44 319q-75 233 -260 317q-151 69 -330 0q-334 -134 -337 -632q0 -156 34 -277t84 -191t118 -114q111 -74 248 -76q185 0 327 137q74 71 117 203t43 314zM487 735h254q35 301 259 483t515 181q291 0 504 -207t213 -514t-225 -510t-530 -203t-512 203
t-224 500h-254v-381q0 -143 32 -189t116 -51l51 -4v-47q-119 6 -305 6t-305 -6v47l51 4q84 4 116 50t31 190v790q0 143 -32 189t-115 51l-51 4v47q119 -6 305 -6t305 6v-47l-51 -4q-84 -4 -116 -50t-32 -190v-342z" />
    <glyph glyph-name="afii10049" unicode="&#x42f;" horiz-adv-x="1437" 
d="M950 702v553q0 31 -12 45t-53 15h-23q-233 0 -316 -122q-65 -96 -66 -224q-2 -129 96 -198t208 -69h166zM1163 1077v-790q0 -143 32 -189t116 -51l51 -4v-47q-119 6 -305 6t-305 -6v47l51 4q84 4 116 50t31 190v356h-135q-137 0 -205 -172l-104 -260q-62 -151 -118 -196
q-66 -48 -161 -50q-166 0 -237 182l47 25q41 -80 92 -80t89 61t106 197q76 143 151 215q76 72 170 94v7q-174 4 -290 97q-115 93 -115 232t106 249q56 56 162 90t252 34l409 -6q27 0 193 6v-47l-51 -4q-84 -4 -116 -50t-32 -190z" />
    <glyph glyph-name="afii10065" unicode="&#x430;" horiz-adv-x="989" 
d="M254 196q0 -56 36 -96t101 -41q92 0 227 117v344l-36 -16q-246 -107 -301 -204q-27 -48 -27 -104zM291 -27q-101 -1 -161 55t-60 129t26 110q26 36 48 65t72 57q123 69 322 145q69 27 77 50q3 8 3 32v29q0 123 -35 173t-139 50t-149 -26t-49 -88q-8 -96 -88 -97
q-31 -1 -54 19t-22 57q0 78 100 130t278 52t258 -65q34 -27 52 -79t22 -94t3 -118v-303q0 -144 30 -174q16 -16 50 -16t65 51l10 16l39 -22q-70 -137 -184 -138q-59 0 -110 40q-50 40 -68 110q-176 -150 -336 -150z" />
    <glyph glyph-name="afii10066" unicode="&#x431;" horiz-adv-x="1114" 
d="M566 842q-36 0 -62 -5t-68 -30q-40 -25 -70 -66t-53 -121t-23 -188q0 -110 24 -190q22 -80 52 -121t76 -70t103 -30q104 -2 192 85q88 88 86 326q0 318 -179 392q-42 18 -78 18zM141 580h9q47 139 159 224q113 85 248 85q191 0 333 -130t142 -328t-141 -328t-334 -130
q-193 -1 -334 143t-141 406q0 457 199 639q57 51 143 87t140 48t170 34t151 38q35 18 37 64h43v-19q1 -123 -91 -186t-280 -109t-262 -90q-190 -115 -191 -414v-34z" />
    <glyph glyph-name="afii10067" unicode="&#x432;" horiz-adv-x="1044" 
d="M387 444v-239q0 -96 34 -129q35 -33 111 -33t128 23t73 60q35 66 35 126q0 59 -37 113q-59 80 -211 79h-133zM387 772v-280h133q94 0 145 51q50 51 50 125q0 178 -246 178q-37 0 -51 -3q-31 -7 -31 -71zM211 201v489q0 72 -18 109t-87 43l-38 4v47l233 -6l234 6
q209 0 291 -67q82 -66 81 -146q0 -80 -58 -135t-147 -68v-6q123 -5 199 -67t76 -146t-59 -160q-35 -46 -120 -74t-208 -28l-289 6q-125 0 -233 -6v47l38 4q68 6 87 43q18 37 18 111z" />
    <glyph glyph-name="afii10068" unicode="&#x433;" horiz-adv-x="884" 
d="M296 2q-120 0 -230 -6v47l36 4q70 8 88 44t19 110v487q0 49 -4 75q-4 25 -29 49t-74 30l-36 4v47l231 -6l524 6l33 -272h-59l-11 28q-66 182 -239 182h-86q-40 0 -51 -9q-10 -9 -16 -13t-7 -19v-589q0 -49 4 -75t29 -50t74 -29l36 -4v-47q-112 6 -232 6z" />
    <glyph glyph-name="afii10069" unicode="&#x434;" horiz-adv-x="1056" 
d="M668 121v649q0 38 -14 49q-14 12 -36 12h-88q-53 0 -69 -19t-29 -110l-12 -98q-30 -236 -91 -360q-25 -48 -55 -100t-30 -66q0 -25 63 -25h311q18 0 28 3q22 7 22 65zM999 53v-338h-53l-10 49q-20 98 -84 167t-158 69h-370q-98 0 -162 -69t-84 -167l-10 -49h-54v338h70
q59 0 127 113q119 195 143 446q4 64 2 116t-32 85q-31 33 -91 33h-32v47q117 -6 241 -6h330q43 0 215 6v-47l-37 -4q-70 -8 -88 -44t-18 -110v-545q0 -53 12 -71t49 -19h94z" />
    <glyph glyph-name="afii10070" unicode="&#x435;" horiz-adv-x="1032" 
d="M553 868q-90 0 -159 -74t-87 -184l371 6q53 2 65 10t13 36q0 110 -56 158t-147 48zM80 440q0 192 141 333q141 142 348 142q162 0 270 -93t117 -224v-23q-2 -18 -34 -18h-625q-8 -43 -8 -98q0 -188 94 -297q93 -108 239 -108t257 141l43 -45q-138 -176 -362 -176
t-352 136q-128 138 -128 330z" />
    <glyph glyph-name="afii10072" unicode="&#x436;" horiz-adv-x="1519" 
d="M760 2q-120 0 -232 -6v47l37 4q70 8 88 44t19 110v241h-31q-39 0 -61 -4t-54 -32q-31 -28 -53 -82l-67 -162q-43 -99 -70 -133q-28 -33 -58 -44t-75 -12q-145 0 -193 148l39 16q25 -63 66 -63q29 0 49 26q19 26 56 100q38 74 55 104q57 101 113 130t116 37v4
q-39 18 -69 52t-42 60q-12 27 -42 95t-46 76t-29 8t-40 -16t-66 -16q-40 0 -62 26t-22 62t25 65t75 29q98 -1 153 -78q36 -51 70 -128q34 -78 53 -114t62 -70q43 -35 101 -34h47v196q0 49 -4 75q-4 25 -29 49t-74 30l-37 4v47q111 -6 232 -6t231 6v-47l-37 -4
q-70 -8 -88 -44t-18 -110v-196h47q57 0 100 34t63 71q18 36 42 91q73 170 145 208q37 19 88 19q51 -1 76 -29t25 -64t-23 -62t-61 -27q-38 1 -66 17q-27 16 -43 16q-37 0 -72 -82q-5 -14 -30 -68q-49 -105 -123 -141v-4q63 -9 103 -30t78 -69q45 -57 100 -167t74 -121
q19 -10 34 -10q41 0 65 63l39 -16q-47 -147 -192 -148q-82 0 -121 42t-82 147l-67 162q-23 55 -54 83q-31 27 -53 31t-61 4h-31v-241q0 -49 4 -75t29 -50t73 -29l37 -4v-47q-111 6 -231 6z" />
    <glyph glyph-name="afii10073" unicode="&#x437;" horiz-adv-x="905" 
d="M336 436v53h65q133 0 171 70q30 55 30 105q0 90 -51 144t-141 54t-154 -60t-72 -161h-53v274h35l41 -51q103 51 257 51t243 -70q88 -71 88 -160q-1 -89 -63 -149t-161 -63v-4q70 -4 138 -33q135 -57 135 -186t-114 -203t-291 -74q-177 -1 -277 59t-101 146q0 45 25 71
q25 25 67 25q43 0 65 -24t22 -55l-7 -37q-4 -25 -4 -37q0 -94 179 -94q111 0 169 59t58 145q0 85 -53 145t-181 60h-65z" />
    <glyph glyph-name="afii10074" unicode="&#x438;" horiz-adv-x="1253" 
d="M211 201v487q0 49 -4 75q-4 25 -29 49t-74 30l-36 4v47q112 -6 232 -6t230 6v-47l-36 -4q-70 -8 -88 -44t-19 -110v-467l473 529q-2 49 -26 67q-25 18 -74 25l-37 4v47q111 -6 231 -6t232 6v-47l-37 -4q-70 -8 -88 -44t-19 -110v-487q0 -49 4 -75t30 -50q24 -24 73 -29
l37 -4v-47q-111 6 -232 6t-231 -6v47l37 4q70 8 88 44t18 110v475l-475 -537q-2 -47 24 -67t79 -25l36 -4v-47q-111 6 -231 6t-231 -6v47l36 4q70 8 89 44q18 36 18 110z" />
    <glyph glyph-name="afii10075" unicode="&#x439;" horiz-adv-x="1253" 
d="M627 1032q-141 0 -230 69q-88 69 -88 154q0 45 26 69q27 24 65 24t65 -23t27 -48t-17 -50q-12 -25 -12 -41q0 -39 40 -71t124 -32t124 32t40 71q0 16 -13 41q-16 25 -16 51t26 48t66 22q39 0 65 -24t25 -69q0 -87 -88 -155t-229 -68zM211 201v487q0 49 -4 75
q-4 25 -29 49t-74 30l-36 4v47q112 -6 232 -6t230 6v-47l-36 -4q-70 -8 -88 -44t-19 -110v-467l473 529q-2 49 -26 67q-25 18 -74 25l-37 4v47q111 -6 231 -6t232 6v-47l-37 -4q-70 -8 -88 -44t-19 -110v-487q0 -49 4 -75t30 -50q24 -24 73 -29l37 -4v-47q-111 6 -232 6
t-231 -6v47l37 4q70 8 88 44t18 110v475l-475 -537q-2 -47 24 -67t79 -25l36 -4v-47q-111 6 -231 6t-231 -6v47l36 4q70 8 89 44q18 36 18 110z" />
    <glyph glyph-name="afii10076" unicode="&#x43a;" horiz-adv-x="1073" 
d="M298 2q-120 0 -230 -6v47l36 4q70 8 89 44q18 36 18 110v487q0 49 -4 75q-4 25 -29 49t-74 30l-36 4v47q112 -6 232 -6t230 6v-47l-36 -4q-70 -8 -88 -44t-19 -110v-196h62q87 0 132 59t71 124q26 64 34 79q80 162 209 161q53 -1 81 -27t28 -66t-26 -64t-64 -25
q-38 0 -70 19q-33 14 -43 14q-39 0 -69 -72q-7 -16 -16 -38t-16 -33q-6 -11 -14 -27t-12 -22l-12 -20q-8 -13 -14 -19q-6 -7 -14 -17t-18 -16l-20 -12t-23 -13v-6q82 -15 142 -72q61 -57 127 -190q21 -64 65 -113q22 -22 47 -22q45 0 70 63l39 -16q-47 -147 -193 -148
q-82 0 -120 42t-82 147l-68 162q-33 78 -70 98t-98 20h-45v-241q0 -49 4 -75t29 -50t74 -29l36 -4v-47q-112 6 -232 6z" />
    <glyph glyph-name="afii10077" unicode="&#x43b;" horiz-adv-x="1093" 
d="M883 688v-487q1 -86 25 -117t81 -37l37 -4v-47q-112 6 -232 6t-231 -6v47l37 4q57 6 82 37t25 117v569q1 38 -13 49q-14 12 -37 12h-88q-49 0 -67 -18t-31 -111l-18 -165q-35 -293 -123 -426q-86 -137 -226 -138q-61 0 -87 30q-25 30 -25 66q0 37 28 61t64 24
q37 0 73 -27t44 -27q41 0 78 64q90 143 114 448q10 117 -11 171q-22 54 -110 61l-32 2v47q117 -6 241 -6h330q43 0 215 6v-47l-37 -4q-70 -8 -88 -44t-18 -110z" />
    <glyph glyph-name="afii10078" unicode="&#x43c;" horiz-adv-x="1355" 
d="M1145 688v-487q0 -49 4 -75t29 -50t73 -29l37 -4v-47q-110 6 -228 6t-226 -6v47l36 4q70 8 88 44t19 110v563h-8l-332 -764h-33l-332 764v-563q0 -143 107 -154l37 -4v-47q-147 6 -174 6t-174 -6v47l36 4q106 10 107 154v487q0 49 -4 75q-4 25 -29 49t-74 30l-36 4v47
q162 -10 327 -4l279 -639h6l278 639q174 -4 330 4v-47l-37 -4q-70 -8 -88 -44t-18 -110z" />
    <glyph glyph-name="afii10079" unicode="&#x43d;" horiz-adv-x="1232" 
d="M298 2q-120 0 -230 -6v47l36 4q70 8 89 44q18 36 18 110v487q0 49 -4 75q-4 25 -29 49t-74 30l-36 4v47q112 -6 232 -6t230 6v-47l-36 -4q-70 -8 -88 -44t-19 -110v-203h459v203q0 49 -4 75q-4 25 -29 49t-74 30l-37 4v47q111 -6 232 -6t231 6v-47l-37 -4q-70 -8 -88 -44
t-18 -110v-487q0 -49 4 -75t29 -50t73 -29l37 -4v-47q-111 6 -231 6t-232 -6v47l37 4q70 8 88 44t19 110v231h-459v-231q0 -49 4 -75t29 -50t74 -29l36 -4v-47q-112 6 -232 6z" />
    <glyph glyph-name="afii10080" unicode="&#x43e;" horiz-adv-x="1163" 
d="M604 868q-51 0 -81 -5q-31 -5 -75 -31t-76 -67q-32 -42 -57 -125t-25 -196q0 -114 26 -196q24 -82 56 -124t86 -73t123 -31t124 31t87 73t56 125t24 195t-24 196q-25 83 -56 125q-32 43 -85 73q-52 30 -103 30zM582 915q205 0 352 -135t147 -336q0 -202 -147 -336
t-352 -134q-204 0 -352 134q-148 136 -148 336t147 336q148 135 353 135z" />
    <glyph glyph-name="afii10081" unicode="&#x43f;" horiz-adv-x="1212" 
d="M298 2q-120 0 -230 -6v47l36 4q70 8 89 44q18 36 18 110v487q0 49 -4 75q-4 25 -29 49t-74 30l-36 4v47q111 -6 231 -6h614q121 0 232 6v-47l-37 -4q-70 -8 -88 -44t-19 -110v-487q1 -49 5 -75t28 -50t74 -29l37 -4v-47q-111 6 -232 6t-231 -6v47l37 4q57 6 82 36t24 118
v522q0 74 -14 91t-59 17h-291q-45 0 -59 -17t-15 -91v-522q0 -88 25 -118t82 -36l36 -4v-47q-112 6 -232 6z" />
    <glyph glyph-name="afii10082" unicode="&#x440;" horiz-adv-x="1216" 
d="M387 571v-254q1 -121 63 -197t180 -77q118 0 207 99t89 304q0 125 -29 212t-76 125q-83 67 -183 67t-176 -79t-75 -200zM387 -358q0 -64 15 -98q14 -34 32 -42t53 -12l58 -6v-47q-197 6 -283 6t-194 -6v47l36 4q49 6 74 32t29 50t4 72v983q0 135 -52 170q-28 18 -71 18
h-27v41q141 18 295 74q14 -63 13 -185q106 172 308 172t330 -137t128 -348q1 -211 -141 -334t-316 -123t-291 119v-450z" />
    <glyph glyph-name="afii10083" unicode="&#x441;" horiz-adv-x="964" 
d="M544 -27q-212 0 -337 124t-125 326t140 347t376 145q131 0 197 -43t65 -100q0 -33 -18 -53t-51 -21q-76 0 -103 88q-14 56 -52 69q-19 7 -48 7q-113 0 -205 -98t-92 -315q0 -125 30 -212q29 -87 79 -126q89 -70 188 -70q149 0 262 131l43 -39q-137 -160 -349 -160z" />
    <glyph glyph-name="afii10084" unicode="&#x442;" horiz-adv-x="1024" 
d="M700 834h-34q-46 0 -56 -20t-10 -91v-522q0 -49 4 -75t29 -50t74 -29l36 -4v-47q-111 6 -231 6t-231 -6v47l36 4q70 8 89 44q18 36 18 110v522q0 72 -10 91t-56 20h-34q-80 0 -130 -36t-81 -130l-17 -52h-59l24 277l281 -6h340l281 6l24 -277h-59l-17 52q-31 94 -81 130
t-130 36z" />
    <glyph glyph-name="afii10085" unicode="&#x443;" horiz-adv-x="886" 
d="M-35 846v47l213 -6l234 6v-47l-39 -4q-35 -4 -49 -7q-39 -8 -39 -50t57 -181l162 -389l166 399q49 119 49 170t-76 58l-37 4v47l158 -6l139 6v-47q-29 2 -55 -11t-52 -68t-52 -119t-42 -101l-348 -809q-74 -174 -116 -243t-97 -68q-25 0 -42 17t-17 44q0 66 103 109
q36 14 58 46t60 119l109 250l-303 709q-31 69 -60 97t-84 28z" />
    <glyph glyph-name="afii10086" unicode="&#x444;" horiz-adv-x="1568" 
d="M494 850q-203 0 -203 -404q-1 -217 69 -310t162 -93q51 1 101 39t73 106v535q-31 55 -88 91t-114 36zM1047 43q91 0 161 93t70 310q0 403 -203 404q-57 0 -115 -36t-88 -91v-535q23 -68 73 -106t102 -39zM1487 439q0 -216 -122 -341t-263 -125t-230 119v-362
q0 -146 14 -188t70 -50l60 -8v-47q-104 8 -232 8t-231 -8v47l59 8q55 8 70 50q14 42 14 188v362q-88 -119 -230 -119t-262 125q-122 125 -122 341t120 346t277 130q127 0 217 -110v309q0 102 -23 146q-24 43 -106 49l-26 2v41q184 20 331 67v-614q90 111 218 110
q158 0 278 -130t119 -346z" />
    <glyph glyph-name="afii10087" unicode="&#x445;" horiz-adv-x="1083" 
d="M582 43h59q59 0 59 35q0 29 -40 69q-11 12 -15 17l-168 198l-24 -28q-158 -182 -158 -232t115 -59v-47q-92 10 -195 6l-197 -6v47q133 10 240 141l180 224l-270 342q-70 88 -150 96v47q118 -6 222 -6t223 6v-47h-37q-76 0 -76 -31q0 -49 172 -242l35 -38l37 45
q143 176 143 217q0 20 -21 34q-22 14 -57 15h-32v47l202 -6l166 6v-47q-106 0 -198 -109l-205 -243l282 -328q86 -98 185 -123v-47l-219 6l-258 -6v47z" />
    <glyph glyph-name="afii10088" unicode="&#x446;" horiz-adv-x="1214" 
d="M211 201v491q0 47 -4 72q-4 24 -29 48t-74 30l-36 4v47q112 -6 232 -6t230 6v-47l-36 -4q-70 -8 -88 -44t-19 -106v-571q0 -56 22 -65q9 -3 27 -3h340q18 0 28 3q21 7 21 65v571q0 47 -4 72q-5 24 -29 48t-73 30l-37 4v47q112 -6 232 -6t231 6v-47l-37 -4q-70 -8 -88 -44
t-19 -106v-549q1 -53 13 -71t49 -19h94v-338h-53l-10 49q-20 98 -84 167t-158 69h-674l-110 -4v47l36 4q70 8 89 44q18 36 18 110z" />
    <glyph glyph-name="afii10089" unicode="&#x447;" horiz-adv-x="1165" 
d="M954 201q0 -49 4 -75t29 -50t74 -29l37 -4v-47q-111 6 -232 6t-231 -6v47l37 4q70 8 88 44t18 110v192q-162 -59 -293 -59q-281 0 -280 233v121q0 49 -4 75q-4 25 -29 49t-74 30l-37 4v47q111 -6 232 -6t231 6v-47l-37 -4q-70 -8 -88 -44t-18 -110v-100q0 -103 38 -145
t133 -43t226 46v242q0 49 -4 75q-4 25 -29 49t-73 30l-37 4v47q111 -6 231 -6t232 6v-47l-37 -4q-70 -8 -88 -44t-19 -110v-487z" />
    <glyph glyph-name="afii10090" unicode="&#x448;" horiz-adv-x="1646" 
d="M823 887q111 0 215 6v-47q-81 -16 -104 -41t-23 -117v-567q0 -54 24 -65q9 -3 26 -3h249q16 0 26 3q22 7 24 65v567q0 105 -29 123t-41 22t-57 13v47q100 -6 219 -6t227 6v-47l-37 -4q-70 -8 -88 -44t-18 -110v-487q0 -43 4 -70t30 -55t72 -27h37v-53l-211 4h-1096
l-204 -4v53h36q47 0 73 28q26 29 30 55t4 69v487q0 49 -4 75q-4 25 -29 49t-74 30l-36 4v47q110 -6 228 -6t218 6v-47q-81 -16 -104 -41t-23 -117v-567q0 -55 24 -65q9 -3 25 -3h250q16 0 26 3q23 8 23 65v567q0 51 -6 82t-29 45q-22 14 -28 16t-43 11l-21 4v47
q104 -6 215 -6z" />
    <glyph glyph-name="afii10091" unicode="&#x449;" horiz-adv-x="1648" 
d="M1352 887q119 0 227 6v-47l-37 -4q-70 -8 -88 -44t-18 -110v-541q0 -57 11 -75t50 -19h94v-338h-53l-10 49q-20 98 -84 167t-162 69h-1010l-204 -4v49h36q47 0 73 28q26 29 30 55t4 69v491q0 49 -4 75q-4 25 -29 49t-74 30l-36 4v47q110 -6 228 -6t218 6v-47
q-81 -16 -104 -41t-23 -117v-567q0 -55 24 -65q9 -3 25 -3h250q16 0 26 3q23 8 23 65v567q0 51 -6 82t-29 45q-22 14 -28 16t-43 11l-21 4v47q104 -6 215 -6t215 6v-47q-81 -16 -104 -41t-23 -117v-567q0 -54 24 -65q9 -3 26 -3h249q16 0 26 3q22 7 24 65v567q0 105 -29 123
t-41 22t-57 13v47q100 -6 219 -6z" />
    <glyph glyph-name="afii10092" unicode="&#x44a;" horiz-adv-x="1191" 
d="M565 190q1 -68 19 -97q32 -48 146 -48t163 66t49 141q0 231 -223 231q-84 0 -154 -12v-281zM389 203v567q0 50 -15 56q-15 5 -34 5h-78q-131 0 -184 -163l-10 -33h-54l31 258q301 -6 423 -6t241 6v-47l-37 -4q-70 -8 -88 -44t-19 -110v-168q83 10 179 10t180 -24t126 -52
q42 -30 72 -82t29 -114q0 -137 -129 -209q-94 -53 -322 -53l-223 6q-66 0 -231 -6v47l37 4q70 8 88 44t18 112z" />
    <glyph glyph-name="afii10093" unicode="&#x44b;" horiz-adv-x="1531" 
d="M1233 887q121 0 231 6v-47l-37 -4q-70 -8 -88 -44t-18 -110v-487q0 -49 4 -75t29 -50t73 -29l37 -4v-47q-112 6 -232 6t-231 -6v47l37 4q70 8 88 44t19 110v487q0 49 -4 75q-4 25 -29 49t-74 30l-37 4v47q111 -6 232 -6zM387 190q0 -52 7 -78t42 -46t105 -21
q115 -1 166 63t51 144q0 231 -217 231q-93 0 -154 -12v-281zM211 203v485q0 49 -4 75q-4 25 -29 49t-74 30l-36 4v47q112 -6 232 -6t230 6v-47l-36 -4q-70 -8 -88 -44t-19 -110v-168q113 10 201 10t176 -26t129 -71q72 -77 74 -175q0 -137 -129 -209q-100 -53 -316 -53
l-223 6q-127 0 -231 -6v47l36 6q63 10 85 38t22 116z" />
    <glyph glyph-name="afii10094" unicode="&#x44c;" horiz-adv-x="1013" 
d="M387 190q1 -68 19 -97q32 -48 146 -48t163 66t49 141q0 231 -223 231q-86 0 -154 -12v-281zM211 203v485q0 49 -4 75q-4 25 -29 49t-74 30l-36 4v47q112 -6 232 -6t230 6v-47l-36 -4q-70 -8 -88 -44t-19 -110v-168q113 10 203 10t180 -26t131 -71q70 -75 72 -175
q0 -262 -451 -262l-223 6q-127 0 -231 -6v47l36 6q63 10 85 38t22 116z" />
    <glyph glyph-name="afii10095" unicode="&#x44d;" horiz-adv-x="991" 
d="M106 635v280h35l41 -51q106 51 228 51q211 0 355 -135t144 -335q0 -199 -145 -335t-344 -137q-144 1 -246 59t-102 146q0 45 24 71q25 25 65 25q41 0 65 -22t24 -57l-6 -37q-4 -25 -4 -37q0 -49 54 -72t128 -23t136 44t92 112q58 133 50 279q-94 -68 -140 -68
q-46 1 -84 25t-62 36t-75 12q-50 0 -110 -50l-28 30q123 115 205 115q48 0 107 -31t81 -37q61 -15 106 17q-19 190 -94 274t-185 84q-109 0 -179 -62t-82 -171h-54z" />
    <glyph glyph-name="afii10096" unicode="&#x44e;" horiz-adv-x="1615" 
d="M1051 868q-37 0 -65 -5t-72 -29t-76 -67q-32 -42 -55 -126t-23 -202t26 -207t71 -132q80 -78 183 -79t187 79q45 43 71 132q27 89 27 213q0 248 -102 346q-84 77 -172 77zM387 485h164q15 193 159 312t338 119t340 -134q146 -133 146 -338t-146 -338t-337 -133t-341 123
t-159 336h-164v-231q0 -49 4 -75t29 -50t74 -29l36 -4v-47q-112 6 -232 6t-230 -6v47l36 4q70 8 89 44q18 36 18 110v487q0 49 -4 75q-4 25 -29 49t-74 30l-36 4v47q112 -6 232 -6t230 6v-47l-36 -4q-70 -8 -88 -44t-19 -110v-203z" />
    <glyph glyph-name="afii10097" unicode="&#x44f;" horiz-adv-x="1085" 
d="M698 461v340q0 25 -13 34t-60 9q-119 0 -174 -33q-94 -57 -95 -168q0 -82 60 -132t162 -50h120zM874 201q0 -49 4 -75t30 -50q24 -24 73 -29l37 -4v-47q-111 6 -232 6t-231 -6v47l37 4q70 8 88 44t18 110v213h-45q-131 0 -168 -90l-67 -162q-23 -53 -34 -76
q-36 -76 -91 -95q-33 -11 -78 -11q-152 0 -201 147l39 16q25 -63 66 -63q33 0 59 32t68 108t87 125q46 50 113 77v6q-86 2 -161 37q-121 57 -121 184q0 80 62 154q79 94 311 90l249 -6q53 -2 232 6v-47l-37 -2q-70 -4 -88 -43t-19 -111v-489z" />
    <glyph glyph-name="afii10071" unicode="&#x451;" horiz-adv-x="1030" 
d="M596 1257q0 45 32 77t77 32t77 -32t31 -77q0 -45 -32 -77q-33 -32 -77 -31q-44 -1 -76 31t-32 77zM260 1257q0 45 32 77t77 32t77 -32t31 -77q0 -45 -32 -77q-33 -32 -77 -31q-44 -1 -76 31t-32 77zM550 868q-89 0 -158 -74t-87 -184l371 6q55 2 66 10t12 33
q0 113 -58 161t-146 48zM80 440q0 192 140 334q140 141 347 141q162 0 270 -93t117 -224v-23q-2 -18 -34 -18h-625q-8 -43 -8 -98q0 -188 94 -297q95 -108 243 -108t259 141l43 -45q-138 -176 -364 -176t-354 136q-128 138 -128 330z" />
    <glyph glyph-name="afii10099" unicode="&#x452;" horiz-adv-x="1173" 
d="M422 -427q0 64 59 67q53 0 92 -66q57 -88 142 -88q49 0 86 28t67 88t46 233t16 481t-27 391q-45 131 -190 131q-270 0 -271 -359v-293q0 -75 16 -93q39 -43 85 -46l45 -4v-47q-123 6 -148 6h-164q-31 0 -153 -6v47l43 6q84 12 94 84q6 44 6 80v858h-205v47h205
q6 96 -19 139q-26 43 -93 50l-43 4v41q245 42 331 67v-301h373v-47h-373v-336q109 168 324 168q92 0 157 -30q65 -29 99 -75q84 -110 84 -440q0 -92 -12 -246t-25 -233q-37 -221 -125 -332t-244 -110q-114 0 -196 36t-82 100z" />
    <glyph glyph-name="afii10100" unicode="&#x453;" horiz-adv-x="884" 
d="M668 1405q33 -1 50 -19t17 -36q1 -49 -25 -69q-25 -20 -71 -50l-279 -187h-57l295 320q37 41 70 41zM296 2q-120 0 -230 -6v47l36 4q70 8 88 44t19 110v487q0 49 -4 75q-4 25 -29 49t-74 30l-36 4v47l231 -6l524 6l33 -272h-59l-11 28q-66 182 -239 182h-86q-40 0 -51 -9
q-10 -9 -16 -13t-7 -19v-589q0 -49 4 -75t29 -50t74 -29l36 -4v-47q-112 6 -232 6z" />
    <glyph glyph-name="afii10101" unicode="&#x454;" horiz-adv-x="952" 
d="M544 -27q-212 0 -337 124t-125 319q0 158 83 286q141 216 433 213q131 0 197 -43t65 -100q0 -33 -18 -53t-51 -21q-80 0 -103 90q-14 56 -52 69q-19 7 -48 7q-125 0 -210 -106t-87 -283q96 51 155 51t134 -47q44 -18 90 -18t106 37l29 -37q-119 -94 -211 -94
q-46 0 -72 12q-26 11 -70 37t-84 26q-41 0 -77 -14q-5 -88 27 -180q71 -207 270 -207q149 0 262 131l43 -39q-137 -160 -349 -160z" />
    <glyph glyph-name="afii10102" unicode="&#x455;" horiz-adv-x="768" 
d="M612 915v-262h-41q-16 86 -71 151t-146 64q-59 0 -96 -32t-37 -69q0 -82 71 -133q44 -30 85 -51q177 -91 233 -147q80 -76 80 -190t-89 -194q-89 -79 -218 -79t-231 76l-41 -61h-33v297h39q19 -101 81 -183t175 -82q80 0 127 43t47 105q0 86 -101 154q-37 25 -132 75
t-140 86q-84 69 -85 174t68 182t180 77t210 -52l41 51h24z" />
    <glyph glyph-name="afii10103" unicode="&#x456;" horiz-adv-x="612" 
d="M283 1395q45 0 79 -34t33 -79q0 -45 -34 -79q-35 -34 -79 -34t-78 34t-34 79t34 79t79 34zM395 227q-1 -96 19 -137t94 -45l37 -2v-47q-131 6 -176 6h-123q-45 0 -176 -6v47l36 2q74 4 94 45q19 41 19 137v426q0 80 -19 116t-77 34l-62 -2v47q219 45 334 80v-701z" />
    <glyph glyph-name="afii10104" unicode="&#x457;" horiz-adv-x="655" 
d="M383 1257q0 45 32 77t77 32q44 0 76 -32t32 -77t-32 -77t-76 -31q-44 -1 -77 31q-32 32 -32 77zM55 1257q0 45 32 77t77 32t77 -32q31 -32 31 -77t-32 -77t-76 -31q-45 -1 -77 31t-32 77zM328 887q121 0 231 6v-47l-37 -4q-70 -8 -88 -44t-18 -110v-487q0 -49 4 -75
t29 -50t73 -29l37 -4v-47q-111 6 -231 6t-232 -6v47l37 4q70 8 88 44t19 110v487q0 49 -4 75q-4 25 -29 49t-74 30l-37 4v47q111 -6 232 -6z" />
    <glyph glyph-name="afii10105" unicode="&#x458;" horiz-adv-x="567" 
d="M264 1395q47 0 80 -34t33 -79t-33 -79t-80 -34t-80 34t-32 79q0 45 32 79q33 34 80 34zM377 -113q0 -236 -95 -343q-98 -107 -316 -107q-122 0 -193 40q-72 40 -72 95q0 29 19 48t51 20q55 0 99 -78t114 -78q116 0 167 73q50 73 50 357v739q1 80 -19 116t-78 34l-61 -2
v47q219 45 334 80v-1041z" />
    <glyph glyph-name="afii10106" unicode="&#x459;" horiz-adv-x="1513" 
d="M883 201q1 -88 23 -117t77 -37q133 -20 209 40t72 179q-6 215 -217 215q-90 0 -164 -8v-272zM707 203v567q1 38 -13 49q-14 12 -37 12h-88q-49 0 -67 -18t-31 -111l-18 -159q-45 -387 -197 -508q-63 -55 -138 -55t-101 30q-25 30 -25 65q0 37 28 61t64 24q37 0 73 -27
t44 -27q39 0 78 64q84 131 114 442q10 117 -11 172q-22 55 -110 62l-32 2v45q416 -17 786 0v-47l-37 -4q-70 -8 -88 -44t-18 -110v-168q115 8 177 8t123 -9q272 -41 290 -245q10 -102 -43 -161t-124 -88t-278 -29l-233 6q-123 0 -232 -6v47l37 6q63 10 85 39t22 115z" />
    <glyph glyph-name="afii10107" unicode="&#x45a;" horiz-adv-x="1628" 
d="M997 201q0 -88 23 -117t78 -37q133 -20 209 40t71 179q-6 205 -217 205q-94 0 -164 -8v-262zM1169 520q207 0 308 -67q100 -68 111 -180q12 -111 -70 -189t-246 -86q-37 -4 -170 0q-132 4 -224 4t-200 -6v47l37 4q70 8 88 44t18 110v248h-450v-248q0 -49 4 -75
q5 -26 29 -50t73 -29l37 -4v-47q-112 6 -232 6t-231 -6v47l37 4q70 8 88 44t19 110v487q0 49 -5 75q-4 25 -28 49t-74 30l-37 4v47q111 -6 232 -6t231 6v-47l-37 -4q-70 -8 -88 -44t-18 -110v-192h450v192q0 49 -4 75q-4 25 -29 49t-73 30l-37 4v47q112 -6 232 -6t231 6v-47
l-37 -4q-70 -8 -88 -44t-19 -110v-178q82 10 172 10z" />
    <glyph glyph-name="afii10108" unicode="&#x45b;" horiz-adv-x="1290" 
d="M442 1118h420v-47h-420v-336q111 168 324 168q86 -1 148 -25t94 -56q70 -71 69 -242v-324q-1 -115 17 -155t69 -48l60 -10v-47q-129 6 -156 6h-164q-29 0 -145 -6v47l59 10q55 8 70 49q14 41 14 154v352q0 60 -5 75t-12 43t-17 38q-9 10 -23 28q-32 42 -131 46
q-270 0 -271 -359v-293q0 -75 16 -93q39 -43 85 -46l45 -4v-47q-123 6 -148 6h-164q-31 0 -153 -6v47l43 6q84 12 94 84q6 44 6 80v858h-205v47h205q6 96 -19 139q-26 43 -93 50l-43 4v41q245 42 331 67v-301z" />
    <glyph glyph-name="afii10109" unicode="&#x45c;" horiz-adv-x="1073" 
d="M791 1405q33 -1 50 -19t17 -36q0 -49 -26 -69t-70 -50l-279 -187h-57l295 320q37 41 70 41zM298 2q-120 0 -230 -6v47l36 4q70 8 89 44q18 36 18 110v487q0 49 -4 75q-4 25 -29 49t-74 30l-36 4v47q112 -6 232 -6t230 6v-47l-36 -4q-70 -8 -88 -44t-19 -110v-196h62
q87 0 132 59t71 124q26 64 34 79q80 162 209 161q53 -1 81 -27t28 -66t-26 -64t-64 -25q-38 0 -70 19q-33 14 -43 14q-39 0 -69 -72q-7 -16 -16 -38t-16 -33q-6 -11 -14 -27t-12 -22l-12 -20q-8 -13 -14 -19q-6 -7 -14 -17t-18 -16l-20 -12t-23 -13v-6q82 -15 142 -72
q61 -57 127 -190q21 -64 65 -113q22 -22 47 -22q45 0 70 63l39 -16q-47 -147 -193 -148q-82 0 -120 42t-82 147l-68 162q-33 78 -70 98t-98 20h-45v-241q0 -49 4 -75t29 -50t74 -29l36 -4v-47q-112 6 -232 6z" />
    <glyph glyph-name="afii10110" unicode="&#x45e;" horiz-adv-x="886" 
d="M442 1032q-141 0 -229 69t-88 154q0 45 26 69q27 24 65 24t65 -23q47 -40 10 -98q-12 -25 -12 -53q-1 -28 39 -59q40 -32 124 -32t124 32t40 71q0 16 -12 41q-16 25 -16 51t26 48t66 22q38 0 64 -24t26 -69q0 -87 -88 -155t-230 -68zM-35 846v47l213 -6l234 6v-47l-39 -4
q-35 -4 -49 -7q-39 -8 -39 -50t57 -181l162 -389l166 399q49 119 49 170t-76 58l-37 4v47l158 -6l139 6v-47q-29 2 -55 -11t-52 -68t-52 -119t-42 -101l-348 -809q-74 -174 -116 -243t-97 -68q-25 0 -42 17t-17 44q0 66 103 109q36 14 58 46t60 119l109 250l-303 709
q-31 69 -60 97t-84 28z" />
    <glyph glyph-name="afii10193" unicode="&#x45f;" horiz-adv-x="1179" 
d="M283 887q121 0 231 6v-47l-37 -4q-57 -6 -82 -36t-24 -118v-547q0 -57 14 -72t57 -16h295q45 -1 59 17t13 71v547q0 88 -25 118t-82 36l-36 4v47q112 -6 232 -6t230 6v-47l-36 -4q-70 -8 -88 -44t-19 -110v-487q0 -49 4 -75t29 -50t74 -29l36 -4v-47q-150 4 -231 4h-272
q0 -73 14 -127q14 -55 31 -106q20 -113 -13 -140q-33 -28 -67 -28q-33 0 -59 22q-54 45 2 230q22 72 22 149h-272q-82 0 -232 -4v47l37 4q70 8 88 44t19 110v487q0 49 -5 75q-4 25 -28 49t-74 30l-37 4v47q111 -6 232 -6z" />
    <glyph glyph-name="afii10050" unicode="&#x490;" horiz-adv-x="1183" 
d="M1143 1640v-329h-559q-60 0 -70 -24t-10 -58v-912q0 -185 44 -219q54 -39 154 -51l46 -4v-47q-164 6 -279 6h-143q-104 0 -258 -6v47l45 4q67 7 103 23q61 27 72 131q3 35 3 116v730q0 117 -10 159q-11 44 -29 60q-48 43 -139 51l-45 4v47q180 -6 258 -6l354 4
q209 0 289 57q35 25 66 73q32 48 46 116l6 28h56z" />
    <glyph glyph-name="afii10098" unicode="&#x491;" horiz-adv-x="782" 
d="M282 2q-120 0 -231 -6v47l37 4q70 8 88 44t19 110v487q0 49 -5 75q-4 25 -28 49t-74 30l-37 4v47l232 -4h233q88 0 128 45t73 135l10 29h45v-256h-336q-27 0 -40 -3t-19 -21t-6 -30v-587q0 -49 4 -75q5 -26 29 -50t73 -29l37 -4v-47q-112 6 -232 6z" />
    <glyph glyph-name="endash" unicode="&#x2013;" horiz-adv-x="1024" 
d="M39 586h946v-105h-946v105z" />
    <glyph glyph-name="emdash" unicode="&#x2014;" horiz-adv-x="1378" 
d="M1358 481h-1338v101h1338v-101z" />
    <glyph glyph-name="quoteleft" unicode="&#x2018;" horiz-adv-x="618" 
d="M266 1114v-4q35 27 74 27t70 -29q30 -29 30 -78t-32 -81q-32 -31 -84 -31q-51 0 -98 48q-46 48 -46 139t58 176t155 138l29 -35q-116 -83 -136 -152t-20 -118z" />
    <glyph glyph-name="quoteright" unicode="&#x2019;" horiz-adv-x="618" 
d="M354 1223v4q-36 -27 -74 -27t-69 29t-31 78t33 81t84 32t97 -49q46 -48 46 -139t-58 -176t-155 -138l-28 34q115 83 139 164q16 55 16 107z" />
    <glyph glyph-name="quotesinglbase" unicode="&#x201a;" horiz-adv-x="618" 
d="M354 2v4q-36 -26 -74 -26t-69 28t-31 78q0 49 33 81t84 32t97 -48q46 -47 46 -139t-58 -177t-155 -138l-28 35q115 83 139 164q16 55 16 106z" />
    <glyph glyph-name="quotedblleft" unicode="&#x201c;" horiz-adv-x="827" 
d="M547 1114v-4q35 27 73 27t70 -29q31 -29 31 -78t-33 -81q-33 -31 -84 -31t-97 48t-46 139t58 176q59 85 155 138l28 -35q-116 -83 -139 -163q-16 -55 -16 -107zM193 1114v-4q35 27 73 27t70 -29q31 -29 31 -78t-33 -81q-33 -31 -84 -31t-97 48q-47 48 -47 139t58 176
t155 138l29 -35q-116 -83 -139 -163q-16 -55 -16 -107z" />
    <glyph glyph-name="quotedblright" unicode="&#x201d;" horiz-adv-x="827" 
d="M635 1223v4q-35 -27 -74 -27t-69 29t-31 78q0 49 33 81q34 32 84 32t96 -49q46 -48 47 -139q-1 -91 -59 -176t-154 -138l-29 34q115 83 136 152q20 70 20 119zM281 1223v4q-35 -27 -74 -27t-70 29t-31 78t33 81t84 32t97 -49q46 -48 47 -139q-1 -91 -59 -176t-154 -138
l-29 34q115 83 136 152q20 70 20 119z" />
    <glyph glyph-name="quotedblbase" unicode="&#x201e;" horiz-adv-x="827" 
d="M635 2v4q-35 -26 -74 -26t-69 28t-31 78q0 49 33 81q34 32 84 32t96 -48q46 -47 47 -139q-1 -92 -59 -177t-154 -138l-29 35q115 83 136 152q20 70 20 118zM281 2v4q-35 -26 -74 -26t-70 28t-31 78q0 49 33 81t84 32t97 -48q46 -47 47 -139q-1 -92 -59 -177t-154 -138
l-29 35q115 83 136 152q20 70 20 118z" />
    <glyph glyph-name="dagger" unicode="&#x2020;" 
d="M997 844q1 -39 -27 -67q-53 -54 -165 3q-55 31 -90 31q-35 1 -71 -21t-54 -65l65 -70q-76 -440 -88 -1069h-45q-12 629 -88 1069l66 70q-18 43 -54 65t-72 22q-34 0 -91 -32q-108 -58 -163 -3q-28 28 -28 67t20 56q20 18 45 18q26 0 40 -18t14 -40l-6 -26q0 -25 22 -25
q15 1 35 33t28 42q23 32 66 33q44 1 88 -43t60 -45q16 0 16 25t-28 113q-28 89 -29 119q0 30 29 88q28 58 28 74q0 17 -24 41t-23 54q0 30 17 50q16 20 54 20t55 -20t17 -50t-24 -54t-23 -41q0 -16 29 -74t29 -89t-29 -119t-29 -112q0 -58 74 16t131 36q23 -14 49 -56
q25 -41 39 -41q23 0 23 25l-6 26q0 20 14 38t40 20q26 0 45 -18t19 -56z" />
    <glyph glyph-name="daggerdbl" unicode="&#x2021;" horiz-adv-x="978" 
d="M599 -53q37 0 99 34q104 57 161 11q28 -23 28 -58q1 -34 -17 -56t-47 -21q-38 1 -46 34q-9 33 -9 45t-12 13q-12 -1 -30 -23q-53 -70 -99 -69q-46 0 -66 10q10 -57 -17 -106q-28 -48 -28 -59t21 -32q20 -26 20 -48t-17 -44q-16 -22 -50 -20q-34 0 -51 22t-17 42
q0 21 20 48q20 20 20 32t-27 59q-28 48 -17 106q-20 -10 -57 -10t-58 18q-29 24 -48 48t-32 26q-12 1 -12 -19t-12 -46t-42 -27t-47 21q-18 22 -18 56t28 58q28 22 64 22t96 -34q62 -34 100 -33q38 0 71 12l-60 66l74 424h49l74 -424l-60 -66q33 -12 71 -12zM183 940
q-35 0 -63 23t-28 57t18 56t46 22q29 0 37 -16q18 -34 18 -55t10 -21q15 0 41 34t54 46t55 12t47 -11q-10 57 17 106q27 48 27 59t-20 32q-20 26 -20 48t17 44t50 21q33 0 51 -22t17 -43q0 -21 -20 -48q-21 -20 -21 -32t28 -59q28 -48 17 -106q85 43 158 -50q24 -31 36 -31
q13 0 13 20t13 46t42 26t46 -22t17 -56t-27 -58q-27 -22 -63 -22t-98 34t-99 34q-38 0 -71 -13l60 -65l-74 -424h-49l-74 424l60 65q-33 13 -71 13t-100 -34t-97 -34z" />
    <glyph glyph-name="bullet" unicode="&#x2022;" horiz-adv-x="806" 
d="M205 586q0 80 58 138t139 58q80 0 140 -58t60 -138t-59 -138t-141 -59q-82 1 -139 59q-58 58 -58 138z" />
    <glyph glyph-name="ellipsis" unicode="&#x2026;" horiz-adv-x="1761" 
d="M1417 217q45 0 82 -33t37 -85t-34 -86q-34 -33 -86 -33t-85 36t-33 82q0 45 37 82t82 37zM881 217q45 0 82 -33t37 -85t-34 -86q-34 -33 -86 -33t-85 36t-33 82q0 45 37 82t82 37zM344 217q45 0 82 -37t37 -82t-33 -82q-33 -36 -85 -36t-86 34t-34 85q0 52 37 85t82 33z
" />
    <glyph glyph-name="perthousand" unicode="&#x2030;" horiz-adv-x="2498" 
d="M2253 467q0 109 -50 168t-118 59q-125 0 -214 -167t-89 -320q0 -93 41 -149t110 -56q119 0 219 131t101 334zM2050 750q110 0 190 -75t80 -202q0 -283 -170 -444q-90 -86 -215 -86t-217 88q-92 89 -92 253t125 315t299 151zM1454 467q0 109 -50 168t-118 59
q-125 0 -214 -167t-89 -320q0 -93 41 -149t111 -56q119 0 219 131t100 334zM1522 473q0 -283 -170 -444q-90 -86 -215 -86t-217 88q-92 89 -92 253t124 315q125 151 299 151q111 0 191 -75t80 -202zM629 1139q0 109 -48 168t-114 59q-123 0 -217 -160t-94 -327
q0 -103 48 -155t115 -52q125 0 218 147q92 148 92 320zM305 612q-109 0 -207 85t-98 237q0 205 136 346t294 141q78 1 188 -71t228 -72q182 0 364 203h68l-948 -1598h-86l835 1413q-141 -74 -233 -74t-176 31q26 -80 26 -171t-50 -211q-50 -119 -141 -189t-200 -70z" />
    <glyph glyph-name="guilsinglleft" unicode="&#x2039;" horiz-adv-x="598" 
d="M467 768q16 0 16 -16q0 -39 -66 -121q-17 -21 -27 -33t-30 -35t-26 -31l-60 -71l60 -72q10 -14 33 -40t33 -38q10 -11 26 -33l24 -33t21 -30q12 -19 12 -41q0 -21 -16 -20q-8 0 -21 12q-113 117 -331 295q219 178 331 295q12 12 21 12z" />
    <glyph glyph-name="guilsinglright" unicode="&#x203a;" horiz-adv-x="598" 
d="M115 752q0 16 16 16q8 0 21 -12q113 -117 331 -295q-219 -178 -331 -295q-12 -12 -21 -12q-16 0 -16 25q1 25 37 73t65 79t47 58l60 72l-60 71q-6 8 -26 31t-30 35q-9 12 -27 33q-66 78 -66 121z" />
    <glyph glyph-name="Euro" unicode="&#x20ac;" 
d="M707 1317q-164 0 -241 -125t-97 -371h530l-31 -73h-503v-130h450l-31 -75h-417q16 -242 102 -369t240 -127q98 0 168 48t86 151h41l-11 -162q-94 -117 -325 -117q-449 0 -492 576h-137l31 75h96v130h-127l31 73h102q29 289 143 433q115 144 349 144t329 -112l11 -166h-41
q-14 98 -82 148t-174 49z" />
    <glyph glyph-name="afii61352" unicode="&#x2116;" horiz-adv-x="2166" 
d="M1993 53h-492v70h492v-70zM1896 653q0 113 -35 189q-36 76 -114 76q-150 -1 -150 -265q0 -137 42 -200t108 -64q149 0 149 264zM1450 644q0 54 15 104q65 216 282 215q139 -1 218 -93t79 -216t-78 -217t-219 -93q-106 0 -177 57t-95 123q-25 66 -25 120zM1255 1114
q0 285 250 285q82 0 125 -45q43 -46 43 -100q1 -54 -29 -78t-65 -25q-100 0 -100 125q0 51 -44 51t-77 -51t-33 -162v-1143h-57l-776 1110v-809q0 -170 -68 -238t-161 -69q-93 0 -149 52t-57 122q0 33 24 60t71 27q48 0 74 -32t24 -81v-25q4 -39 37 -47q10 -4 20 0
q115 20 115 276v859q-108 151 -217 145v47q172 -10 334 -4l716 -1026v776z" />
    <glyph glyph-name="trademark" unicode="&#x2122;" horiz-adv-x="2054" 
d="M967 586q96 0 96 128v474q0 84 -17 108t-81 29l-27 2v41l156 -2l108 2l279 -614l270 614l117 -2l145 2v-41l-31 -2q-24 0 -32 -2l-20 -5q-11 -3 -14 -8q-4 -5 -16 -22t-12 -92v-498q0 -82 28 -96t75 -14l22 -2v-41l-188 4l-213 -4v41l33 2q37 2 52 6t29 24t15 62v526
l-297 -661h-25l-303 663v-469q0 -121 47 -141q18 -8 51 -10l25 -2v-41l-152 4l-143 -4v41h23zM864 1165h-45q0 103 -47 127t-104 23h-90q-51 0 -52 -31v-553q0 -88 27 -114t86 -29l31 -2v-41l-221 4l-213 -4v41l30 2q41 2 62 10q51 20 51 133v553q0 31 -51 31h-90
q-63 1 -95 -17q-57 -30 -57 -133h-45v201h823v-201z" />
    <glyph glyph-name="hyphenminus" horiz-adv-x="464" 
d="M444 467h-424v133h424v-133z" />
    <glyph glyph-name="accent" horiz-adv-x="2" 
d="M-385 1333q31 0 50 -17t20 -42q0 -53 -91 -103l-247 -133h-56l234 236q59 59 90 59z" />
    <glyph glyph-name="Accent" horiz-adv-x="2" 
d="M-522 1878q25 0 42 -23t17 -52t-18 -51q-19 -24 -101 -60l-315 -166h-74l361 315q31 27 47 32t41 5z" />
    </font>
</defs>
</svg>
