<?xml version="1.0" standalone="no"?>
<!DOCTYPE svg PUBLIC "-//W3C//DTD SVG 1.1//EN" "http://www.w3.org/Graphics/SVG/1.1/DTD/svg11.dtd" >
<svg xmlns="http://www.w3.org/2000/svg">
<metadata>
Created by FontPrep 20130207 at Sun Apr  2 14:13:26 2017
 By Eugene Lee
Copyright (c) 2010-2012 by Claus Eggers Srensen (es@forthehearts.net), with Reserved Font Name 'Playfair'.
</metadata>
<defs>
<font id="04b27ca05cc09e86c39c371295e381ad" horiz-adv-x='1024' >
  <font-face 
    font-family="PlayfairDisplay-Regular"
    font-weight="400"
    font-stretch="normal"
    units-per-em="2048"
    panose-1="0 0 5 0 0 0 0 0 0 0"
    ascent="1638"
    descent="-410"
    x-height="1055"
    cap-height="1450"
    bbox="-547 -494 2480 2047"
    underline-thickness="41"
    underline-position="-165"
    unicode-range="U+000D-FB02"
  />
<missing-glyph horiz-adv-x="1151" 
d="M197 1520v-1459h757v1459h-757zM1028 0h-905v1581h905v-1581z" />
    <glyph glyph-name="fi" unicode="fi" horiz-adv-x="1268" 
d="M829 1425q0 78 68 115q-47 31 -149 31q-204 0 -291 -158q-56 -101 -56 -360h330q232 0 340 24v-887q0 -84 35 -116t121 -31v-43q-188 8 -248 8t-248 -8v43q86 -1 121 31t35 116v641q-1 95 -35 138t-121 43h-330v-822q0 -83 44 -115t133 -32v-43q-224 8 -274 8t-243 -8v43
q86 -1 121 31t35 116v822h-164v41h164q0 277 148 415q139 134 383 134q175 0 274 -62q70 -44 70 -106t-39 -101t-93 -39t-92 39q-39 39 -39 92z" />
    <glyph glyph-name="fl" unicode="fl" horiz-adv-x="1272" 
d="M1071 190q0 -84 35 -116t121 -31v-43q-188 8 -248 8t-248 -8v43q86 -1 121 31t35 116v1141q0 178 -147 223q-55 17 -105 17q-102 0 -162 -64q-43 -43 -57 -107t-15 -155v-192h261v-41h-261v-822q0 -83 44 -115t133 -32v-43q-224 8 -274 8t-243 -8v43q86 -1 121 31t35 116
v822h-164v41h164q0 173 25 279t106 175q109 95 277 95q40 0 124 -12q85 -12 163 -13q78 0 159 29v-1416z" />
    <glyph glyph-name="uni00660062.liga" unicode="fb" horiz-adv-x="1835" 
d="M1266 18q274 0 274 502t-250 502q-86 0 -158 -67t-102 -188v-647q99 -102 236 -102zM846 100v1231q0 110 -55 170q-70 70 -166 70t-147 -51q-51 -52 -64 -118t-13 -157v-192h261v-41h-261v-822q0 -83 44 -115t133 -32v-43q-224 8 -274 8t-243 -8v43q86 -1 121 31t35 116
v822h-164v41h164q0 175 25 279t106 175q107 95 260 95q36 0 115 -10t161 -11q82 0 146 25v-742q46 104 130 162t190 57q174 1 282 -143t107 -415q0 -271 -133 -412q-133 -142 -310 -142q-176 0 -284 120l-146 -124l-35 15q15 49 15 118z" />
    <glyph glyph-name="f_f" unicode="ff" horiz-adv-x="1337" 
d="M401 1053h473q0 168 20 264q-28 74 -96 120t-178 46q-110 1 -164 -77q-55 -78 -55 -249v-104zM907 1369q78 233 330 233q91 0 159 -54t68 -129q0 -47 -30 -77t-78 -31q-48 0 -80 30t-33 76q0 91 86 109q-6 19 -33 32t-68 13q-146 -1 -163 -199q-7 -82 -7 -266v-53h220
v-41h-220v-801q0 -95 54 -131t163 -37v-43q-253 8 -309 8t-248 -8v43q86 -1 121 31t35 116v822h-473v-822q0 -84 35 -116t121 -31v-43q-188 8 -246 8t-250 -8v43q86 -1 121 31t35 116v822h-164v41h164q0 226 92 333q51 62 133 98t178 36t172 -39t115 -112z" />
    <glyph glyph-name="uni006600660062.liga" unicode="ffb" horiz-adv-x="2492" 
d="M1923 18q275 0 275 502t-250 502q-85 0 -157 -66t-103 -186v-651q99 -101 235 -101zM666 1483q-265 0 -265 -326v-104h473q0 216 38 318q-95 112 -246 112zM1503 100v1231q-1 175 -139 223q-50 18 -94 17q-84 0 -142 -58q-58 -59 -66 -169q-3 -40 -3 -99v-192h260v-41
h-260v-822q-1 -83 43 -115t133 -32v-43q-220 8 -274 8t-242 -8v43q87 -1 121 31t34 116v822h-473v-822q0 -84 35 -116t121 -31v-43q-188 8 -246 8t-250 -8v43q86 -1 121 31t35 116v822h-164v41h164q0 217 100 333q121 134 315 134t297 -112q29 57 77 99q105 95 260 95
q36 0 115 -10t161 -11q82 0 146 25v-741q46 104 130 161t189 57q173 1 281 -143t108 -415t-133 -412q-133 -142 -309 -142t-284 120l-146 -124l-35 15q14 50 14 118z" />
    <glyph glyph-name="uni006600660068.liga" unicode="ffh" horiz-adv-x="2511" 
d="M666 1483q-265 0 -265 -326v-104h473q0 216 38 318q-95 112 -246 112zM2324 737v-547q0 -84 35 -116t121 -31v-43q-188 8 -246 8t-229 -8v43q75 -1 105 31t30 116v592q0 140 -42 188t-124 48q-126 0 -206 -104t-80 -267v-457q0 -84 30 -116t105 -31v-43q-171 8 -229 8
t-246 -8v43q86 -1 120 31t35 116v1141q-1 175 -139 223q-50 18 -94 17q-84 0 -142 -58q-58 -59 -66 -169q-3 -40 -3 -99v-192h260v-41h-260v-822q-1 -83 43 -115t133 -32v-43q-220 8 -274 8t-242 -8v43q87 -1 121 31t34 116v822h-473v-822q0 -84 35 -116t121 -31v-43
q-188 8 -246 8t-250 -8v43q86 -1 121 31t35 116v822h-164v41h164q0 217 100 333q121 134 315 134t297 -112q29 57 77 99q105 95 260 95q36 0 115 -10t161 -11q82 0 146 23v-766q95 245 348 245q143 0 217 -77q39 -42 55 -104t16 -165z" />
    <glyph glyph-name="f_f_i" unicode="ffi" horiz-adv-x="1925" 
d="M401 1053h473q0 176 58 293q-44 62 -114 100t-152 37q-265 0 -265 -326v-104zM1487 1425q0 78 67 115q-46 31 -149 31q-204 0 -291 -158q-55 -97 -55 -360h330q231 0 340 24v-887q1 -84 35 -116t120 -31v-43q-188 8 -248 8t-247 -8v43q87 -1 121 31t34 116v641
q0 95 -34 138t-121 43h-330v-822q-1 -83 43 -115t133 -32v-43q-220 8 -274 8t-242 -8v43q87 -1 121 31t34 116v822h-473v-822q0 -84 35 -116t121 -31v-43q-188 8 -246 8t-250 -8v43q86 -1 121 31t35 116v822h-164v41h164q0 217 100 333q121 134 325 134t309 -139
q137 221 454 221q175 0 274 -62q70 -44 70 -106q-1 -62 -39 -101t-92 -39t-92 39t-39 92z" />
    <glyph glyph-name="uni00660066006A.liga" unicode="ffj" horiz-adv-x="1884" 
d="M401 1053h473q0 176 58 293q-44 62 -114 100t-152 37q-265 0 -265 -326v-104zM1487 1425q0 78 67 115q-46 31 -149 31q-204 0 -291 -158q-55 -97 -55 -360h330q231 0 340 24v-841q0 -358 -104 -489q-104 -132 -253 -132q-51 -1 -94 25t-43 76t26 77q27 27 69 27t68 -26
t25 -70q0 -44 -32 -78q56 6 90 30q31 24 47 66t16 125v964q0 95 -34 138t-121 43h-330v-801q0 -95 54 -131t163 -37v-43q-256 8 -312 8t-245 -8v43q87 -1 121 31t34 116v822h-473v-822q0 -84 35 -116t121 -31v-43q-188 8 -246 8t-250 -8v43q86 -1 121 31t35 116v822h-164v41
h164q0 217 100 333q121 134 325 134t309 -139q137 221 454 221q175 0 274 -62q70 -44 70 -106q-1 -62 -39 -101t-92 -39t-92 39t-39 92z" />
    <glyph glyph-name="uni00660066006B.liga" unicode="ffk" horiz-adv-x="2433" 
d="M666 1483q-265 0 -265 -326v-104h473q0 216 38 318q-95 112 -246 112zM2025 43q64 0 64 39q0 14 -12 31l-236 344q-36 52 -67 70t-86 20v-357q0 -84 30 -116t105 -31v-43q-171 8 -229 8t-246 -8v43q86 -1 120 31t35 116v1141q-1 175 -139 223q-50 18 -94 17
q-84 0 -142 -58q-58 -59 -66 -169q-3 -40 -3 -99v-192h260v-41h-260v-822q-1 -83 43 -115t133 -32v-43q-220 8 -274 8t-242 -8v43q87 -1 121 31t34 116v822h-473v-822q0 -84 35 -116t121 -31v-43q-188 8 -246 8t-250 -8v43q86 -1 121 31t35 116v822h-164v41h164
q0 217 100 333q121 134 315 134t297 -112q29 57 77 99q105 95 260 95q36 0 115 -10t161 -11q82 0 146 23v-1015q107 14 176 85l151 157q65 68 65 113q0 70 -151 70v41q144 -8 236 -8t174 8v-41q-99 -9 -185 -96l-248 -262l369 -506q38 -52 69 -76t75 -31v-43q-124 8 -173 8
t-221 -8v43z" />
    <glyph glyph-name="f_f_l" unicode="ffl" horiz-adv-x="1929" 
d="M666 1483q-265 0 -265 -326v-104h473q0 215 38 318q-95 112 -246 112zM1729 190q1 -84 35 -116t120 -31v-43q-188 8 -248 8t-247 -8v43q87 -1 121 31t34 116v1141q0 178 -146 223q-55 17 -106 17q-102 0 -162 -64q-43 -43 -57 -107t-14 -155v-192h260v-41h-260v-822
q-1 -83 43 -115t133 -32v-43q-220 8 -274 8t-242 -8v43q87 -1 121 31t34 116v822h-473v-822q0 -84 35 -116t121 -31v-43q-188 8 -246 8t-250 -8v43q86 -1 121 31t35 116v822h-164v41h164q0 217 100 333q121 134 315 134t297 -112q29 57 77 99q108 95 276 95q41 0 125 -12
q83 -12 161 -13q78 0 161 29v-1416z" />
    <glyph glyph-name="uni00660068.liga" unicode="fh" horiz-adv-x="1853" 
d="M1667 737v-547q0 -84 35 -116t121 -31v-43q-187 8 -245 8t-230 -8v43q75 -1 105 31t30 116v592q-1 177 -79 218q-34 18 -87 18q-127 0 -207 -104t-80 -267v-457q0 -84 30 -116t105 -31v-43q-171 8 -229 8t-246 -8v43q86 -1 121 31t35 116v1141q0 110 -55 170
q-70 70 -166 70t-147 -51q-51 -52 -64 -118t-13 -157v-192h261v-41h-261v-822q0 -83 44 -115t133 -32v-43q-224 8 -274 8t-243 -8v43q86 -1 121 31t35 116v822h-164v41h164q0 175 25 279t106 175q107 95 260 95q36 0 115 -10t161 -11q82 0 146 23v-766q96 245 348 245
q224 0 272 -180q16 -61 17 -166z" />
    <glyph glyph-name="uni006600EF.liga" unicode="f&#xef;" horiz-adv-x="1268" 
d="M1165 1522q47 0 83 -36t36 -84t-36 -83t-84 -35t-82 35t-35 83q0 48 35 84t83 36zM730 1284q-48 0 -83 35t-35 83t35 84t83 36q-52 45 -135 45q-162 0 -183 -156q-11 -68 -11 -358h330q232 0 340 24v-887q0 -84 35 -116t121 -31v-43q-188 8 -248 8t-248 -8v43
q86 -1 121 31t35 116v641q-1 95 -35 138t-121 43h-330v-822q0 -83 44 -115t133 -32v-43q-224 8 -274 8t-243 -8v43q86 -1 121 31t35 116v822h-164v41h164q-1 181 23 279q65 270 344 270q112 0 187 -52t79 -142v-7q-1 -49 -36 -83q-36 -34 -84 -34z" />
    <glyph glyph-name="uni006600EC.liga" unicode="f&#xec;" horiz-adv-x="1268" 
d="M1071 190q0 -84 35 -116t121 -31v-43q-188 8 -248 8t-248 -8v43q86 -1 121 31t35 116v641q-1 95 -35 138t-121 43h-330v-822q0 -83 44 -115t133 -32v-43q-224 8 -274 8t-243 -8v43q86 -1 121 31t35 116v822h-164v41h164q-1 173 21 279t90 175q91 95 237 95q68 0 123 -28
q-7 16 -7 42q-1 26 23 45t58 19t67 -42q32 -42 96 -166t130 -227l-23 -18q-88 93 -168 163q-80 71 -116 104q-85 77 -177 77q-92 -1 -131 -77t-39 -249v-192h330q232 0 340 24v-887z" />
    <glyph glyph-name="uni0066006A.liga" unicode="fj" horiz-adv-x="1227" 
d="M829 1425q0 78 68 115q-47 31 -149 31q-204 0 -291 -158q-56 -101 -56 -360h330q232 0 340 24v-841q0 -359 -103 -490t-253 -131q-51 1 -94 25t-43 75t26 78t68 27t68 -26t26 -70t-33 -78q103 12 135 90q19 48 19 131v964q-1 95 -35 138t-121 43h-330v-801q0 -95 54 -131
t163 -37v-43q-252 8 -308 8t-249 -8v43q86 -1 121 31t35 116v822h-164v41h164q0 277 148 415q139 134 383 134q175 0 274 -62q70 -44 70 -106t-39 -101t-93 -39t-92 39q-39 39 -39 92z" />
    <glyph glyph-name="uni0066006B.liga" unicode="fk" horiz-adv-x="1776" 
d="M1590 8q-50 0 -222 -8v43q29 0 46 11q17 10 17 26t-12 33l-235 344q-36 52 -68 70t-86 20v-357q0 -84 30 -116t105 -31v-43q-171 8 -229 8t-246 -8v43q86 -1 121 31t35 116v1141q0 110 -55 170q-70 70 -166 70t-147 -51q-51 -52 -64 -118t-13 -157v-192h261v-41h-261
v-822q0 -83 44 -115t133 -32v-43q-224 8 -274 8t-243 -8v43q86 -1 121 31t35 116v822h-164v41h164q0 175 25 279t106 175q107 95 260 95q36 0 115 -10t161 -11q82 0 146 23v-1015q107 14 176 85l152 157q65 68 65 113q0 70 -151 70v41q142 -8 234 -8t175 8v-41
q-100 -9 -184 -96l-249 -262l370 -506q38 -52 69 -76t74 -31v-43q-121 8 -171 8z" />
    <glyph glyph-name=".notdef" horiz-adv-x="1151" 
d="M197 1520v-1459h757v1459h-757zM1028 0h-905v1581h905v-1581z" />
    <glyph glyph-name=".null" horiz-adv-x="0" 
 />
    <glyph glyph-name="nonmarkingreturn" horiz-adv-x="682" 
 />
    <glyph glyph-name="CR" unicode="&#xd;" horiz-adv-x="0" 
 />
    <glyph glyph-name="space" unicode=" " horiz-adv-x="510" 
 />
    <glyph glyph-name="exclam" unicode="!" horiz-adv-x="537" 
d="M268 233q54 -1 92 -39t39 -92q-1 -54 -39 -92q-38 -39 -92 -39t-92 39q-38 38 -39 92q1 54 39 92t92 39zM174 1476q0 126 94 126t94 -126q0 -69 -38 -450t-37 -625h-37q0 244 -38 625q-38 380 -38 450z" />
    <glyph glyph-name="quotedbl" unicode="&#x22;" horiz-adv-x="610" 
d="M491 1392q0 -52 -7 -107q-7 -56 -24 -151t-28 -176h-29q-11 75 -35 213t-24 205q0 115 74 119q32 1 52 -25t21 -78zM268 1392q0 -52 -7 -107q-7 -56 -24 -151t-28 -176h-29q-11 75 -35 213t-24 205q0 115 74 119q33 1 53 -25t20 -78z" />
    <glyph glyph-name="numbersign" unicode="#" horiz-adv-x="1305" 
d="M857 889h-342l-66 -342h342zM898 889l-66 -342h301l-9 -41h-300l-58 -299h-41l58 299h-342l-58 -299h-41l58 299h-302l8 41h302l66 342h-300l6 41h302l59 303h41l-59 -303h342l59 303h41l-59 -303h300l-6 -41h-302z" />
    <glyph glyph-name="dollar" unicode="$" horiz-adv-x="1071" 
d="M805 276q0 90 -40 154t-118 123v-522q72 27 115 91t43 154zM542 12q34 0 64 7v563q-38 27 -131 83v-648q33 -5 67 -5zM274 1194q0 -82 40 -142t120 -115v483q-72 -24 -116 -84t-44 -142zM533 1434q-37 0 -58 -4v-521q21 -13 65 -40t66 -41v596q-36 10 -73 10zM825 1368
q34 0 45 90h48q-11 -113 -11 -418h-47q-10 126 -62 228t-151 143v-608q216 -137 278 -232q62 -96 62 -211q0 -162 -94 -260t-246 -122v-248h-41v243q-34 -2 -58 -2t-73 4v-245h-41v251q-82 17 -144 56t-87 39q-34 0 -45 -90h-47q8 112 8 491h47q26 -385 268 -452v665
q-140 87 -204 157q-63 69 -86 132t-23 139q-1 152 87 242t226 108v252h41v-248l31 1q58 0 100 -9v256h41v-266q49 -16 101 -51t77 -35z" />
    <glyph glyph-name="percent" unicode="%" horiz-adv-x="1520" 
d="M1135 612q-158 0 -158 -305q-1 -147 43 -223t123 -76q155 0 155 303q0 149 -42 225t-121 76zM1142 649q136 0 218 -89q84 -90 84 -244t-86 -250t-222 -95q-136 0 -219 89q-83 90 -83 244t86 250t222 95zM373 1522q-158 0 -158 -305q0 -147 44 -223t122 -76q156 0 156 303
q0 149 -43 225t-121 76zM380 1559q136 0 218 -89q84 -89 84 -244t-86 -250t-222 -95t-218 89q-84 89 -84 243t86 250t222 96zM1390 1661l-1198 -1774l-39 27l1198 1774z" />
    <glyph glyph-name="ampersand" unicode="&#x26;" horiz-adv-x="1714" 
d="M489 918q-206 90 -206 278q-1 92 91 167t242 75t226 -62t76 -141q0 -49 -35 -79t-79 -30t-76 28t-32 74t30 77q30 32 79 36q-9 27 -52 47t-104 19q-107 0 -172 -64q-65 -65 -65 -191t104 -222q70 12 140 12t69 -47q-1 -39 -51 -39t-156 45q-266 -79 -266 -336
q0 -137 74 -239q147 -204 475 -203q145 0 267 44t196 131t75 214q0 127 -98 217q-44 40 -108 66q-173 -55 -247 -83q-168 -64 -169 -173q1 -74 61 -119t111 -45t93 12t46 33q-40 7 -68 32q-28 24 -28 72t32 78t80 29t79 -31q30 -30 30 -82t-39 -94q-75 -80 -205 -80
q-93 0 -174 58q-80 58 -80 172q1 114 71 187t212 122q2 1 206 61t297 102q173 80 173 195q0 87 -70 147t-168 60q-52 0 -61 -18q57 -30 57 -83q0 -54 -34 -83t-80 -29q-46 1 -77 27q-32 26 -32 76t37 82q65 58 191 59q127 0 211 -75q84 -76 85 -188q0 -204 -194 -301
q-75 -36 -304 -107q115 -48 169 -139t55 -197q0 -106 -43 -192q-42 -88 -120 -157t-198 -111t-259 -41q-138 0 -258 36q-120 37 -211 101t-145 161t-54 197t30 172q51 122 171 200q86 56 177 80z" />
    <glyph glyph-name="quotesingle" unicode="'" horiz-adv-x="387" 
d="M268 1392q0 -52 -7 -107q-7 -56 -24 -151t-28 -176h-29q-11 75 -35 213t-24 205q0 115 74 119q33 1 53 -25t20 -78z" />
    <glyph glyph-name="parenleft" unicode="(" horiz-adv-x="602" 
d="M262 639q0 -319 70 -555t237 -430l-28 -27q-451 410 -451 1012t451 1012l28 -27q-167 -194 -237 -430t-70 -555z" />
    <glyph glyph-name="parenright" unicode=")" horiz-adv-x="602" 
d="M512 639q0 -602 -451 -1012l-28 27q167 194 237 430t70 555t-70 555t-237 430l28 27q451 -410 451 -1012z" />
    <glyph glyph-name="asterisk" unicode="*" horiz-adv-x="1008" 
d="M887 879q0 -19 -14 -43t-50 -24q-37 0 -69 18q-52 30 -108 86l-64 64q-42 42 -72 71q11 -44 41 -151t30 -163q0 -55 -23 -81q-22 -26 -54 -27q-32 0 -53 26q-21 27 -21 73t8 84t30 118q22 79 32 121q-35 -33 -112 -111t-120 -103q-44 -26 -82 -26t-57 35q-9 16 -9 31
q0 47 58 81t161 61q104 27 153 41q-45 13 -150 41t-163 60q-58 33 -58 82q0 18 10 35q17 32 53 32t72 -20t66 -48q30 -26 88 -84q56 -58 88 -89q-10 43 -40 152t-30 164q0 54 22 81t54 27t52 -27q22 -26 22 -68t-6 -78t-14 -64q-8 -30 -24 -87t-26 -98q35 33 114 113
t121 103q41 24 79 24t57 -35q9 -16 9 -31q0 -73 -138 -118q-40 -13 -113 -32q-74 -19 -122 -33q45 -13 151 -41t163 -60q58 -33 58 -82z" />
    <glyph glyph-name="plus" unicode="+" horiz-adv-x="1202" 
d="M639 758h475v-62h-475v-481h-74v481h-477v62h477v483h74v-483z" />
    <glyph glyph-name="comma" unicode="," horiz-adv-x="535" 
d="M270 233q68 1 106 -59t38 -152t-52 -174t-159 -131l-19 37q64 26 110 84t46 117q0 25 -6 43q-36 -27 -84 -27q-48 -1 -86 35t-37 94q0 58 38 96t105 37z" />
    <glyph glyph-name="hyphen" unicode="-" horiz-adv-x="1022" 
d="M881 492h-740v118h740v-118z" />
    <glyph glyph-name="period" unicode="." horiz-adv-x="516" 
d="M258 233q54 -1 92 -39t39 -92q-1 -54 -39 -92q-38 -39 -92 -39t-92 39q-38 38 -39 92q1 54 39 92t92 39z" />
    <glyph glyph-name="slash" unicode="/" horiz-adv-x="762" 
d="M137 -29h-67l557 1508h67z" />
    <glyph glyph-name="zero" unicode="0" horiz-adv-x="1229" 
d="M606 1047q-135 1 -218 -141t-83 -388q1 -382 195 -482q56 -28 121 -28q133 0 217 142t84 389q0 379 -194 479q-56 28 -122 29zM625 1083q219 0 357 -148q138 -147 138 -393t-144 -408t-368 -163q-222 1 -362 149t-140 392q0 162 64 292t182 204q119 75 273 75z" />
    <glyph glyph-name="one" unicode="1" horiz-adv-x="758" 
d="M518 211q0 -96 44 -132t153 -36v-43q-224 8 -285 8t-313 -8v43q109 1 163 37t54 131v496q0 75 -10 117t-40 66t-72 31q-41 7 -116 7v45q150 3 248 27t174 77v-866z" />
    <glyph glyph-name="two" unicode="2" horiz-adv-x="981" 
d="M496 1083q148 1 229 -67q82 -68 82 -204t-139 -283q-63 -67 -194 -185t-181 -186h416q81 0 105 21t32 83h35q0 -188 8 -272q-46 10 -305 10h-480v35q34 37 114 111q160 148 258 274q132 170 132 360q0 221 -205 221q-167 0 -274 -192l-33 18q54 112 153 184t247 72z" />
    <glyph glyph-name="three" unicode="3" horiz-adv-x="924" 
d="M575 814q-1 180 -179 179q-178 0 -271 -182l-35 16q118 256 375 256q131 0 213 -63t82 -173t-89 -200t-216 -135q151 -4 265 -80t114 -231q0 -91 -45 -173q-83 -150 -286 -243q-203 -94 -427 -94v37q218 4 386 124q80 58 128 148t49 206q0 114 -59 194t-158 87
q-77 -30 -96 -30q-33 0 -33 26q0 19 15 29t38 10l72 -8q157 120 157 300z" />
    <glyph glyph-name="four" unicode="4" horiz-adv-x="1012" 
d="M569 248v584l-413 -584h413zM733 -289h-164v400h-534v43l665 929h33v-835h25q80 0 104 21t33 83h35q0 -172 8 -252q-31 8 -205 10v-399z" />
    <glyph glyph-name="five" unicode="5" horiz-adv-x="850" 
d="M406 535q178 0 270 -87t92 -229q0 -270 -300 -429q-175 -93 -376 -93v37q190 2 330 116q151 123 151 358q0 121 -67 193t-191 72q-80 0 -168 -35l-20 13l39 610q41 -8 110 -8h232q81 0 105 21t32 83h39q0 -208 8 -299q-44 10 -284 10h-218l-24 -395q120 62 240 62z" />
    <glyph glyph-name="six" unicode="6" horiz-adv-x="1059" 
d="M782 432q0 212 -61 309t-160 97q-73 0 -143 -42t-104 -135q-3 -49 -3 -154t21 -217t57 -169q68 -109 165 -109q96 0 162 104t66 316zM607 897q152 0 263 -117t111 -335q1 -217 -129 -345t-324 -129q-194 0 -304 153t-111 429q0 359 186 607q149 200 383 286q64 24 125 35
l8 -41q-71 -23 -127 -50t-122 -82q-212 -175 -248 -579q48 87 130 127t159 41z" />
    <glyph glyph-name="seven" unicode="7" horiz-adv-x="831" 
d="M372 -303q-91 -1 -91 139q-1 74 21 176t52 185t80 185q52 102 90 168t102 172q64 104 95 159h-485q-81 -1 -105 -21t-33 -84h-35q0 202 -8 287q46 -10 305 -10h455v-43q-28 -66 -81 -168q-124 -239 -182 -385q-92 -232 -91 -494l8 -162q-1 -46 -27 -75t-70 -29z" />
    <glyph glyph-name="eight" unicode="8" horiz-adv-x="1065" 
d="M542 8q96 0 170 72t74 204q0 133 -93 238q-93 106 -216 198q-2 2 -5 4l-6 4q-179 -131 -179 -382q-1 -200 101 -288q56 -50 154 -50zM532 1442q-88 0 -144 -60q-54 -60 -54 -140q0 -143 75 -229q75 -87 187 -170q127 121 127 328q1 123 -51 197t-140 74zM887 1198
q0 -203 -260 -378q141 -103 195 -157q139 -139 139 -307t-125 -276t-306 -109q-181 0 -302 87q-122 87 -122 243q0 288 329 451q-118 96 -170 161q-91 115 -91 251t107 226t260 89q153 0 249 -74t97 -207z" />
    <glyph glyph-name="nine" unicode="9" horiz-adv-x="1042" 
d="M496 217q69 1 137 39t104 122q8 80 8 192t-21 215t-57 157q-68 100 -164 100q-97 0 -163 -104t-66 -316t62 -308t160 -97zM944 543q0 -329 -186 -555q-150 -182 -382 -260q-64 -22 -126 -31l-8 41q229 66 341 205t146 364q-49 -77 -128 -113t-154 -36q-151 0 -261 118
t-110 336q0 219 131 345t323 126q192 1 303 -141t111 -399z" />
    <glyph glyph-name="colon" unicode=":" horiz-adv-x="545" 
d="M272 233q54 -1 92 -39t39 -92q-1 -54 -39 -92q-38 -39 -92 -39t-92 39q-38 38 -39 92q1 54 39 92t92 39zM272 1081q54 -1 92 -39t39 -92q-1 -54 -39 -92q-38 -39 -92 -39t-92 39q-38 38 -39 92q1 54 39 92t92 39z" />
    <glyph glyph-name="semicolon" unicode=";" horiz-adv-x="584" 
d="M293 233q67 1 105 -59t39 -152q-1 -92 -53 -174t-158 -131l-19 37q64 26 110 84t46 117q0 25 -6 43q-35 -27 -83 -27q-48 -1 -86 35t-38 94t38 96t105 37zM295 1081q55 -1 93 -39t38 -92t-38 -92q-38 -39 -93 -39t-93 39q-38 38 -38 92t38 92t93 39z" />
    <glyph glyph-name="less" unicode="&#x3c;" horiz-adv-x="1245" 
d="M1094 1118l-838 -391l838 -391l-35 -74l-998 465l998 465z" />
    <glyph glyph-name="equal" unicode="=" horiz-adv-x="1325" 
d="M1176 553h-1026v61h1026v-61zM1176 840h-1026v61h1026v-61z" />
    <glyph glyph-name="greater" unicode="&#x3e;" horiz-adv-x="1245" 
d="M1184 727l-998 -465l-35 74l838 391l-838 391l35 74z" />
    <glyph glyph-name="question" unicode="?" horiz-adv-x="940" 
d="M391 233q55 -1 93 -39t38 -92t-38 -92q-38 -39 -93 -39t-93 39q-38 38 -38 92t38 92t93 39zM201 1487q86 -18 86 -109q-1 -46 -33 -76t-80 -30t-78 30t-30 78q0 82 102 152t284 70t300 -100t118 -268q0 -169 -123 -285t-337 -171v-299h-41v318q195 71 257 170t62 227
q0 186 -76 276t-214 91q-138 0 -197 -74z" />
    <glyph glyph-name="at" unicode="@" horiz-adv-x="1798" 
d="M772 115q80 0 160 119t130 322l51 249q-7 127 -126 127q-85 0 -161 -95t-118 -237t-42 -287q0 -198 106 -198zM100 293q0 204 78 400q78 197 210 345t316 239q185 91 386 91q346 0 516 -192q122 -138 123 -371q-1 -133 -37 -255q-66 -220 -229 -358q-163 -139 -319 -139
q-157 0 -157 133q-1 48 15 100q16 53 16 54v2q-58 -149 -134 -219t-184 -70q-108 -1 -158 67t-50 200t72 292q72 159 187 263t234 104t142 -109l16 80q117 0 184 29l-172 -752q-13 -43 -13 -71q0 -52 60 -52q83 0 196 81t201 242q89 162 89 380q0 138 -48 241
q-48 104 -130 164q-165 119 -418 119q-185 -1 -360 -85q-174 -84 -304 -224t-208 -330q-78 -191 -79 -370q0 -334 171 -475q171 -140 425 -140q255 0 441 111l14 -27q-171 -121 -438 -121q-364 0 -534 216q-120 152 -120 407z" />
    <glyph glyph-name="A" unicode="A" horiz-adv-x="1290" 
d="M801 590l-229 611l-235 -611h464zM1063.5 6q-155.5 0 -242.5 -6v41q78 3 111.5 19t33.5 54t-24 99l-126 336h-494l-84 -217q-41 -104 -41 -168.5t43.5 -92.5t134.5 -30v-41q-117 6 -222.5 6t-166.5 -6v41q102 23 161 178l482 1241h33l499 -1288q50 -127 142 -131v-41
q-84 6 -239.5 6z" />
    <glyph glyph-name="B" unicode="B" horiz-adv-x="1276" 
d="M979 406q0 329 -365 329h-172v-518q0 -107 29 -139t125 -31q383 0 383 359zM594 1409q-92 -1 -122 -35t-30 -141v-463h138q173 0 237 95t64 244t-68 225t-219 75zM1077 1140q0 -274 -311 -370v-4q324 -44 398 -246q20 -56 20 -123q0 -177 -132 -287t-360 -110l-352 6
q-168 0 -254 -6v41q74 3 106 16t46 48t14 112v1016q0 77 -14 112t-46 48t-106 16v41q85 -6 250 -6l309 4q209 0 321 -88t111 -220z" />
    <glyph glyph-name="C" unicode="C" horiz-adv-x="1409" 
d="M1179 121q-16 0 -42 -17q-93 -65 -176.5 -99t-202.5 -34q-296 0 -472.5 197.5t-176.5 544.5q0 226 83 400.5t231 270t337 95.5q205 -1 347 -111q52 -40 70 -40q42 0 52 122h47q-8 -133 -8 -471h-47q-22 134 -41 191.5t-62 111.5q-124 160 -362 160q-201 0 -322 -195
t-121 -527.5t129.5 -520t333.5 -187.5q102 0 199 39t151 117q42 56 60 121.5t35 202.5h47q0 -353 8 -492h-47q-9 121 -50 121z" />
    <glyph glyph-name="D" unicode="D" horiz-adv-x="1481" 
d="M594 1413q-93 0 -122.5 -34.5t-29.5 -141.5v-1024q0 -108 29.5 -142t132.5 -34t189 20q87 19 149 61q125 83 173 234.5t48 354t-29.5 327t-95.5 210.5q-130 168 -444 169zM645 1450q362 0 542.5 -181t180.5 -524t-196 -544t-545 -201l-287 6q-168 0 -254 -6v41
q74 3 106.5 16t46 48t13.5 112v1016q0 77 -13.5 112t-46 48t-106.5 16v41q110 -7 200 -7l50 1q282 6 309 6z" />
    <glyph glyph-name="E" unicode="E" horiz-adv-x="1247" 
d="M442 709v-492q0 -110 30 -140t136 -30h150q97 0 156.5 17.5t96.5 63.5t54 109.5t29 172.5h47q-6 -55 -6 -159.5t14 -250.5q-139 6 -500.5 6t-562.5 -6v41q74 3 106.5 16t46 48t13.5 112v1016q0 77 -13.5 112t-46 48t-106.5 16v41q201 -6 548 -6t474 6q-14 -134 -14 -228
t6 -141h-47q-21 196 -64.5 249.5t-99.5 63t-111 9.5h-170q-106 0 -136 -30t-30 -140v-483h136q76 0 114.5 38.5t48.5 77t13.5 57.5t7.5 52t6 45h47q-7 -102 -7 -193l1 -98q0 -104 12 -291h-47q-14 115 -23 146q-35 125 -173 125h-136z" />
    <glyph glyph-name="F" unicode="F" horiz-adv-x="1165" 
d="M442 688v-471q0 -58 8 -90q8 -31 32 -51q26 -20 62 -26t105 -9v-41q-107 6 -292 6t-271 -6v41q74 3 106 16t46 48t14 112v1016q0 77 -14 112t-46 48t-106 16v41q201 -6 548 -6t474 6q-14 -146 -14 -256t6 -174h-47q-19 185 -37 229q-19 44 -36 69q-58 85 -243 85h-129
q-106 0 -136 -30t-30 -140v-504h150q76 0 114 38t49 77q9 39 13 58t8 52t6 45h47q-7 -100 -7 -193l1 -97q0 -108 13 -291h-48q-14 115 -23 147q-36 123 -173 123h-150z" />
    <glyph glyph-name="G" unicode="G" horiz-adv-x="1440" 
d="M1180 1325q39 0 51 125h47q-8 -133 -8 -471h-47q-23 141 -48 203q-59 148 -210 217q-95 43 -199 43q-205 0 -328 -195t-123 -543.5t118.5 -520t369.5 -171.5q123 0 213 64q37 25 48 48t11 64v197q0 123 -38 157.5t-169 39.5v41q101 -7 267 -7t235 7v-41q-48 -4 -68 -16.5
t-28 -46.5t-8 -113v-406h-41q-2 42 -17 79.5t-37.5 37.5t-68.5 -35q-147 -111 -320 -111q-317 0 -494 193t-177 536q0 176 49.5 323t137 246.5t209 154.5t256 55t215.5 -38t134 -77t68 -39z" />
    <glyph glyph-name="H" unicode="H" horiz-adv-x="1550" 
d="M1298 1233v-1016q0 -77 13.5 -112t46 -48t106.5 -16v-41q-86 6 -256 6t-266 -6v41q74 3 106.5 16t46 48t13.5 112v492h-666v-492q0 -77 13.5 -112t46 -48t106.5 -16v-41q-94 6 -265 6t-257 -6v41q74 3 106.5 16t46 48t13.5 112v1016q0 77 -13.5 112t-46 48t-106.5 16v41
q85 -6 256.5 -6t265.5 6v-41q-74 -3 -106.5 -16t-46 -48t-13.5 -112v-483h666v483q0 77 -13.5 112t-46 48t-106.5 16v41q96 -6 266 -6t256 6v-41q-74 -3 -106.5 -16t-46 -48t-13.5 -112z" />
    <glyph glyph-name="I" unicode="I" 
d="M442 1233v-1016q0 -77 13.5 -112t46 -48t106.5 -16v-41q-94 6 -265 6t-257 -6v41q74 3 106.5 16t46 48t13.5 112v1016q0 77 -13.5 112t-46 48t-106.5 16v41q85 -6 256.5 -6t265.5 6v-41q-74 -3 -106.5 -16t-46 -48t-13.5 -112z" />
    <glyph glyph-name="J" unicode="J" horiz-adv-x="668" 
d="M-86 -209q0 -87 -86 -104q33 -33 126.5 -33t158 46t89 119t31.5 168.5t7 309.5v936q0 77 -13.5 112t-46 48t-106.5 16v41q85 -6 255.5 -6t266.5 6v-41q-74 -3 -106.5 -16t-46 -48t-13.5 -112v-750q0 -389 -35 -535.5t-149 -239.5t-283 -93q-100 0 -172 37q-98 51 -98 141
q0 48 30.5 78.5t78.5 30.5t80 -30t32 -81z" />
    <glyph glyph-name="K" unicode="K" horiz-adv-x="1341" 
d="M1112.5 6q-129.5 0 -229.5 -6v41q94 4 94 43q0 19 -21 49l-299 451q-60 91 -101 118t-114 31v-516q0 -77 13.5 -112t46 -48t106.5 -16v-41q-94 6 -265 6t-257 -6v41q74 3 106.5 16t46 48t13.5 112v1016q0 77 -13.5 112t-46 48t-106.5 16v41q85 -6 256.5 -6t265.5 6v-41
q-74 -3 -106.5 -16t-46 -48t-13.5 -112v-459q148 5 234 115l196 250q105 133 105 196q0 71 -127 74v41q117 -6 232.5 -6t177.5 6v-41q-142 -20 -242 -149l-334 -428l475 -666q63 -97 180 -125v-41q-97 6 -226.5 6z" />
    <glyph glyph-name="L" unicode="L" horiz-adv-x="1204" 
d="M442 1233v-1016q0 -110 30 -140t136 -30h150q97 0 156.5 18.5t96.5 67.5t54 115.5t29 181.5h47q-6 -64 -6 -174t14 -256q-139 6 -500.5 6t-562.5 -6v41q74 3 106.5 16t46 48t13.5 112v1016q0 77 -13.5 112t-46 48t-106.5 16v41q85 -6 256.5 -6t265.5 6v-41
q-74 -3 -106.5 -16t-46 -48t-13.5 -112z" />
    <glyph glyph-name="M" unicode="M" horiz-adv-x="1784" 
d="M1532 1233v-1016q0 -77 14 -112t46 -48t106 -16v-41q-96 6 -266 6t-256 -6v41q56 3 85 9t49 26t26 52t5 89v1096l-493 -1323h-33l-516 1329v-1081q1 -115 35 -154t151 -43v-41q-75 6 -203 6t-196 -6v41q102 3 134 43t32 154v995q0 77 -14 112t-46 48t-106 16v41
q66 -6 182 -6t183 6l450 -1188l440 1182h97q164 0 260 6v-41q-74 -3 -106 -16t-46 -48t-14 -112z" />
    <glyph glyph-name="N" unicode="N" horiz-adv-x="1446" 
d="M1206 1212v-1222h-47l-860 1329v-1081q0 -115 34.5 -154t151.5 -43v-41q-74 6 -202.5 6t-196.5 -6v41q103 4 134.5 43.5t31.5 153.5v995q0 77 -13.5 112t-46 48t-106.5 16v41q67 -6 175 -6t175 6l723 -1114v876q0 113 -27 144.5t-62.5 41t-96.5 11.5v41q73 -6 202 -6
t197 6v-41q-103 -4 -134.5 -43.5t-31.5 -153.5z" />
    <glyph glyph-name="O" unicode="O" horiz-adv-x="1518" 
d="M752 1442q-131 0 -231.5 -91.5t-154 -255t-53.5 -374.5q0 -320 129.5 -516.5t323.5 -196.5q131 0 231 91.5t153.5 255t53.5 374.5q0 320 -129.5 516.5t-322.5 196.5zM760 1479q296 0 472.5 -197.5t176.5 -544.5q0 -226 -83 -400.5t-231 -270t-337 -95.5
q-296 0 -472.5 197.5t-176.5 544.5q0 226 83 400.5t231 270t337 95.5z" />
    <glyph glyph-name="P" unicode="P" horiz-adv-x="1198" 
d="M594 1409q-93 0 -122.5 -34.5t-29.5 -141.5v-606h138q237 1 313 167q41 90 41 228q0 198 -79 292.5t-261 94.5zM1139 1044q-1 -136 -69 -246q-132 -212 -470 -212h-158v-369q0 -58 7.5 -90t32.5 -51.5t61.5 -26t105.5 -8.5v-41q-107 6 -292 6t-271 -6v41q74 3 106.5 16
t46 48t13.5 112v1016q0 77 -13.5 112t-46 48t-106.5 16v41q85 -6 250 -6l309 4q241 0 367.5 -110t126.5 -294z" />
    <glyph glyph-name="Q" unicode="Q" horiz-adv-x="1518" 
d="M313 721q0 -320 129.5 -516.5t323.5 -196.5q131 0 231 91.5t153.5 255t53.5 374.5q0 320 -129.5 516.5t-322.5 196.5q-131 0 -231.5 -91.5t-154 -255t-53.5 -374.5zM1157 -385q-97 0 -196.5 32.5t-236 93.5t-186.5 77.5t-66.5 21t-22.5 6.5q-90 -30 -177.5 -30t-87.5 42
t92.5 42t172.5 -17q55 15 133 50t98 42q-263 26 -417 220.5t-154 517.5q0 226 83 400.5t231 270t337 95.5q296 0 472.5 -197.5t176.5 -531.5t-162 -542.5t-424 -233.5v-1q-70 -8 -167 -48.5t-136 -51.5q490 -98 642.5 -98t237.5 42.5t132 135.5l31 -12q-46 -157 -129 -234
q-102 -92 -277 -92z" />
    <glyph glyph-name="R" unicode="R" horiz-adv-x="1327" 
d="M594 1409q-93 0 -122.5 -34.5t-29.5 -141.5v-504h138q302 0 345 232q9 48 9 108q0 168 -80 254t-260 86zM1139 1092q0 -120 -82 -231q-43 -58 -124.5 -102t-191.5 -61l25 -4q134 -22 195.5 -81t91.5 -189l51 -209q20 -93 42 -130.5t59.5 -37.5t59.5 17.5t56 60.5l31 -23
q-48 -69 -95 -100t-127.5 -31t-134.5 49t-82 173l-45 204q-30 140 -49 174q-38 71 -78 94t-104 23h-195v-471q0 -77 13.5 -112t46 -48t106.5 -16v-41q-94 6 -265 6t-257 -6v41q74 3 106.5 16t46 48t13.5 112v1016q0 77 -13.5 112t-46 48t-106.5 16v41q85 -6 250 -6l309 4
q238 0 366 -99.5t128 -256.5z" />
    <glyph glyph-name="S" unicode="S" horiz-adv-x="1106" 
d="M221 76q-34 0 -45 -90h-47q8 112 8 491h47q14 -198 98.5 -331.5t274.5 -133.5q110 0 188 69t78 196.5t-81.5 207.5t-189 145t-144 88.5t-84.5 59.5q-77 58 -131 141.5t-54 184.5q0 190 113.5 279.5t250.5 89.5t211 -39q24 -13 65 -39.5t65 -26.5q34 0 45 90h47
q-10 -120 -10 -418h-47q-12 158 -92 276t-244 118q-110 0 -180 -66.5t-70 -171.5q0 -65 17.5 -99.5t30 -54.5t36 -41.5t40.5 -36.5t49.5 -36.5t52 -34t58.5 -36t76.5 -47t72 -46t77.5 -54t69 -57.5q71 -70 102.5 -138.5t31.5 -174.5t-60 -196q-116 -174 -375 -173
q-159 0 -275 73q-51 32 -75 32z" />
    <glyph glyph-name="T" unicode="T" horiz-adv-x="1272" 
d="M1198 1194q0 -110 6 -174h-47q-24 239 -73.5 300.5t-131.5 75.5q-46 8 -110 7h-111v-1165q0 -95 17.5 -128.5t52 -49t137.5 -19.5v-41q-108 6 -307 6t-297 -6v41q103 4 137.5 19.5t52 49t17.5 128.5v1165h-111q-133 0 -178 -29q-45 -28 -65 -54q-48 -61 -72 -300h-47
q6 64 6 176t-15 254q170 -6 576.5 -6t576.5 6q-14 -146 -14 -256z" />
    <glyph glyph-name="U" unicode="U" horiz-adv-x="1397" 
d="M1176 1212v-616q0 -291 -84 -434q-52 -88 -151.5 -139.5t-223.5 -51.5q-225 0 -344 111q-90 84 -121 190t-31 318v643q0 58 -5.5 89.5t-25.5 51.5t-49.5 26.5t-85.5 8.5v41q87 -6 257 -6t266 6v-41q-56 -2 -85.5 -8.5t-49.5 -26.5t-25.5 -51.5t-5.5 -89.5v-678
q0 -263 53.5 -364t144.5 -131q54 -18 146 -17.5t170 39.5q202 100 202 491v639q0 111 -40 151.5t-146 45.5v41q74 -6 203 -6t196 6v-41q-102 -4 -133.5 -43t-31.5 -154z" />
    <glyph glyph-name="V" unicode="V" horiz-adv-x="1290" 
d="M228 1444q156 0 241 6v-41q-77 -3 -111 -19t-34 -54t24 -99l371 -984l334 865q41 106 41 169t-44 91t-135 31v41q117 -6 223 -6t167 6v-41q-103 -23 -162 -178l-481 -1241h-33l-500 1288q-50 127 -141 131v41q84 -6 240 -6z" />
    <glyph glyph-name="W" unicode="W" horiz-adv-x="1853" 
d="M210.5 1444q141.5 0 215.5 6v-41q-54 -4 -77 -20t-23 -50t22 -102l300 -913l248 793l-54 161q-42 127 -121 131v41q74 -6 224 -6t237 6v-41q-115 -6 -132 -36q-8 -14 -8 -42.5t21 -93.5l294 -911l253 792q33 104 33 168.5t-41.5 92.5t-133.5 30v41q117 -6 222.5 -6
t167.5 6v-41q-114 -25 -162 -178l-387 -1241h-33l-356 1055l-326 -1055h-33l-434 1288q-44 126 -141 131v41q83 -6 224.5 -6z" />
    <glyph glyph-name="X" unicode="X" horiz-adv-x="1298" 
d="M1092 8q-52 0 -273 -8v43q80 0 113 7t33 26q0 14 -15 37l-350 536l-221 -330q-78 -116 -78 -174q1 -58 47 -80t135 -24v-41q-115 6 -252 6t-198 -6v41q115 16 231 188l309 461l-401 615q-38 59 -64 79t-73 23v43q141 -8 227 -8t238 8v-43q-137 0 -137 -45q0 -16 18 -45
l319 -488l201 301q89 132 89 186t-40 72t-119 21v41q117 -6 233 -6t177 6v-41q-116 -17 -231 -188l-287 -428l424 -648q39 -59 65 -79t72 -23v-43q-140 8 -192 8z" />
    <glyph glyph-name="Y" unicode="Y" horiz-adv-x="1210" 
d="M1037 1444q105 0 167 6v-41q-80 -18 -164 -182l-321 -637v-373q0 -58 5.5 -89.5t25.5 -51.5t49.5 -26.5t85.5 -8.5v-41q-96 6 -266 6t-257 -6v41q56 2 85.5 8.5t49.5 26.5t25.5 51.5t5.5 89.5v309l-415 766q-38 69 -65.5 92t-53.5 23v43q80 -6 229.5 -6t237.5 6v-43
q-144 0 -144 -79q0 -30 21 -71l341 -653l261 520q56 113 56 173.5t-45 85t-136 26.5v41q117 -6 222 -6z" />
    <glyph glyph-name="Z" unicode="Z" horiz-adv-x="1217" 
d="M711 47q97 0 156.5 18.5t96.5 67.5t54 115.5t29 181.5h47q-7 -75 -7 -174.5t15 -255.5q-152 6 -506 6t-510 -6v41l854 1362h-430q-97 0 -156.5 -18.5t-96.5 -67.5t-54 -115.5t-29 -181.5h-47q6 64 6 174t-14 256q151 -6 504.5 -6t502.5 6v-41l-847 -1362h432z" />
    <glyph glyph-name="bracketleft" unicode="[" horiz-adv-x="606" 
d="M539 1542h-166v-1874h166v-39h-351v1952h351v-39z" />
    <glyph glyph-name="backslash" unicode="\" horiz-adv-x="762" 
d="M135 1479l557 -1508h-67l-557 1508h67z" />
    <glyph glyph-name="bracketright" unicode="]" horiz-adv-x="606" 
d="M418 1581v-1952h-351v39h166v1874h-166v39h351z" />
    <glyph glyph-name="asciicircum" unicode="^" horiz-adv-x="1098" 
d="M530 1081h37q49 -118 151 -224t232 -169l-16 -29q-124 45 -240 112t-186 134q-58 -67 -152 -134t-192 -112l-17 29q131 63 233 169t150 224z" />
    <glyph glyph-name="underscore" unicode="_" horiz-adv-x="1210" 
d="M1069 -317h-928v82h928v-82z" />
    <glyph glyph-name="grave" unicode="`" horiz-adv-x="457" 
d="M42 1608q0 34 24 53t58 19t66 -42t96 -166t130 -227l-23 -18q-85 89 -189 181t-133 130q-29 36 -29 70z" />
    <glyph glyph-name="a" unicode="a" horiz-adv-x="1020" 
d="M260 231.5q0 -72.5 45 -118t119 -45.5q136 0 231 155v402q-15 -23 -50 -43t-112 -57.5t-104.5 -54.5t-61 -47.5t-50.5 -74.5t-17 -116.5zM655 168q-110 -182 -327 -182q-99 0 -173.5 58t-74.5 173t90 187q92 72 284 149q30 11 42 17l38 17q26 11 36 17q10 8 28 18
q21 12 39 35.5t18 51.5v127q0 119 -49.5 162.5t-140.5 43.5q-145 0 -203 -73q41 -10 68.5 -43.5t27.5 -83.5t-32.5 -79.5t-86 -29.5t-83 35t-29.5 92q0 80 96 146q118 77 288 77q259 -1 311 -189q18 -64 18 -175v-569q0 -51 14.5 -74t52.5 -23t88 43l23 -35q-36 -27 -56 -40
q-54 -35 -142 -35q-165 0 -165 182z" />
    <glyph glyph-name="b" unicode="b" horiz-adv-x="1153" 
d="M584 18q274 0 274 502t-250 502q-86 0 -158 -67t-102 -188v-647q99 -102 236 -102zM164 100v1258q0 96 -34 138t-122 42v43q65 -6 162 -6t178 29v-740q46 104 130 162t190 57q174 1 282 -143t107 -415q0 -271 -133 -412q-133 -142 -310 -142q-176 0 -284 120l-146 -124
l-34 15q14 50 14 118z" />
    <glyph glyph-name="c" unicode="c" horiz-adv-x="995" 
d="M571 1083q138 0 236 -65t98 -158q0 -54 -30.5 -84.5t-78 -30.5t-80 27.5t-32.5 73.5t24.5 75.5t61.5 39.5q-20 37 -73 61.5t-103 24.5q-50 -1 -90 -15q-89 -33 -150 -149t-61 -338q0 -371 182 -461q51 -26 125.5 -25.5t154 51.5t130.5 160l39 -14q-33 -108 -126.5 -196.5
t-250.5 -88.5q-193 0 -323 146t-130 397.5t133.5 410t343.5 158.5z" />
    <glyph glyph-name="d" unicode="d" horiz-adv-x="1190" 
d="M578 1036q-126 0 -204 -130t-77 -380q-2 -493 278 -493q81 0 145 62t87 174v609q-57 158 -229 158zM991 223q1 -95 35 -137t121 -43v-43q-65 6 -162 6t-178 -29v182q-77 -188 -283 -188t-316 141q-111 141 -110 414q-2 136 36 244t103 175q134 138 315 138t255 -121v398
q-1 96 -35 138t-121 42v43q65 -6 162 -6t178 29v-1383z" />
    <glyph glyph-name="e" unicode="e" horiz-adv-x="1036" 
d="M549.5 1044q-97.5 0 -167 -93.5t-85.5 -278.5h446q6 159 -45 265.5t-148.5 106.5zM565 -29q-219 0 -345 146t-126 400t125.5 410t323.5 156q397 0 397 -450h-640q-7 -55 -7 -131q0 -201 94 -323t219 -122q206 0 301 205l41 -16q-37 -113 -138.5 -194t-244.5 -81z" />
    <glyph glyph-name="f" unicode="f" horiz-adv-x="680" 
d="M580 1602q90 0 158 -54t69 -129q-1 -47 -31 -77t-78 -31q-48 0 -80 30t-32 76q0 91 86 109q-6 19 -33 32t-68 13q-146 -1 -163 -199q-7 -82 -7 -266v-53h220v-41h-220v-801q0 -95 54 -131t163 -37v-43q-252 8 -308 8t-249 -8v43q86 -1 121 31t35 116v822h-164v41h164
q0 181 23 279t82 167q86 103 258 103z" />
    <glyph glyph-name="g" unicode="g" horiz-adv-x="1061" 
d="M503 -350q70 0 135 18t120.5 52t90 91t34.5 122.5t-33 92.5t-123 27h-381q-65 -33 -102 -90.5t-37 -120t47.5 -108.5t113 -65t135.5 -19zM528.5 1047q-91.5 0 -139 -65.5t-47.5 -221.5t47.5 -221.5t139 -65.5t139 65t47.5 222t-47.5 222t-139 65zM993 1210.5
q0 -44.5 -28 -72.5t-75 -28t-70 31.5t-34 97.5q-30 -27 -50.5 -90.5t-25.5 -94.5q197 -73 197 -294q0 -162 -104.5 -243t-274.5 -81q-85 0 -151 19q-83 -44 -127.5 -81.5t-44.5 -80.5q0 -68 98 -68h481q107 0 173.5 -45t66.5 -155q0 -111 -94 -223t-268 -160
q-96 -26 -207 -26.5t-202.5 20t-152.5 64t-61 108.5t73.5 130t183.5 115h-7q-137 1 -184 75q-21 34 -21 92.5t58.5 121.5t197.5 126q-190 74 -190 292q0 109 50 183q96 140 328 140q79 0 145 -18q46 250 212 250q51 0 79.5 -30t28.5 -74.5z" />
    <glyph glyph-name="h" unicode="h" horiz-adv-x="1204" 
d="M729 1083q225 -1 273 -181q16 -62 16 -165v-547q0 -84 35 -115.5t121 -31.5v-43q-192 8 -248 8t-228 -8v43q76 0 106 31.5t30 115.5v592q0 177 -78 218q-34 18 -88 18q-126 0 -206.5 -104t-80.5 -267v-457q0 -84 30 -115.5t105 -31.5v-43q-172 8 -229.5 8t-245.5 -8v43
q86 0 121 31.5t35 115.5v1168q0 95 -34.5 137.5t-121.5 42.5v43q65 -6 162 -6t178 29v-766q96 245 348 245z" />
    <glyph glyph-name="i" unicode="i" horiz-adv-x="600" 
d="M399 190q0 -84 35 -115.5t121 -31.5v-43q-188 8 -248 8t-248 -8v43q86 0 121 31.5t35 115.5v641q0 95 -34.5 138t-121.5 43v43q64 -6 160.5 -6t179.5 28v-887zM292.5 1567q53.5 0 92.5 -39t39 -92.5t-39 -92t-92.5 -38.5t-92 38.5t-38.5 92t38.5 92.5t92 39z" />
    <glyph glyph-name="j" unicode="j" horiz-adv-x="547" 
d="M39 -354q162 0 162 221v964q0 95 -34.5 138t-121.5 43v43q64 -6 160.5 -6t179.5 28v-841q0 -359 -103 -490t-253 -131q-72 0 -116 32.5t-44 86t29.5 83t76.5 29.5q107 0 107 -100q0 -70 -78 -98q12 -2 35 -2zM272.5 1556q53.5 0 92 -38.5t38.5 -92t-38.5 -92.5t-92 -39
t-92.5 39t-39 92.5t39 92t92.5 38.5z" />
    <glyph glyph-name="k" unicode="k" horiz-adv-x="1126" 
d="M939.5 8q-48.5 0 -220.5 -8v43q29 0 46 11t17 26.5t-12 32.5l-235 344q-37 52 -68 70t-86 20v-357q0 -84 30 -115.5t105 -31.5v-43q-172 8 -229.5 8t-245.5 -8v43q86 0 121 31.5t35 115.5v1170q0 95 -34.5 137.5t-121.5 42.5v43q65 -6 162 -6t178 29v-1017q107 14 176 85
l152 157q65 68 65 113q0 70 -151 70v41q142 -8 234.5 -8t174.5 8v-41q-100 -9 -184 -96l-249 -262l370 -506q38 -52 69 -76.5t74 -30.5v-43q-124 8 -172.5 8z" />
    <glyph glyph-name="l" unicode="l" horiz-adv-x="586" 
d="M385 190q0 -84 35 -115.5t121 -31.5v-43q-188 8 -248 8t-248 -8v43q86 0 121 31.5t35 115.5v1170q0 95 -34.5 137.5t-121.5 42.5v43q64 -6 161.5 -6t178.5 29v-1416z" />
    <glyph glyph-name="m" unicode="m" horiz-adv-x="1819" 
d="M399 836q99 247 353 247q122 0 196 -77q51 -55 63 -165q35 89 93 145q100 97 243 97q144 0 218 -77q67 -74 67 -269v-547q0 -84 35 -116t121 -31v-43q-188 8 -246 8t-229 -8v43q75 -1 105 31t30 116v592q0 146 -38 191t-118 45q-120 0 -198 -106t-78 -265v-457
q0 -84 34 -116t121 -31v-43q-187 8 -245 8t-230 -8v43q75 -1 105 31t30 116v592q0 146 -38 191t-117 45q-119 0 -198 -108t-79 -265v-455q0 -84 30 -116t106 -31v-43q-172 8 -230 8t-246 -8v43q86 -1 121 31t35 116v641q-1 95 -35 138t-121 43v43q65 -6 161 -6t179 28v-241z
" />
    <glyph glyph-name="n" unicode="n" horiz-adv-x="1223" 
d="M748 1083q143 0 217 -77q38 -42 54.5 -103.5t16.5 -165.5v-547q0 -84 35 -115.5t121 -31.5v-43q-188 8 -245.5 8t-229.5 -8v43q75 0 105 31.5t30 115.5v592q0 140 -42 188t-124 48q-127 0 -207 -107t-80 -266v-455q0 -84 30 -115.5t106 -31.5v-43q-172 8 -230 8t-246 -8
v43q86 0 121 31.5t35 115.5v641q0 95 -34.5 138t-121.5 43v43q64 -6 160.5 -6t179.5 28v-241q97 247 349 247z" />
    <glyph glyph-name="o" unicode="o" horiz-adv-x="1122" 
d="M561 1042q-123 0 -194.5 -126t-71.5 -389.5t71.5 -389t194.5 -125.5t194.5 125.5t71.5 389t-71.5 389.5t-194.5 126zM561 1083q255 -1 377 -191q88 -138 88 -366q0 -413 -282 -523q-82 -32 -183 -32q-202 0 -333.5 133.5t-131.5 421.5q0 336 189 474q114 83 276 83z" />
    <glyph glyph-name="p" unicode="p" horiz-adv-x="1190" 
d="M602 18q293 0 293 529q0 475 -238 475q-93 0 -167 -66t-105 -193v-613q66 -132 217 -132zM713 1083q167 0 274 -134t107 -374q0 -304 -160 -477q-117 -127 -309 -127q-78 1 -141 31t-99 80v-262q0 -84 49 -116t148 -32v-43q-270 9 -296 9t-220 -9v43q75 0 105 28t30 99
v1032q-1 95 -35 138t-121 43v43q65 -6 161 -6t179 28v-216q47 106 133 164t195 58z" />
    <glyph glyph-name="q" unicode="q" horiz-adv-x="1153" 
d="M578 33q76 -1 138 61t89 176v629q-79 137 -254 137q-124 0 -190 -128t-66 -377q1 -250 73 -374t210 -124zM989 954v-1155q0 -71 30 -99t105 -28v-43q-194 9 -220 9t-296 -9v43q99 0 148 32t49 116v353q-41 -97 -117 -149t-167 -53q-185 0 -305 140t-120 414t124 416
t315 142q103 1 173 -35t115 -114q112 119 146 153l35 -14q-15 -50 -15 -119z" />
    <glyph glyph-name="r" unicode="r" horiz-adv-x="911" 
d="M687.5 1083q90.5 0 143 -47t52.5 -107.5t-32 -98t-81 -37.5t-81 28.5t-32 86.5t70 102q-14 20 -59 20q-44 0 -100 -38q-56 -40 -92 -98q-78 -128 -77 -249v-434q0 -95 54 -131.5t163 -36.5v-43q-252 8 -310.5 8t-246.5 -8v43q86 0 121 31.5t35 115.5v641q0 95 -34.5 138
t-121.5 43v43q64 -6 160.5 -6t179.5 28v-256q37 102 117.5 182t171 80z" />
    <glyph glyph-name="s" unicode="s" horiz-adv-x="913" 
d="M424 1083q130 0 223 -75q22 -17 36 -17q36 0 46 90h47q-8 -100 -8 -348h-47q-51 311 -279 311q-74 0 -121 -41.5t-47 -105t22 -93.5t36.5 -46t43 -36.5t47 -33t56.5 -36t75.5 -48t71.5 -48.5q95 -66 143 -136.5t48 -161.5q1 -92 -49 -158q-96 -130 -301 -129
q-91 0 -162 29q-40 20 -66 41.5t-37 21.5q-30 0 -42 -77h-47q8 117 8 409h47q29 -237 99.5 -310t185.5 -73q72 0 127 47.5t55 145.5q1 98 -93 174q-47 38 -112 79t-76.5 48.5t-45 30t-45.5 32.5t-38 32t-36 36q-10 13 -27 37q-41 57 -41 145q0 130 86.5 197t216.5 67z" />
    <glyph glyph-name="t" unicode="t" horiz-adv-x="725" 
d="M389 219q1 -174 131 -174q64 0 109 51t76 168l40 -10q-50 -283 -266 -283q-207 1 -256 179q-18 66 -18 176v686h-197v41h197v313q115 3 184 29v-342h303v-41h-303v-793z" />
    <glyph glyph-name="u" unicode="u" horiz-adv-x="1190" 
d="M805 217q-97 -246 -351 -246q-122 0 -194 75.5t-72 270.5v514q0 95 -34 138t-121 43v43q64 -6 160 -6t180 28v-805q0 -146 37.5 -190.5t117.5 -44.5q119 0 198 106.5t79 264.5v423q0 95 -34.5 138t-121.5 43v43q64 -6 160.5 -6t179.5 28v-856q0 -95 34.5 -137.5
t121.5 -42.5v-43q-65 6 -162 6t-178 -29v242z" />
    <glyph glyph-name="v" unicode="v" horiz-adv-x="1001" 
d="M852 1049q78 0 143 6v-41q-41 -5 -73 -37t-60 -107l-336 -880h-34l-377 907q-48 115 -119 115v43q106 -8 222 -8t224 8v-43q-83 0 -98 -6t-31 -17q-16 -10 -16 -46q0 -35 22 -91l252 -623l226 592q22 56 22 99q0 84 -151 94v41q106 -6 184 -6z" />
    <glyph glyph-name="w" unicode="w" horiz-adv-x="1577" 
d="M1428.5 1049q77.5 0 142.5 6v-41q-90 -10 -133 -144l-297 -880h-35l-325 824l-292 -824h-34l-336 907q-44 115 -119 115v43q86 -13 178.5 -13t267.5 13v-43q-95 0 -111 -12q-32 -24 -32 -62.5t21 -97.5l205 -589l294 812h47l314 -829l192 587q19 60 19 101q0 83 -152 92
v41q108 -6 185.5 -6z" />
    <glyph glyph-name="x" unicode="x" horiz-adv-x="1063" 
d="M876.5 8q-55.5 0 -227.5 -8v43q33 0 57 13t24 28.5t-9 28.5l-233 340l-150 -195q-57 -73 -57 -123q0 -84 151 -94v-41q-108 6 -216 6t-173 -6v41q79 10 180 143l236 311l-285 414q-41 59 -65.5 78.5t-61.5 24.5v43q108 -8 161.5 -8t225.5 8v-43q-33 0 -56.5 -12.5
t-23.5 -29t8 -28.5l219 -319l142 198q62 87 62 129q0 55 -117 64v41q106 -6 184 -6t143 6v-41q-83 -10 -180 -144l-207 -286l301 -439q36 -52 62 -73.5t65 -28.5v-43q-104 8 -159.5 8z" />
    <glyph glyph-name="y" unicode="y" horiz-adv-x="1032" 
d="M192 -154q107 0 107 -104q0 -54 -55 -84q4 -2 12 -2q113 0 174 160l73 187l-372 894q-57 115 -139 115v43q96 -13 192.5 -13t274.5 13v-43q-93 0 -118 -16.5t-25 -54t26 -101.5l247 -612l226 593q22 60 22 101q0 82 -153 92v41q108 -6 186 -6t142 6v-41q-41 -5 -73 -37
t-60 -107l-406 -1058q-39 -101 -93 -149q-52 -48 -134 -48q-160 0 -160 123q0 49 29 78.5t77 29.5z" />
    <glyph glyph-name="z" unicode="z" horiz-adv-x="975" 
d="M532 31q260 0 285 329h47q0 -267 8 -368q-160 8 -368 8t-426 -10l592 1034h-226q-137 0 -204 -76.5t-80 -253.5h-47q0 271 -9 369q161 -8 369 -8t426 10l-592 -1034h225z" />
    <glyph glyph-name="braceleft" unicode="{" horiz-adv-x="623" 
d="M569 1602v-39q-69 -2 -95 -24q-26 -21 -36 -49t-22 -94q-10 -66 -10 -220t-16 -238q-30 -154 -102 -225q-71 -70 -175 -101q104 -31 156 -83q52 -51 78 -105q59 -121 59 -368q0 -246 31 -332q20 -54 73 -64q22 -4 59 -6v-39q-101 0 -165 22q-64 21 -106 77
q-77 102 -77 385q-1 283 -25 364q-24 79 -53 103t-77 28h-11v37h11q74 4 107 66q34 62 41 187t7 276q-1 150 33 252t108 146t207 44z" />
    <glyph glyph-name="bar" unicode="|" horiz-adv-x="455" 
d="M268 -399h-82v2156h82v-2156z" />
    <glyph glyph-name="braceright" unicode="}" horiz-adv-x="623" 
d="M54 1602q133 0 207 -44q73 -44 107 -146t34 -252q0 -151 4 -231q10 -171 44 -232q34 -62 107 -66h11v-37h-11q-48 -4 -77 -28q-30 -24 -54 -103q-24 -80 -24 -295q0 -214 -18 -306t-59 -148q-42 -56 -106 -77q-64 -22 -165 -22v39q71 2 96 22q26 20 36 48t20 95t11 225
t17 242q30 152 101 224q71 71 175 102q-104 31 -156 83q-52 51 -78 105q-59 123 -59 365q1 243 -31 325q-22 54 -74 66q-22 6 -58 7v39z" />
    <glyph glyph-name="asciitilde" unicode="~" horiz-adv-x="1329" 
d="M1086 540q-82 -59 -202 -59q-119 0 -258 79q-140 79 -265 79t-175 -119l-34 10q12 98 94 158t201 60t258 -79q140 -79 265 -79t175 119l35 -11q-12 -99 -94 -158z" />
    <glyph glyph-name="uni00A0" unicode="&#xa0;" horiz-adv-x="510" 
 />
    <glyph glyph-name="exclamdown" unicode="&#xa1;" horiz-adv-x="510" 
d="M236 651h36q0 -205 38 -529t38 -388q0 -120 -94 -119q-42 1 -68 29t-26 91t38 387t38 529zM256 1083q54 -1 92 -39t39 -92q-1 -54 -39 -92q-38 -39 -92 -39t-92 39q-38 38 -39 92q1 54 39 92t92 39z" />
    <glyph glyph-name="cent" unicode="&#xa2;" horiz-adv-x="971" 
d="M268 553q0 -229 62 -345t168 -141v971q-95 -26 -162 -141q-68 -115 -68 -344zM543 -371h-45v343q-186 9 -308 156q-122 146 -121 384q0 238 119 394t310 175v369h45v-367h3q138 0 236 -65t98 -158q0 -54 -30 -84t-78 -31t-80 27t-33 74q1 46 25 76t61 39q-20 37 -73 61
t-111 25l-18 -1v-986l20 -1q87 0 167 51t130 160l39 -14q-32 -105 -120 -191t-236 -94v-342z" />
    <glyph glyph-name="sterling" unicode="&#xa3;" horiz-adv-x="1233" 
d="M926 129q144 1 145 127q0 60 -47 104q-47 46 -127 62l8 33q108 -17 185 -84t77 -166t-59 -167t-164 -67q-105 0 -227 77t-176 97q-53 19 -111 19t-113 -21q-47 -81 -103 -127t-99 -45q-43 0 -43 21q0 30 59 82t125 76q23 108 23 378v80h-158v41h158v164h-158v41h158v45
q0 608 454 608q121 0 187 -52q66 -51 67 -105q-1 -54 -29 -82t-66 -29q-38 0 -66 26t-29 66q0 71 67 96q-4 20 -44 35t-80 15q-42 0 -74 -7q-32 -6 -58 -22q-24 -16 -44 -34t-34 -46q-14 -29 -26 -54q-10 -26 -16 -64q-18 -110 -19 -298v-98h297v-41h-297v-164h297v-41h-298
q-4 -122 -36 -218t-96 -210q87 41 166 41q78 0 214 -46t210 -46z" />
    <glyph glyph-name="currency" unicode="&#xa4;" horiz-adv-x="1096" 
d="M548 928q-124 0 -214 -93t-90 -221t90 -219q90 -92 214 -92q124 -1 214 91t90 220t-90 220q-90 94 -214 94zM936 612q0 -136 -86 -241l90 -88l-57 -60l-90 90q-111 -86 -247 -86t-241 84l-88 -88l-59 60l88 88q-86 105 -86 243t88 246l-90 90l57 58l90 -90q107 86 243 86
t245 -89l92 93l57 -58l-92 -92q86 -110 86 -246z" />
    <glyph glyph-name="yen" unicode="&#xa5;" horiz-adv-x="1325" 
d="M1098 1444q106 0 167 6v-41q-80 -18 -164 -182l-313 -621h279v-41h-287v-164h287v-41h-287v-143q0 -57 6 -89t25 -52t49 -26t86 -9v-41q-96 6 -266 6t-257 -6v41q55 3 85 9t50 26t26 52t5 89v143h-286v41h286v125l-21 39h-265v41h243l-372 686q-38 69 -66 92t-53 23v43
q79 -6 229 -6t238 6v-43q-144 0 -144 -79q0 -30 21 -71l340 -651h2l260 518q56 114 56 174t-45 84t-136 27v41q116 -6 222 -6z" />
    <glyph glyph-name="brokenbar" unicode="&#xa6;" horiz-adv-x="459" 
d="M270 -399h-82v1067h82v-1067zM270 786h-82v971h82v-971z" />
    <glyph glyph-name="section" unicode="&#xa7;" horiz-adv-x="1040" 
d="M345 970q-150 -84 -150 -222q1 -138 203 -286q34 -24 139 -98q106 -73 159 -117q152 85 152 228q0 98 -82 176t-224 176q-143 98 -197 143zM868 -56q0 -151 -98 -240t-262 -89q-98 0 -177 33q-79 32 -121 82t-42 100t29 83q29 32 78 32q49 -1 81 -31t33 -78
q0 -86 -88 -108q17 -38 78 -56t123 -18q114 0 168 61t55 142q0 141 -214 295q-65 47 -136 96q-141 95 -216 181t-75 210q0 224 235 354q-145 133 -145 282t98 238t263 89q91 0 173 -33t124 -83t42 -100t-29 -82t-77 -32t-82 30q-33 30 -33 78q0 87 88 109q-19 39 -79 57
t-120 17q-121 0 -173 -64t-52 -128q1 -65 23 -113t94 -114t189 -145q115 -79 165 -119t92 -88q78 -90 78 -214q0 -219 -240 -350q150 -133 150 -284z" />
    <glyph glyph-name="dieresis" unicode="&#xa8;" horiz-adv-x="799" 
d="M616 1522q48 0 84 -36t35 -84q1 -48 -35 -83t-84 -35t-84 35q-34 35 -34 83t35 84t83 36zM182 1522q48 0 84 -36t35 -84q1 -48 -35 -83t-84 -35t-84 35q-35 35 -35 83q-1 48 35 84t84 36z" />
    <glyph glyph-name="copyright" unicode="&#xa9;" horiz-adv-x="1831" 
d="M1061 1116q0 86 86 105q-20 37 -73 61t-111 25q-101 0 -177 -80q-116 -128 -116 -428q0 -362 181 -454q51 -26 126 -26t155 51t130 160l38 -14q-33 -109 -126 -197t-248 -88q-197 -1 -326 147t-129 398t133 408t346 159q151 0 246 -71q86 -60 86 -152q0 -54 -30 -84
t-78 -30t-80 30t-33 80zM916 1536q-150 0 -286 -60t-234 -160t-156 -238t-58 -292q0 -152 58 -290t156 -240q98 -100 234 -160t286 -59q150 -1 285 59q136 60 234 160t156 240q58 138 58 290t-58 292q-59 138 -157 238t-234 160q-134 60 -284 60zM915 1602q166 0 317 -64
q150 -64 260 -174t174 -261t65 -317q-1 -166 -65 -317t-174 -260t-260 -173q-151 -64 -317 -65q-166 1 -317 65t-260 173q-110 109 -174 260t-64 317t64 317t174 261q109 110 260 174t317 64z" />
    <glyph glyph-name="ordfeminine" unicode="&#xaa;" horiz-adv-x="948" 
d="M285 932q0 -54 31 -88q30 -34 94 -35q64 0 137 65v297q-14 -29 -103 -70q-89 -40 -124 -77q-35 -38 -35 -92zM547 1272q0 168 -139 168q-85 0 -152 -43q30 -9 50 -35t20 -63t-27 -63t-67 -26t-68 26q-27 26 -27 67q0 81 99 129t228 47q129 1 188 -61t59 -199v-334
q-1 -43 11 -59t50 -17q38 0 74 35l22 -31q-80 -76 -168 -76q-88 1 -120 25q-30 24 -33 72q-100 -97 -240 -97q-77 0 -133 41t-57 127q0 86 107 146q55 31 123 56q67 25 83 31q61 25 89 47t28 50v37z" />
    <glyph glyph-name="guillemotleft" unicode="&#xab;" horiz-adv-x="1028" 
d="M895 1083l35 -14q-72 -191 -156 -313t-196 -221q110 -96 194 -225t158 -324l-35 -15q-89 196 -201 332t-270 223v2q158 88 270 224t201 331zM537 1083l34 -14q-71 -191 -155 -313t-197 -221q111 -95 195 -225t157 -324l-34 -15q-89 196 -201 332t-270 223v2
q158 88 270 224t201 331z" />
    <glyph glyph-name="logicalnot" unicode="&#xac;" horiz-adv-x="1343" 
d="M1194 338h-74v358h-952v62h1026v-420z" />
    <glyph glyph-name="softhyphen" unicode="&#xad;" horiz-adv-x="1022" 
 />
    <glyph glyph-name="registered" unicode="&#xae;" horiz-adv-x="1389" 
d="M823 1202q-1 152 -129 152q-64 0 -78 -13t-14 -55v-219h49q101 0 137 35t35 100zM950 1223q0 -139 -198 -174q81 -9 116 -37t45 -82l25 -117l3 -15t3 -14l3 -12q3 -8 5 -12t6 -9q4 -6 18 -6t23 17l21 -14q-22 -43 -82 -43q-60 -1 -85 19t-36 64l-35 152q-12 58 -43 75
t-137 19v-207q0 -46 8 -59t39 -16v-31l-104 2l-107 -2v31q30 3 38 16t9 59v449q-1 48 -9 62t-38 16v30q25 -2 99 -2l176 2q115 0 176 -42t61 -119zM694 524q132 0 245 68t177 186q64 116 64 252t-64 253t-177 185q-112 68 -245 68q-132 0 -244 -68t-176 -185t-65 -253
q1 -136 65 -252t176 -186q112 -68 244 -68zM694 1602q155 0 287 -76q133 -76 209 -209q76 -132 76 -287q0 -154 -76 -286t-209 -208q-132 -76 -287 -77q-154 1 -286 77t-208 208t-77 286q1 155 77 287q76 133 208 209t286 76z" />
    <glyph glyph-name="macron" unicode="&#xaf;" horiz-adv-x="741" 
d="M690 1407h-639v51h639v-51z" />
    <glyph glyph-name="degree" unicode="&#xb0;" horiz-adv-x="682" 
d="M340 1645q-76 1 -136 -57t-61 -158q0 -100 60 -154q60 -55 137 -55q77 -1 138 55t61 155q1 99 -61 157t-138 57zM341 1679q103 1 176 -67t73 -179t-73 -179t-176 -68t-176 68t-73 179t73 179t176 67z" />
    <glyph glyph-name="plusminus" unicode="&#xb1;" horiz-adv-x="1313" 
d="M1176 0h-1026v62h1026v-62zM680 758h475v-62h-475v-481h-74v481h-477v62h477v483h74v-483z" />
    <glyph glyph-name="twosuperior" unicode="&#xb2;" horiz-adv-x="692" 
d="M352 1546q97 0 153 -39t56 -100t-23 -105q-35 -67 -158 -164q-123 -96 -151 -126h271q45 0 63 15t33 54l35 -6q-28 -104 -31 -184q-25 6 -78 6h-450v41q23 20 82 64q109 80 193 167q85 88 85 198t-128 110t-200 -111l-30 16q38 72 110 118t168 46z" />
    <glyph glyph-name="threesuperior" unicode="&#xb3;" horiz-adv-x="664" 
d="M307 1208q115 48 115 158q0 48 -38 80t-101 33q-127 0 -195 -111l-31 16q38 72 110 118q71 46 171 46t156 -39t57 -109q-1 -70 -53 -120t-138 -74q100 -2 169 -50t69 -137t-82 -161t-203 -108q-120 -36 -247 -37v35q161 4 284 84t123 190q-1 70 -41 114t-108 48
q-7 -2 -21 -10q-35 -18 -60 -19q-26 0 -26 25q0 32 90 28z" />
    <glyph glyph-name="acute" unicode="&#xb4;" horiz-adv-x="457" 
d="M334 1680q34 0 58 -19t23 -53q0 -34 -29 -70q-30 -38 -134 -130t-189 -181l-22 18q66 103 130 227t96 166q33 42 67 42z" />
    <glyph glyph-name="paragraph" unicode="&#xb6;" horiz-adv-x="1321" 
d="M891 98v1245q-7 0 -21 -78q-39 -217 -43 -515q-297 0 -435 -14t-138 -18t133 -16t440 -12q4 -308 43 -517q14 -75 21 -75zM1079 1272v-1426q-1 -77 13 -112t46 -48t107 -16v-41q-95 6 -279 6t-284 -6v41q126 4 166 44t41 153v106q-510 0 -703 307q-114 181 -114 457
q0 211 86 371t252 252q168 92 395 92l309 -7q72 0 123 5v-39q-95 -3 -127 -35t-31 -104z" />
    <glyph glyph-name="periodcentered" unicode="&#xb7;" horiz-adv-x="541" 
d="M270 679q54 -1 92 -39t39 -92q-1 -54 -39 -92q-38 -39 -92 -39t-92 39q-38 38 -39 92q1 54 39 92t92 39z" />
    <glyph glyph-name="cedilla" unicode="&#xb8;" horiz-adv-x="467" 
d="M296 -133q126 -1 126 -101q0 -50 -38 -86q-68 -65 -184 -65q-115 0 -180 23l9 36q43 -6 97 -6t110 22t55 70q0 58 -86 58q-59 0 -101 -15l70 209h55l-53 -159q61 14 120 14z" />
    <glyph glyph-name="onesuperior" unicode="&#xb9;" horiz-adv-x="539" 
d="M365 1038q1 -58 31 -79t106 -21v-43q-78 4 -205 4t-213 -4v43q76 0 114 22t38 78v265q0 85 -32 109t-134 24v43q196 4 295 63v-504z" />
    <glyph glyph-name="ordmasculine" unicode="&#xba;" horiz-adv-x="930" 
d="M464 1442q-84 0 -138 -82t-54 -252t54 -252t138 -82t139 82q54 82 54 252t-54 252q-55 82 -139 82zM484 1479q74 -1 154 -41t135 -126q54 -86 54 -204t-54 -204q-105 -168 -296 -167t-299 135q-76 94 -76 236q0 206 158 310q92 60 224 61z" />
    <glyph glyph-name="guillemotright" unicode="&#xbb;" horiz-adv-x="1026" 
d="M457 1067l35 14q88 -195 200 -331t271 -224v-2q-159 -88 -271 -224t-200 -331l-35 15q71 190 155 312t197 222q-111 96 -195 226t-157 323zM98 1067l35 14q89 -195 201 -331t270 -224v-2q-158 -88 -270 -224t-201 -331l-35 15q72 191 156 313t197 221q-111 96 -195 225
t-158 324z" />
    <glyph glyph-name="onequarter" unicode="&#xbc;" horiz-adv-x="1419" 
d="M1010 121v367l-316 -367h316zM1125 121h16q46 0 63 15t33 54l35 -6q-25 -86 -29 -153q-24 6 -77 6h-41v-240h-115v240h-397v43l469 541h43v-500zM398 1038q0 -58 30 -79t107 -21v-43q-78 4 -205 4t-213 -4v43q76 0 114 22t38 78v265q-1 85 -33 109t-133 24v43
q196 4 295 63v-504zM1368 1661l-1198 -1774l-39 27l1198 1774z" />
    <glyph glyph-name="onehalf" unicode="&#xbd;" horiz-adv-x="1434" 
d="M1075 651q97 0 153 -39t56 -100q0 -62 -23 -106q-35 -67 -158 -163t-151 -126h271q45 0 63 15t33 54l35 -6q-28 -104 -31 -184q-25 6 -78 6h-450v41q23 19 82 63q109 80 193 168q85 88 85 198q-1 110 -129 110t-199 -111l-30 16q37 71 109 117t169 47zM414 1038
q0 -58 30 -79t107 -21v-43q-78 4 -205 4t-213 -4v43q76 0 114 22t38 78v265q-1 85 -33 109t-133 24v43q196 4 295 63v-504zM1335 1661l-1198 -1774l-39 27l1198 1774z" />
    <glyph glyph-name="threequarters" unicode="&#xbe;" horiz-adv-x="1524" 
d="M1106 121v367l-316 -367h316zM1221 121h16q46 0 63 15t33 54l35 -6q-25 -86 -29 -153q-24 6 -77 6h-41v-240h-115v240h-397v43l469 541h43v-500zM354 1208q115 48 115 158q0 48 -38 80t-101 33q-128 0 -195 -111l-31 16q38 72 110 118t172 46t156 -39t56 -109t-52 -120
t-139 -74q100 -2 169 -50t69 -137q-1 -89 -83 -161t-202 -108t-247 -37v35q161 4 284 84t123 190q0 70 -40 114t-109 48q-7 -2 -21 -10q-35 -18 -60 -19q-26 0 -26 25q0 32 90 28zM1464 1661l-1198 -1774l-39 27l1198 1774z" />
    <glyph glyph-name="questiondown" unicode="&#xbf;" horiz-adv-x="928" 
d="M647 -186q1 50 33 80t80 30t78 -30t30 -78q0 -85 -98 -143t-284 -58q-186 -1 -304 93t-119 255q1 161 125 273t336 161v258h41v-276q-195 -67 -257 -161t-62 -216q0 -176 76 -261t214 -85t197 53q-86 17 -86 105zM543 1085q55 -1 93 -39t38 -92t-38 -92q-38 -39 -93 -39
t-93 39q-38 38 -38 92t38 92t93 39z" />
    <glyph glyph-name="Agrave" unicode="&#xc0;" horiz-adv-x="1290" 
d="M801 590l-229 611l-235 -611h464zM1063.5 6q-155.5 0 -242.5 -6v41q78 3 111.5 19t33.5 54t-24 99l-126 336h-494l-84 -217q-41 -104 -41 -168.5t43.5 -92.5t134.5 -30v-41q-117 6 -222.5 6t-166.5 -6v41q102 23 161 178l482 1241h33l499 -1288q50 -127 142 -131v-41
q-84 6 -239.5 6zM290 1844q0 19 17 45.5t52.5 26.5t71.5 -23t138.5 -116.5t200.5 -168.5l-14 -27q-112 57 -242 107.5t-177 80.5t-47 75z" />
    <glyph glyph-name="Aacute" unicode="&#xc1;" horiz-adv-x="1290" 
d="M801 590l-229 611l-235 -611h464zM1063.5 6q-155.5 0 -242.5 -6v41q78 3 111.5 19t33.5 54t-24 99l-126 336h-494l-84 -217q-41 -104 -41 -168.5t43.5 -92.5t134.5 -30v-41q-117 6 -222.5 6t-166.5 -6v41q102 23 161 178l482 1241h33l499 -1288q50 -127 142 -131v-41
q-84 6 -239.5 6zM918.5 1916q35.5 0 52.5 -26.5t17 -45.5q0 -45 -47 -75t-177 -80.5t-242 -107.5l-14 27q98 75 200.5 168.5t138.5 116.5t71.5 23z" />
    <glyph glyph-name="Acircumflex" unicode="&#xc2;" horiz-adv-x="1290" 
d="M801 590l-229 611l-235 -611h464zM1063.5 6q-155.5 0 -242.5 -6v41q78 3 111.5 19t33.5 54t-24 99l-126 336h-494l-84 -217q-41 -104 -41 -168.5t43.5 -92.5t134.5 -30v-41q-117 6 -222.5 6t-166.5 -6v41q102 23 161 178l482 1241h33l499 -1288q50 -127 142 -131v-41
q-84 6 -239.5 6zM1024 1577q-275 58 -432 143q-130 -85 -350 -143l-10 29q131 45 232.5 117.5t150.5 152.5h37q48 -80 149.5 -152.5t233.5 -117.5z" />
    <glyph glyph-name="Atilde" unicode="&#xc3;" horiz-adv-x="1290" 
d="M801 590l-229 611l-235 -611h464zM1063.5 6q-155.5 0 -242.5 -6v41q78 3 111.5 19t33.5 54t-24 99l-126 336h-494l-84 -217q-41 -104 -41 -168.5t43.5 -92.5t134.5 -30v-41q-117 6 -222.5 6t-166.5 -6v41q102 23 161 178l482 1241h33l499 -1288q50 -127 142 -131v-41
q-84 6 -239.5 6zM398 1739q-96 0 -127 -115l-31 6q9 99 74 158t156 59t200 -78.5t199.5 -78.5t122.5 114l30 -6q-9 -99 -73.5 -158t-146.5 -59t-172 56l-74 46q-90 56 -158 56z" />
    <glyph glyph-name="Adieresis" unicode="&#xc4;" horiz-adv-x="1290" 
d="M801 590l-229 611l-235 -611h464zM1063.5 6q-155.5 0 -242.5 -6v41q78 3 111.5 19t33.5 54t-24 99l-126 336h-494l-84 -217q-41 -104 -41 -168.5t43.5 -92.5t134.5 -30v-41q-117 6 -222.5 6t-166.5 -6v41q102 23 161 178l482 1241h33l499 -1288q50 -127 142 -131v-41
q-84 6 -239.5 6zM849.5 1581q-48.5 0 -83.5 35t-35 83.5t35.5 84t83.5 35.5t83.5 -36t35.5 -84t-35.5 -83t-84 -35zM415 1581q-49 0 -83.5 34.5t-34.5 83.5t35 84.5t83 35.5t84 -36t36 -84t-35.5 -83t-84.5 -35z" />
    <glyph glyph-name="Aring" unicode="&#xc5;" horiz-adv-x="1290" 
d="M801 590l-229 611l-235 -611h464zM1063.5 6q-155.5 0 -242.5 -6v41q78 3 111.5 19t33.5 54t-24 99l-126 336h-494l-84 -217q-41 -104 -41 -168.5t43.5 -92.5t134.5 -30v-41q-117 6 -222.5 6t-166.5 -6v41q102 23 161 178l482 1241h33l499 -1288q50 -127 142 -131v-41
q-84 6 -239.5 6zM634 1851q-54 0 -97 -39.5t-43 -106t42.5 -104.5t97.5 -38t98 38t43 104.5t-43.5 106t-97.5 39.5zM634 1520q-82 0 -139.5 51.5t-57.5 135.5t57.5 135.5t139.5 51.5t140 -51t58 -135.5t-58 -136t-140 -51.5z" />
    <glyph glyph-name="AE" unicode="&#xc6;" horiz-adv-x="1749" 
d="M856 750v483q0 38 -3 65l-330 -548h333zM1047 709v-492q0 -111 29.5 -140.5t135.5 -29.5h150q106 0 138 29q32 30 46 50q29 44 49 284h47q-6 -55 -6 -161.5t15 -248.5q-127 6 -438.5 6t-481.5 -6v41q57 3 81.5 16.5t34 48t9.5 111.5v492h-358l-299 -496q-38 -64 -38 -100
t35 -52.5t107 -19.5v-41q-61 6 -166.5 6t-156.5 -6v41q65 4 141 131l718 1184q-15 29 -48 39.5t-101 13.5v41q61 -2 203 -4l82 135h49l-82 -136q113 -1 333 -1t335 6q-15 -131 -15 -228.5t7 -140.5h-48q-13 151 -31 205q-19 54 -41 74q-47 42 -141 43h-129
q-106 0 -135.5 -29.5t-29.5 -140.5v-483h149q95 0 124 85q13 37 18.5 85.5t7.5 58.5h47q-8 -104 -8 -171l1 -79q0 -75 13 -250h-47l-3 24q-11 105 -33 144q-35 61 -120 62h-149z" />
    <glyph glyph-name="Ccedilla" unicode="&#xc7;" horiz-adv-x="1409" 
d="M855 -133q126 -1 126 -101q-1 -50 -39 -86q-68 -65 -182.5 -65t-179.5 23l8 36q42 -6 97 -6t110 21.5t55 70.5q0 58 -86 58q-58 0 -100 -15l56 169q-280 13 -445.5 209t-165.5 532q0 226 83 400.5t231 270t337 95.5q205 -1 347 -111q52 -40 70 -40q42 0 52 122h47
q-8 -133 -8 -471h-47q-22 134 -41 191.5t-62 111.5q-124 160 -362 160q-201 0 -322 -195t-121 -527.5t129.5 -520t333.5 -187.5q102 0 199 39t151 117q42 56 60 121.5t35 202.5h47q0 -353 8 -492h-47q-9 121 -50 121q-16 0 -42 -17q-90 -63 -169.5 -96.5t-191.5 -36.5
l-41 -118q61 14 120 14z" />
    <glyph glyph-name="Egrave" unicode="&#xc8;" horiz-adv-x="1247" 
d="M442 709v-492q0 -110 30 -140t136 -30h150q97 0 156.5 17.5t96.5 63.5t54 109.5t29 172.5h47q-6 -55 -6 -159.5t14 -250.5q-139 6 -500.5 6t-562.5 -6v41q74 3 106.5 16t46 48t13.5 112v1016q0 77 -13.5 112t-46 48t-106.5 16v41q201 -6 548 -6t474 6q-14 -134 -14 -228
t6 -141h-47q-21 196 -64.5 249.5t-99.5 63t-111 9.5h-170q-106 0 -136 -30t-30 -140v-483h136q76 0 114.5 38.5t48.5 77t13.5 57.5t7.5 52t6 45h47q-7 -102 -7 -193l1 -98q0 -104 12 -291h-47q-14 115 -23 146q-35 125 -173 125h-136zM284 1844q0 19 17 45.5t52.5 26.5
t71.5 -23t138.5 -116.5t200.5 -168.5l-14 -27q-112 57 -242 107.5t-177 80.5t-47 75z" />
    <glyph glyph-name="Eacute" unicode="&#xc9;" horiz-adv-x="1247" 
d="M442 709v-492q0 -110 30 -140t136 -30h150q97 0 156.5 17.5t96.5 63.5t54 109.5t29 172.5h47q-6 -55 -6 -159.5t14 -250.5q-139 6 -500.5 6t-562.5 -6v41q74 3 106.5 16t46 48t13.5 112v1016q0 77 -13.5 112t-46 48t-106.5 16v41q201 -6 548 -6t474 6q-14 -134 -14 -228
t6 -141h-47q-21 196 -64.5 249.5t-99.5 63t-111 9.5h-170q-106 0 -136 -30t-30 -140v-483h136q76 0 114.5 38.5t48.5 77t13.5 57.5t7.5 52t6 45h47q-7 -102 -7 -193l1 -98q0 -104 12 -291h-47q-14 115 -23 146q-35 125 -173 125h-136zM912.5 1916q35.5 0 52.5 -26.5
t17 -45.5q0 -45 -47 -75t-177 -80.5t-242 -107.5l-14 27q98 75 200.5 168.5t138.5 116.5t71.5 23z" />
    <glyph glyph-name="Ecircumflex" unicode="&#xca;" horiz-adv-x="1247" 
d="M442 709v-492q0 -110 30 -140t136 -30h150q97 0 156.5 17.5t96.5 63.5t54 109.5t29 172.5h47q-6 -55 -6 -159.5t14 -250.5q-139 6 -500.5 6t-562.5 -6v41q74 3 106.5 16t46 48t13.5 112v1016q0 77 -13.5 112t-46 48t-106.5 16v41q201 -6 548 -6t474 6q-14 -134 -14 -228
t6 -141h-47q-21 196 -64.5 249.5t-99.5 63t-111 9.5h-170q-106 0 -136 -30t-30 -140v-483h136q76 0 114.5 38.5t48.5 77t13.5 57.5t7.5 52t6 45h47q-7 -102 -7 -193l1 -98q0 -104 12 -291h-47q-14 115 -23 146q-35 125 -173 125h-136zM1018 1577q-275 58 -432 143
q-130 -85 -350 -143l-10 29q131 45 232.5 117.5t150.5 152.5h37q48 -80 149.5 -152.5t233.5 -117.5z" />
    <glyph glyph-name="Edieresis" unicode="&#xcb;" horiz-adv-x="1247" 
d="M442 709v-492q0 -110 30 -140t136 -30h150q97 0 156.5 17.5t96.5 63.5t54 109.5t29 172.5h47q-6 -55 -6 -159.5t14 -250.5q-139 6 -500.5 6t-562.5 -6v41q74 3 106.5 16t46 48t13.5 112v1016q0 77 -13.5 112t-46 48t-106.5 16v41q201 -6 548 -6t474 6q-14 -134 -14 -228
t6 -141h-47q-21 196 -64.5 249.5t-99.5 63t-111 9.5h-170q-106 0 -136 -30t-30 -140v-483h136q76 0 114.5 38.5t48.5 77t13.5 57.5t7.5 52t6 45h47q-7 -102 -7 -193l1 -98q0 -104 12 -291h-47q-14 115 -23 146q-35 125 -173 125h-136zM843.5 1581q-48.5 0 -83.5 35t-35 83.5
t35.5 84t83.5 35.5t83.5 -36t35.5 -84t-35.5 -83t-84 -35zM409 1581q-49 0 -83.5 34.5t-34.5 83.5t35 84.5t83 35.5t84 -36t36 -84t-35.5 -83t-84.5 -35z" />
    <glyph glyph-name="Igrave" unicode="&#xcc;" 
d="M442 1233v-1016q0 -77 13.5 -112t46 -48t106.5 -16v-41q-94 6 -265 6t-257 -6v41q74 3 106.5 16t46 48t13.5 112v1016q0 77 -13.5 112t-46 48t-106.5 16v41q85 -6 256.5 -6t265.5 6v-41q-74 -3 -106.5 -16t-46 -48t-13.5 -112zM5 1844q0 19 17 45.5t52.5 26.5t71.5 -23
t138.5 -116.5t200.5 -168.5l-14 -27q-112 57 -242 107.5t-177 80.5t-47 75z" />
    <glyph glyph-name="Iacute" unicode="&#xcd;" 
d="M442 1233v-1016q0 -77 13.5 -112t46 -48t106.5 -16v-41q-94 6 -265 6t-257 -6v41q74 3 106.5 16t46 48t13.5 112v1016q0 77 -13.5 112t-46 48t-106.5 16v41q85 -6 256.5 -6t265.5 6v-41q-74 -3 -106.5 -16t-46 -48t-13.5 -112zM633.5 1916q35.5 0 52.5 -26.5t17 -45.5
q0 -45 -47 -75t-177 -80.5t-242 -107.5l-14 27q98 75 200.5 168.5t138.5 116.5t71.5 23z" />
    <glyph glyph-name="Icircumflex" unicode="&#xce;" 
d="M442 1233v-1016q0 -77 13.5 -112t46 -48t106.5 -16v-41q-94 6 -265 6t-257 -6v41q74 3 106.5 16t46 48t13.5 112v1016q0 77 -13.5 112t-46 48t-106.5 16v41q85 -6 256.5 -6t265.5 6v-41q-74 -3 -106.5 -16t-46 -48t-13.5 -112zM739 1577q-275 58 -432 143
q-130 -85 -350 -143l-10 29q131 45 232.5 117.5t150.5 152.5h37q48 -80 149.5 -152.5t233.5 -117.5z" />
    <glyph glyph-name="Idieresis" unicode="&#xcf;" 
d="M442 1233v-1016q0 -77 13.5 -112t46 -48t106.5 -16v-41q-94 6 -265 6t-257 -6v41q74 3 106.5 16t46 48t13.5 112v1016q0 77 -13.5 112t-46 48t-106.5 16v41q85 -6 256.5 -6t265.5 6v-41q-74 -3 -106.5 -16t-46 -48t-13.5 -112zM565 1819q48 0 83.5 -36t35.5 -84
t-35.5 -83t-84 -35t-83.5 35t-35 83.5t35.5 84t83.5 35.5zM130 1819q48 0 84 -36t36 -84t-35.5 -83t-84 -35t-83.5 34.5t-35 83.5t35 84.5t83 35.5z" />
    <glyph glyph-name="Eth" unicode="&#xd0;" horiz-adv-x="1483" 
d="M606 37q103 0 189 20q87 19 149 61q125 83 173 234.5t48 354t-29.5 327t-95.5 210.5q-130 168 -444 169q-93 0 -122.5 -34.5t-29.5 -141.5v-487h285v-41h-285v-496q0 -108 29.5 -142t132.5 -34zM647 1450q362 0 542.5 -181t180.5 -524t-196 -544t-545 -201l-287 6
q-168 0 -254 -6v41q74 3 106.5 16t46 48t13.5 112v492h-166v41h166v483q0 77 -13.5 112t-46 48t-106.5 16v41q110 -7 200 -7l50 1q282 6 309 6z" />
    <glyph glyph-name="Ntilde" unicode="&#xd1;" horiz-adv-x="1446" 
d="M1206 1212v-1222h-47l-860 1329v-1081q0 -115 34.5 -154t151.5 -43v-41q-74 6 -202.5 6t-196.5 -6v41q103 4 134.5 43.5t31.5 153.5v995q0 77 -13.5 112t-46 48t-106.5 16v41q67 -6 175 -6t175 6l723 -1114v876q0 113 -27 144.5t-62.5 41t-96.5 11.5v41q73 -6 202 -6
t197 6v-41q-103 -4 -134.5 -43.5t-31.5 -153.5zM1081.5 1640q-64.5 -59 -146.5 -59t-172 56l-74 46q-90 56 -158 56q-96 0 -127 -115l-31 6q9 99 74 158t156 59t200 -78.5t199.5 -78.5t122.5 114l30 -6q-9 -99 -73.5 -158z" />
    <glyph glyph-name="Ograve" unicode="&#xd2;" horiz-adv-x="1518" 
d="M752 1442q-131 0 -231.5 -91.5t-154 -255t-53.5 -374.5q0 -320 129.5 -516.5t323.5 -196.5q131 0 231 91.5t153.5 255t53.5 374.5q0 320 -129.5 516.5t-322.5 196.5zM760 1479q296 0 472.5 -197.5t176.5 -544.5q0 -226 -83 -400.5t-231 -270t-337 -95.5
q-296 0 -472.5 197.5t-176.5 544.5q0 226 83 400.5t231 270t337 95.5zM413 1844q0 19 17 45.5t52.5 26.5t71.5 -23t138.5 -116.5t200.5 -168.5l-14 -27q-112 57 -242 107.5t-177 80.5t-47 75z" />
    <glyph glyph-name="Oacute" unicode="&#xd3;" horiz-adv-x="1518" 
d="M752 1442q-131 0 -231.5 -91.5t-154 -255t-53.5 -374.5q0 -320 129.5 -516.5t323.5 -196.5q131 0 231 91.5t153.5 255t53.5 374.5q0 320 -129.5 516.5t-322.5 196.5zM760 1479q296 0 472.5 -197.5t176.5 -544.5q0 -226 -83 -400.5t-231 -270t-337 -95.5
q-296 0 -472.5 197.5t-176.5 544.5q0 226 83 400.5t231 270t337 95.5zM1041.5 1916q35.5 0 52.5 -26.5t17 -45.5q0 -45 -47 -75t-177 -80.5t-242 -107.5l-14 27q98 75 200.5 168.5t138.5 116.5t71.5 23z" />
    <glyph glyph-name="Ocircumflex" unicode="&#xd4;" horiz-adv-x="1518" 
d="M752 1442q-131 0 -231.5 -91.5t-154 -255t-53.5 -374.5q0 -320 129.5 -516.5t323.5 -196.5q131 0 231 91.5t153.5 255t53.5 374.5q0 320 -129.5 516.5t-322.5 196.5zM760 1479q296 0 472.5 -197.5t176.5 -544.5q0 -226 -83 -400.5t-231 -270t-337 -95.5
q-296 0 -472.5 197.5t-176.5 544.5q0 226 83 400.5t231 270t337 95.5zM1147 1577q-275 58 -432 143q-130 -85 -350 -143l-10 29q131 45 232.5 117.5t150.5 152.5h37q48 -80 149.5 -152.5t233.5 -117.5z" />
    <glyph glyph-name="Otilde" unicode="&#xd5;" horiz-adv-x="1518" 
d="M752 1442q-131 0 -231.5 -91.5t-154 -255t-53.5 -374.5q0 -320 129.5 -516.5t323.5 -196.5q131 0 231 91.5t153.5 255t53.5 374.5q0 320 -129.5 516.5t-322.5 196.5zM760 1479q296 0 472.5 -197.5t176.5 -544.5q0 -226 -83 -400.5t-231 -270t-337 -95.5
q-296 0 -472.5 197.5t-176.5 544.5q0 226 83 400.5t231 270t337 95.5zM992.5 1690q90.5 0 122.5 114l30 -6q-9 -99 -73.5 -158t-146.5 -59t-172 56l-74 46q-90 56 -158 56q-96 0 -127 -115l-31 6q9 99 74 158t156 59t200 -78.5t199.5 -78.5z" />
    <glyph glyph-name="Odieresis" unicode="&#xd6;" horiz-adv-x="1518" 
d="M752 1442q-131 0 -231.5 -91.5t-154 -255t-53.5 -374.5q0 -320 129.5 -516.5t323.5 -196.5q131 0 231 91.5t153.5 255t53.5 374.5q0 320 -129.5 516.5t-322.5 196.5zM760 1479q296 0 472.5 -197.5t176.5 -544.5q0 -226 -83 -400.5t-231 -270t-337 -95.5
q-296 0 -472.5 197.5t-176.5 544.5q0 226 83 400.5t231 270t337 95.5zM973 1819q48 0 83.5 -36t35.5 -84t-35.5 -83t-84 -35t-83.5 35t-35 83.5t35.5 84t83.5 35.5zM538 1819q48 0 84 -36t36 -84t-35.5 -83t-84 -35t-83.5 34.5t-35 83.5t35 84.5t83 35.5z" />
    <glyph glyph-name="multiply" unicode="&#xd7;" horiz-adv-x="1044" 
d="M524 772l355 354l45 -45l-355 -352l355 -354l-45 -45l-355 354l-356 -356l-45 45l356 354l-358 358l45 45z" />
    <glyph glyph-name="Oslash" unicode="&#xd8;" horiz-adv-x="1518" 
d="M1204 729q0 282 -103 472l-655 -1001q126 -192 320 -192q131 0 231 91.5t153.5 255t53.5 374.5zM752 1442q-131 0 -231.5 -91.5t-154 -255t-53.5 -374.5q0 -279 103 -472l657 999q-61 93 -144 143.5t-177 50.5zM1409 737q0 -226 -83 -400.5t-231 -270t-337 -95.5
q-234 0 -398 127l-167 -248l-43 29l172 252q-213 200 -213 582q0 226 83 400.5t231 270t337 95.5q236 0 398 -127l159 231l39 -27l-161 -236q214 -199 214 -583z" />
    <glyph glyph-name="Ugrave" unicode="&#xd9;" horiz-adv-x="1397" 
d="M1176 1212v-616q0 -291 -84 -434q-52 -88 -151.5 -139.5t-223.5 -51.5q-225 0 -344 111q-90 84 -121 190t-31 318v643q0 58 -5.5 89.5t-25.5 51.5t-49.5 26.5t-85.5 8.5v41q87 -6 257 -6t266 6v-41q-56 -2 -85.5 -8.5t-49.5 -26.5t-25.5 -51.5t-5.5 -89.5v-678
q0 -263 53.5 -364t144.5 -131q54 -18 146 -17.5t170 39.5q202 100 202 491v639q0 111 -40 151.5t-146 45.5v41q74 -6 203 -6t196 6v-41q-102 -4 -133.5 -43t-31.5 -154zM378 1844q0 19 17 45.5t52.5 26.5t71.5 -23t138.5 -116.5t200.5 -168.5l-14 -27q-112 57 -242 107.5
t-177 80.5t-47 75z" />
    <glyph glyph-name="Uacute" unicode="&#xda;" horiz-adv-x="1397" 
d="M1176 1212v-616q0 -291 -84 -434q-52 -88 -151.5 -139.5t-223.5 -51.5q-225 0 -344 111q-90 84 -121 190t-31 318v643q0 58 -5.5 89.5t-25.5 51.5t-49.5 26.5t-85.5 8.5v41q87 -6 257 -6t266 6v-41q-56 -2 -85.5 -8.5t-49.5 -26.5t-25.5 -51.5t-5.5 -89.5v-678
q0 -263 53.5 -364t144.5 -131q54 -18 146 -17.5t170 39.5q202 100 202 491v639q0 111 -40 151.5t-146 45.5v41q74 -6 203 -6t196 6v-41q-102 -4 -133.5 -43t-31.5 -154zM1006.5 1916q35.5 0 52.5 -26.5t17 -45.5q0 -45 -47 -75t-177 -80.5t-242 -107.5l-14 27
q98 75 200.5 168.5t138.5 116.5t71.5 23z" />
    <glyph glyph-name="Ucircumflex" unicode="&#xdb;" horiz-adv-x="1397" 
d="M1176 1212v-616q0 -291 -84 -434q-52 -88 -151.5 -139.5t-223.5 -51.5q-225 0 -344 111q-90 84 -121 190t-31 318v643q0 58 -5.5 89.5t-25.5 51.5t-49.5 26.5t-85.5 8.5v41q87 -6 257 -6t266 6v-41q-56 -2 -85.5 -8.5t-49.5 -26.5t-25.5 -51.5t-5.5 -89.5v-678
q0 -263 53.5 -364t144.5 -131q54 -18 146 -17.5t170 39.5q202 100 202 491v639q0 111 -40 151.5t-146 45.5v41q74 -6 203 -6t196 6v-41q-102 -4 -133.5 -43t-31.5 -154zM1112 1577q-275 58 -432 143q-130 -85 -350 -143l-10 29q131 45 232.5 117.5t150.5 152.5h37
q48 -80 149.5 -152.5t233.5 -117.5z" />
    <glyph glyph-name="Udieresis" unicode="&#xdc;" horiz-adv-x="1397" 
d="M1176 1212v-616q0 -291 -84 -434q-52 -88 -151.5 -139.5t-223.5 -51.5q-225 0 -344 111q-90 84 -121 190t-31 318v643q0 58 -5.5 89.5t-25.5 51.5t-49.5 26.5t-85.5 8.5v41q87 -6 257 -6t266 6v-41q-56 -2 -85.5 -8.5t-49.5 -26.5t-25.5 -51.5t-5.5 -89.5v-678
q0 -263 53.5 -364t144.5 -131q54 -18 146 -17.5t170 39.5q202 100 202 491v639q0 111 -40 151.5t-146 45.5v41q74 -6 203 -6t196 6v-41q-102 -4 -133.5 -43t-31.5 -154zM938 1819q48 0 83.5 -36t35.5 -84t-35.5 -83t-84 -35t-83.5 35t-35 83.5t35.5 84t83.5 35.5zM503 1819
q48 0 84 -36t36 -84t-35.5 -83t-84.5 -35t-83.5 34.5t-34.5 83.5t35 84.5t83 35.5z" />
    <glyph glyph-name="Yacute" unicode="&#xdd;" horiz-adv-x="1210" 
d="M1037 1444q105 0 167 6v-41q-80 -18 -164 -182l-321 -637v-373q0 -58 5.5 -89.5t25.5 -51.5t49.5 -26.5t85.5 -8.5v-41q-96 6 -266 6t-257 -6v41q56 2 85.5 8.5t49.5 26.5t25.5 51.5t5.5 89.5v309l-415 766q-38 69 -65.5 92t-53.5 23v43q80 -6 229.5 -6t237.5 6v-43
q-144 0 -144 -79q0 -30 21 -71l341 -653l261 520q56 113 56 173.5t-45 85t-136 26.5v41q117 -6 222 -6zM908.5 1916q35.5 0 52.5 -26.5t17 -45.5q0 -45 -47 -75t-177 -80.5t-242 -107.5l-14 27q98 75 200.5 168.5t138.5 116.5t71.5 23z" />
    <glyph glyph-name="Thorn" unicode="&#xde;" horiz-adv-x="1188" 
d="M580 1106q-46 0 -138 -2v-780h123q238 0 314 171q41 92 41 259t-79.5 259.5t-260.5 92.5zM1124 745q0 -231 -165 -359q-133 -102 -373 -103h-144v-66q0 -77 13.5 -112t46 -48t106.5 -16v-41q-94 6 -265 6t-257 -6v41q74 3 106.5 16t46 48t13.5 112v1016q0 77 -13.5 112
t-46 48t-106.5 16v41q85 -6 256.5 -6t265.5 6v-41q-74 -3 -106.5 -16t-46 -48t-13.5 -112v-91l189 3q239 0 366 -111.5t127 -288.5z" />
    <glyph glyph-name="germandbls" unicode="&#xdf;" horiz-adv-x="1196" 
d="M595 1602q182 0 276 -78t94 -215q0 -75 -38 -149t-95 -126q-111 -104 -216 -147q204 -47 349 -189t145 -328t-109 -292t-253 -107q-144 0 -218 77q-40 42 -41 96q1 54 29 84t76 30t80 -27q31 -27 31 -73q0 -79 -89 -107q7 -19 38 -34t69 -15q78 0 142 73q63 73 63 249
q0 177 -82 328q-40 74 -106 132t-152 84q-48 -30 -70 -30q-46 0 -47 34q0 39 47 39q31 0 74 -16q100 78 144 174t44 229t-51 203t-149 70q-144 0 -184 -165q-14 -55 -13 -128v-1301q-81 29 -178 29t-162 -6v43q87 1 121 43t35 137v879q0 262 107 381t289 119z" />
    <glyph glyph-name="agrave" unicode="&#xe0;" horiz-adv-x="1020" 
d="M260 231.5q0 -72.5 45 -118t119 -45.5q136 0 231 155v402q-15 -23 -50 -43t-112 -57.5t-104.5 -54.5t-61 -47.5t-50.5 -74.5t-17 -116.5zM655 168q-110 -182 -327 -182q-99 0 -173.5 58t-74.5 173t90 187q92 72 284 149q30 11 42 17l38 17q26 11 36 17q10 8 28 18
q21 12 39 35.5t18 51.5v127q0 119 -49.5 162.5t-140.5 43.5q-145 0 -203 -73q41 -10 68.5 -43.5t27.5 -83.5t-32.5 -79.5t-86 -29.5t-83 35t-29.5 92q0 80 96 146q118 77 288 77q259 -1 311 -189q18 -64 18 -175v-569q0 -51 14.5 -74t52.5 -23t88 43l23 -35q-36 -27 -56 -40
q-54 -35 -142 -35q-165 0 -165 182zM224 1608.5q0 33.5 23.5 52.5t58 19t66.5 -42t96 -165.5t130 -227.5l-23 -18q-84 90 -188.5 181.5t-133.5 129t-29 71z" />
    <glyph glyph-name="aacute" unicode="&#xe1;" horiz-adv-x="1020" 
d="M260 231.5q0 -72.5 45 -118t119 -45.5q136 0 231 155v402q-15 -23 -50 -43t-112 -57.5t-104.5 -54.5t-61 -47.5t-50.5 -74.5t-17 -116.5zM655 168q-110 -182 -327 -182q-99 0 -173.5 58t-74.5 173t90 187q92 72 284 149q30 11 42 17l38 17q26 11 36 17q10 8 28 18
q21 12 39 35.5t18 51.5v127q0 119 -49.5 162.5t-140.5 43.5q-145 0 -203 -73q41 -10 68.5 -43.5t27.5 -83.5t-32.5 -79.5t-86 -29.5t-83 35t-29.5 92q0 80 96 146q118 77 288 77q259 -1 311 -189q18 -64 18 -175v-569q0 -51 14.5 -74t52.5 -23t88 43l23 -35q-36 -27 -56 -40
q-54 -35 -142 -35q-165 0 -165 182zM669.5 1680q34.5 0 58 -19t23.5 -52.5t-29 -71t-133.5 -129t-189.5 -181.5l-22 18q66 104 130 227.5t96 165.5t66.5 42z" />
    <glyph glyph-name="acircumflex" unicode="&#xe2;" horiz-adv-x="1020" 
d="M260 231.5q0 -72.5 45 -118t119 -45.5q136 0 231 155v402q-15 -23 -50 -43t-112 -57.5t-104.5 -54.5t-61 -47.5t-50.5 -74.5t-17 -116.5zM655 168q-110 -182 -327 -182q-99 0 -173.5 58t-74.5 173t90 187q92 72 284 149q30 11 42 17l38 17q26 11 36 17q10 8 28 18
q21 12 39 35.5t18 51.5v127q0 119 -49.5 162.5t-140.5 43.5q-145 0 -203 -73q41 -10 68.5 -43.5t27.5 -83.5t-32.5 -79.5t-86 -29.5t-83 35t-29.5 92q0 80 96 146q118 77 288 77q259 -1 311 -189q18 -64 18 -175v-569q0 -51 14.5 -74t52.5 -23t88 43l23 -35q-36 -27 -56 -40
q-54 -35 -142 -35q-165 0 -165 182zM848 1262q-245 84 -385 204q-114 -120 -303 -204l-17 28q117 58 208.5 153t133.5 199h37q42 -104 133.5 -199t208.5 -153z" />
    <glyph glyph-name="atilde" unicode="&#xe3;" horiz-adv-x="1020" 
d="M260 231.5q0 -72.5 45 -118t119 -45.5q136 0 231 155v402q-15 -23 -50 -43t-112 -57.5t-104.5 -54.5t-61 -47.5t-50.5 -74.5t-17 -116.5zM655 168q-110 -182 -327 -182q-99 0 -173.5 58t-74.5 173t90 187q92 72 284 149q30 11 42 17l38 17q26 11 36 17q10 8 28 18
q21 12 39 35.5t18 51.5v127q0 119 -49.5 162.5t-140.5 43.5q-145 0 -203 -73q41 -10 68.5 -43.5t27.5 -83.5t-32.5 -79.5t-86 -29.5t-83 35t-29.5 92q0 80 96 146q118 77 288 77q259 -1 311 -189q18 -64 18 -175v-569q0 -51 14.5 -74t52.5 -23t88 43l23 -35q-36 -27 -56 -40
q-54 -35 -142 -35q-165 0 -165 182zM662 1438q93 0 158 108l29 -14q-31 -108 -95.5 -159.5t-130.5 -51.5q-110 0 -183.5 68.5t-143.5 68.5q-91 0 -158 -110l-29 14q31 108 95.5 159.5t143.5 51.5q80 1 144 -47l52 -40q62 -48 118 -48z" />
    <glyph glyph-name="adieresis" unicode="&#xe4;" horiz-adv-x="1020" 
d="M260 231.5q0 -72.5 45 -118t119 -45.5q136 0 231 155v402q-15 -23 -50 -43t-112 -57.5t-104.5 -54.5t-61 -47.5t-50.5 -74.5t-17 -116.5zM655 168q-110 -182 -327 -182q-99 0 -173.5 58t-74.5 173t90 187q92 72 284 149q30 11 42 17l38 17q26 11 36 17q10 8 28 18
q21 12 39 35.5t18 51.5v127q0 119 -49.5 162.5t-140.5 43.5q-145 0 -203 -73q41 -10 68.5 -43.5t27.5 -83.5t-32.5 -79.5t-86 -29.5t-83 35t-29.5 92q0 80 96 146q118 77 288 77q259 -1 311 -189q18 -64 18 -175v-569q0 -51 14.5 -74t52.5 -23t88 43l23 -35q-36 -27 -56 -40
q-54 -35 -142 -35q-165 0 -165 182zM723 1522q48 0 83.5 -36t35.5 -84t-35.5 -83t-84 -35t-83 35t-34.5 83.5t35 84t83 35.5zM289 1522q48 0 83.5 -36t35.5 -84t-35.5 -83t-84 -35t-83.5 35t-35 83.5t35.5 84t83.5 35.5z" />
    <glyph glyph-name="aring" unicode="&#xe5;" horiz-adv-x="1020" 
d="M260 231.5q0 -72.5 45 -118t119 -45.5q136 0 231 155v402q-15 -23 -50 -43t-112 -57.5t-104.5 -54.5t-61 -47.5t-50.5 -74.5t-17 -116.5zM655 168q-110 -182 -327 -182q-99 0 -173.5 58t-74.5 173t90 187q92 72 284 149q30 11 42 17l38 17q26 11 36 17q10 8 28 18
q21 12 39 35.5t18 51.5v127q0 119 -49.5 162.5t-140.5 43.5q-145 0 -203 -73q41 -10 68.5 -43.5t27.5 -83.5t-32.5 -79.5t-86 -29.5t-83 35t-29.5 92q0 80 96 146q118 77 288 77q259 -1 311 -189q18 -64 18 -175v-569q0 -51 14.5 -74t52.5 -23t88 43l23 -35q-36 -27 -56 -40
q-54 -35 -142 -35q-165 0 -165 182zM505 1577q-54 0 -97 -39.5t-43 -106.5t42.5 -105t97.5 -38t98 38t43 105t-43.5 106.5t-97.5 39.5zM505 1620q82 0 140 -51.5t58 -135.5t-58 -136t-140 -52t-139.5 52t-57.5 136t57.5 135.5t139.5 51.5z" />
    <glyph glyph-name="ae" unicode="&#xe6;" horiz-adv-x="1520" 
d="M264 236q0 -99 46 -141t114 -42q142 0 225 170v402q-36 -42 -154.5 -99.5t-174.5 -124t-56 -165.5zM1060.5 1044q-88.5 0 -151 -93.5t-77.5 -278.5h403q5 159 -40.5 265.5t-134 106.5zM338 864q0 -50 -32.5 -80t-80 -30t-78 30.5t-30.5 77.5q0 82 101.5 151.5t275.5 69.5
q212 0 286 -130q107 130 285 130t272.5 -111.5t94.5 -338.5h-596q-7 -55 -7 -131q0 -202 86 -323.5t203 -121.5q176 0 260 205l41 -16q-34 -114 -124 -194.5t-224 -80.5t-230.5 67.5t-143.5 194.5q-115 -262 -351 -262q-150 -1 -222 95q-40 52 -40 124q0 134 82.5 204
t231 135.5t177.5 82.5q74 43 74 97v127q0 206 -200 206q-139 0 -197 -73q86 -19 86 -105z" />
    <glyph glyph-name="ccedilla" unicode="&#xe7;" horiz-adv-x="995" 
d="M609 -133q126 -1 126 -101q-1 -50 -39 -86q-68 -65 -183 -65t-180 23l9 36q42 -6 96.5 -6t110 21.5t55.5 70.5q0 58 -86 58q-59 0 -101 -15l58 174q-169 27 -275 170.5t-106 381t133.5 396t343.5 158.5q138 0 236 -65t98 -158q0 -54 -30.5 -84.5t-78 -30.5t-80 27.5
t-32.5 73.5t24.5 75.5t61.5 39.5q-20 37 -73 61.5t-103 24.5q-50 -1 -90 -15q-89 -33 -150 -149t-61 -338q0 -371 182 -461q51 -26 125.5 -25.5t154 51.5t130.5 160l39 -14q-33 -108 -126.5 -196.5t-250.5 -88.5h-19l-39 -118q61 14 120 14z" />
    <glyph glyph-name="egrave" unicode="&#xe8;" horiz-adv-x="1036" 
d="M549.5 1044q-97.5 0 -167 -93.5t-85.5 -278.5h446q6 159 -45 265.5t-148.5 106.5zM565 -29q-219 0 -345 146t-126 400t125.5 410t323.5 156q397 0 397 -450h-640q-7 -55 -7 -131q0 -201 94 -323t219 -122q206 0 301 205l41 -16q-37 -113 -138.5 -194t-244.5 -81z
M275 1608.5q0 33.5 23.5 52.5t58 19t66.5 -42t96 -165.5t130 -227.5l-23 -18q-84 90 -188.5 181.5t-133.5 129t-29 71z" />
    <glyph glyph-name="eacute" unicode="&#xe9;" horiz-adv-x="1036" 
d="M549.5 1044q-97.5 0 -167 -93.5t-85.5 -278.5h446q6 159 -45 265.5t-148.5 106.5zM565 -29q-219 0 -345 146t-126 400t125.5 410t323.5 156q397 0 397 -450h-640q-7 -55 -7 -131q0 -201 94 -323t219 -122q206 0 301 205l41 -16q-37 -113 -138.5 -194t-244.5 -81z
M720 1680q34 0 58 -19t24 -52.5t-29 -71t-133.5 -129t-189.5 -181.5l-22 18q66 104 130 227.5t96 165.5t66 42z" />
    <glyph glyph-name="ecircumflex" unicode="&#xea;" horiz-adv-x="1036" 
d="M549.5 1044q-97.5 0 -167 -93.5t-85.5 -278.5h446q6 159 -45 265.5t-148.5 106.5zM565 -29q-219 0 -345 146t-126 400t125.5 410t323.5 156q397 0 397 -450h-640q-7 -55 -7 -131q0 -201 94 -323t219 -122q206 0 301 205l41 -16q-37 -113 -138.5 -194t-244.5 -81z
M899 1262q-245 84 -385 204q-114 -120 -303 -204l-17 28q117 58 208.5 153t133.5 199h37q42 -104 133.5 -199t208.5 -153z" />
    <glyph glyph-name="edieresis" unicode="&#xeb;" horiz-adv-x="1036" 
d="M549.5 1044q-97.5 0 -167 -93.5t-85.5 -278.5h446q6 159 -45 265.5t-148.5 106.5zM565 -29q-219 0 -345 146t-126 400t125.5 410t323.5 156q397 0 397 -450h-640q-7 -55 -7 -131q0 -201 94 -323t219 -122q206 0 301 205l41 -16q-37 -113 -138.5 -194t-244.5 -81z
M773.5 1284q-48.5 0 -83 35t-34.5 83.5t35 84t83 35.5t83.5 -36t35.5 -84t-35.5 -83t-84 -35zM339.5 1284q-48.5 0 -83.5 35t-35 83.5t35.5 84t83.5 35.5t83.5 -36t35.5 -84t-35.5 -83t-84 -35z" />
    <glyph glyph-name="igrave" unicode="&#xec;" horiz-adv-x="600" 
d="M399 190q0 -84 35 -115.5t121 -31.5v-43q-188 8 -248 8t-248 -8v43q86 0 121 31.5t35 115.5v641q0 95 -34.5 138t-121.5 43v43q64 -6 160.5 -6t179.5 28v-887zM9 1608.5q0 33.5 24 52.5t58 19t66 -42t96 -165.5t130 -227.5l-23 -18q-84 90 -188.5 181.5t-133.5 129
t-29 71z" />
    <glyph glyph-name="iacute" unicode="&#xed;" horiz-adv-x="600" 
d="M399 190q0 -84 35 -115.5t121 -31.5v-43q-188 8 -248 8t-248 -8v43q86 0 121 31.5t35 115.5v641q0 95 -34.5 138t-121.5 43v43q64 -6 160.5 -6t179.5 28v-887zM536 1608.5q0 -33.5 -29 -71t-133.5 -129t-189.5 -181.5l-22 18q66 104 130 227.5t96 165.5t66 42t58 -19
t24 -52.5z" />
    <glyph glyph-name="icircumflex" unicode="&#xee;" horiz-adv-x="600" 
d="M399 190q0 -84 35 -115.5t121 -31.5v-43q-188 8 -248 8t-248 -8v43q86 0 121 31.5t35 115.5v641q0 95 -34.5 138t-121.5 43v43q64 -6 160.5 -6t179.5 28v-887zM633 1262q-245 84 -385 204q-114 -120 -303 -204l-17 28q117 58 208.5 153t133.5 199h37q42 -104 133.5 -199
t208.5 -153z" />
    <glyph glyph-name="idieresis" unicode="&#xef;" horiz-adv-x="600" 
d="M399 190q0 -84 35 -115.5t121 -31.5v-43q-188 8 -248 8t-248 -8v43q86 0 121 31.5t35 115.5v641q0 95 -34.5 138t-121.5 43v43q64 -6 160.5 -6t179.5 28v-887zM508 1522q48 0 83.5 -36t35.5 -84t-35.5 -83t-84 -35t-83 35t-34.5 83.5t35 84t83 35.5zM74 1522
q48 0 83.5 -36t35.5 -84t-35.5 -83t-84 -35t-83.5 35t-35 83.5t35.5 84t83.5 35.5z" />
    <glyph glyph-name="eth" unicode="&#xf0;" horiz-adv-x="1135" 
d="M546 12q114 0 196 133q83 133 83 473q0 169 -27 240q-26 70 -52 101t-71 56t-111 25q-122 0 -197 -119q-74 -119 -74 -403q1 -379 155 -478q44 -28 98 -28zM1020 618q0 -160 -39 -286t-105 -204q-134 -158 -333 -157q-197 0 -323 142t-126 409q0 171 76 320
q76 148 212 208q74 32 159 33q167 0 245 -106q-60 244 -218 396l-369 -181l-19 37l356 173q-100 85 -270 165l17 35q188 -75 319 -168l289 141l18 -37l-270 -131q381 -289 381 -789z" />
    <glyph glyph-name="ntilde" unicode="&#xf1;" horiz-adv-x="1223" 
d="M748 1083q143 0 217 -77q38 -42 54.5 -103.5t16.5 -165.5v-547q0 -84 35 -115.5t121 -31.5v-43q-188 8 -245.5 8t-229.5 -8v43q75 0 105 31.5t30 115.5v592q0 140 -42 188t-124 48q-127 0 -207 -107t-80 -266v-455q0 -84 30 -115.5t106 -31.5v-43q-172 8 -230 8t-246 -8
v43q86 0 121 31.5t35 115.5v641q0 95 -34.5 138t-121.5 43v43q64 -6 160.5 -6t179.5 28v-241q97 247 349 247zM785 1438q93 0 158 108l29 -14q-31 -108 -95.5 -159.5t-130.5 -51.5q-110 0 -183.5 68.5t-143.5 68.5q-91 0 -158 -110l-29 14q31 108 95.5 159.5t143.5 51.5
q79 1 143 -47l52 -40q62 -48 119 -48z" />
    <glyph glyph-name="ograve" unicode="&#xf2;" horiz-adv-x="1122" 
d="M561 1042q-123 0 -194.5 -126t-71.5 -389.5t71.5 -389t194.5 -125.5t194.5 125.5t71.5 389t-71.5 389.5t-194.5 126zM561 1083q255 -1 377 -191q88 -138 88 -366q0 -413 -282 -523q-82 -32 -183 -32q-202 0 -333.5 133.5t-131.5 421.5q0 336 189 474q114 83 276 83z
M287 1608.5q0 33.5 24 52.5t58 19t66 -42t96 -165.5t130 -227.5l-23 -18q-84 90 -188.5 181.5t-133.5 129t-29 71z" />
    <glyph glyph-name="oacute" unicode="&#xf3;" horiz-adv-x="1122" 
d="M561 1042q-123 0 -194.5 -126t-71.5 -389.5t71.5 -389t194.5 -125.5t194.5 125.5t71.5 389t-71.5 389.5t-194.5 126zM561 1083q255 -1 377 -191q88 -138 88 -366q0 -413 -282 -523q-82 -32 -183 -32q-202 0 -333.5 133.5t-131.5 421.5q0 336 189 474q114 83 276 83z
M814 1608.5q0 -33.5 -29 -71t-133.5 -129t-189.5 -181.5l-22 18q66 104 130 227.5t96 165.5t66 42t58 -19t24 -52.5z" />
    <glyph glyph-name="ocircumflex" unicode="&#xf4;" horiz-adv-x="1122" 
d="M561 1042q-123 0 -194.5 -126t-71.5 -389.5t71.5 -389t194.5 -125.5t194.5 125.5t71.5 389t-71.5 389.5t-194.5 126zM561 1083q255 -1 377 -191q88 -138 88 -366q0 -413 -282 -523q-82 -32 -183 -32q-202 0 -333.5 133.5t-131.5 421.5q0 336 189 474q114 83 276 83z
M911 1262q-245 84 -385 204q-114 -120 -303 -204l-17 28q117 58 208.5 153t133.5 199h37q42 -104 133.5 -199t208.5 -153z" />
    <glyph glyph-name="otilde" unicode="&#xf5;" horiz-adv-x="1122" 
d="M561 1042q-123 0 -194.5 -126t-71.5 -389.5t71.5 -389t194.5 -125.5t194.5 125.5t71.5 389t-71.5 389.5t-194.5 126zM561 1083q255 -1 377 -191q88 -138 88 -366q0 -413 -282 -523q-82 -32 -183 -32q-202 0 -333.5 133.5t-131.5 421.5q0 336 189 474q114 83 276 83z
M725 1438q93 0 158 108l29 -14q-31 -108 -95.5 -159.5t-130.5 -51.5q-110 0 -183.5 68.5t-143.5 68.5q-91 0 -158 -110l-29 14q31 108 95.5 159.5t143.5 51.5q79 1 143 -47l52 -40q62 -48 119 -48z" />
    <glyph glyph-name="odieresis" unicode="&#xf6;" horiz-adv-x="1122" 
d="M561 1042q-123 0 -194.5 -126t-71.5 -389.5t71.5 -389t194.5 -125.5t194.5 125.5t71.5 389t-71.5 389.5t-194.5 126zM561 1083q255 -1 377 -191q88 -138 88 -366q0 -413 -282 -523q-82 -32 -183 -32q-202 0 -333.5 133.5t-131.5 421.5q0 336 189 474q114 83 276 83z
M786 1522q48 0 83.5 -36t35.5 -84t-35.5 -83t-84 -35t-83 35t-34.5 83.5t35 84t83 35.5zM352 1522q48 0 83.5 -36t35.5 -84t-35.5 -83t-84 -35t-83.5 35t-35 83.5t35.5 84t83.5 35.5z" />
    <glyph glyph-name="divide" unicode="&#xf7;" horiz-adv-x="1329" 
d="M664 545q46 0 80 -33t34 -80t-34 -81t-80 -34t-80 34q-34 35 -33 81q-1 46 33 80t80 33zM1176 696h-1026v62h1026v-62zM664 1135q46 1 80 -33t34 -81t-33 -79t-81 -33q-48 1 -80 33q-33 32 -33 79q-1 47 33 81t80 33z" />
    <glyph glyph-name="oslash" unicode="&#xf8;" horiz-adv-x="1120" 
d="M555.5 12q128.5 0 200 125.5t71.5 351.5t-39 348l-429 -684q68 -141 196.5 -141zM568.5 1042q-130.5 0 -202 -126t-71.5 -354t41 -351l431 683q-68 148 -198.5 148zM1026 526q0 -413 -282 -523q-82 -32 -183 -32q-170 0 -285 89l-143 -210l-43 29l148 215
q-142 145 -142 432q0 336 189 474q114 83 282 83t283 -93l145 212l39 -26l-148 -219q140 -143 140 -431z" />
    <glyph glyph-name="ugrave" unicode="&#xf9;" horiz-adv-x="1190" 
d="M805 217q-97 -246 -351 -246q-122 0 -194 75.5t-72 270.5v514q0 95 -34 138t-121 43v43q64 -6 160 -6t180 28v-805q0 -146 37.5 -190.5t117.5 -44.5q119 0 198 106.5t79 264.5v423q0 95 -34.5 138t-121.5 43v43q64 -6 160.5 -6t179.5 28v-856q0 -95 34.5 -137.5
t121.5 -42.5v-43q-65 6 -162 6t-178 -29v242zM293 1608.5q0 33.5 23.5 52.5t58 19t66.5 -42t96 -165.5t130 -227.5l-23 -18q-84 90 -188.5 181.5t-133.5 129t-29 71z" />
    <glyph glyph-name="uacute" unicode="&#xfa;" horiz-adv-x="1190" 
d="M805 217q-97 -246 -351 -246q-122 0 -194 75.5t-72 270.5v514q0 95 -34 138t-121 43v43q64 -6 160 -6t180 28v-805q0 -146 37.5 -190.5t117.5 -44.5q119 0 198 106.5t79 264.5v423q0 95 -34.5 138t-121.5 43v43q64 -6 160.5 -6t179.5 28v-856q0 -95 34.5 -137.5
t121.5 -42.5v-43q-65 6 -162 6t-178 -29v242zM820 1608.5q0 -33.5 -29 -71t-133.5 -129t-189.5 -181.5l-22 18q66 104 130 227.5t96 165.5t66 42t58 -19t24 -52.5z" />
    <glyph glyph-name="ucircumflex" unicode="&#xfb;" horiz-adv-x="1190" 
d="M805 217q-97 -246 -351 -246q-122 0 -194 75.5t-72 270.5v514q0 95 -34 138t-121 43v43q64 -6 160 -6t180 28v-805q0 -146 37.5 -190.5t117.5 -44.5q119 0 198 106.5t79 264.5v423q0 95 -34.5 138t-121.5 43v43q64 -6 160.5 -6t179.5 28v-856q0 -95 34.5 -137.5
t121.5 -42.5v-43q-65 6 -162 6t-178 -29v242zM917 1262q-245 84 -385 204q-114 -120 -303 -204l-17 28q117 58 208.5 153t133.5 199h37q42 -104 133.5 -199t208.5 -153z" />
    <glyph glyph-name="udieresis" unicode="&#xfc;" horiz-adv-x="1190" 
d="M805 217q-97 -246 -351 -246q-122 0 -194 75.5t-72 270.5v514q0 95 -34 138t-121 43v43q64 -6 160 -6t180 28v-805q0 -146 37.5 -190.5t117.5 -44.5q119 0 198 106.5t79 264.5v423q0 95 -34.5 138t-121.5 43v43q64 -6 160.5 -6t179.5 28v-856q0 -95 34.5 -137.5
t121.5 -42.5v-43q-65 6 -162 6t-178 -29v242zM792 1522q48 0 83.5 -36t35.5 -84t-35.5 -83t-84 -35t-83 35t-34.5 83.5t35 84t83 35.5zM358 1522q48 0 83.5 -36t35.5 -84t-35.5 -83t-84 -35t-83.5 35t-35 83.5t35.5 84t83.5 35.5z" />
    <glyph glyph-name="yacute" unicode="&#xfd;" horiz-adv-x="1032" 
d="M192 -154q107 0 107 -104q0 -54 -55 -84q4 -2 12 -2q113 0 174 160l73 187l-372 894q-57 115 -139 115v43q96 -13 192.5 -13t274.5 13v-43q-93 0 -118 -16.5t-25 -54t26 -101.5l247 -612l226 593q22 60 22 101q0 82 -153 92v41q108 -6 186 -6t142 6v-41q-41 -5 -73 -37
t-60 -107l-406 -1058q-39 -101 -93 -149q-52 -48 -134 -48q-160 0 -160 123q0 49 29 78.5t77 29.5zM685.5 1680q34.5 0 58 -19t23.5 -52.5t-29 -71t-133.5 -129t-189.5 -181.5l-22 18q66 104 130 227.5t96 165.5t66.5 42z" />
    <glyph glyph-name="thorn" unicode="&#xfe;" horiz-adv-x="1145" 
d="M557 18q293 0 293 529q0 475 -238 475q-92 0 -166 -66t-106 -193v-613q66 -132 217 -132zM668 1083q167 0 274 -134t107 -374q1 -304 -159 -477q-117 -127 -310 -127q-78 1 -141 31t-99 80v-262q0 -84 49 -116t148 -32v-43q-271 9 -297 9t-220 -9v43q76 0 106 28t30 99
v1559q0 96 -34 138t-122 42v43q64 -6 162 -6t178 29v-743q46 106 132 164t196 58z" />
    <glyph glyph-name="ydieresis" unicode="&#xff;" horiz-adv-x="1032" 
d="M192 -154q107 0 107 -104q0 -54 -55 -84q4 -2 12 -2q113 0 174 160l73 187l-372 894q-57 115 -139 115v43q96 -13 192.5 -13t274.5 13v-43q-93 0 -118 -16.5t-25 -54t26 -101.5l247 -612l226 593q22 60 22 101q0 82 -153 92v41q108 -6 186 -6t142 6v-41q-41 -5 -73 -37
t-60 -107l-406 -1058q-39 -101 -93 -149q-52 -48 -134 -48q-160 0 -160 123q0 49 29 78.5t77 29.5zM738.5 1284q-48.5 0 -83 35t-34.5 83.5t35 84t83 35.5t83.5 -36t35.5 -84t-35.5 -83t-84 -35zM304.5 1284q-48.5 0 -83.5 35t-35 83.5t35.5 84t83.5 35.5t83.5 -36t35.5 -84
t-35.5 -83t-84 -35z" />
    <glyph glyph-name="Amacron" unicode="&#x100;" horiz-adv-x="1290" 
d="M801 590l-229 611l-235 -611h464zM1063.5 6q-155.5 0 -242.5 -6v41q78 3 111.5 19t33.5 54t-24 99l-126 336h-494l-84 -217q-41 -104 -41 -168.5t43.5 -92.5t134.5 -30v-41q-117 6 -222.5 6t-166.5 -6v41q102 23 161 178l482 1241h33l499 -1288q50 -127 142 -131v-41
q-84 6 -239.5 6zM993 1677h-721v52h721v-52z" />
    <glyph glyph-name="amacron" unicode="&#x101;" horiz-adv-x="1020" 
d="M260 231.5q0 -72.5 45 -118t119 -45.5q136 0 231 155v402q-15 -23 -50 -43t-112 -57.5t-104.5 -54.5t-61 -47.5t-50.5 -74.5t-17 -116.5zM655 168q-110 -182 -327 -182q-99 0 -173.5 58t-74.5 173t90 187q92 72 284 149q30 11 42 17l38 17q26 11 36 17q10 8 28 18
q21 12 39 35.5t18 51.5v127q0 119 -49.5 162.5t-140.5 43.5q-145 0 -203 -73q41 -10 68.5 -43.5t27.5 -83.5t-32.5 -79.5t-86 -29.5t-83 35t-29.5 92q0 80 96 146q118 77 288 77q259 -1 311 -189q18 -64 18 -175v-569q0 -51 14.5 -74t52.5 -23t88 43l23 -35q-36 -27 -56 -40
q-54 -35 -142 -35q-165 0 -165 182zM817 1407h-639v51h639v-51z" />
    <glyph glyph-name="Abreve" unicode="&#x102;" horiz-adv-x="1290" 
d="M801 590l-229 611l-235 -611h464zM1063.5 6q-155.5 0 -242.5 -6v41q78 3 111.5 19t33.5 54t-24 99l-126 336h-494l-84 -217q-41 -104 -41 -168.5t43.5 -92.5t134.5 -30v-41q-117 6 -222.5 6t-166.5 -6v41q102 23 161 178l482 1241h33l499 -1288q50 -127 142 -131v-41
q-84 6 -239.5 6zM633 1729q134 0 230 38.5t153 94.5l24 -23q-54 -88 -155 -162.5t-252 -74.5q-98 0 -183.5 39t-136 88.5t-88.5 109.5l27 21q133 -131 381 -131z" />
    <glyph glyph-name="abreve" unicode="&#x103;" horiz-adv-x="1020" 
d="M260 231.5q0 -72.5 45 -118t119 -45.5q136 0 231 155v402q-15 -23 -50 -43t-112 -57.5t-104.5 -54.5t-61 -47.5t-50.5 -74.5t-17 -116.5zM655 168q-110 -182 -327 -182q-99 0 -173.5 58t-74.5 173t90 187q92 72 284 149q30 11 42 17l38 17q26 11 36 17q10 8 28 18
q21 12 39 35.5t18 51.5v127q0 119 -49.5 162.5t-140.5 43.5q-145 0 -203 -73q41 -10 68.5 -43.5t27.5 -83.5t-32.5 -79.5t-86 -29.5t-83 35t-29.5 92q0 80 96 146q118 77 288 77q259 -1 311 -189q18 -64 18 -175v-569q0 -51 14.5 -74t52.5 -23t88 43l23 -35q-36 -27 -56 -40
q-54 -35 -142 -35q-165 0 -165 182zM275.5 1388.5q-92.5 92.5 -139.5 206.5l34 19q120 -197 333 -197t331 197l35 -19q-46 -113 -138 -206t-227.5 -93t-228 92.5z" />
    <glyph glyph-name="Aogonek" unicode="&#x104;" horiz-adv-x="1290" 
d="M801 590l-229 611l-235 -611h464zM1155 -287q76 0 125 68l30 -27q-91 -139 -231 -139q-73 0 -117.5 36.5t-44.5 106t72.5 136.5t206.5 111q-37 1 -162.5 1t-212.5 -6v41q78 3 111.5 19t33.5 54t-24 99l-126 336h-494l-84 -217q-41 -104 -41 -168.5t43.5 -92.5t134.5 -30
v-41q-117 6 -222.5 6t-166.5 -6v41q102 23 161 178l482 1241h33l499 -1288q50 -127 142 -131v-41l-38 2q-105 -30 -151.5 -85t-46.5 -105q0 -99 88 -99z" />
    <glyph glyph-name="aogonek" unicode="&#x105;" horiz-adv-x="1020" 
d="M260 231.5q0 -72.5 45 -118t119 -45.5q136 0 231 155v402q-15 -23 -50 -43t-112 -57.5t-104.5 -54.5t-61 -47.5t-50.5 -74.5t-17 -116.5zM655 168q-110 -182 -327 -182q-99 0 -173.5 58t-74.5 173t90 187q92 72 284 149q30 11 42 17l38 17q26 11 36 17q10 8 28 18
q21 12 39 35.5t18 51.5v127q0 119 -49.5 162.5t-140.5 43.5q-145 0 -203 -73q41 -10 68.5 -43.5t27.5 -83.5t-32.5 -79.5t-86 -29.5t-83 35t-29.5 92q0 80 96 146q118 77 288 77q259 -1 311 -189q18 -64 18 -175v-569q0 -51 14.5 -74t52.5 -23t88 43l23 -35
q-56 -43 -74.5 -51t-33.5 -14q-178 -76 -178 -193q0 -41 23.5 -65.5t64.5 -24.5q76 0 125 68l30 -27q-91 -139 -231 -139q-73 0 -117.5 36.5t-44.5 96.5q0 145 229 239q-156 9 -156 181z" />
    <glyph glyph-name="Cacute" unicode="&#x106;" horiz-adv-x="1409" 
d="M1179 121q-16 0 -42 -17q-93 -65 -176.5 -99t-202.5 -34q-296 0 -472.5 197.5t-176.5 544.5q0 226 83 400.5t231 270t337 95.5q205 -1 347 -111q52 -40 70 -40q42 0 52 122h47q-8 -133 -8 -471h-47q-22 134 -41 191.5t-62 111.5q-124 160 -362 160q-201 0 -322 -195
t-121 -527.5t129.5 -520t333.5 -187.5q102 0 199 39t151 117q42 56 60 121.5t35 202.5h47q0 -353 8 -492h-47q-9 121 -50 121zM1030.5 1916q35.5 0 52.5 -26.5t17 -45.5q0 -45 -47 -75t-177 -80.5t-242 -107.5l-14 27q98 75 200.5 168.5t138.5 116.5t71.5 23z" />
    <glyph glyph-name="cacute" unicode="&#x107;" horiz-adv-x="995" 
d="M571 1083q138 0 236 -65t98 -158q0 -54 -30.5 -84.5t-78 -30.5t-80 27.5t-32.5 73.5t24.5 75.5t61.5 39.5q-20 37 -73 61.5t-103 24.5q-50 -1 -90 -15q-89 -33 -150 -149t-61 -338q0 -371 182 -461q51 -26 125.5 -25.5t154 51.5t130.5 160l39 -14q-33 -108 -126.5 -196.5
t-250.5 -88.5q-193 0 -323 146t-130 397.5t133.5 410t343.5 158.5zM786 1608.5q0 -33.5 -29 -71t-133.5 -129t-189.5 -181.5l-22 18q66 104 130 227.5t96 165.5t66 42t58 -19t24 -52.5z" />
    <glyph glyph-name="Ccircumflex" unicode="&#x108;" horiz-adv-x="1409" 
d="M1179 121q-16 0 -42 -17q-93 -65 -176.5 -99t-202.5 -34q-296 0 -472.5 197.5t-176.5 544.5q0 226 83 400.5t231 270t337 95.5q205 -1 347 -111q52 -40 70 -40q42 0 52 122h47q-8 -133 -8 -471h-47q-22 134 -41 191.5t-62 111.5q-124 160 -362 160q-201 0 -322 -195
t-121 -527.5t129.5 -520t333.5 -187.5q102 0 199 39t151 117q42 56 60 121.5t35 202.5h47q0 -353 8 -492h-47q-9 121 -50 121zM1136 1577q-275 58 -432 143q-130 -85 -350 -143l-10 29q131 45 232.5 117.5t150.5 152.5h37q48 -80 149.5 -152.5t233.5 -117.5z" />
    <glyph glyph-name="ccircumflex" unicode="&#x109;" horiz-adv-x="995" 
d="M571 1083q138 0 236 -65t98 -158q0 -54 -30.5 -84.5t-78 -30.5t-80 27.5t-32.5 73.5t24.5 75.5t61.5 39.5q-20 37 -73 61.5t-103 24.5q-50 -1 -90 -15q-89 -33 -150 -149t-61 -338q0 -371 182 -461q51 -26 125.5 -25.5t154 51.5t130.5 160l39 -14q-33 -108 -126.5 -196.5
t-250.5 -88.5q-193 0 -323 146t-130 397.5t133.5 410t343.5 158.5zM883 1262q-245 84 -385 204q-114 -120 -303 -204l-17 28q117 58 208.5 153t133.5 199h37q42 -104 133.5 -199t208.5 -153z" />
    <glyph glyph-name="Cdotaccent" unicode="&#x10a;" horiz-adv-x="1409" 
d="M1179 121q-16 0 -42 -17q-93 -65 -176.5 -99t-202.5 -34q-296 0 -472.5 197.5t-176.5 544.5q0 226 83 400.5t231 270t337 95.5q205 -1 347 -111q52 -40 70 -40q42 0 52 122h47q-8 -133 -8 -471h-47q-22 134 -41 191.5t-62 111.5q-124 160 -362 160q-201 0 -322 -195
t-121 -527.5t129.5 -520t333.5 -187.5q102 0 199 39t151 117q42 56 60 121.5t35 202.5h47q0 -353 8 -492h-47q-9 121 -50 121zM771.5 1843q53.5 0 92.5 -38.5t39 -92.5t-39 -92.5t-92.5 -38.5t-92 38.5t-38.5 92.5t38.5 92.5t92 38.5z" />
    <glyph glyph-name="cdotaccent" unicode="&#x10b;" horiz-adv-x="995" 
d="M571 1083q138 0 236 -65t98 -158q0 -54 -30.5 -84.5t-78 -30.5t-80 27.5t-32.5 73.5t24.5 75.5t61.5 39.5q-20 37 -73 61.5t-103 24.5q-50 -1 -90 -15q-89 -33 -150 -149t-61 -338q0 -371 182 -461q51 -26 125.5 -25.5t154 51.5t130.5 160l39 -14q-33 -108 -126.5 -196.5
t-250.5 -88.5q-193 0 -323 146t-130 397.5t133.5 410t343.5 158.5zM567.5 1567q53.5 0 92.5 -39t39 -92.5t-39 -92t-92.5 -38.5t-92 38.5t-38.5 92t38.5 92.5t92 39z" />
    <glyph glyph-name="Ccaron" unicode="&#x10c;" horiz-adv-x="1409" 
d="M1179 121q-16 0 -42 -17q-93 -65 -176.5 -99t-202.5 -34q-296 0 -472.5 197.5t-176.5 544.5q0 226 83 400.5t231 270t337 95.5q205 -1 347 -111q52 -40 70 -40q42 0 52 122h47q-8 -133 -8 -471h-47q-22 134 -41 191.5t-62 111.5q-124 160 -362 160q-201 0 -322 -195
t-121 -527.5t129.5 -520t333.5 -187.5q102 0 199 39t151 117q42 56 60 121.5t35 202.5h47q0 -353 8 -492h-47q-9 121 -50 121zM348 1896q267 -55 432 -143q138 89 350 143l11 -28q-132 -46 -233.5 -118.5t-149.5 -152.5h-37q-49 80 -150.5 152.5t-232.5 118.5z" />
    <glyph glyph-name="ccaron" unicode="&#x10d;" horiz-adv-x="995" 
d="M571 1083q138 0 236 -65t98 -158q0 -54 -30.5 -84.5t-78 -30.5t-80 27.5t-32.5 73.5t24.5 75.5t61.5 39.5q-20 37 -73 61.5t-103 24.5q-50 -1 -90 -15q-89 -33 -150 -149t-61 -338q0 -371 182 -461q51 -26 125.5 -25.5t154 51.5t130.5 160l39 -14q-33 -108 -126.5 -196.5
t-250.5 -88.5q-193 0 -323 146t-130 397.5t133.5 410t343.5 158.5zM863 1642l16 -28q-117 -58 -208.5 -153t-133.5 -199h-37q-42 104 -133.5 199t-208.5 153l17 28q111 -38 216 -94t169 -110q114 120 303 204z" />
    <glyph glyph-name="Dcaron" unicode="&#x10e;" horiz-adv-x="1481" 
d="M594 1413q-93 0 -122.5 -34.5t-29.5 -141.5v-1024q0 -108 29.5 -142t132.5 -34t189 20q87 19 149 61q125 83 173 234.5t48 354t-29.5 327t-95.5 210.5q-130 168 -444 169zM645 1450q362 0 542.5 -181t180.5 -524t-196 -544t-545 -201l-287 6q-168 0 -254 -6v41
q74 3 106.5 16t46 48t13.5 112v1016q0 77 -13.5 112t-46 48t-106.5 16v41q110 -7 200 -7l50 1q282 6 309 6zM248 1896q267 -55 432 -143q138 89 350 143l11 -28q-132 -46 -233.5 -118.5t-149.5 -152.5h-37q-49 80 -150.5 152.5t-232.5 118.5z" />
    <glyph glyph-name="dcaron" unicode="&#x10f;" horiz-adv-x="1190" 
d="M578 1036q-126 0 -204 -130t-77 -380q-2 -493 278 -493q81 0 145 62t87 174v609q-57 158 -229 158zM1153 1450q-1 52 -9 70q-8 20 -32 20v43q12 -1 53 -1t102 24q11 -26 11 -74t-22 -115t-116 -264l-28 8q41 237 41 289zM991 223q1 -95 35 -137t121 -43v-43q-65 6 -162 6
t-178 -29v182q-77 -188 -283 -188t-316 141q-111 141 -110 414q-2 136 36 244t103 175q134 138 315 138t255 -121v398q-1 96 -35 138t-121 42v43q65 -6 162 -6t178 29v-1383z" />
    <glyph glyph-name="Dcroat" unicode="&#x110;" horiz-adv-x="1483" 
d="M606 37q103 0 189 20q87 19 149 61q125 83 173 234.5t48 354t-29.5 327t-95.5 210.5q-130 168 -444 169q-93 0 -122.5 -34.5t-29.5 -141.5v-487h285v-41h-285v-496q0 -108 29.5 -142t132.5 -34zM647 1450q362 0 542.5 -181t180.5 -524t-196 -544t-545 -201l-287 6
q-168 0 -254 -6v41q74 3 106.5 16t46 48t13.5 112v492h-166v41h166v483q0 77 -13.5 112t-46 48t-106.5 16v41q110 -7 200 -7l50 1q282 6 309 6z" />
    <glyph glyph-name="dcroat" unicode="&#x111;" horiz-adv-x="1190" 
d="M578 1036q-126 0 -204 -130t-77 -380q-2 -493 278 -493q81 0 145 62t87 174v609q-57 158 -229 158zM991 1245v-1022q1 -95 35 -137t121 -43v-43q-65 6 -162 6t-178 -29v182q-77 -188 -283 -188t-316 141q-111 141 -110 414q-2 136 36 244t103 175q134 138 315 138
t255 -121v283h-365v41h365v74q-1 96 -35 138t-121 42v43q65 -6 162 -6t178 29v-320h176v-41h-176z" />
    <glyph glyph-name="Emacron" unicode="&#x112;" horiz-adv-x="1247" 
d="M442 709v-492q0 -110 30 -140t136 -30h150q97 0 156.5 17.5t96.5 63.5t54 109.5t29 172.5h47q-6 -55 -6 -159.5t14 -250.5q-139 6 -500.5 6t-562.5 -6v41q74 3 106.5 16t46 48t13.5 112v1016q0 77 -13.5 112t-46 48t-106.5 16v41q201 -6 548 -6t474 6q-14 -134 -14 -228
t6 -141h-47q-21 196 -64.5 249.5t-99.5 63t-111 9.5h-170q-106 0 -136 -30t-30 -140v-483h136q76 0 114.5 38.5t48.5 77t13.5 57.5t7.5 52t6 45h47q-7 -102 -7 -193l1 -98q0 -104 12 -291h-47q-14 115 -23 146q-35 125 -173 125h-136zM987 1677h-721v52h721v-52z" />
    <glyph glyph-name="emacron" unicode="&#x113;" horiz-adv-x="1036" 
d="M549.5 1044q-97.5 0 -167 -93.5t-85.5 -278.5h446q6 159 -45 265.5t-148.5 106.5zM565 -29q-219 0 -345 146t-126 400t125.5 410t323.5 156q397 0 397 -450h-640q-7 -55 -7 -131q0 -201 94 -323t219 -122q206 0 301 205l41 -16q-37 -113 -138.5 -194t-244.5 -81z
M868 1407h-639v51h639v-51z" />
    <glyph glyph-name="Ebreve" unicode="&#x114;" horiz-adv-x="1247" 
d="M442 709v-492q0 -110 30 -140t136 -30h150q97 0 156.5 17.5t96.5 63.5t54 109.5t29 172.5h47q-6 -55 -6 -159.5t14 -250.5q-139 6 -500.5 6t-562.5 -6v41q74 3 106.5 16t46 48t13.5 112v1016q0 77 -13.5 112t-46 48t-106.5 16v41q201 -6 548 -6t474 6q-14 -134 -14 -228
t6 -141h-47q-21 196 -64.5 249.5t-99.5 63t-111 9.5h-170q-106 0 -136 -30t-30 -140v-483h136q76 0 114.5 38.5t48.5 77t13.5 57.5t7.5 52t6 45h47q-7 -102 -7 -193l1 -98q0 -104 12 -291h-47q-14 115 -23 146q-35 125 -173 125h-136zM627 1602q-98 0 -183.5 39t-136 88.5
t-88.5 109.5l27 21q133 -131 381 -131q134 0 230 38.5t153 94.5l24 -23q-54 -88 -155 -162.5t-252 -74.5z" />
    <glyph glyph-name="ebreve" unicode="&#x115;" horiz-adv-x="1036" 
d="M549.5 1044q-97.5 0 -167 -93.5t-85.5 -278.5h446q6 159 -45 265.5t-148.5 106.5zM565 -29q-219 0 -345 146t-126 400t125.5 410t323.5 156q397 0 397 -450h-640q-7 -55 -7 -131q0 -201 94 -323t219 -122q206 0 301 205l41 -16q-37 -113 -138.5 -194t-244.5 -81z
M326.5 1388.5q-92.5 92.5 -139.5 206.5l34 19q120 -197 333 -197t331 197l35 -19q-46 -113 -138 -206t-227.5 -93t-228 92.5z" />
    <glyph glyph-name="Edotaccent" unicode="&#x116;" horiz-adv-x="1247" 
d="M442 709v-492q0 -110 30 -140t136 -30h150q97 0 156.5 17.5t96.5 63.5t54 109.5t29 172.5h47q-6 -55 -6 -159.5t14 -250.5q-139 6 -500.5 6t-562.5 -6v41q74 3 106.5 16t46 48t13.5 112v1016q0 77 -13.5 112t-46 48t-106.5 16v41q201 -6 548 -6t474 6q-14 -134 -14 -228
t6 -141h-47q-21 196 -64.5 249.5t-99.5 63t-111 9.5h-170q-106 0 -136 -30t-30 -140v-483h136q76 0 114.5 38.5t48.5 77t13.5 57.5t7.5 52t6 45h47q-7 -102 -7 -193l1 -98q0 -104 12 -291h-47q-14 115 -23 146q-35 125 -173 125h-136zM653.5 1581q-53.5 0 -92 38.5
t-38.5 92.5t38.5 92.5t92 38.5t92.5 -38.5t39 -92.5t-39 -92.5t-92.5 -38.5z" />
    <glyph glyph-name="edotaccent" unicode="&#x117;" horiz-adv-x="1036" 
d="M549.5 1044q-97.5 0 -167 -93.5t-85.5 -278.5h446q6 159 -45 265.5t-148.5 106.5zM565 -29q-219 0 -345 146t-126 400t125.5 410t323.5 156q397 0 397 -450h-640q-7 -55 -7 -131q0 -201 94 -323t219 -122q206 0 301 205l41 -16q-37 -113 -138.5 -194t-244.5 -81z
M554.5 1305q-53.5 0 -92 38.5t-38.5 92t38.5 92.5t92 39t92.5 -39t39 -92.5t-39 -92t-92.5 -38.5z" />
    <glyph glyph-name="Eogonek" unicode="&#x118;" horiz-adv-x="1247" 
d="M1026 -287q76 0 125 68l30 -27q-91 -139 -231 -139q-73 0 -117.5 36.5t-44.5 106t71 135.5t203 110q-126 3 -450.5 3t-525.5 -6v41q74 3 106.5 16t46 48t13.5 112v1016q0 77 -13.5 112t-46 48t-106.5 16v41q201 -6 548 -6t474 6q-14 -134 -14 -228t6 -141h-47
q-21 196 -64 250q-44 53 -100 62.5t-111 9.5h-170q-106 0 -136 -30t-30 -140v-483h136q76 0 114 38t48.5 77t14 58t7.5 52t6 45h47q-7 -102 -7 -193l1 -98q0 -104 12 -291h-47q-14 115 -23 146q-35 125 -173 125h-136v-492q0 -110 30 -140t136 -30h150q97 0 156.5 17.5
t96.5 63.5t54 109.5t29 172.5h47q-6 -55 -6 -156t7 -175.5t7 -78.5l-18 1q-101 -31 -147 -85t-46 -104q0 -98 88 -99z" />
    <glyph glyph-name="eogonek" unicode="&#x119;" horiz-adv-x="1036" 
d="M549.5 1044q-97.5 0 -167 -93.5t-85.5 -278.5h446q6 159 -45 265.5t-148.5 106.5zM529 -197q0 -41 23.5 -65.5t64.5 -24.5q76 0 125 68l30 -27q-91 -139 -231 -139q-73 0 -117.5 36.5t-44.5 96.5q0 133 193 223h-7q-219 0 -345 146t-126 400t125.5 410t323.5 156
q397 0 397 -450h-640q-7 -55 -7 -131q0 -201 94 -323t219 -122q206 0 301 205l41 -16q-25 -78 -85 -144.5t-144 -101.5l-7 -2l-9 -4q-174 -75 -174 -191z" />
    <glyph glyph-name="Ecaron" unicode="&#x11a;" horiz-adv-x="1247" 
d="M442 709v-492q0 -110 30 -140t136 -30h150q97 0 156.5 17.5t96.5 63.5t54 109.5t29 172.5h47q-6 -55 -6 -159.5t14 -250.5q-139 6 -500.5 6t-562.5 -6v41q74 3 106.5 16t46 48t13.5 112v1016q0 77 -13.5 112t-46 48t-106.5 16v41q201 -6 548 -6t474 6q-14 -134 -14 -228
t6 -141h-47q-21 196 -64.5 249.5t-99.5 63t-111 9.5h-170q-106 0 -136 -30t-30 -140v-483h136q76 0 114.5 38.5t48.5 77t13.5 57.5t7.5 52t6 45h47q-7 -102 -7 -193l1 -98q0 -104 12 -291h-47q-14 115 -23 146q-35 125 -173 125h-136zM230 1896q267 -55 432 -143
q138 89 350 143l11 -28q-132 -46 -233.5 -118.5t-149.5 -152.5h-37q-49 80 -150.5 152.5t-232.5 118.5z" />
    <glyph glyph-name="ecaron" unicode="&#x11b;" horiz-adv-x="1036" 
d="M549.5 1044q-97.5 0 -167 -93.5t-85.5 -278.5h446q6 159 -45 265.5t-148.5 106.5zM565 -29q-219 0 -345 146t-126 400t125.5 410t323.5 156q397 0 397 -450h-640q-7 -55 -7 -131q0 -201 94 -323t219 -122q206 0 301 205l41 -16q-37 -113 -138.5 -194t-244.5 -81z
M553 1262h-37q-42 104 -133.5 199t-208.5 153l17 28q111 -38 216 -94t169 -110q114 120 303 204l16 -28q-117 -58 -208.5 -153t-133.5 -199z" />
    <glyph glyph-name="Gcircumflex" unicode="&#x11c;" horiz-adv-x="1440" 
d="M1180 1325q39 0 51 125h47q-8 -133 -8 -471h-47q-23 141 -48 203q-59 148 -210 217q-95 43 -199 43q-205 0 -328 -195t-123 -543.5t118.5 -520t369.5 -171.5q123 0 213 64q37 25 48 48t11 64v197q0 123 -38 157.5t-169 39.5v41q101 -7 267 -7t235 7v-41q-48 -4 -68 -16.5
t-28 -46.5t-8 -113v-406h-41q-2 42 -17 79.5t-37.5 37.5t-68.5 -35q-147 -111 -320 -111q-317 0 -494 193t-177 536q0 176 49.5 323t137 246.5t209 154.5t256 55t215.5 -38t134 -77t68 -39zM1130 1577q-275 58 -432 143q-130 -85 -350 -143l-10 29q131 45 232.5 117.5
t150.5 152.5h37q48 -80 149.5 -152.5t233.5 -117.5z" />
    <glyph glyph-name="gcircumflex" unicode="&#x11d;" horiz-adv-x="1034" 
d="M468 -350q86 0 154 20t127 55q58 36 94 93t36 119t-34 87t-122 25h-357q-68 -35 -106 -91t-37 -118q-1 -90 79 -140t166 -50zM496 1047q-92 0 -140 -65t-47 -222q-1 -157 47 -222t140 -65q92 -1 138 65q48 66 48 222t-48 222q-46 66 -138 65zM117 760q0 161 104 242
t275 81q75 0 145 -17q17 91 64 161q61 96 147 96q47 -1 78 -31t31 -78t-30 -80t-77 -32q-48 0 -76 26t-33 70q-19 -7 -39 -53t-29 -91q197 -73 197 -294q0 -162 -104 -243t-274 -81q-72 0 -133 15q-115 -74 -133 -114q-8 -19 -9 -53q0 -34 27 -46t88 -13h424q239 0 239 -196
q-1 -122 -89 -227q-158 -187 -476 -187q-155 -1 -267 49t-112 131q0 141 257 254h-7q-145 0 -190 90q-15 30 -15 83q0 117 223 240q-206 72 -206 298zM455 1466q-114 -120 -303 -204l-17 28q117 58 209 153t133 199h37q22 -84 78 -162t125 -128l-21 -29q-144 56 -241 143z
" />
    <glyph glyph-name="Gbreve" unicode="&#x11e;" horiz-adv-x="1440" 
d="M1180 1325q39 0 51 125h47q-8 -133 -8 -471h-47q-23 141 -48 203q-59 148 -210 217q-95 43 -199 43q-205 0 -328 -195t-123 -543.5t118.5 -520t369.5 -171.5q123 0 213 64q37 25 48 48t11 64v197q0 123 -38 157.5t-169 39.5v41q101 -7 267 -7t235 7v-41q-48 -4 -68 -16.5
t-28 -46.5t-8 -113v-406h-41q-2 42 -17 79.5t-37.5 37.5t-68.5 -35q-147 -111 -320 -111q-317 0 -494 193t-177 536q0 176 49.5 323t137 246.5t209 154.5t256 55t215.5 -38t134 -77t68 -39zM739 1602q-98 0 -183.5 39t-136 88.5t-88.5 109.5l27 21q133 -131 381 -131
q134 0 230 38.5t153 94.5l24 -23q-54 -88 -155 -162.5t-252 -74.5z" />
    <glyph glyph-name="gbreve" unicode="&#x11f;" horiz-adv-x="1034" 
d="M468 -350q86 0 154 20t127 55q58 36 94 93t36 119t-34 87t-122 25h-357q-68 -35 -106 -91t-37 -118q-1 -90 79 -140t166 -50zM496 1047q-92 0 -140 -65t-47 -222q-1 -157 47 -222t140 -65q92 -1 138 65q48 66 48 222t-48 222q-46 66 -138 65zM117 760q0 161 104 242
t275 81q75 0 145 -17q17 91 64 161q61 96 147 96q47 -1 78 -31t31 -78t-30 -80t-77 -32q-48 0 -76 26t-33 70q-19 -7 -39 -53t-29 -91q197 -73 197 -294q0 -162 -104 -243t-274 -81q-72 0 -133 15q-115 -74 -133 -114q-8 -19 -9 -53q0 -34 27 -46t88 -13h424q239 0 239 -196
q-1 -122 -89 -227q-158 -187 -476 -187q-155 -1 -267 49t-112 131q0 141 257 254h-7q-145 0 -190 90q-15 30 -15 83q0 117 223 240q-206 72 -206 298zM266 1389q-93 93 -139 206l34 19q120 -197 333 -197t331 197l35 -19q-46 -113 -138 -206t-228 -93q-135 0 -228 93z" />
    <glyph glyph-name="Gdotaccent" unicode="&#x120;" horiz-adv-x="1440" 
d="M1180 1325q39 0 51 125h47q-8 -133 -8 -471h-47q-23 141 -48 203q-59 148 -210 217q-95 43 -199 43q-205 0 -328 -195t-123 -543.5t118.5 -520t369.5 -171.5q123 0 213 64q37 25 48 48t11 64v197q0 123 -38 157.5t-169 39.5v41q101 -7 267 -7t235 7v-41q-48 -4 -68 -16.5
t-28 -46.5t-8 -113v-406h-41q-2 42 -17 79.5t-37.5 37.5t-68.5 -35q-147 -111 -320 -111q-317 0 -494 193t-177 536q0 176 49.5 323t137 246.5t209 154.5t256 55t215.5 -38t134 -77t68 -39zM765.5 1843q53.5 0 92.5 -38.5t39 -92.5t-39 -92.5t-92.5 -38.5t-92 38.5
t-38.5 92.5t38.5 92.5t92 38.5z" />
    <glyph glyph-name="gdotaccent" unicode="&#x121;" horiz-adv-x="1034" 
d="M468 -350q86 0 154 20t127 55q58 36 94 93t36 119t-34 87t-122 25h-357q-68 -35 -106 -91t-37 -118q-1 -90 79 -140t166 -50zM496 1047q-92 0 -140 -65t-47 -222q-1 -157 47 -222t140 -65q92 -1 138 65q48 66 48 222t-48 222q-46 66 -138 65zM117 760q0 161 104 242
t275 81q75 0 145 -17q17 91 64 161q61 96 147 96q47 -1 78 -31t31 -78t-30 -80t-77 -32q-48 0 -76 26t-33 70q-19 -7 -39 -53t-29 -91q197 -73 197 -294q0 -162 -104 -243t-274 -81q-72 0 -133 15q-115 -74 -133 -114q-8 -19 -9 -53q0 -34 27 -46t88 -13h424q239 0 239 -196
q-1 -122 -89 -227q-158 -187 -476 -187q-155 -1 -267 49t-112 131q0 141 257 254h-7q-145 0 -190 90q-15 30 -15 83q0 117 223 240q-206 72 -206 298zM496 1305q-54 1 -92 39t-39 92q1 54 39 92q38 39 92 39t92 -39q39 -38 39 -92t-39 -92q-38 -38 -92 -39z" />
    <glyph glyph-name="Gcommaaccent" unicode="&#x122;" horiz-adv-x="1440" 
d="M765.5 -141q53.5 0 90.5 -41.5t37 -110.5t-36.5 -117.5t-131.5 -83.5l-14 37q53 16 90 50t37 79q-37 -32 -85 -32t-78 29t-30 78t33.5 80.5t87 31.5zM1180 1325q39 0 51 125h47q-8 -133 -8 -471h-47q-23 141 -48 203q-59 148 -210 217q-95 43 -199 43q-205 0 -328 -195
t-123 -543.5t118.5 -520t369.5 -171.5q123 0 213 64q37 25 48 48t11 64v197q0 123 -38 157.5t-169 39.5v41q101 -7 267 -7t235 7v-41q-48 -4 -68 -16.5t-28 -46.5t-8 -113v-406h-41q-2 42 -17 79.5t-37.5 37.5t-68.5 -35q-147 -111 -320 -111q-317 0 -494 193t-177 536
q0 176 49.5 323t137 246.5t209 154.5t256 55t215.5 -38t134 -77t68 -39z" />
    <glyph glyph-name="gcommaaccent" unicode="&#x123;" horiz-adv-x="1034" 
d="M468 -350q86 0 154 20t127 55q58 36 94 93t36 119t-34 87t-122 25h-357q-68 -35 -106 -91t-37 -118q-1 -90 79 -140t166 -50zM496 1047q-92 0 -140 -65t-47 -222q-1 -157 47 -222t140 -65q92 -1 138 65q48 66 48 222t-48 222q-46 66 -138 65zM117 760q0 161 104 242
t275 81q75 0 145 -17q17 91 64 161q61 96 147 96q47 -1 78 -31t31 -78t-30 -80t-77 -32q-48 0 -76 26t-33 70q-19 -7 -39 -53t-29 -91q197 -73 197 -294q0 -162 -104 -243t-274 -81q-72 0 -133 15q-115 -74 -133 -114q-8 -19 -9 -53q0 -34 27 -46t88 -13h424q239 0 239 -196
q-1 -122 -89 -227q-158 -187 -476 -187q-155 -1 -267 49t-112 131q0 141 257 254h-7q-145 0 -190 90q-15 30 -15 83q0 117 223 240q-206 72 -206 298zM498 1319q-54 -1 -90 41q-37 42 -37 111q1 69 37 117t131 84l14 -37q-53 -16 -91 -50t-36 -79q37 32 85 32t78 -29t30 -78
q1 -49 -33 -81t-88 -31z" />
    <glyph glyph-name="Hcircumflex" unicode="&#x124;" horiz-adv-x="1550" 
d="M1298 1233v-1016q0 -77 13.5 -112t46 -48t106.5 -16v-41q-86 6 -256 6t-266 -6v41q74 3 106.5 16t46 48t13.5 112v492h-666v-492q0 -77 13.5 -112t46 -48t106.5 -16v-41q-94 6 -265 6t-257 -6v41q74 3 106.5 16t46 48t13.5 112v1016q0 77 -13.5 112t-46 48t-106.5 16v41
q85 -6 256.5 -6t265.5 6v-41q-74 -3 -106.5 -16t-46 -48t-13.5 -112v-483h666v483q0 77 -13.5 112t-46 48t-106.5 16v41q96 -6 266 -6t256 6v-41q-74 -3 -106.5 -16t-46 -48t-13.5 -112zM1171 1577q-275 58 -432 143q-130 -85 -350 -143l-10 29q131 45 232.5 117.5
t150.5 152.5h37q48 -80 149.5 -152.5t233.5 -117.5z" />
    <glyph glyph-name="hcircumflex" unicode="&#x125;" horiz-adv-x="1204" 
d="M729 1083q225 -1 273 -181q16 -62 16 -165v-547q0 -84 35 -115.5t121 -31.5v-43q-192 8 -248 8t-228 -8v43q76 0 106 31.5t30 115.5v592q0 177 -78 218q-34 18 -88 18q-126 0 -206.5 -104t-80.5 -267v-457q0 -84 30 -115.5t105 -31.5v-43q-172 8 -229.5 8t-245.5 -8v43
q86 0 121 31.5t35 115.5v1168q0 95 -34.5 137.5t-121.5 42.5v43q65 -6 162 -6t178 29v-766q96 245 348 245zM968 1708q-275 58 -432 143q-130 -85 -350 -143l-10 29q131 45 232.5 117.5t150.5 152.5h37q48 -80 149.5 -152.5t233.5 -117.5z" />
    <glyph glyph-name="Hbar" unicode="&#x126;" horiz-adv-x="1550" 
d="M1108 1051h-666v-301h666v301zM1298 1233v-141h166v-41h-166v-834q0 -77 13.5 -112t46 -48t106.5 -16v-41q-86 6 -256 6t-266 -6v41q74 3 106.5 16t46 48t13.5 112v492h-666v-492q0 -77 13.5 -112t46 -48t106.5 -16v-41q-94 6 -265 6t-257 -6v41q74 3 106.5 16t46 48
t13.5 112v834h-166v41h166v141q0 77 -13.5 112t-46 48t-106.5 16v41q85 -6 256.5 -6t265.5 6v-41q-74 -3 -106.5 -16t-46 -48t-13.5 -112v-141h666v141q0 77 -13.5 112t-46 48t-106.5 16v41q96 -6 266 -6t256 6v-41q-74 -3 -106.5 -16t-46 -48t-13.5 -112z" />
    <glyph glyph-name="hbar" unicode="&#x127;" horiz-adv-x="1204" 
d="M729 1083q225 -1 273 -181q16 -62 16 -165v-547q0 -84 35 -115.5t121 -31.5v-43q-192 8 -248 8t-228 -8v43q76 0 106 31.5t30 115.5v592q0 177 -78 218q-34 18 -88 18q-126 0 -206.5 -104t-80.5 -267v-457q0 -84 30 -115.5t105 -31.5v-43q-172 8 -229.5 8t-245.5 -8v43
q86 0 121 31.5t35 115.5v1055h-177v41h177v72q0 95 -34.5 137.5t-121.5 42.5v43q65 -6 162 -6t178 29v-318h364v-41h-364v-407q96 245 348 245z" />
    <glyph glyph-name="Itilde" unicode="&#x128;" 
d="M442 1233v-1016q0 -77 13.5 -112t46 -48t106.5 -16v-41q-94 6 -265 6t-257 -6v41q74 3 106.5 16t46 48t13.5 112v1016q0 77 -13.5 112t-46 48t-106.5 16v41q85 -6 256.5 -6t265.5 6v-41q-74 -3 -106.5 -16t-46 -48t-13.5 -112zM584.5 1690q90.5 0 122.5 114l30 -6
q-9 -99 -73.5 -158t-146.5 -59t-172 56l-74 46q-90 56 -158 56q-96 0 -127 -115l-31 6q9 99 74 158t156 59t200 -78.5t199.5 -78.5z" />
    <glyph glyph-name="itilde" unicode="&#x129;" horiz-adv-x="600" 
d="M399 190q0 -84 35 -115.5t121 -31.5v-43q-188 8 -248 8t-248 -8v43q86 0 121 31.5t35 115.5v641q0 95 -34.5 138t-121.5 43v43q64 -6 160.5 -6t179.5 28v-887zM408 1321q-110 0 -183.5 68.5t-143.5 68.5q-91 0 -158 -110l-29 14q31 108 95.5 159.5t143.5 51.5
q79 1 143 -47l52 -40q61 -48 119 -48q93 0 158 108l29 -14q-31 -108 -95.5 -159.5t-130.5 -51.5z" />
    <glyph glyph-name="Imacron" unicode="&#x12a;" 
d="M442 1233v-1016q0 -77 13.5 -112t46 -48t106.5 -16v-41q-94 6 -265 6t-257 -6v41q74 3 106.5 16t46 48t13.5 112v1016q0 77 -13.5 112t-46 48t-106.5 16v41q85 -6 256.5 -6t265.5 6v-41q-74 -3 -106.5 -16t-46 -48t-13.5 -112zM708 1677h-721v52h721v-52z" />
    <glyph glyph-name="imacron" unicode="&#x12b;" horiz-adv-x="600" 
d="M399 190q0 -84 35 -115.5t121 -31.5v-43q-188 8 -248 8t-248 -8v43q86 0 121 31.5t35 115.5v641q0 95 -34.5 138t-121.5 43v43q64 -6 160.5 -6t179.5 28v-887zM575 1407h-598v51h598v-51z" />
    <glyph glyph-name="Ibreve" unicode="&#x12c;" 
d="M442 1233v-1016q0 -77 13.5 -112t46 -48t106.5 -16v-41q-94 6 -265 6t-257 -6v41q74 3 106.5 16t46 48t13.5 112v1016q0 77 -13.5 112t-46 48t-106.5 16v41q85 -6 256.5 -6t265.5 6v-41q-74 -3 -106.5 -16t-46 -48t-13.5 -112zM348 1729q134 0 230 38.5t153 94.5l24 -23
q-54 -88 -155 -162.5t-252 -74.5q-98 0 -183.5 39t-136 88.5t-88.5 109.5l27 21q133 -131 381 -131z" />
    <glyph glyph-name="ibreve" unicode="&#x12d;" horiz-adv-x="600" 
d="M399 190q0 -84 35 -115.5t121 -31.5v-43q-188 8 -248 8t-248 -8v43q86 0 121 31.5t35 115.5v641q0 95 -34.5 138t-121.5 43v43q64 -6 160.5 -6t179.5 28v-887zM60.5 1388.5q-92.5 92.5 -139.5 206.5l34 19q120 -197 333 -197t331 197l35 -19q-46 -113 -138 -206
t-227.5 -93t-228 92.5z" />
    <glyph glyph-name="Iogonek" unicode="&#x12e;" 
d="M485 -287q76 0 125 68l30 -27q-91 -139 -231 -139q-73 0 -117.5 36.5t-44.5 106t71.5 136t204.5 110.5q-108 2 -229.5 2t-207.5 -6v41q74 3 106.5 16t46 48t13.5 112v1016q0 77 -13.5 112t-46 48t-106.5 16v41q85 -6 256.5 -6t265.5 6v-41q-74 -3 -106.5 -16t-46 -48
t-13.5 -112v-1016q0 -77 13.5 -112t46 -48t106.5 -16v-41l-18 1q-102 -31 -148 -85t-45 -104q0 -98 88 -99z" />
    <glyph glyph-name="iogonek" unicode="&#x12f;" horiz-adv-x="600" 
d="M422 -287q76 0 125 68l30 -27q-91 -139 -231 -139q-73 0 -117.5 36.5t-44.5 106t72.5 136t205.5 110.5q-96 4 -155.5 4t-247.5 -8v43q86 0 121 31.5t35 115.5v641q0 95 -34.5 138t-121.5 43v43q64 -6 160.5 -6t179.5 28v-887q0 -84 35 -115.5t121 -31.5v-43l-29 1
q-192 -77 -192 -198q0 -41 23.5 -65.5t64.5 -24.5zM288.5 1305q-53.5 0 -92 38.5t-38.5 92t38.5 92.5t92 39t92.5 -39t39 -92.5t-39 -92t-92.5 -38.5z" />
    <glyph glyph-name="Idotaccent" unicode="&#x130;" 
d="M442 1233v-1016q0 -77 13.5 -112t46 -48t106.5 -16v-41q-94 6 -265 6t-257 -6v41q74 3 106.5 16t46 48t13.5 112v1016q0 77 -13.5 112t-46 48t-106.5 16v41q85 -6 256.5 -6t265.5 6v-41q-74 -3 -106.5 -16t-46 -48t-13.5 -112zM347.5 1964q53.5 0 92.5 -39t39 -92.5
t-39 -92t-92.5 -38.5t-92 38.5t-38.5 92t38.5 92.5t92 39z" />
    <glyph glyph-name="dotlessi" unicode="&#x131;" horiz-adv-x="600" 
d="M399 190q0 -84 35 -115.5t121 -31.5v-43q-188 8 -248 8t-248 -8v43q86 0 121 31.5t35 115.5v641q0 95 -34.5 138t-121.5 43v43q64 -6 160.5 -6t179.5 28v-887z" />
    <glyph glyph-name="IJ" unicode="&#x132;" horiz-adv-x="1325" 
d="M571 -209q0 -87 -86 -104q33 -33 126.5 -33t158 46t89 119t31.5 168.5t7 309.5v936q0 77 -13.5 112t-46 48t-106.5 16v41q85 -6 255.5 -6t266.5 6v-41q-74 -3 -106.5 -16t-46 -48t-13.5 -112v-750q0 -389 -35 -535.5t-149 -239.5t-283 -93q-100 0 -172 37q-98 51 -98 141
q0 48 30.5 78.5t78.5 30.5t80 -30t32 -81zM442 1233v-1016q0 -77 13.5 -112t46 -48t106.5 -16v-41q-94 6 -265 6t-257 -6v41q74 3 106.5 16t46 48t13.5 112v1016q0 77 -13.5 112t-46 48t-106.5 16v41q85 -6 256.5 -6t265.5 6v-41q-74 -3 -106.5 -16t-46 -48t-13.5 -112z" />
    <glyph glyph-name="ij" unicode="&#x133;" horiz-adv-x="1151" 
d="M989 236q0 -354 -99 -500q-82 -121 -243 -121q-81 0 -123 30t-43 80q0 49 27 77q28 28 72 28t71 -24t27 -66q0 -63 -70 -92q13 -2 35 -2q87 0 125 60t37 200v325q-39 -122 -125 -191t-218 -69q-132 -1 -202 75q-72 76 -72 271v514q0 95 -34 138t-121 43v43q64 -6 160 -6
t180 28v-805q0 -146 37 -191q37 -44 118 -44q125 -1 201 105t76 266v423q-1 95 -35 138t-121 43v43q65 -6 161 -6t179 28v-841zM874 1567q54 0 93 -39q39 -38 39 -92t-39 -92t-93 -39q-54 1 -92 39t-38 92t38 92q38 39 92 39zM252 1567q54 0 92 -39q39 -38 39 -92t-39 -92
q-38 -38 -92 -39q-54 1 -92 39t-39 92q1 54 39 92q38 39 92 39z" />
    <glyph glyph-name="Jcircumflex" unicode="&#x134;" horiz-adv-x="668" 
d="M-86 -209q0 -87 -86 -104q33 -33 126.5 -33t158 46t89 119t31.5 168.5t7 309.5v936q0 77 -13.5 112t-46 48t-106.5 16v41q85 -6 255.5 -6t266.5 6v-41q-74 -3 -106.5 -16t-46 -48t-13.5 -112v-750q0 -389 -35 -535.5t-149 -239.5t-283 -93q-100 0 -172 37q-98 51 -98 141
q0 48 30.5 78.5t78.5 30.5t80 -30t32 -81zM727 1577q-275 58 -432 143q-130 -85 -350 -143l-10 29q131 45 232.5 117.5t150.5 152.5h37q48 -80 149.5 -152.5t233.5 -117.5z" />
    <glyph glyph-name="jcircumflex" unicode="&#x135;" horiz-adv-x="547" 
d="M39 -354q162 0 162 221v964q0 95 -34.5 138t-121.5 43v43q64 -6 160.5 -6t179.5 28v-841q0 -359 -103 -490t-253 -131q-72 0 -116 32.5t-44 86t29.5 83t76.5 29.5q107 0 107 -100q0 -70 -78 -98q12 -2 35 -2zM618 1262q-245 84 -385 204q-114 -120 -303 -204l-17 28
q117 58 208.5 153t133.5 199h37q42 -104 133.5 -199t208.5 -153z" />
    <glyph glyph-name="Kcommaaccent" unicode="&#x136;" horiz-adv-x="1341" 
d="M702.5 -141q53.5 0 90.5 -41.5t37 -110.5t-36.5 -117.5t-131.5 -83.5l-14 37q53 16 90 50t37 79q-37 -32 -85 -32t-78 29t-30 78t33.5 80.5t87 31.5zM1112.5 6q-129.5 0 -229.5 -6v41q94 4 94 43q0 19 -21 49l-299 451q-60 91 -101 118t-114 31v-516q0 -77 13.5 -112
t46 -48t106.5 -16v-41q-94 6 -265 6t-257 -6v41q74 3 106.5 16t46 48t13.5 112v1016q0 77 -13.5 112t-46 48t-106.5 16v41q85 -6 256.5 -6t265.5 6v-41q-74 -3 -106.5 -16t-46 -48t-13.5 -112v-459q148 5 234 115l196 250q105 133 105 196q0 71 -127 74v41q117 -6 232.5 -6
t177.5 6v-41q-142 -20 -242 -149l-334 -428l475 -666q63 -97 180 -125v-41q-97 6 -226.5 6z" />
    <glyph glyph-name="kcommaaccent" unicode="&#x137;" horiz-adv-x="1126" 
d="M566.5 -141q53.5 0 90.5 -41.5t37 -110.5t-36.5 -117.5t-131.5 -83.5l-14 37q53 16 90.5 50t36.5 79q-37 -32 -85 -32t-78 29t-30 78t33.5 80.5t87 31.5zM939.5 8q-48.5 0 -220.5 -8v43q29 0 46 11t17 26.5t-12 32.5l-235 344q-37 52 -68 70t-86 20v-357q0 -84 30 -115.5
t105 -31.5v-43q-172 8 -229.5 8t-245.5 -8v43q86 0 121 31.5t35 115.5v1170q0 95 -34.5 137.5t-121.5 42.5v43q65 -6 162 -6t178 29v-1017q107 14 176 85l152 157q65 68 65 113q0 70 -151 70v41q142 -8 234.5 -8t174.5 8v-41q-100 -9 -184 -96l-249 -262l370 -506
q38 -52 69 -76.5t74 -30.5v-43q-124 8 -172.5 8z" />
    <glyph glyph-name="kgreenlandic" unicode="&#x138;" horiz-adv-x="1153" 
d="M832 959q0 55 -109 55v41q107 -6 201 -6t147 6v-41q-57 -6 -97 -24t-87 -72l-299 -328l397 -434q45 -52 79 -80t66 -33v-43q-120 8 -170 8t-223 -8v43q65 0 65 40q0 16 -14 30l-274 303q-64 79 -115 84v-310q0 -84 30 -116t106 -31v-43q-172 8 -230 8t-246 -8v43
q86 -1 121 31t35 116v641q-1 95 -35 138t-121 43v43q65 -6 161 -6t179 28v-535q53 9 87 30t73 61l244 268q29 32 29 58z" />
    <glyph glyph-name="Lacute" unicode="&#x139;" horiz-adv-x="1204" 
d="M442 1233v-1016q0 -110 30 -140t136 -30h150q97 0 156.5 18.5t96.5 67.5t54 115.5t29 181.5h47q-6 -64 -6 -174t14 -256q-139 6 -500.5 6t-562.5 -6v41q74 3 106.5 16t46 48t13.5 112v1016q0 77 -13.5 112t-46 48t-106.5 16v41q85 -6 256.5 -6t265.5 6v-41
q-74 -3 -106.5 -16t-46 -48t-13.5 -112zM633.5 1916q35.5 0 52.5 -26.5t17 -45.5q0 -45 -47 -75t-177 -80.5t-242 -107.5l-14 27q98 75 200.5 168.5t138.5 116.5t71.5 23z" />
    <glyph glyph-name="lacute" unicode="&#x13a;" horiz-adv-x="586" 
d="M385 190q0 -84 35 -115.5t121 -31.5v-43q-188 8 -248 8t-248 -8v43q86 0 121 31.5t35 115.5v1170q0 95 -34.5 137.5t-121.5 42.5v43q64 -6 161.5 -6t178.5 29v-1416zM578.5 2047q35.5 0 52.5 -26.5t17 -45.5q0 -45 -47 -75t-177 -80.5t-242 -107.5l-14 27
q98 75 200.5 168.5t138.5 116.5t71.5 23z" />
    <glyph glyph-name="Lcommaaccent" unicode="&#x13b;" horiz-adv-x="1204" 
d="M673.5 -141q53.5 0 90.5 -41.5t37 -110.5t-36.5 -117.5t-131.5 -83.5l-14 37q53 16 90 50t37 79q-37 -32 -85 -32t-78 29t-30 78t33.5 80.5t87 31.5zM442 1233v-1016q0 -110 30 -140t136 -30h150q97 0 156.5 18.5t96.5 67.5t54 115.5t29 181.5h47q-6 -64 -6 -174t14 -256
q-139 6 -500.5 6t-562.5 -6v41q74 3 106.5 16t46 48t13.5 112v1016q0 77 -13.5 112t-46 48t-106.5 16v41q85 -6 256.5 -6t265.5 6v-41q-74 -3 -106.5 -16t-46 -48t-13.5 -112z" />
    <glyph glyph-name="lcommaaccent" unicode="&#x13c;" horiz-adv-x="586" 
d="M284.5 -141q53.5 0 90.5 -41.5t37 -110.5t-36.5 -117.5t-131.5 -83.5l-14 37q53 16 90.5 50t36.5 79q-37 -32 -85 -32t-78 29t-30 78t33.5 80.5t87 31.5zM385 190q0 -84 35 -115.5t121 -31.5v-43q-188 8 -248 8t-248 -8v43q86 0 121 31.5t35 115.5v1170q0 95 -34.5 137.5
t-121.5 42.5v43q64 -6 161.5 -6t178.5 29v-1416z" />
    <glyph glyph-name="Lcaron" unicode="&#x13d;" horiz-adv-x="1204" 
d="M442 1233v-1016q0 -110 30 -140t136 -30h150q97 0 156.5 18.5t96.5 67.5t54 115.5t29 181.5h47q-6 -64 -6 -174t14 -256q-139 6 -500.5 6t-562.5 -6v41q74 3 106.5 16t46 48t13.5 112v1016q0 77 -13.5 112t-46 48t-106.5 16v41q85 -6 256.5 -6t265.5 6v-41
q-74 -3 -106.5 -16t-46 -48t-13.5 -112zM907 1398q0 -41 -10 -78t-41 -101t-51 -100.5t-76 -139.5l-29 8q41 260 41 320.5t-12.5 80t-48.5 19.5v43q43 -4 98 -4t119 16q10 -23 10 -64z" />
    <glyph glyph-name="lcaron" unicode="&#x13e;" horiz-adv-x="586" 
d="M678 1531.5q0 -47.5 -22 -114.5t-116 -264l-28 8q41 237 41 288.5t-8.5 71t-32.5 19.5v43q12 -1 53 -1t102 24q11 -27 11 -74.5zM385 190q0 -84 35 -115.5t121 -31.5v-43q-188 8 -248 8t-248 -8v43q86 0 121 31.5t35 115.5v1170q0 95 -34.5 137.5t-121.5 42.5v43
q64 -6 161.5 -6t178.5 29v-1416z" />
    <glyph glyph-name="Ldot" unicode="&#x13f;" horiz-adv-x="1268" 
d="M1081 860q54 0 92.5 -38.5t38.5 -92t-38.5 -92.5t-92.5 -39t-92.5 39t-38.5 92.5t38.5 92t92.5 38.5zM442 1233v-1016q0 -110 30 -140t136 -30h150q97 0 156.5 18.5t96.5 67.5t54 115.5t29 181.5h47q-6 -64 -6 -174t14 -256q-139 6 -500.5 6t-562.5 -6v41q74 3 106.5 16
t46 48t13.5 112v1016q0 77 -13.5 112t-46 48t-106.5 16v41q85 -6 256.5 -6t265.5 6v-41q-74 -3 -106.5 -16t-46 -48t-13.5 -112z" />
    <glyph glyph-name="ldot" unicode="&#x140;" horiz-adv-x="872" 
d="M729 735q54 0 92.5 -38.5t38.5 -92t-38.5 -92.5t-92.5 -39t-92.5 39t-38.5 92.5t38.5 92t92.5 38.5zM385 190q0 -84 35 -115.5t121 -31.5v-43q-188 8 -248 8t-248 -8v43q86 0 121 31.5t35 115.5v1170q0 95 -34.5 137.5t-121.5 42.5v43q64 -6 161.5 -6t178.5 29v-1416z
" />
    <glyph glyph-name="Lslash" unicode="&#x141;" horiz-adv-x="1204" 
d="M1135 256q0 -110 14 -256q-139 6 -500.5 6t-562.5 -6v41q74 3 106.5 16t46 48t13.5 112v309l-166 -96v47l166 96v660q0 77 -13.5 112t-46 48t-106.5 16v41q85 -6 256.5 -6t265.5 6v-41q-74 -3 -106.5 -16t-46 -48t-13.5 -112v-570l527 306v-47l-527 -306v-399
q0 -110 30 -140t136 -30h150q97 0 156.5 18.5t96.5 67.5t54 115.5t29 181.5h47q-6 -64 -6 -174z" />
    <glyph glyph-name="lslash" unicode="&#x142;" horiz-adv-x="586" 
d="M385 190q0 -84 35 -115.5t121 -31.5v-43q-188 8 -248 8t-248 -8v43q86 0 121 31.5t35 115.5v490l-232 -201v62l232 201v618q0 95 -34.5 137.5t-121.5 42.5v43q64 -6 161.5 -6t178.5 29v-724l231 201v-61l-231 -202v-630z" />
    <glyph glyph-name="Nacute" unicode="&#x143;" horiz-adv-x="1446" 
d="M1206 1212v-1222h-47l-860 1329v-1081q0 -115 34.5 -154t151.5 -43v-41q-74 6 -202.5 6t-196.5 -6v41q103 4 134.5 43.5t31.5 153.5v995q0 77 -13.5 112t-46 48t-106.5 16v41q67 -6 175 -6t175 6l723 -1114v876q0 113 -27 144.5t-62.5 41t-96.5 11.5v41q73 -6 202 -6
t197 6v-41q-103 -4 -134.5 -43.5t-31.5 -153.5zM1051.5 1916q35.5 0 52.5 -26.5t17 -45.5q0 -45 -47 -75t-177 -80.5t-242 -107.5l-14 27q98 75 200.5 168.5t138.5 116.5t71.5 23z" />
    <glyph glyph-name="nacute" unicode="&#x144;" horiz-adv-x="1223" 
d="M748 1083q143 0 217 -77q38 -42 54.5 -103.5t16.5 -165.5v-547q0 -84 35 -115.5t121 -31.5v-43q-188 8 -245.5 8t-229.5 -8v43q75 0 105 31.5t30 115.5v592q0 140 -42 188t-124 48q-127 0 -207 -107t-80 -266v-455q0 -84 30 -115.5t106 -31.5v-43q-172 8 -230 8t-246 -8
v43q86 0 121 31.5t35 115.5v641q0 95 -34.5 138t-121.5 43v43q64 -6 160.5 -6t179.5 28v-241q97 247 349 247zM874 1608.5q0 -33.5 -29 -71t-133.5 -129t-189.5 -181.5l-22 18q66 104 130 227.5t96 165.5t66 42t58 -19t24 -52.5z" />
    <glyph glyph-name="Ncommaaccent" unicode="&#x145;" horiz-adv-x="1446" 
d="M745.5 -141q53.5 0 90.5 -41.5t37 -110.5t-36.5 -117.5t-131.5 -83.5l-14 37q53 16 90 50t37 79q-37 -32 -85 -32t-78 29t-30 78t33.5 80.5t87 31.5zM1206 1212v-1222h-47l-860 1329v-1081q0 -115 34.5 -154t151.5 -43v-41q-74 6 -202.5 6t-196.5 -6v41q103 4 134.5 43.5
t31.5 153.5v995q0 77 -13.5 112t-46 48t-106.5 16v41q67 -6 175 -6t175 6l723 -1114v876q0 113 -27 144.5t-62.5 41t-96.5 11.5v41q73 -6 202 -6t197 6v-41q-103 -4 -134.5 -43.5t-31.5 -153.5z" />
    <glyph glyph-name="ncommaaccent" unicode="&#x146;" horiz-adv-x="1223" 
d="M638.5 -141q53.5 0 90.5 -41.5t37 -110.5t-36.5 -117.5t-131.5 -83.5l-14 37q53 16 90.5 50t36.5 79q-37 -32 -85 -32t-78 29t-30 78t33.5 80.5t87 31.5zM748 1083q143 0 217 -77q38 -42 54.5 -103.5t16.5 -165.5v-547q0 -84 35 -115.5t121 -31.5v-43q-188 8 -245.5 8
t-229.5 -8v43q75 0 105 31.5t30 115.5v592q0 140 -42 188t-124 48q-127 0 -207 -107t-80 -266v-455q0 -84 30 -115.5t106 -31.5v-43q-172 8 -230 8t-246 -8v43q86 0 121 31.5t35 115.5v641q0 95 -34.5 138t-121.5 43v43q64 -6 160.5 -6t179.5 28v-241q97 247 349 247z" />
    <glyph glyph-name="Ncaron" unicode="&#x147;" horiz-adv-x="1446" 
d="M1206 1212v-1222h-47l-860 1329v-1081q0 -115 34.5 -154t151.5 -43v-41q-74 6 -202.5 6t-196.5 -6v41q103 4 134.5 43.5t31.5 153.5v995q0 77 -13.5 112t-46 48t-106.5 16v41q67 -6 175 -6t175 6l723 -1114v876q0 113 -27 144.5t-62.5 41t-96.5 11.5v41q73 -6 202 -6
t197 6v-41q-103 -4 -134.5 -43.5t-31.5 -153.5zM369 1896q267 -55 432 -143q138 89 350 143l11 -28q-132 -46 -233.5 -118.5t-149.5 -152.5h-37q-49 80 -150.5 152.5t-232.5 118.5z" />
    <glyph glyph-name="ncaron" unicode="&#x148;" horiz-adv-x="1223" 
d="M748 1083q143 0 217 -77q38 -42 54.5 -103.5t16.5 -165.5v-547q0 -84 35 -115.5t121 -31.5v-43q-188 8 -245.5 8t-229.5 -8v43q75 0 105 31.5t30 115.5v592q0 140 -42 188t-124 48q-127 0 -207 -107t-80 -266v-455q0 -84 30 -115.5t106 -31.5v-43q-172 8 -230 8t-246 -8
v43q86 0 121 31.5t35 115.5v641q0 95 -34.5 138t-121.5 43v43q64 -6 160.5 -6t179.5 28v-241q97 247 349 247zM951 1642l16 -28q-117 -58 -208.5 -153t-133.5 -199h-37q-42 104 -133.5 199t-208.5 153l17 28q111 -38 216 -94t169 -110q114 120 303 204z" />
    <glyph glyph-name="napostrophe" unicode="&#x149;" horiz-adv-x="1223" 
d="M748 1083q143 0 217 -77q38 -42 54.5 -103.5t16.5 -165.5v-547q0 -84 35 -115.5t121 -31.5v-43q-188 8 -245.5 8t-229.5 -8v43q75 0 105 31.5t30 115.5v592q0 140 -42 188t-124 48q-127 0 -207 -107t-80 -266v-455q0 -84 30 -115.5t106 -31.5v-43q-172 8 -230 8t-246 -8
v43q86 0 121 31.5t35 115.5v641q0 95 -34.5 138t-121.5 43v43q64 -6 160.5 -6t179.5 28v-241q97 247 349 247zM77 1556q67 0 105.5 -59.5t38.5 -151.5t-52.5 -173.5t-158.5 -131.5l-19 37q64 27 110 84.5t46 116.5q0 25 -6 43q-35 -27 -83.5 -27t-86 35.5t-37.5 93.5
t38 95.5t105 37.5z" />
    <glyph glyph-name="Eng" unicode="&#x14a;" horiz-adv-x="1444" 
d="M1185 1444q119 0 187 6v-41q-74 -3 -106 -16t-46 -48t-14 -112v-1047q0 -489 -198 -557q-40 -14 -106 -14t-118 31q-52 30 -53 86t27 84t70 28t72 -28t30 -62q0 -68 -53 -100q24 -4 47 -4q205 0 231 346l-856 1323v-1102q-1 -77 13 -112t46 -48t107 -16v-41q-75 6 -193 6
t-186 -6v41q74 3 106 16t46 48t14 112v1016q0 77 -14 112t-46 48t-106 16v41q66 -6 184 -6t195 6l694 -1073v856q1 57 -5 89t-26 52t-50 26t-85 9v41q73 -6 192 -6z" />
    <glyph glyph-name="eng" unicode="&#x14b;" horiz-adv-x="1186" 
d="M748 1081q143 0 217 -77q39 -42 55 -104t16 -165v-499q0 -358 -100 -486q-106 -135 -256 -135q-67 0 -102 31q-35 32 -35 76t26 71q27 27 69 27t68 -26t25 -70q0 -44 -33 -78q78 9 116 53t38 168v913q0 140 -42 188t-124 48q-127 0 -207 -106t-80 -265v-455
q0 -84 30 -116t106 -31v-43q-172 8 -230 8t-246 -8v43q86 -1 121 31t35 116v641q-1 95 -35 138t-121 43v43q65 -6 161 -6t179 28v-241q96 245 349 245z" />
    <glyph glyph-name="Omacron" unicode="&#x14c;" horiz-adv-x="1518" 
d="M752 1442q-131 0 -231.5 -91.5t-154 -255t-53.5 -374.5q0 -320 129.5 -516.5t323.5 -196.5q131 0 231 91.5t153.5 255t53.5 374.5q0 320 -129.5 516.5t-322.5 196.5zM760 1479q296 0 472.5 -197.5t176.5 -544.5q0 -226 -83 -400.5t-231 -270t-337 -95.5
q-296 0 -472.5 197.5t-176.5 544.5q0 226 83 400.5t231 270t337 95.5zM1116 1677h-721v52h721v-52z" />
    <glyph glyph-name="omacron" unicode="&#x14d;" horiz-adv-x="1122" 
d="M561 1042q-123 0 -194.5 -126t-71.5 -389.5t71.5 -389t194.5 -125.5t194.5 125.5t71.5 389t-71.5 389.5t-194.5 126zM561 1083q255 -1 377 -191q88 -138 88 -366q0 -413 -282 -523q-82 -32 -183 -32q-202 0 -333.5 133.5t-131.5 421.5q0 336 189 474q114 83 276 83z
M880 1407h-639v51h639v-51z" />
    <glyph glyph-name="Obreve" unicode="&#x14e;" horiz-adv-x="1518" 
d="M752 1442q-131 0 -231.5 -91.5t-154 -255t-53.5 -374.5q0 -320 129.5 -516.5t323.5 -196.5q131 0 231 91.5t153.5 255t53.5 374.5q0 320 -129.5 516.5t-322.5 196.5zM760 1479q296 0 472.5 -197.5t176.5 -544.5q0 -226 -83 -400.5t-231 -270t-337 -95.5
q-296 0 -472.5 197.5t-176.5 544.5q0 226 83 400.5t231 270t337 95.5zM756 1602q-98 0 -183.5 39t-136 88.5t-88.5 109.5l27 21q133 -131 381 -131q134 0 230 38.5t153 94.5l24 -23q-54 -88 -155 -162.5t-252 -74.5z" />
    <glyph glyph-name="obreve" unicode="&#x14f;" horiz-adv-x="1122" 
d="M561 1042q-123 0 -194.5 -126t-71.5 -389.5t71.5 -389t194.5 -125.5t194.5 125.5t71.5 389t-71.5 389.5t-194.5 126zM561 1083q255 -1 377 -191q88 -138 88 -366q0 -413 -282 -523q-82 -32 -183 -32q-202 0 -333.5 133.5t-131.5 421.5q0 336 189 474q114 83 276 83z
M338.5 1388.5q-92.5 92.5 -139.5 206.5l34 19q120 -197 333 -197t331 197l35 -19q-46 -113 -138 -206t-227.5 -93t-228 92.5z" />
    <glyph glyph-name="Ohungarumlaut" unicode="&#x150;" horiz-adv-x="1518" 
d="M752 1442q-131 0 -231.5 -91.5t-154 -255t-53.5 -374.5q0 -320 129.5 -516.5t323.5 -196.5q131 0 231 91.5t153.5 255t53.5 374.5q0 320 -129.5 516.5t-322.5 196.5zM760 1479q296 0 472.5 -197.5t176.5 -544.5q0 -226 -83 -400.5t-231 -270t-337 -95.5
q-296 0 -472.5 197.5t-176.5 544.5q0 226 83 400.5t231 270t337 95.5zM1144 1918q35 0 55 -23.5t20 -57t-42 -68.5t-154.5 -92t-168.5 -96l-18 25q47 47 123 147t113 132.5t72 32.5zM761 1918q35 0 55 -23.5t20 -57t-42 -68.5t-154.5 -92t-168.5 -96l-18 25q47 47 123 147
t113 132.5t72 32.5z" />
    <glyph glyph-name="ohungarumlaut" unicode="&#x151;" horiz-adv-x="1122" 
d="M561 1042q-123 0 -194.5 -126t-71.5 -389.5t71.5 -389t194.5 -125.5t194.5 125.5t71.5 389t-71.5 389.5t-194.5 126zM561 1083q255 -1 377 -191q88 -138 88 -366q0 -413 -282 -523q-82 -32 -183 -32q-202 0 -333.5 133.5t-131.5 421.5q0 336 189 474q114 83 276 83z
M953.5 1680q34.5 0 58 -19t23.5 -53q0 -56 -100 -144q-164 -145 -252 -237l-22 18q66 104 130 227.5t96 165.5t66.5 42zM588 1680q34 0 58 -19t24 -52.5t-29 -71t-133.5 -129t-188.5 -181.5l-23 18q66 104 130 227.5t96 165.5t66 42z" />
    <glyph glyph-name="OE" unicode="&#x152;" horiz-adv-x="1901" 
d="M1008 217v1016q0 106 -71.5 157.5t-193.5 51.5t-222.5 -91.5t-154 -255t-53.5 -374.5q0 -320 129.5 -516.5t323.5 -196.5q130 0 202 90q40 50 40 119zM1286 709h-88v-492q0 -110 30 -140t136 -30h47q97 0 156.5 17.5t96.5 63.5t54 109.5t29 172.5h47q-6 -55 -6 -159.5
t14 -250.5q-127 6 -421 6t-455 -4q-84 -31 -168 -31q-296 0 -472.5 197.5t-176.5 544.5q0 226 83 400.5t231 270t337 95.5q95 0 180 -31q164 -4 435.5 -4t385.5 6q-14 -134 -14 -228t6 -141h-47q-21 198 -65 251t-99 62t-110 9h-68q-106 0 -136 -30t-30 -140v-483h88
q137 0 170 121q9 31 14 64t7 44h47q-7 -83 -7 -159l1 -91q0 -88 12 -250h-47q-6 39 -8.5 57t-7.5 41t-9.5 31.5t-12.5 26.5t-17.5 25.5t-23.5 19.5q-34 29 -118 29z" />
    <glyph glyph-name="oe" unicode="&#x153;" horiz-adv-x="1710" 
d="M542.5 12q113.5 0 179.5 125.5t66 388.5q0 389 -146 485q-44 29 -99 29q-114 0 -180 -125t-66 -388.5t66 -389t179.5 -125.5zM1238.5 1044q-92.5 0 -162 -93.5t-85.5 -278.5h426q5 159 -40.5 265.5t-138 106.5zM98 526q0 414 270 523q79 32 185.5 32t198 -59.5
t141.5 -181.5q54 117 146 180t212 63q175 0 269 -111.5t94 -338.5h-620q-7 -55 -7 -131q0 -201 94 -323t219 -122q190 0 281 205l41 -16q-36 -113 -132 -194q-94 -81 -226 -81q-262 0 -374 233q-103 -233 -347 -233q-194 0 -319.5 133.5t-125.5 421.5z" />
    <glyph glyph-name="Racute" unicode="&#x154;" horiz-adv-x="1327" 
d="M594 1409q-93 0 -122.5 -34.5t-29.5 -141.5v-504h138q302 0 345 232q9 48 9 108q0 168 -80 254t-260 86zM1139 1092q0 -120 -82 -231q-43 -58 -124.5 -102t-191.5 -61l25 -4q134 -22 195.5 -81t91.5 -189l51 -209q20 -93 42 -130.5t59.5 -37.5t59.5 17.5t56 60.5l31 -23
q-48 -69 -95 -100t-127.5 -31t-134.5 49t-82 173l-45 204q-30 140 -49 174q-38 71 -78 94t-104 23h-195v-471q0 -77 13.5 -112t46 -48t106.5 -16v-41q-94 6 -265 6t-257 -6v41q74 3 106.5 16t46 48t13.5 112v1016q0 77 -13.5 112t-46 48t-106.5 16v41q85 -6 250 -6l309 4
q238 0 366 -99.5t128 -256.5zM891.5 1916q35.5 0 52.5 -26.5t17 -45.5q0 -45 -47 -75t-177 -80.5t-242 -107.5l-14 27q98 75 200.5 168.5t138.5 116.5t71.5 23z" />
    <glyph glyph-name="racute" unicode="&#x155;" horiz-adv-x="911" 
d="M687.5 1083q90.5 0 143 -47t52.5 -107.5t-32 -98t-81 -37.5t-81 28.5t-32 86.5t70 102q-14 20 -59 20q-44 0 -100 -38q-56 -40 -92 -98q-78 -128 -77 -249v-434q0 -95 54 -131.5t163 -36.5v-43q-252 8 -310.5 8t-246.5 -8v43q86 0 121 31.5t35 115.5v641q0 95 -34.5 138
t-121.5 43v43q64 -6 160.5 -6t179.5 28v-256q37 102 117.5 182t171 80zM730 1608.5q0 -33.5 -29 -71t-133.5 -129t-189.5 -181.5l-22 18q66 104 130 227.5t96 165.5t66 42t58 -19t24 -52.5z" />
    <glyph glyph-name="Rcommaaccent" unicode="&#x156;" horiz-adv-x="1327" 
d="M683.5 -141q53.5 0 90.5 -41.5t37 -110.5t-36.5 -117.5t-131.5 -83.5l-14 37q53 16 90 50t37 79q-37 -32 -85 -32t-78 29t-30 78t33.5 80.5t87 31.5zM594 1409q-93 0 -122.5 -34.5t-29.5 -141.5v-504h138q302 0 345 232q9 48 9 108q0 168 -80 254t-260 86zM1139 1092
q0 -120 -82 -231q-43 -58 -124.5 -102t-191.5 -61l25 -4q134 -22 195.5 -81t91.5 -189l51 -209q20 -93 42 -130.5t59.5 -37.5t59.5 17.5t56 60.5l31 -23q-48 -69 -95 -100t-127.5 -31t-134.5 49t-82 173l-45 204q-30 140 -49 174q-38 71 -78 94t-104 23h-195v-471
q0 -77 13.5 -112t46 -48t106.5 -16v-41q-94 6 -265 6t-257 -6v41q74 3 106.5 16t46 48t13.5 112v1016q0 77 -13.5 112t-46 48t-106.5 16v41q85 -6 250 -6l309 4q238 0 366 -99.5t128 -256.5z" />
    <glyph glyph-name="rcommaaccent" unicode="&#x157;" horiz-adv-x="911" 
d="M337.5 -141q53.5 0 90.5 -41.5t37 -110.5t-36.5 -117.5t-131.5 -83.5l-14 37q53 16 90.5 50t36.5 79q-37 -32 -85 -32t-78 29t-30 78t33.5 80.5t87 31.5zM687.5 1083q90.5 0 143 -47t52.5 -107.5t-32 -98t-81 -37.5t-81 28.5t-32 86.5t70 102q-14 20 -59 20
q-44 0 -100 -38q-56 -40 -92 -98q-78 -128 -77 -249v-434q0 -95 54 -131.5t163 -36.5v-43q-252 8 -310.5 8t-246.5 -8v43q86 0 121 31.5t35 115.5v641q0 95 -34.5 138t-121.5 43v43q64 -6 160.5 -6t179.5 28v-256q37 102 117.5 182t171 80z" />
    <glyph glyph-name="Rcaron" unicode="&#x158;" horiz-adv-x="1327" 
d="M594 1409q-93 0 -122.5 -34.5t-29.5 -141.5v-504h138q302 0 345 232q9 48 9 108q0 168 -80 254t-260 86zM1139 1092q0 -120 -82 -231q-43 -58 -124.5 -102t-191.5 -61l25 -4q134 -22 195.5 -81t91.5 -189l51 -209q20 -93 42 -130.5t59.5 -37.5t59.5 17.5t56 60.5l31 -23
q-48 -69 -95 -100t-127.5 -31t-134.5 49t-82 173l-45 204q-30 140 -49 174q-38 71 -78 94t-104 23h-195v-471q0 -77 13.5 -112t46 -48t106.5 -16v-41q-94 6 -265 6t-257 -6v41q74 3 106.5 16t46 48t13.5 112v1016q0 77 -13.5 112t-46 48t-106.5 16v41q85 -6 250 -6l309 4
q238 0 366 -99.5t128 -256.5zM209 1896q267 -55 432 -143q138 89 350 143l11 -28q-132 -46 -233.5 -118.5t-149.5 -152.5h-37q-49 80 -150.5 152.5t-232.5 118.5z" />
    <glyph glyph-name="rcaron" unicode="&#x159;" horiz-adv-x="911" 
d="M687.5 1083q90.5 0 143 -47t52.5 -107.5t-32 -98t-81 -37.5t-81 28.5t-32 86.5t70 102q-14 20 -59 20q-44 0 -100 -38q-56 -40 -92 -98q-78 -128 -77 -249v-434q0 -95 54 -131.5t163 -36.5v-43q-252 8 -310.5 8t-246.5 -8v43q86 0 121 31.5t35 115.5v641q0 95 -34.5 138
t-121.5 43v43q64 -6 160.5 -6t179.5 28v-256q37 102 117.5 182t171 80zM807 1642l16 -28q-117 -58 -208.5 -153t-133.5 -199h-37q-42 104 -133.5 199t-208.5 153l17 28q111 -38 216 -94t169 -110q114 120 303 204z" />
    <glyph glyph-name="Sacute" unicode="&#x15a;" horiz-adv-x="1106" 
d="M221 76q-34 0 -45 -90h-47q8 112 8 491h47q14 -198 98.5 -331.5t274.5 -133.5q110 0 188 69t78 196.5t-81.5 207.5t-189 145t-144 88.5t-84.5 59.5q-77 58 -131 141.5t-54 184.5q0 190 113.5 279.5t250.5 89.5t211 -39q24 -13 65 -39.5t65 -26.5q34 0 45 90h47
q-10 -120 -10 -418h-47q-12 158 -92 276t-244 118q-110 0 -180 -66.5t-70 -171.5q0 -65 17.5 -99.5t30 -54.5t36 -41.5t40.5 -36.5t49.5 -36.5t52 -34t58.5 -36t76.5 -47t72 -46t77.5 -54t69 -57.5q71 -70 102.5 -138.5t31.5 -174.5t-60 -196q-116 -174 -375 -173
q-159 0 -275 73q-51 32 -75 32zM848.5 1916q35.5 0 52.5 -26.5t17 -45.5q0 -45 -47 -75t-177 -80.5t-242 -107.5l-14 27q98 75 200.5 168.5t138.5 116.5t71.5 23z" />
    <glyph glyph-name="sacute" unicode="&#x15b;" horiz-adv-x="913" 
d="M424 1083q130 0 223 -75q22 -17 36 -17q36 0 46 90h47q-8 -100 -8 -348h-47q-51 311 -279 311q-74 0 -121 -41.5t-47 -105t22 -93.5t36.5 -46t43 -36.5t47 -33t56.5 -36t75.5 -48t71.5 -48.5q95 -66 143 -136.5t48 -161.5q1 -92 -49 -158q-96 -130 -301 -129
q-91 0 -162 29q-40 20 -66 41.5t-37 21.5q-30 0 -42 -77h-47q8 117 8 409h47q29 -237 99.5 -310t185.5 -73q72 0 127 47.5t55 145.5q1 98 -93 174q-47 38 -112 79t-76.5 48.5t-45 30t-45.5 32.5t-38 32t-36 36q-10 13 -27 37q-41 57 -41 145q0 130 86.5 197t216.5 67z
M714 1608.5q0 -33.5 -29 -71t-133.5 -129t-189.5 -181.5l-22 18q66 104 130 227.5t96 165.5t66 42t58 -19t24 -52.5z" />
    <glyph glyph-name="Scircumflex" unicode="&#x15c;" horiz-adv-x="1106" 
d="M221 76q-34 0 -45 -90h-47q8 112 8 491h47q14 -198 98.5 -331.5t274.5 -133.5q110 0 188 69t78 196.5t-81.5 207.5t-189 145t-144 88.5t-84.5 59.5q-77 58 -131 141.5t-54 184.5q0 190 113.5 279.5t250.5 89.5t211 -39q24 -13 65 -39.5t65 -26.5q34 0 45 90h47
q-10 -120 -10 -418h-47q-12 158 -92 276t-244 118q-110 0 -180 -66.5t-70 -171.5q0 -65 17.5 -99.5t30 -54.5t36 -41.5t40.5 -36.5t49.5 -36.5t52 -34t58.5 -36t76.5 -47t72 -46t77.5 -54t69 -57.5q71 -70 102.5 -138.5t31.5 -174.5t-60 -196q-116 -174 -375 -173
q-159 0 -275 73q-51 32 -75 32zM954 1577q-275 58 -432 143q-130 -85 -350 -143l-10 29q131 45 232.5 117.5t150.5 152.5h37q48 -80 149.5 -152.5t233.5 -117.5z" />
    <glyph glyph-name="scircumflex" unicode="&#x15d;" horiz-adv-x="913" 
d="M424 1083q130 0 223 -75q22 -17 36 -17q36 0 46 90h47q-8 -100 -8 -348h-47q-51 311 -279 311q-74 0 -121 -41.5t-47 -105t22 -93.5t36.5 -46t43 -36.5t47 -33t56.5 -36t75.5 -48t71.5 -48.5q95 -66 143 -136.5t48 -161.5q1 -92 -49 -158q-96 -130 -301 -129
q-91 0 -162 29q-40 20 -66 41.5t-37 21.5q-30 0 -42 -77h-47q8 117 8 409h47q29 -237 99.5 -310t185.5 -73q72 0 127 47.5t55 145.5q1 98 -93 174q-47 38 -112 79t-76.5 48.5t-45 30t-45.5 32.5t-38 32t-36 36q-10 13 -27 37q-41 57 -41 145q0 130 86.5 197t216.5 67z
M811 1262q-245 84 -385 204q-114 -120 -303 -204l-17 28q117 58 208.5 153t133.5 199h37q42 -104 133.5 -199t208.5 -153z" />
    <glyph glyph-name="Scedilla" unicode="&#x15e;" horiz-adv-x="1106" 
d="M675 -133q126 -1 126 -101q-1 -50 -39 -86q-68 -65 -182.5 -65t-179.5 23l8 36q42 -6 97 -6t110 21.5t55 70.5q0 58 -86 58q-58 0 -100 -15l56 169q-137 5 -249 75q-46 29 -70 29q-34 0 -45 -90h-47q8 112 8 491h47q14 -198 98.5 -331.5t274.5 -133.5q110 0 188 69
t78 196.5t-81.5 207.5t-189 145t-144 88.5t-84.5 59.5q-77 58 -131 141.5t-54 184.5q0 190 113.5 279.5t250.5 89.5t211 -39q24 -13 65 -39.5t65 -26.5q34 0 45 90h47q-10 -120 -10 -418h-47q-12 158 -92 276t-244 118q-110 0 -180 -66.5t-70 -171.5q0 -65 17.5 -99.5
t30 -54.5t36 -41.5t40.5 -36.5t49.5 -36.5t52 -34t58.5 -36t76.5 -47t72 -46t77.5 -54t69 -57.5q71 -70 102.5 -138.5t31.5 -157.5q0 -181 -117.5 -280.5t-292.5 -105.5l-41 -118q61 14 120 14z" />
    <glyph glyph-name="scedilla" unicode="&#x15f;" horiz-adv-x="913" 
d="M527 -133q126 -1 126 -101q-1 -50 -39 -86q-68 -65 -183 -65t-180 23l9 36q42 -6 96.5 -6t110 21.5t55.5 70.5q0 58 -86 58q-59 0 -101 -15l58 173q-92 14 -154 66q-26 22 -37 21q-30 0 -42 -77h-47q8 117 8 409h47q29 -237 99.5 -310t185.5 -73q72 0 127 47.5t55 145.5
q1 98 -93 174q-47 38 -112 79t-76.5 48.5t-45 30t-45.5 32.5t-38 32t-36 36q-10 13 -27 37q-41 57 -41 145q0 130 86.5 197t216.5 67t223 -75q22 -17 36 -17q36 0 46 90h47q-8 -100 -8 -348h-47q-51 311 -279 311q-74 0 -121 -41.5t-47 -105t22 -93.5t36.5 -46t43 -36.5
t47 -33t56.5 -36t75.5 -48t71.5 -48.5q95 -66 143 -136.5t48 -161.5q1 -92 -49 -158q-96 -130 -301 -129h-21l-39 -118q61 14 120 14z" />
    <glyph glyph-name="Scaron" unicode="&#x160;" horiz-adv-x="1106" 
d="M221 76q-34 0 -45 -90h-47q8 112 8 491h47q14 -198 98.5 -331.5t274.5 -133.5q110 0 188 69t78 196.5t-81.5 207.5t-189 145t-144 88.5t-84.5 59.5q-77 58 -131 141.5t-54 184.5q0 190 113.5 279.5t250.5 89.5t211 -39q24 -13 65 -39.5t65 -26.5q34 0 45 90h47
q-10 -120 -10 -418h-47q-12 158 -92 276t-244 118q-110 0 -180 -66.5t-70 -171.5q0 -65 17.5 -99.5t30 -54.5t36 -41.5t40.5 -36.5t49.5 -36.5t52 -34t58.5 -36t76.5 -47t72 -46t77.5 -54t69 -57.5q71 -70 102.5 -138.5t31.5 -174.5t-60 -196q-116 -174 -375 -173
q-159 0 -275 73q-51 32 -75 32zM166 1896q267 -55 432 -143q138 89 350 143l11 -28q-132 -46 -233.5 -118.5t-149.5 -152.5h-37q-49 80 -150.5 152.5t-232.5 118.5z" />
    <glyph glyph-name="scaron" unicode="&#x161;" horiz-adv-x="913" 
d="M424 1083q130 0 223 -75q22 -17 36 -17q36 0 46 90h47q-8 -100 -8 -348h-47q-51 311 -279 311q-74 0 -121 -41.5t-47 -105t22 -93.5t36.5 -46t43 -36.5t47 -33t56.5 -36t75.5 -48t71.5 -48.5q95 -66 143 -136.5t48 -161.5q1 -92 -49 -158q-96 -130 -301 -129
q-91 0 -162 29q-40 20 -66 41.5t-37 21.5q-30 0 -42 -77h-47q8 117 8 409h47q29 -237 99.5 -310t185.5 -73q72 0 127 47.5t55 145.5q1 98 -93 174q-47 38 -112 79t-76.5 48.5t-45 30t-45.5 32.5t-38 32t-36 36q-10 13 -27 37q-41 57 -41 145q0 130 86.5 197t216.5 67z
M791 1642l16 -28q-117 -58 -208.5 -153t-133.5 -199h-37q-42 104 -133.5 199t-208.5 153l17 28q111 -38 216 -94t169 -110q114 120 303 204z" />
    <glyph glyph-name="Tcedilla" unicode="&#x162;" horiz-adv-x="1272" 
d="M726 -133q126 -1 126 -101q0 -50 -38 -86q-68 -65 -183 -65t-180 23l8 36q42 -6 97 -6t110 21.5t55 70.5q0 58 -86 58q-58 0 -100 -15l68 203q-181 0 -269 -6v41q103 4 137.5 19.5t52 49t17.5 128.5v1165h-111q-133 0 -178 -29q-45 -28 -65 -54q-48 -61 -72 -300h-47
q6 64 6 176t-15 254q170 -6 576.5 -6t576.5 6q-14 -146 -14 -256t6 -174h-47q-24 239 -73.5 300.5t-131.5 75.5q-46 8 -110 7h-111v-1165q0 -95 17.5 -128.5t52 -49t137.5 -19.5v-41q-100 6 -279 6l-53 -153q61 14 120 14z" />
    <glyph glyph-name="tcedilla" unicode="&#x163;" horiz-adv-x="725" 
d="M389 219q1 -174 131 -174q64 0 109 51t76 168l40 -10q-50 -283 -266 -283h-21l-39 -118q61 14 120 14q126 -1 126 -101q-1 -50 -39 -86q-68 -65 -183 -65t-180 23l9 36q42 -6 96.5 -6t110 21.5t55.5 70.5q0 58 -86 58q-59 0 -101 -15l58 174q-70 12 -117 59.5t-65 113
t-18 176.5v686h-197v41h197v313q115 3 184 29v-342h303v-41h-303v-793z" />
    <glyph glyph-name="Tcaron" unicode="&#x164;" horiz-adv-x="1272" 
d="M1198 1194q0 -110 6 -174h-47q-24 239 -73.5 300.5t-131.5 75.5q-46 8 -110 7h-111v-1165q0 -95 17.5 -128.5t52 -49t137.5 -19.5v-41q-108 6 -307 6t-297 -6v41q103 4 137.5 19.5t52 49t17.5 128.5v1165h-111q-133 0 -178 -29q-45 -28 -65 -54q-48 -61 -72 -300h-47
q6 64 6 176t-15 254q170 -6 576.5 -6t576.5 6q-14 -146 -14 -256zM240 1896q267 -55 432 -143q138 89 350 143l11 -28q-132 -46 -233.5 -118.5t-149.5 -152.5h-37q-49 80 -150.5 152.5t-232.5 118.5z" />
    <glyph glyph-name="tcaron" unicode="&#x165;" horiz-adv-x="725" 
d="M389 219q1 -174 131 -174q64 0 109 51t76 168l40 -10q-50 -283 -266 -283q-207 1 -256 179q-18 66 -18 176v686h-197v41h197v313q115 3 184 29v-342h303v-41h-303v-793zM695 1529q0 -47 -22 -114t-116 -264l-28 8q41 237 41 288.5t-8.5 71t-32.5 19.5v43q12 -1 53 -1
t102 24q11 -28 11 -75z" />
    <glyph glyph-name="Tbar" unicode="&#x166;" horiz-adv-x="1284" 
d="M1202 1194q0 -110 6 -174h-47q-24 239 -73.5 300.5t-131.5 75.5q-46 8 -110 7h-111v-653h328v-41h-328v-471q0 -95 17.5 -128.5t52 -49t137.5 -19.5v-41q-108 6 -307 6t-297 -6v41q103 4 137.5 19.5t52 49t17.5 128.5v471h-330v41h330v653h-111q-133 0 -178 -29
q-45 -28 -65 -54q-48 -61 -72 -300h-47q6 64 6 176t-15 254q170 -6 576.5 -6t576.5 6q-14 -146 -14 -256z" />
    <glyph glyph-name="tbar" unicode="&#x167;" horiz-adv-x="770" 
d="M395 219q1 -174 131 -174q64 0 109 51t76 168l40 -10q-50 -283 -266 -283q-207 1 -256 179q-18 66 -18 176v495h-197v41h197v150h-197v41h197v313q115 3 184 29v-342h303v-41h-303v-150h303v-41h-303v-602z" />
    <glyph glyph-name="Utilde" unicode="&#x168;" horiz-adv-x="1397" 
d="M1176 1212v-616q0 -291 -84 -434q-52 -88 -151.5 -139.5t-223.5 -51.5q-225 0 -344 111q-90 84 -121 190t-31 318v643q0 58 -5.5 89.5t-25.5 51.5t-49.5 26.5t-85.5 8.5v41q87 -6 257 -6t266 6v-41q-56 -2 -85.5 -8.5t-49.5 -26.5t-25.5 -51.5t-5.5 -89.5v-678
q0 -263 53.5 -364t144.5 -131q54 -18 146 -17.5t170 39.5q202 100 202 491v639q0 111 -40 151.5t-146 45.5v41q74 -6 203 -6t196 6v-41q-102 -4 -133.5 -43t-31.5 -154zM957.5 1690q90.5 0 122.5 114l30 -6q-9 -99 -73.5 -158t-146.5 -59t-172 56l-74 46q-90 56 -158 56
q-96 0 -127 -115l-31 6q9 99 74 158t156 59t200 -78.5t199.5 -78.5z" />
    <glyph glyph-name="utilde" unicode="&#x169;" horiz-adv-x="1190" 
d="M805 217q-97 -246 -351 -246q-122 0 -194 75.5t-72 270.5v514q0 95 -34 138t-121 43v43q64 -6 160 -6t180 28v-805q0 -146 37.5 -190.5t117.5 -44.5q119 0 198 106.5t79 264.5v423q0 95 -34.5 138t-121.5 43v43q64 -6 160.5 -6t179.5 28v-856q0 -95 34.5 -137.5
t121.5 -42.5v-43q-65 6 -162 6t-178 -29v242zM692 1321q-110 0 -183.5 68.5t-143.5 68.5q-91 0 -158 -110l-29 14q31 108 95.5 159.5t143.5 51.5q79 1 143 -47l52 -40q61 -48 119 -48q93 0 158 108l29 -14q-31 -108 -95.5 -159.5t-130.5 -51.5z" />
    <glyph glyph-name="Umacron" unicode="&#x16a;" horiz-adv-x="1397" 
d="M1176 1212v-616q0 -291 -84 -434q-52 -88 -151.5 -139.5t-223.5 -51.5q-225 0 -344 111q-90 84 -121 190t-31 318v643q0 58 -5.5 89.5t-25.5 51.5t-49.5 26.5t-85.5 8.5v41q87 -6 257 -6t266 6v-41q-56 -2 -85.5 -8.5t-49.5 -26.5t-25.5 -51.5t-5.5 -89.5v-678
q0 -263 53.5 -364t144.5 -131q54 -18 146 -17.5t170 39.5q202 100 202 491v639q0 111 -40 151.5t-146 45.5v41q74 -6 203 -6t196 6v-41q-102 -4 -133.5 -43t-31.5 -154zM1081 1677h-721v52h721v-52z" />
    <glyph glyph-name="umacron" unicode="&#x16b;" horiz-adv-x="1190" 
d="M805 217q-97 -246 -351 -246q-122 0 -194 75.5t-72 270.5v514q0 95 -34 138t-121 43v43q64 -6 160 -6t180 28v-805q0 -146 37.5 -190.5t117.5 -44.5q119 0 198 106.5t79 264.5v423q0 95 -34.5 138t-121.5 43v43q64 -6 160.5 -6t179.5 28v-856q0 -95 34.5 -137.5
t121.5 -42.5v-43q-65 6 -162 6t-178 -29v242zM886 1407h-639v51h639v-51z" />
    <glyph glyph-name="Ubreve" unicode="&#x16c;" horiz-adv-x="1397" 
d="M1176 1212v-616q0 -291 -84 -434q-52 -88 -151.5 -139.5t-223.5 -51.5q-225 0 -344 111q-90 84 -121 190t-31 318v643q0 58 -5.5 89.5t-25.5 51.5t-49.5 26.5t-85.5 8.5v41q87 -6 257 -6t266 6v-41q-56 -2 -85.5 -8.5t-49.5 -26.5t-25.5 -51.5t-5.5 -89.5v-678
q0 -263 53.5 -364t144.5 -131q54 -18 146 -17.5t170 39.5q202 100 202 491v639q0 111 -40 151.5t-146 45.5v41q74 -6 203 -6t196 6v-41q-102 -4 -133.5 -43t-31.5 -154zM721 1602q-98 0 -183.5 39t-136 88.5t-88.5 109.5l27 21q133 -131 381 -131q134 0 230 38.5t153 94.5
l24 -23q-54 -88 -155 -162.5t-252 -74.5z" />
    <glyph glyph-name="ubreve" unicode="&#x16d;" horiz-adv-x="1190" 
d="M805 217q-97 -246 -351 -246q-122 0 -194 75.5t-72 270.5v514q0 95 -34 138t-121 43v43q64 -6 160 -6t180 28v-805q0 -146 37.5 -190.5t117.5 -44.5q119 0 198 106.5t79 264.5v423q0 95 -34.5 138t-121.5 43v43q64 -6 160.5 -6t179.5 28v-856q0 -95 34.5 -137.5
t121.5 -42.5v-43q-65 6 -162 6t-178 -29v242zM344.5 1388.5q-92.5 92.5 -139.5 206.5l34 19q120 -197 333 -197t331 197l35 -19q-46 -113 -138 -206t-227.5 -93t-228 92.5z" />
    <glyph glyph-name="Uring" unicode="&#x16e;" horiz-adv-x="1397" 
d="M1176 1212v-616q0 -291 -84 -434q-52 -88 -151.5 -139.5t-223.5 -51.5q-225 0 -344 111q-90 84 -121 190t-31 318v643q0 58 -5.5 89.5t-25.5 51.5t-49.5 26.5t-85.5 8.5v41q87 -6 257 -6t266 6v-41q-56 -2 -85.5 -8.5t-49.5 -26.5t-25.5 -51.5t-5.5 -89.5v-678
q0 -263 53.5 -364t144.5 -131q54 -18 146 -17.5t170 39.5q202 100 202 491v639q0 111 -40 151.5t-146 45.5v41q74 -6 203 -6t196 6v-41q-102 -4 -133.5 -43t-31.5 -154zM722 1974q-54 0 -97 -39.5t-43 -106.5t42.5 -105t97.5 -38t98 38t43 105t-43.5 106.5t-97.5 39.5z
M722 2017q82 0 140 -51.5t58 -135.5t-58 -136t-140 -52t-139.5 52t-57.5 136t57.5 135.5t139.5 51.5z" />
    <glyph glyph-name="uring" unicode="&#x16f;" horiz-adv-x="1190" 
d="M805 217q-97 -246 -351 -246q-122 0 -194 75.5t-72 270.5v514q0 95 -34 138t-121 43v43q64 -6 160 -6t180 28v-805q0 -146 37.5 -190.5t117.5 -44.5q119 0 198 106.5t79 264.5v423q0 95 -34.5 138t-121.5 43v43q64 -6 160.5 -6t179.5 28v-856q0 -95 34.5 -137.5
t121.5 -42.5v-43q-65 6 -162 6t-178 -29v242zM574 1577q-54 0 -97 -39.5t-43 -106.5t42.5 -105t97.5 -38t98 38t43 105t-43.5 106.5t-97.5 39.5zM574 1620q82 0 140 -51.5t58 -135.5t-58 -136t-140 -52t-139.5 52t-57.5 136t57.5 135.5t139.5 51.5z" />
    <glyph glyph-name="Uhungarumlaut" unicode="&#x170;" horiz-adv-x="1397" 
d="M1176 1212v-616q0 -291 -84 -434q-52 -88 -151.5 -139.5t-223.5 -51.5q-225 0 -344 111q-90 84 -121 190t-31 318v643q0 58 -5.5 89.5t-25.5 51.5t-49.5 26.5t-85.5 8.5v41q87 -6 257 -6t266 6v-41q-56 -2 -85.5 -8.5t-49.5 -26.5t-25.5 -51.5t-5.5 -89.5v-678
q0 -263 53.5 -364t144.5 -131q54 -18 146 -17.5t170 39.5q202 100 202 491v639q0 111 -40 151.5t-146 45.5v41q74 -6 203 -6t196 6v-41q-102 -4 -133.5 -43t-31.5 -154zM1109 1918q35 0 55 -23.5t20 -57t-42 -68.5t-154.5 -92t-168.5 -96l-18 25q47 47 123 147t113 132.5
t72 32.5zM726 1918q35 0 55 -23.5t20 -57t-42 -68.5t-154.5 -92t-168.5 -96l-18 25q47 47 123 147t113 132.5t72 32.5z" />
    <glyph glyph-name="uhungarumlaut" unicode="&#x171;" horiz-adv-x="1190" 
d="M805 217q-97 -246 -351 -246q-122 0 -194 75.5t-72 270.5v514q0 95 -34 138t-121 43v43q64 -6 160 -6t180 28v-805q0 -146 37.5 -190.5t117.5 -44.5q119 0 198 106.5t79 264.5v423q0 95 -34.5 138t-121.5 43v43q64 -6 160.5 -6t179.5 28v-856q0 -95 34.5 -137.5
t121.5 -42.5v-43q-65 6 -162 6t-178 -29v242zM959.5 1680q34.5 0 58 -19t23.5 -53q0 -56 -100 -144q-164 -145 -252 -237l-22 18q66 104 130 227.5t96 165.5t66.5 42zM594 1680q34 0 58 -19t24 -52.5t-29 -71t-133.5 -129t-188.5 -181.5l-23 18q66 104 130 227.5t96 165.5
t66 42z" />
    <glyph glyph-name="Uogonek" unicode="&#x172;" horiz-adv-x="1397" 
d="M540 -252q0 134 194 223h-17q-225 0 -344 111q-90 84 -121 190t-31 318v643q0 58 -5.5 89.5t-25.5 51.5t-49.5 26.5t-85.5 8.5v41q87 -6 257 -6t266 6v-41q-56 -2 -85.5 -8.5t-49.5 -26.5t-25.5 -51.5t-5.5 -89.5v-678q0 -263 53.5 -364t144.5 -131q54 -18 146 -17.5
t170 39.5q202 100 202 491v639q0 111 -40 151.5t-146 45.5v41q74 -6 203 -6t196 6v-41q-102 -4 -133.5 -43t-31.5 -154v-616q0 -291 -82 -430t-255 -181q-78 -33 -113.5 -82t-35.5 -95t23.5 -70.5t64.5 -24.5q76 0 125 68l30 -27q-91 -139 -231 -139q-73 0 -117.5 36.5
t-44.5 96.5z" />
    <glyph glyph-name="uogonek" unicode="&#x173;" horiz-adv-x="1190" 
d="M805 217q-97 -246 -351 -246q-122 0 -194 75.5t-72 270.5v514q0 95 -34 138t-121 43v43q64 -6 160 -6t180 28v-805q0 -146 37.5 -190.5t117.5 -44.5q119 0 198 106.5t79 264.5v423q0 95 -34.5 138t-121.5 43v43q64 -6 160.5 -6t179.5 28v-856q0 -95 34.5 -137.5
t121.5 -42.5v-43l-34 3q-12 -5 -13 -5q-178 -76 -178 -193q0 -41 23.5 -65.5t64.5 -24.5q76 0 125 68l30 -27q-91 -139 -231 -139q-73 0 -117.5 36.5t-44.5 106t71.5 136t204.5 110.5h-28q-132 0 -213 -29v242z" />
    <glyph glyph-name="Wcircumflex" unicode="&#x174;" horiz-adv-x="1853" 
d="M210.5 1444q141.5 0 215.5 6v-41q-54 -4 -77 -20t-23 -50t22 -102l300 -913l248 793l-54 161q-42 127 -121 131v41q74 -6 224 -6t237 6v-41q-115 -6 -132 -36q-8 -14 -8 -42.5t21 -93.5l294 -911l253 792q33 104 33 168.5t-41.5 92.5t-133.5 30v41q117 -6 222.5 -6
t167.5 6v-41q-114 -25 -162 -178l-387 -1241h-33l-356 1055l-326 -1055h-33l-434 1288q-44 126 -141 131v41q83 -6 224.5 -6zM1341 1577q-275 58 -432 143q-130 -85 -350 -143l-10 29q131 45 232.5 117.5t150.5 152.5h37q48 -80 149.5 -152.5t233.5 -117.5z" />
    <glyph glyph-name="wcircumflex" unicode="&#x175;" horiz-adv-x="1577" 
d="M1428.5 1049q77.5 0 142.5 6v-41q-90 -10 -133 -144l-297 -880h-35l-325 824l-292 -824h-34l-336 907q-44 115 -119 115v43q86 -13 178.5 -13t267.5 13v-43q-95 0 -111 -12q-32 -24 -32 -62.5t21 -97.5l205 -589l294 812h47l314 -829l192 587q19 60 19 101q0 83 -152 92
v41q108 -6 185.5 -6zM1186 1262q-245 84 -385 204q-114 -120 -303 -204l-17 28q117 58 208.5 153t133.5 199h37q42 -104 133.5 -199t208.5 -153z" />
    <glyph glyph-name="Ycircumflex" unicode="&#x176;" horiz-adv-x="1210" 
d="M1037 1444q105 0 167 6v-41q-80 -18 -164 -182l-321 -637v-373q0 -58 5.5 -89.5t25.5 -51.5t49.5 -26.5t85.5 -8.5v-41q-96 6 -266 6t-257 -6v41q56 2 85.5 8.5t49.5 26.5t25.5 51.5t5.5 89.5v309l-415 766q-38 69 -65.5 92t-53.5 23v43q80 -6 229.5 -6t237.5 6v-43
q-144 0 -144 -79q0 -30 21 -71l341 -653l261 520q56 113 56 173.5t-45 85t-136 26.5v41q117 -6 222 -6zM1014 1577q-275 58 -432 143q-130 -85 -350 -143l-10 29q131 45 232.5 117.5t150.5 152.5h37q48 -80 149.5 -152.5t233.5 -117.5z" />
    <glyph glyph-name="ycircumflex" unicode="&#x177;" horiz-adv-x="1032" 
d="M192 -154q107 0 107 -104q0 -54 -55 -84q4 -2 12 -2q113 0 174 160l73 187l-372 894q-57 115 -139 115v43q96 -13 192.5 -13t274.5 13v-43q-93 0 -118 -16.5t-25 -54t26 -101.5l247 -612l226 593q22 60 22 101q0 82 -153 92v41q108 -6 186 -6t142 6v-41q-41 -5 -73 -37
t-60 -107l-406 -1058q-39 -101 -93 -149q-52 -48 -134 -48q-160 0 -160 123q0 49 29 78.5t77 29.5zM864 1262q-245 84 -385 204q-114 -120 -303 -204l-17 28q117 58 208.5 153t133.5 199h37q42 -104 133.5 -199t208.5 -153z" />
    <glyph glyph-name="Ydieresis" unicode="&#x178;" horiz-adv-x="1210" 
d="M1037 1444q105 0 167 6v-41q-80 -18 -164 -182l-321 -637v-373q0 -58 5.5 -89.5t25.5 -51.5t49.5 -26.5t85.5 -8.5v-41q-96 6 -266 6t-257 -6v41q56 2 85.5 8.5t49.5 26.5t25.5 51.5t5.5 89.5v309l-415 766q-38 69 -65.5 92t-53.5 23v43q80 -6 229.5 -6t237.5 6v-43
q-144 0 -144 -79q0 -30 21 -71l341 -653l261 520q56 113 56 173.5t-45 85t-136 26.5v41q117 -6 222 -6zM839.5 1581q-48.5 0 -83.5 35t-35 83.5t35.5 84t83.5 35.5t83.5 -36t35.5 -84t-35.5 -83t-84 -35zM405 1581q-49 0 -83.5 34.5t-34.5 83.5t35 84.5t83 35.5t84 -36
t36 -84t-35.5 -83t-84.5 -35z" />
    <glyph glyph-name="Zacute" unicode="&#x179;" horiz-adv-x="1217" 
d="M711 47q97 0 156.5 18.5t96.5 67.5t54 115.5t29 181.5h47q-7 -75 -7 -174.5t15 -255.5q-152 6 -506 6t-510 -6v41l854 1362h-430q-97 0 -156.5 -18.5t-96.5 -67.5t-54 -115.5t-29 -181.5h-47q6 64 6 174t-14 256q151 -6 504.5 -6t502.5 6v-41l-847 -1362h432zM889.5 1916
q35.5 0 52.5 -26.5t17 -45.5q0 -45 -47 -75t-177 -80.5t-242 -107.5l-14 27q98 75 200.5 168.5t138.5 116.5t71.5 23z" />
    <glyph glyph-name="zacute" unicode="&#x17a;" horiz-adv-x="975" 
d="M532 31q260 0 285 329h47q0 -267 8 -368q-160 8 -368 8t-426 -10l592 1034h-226q-137 0 -204 -76.5t-80 -253.5h-47q0 271 -9 369q161 -8 369 -8t426 10l-592 -1034h225zM685.5 1680q34.5 0 58 -19t23.5 -52.5t-29 -71t-133.5 -129t-189.5 -181.5l-22 18
q66 104 130 227.5t96 165.5t66.5 42z" />
    <glyph glyph-name="Zdotaccent" unicode="&#x17b;" horiz-adv-x="1217" 
d="M711 47q97 0 156.5 18.5t96.5 67.5t54 115.5t29 181.5h47q-7 -75 -7 -174.5t15 -255.5q-152 6 -506 6t-510 -6v41l854 1362h-430q-97 0 -156.5 -18.5t-96.5 -67.5t-54 -115.5t-29 -181.5h-47q6 64 6 174t-14 256q151 -6 504.5 -6t502.5 6v-41l-847 -1362h432zM603.5 1964
q53.5 0 92.5 -39t39 -92.5t-39 -92t-92.5 -38.5t-92 38.5t-38.5 92t38.5 92.5t92 39z" />
    <glyph glyph-name="zdotaccent" unicode="&#x17c;" horiz-adv-x="975" 
d="M532 31q260 0 285 329h47q0 -267 8 -368q-160 8 -368 8t-426 -10l592 1034h-226q-137 0 -204 -76.5t-80 -253.5h-47q0 271 -9 369q161 -8 369 -8t426 10l-592 -1034h225zM519.5 1567q53.5 0 92.5 -39t39 -92.5t-39 -92t-92.5 -38.5t-92 38.5t-38.5 92t38.5 92.5t92 39z
" />
    <glyph glyph-name="Zcaron" unicode="&#x17d;" horiz-adv-x="1217" 
d="M711 47q97 0 156.5 18.5t96.5 67.5t54 115.5t29 181.5h47q-7 -75 -7 -174.5t15 -255.5q-152 6 -506 6t-510 -6v41l854 1362h-430q-97 0 -156.5 -18.5t-96.5 -67.5t-54 -115.5t-29 -181.5h-47q6 64 6 174t-14 256q151 -6 504.5 -6t502.5 6v-41l-847 -1362h432zM207 1896
q267 -55 432 -143q138 89 350 143l11 -28q-132 -46 -233.5 -118.5t-149.5 -152.5h-37q-49 80 -150.5 152.5t-232.5 118.5z" />
    <glyph glyph-name="zcaron" unicode="&#x17e;" horiz-adv-x="975" 
d="M532 31q260 0 285 329h47q0 -267 8 -368q-160 8 -368 8t-426 -10l592 1034h-226q-137 0 -204 -76.5t-80 -253.5h-47q0 271 -9 369q161 -8 369 -8t426 10l-592 -1034h225zM844 1642l16 -28q-117 -58 -208.5 -153t-133.5 -199h-37q-42 104 -133.5 199t-208.5 153l17 28
q111 -38 216 -94t169 -110q114 120 303 204z" />
    <glyph glyph-name="florin" unicode="&#x192;" horiz-adv-x="940" 
d="M694 1417q0 77 88 105q-6 19 -36 34t-72 15q-92 0 -133 -76q-25 -43 -31 -129t-6 -311v-2h342v-41h-342v-776q0 -356 -101 -486q-105 -134 -256 -135q-67 0 -102 31q-35 32 -35 76t26 71t68 27t69 -26q26 -26 26 -70t-33 -78q77 9 110 49q43 47 43 172v1145h-245v41h245
v2q0 179 23 277q22 98 72 156q96 114 254 114q107 0 174 -53t67 -130q-1 -44 -29 -74t-76 -30t-80 27q-30 27 -30 75z" />
    <glyph glyph-name="Gacute" unicode="&#x1f4;" horiz-adv-x="1440" 
d="M1180 1325q39 0 51 125h47q-8 -133 -8 -471h-47q-23 141 -48 203q-59 148 -210 217q-95 43 -199 43q-205 0 -328 -195t-123 -543.5t118.5 -520t369.5 -171.5q123 0 213 64q37 25 48 48t11 64v197q0 123 -38 157.5t-169 39.5v41q101 -7 267 -7t235 7v-41q-48 -4 -68 -16.5
t-28 -46.5t-8 -113v-406h-41q-2 42 -17 79.5t-37.5 37.5t-68.5 -35q-147 -111 -320 -111q-317 0 -494 193t-177 536q0 176 49.5 323t137 246.5t209 154.5t256 55t215.5 -38t134 -77t68 -39zM1024.5 1916q35.5 0 52.5 -26.5t17 -45.5q0 -45 -47 -75t-177 -80.5t-242 -107.5
l-14 27q98 75 200.5 168.5t138.5 116.5t71.5 23z" />
    <glyph glyph-name="gacute" unicode="&#x1f5;" horiz-adv-x="1061" 
d="M503 -350q70 0 135 18t120.5 52t90 91t34.5 122.5t-33 92.5t-123 27h-381q-65 -33 -102 -90.5t-37 -120t47.5 -108.5t113 -65t135.5 -19zM528.5 1047q-91.5 0 -139 -65.5t-47.5 -221.5t47.5 -221.5t139 -65.5t139 65t47.5 222t-47.5 222t-139 65zM993 1210.5
q0 -44.5 -28 -72.5t-75 -28t-70 31.5t-34 97.5q-30 -27 -50.5 -90.5t-25.5 -94.5q197 -73 197 -294q0 -162 -104.5 -243t-274.5 -81q-85 0 -151 19q-83 -44 -127.5 -81.5t-44.5 -80.5q0 -68 98 -68h481q107 0 173.5 -45t66.5 -155q0 -111 -94 -223t-268 -160
q-96 -26 -207 -26.5t-202.5 20t-152.5 64t-61 108.5t73.5 130t183.5 115h-7q-137 1 -184 75q-21 34 -21 92.5t58.5 121.5t197.5 126q-190 74 -190 292q0 109 50 183q96 140 328 140q79 0 145 -18q46 250 212 250q51 0 79.5 -30t28.5 -74.5zM681.5 1680q34.5 0 58 -19
t23.5 -52.5t-29 -71t-133.5 -129t-189.5 -181.5l-22 18q66 104 130 227.5t96 165.5t66.5 42z" />
    <glyph glyph-name="Scommaaccent" unicode="&#x218;" horiz-adv-x="1106" 
d="M579.5 -141q53.5 0 90.5 -41.5t37 -110.5t-36.5 -117.5t-131.5 -83.5l-14 37q53 16 90 50t37 79q-37 -32 -85 -32t-78 29t-30 78t33.5 80.5t87 31.5zM221 76q-34 0 -45 -90h-47q8 112 8 491h47q14 -198 98.5 -331.5t274.5 -133.5q110 0 188 69t78 196.5t-81.5 207.5
t-189 145t-144 88.5t-84.5 59.5q-77 58 -131 141.5t-54 184.5q0 190 113.5 279.5t250.5 89.5t211 -39q24 -13 65 -39.5t65 -26.5q34 0 45 90h47q-10 -120 -10 -418h-47q-12 158 -92 276t-244 118q-110 0 -180 -66.5t-70 -171.5q0 -65 17.5 -99.5t30 -54.5t36 -41.5
t40.5 -36.5t49.5 -36.5t52 -34t58.5 -36t76.5 -47t72 -46t77.5 -54t69 -57.5q71 -70 102.5 -138.5t31.5 -174.5t-60 -196q-116 -174 -375 -173q-159 0 -275 73q-51 32 -75 32z" />
    <glyph glyph-name="scommaaccent" unicode="&#x219;" horiz-adv-x="913" 
d="M458.5 -141q53.5 0 90.5 -41.5t37 -110.5t-36.5 -117.5t-131.5 -83.5l-14 37q53 16 90.5 50t36.5 79q-37 -32 -85 -32t-78 29t-30 78t33.5 80.5t87 31.5zM424 1083q130 0 223 -75q22 -17 36 -17q36 0 46 90h47q-8 -100 -8 -348h-47q-51 311 -279 311q-74 0 -121 -41.5
t-47 -105t22 -93.5t36.5 -46t43 -36.5t47 -33t56.5 -36t75.5 -48t71.5 -48.5q95 -66 143 -136.5t48 -161.5q1 -92 -49 -158q-96 -130 -301 -129q-91 0 -162 29q-40 20 -66 41.5t-37 21.5q-30 0 -42 -77h-47q8 117 8 409h47q29 -237 99.5 -310t185.5 -73q72 0 127 47.5
t55 145.5q1 98 -93 174q-47 38 -112 79t-76.5 48.5t-45 30t-45.5 32.5t-38 32t-36 36q-10 13 -27 37q-41 57 -41 145q0 130 86.5 197t216.5 67z" />
    <glyph glyph-name="uni021A" unicode="&#x21a;" horiz-adv-x="1272" 
d="M630.5 -141q53.5 0 90.5 -41.5t37 -110.5t-36.5 -117.5t-131.5 -83.5l-14 37q53 16 90 50t37 79q-37 -32 -85 -32t-78 29t-30 78t33.5 80.5t87 31.5zM1198 1194q0 -110 6 -174h-47q-24 239 -73.5 300.5t-131.5 75.5q-46 8 -110 7h-111v-1165q0 -95 17.5 -128.5t52 -49
t137.5 -19.5v-41q-108 6 -307 6t-297 -6v41q103 4 137.5 19.5t52 49t17.5 128.5v1165h-111q-133 0 -178 -29q-45 -28 -65 -54q-48 -61 -72 -300h-47q6 64 6 176t-15 254q170 -6 576.5 -6t576.5 6q-14 -146 -14 -256z" />
    <glyph glyph-name="uni021B" unicode="&#x21b;" horiz-adv-x="725" 
d="M470.5 -141q53.5 0 90.5 -41.5t37 -110.5t-36.5 -117.5t-131.5 -83.5l-14 37q53 16 90.5 50t36.5 79q-37 -32 -85 -32t-78 29t-30 78t33.5 80.5t87 31.5zM389 219q1 -174 131 -174q64 0 109 51t76 168l40 -10q-50 -283 -266 -283q-207 1 -256 179q-18 66 -18 176v686
h-197v41h197v313q115 3 184 29v-342h303v-41h-303v-793z" />
    <glyph glyph-name="dotlessj" unicode="&#x237;" horiz-adv-x="547" 
d="M39 -354q162 0 162 221v964q0 95 -34.5 138t-121.5 43v43q64 -6 160.5 -6t179.5 28v-841q0 -359 -103 -490t-253 -131q-72 0 -116 32.5t-44 86t29.5 83t76.5 29.5q107 0 107 -100q0 -70 -78 -98q12 -2 35 -2z" />
    <glyph glyph-name="circumflex" unicode="&#x2c6;" horiz-adv-x="823" 
d="M756 1262q-245 84 -385 204q-114 -120 -303 -204l-17 28q117 58 209 153t133 199h37q42 -104 134 -199t208 -153z" />
    <glyph glyph-name="caron" unicode="&#x2c7;" horiz-adv-x="823" 
d="M756 1642l16 -28q-116 -58 -208 -153t-134 -199h-37q-41 104 -133 199t-209 153l17 28q111 -38 216 -94t169 -110q114 120 303 204z" />
    <glyph glyph-name="breve" unicode="&#x2d8;" horiz-adv-x="877" 
d="M211 1389q-93 93 -139 206l34 19q120 -197 333 -197t331 197l35 -19q-46 -113 -138 -206t-228 -93q-135 0 -228 93z" />
    <glyph glyph-name="dotaccent" unicode="&#x2d9;" horiz-adv-x="406" 
d="M202 1567q54 0 93 -39q39 -38 39 -92t-39 -92t-93 -39q-54 1 -92 39t-38 92t38 92q38 39 92 39z" />
    <glyph glyph-name="ring" unicode="&#x2da;" horiz-adv-x="539" 
d="M269 1577q-54 0 -97 -39.5t-43 -106.5t42.5 -105t97.5 -38t98 38t43 105t-43.5 106.5t-97.5 39.5zM269 1620q82 0 140 -51.5t58 -135.5t-58 -136t-140 -52t-139.5 52t-57.5 136t57.5 135.5t139.5 51.5z" />
    <glyph glyph-name="ogonek" unicode="&#x2db;" horiz-adv-x="496" 
d="M287 -287q76 0 125 68l30 -27q-91 -139 -231 -139q-73 1 -117 37t-45 106t73 137t210 111h65q-5 -5 -20 -10q-178 -76 -178 -193q-1 -41 23 -65t65 -25z" />
    <glyph glyph-name="tilde" unicode="&#x2dc;" horiz-adv-x="842" 
d="M604 1438q93 0 158 108l29 -14q-31 -108 -95 -160t-131 -51q-109 1 -183 69t-144 68q-91 0 -158 -110l-29 14q31 108 95 160t144 51q80 1 144 -47l52 -40q62 -48 118 -48z" />
    <glyph glyph-name="hungarumlaut" unicode="&#x2dd;" horiz-adv-x="842" 
d="M790 1608q0 -56 -100 -144q-164 -145 -252 -237l-22 18q66 103 130 227t96 166t66 42t58 -19t24 -53zM344 1680q34 0 58 -19t23 -53q0 -34 -29 -70q-30 -38 -134 -130t-188 -181l-23 18q66 103 130 227t96 166q33 42 67 42z" />
    <glyph glyph-name="commaaccentcomb" unicode="&#x326;" horiz-adv-x="0" 
d="M208.5 -141q53.5 0 90.5 -41.5t37 -110.5t-36.5 -117.5t-131.5 -83.5l-14 37q53 16 90.5 50t36.5 79q-37 -32 -85 -32t-78 29t-30 78t33.5 80.5t87 31.5z" />
    <glyph glyph-name="Delta" unicode="&#x394;" horiz-adv-x="1032" 
d="M119 61h622l-286 1049zM512 6q-226 0 -455 -6l478 1479h32l396 -1479q-225 6 -451 6z" />
    <glyph glyph-name="Omega" unicode="&#x3a9;" horiz-adv-x="1462" 
d="M307 6q-100 0 -160 -6q15 130 15 232t-6 157h47q17 -193 81 -267t214 -75h98q-72 136 -185 294q-112 159 -163 245q-107 181 -107 381q-1 241 153 377t437 135q283 1 437 -135t153 -377q-1 -199 -107 -381q-50 -86 -164 -248q-114 -161 -184 -291h99q150 1 214 75t81 267
h47q-7 -65 -7 -155t15 -234q-60 6 -160 6t-340 -6v33q301 452 301 893q0 252 -90 384t-294 132t-296 -132q-90 -132 -90 -384q0 -442 301 -893v-33q-240 6 -340 6z" />
    <glyph glyph-name="mu" unicode="&#x3bc;" horiz-adv-x="1360" 
d="M1020 1083q78 0 78 -86q0 -56 -41 -130q-84 -149 -118 -346q-18 -137 -18 -205t23 -97t92 -29q146 0 219 269l39 -8q-65 -339 -203 -443q-49 -37 -104 -37q-129 0 -129 184q0 34 8 110q-127 -294 -331 -294q-151 0 -162 189q-50 -298 -119 -465q-31 -80 -119 -80
q-40 -1 -62 21t-22 50q-1 28 11 54t25 44t43 54q30 37 46 60q76 101 130 241t75 357q6 448 12 492t38 70t73 25q78 0 78 -86q0 -54 -38 -125q-79 -147 -115 -328l-21 -200q13 -154 161 -154q115 0 193 63t129 206l6 48q6 438 10 466q17 110 113 110z" />
    <glyph glyph-name="pi" unicode="&#x3c0;" horiz-adv-x="1235" 
d="M739 310q0 -120 103 -120q82 0 138 62t95 207l39 -8q-45 -245 -147 -387q-67 -93 -160 -93q-129 0 -129 184q0 45 6 91l80 635h-223q-56 -551 -166 -830q-33 -80 -119 -80q-40 -1 -62 21t-22 44t1 30t5 18t6 16q2 7 10 18q7 11 11 17q3 7 13 19t14 18t17 20q12 16 31 40
q18 24 42 58q156 225 183 591h-77q-129 0 -207 -52t-135 -229l-35 8q55 217 168 331t352 114h590v-172h-358l-62 -537q-2 -24 -2 -34z" />
    <glyph glyph-name="uni0401" unicode="&#x401;" horiz-adv-x="1247" 
d="M442 709v-492q0 -110 30 -140t136 -30h150q97 0 156.5 17.5t96.5 63.5t54 109.5t29 172.5h47q-6 -55 -6 -159.5t14 -250.5q-139 6 -500.5 6t-562.5 -6v41q74 3 106.5 16t46 48t13.5 112v1016q0 77 -13.5 112t-46 48t-106.5 16v41q201 -6 548 -6t474 6q-14 -134 -14 -228
t6 -141h-47q-21 196 -64.5 249.5t-99.5 63t-111 9.5h-170q-106 0 -136 -30t-30 -140v-483h136q76 0 114.5 38.5t48.5 77t13.5 57.5t7.5 52t6 45h47q-7 -102 -7 -193l1 -98q0 -104 12 -291h-47q-14 115 -23 146q-35 125 -173 125h-136zM843.5 1581q-48.5 0 -83.5 35t-35 83.5
t35.5 84t83.5 35.5t83.5 -36t35.5 -84t-35.5 -83t-84 -35zM409 1581q-49 0 -83.5 34.5t-34.5 83.5t35 84.5t83 35.5t84 -36t36 -84t-35.5 -83t-84.5 -35z" />
    <glyph glyph-name="uni0402" unicode="&#x402;" horiz-adv-x="1599" 
d="M1073 2q260 0 260 399q0 231 -80 308t-221 77q-92 0 -174 -32t-127 -82v-695q-99 29 -216 29t-181 -6v41q103 4 137 19q35 16 53 50t17 128v1165h-111q-133 0 -178 -29q-45 -28 -65 -54q-48 -61 -72 -300h-47q6 64 6 176t-15 254q171 -6 577 -6t576 6q-14 -146 -14 -256
t6 -174h-47q-24 239 -73 301q-50 61 -132 75q-46 8 -110 7h-111v-688q62 57 161 97t212 40q194 0 311 -110t117 -322q0 -114 -36 -202t-99 -142q-125 -106 -286 -105q-162 0 -237 77q-40 41 -40 95q0 55 28 85t76 30t80 -27q31 -27 31 -73q0 -79 -88 -107q5 -19 37 -34
t75 -15z" />
    <glyph glyph-name="uni0403" unicode="&#x403;" horiz-adv-x="1081" 
d="M1012 1194q0 -110 6 -174h-47q-19 185 -37.5 229t-35.5 69q-58 85 -243 85h-47q-106 0 -136 -30t-30 -140v-1016q0 -58 7.5 -90t32.5 -51.5t61.5 -26t105.5 -8.5v-41q-107 6 -292 6t-271 -6v41q74 3 106.5 16t46 48t13.5 112v1016q0 77 -13.5 112t-46 48t-106.5 16v41
q201 -6 519.5 -6t420.5 6q-14 -146 -14 -256zM801.5 1916q35.5 0 52.5 -26.5t17 -45.5q0 -45 -47 -75t-177 -80.5t-242 -107.5l-14 27q98 75 200.5 168.5t138.5 116.5t71.5 23z" />
    <glyph glyph-name="uni0404" unicode="&#x404;" horiz-adv-x="1415" 
d="M1179 121q-16 0 -42 -17q-93 -65 -177 -99t-202 -34q-296 -1 -472 197t-177 545q0 227 83 401t231 270t337 95q205 -1 347 -111q52 -40 70 -40q42 0 52 122h47q-8 -133 -8 -471h-47q-22 133 -41 191t-62 112q-124 160 -362 160q-201 0 -322 -195t-121 -526v-7
q35 72 99 110t128 38t111 -16t87 -39t79 -45q94 -54 163 -55q144 0 179 114l31 -14q-28 -103 -104 -157t-156 -54q-132 0 -245 78t-217 78q-105 0 -154 -92q12 -306 140 -477t322 -171q102 0 199 39t151 117q42 56 60 122t35 202h47q0 -353 8 -492h-47q-9 121 -50 121z" />
    <glyph glyph-name="uni0405" unicode="&#x405;" horiz-adv-x="1106" 
d="M221 76q-34 0 -45 -90h-47q8 112 8 491h47q14 -198 98.5 -331.5t274.5 -133.5q110 0 188 69t78 196.5t-81.5 207.5t-189 145t-144 88.5t-84.5 59.5q-77 58 -131 141.5t-54 184.5q0 190 113.5 279.5t250.5 89.5t211 -39q24 -13 65 -39.5t65 -26.5q34 0 45 90h47
q-10 -120 -10 -418h-47q-12 158 -92 276t-244 118q-110 0 -180 -66.5t-70 -171.5q0 -65 17.5 -99.5t30 -54.5t36 -41.5t40.5 -36.5t49.5 -36.5t52 -34t58.5 -36t76.5 -47t72 -46t77.5 -54t69 -57.5q71 -70 102.5 -138.5t31.5 -174.5t-60 -196q-116 -174 -375 -173
q-159 0 -275 73q-51 32 -75 32z" />
    <glyph glyph-name="uni0406" unicode="&#x406;" 
d="M442 1233v-1016q0 -77 13.5 -112t46 -48t106.5 -16v-41q-94 6 -265 6t-257 -6v41q74 3 106.5 16t46 48t13.5 112v1016q0 77 -13.5 112t-46 48t-106.5 16v41q85 -6 256.5 -6t265.5 6v-41q-74 -3 -106.5 -16t-46 -48t-13.5 -112z" />
    <glyph glyph-name="uni0407" unicode="&#x407;" 
d="M442 1233v-1016q0 -77 13.5 -112t46 -48t106.5 -16v-41q-94 6 -265 6t-257 -6v41q74 3 106.5 16t46 48t13.5 112v1016q0 77 -13.5 112t-46 48t-106.5 16v41q85 -6 256.5 -6t265.5 6v-41q-74 -3 -106.5 -16t-46 -48t-13.5 -112zM565 1819q48 0 83.5 -36t35.5 -84
t-35.5 -83t-84 -35t-83.5 35t-35 83.5t35.5 84t83.5 35.5zM130 1819q48 0 84 -36t36 -84t-35.5 -83t-84 -35t-83.5 34.5t-35 83.5t35 84.5t83 35.5z" />
    <glyph glyph-name="uni0408" unicode="&#x408;" horiz-adv-x="668" 
d="M-86 -209q0 -87 -86 -104q33 -33 126.5 -33t158 46t89 119t31.5 168.5t7 309.5v936q0 77 -13.5 112t-46 48t-106.5 16v41q85 -6 255.5 -6t266.5 6v-41q-74 -3 -106.5 -16t-46 -48t-13.5 -112v-750q0 -389 -35 -535.5t-149 -239.5t-283 -93q-100 0 -172 37q-98 51 -98 141
q0 48 30.5 78.5t78.5 30.5t80 -30t32 -81z" />
    <glyph glyph-name="uni0409" unicode="&#x409;" horiz-adv-x="1901" 
d="M1157 217q0 -107 29 -139t130 -37q189 6 254 102q64 96 64 258q0 161 -82 241t-276 81l-119 -1v-505zM1300 0l-292 6q-142 0 -248 -6v41q70 3 106 9t61 26t33 51q8 32 7 90v1016q-1 111 -31 143t-135 33h-27q-100 0 -132 -33q-18 -19 -24 -60q-6 -40 -10 -90t-12 -144
q-6 -94 -10 -166q-4 -71 -14 -167q-9 -96 -19 -169q-10 -74 -27 -158q-18 -84 -38 -146q-50 -151 -123 -228q-74 -77 -185 -77q-78 1 -132 35t-54 96t34 94t83 31t79 -25t29 -66q0 -42 -21 -70t-67 -54q19 -2 49 -2q191 0 280 331q59 221 89 697q14 224 14 241q0 76 -34 101
t-134 29v41q87 -6 211 -6l180 6l293 -6q159 0 244 6v-41q-75 -3 -107 -16t-46 -48t-13 -112v-473q120 2 189 2q239 0 366 -102t127 -269q0 -201 -159 -305q-125 -83 -357 -86h-23z" />
    <glyph glyph-name="uni040A" unicode="&#x40a;" horiz-adv-x="2042" 
d="M1776 389q0 173 -82 253.5t-277 80.5l-119 -1v-505q0 -109 29 -140t130 -36q217 5 282 147q37 80 37 201zM1442 0l-278 6q-126 0 -222 -6v41q74 3 106.5 16t46 48t13.5 112v492h-666v-492q0 -77 13.5 -112t46 -48t106.5 -16v-41q-94 6 -265 6t-257 -6v41q74 3 106.5 16
t46 48t13.5 112v1016q0 77 -13.5 112t-46 48t-106.5 16v41q85 -6 256.5 -6t265.5 6v-41q-74 -3 -106.5 -16t-46 -48t-13.5 -112v-483h666v483q0 77 -13.5 112t-46 48t-106.5 16v41q96 -6 266 -6t256 6v-41q-74 -3 -106.5 -16t-46 -48t-13.5 -112v-474q90 3 189 3
q239 0 366 -102.5t127 -268.5q0 -96 -33 -161.5t-73 -101.5q-136 -122 -410 -128h-22z" />
    <glyph glyph-name="uni040B" unicode="&#x40b;" horiz-adv-x="1667" 
d="M1477 526v-336q0 -84 34.5 -115.5t120.5 -31.5v-43q-188 8 -248.5 8t-232.5 -8v43q75 0 105 31.5t30 115.5v381q0 106 -30.5 153.5t-79.5 65t-125 17.5q-192 0 -320 -45v-524q0 -95 17.5 -128.5t52 -49t137.5 -19.5v-41q-108 6 -307 6t-297 -6v41q103 4 137.5 19.5t52 49
t17.5 128.5v1165h-111q-133 0 -178 -29q-45 -28 -65 -54q-48 -61 -72 -300h-47q6 64 6 176t-15 254q170 -6 576.5 -6t576.5 6q-14 -146 -14 -256t6 -174h-47q-24 239 -73.5 300.5t-131.5 75.5q-46 8 -110 7h-111v-606q62 30 172.5 52.5t212.5 22.5q168 0 262 -71
q56 -43 77.5 -104t21.5 -171z" />
    <glyph glyph-name="uni040C" unicode="&#x40c;" horiz-adv-x="1389" 
d="M1131.5 -29q-80.5 0 -135 47.5t-83.5 174.5l-57 253q-31 139 -52 171q-46 70 -96 92t-130 22h-136v-514q0 -77 13.5 -112t46 -48t106.5 -16v-41q-94 6 -265 6t-257 -6v41q74 3 106.5 16t46 48t13.5 112v1016q0 77 -13.5 112t-46 48t-106.5 16v41q85 -6 256.5 -6t265.5 6
v-41q-74 -3 -106.5 -16t-46 -48t-13.5 -112v-463q152 3 242 119l197 250q104 132 104 196q0 71 -127 74v41q117 -6 232.5 -6t177.5 6v-41q-139 -20 -242 -149l-386 -491q253 -10 351 -155q39 -58 58 -141l59 -258q23 -99 41.5 -133.5t56 -34.5t59.5 17.5t56 60.5l31 -23
q-47 -67 -93.5 -99t-127 -32zM1004.5 1916q35.5 0 52.5 -26.5t17 -45.5q0 -45 -47 -75t-177 -80.5t-242 -107.5l-14 27q98 75 200.5 168.5t138.5 116.5t71.5 23z" />
    <glyph glyph-name="uni040D" unicode="&#x40d;" horiz-adv-x="1591" 
d="M1339 1233v-1016q0 -77 13.5 -112t46 -48t106.5 -16v-41q-85 6 -255.5 6t-266.5 -6v41q74 3 106.5 16t46 48t13.5 112v969l-707 -1000q4 -70 18.5 -94t42.5 -36t105 -15v-41q-94 6 -265 6t-257 -6v41q74 3 106.5 16t46 48t13.5 112v1016q0 77 -13.5 112t-46 48t-106.5 16
v41q85 -6 256.5 -6t265.5 6v-41q-74 -3 -106.5 -16t-46 -48t-13.5 -112v-970l706 1002q-3 88 -34.5 113.5t-130.5 30.5v41q96 -6 266.5 -6t255.5 6v-41q-74 -3 -106.5 -16t-46 -48t-13.5 -112zM454 1844q0 19 17 45.5t52.5 26.5t71.5 -23t138.5 -116.5t200.5 -168.5l-14 -27
q-112 57 -242 107.5t-177 80.5t-47 75z" />
    <glyph glyph-name="uni040E" unicode="&#x40e;" horiz-adv-x="1325" 
d="M1177 1444q106 0 166 6v-41q-79 -17 -163 -182l-531 -1059q-46 -94 -98 -145.5t-130.5 -51.5t-118.5 32.5t-40 86t31 83.5t77 30t75.5 -25.5t29.5 -78.5t-55 -85q4 -2 12 -2q100 0 176 158l56 114l-549 1008q-38 69 -65.5 92t-53.5 23v43q79 -6 229 -6t238 6v-43
q-144 0 -144 -79q0 -32 21 -71l417 -778l322 645q56 113 56 173.5t-45 85t-136 26.5v41q117 -6 223 -6zM964 1716q-86 18 -86 109q0 46 32.5 76t80.5 30t78.5 -30.5t30.5 -77.5t-23.5 -80t-75.5 -64q-127 -77 -318.5 -77t-320.5 77q-98 60 -98 140q0 51 30 81.5t79 30.5
t80.5 -29.5t31.5 -75.5q0 -92 -86 -110q80 -74 282.5 -74t282.5 74z" />
    <glyph glyph-name="uni040F" unicode="&#x40f;" horiz-adv-x="1550" 
d="M1298 1233v-1016q0 -77 14 -112t46 -48t106 -16v-41q-135 9 -307 7q-172 -3 -210 -15t-62 -34q-58 -52 -78 -286h-47q-16 177 -44 234t-59 71q-56 27 -151 28q-94 1 -214 1t-206 -6v41q74 3 106 16t46 48t14 112v1016q0 77 -14 112t-46 48t-106 16v41q84 -6 256 -6t266 6
v-41q-74 -3 -106 -16t-46 -48t-14 -112v-1016q0 -111 30 -143t136 -33h334q106 1 136 33t30 143v1016q0 77 -14 112t-46 48t-106 16v41q96 -6 266 -6t256 6v-41q-74 -3 -106 -16t-46 -48t-14 -112z" />
    <glyph glyph-name="uni0410" unicode="&#x410;" horiz-adv-x="1290" 
d="M801 590l-229 611l-235 -611h464zM1063.5 6q-155.5 0 -242.5 -6v41q78 3 111.5 19t33.5 54t-24 99l-126 336h-494l-84 -217q-41 -104 -41 -168.5t43.5 -92.5t134.5 -30v-41q-117 6 -222.5 6t-166.5 -6v41q102 23 161 178l482 1241h33l499 -1288q50 -127 142 -131v-41
q-84 6 -239.5 6z" />
    <glyph glyph-name="uni0411" unicode="&#x411;" horiz-adv-x="1221" 
d="M577 41q85 1 146 21q113 38 155 133q42 96 42 235q0 206 -82 300t-277 93q-23 0 -119 -2v-604q0 -110 25 -143t110 -33zM998 744q126 -118 126 -310q0 -193 -110 -297q-144 -137 -428 -137l-258 6q-156 0 -242 -6v41q74 3 106 16t46 48t14 112v1016q0 77 -14 112t-46 48
t-106 16v41q200 -6 526 -6t435 6q-15 -130 -15 -226t6 -143h-47q-17 152 -40 205q-23 54 -52 74q-60 42 -182 43h-109q-106 0 -136 -30t-30 -140v-374l189 3q241 0 367 -118z" />
    <glyph glyph-name="uni0412" unicode="&#x412;" horiz-adv-x="1276" 
d="M979 406q0 329 -365 329h-172v-518q0 -107 29 -139t125 -31q383 0 383 359zM594 1409q-92 -1 -122 -35t-30 -141v-463h138q173 0 237 95t64 244t-68 225t-219 75zM1077 1140q0 -274 -311 -370v-4q324 -44 398 -246q20 -56 20 -123q0 -177 -132 -287t-360 -110l-352 6
q-168 0 -254 -6v41q74 3 106 16t46 48t14 112v1016q0 77 -14 112t-46 48t-106 16v41q85 -6 250 -6l309 4q209 0 321 -88t111 -220z" />
    <glyph glyph-name="uni0413" unicode="&#x413;" horiz-adv-x="1081" 
d="M1012 1194q0 -110 6 -174h-47q-19 185 -37.5 229t-35.5 69q-58 85 -243 85h-47q-106 0 -136 -30t-30 -140v-1016q0 -58 7.5 -90t32.5 -51.5t61.5 -26t105.5 -8.5v-41q-107 6 -292 6t-271 -6v41q74 3 106.5 16t46 48t13.5 112v1016q0 77 -13.5 112t-46 48t-106.5 16v41
q201 -6 519.5 -6t420.5 6q-14 -146 -14 -256z" />
    <glyph glyph-name="uni0414" unicode="&#x414;" horiz-adv-x="1288" 
d="M829 217v1016q-1 112 -31 144t-134 32h-27q-98 0 -122 -24t-31 -56q-6 -31 -12 -93t-14 -162t-12 -176q-6 -76 -16 -175q-10 -100 -23 -177q-63 -402 -226 -505h483q104 0 134 32t31 144zM1020 1233v-1016q0 -111 30 -143t136 -33h63q-14 -135 -14 -229t6 -140h-47
q-21 199 -64 254q-44 55 -100 64q-55 10 -110 10h-584q-121 0 -177 -41q-55 -41 -79 -159q-10 -48 -19 -128h-47q6 46 6 140t-14 229h37q193 0 282 333q61 228 95 790q4 58 4 72q1 12 1 38q0 79 -33 105t-134 30v41q86 -6 211 -6l180 6l293 -6q157 0 244 6v-41
q-74 -3 -106 -16t-46 -48t-14 -112z" />
    <glyph glyph-name="uni0415" unicode="&#x415;" horiz-adv-x="1247" 
d="M442 709v-492q0 -110 30 -140t136 -30h150q97 0 156.5 17.5t96.5 63.5t54 109.5t29 172.5h47q-6 -55 -6 -159.5t14 -250.5q-139 6 -500.5 6t-562.5 -6v41q74 3 106.5 16t46 48t13.5 112v1016q0 77 -13.5 112t-46 48t-106.5 16v41q201 -6 548 -6t474 6q-14 -134 -14 -228
t6 -141h-47q-21 196 -64.5 249.5t-99.5 63t-111 9.5h-170q-106 0 -136 -30t-30 -140v-483h136q76 0 114.5 38.5t48.5 77t13.5 57.5t7.5 52t6 45h47q-7 -102 -7 -193l1 -98q0 -104 12 -291h-47q-14 115 -23 146q-35 125 -173 125h-136z" />
    <glyph glyph-name="uni0416" unicode="&#x416;" horiz-adv-x="2013" 
d="M1791 -29q-81 -1 -135 47t-83 175l-57 253q-31 139 -52 171q-46 70 -96 92t-131 22h-135v-514q0 -57 6 -89t25 -52t49 -26t86 -9v-41q-87 6 -257 6t-266 -6v41q55 3 85 9t50 26t26 52t5 89v514h-135q-84 -1 -117 -17q-35 -16 -53 -28t-33 -34q-32 -48 -45 -89
q-13 -40 -30 -117l-58 -253q-30 -127 -84 -175t-134 -47q-80 0 -127 32t-93 99l31 23q24 -30 36 -43q32 -35 74 -35q42 1 61 35t42 133l59 258q38 166 147 228t261 68l-385 491q-103 129 -242 149v41q62 -6 178 -6t232 6v-41q-127 -3 -127 -74q0 -64 104 -196l197 -250
q90 -116 241 -119v463q1 57 -5 89t-26 52t-50 26t-85 9v41q96 -6 266 -6t257 6v-41q-56 -3 -86 -9t-49 -26t-25 -52t-6 -89v-463q151 3 241 119l197 250q104 132 104 196q0 71 -126 74v41q116 -6 232 -6t177 6v-41q-140 -20 -241 -149l-386 -491q254 -10 350 -155
q38 -58 58 -141l59 -258q23 -99 42 -133t56 -35t59 17t56 61l31 -23q-46 -67 -93 -99t-127 -32z" />
    <glyph glyph-name="uni0417" unicode="&#x417;" horiz-adv-x="1124" 
d="M418 723q-41 0 -41 34t35 34t98 -13q135 45 188.5 132.5t53.5 235.5t-53.5 221t-174.5 73q-152 0 -233.5 -118.5t-91.5 -274.5h-47q0 287 -11 417h47q8 -49 17.5 -69.5t30.5 -20.5t46 15.5t42.5 27t25.5 15.5t26.5 13.5t33.5 13.5t44.5 12t94.5 8q184 0 295.5 -83
t111.5 -224q0 -185 -191 -308q-104 -67 -224 -96q189 -4 335 -96q72 -45 115 -118t43 -167.5t-46.5 -175.5t-125.5 -133q-165 -108 -369 -107.5t-325 74.5q-96 61 -96 145q0 48 30.5 78.5t78.5 30.5t80 -30q32 -31 32 -77q0 -91 -86 -108q22 -31 102 -54.5t168 -23.5
q176 0 265 100t89 264.5t-85 269.5t-238 110q-49 -27 -90 -27z" />
    <glyph glyph-name="uni0418" unicode="&#x418;" horiz-adv-x="1591" 
d="M1339 1233v-1016q0 -77 13.5 -112t46 -48t106.5 -16v-41q-85 6 -255.5 6t-266.5 -6v41q74 3 106.5 16t46 48t13.5 112v969l-707 -1000q4 -70 18.5 -94t42.5 -36t105 -15v-41q-94 6 -265 6t-257 -6v41q74 3 106.5 16t46 48t13.5 112v1016q0 77 -13.5 112t-46 48t-106.5 16
v41q85 -6 256.5 -6t265.5 6v-41q-74 -3 -106.5 -16t-46 -48t-13.5 -112v-970l706 1002q-3 88 -34.5 113.5t-130.5 30.5v41q96 -6 266.5 -6t255.5 6v-41q-74 -3 -106.5 -16t-46 -48t-13.5 -112z" />
    <glyph glyph-name="uni0419" unicode="&#x419;" horiz-adv-x="1591" 
d="M1339 1233v-1016q0 -77 13.5 -112t46 -48t106.5 -16v-41q-85 6 -255.5 6t-266.5 -6v41q74 3 106.5 16t46 48t13.5 112v969l-707 -1000q4 -70 18.5 -94t42.5 -35.5t105 -15.5v-41q-94 6 -265 6t-257 -6v41q74 3 106.5 16t46 48t13.5 112v1016q0 77 -13.5 112t-46 48
t-106.5 16v41q85 -6 256.5 -6t265.5 6v-41q-74 -3 -106.5 -16t-46 -48t-13.5 -112v-970l706 1002q-3 88 -34.5 113.5t-130.5 30.5v41q96 -6 266.5 -6t255.5 6v-41q-74 -3 -106.5 -16t-46 -48t-13.5 -112zM1079 1716q-86 18 -86 109q0 46 32.5 76t80.5 30t78.5 -30.5
t30.5 -77.5t-23.5 -80t-75.5 -64q-127 -77 -318.5 -77t-320.5 77q-98 60 -98 140q0 51 30 81.5t79 30.5t80.5 -29.5t31.5 -75.5q0 -92 -86 -110q80 -74 282.5 -74t282.5 74z" />
    <glyph glyph-name="uni041A" unicode="&#x41a;" horiz-adv-x="1389" 
d="M1131.5 -29q-80.5 0 -135 47.5t-83.5 174.5l-57 253q-31 139 -52 171q-46 70 -96 92t-130 22h-136v-514q0 -77 13.5 -112t46 -48t106.5 -16v-41q-94 6 -265 6t-257 -6v41q74 3 106.5 16t46 48t13.5 112v1016q0 77 -13.5 112t-46 48t-106.5 16v41q85 -6 256.5 -6t265.5 6
v-41q-74 -3 -106.5 -16t-46 -48t-13.5 -112v-463q152 3 242 119l197 250q104 132 104 196q0 71 -127 74v41q117 -6 232.5 -6t177.5 6v-41q-139 -20 -242 -149l-386 -491q253 -10 351 -155q39 -58 58 -141l59 -258q23 -99 41.5 -133.5t56 -34.5t59.5 17.5t56 60.5l31 -23
q-47 -67 -93.5 -99t-127 -32z" />
    <glyph glyph-name="uni041B" unicode="&#x41b;" horiz-adv-x="1409" 
d="M1157 1233v-1016q-1 -77 13 -112t46 -48t107 -16v-41q-85 6 -271 6t-292 -6v41q70 3 106 9t61 26t33 51q8 32 7 90v1016q-1 111 -31 143t-135 33h-27q-100 0 -132 -33q-18 -19 -24 -60q-6 -40 -10 -90t-12 -144q-6 -94 -10 -166q-4 -71 -14 -167q-9 -96 -19 -169
q-10 -74 -27 -158q-18 -84 -38 -146q-50 -151 -123 -228q-74 -77 -185 -77q-78 1 -132 35t-54 96t34 94t83 31t79 -25t29 -66q0 -42 -21 -70t-67 -54q19 -2 49 -2q191 0 280 331q59 221 89 697q14 224 14 241q0 76 -34 101t-134 29v41q87 -6 211 -6l180 6l293 -6
q159 0 244 6v-41q-75 -3 -107 -16t-46 -48t-13 -112z" />
    <glyph glyph-name="uni041C" unicode="&#x41c;" horiz-adv-x="1784" 
d="M1532 1233v-1016q0 -77 14 -112t46 -48t106 -16v-41q-96 6 -266 6t-256 -6v41q56 3 85 9t49 26t26 52t5 89v1096l-493 -1323h-33l-516 1329v-1081q1 -115 35 -154t151 -43v-41q-75 6 -203 6t-196 -6v41q102 3 134 43t32 154v995q0 77 -14 112t-46 48t-106 16v41
q66 -6 182 -6t183 6l450 -1188l440 1182h97q164 0 260 6v-41q-74 -3 -106 -16t-46 -48t-14 -112z" />
    <glyph glyph-name="uni041D" unicode="&#x41d;" horiz-adv-x="1550" 
d="M1298 1233v-1016q0 -77 13.5 -112t46 -48t106.5 -16v-41q-86 6 -256 6t-266 -6v41q74 3 106.5 16t46 48t13.5 112v492h-666v-492q0 -77 13.5 -112t46 -48t106.5 -16v-41q-94 6 -265 6t-257 -6v41q74 3 106.5 16t46 48t13.5 112v1016q0 77 -13.5 112t-46 48t-106.5 16v41
q85 -6 256.5 -6t265.5 6v-41q-74 -3 -106.5 -16t-46 -48t-13.5 -112v-483h666v483q0 77 -13.5 112t-46 48t-106.5 16v41q96 -6 266 -6t256 6v-41q-74 -3 -106.5 -16t-46 -48t-13.5 -112z" />
    <glyph glyph-name="uni041E" unicode="&#x41e;" horiz-adv-x="1518" 
d="M752 1442q-131 0 -231.5 -91.5t-154 -255t-53.5 -374.5q0 -320 129.5 -516.5t323.5 -196.5q131 0 231 91.5t153.5 255t53.5 374.5q0 320 -129.5 516.5t-322.5 196.5zM760 1479q296 0 472.5 -197.5t176.5 -544.5q0 -226 -83 -400.5t-231 -270t-337 -95.5
q-296 0 -472.5 197.5t-176.5 544.5q0 226 83 400.5t231 270t337 95.5z" />
    <glyph glyph-name="uni041F" unicode="&#x41f;" horiz-adv-x="1550" 
d="M1298 1233v-1016q0 -77 14 -112t46 -48t106 -16v-41q-86 6 -256 6t-266 -6v41q74 3 106 16t46 48t14 112v1016q0 111 -30 143t-136 33h-334q-106 -1 -136 -33t-30 -143v-1016q0 -77 14 -112t46 -48t106 -16v-41q-94 6 -265 6t-257 -6v41q74 3 106 16t46 48t14 112v1016
q0 77 -14 112t-46 48t-106 16v41q85 -6 262 -6l430 6l424 -6q176 0 262 6v-41q-74 -3 -106 -16t-46 -48t-14 -112z" />
    <glyph glyph-name="uni0420" unicode="&#x420;" horiz-adv-x="1198" 
d="M594 1409q-93 0 -122.5 -34.5t-29.5 -141.5v-606h138q237 1 313 167q41 90 41 228q0 198 -79 292.5t-261 94.5zM1139 1044q-1 -136 -69 -246q-132 -212 -470 -212h-158v-369q0 -58 7.5 -90t32.5 -51.5t61.5 -26t105.5 -8.5v-41q-107 6 -292 6t-271 -6v41q74 3 106.5 16
t46 48t13.5 112v1016q0 77 -13.5 112t-46 48t-106.5 16v41q85 -6 250 -6l309 4q241 0 367.5 -110t126.5 -294z" />
    <glyph glyph-name="uni0421" unicode="&#x421;" horiz-adv-x="1409" 
d="M1179 121q-16 0 -42 -17q-93 -65 -176.5 -99t-202.5 -34q-296 0 -472.5 197.5t-176.5 544.5q0 226 83 400.5t231 270t337 95.5q205 -1 347 -111q52 -40 70 -40q42 0 52 122h47q-8 -133 -8 -471h-47q-22 134 -41 191.5t-62 111.5q-124 160 -362 160q-201 0 -322 -195
t-121 -527.5t129.5 -520t333.5 -187.5q102 0 199 39t151 117q42 56 60 121.5t35 202.5h47q0 -353 8 -492h-47q-9 121 -50 121z" />
    <glyph glyph-name="uni0422" unicode="&#x422;" horiz-adv-x="1272" 
d="M1198 1194q0 -110 6 -174h-47q-24 239 -73.5 300.5t-131.5 75.5q-46 8 -110 7h-111v-1165q0 -95 17.5 -128.5t52 -49t137.5 -19.5v-41q-108 6 -307 6t-297 -6v41q103 4 137.5 19.5t52 49t17.5 128.5v1165h-111q-133 0 -178 -29q-45 -28 -65 -54q-48 -61 -72 -300h-47
q6 64 6 176t-15 254q170 -6 576.5 -6t576.5 6q-14 -146 -14 -256z" />
    <glyph glyph-name="uni0423" unicode="&#x423;" horiz-adv-x="1325" 
d="M1177 1444q106 0 166 6v-41q-79 -17 -163 -182l-531 -1059q-46 -94 -98 -145.5t-130.5 -51.5t-118.5 32.5t-40 86t31 83.5t77 30t75.5 -25.5t29.5 -78.5t-55 -85q4 -2 12 -2q100 0 176 158l56 114l-549 1008q-38 69 -65.5 92t-53.5 23v43q79 -6 229 -6t238 6v-43
q-144 0 -144 -79q0 -32 21 -71l417 -778l322 645q56 113 56 173.5t-45 85t-136 26.5v41q117 -6 223 -6z" />
    <glyph glyph-name="uni0424" unicode="&#x424;" horiz-adv-x="1739" 
d="M1479 728q0 224 -142 369t-370 174v-1094q234 26 373 177q139 150 139 374zM260 734q0 -224 143 -376q143 -151 373 -180v1096q-236 -24 -376 -170t-140 -370zM1683 740q0 -252 -197 -415t-519 -186v-73q-1 -112 29 -142t137 -35v-41q-90 7 -266 7t-257 -7v41
q106 5 136 35t30 142v72q-333 19 -527 175t-194 420q0 160 91 287q91 126 254 202t376 90v72q0 112 -30 142t-136 35v41q81 -7 257 -7t266 7v-41q-107 -5 -137 -35t-29 -142v-72q331 -20 523 -170t193 -402z" />
    <glyph glyph-name="uni0425" unicode="&#x425;" horiz-adv-x="1298" 
d="M1092 8q-52 0 -273 -8v43q80 0 113 7t33 26q0 14 -15 37l-350 536l-221 -330q-78 -116 -78 -174q1 -58 47 -80t135 -24v-41q-115 6 -252 6t-198 -6v41q115 16 231 188l309 461l-401 615q-38 59 -64 79t-73 23v43q141 -8 227 -8t238 8v-43q-137 0 -137 -45q0 -16 18 -45
l319 -488l201 301q89 132 89 186t-40 72t-119 21v41q117 -6 233 -6t177 6v-41q-116 -17 -231 -188l-287 -428l424 -648q39 -59 65 -79t72 -23v-43q-140 8 -192 8z" />
    <glyph glyph-name="uni0426" unicode="&#x426;" horiz-adv-x="1567" 
d="M252 217v1016q0 77 -14 112t-46 48t-106 16v41q84 -6 256 -6t266 6v-41q-74 -3 -106 -16t-46 -48t-14 -112v-1016q0 -111 30 -143t136 -33h334q106 1 136 33t30 143v1016q0 77 -14 112t-46 48t-106 16v41q96 -6 266 -6t256 6v-41q-74 -3 -106 -16t-46 -48t-14 -112v-1016
q0 -111 30 -143t136 -33h64q-15 -143 -15 -229t7 -140h-47q-17 149 -40 205q-25 57 -53 78q-61 45 -182 45h-420l-430 6q-176 0 -262 -6v41q74 3 106 16t46 48t14 112z" />
    <glyph glyph-name="uni0427" unicode="&#x427;" horiz-adv-x="1378" 
d="M1126 1233v-1016q0 -77 14 -112t46 -48t106 -16v-41q-86 6 -270 6t-293 -6v41q69 3 105 9t62 26q24 20 32 51q8 32 8 90v436q-62 -31 -172 -53t-213 -22q-168 0 -262 71q-55 43 -77 104t-22 171v336q0 84 -34 116t-121 31v43q189 -8 249 -8t232 8v-43q-75 1 -105 -31
t-30 -116v-381q0 -141 58 -188q58 -48 177 -48q192 0 320 45v545q0 77 -14 112t-46 48t-106 16v41q84 -6 256 -6t266 6v-41q-74 -3 -106 -16t-46 -48t-14 -112z" />
    <glyph glyph-name="uni0428" unicode="&#x428;" horiz-adv-x="2062" 
d="M252 217v1016q0 77 -14 112t-46 48t-106 16v41q84 -6 248 -6t254 6v-41q-49 -3 -75 -9q-27 -6 -49 -32t-22 -135v-1016q0 -111 30 -143t136 -33h162q106 1 136 33t30 143v1016q0 59 -4 90t-22 51t-44 26t-75 9v41q89 -6 245 -6t236 6v-41q-50 -3 -76 -9t-44 -26t-22 -51
t-4 -90v-1016q0 -111 30 -143t136 -33h162q106 1 136 33t30 143v1016q0 59 -4 90t-22 51t-44 26t-75 9v41q89 -6 252 -6t249 6v-41q-74 -3 -106 -16t-46 -48t-14 -112v-1016q0 -77 14 -112t46 -48t106 -16v-41q-86 6 -262 6l-364 -6l-316 6l-323 -6l-363 6q-176 0 -262 -6
v41q74 3 106 16t46 48t14 112z" />
    <glyph glyph-name="uni0429" unicode="&#x429;" horiz-adv-x="2038" 
d="M252 217v1016q0 77 -14 112t-46 48t-106 16v41q84 -6 248 -6t254 6v-41q-49 -3 -75 -9q-27 -6 -49 -32t-22 -135v-1016q0 -111 30 -143t136 -33h142q104 0 134 32t31 144v1016q-1 59 -5 90t-21 51t-43 26t-76 9v41q90 -6 246 -6t235 6v-41q-50 -3 -76 -9t-43 -26
q-18 -20 -22 -51t-4 -90v-1016q0 -111 30 -143t136 -33h141q105 1 135 33t31 143v1016q-1 59 -5 90t-21 51t-43 26t-76 9v41q88 -6 252 -6t249 6v-41q-75 -3 -107 -16t-46 -48t-13 -112v-1016q1 -111 31 -143t135 -33h64q-14 -135 -14 -229t6 -140h-47q-17 149 -40 205
q-24 57 -52 78q-61 45 -183 45h-340l-315 6l-324 -6l-342 6q-176 0 -262 -6v41q74 3 106 16t46 48t14 112z" />
    <glyph glyph-name="uni042A" unicode="&#x42a;" horiz-adv-x="1495" 
d="M886 41q86 0 147 21q111 39 152 134q42 95 42 234q1 199 -79 296t-261 97q-45 0 -137 -2v-604q0 -113 25 -145t111 -31zM1432 453q0 -136 -68 -245q-131 -208 -471 -208l-238 6q-175 0 -262 -6v41q75 3 107 16t46 48t13 112v1186h-131q-133 0 -178 -29q-45 -28 -65 -54
q-48 -61 -72 -300h-47q6 64 6 176t-15 254q177 -6 485 -6t414 6v-41q-70 -3 -106 -9t-61 -26t-32 -51q-7 -32 -7 -90v-374l188 3q240 0 367 -112t127 -297z" />
    <glyph glyph-name="uni042B" unicode="&#x42b;" horiz-adv-x="1821" 
d="M580 41q86 0 146 21q111 39 152 134q42 95 42 234q0 199 -80 296t-260 97q-46 0 -138 -2v-604q0 -113 26 -145t112 -31zM1569 1233v-1016q-1 -57 5 -89t26 -52t50 -26t85 -9v-41q-96 6 -266 6t-257 -6v41q56 3 86 9t49 26t25 52t6 89v1016q0 57 -6 89t-25 52t-49 26
t-86 9v41q87 -6 257 -6t266 6v-41q-55 -3 -85 -9t-50 -26t-26 -52t-5 -89zM1124 453q0 -225 -165 -351q-134 -102 -373 -102l-238 6q-176 0 -262 -6v41q74 3 106 16t46 48t14 112v1016q0 77 -14 112t-46 48t-106 16v41q84 -6 270 -6t293 6v-41q-69 -3 -105 -9t-62 -26
q-24 -20 -32 -51q-8 -32 -8 -90v-374l189 3q241 0 367 -112t126 -297z" />
    <glyph glyph-name="uni042C" unicode="&#x42c;" horiz-adv-x="1188" 
d="M580 41q86 0 146 21q111 39 152 134q42 95 42 234q0 199 -80 296t-260 97q-46 0 -138 -2v-604q0 -113 26 -145t112 -31zM1124 453q0 -225 -165 -351q-134 -102 -373 -102l-238 6q-176 0 -262 -6v41q74 3 106 16t46 48t14 112v1016q0 77 -14 112t-46 48t-106 16v41
q84 -6 270 -6t293 6v-41q-69 -3 -105 -9t-62 -26q-24 -20 -32 -51q-8 -32 -8 -90v-374l189 3q241 0 367 -112t126 -297z" />
    <glyph glyph-name="uni042D" unicode="&#x42d;" horiz-adv-x="1417" 
d="M238 121q-39 0 -50 -121h-47q9 156 9 492h47q16 -136 34 -202t60 -122q55 -78 151 -117t199 -39q203 0 333 188t130 521l-1 41q-35 -76 -99 -116t-134 -40q-119 0 -235 78t-213 78q-57 0 -103 -28t-67 -87l-31 15q29 102 105 156t173 54t201 -61q105 -61 152 -78
q46 -16 92 -16q108 0 158 92q-16 293 -135 463t-305 170q-239 0 -363 -160q-41 -55 -61 -113t-41 -190h-47q0 321 -9 471h47q12 -122 53 -122q17 0 69 40q143 110 340 111q196 1 344 -95t232 -270q83 -174 83 -401q0 -347 -177 -545t-473 -197q-119 0 -203 34t-175 99
q-26 17 -43 17z" />
    <glyph glyph-name="uni042E" unicode="&#x42e;" horiz-adv-x="2073" 
d="M1339 8q125 0 220.5 91.5t146.5 255t51 374.5q0 320 -124 516.5t-308 196.5q-125 0 -220.5 -91.5t-146.5 -255t-51 -374.5q0 -320 124 -516.5t308 -196.5zM1333 1479q287 0 458 -197.5t171 -544.5q0 -226 -80.5 -400.5t-224 -270t-326.5 -95.5q-284 0 -454.5 193.5
t-174.5 535.5h-260v-483q0 -77 13.5 -112t46 -48t106.5 -16v-41q-94 6 -265 6t-257 -6v41q74 3 106.5 16t46 48t13.5 112v1016q0 77 -13.5 112t-46 48t-106.5 16v41q84 -6 256 -6t266 6v-41q-74 -3 -106.5 -16t-46 -48t-13.5 -112v-492h260q5 218 87 386.5t223.5 260
t320.5 91.5z" />
    <glyph glyph-name="uni042F" unicode="&#x42f;" horiz-adv-x="1337" 
d="M743 1409q-340 0 -340 -326q0 -264 177 -328q72 -26 178 -26h137v504q1 107 -29 141t-123 35zM1085 1233v-1016q-1 -77 13 -112t46 -48t107 -16v-41q-85 6 -255 6t-267 -6v41q75 3 107 16t46 48t13 112v471h-205q-101 0 -148 -62t-83 -229l-45 -204q-28 -124 -82 -173
t-134 -49t-128 31q-47 31 -95 100l31 23q41 -52 65 -65t56 -13q32 1 52 37t40 131l47 209q29 128 94 188t201 82l27 4q-297 44 -370 271q-19 59 -19 123q-1 156 127 256t366 100l309 -4q165 0 250 6v-41q-75 -3 -107 -16t-46 -48t-13 -112z" />
    <glyph glyph-name="uni0430" unicode="&#x430;" horiz-adv-x="1020" 
d="M260 231.5q0 -72.5 45 -118t119 -45.5q136 0 231 155v402q-15 -23 -50 -43t-112 -57.5t-104.5 -54.5t-61 -47.5t-50.5 -74.5t-17 -116.5zM655 168q-110 -182 -327 -182q-99 0 -173.5 58t-74.5 173t90 187q92 72 284 149q30 11 42 17l38 17q26 11 36 17q10 8 28 18
q21 12 39 35.5t18 51.5v127q0 119 -49.5 162.5t-140.5 43.5q-145 0 -203 -73q41 -10 68.5 -43.5t27.5 -83.5t-32.5 -79.5t-86 -29.5t-83 35t-29.5 92q0 80 96 146q118 77 288 77q259 -1 311 -189q18 -64 18 -175v-569q0 -51 14.5 -74t52.5 -23t88 43l23 -35q-36 -27 -56 -40
q-54 -35 -142 -35q-165 0 -165 182z" />
    <glyph glyph-name="uni0431" unicode="&#x431;" horiz-adv-x="1149" 
d="M604 12q58 0 104 36q83 62 114 200q32 138 32 291q0 239 -67 349t-183 111q-116 0 -198 -108t-82 -375q0 -374 174 -476q48 -28 106 -28zM610 1042q270 0 380 -216q64 -125 63 -294q-1 -252 -135 -406t-353 -155q-436 0 -436 668q1 318 75 523q38 103 93 165
q87 97 246 123q68 11 149 15q80 4 92 5q110 8 163 40t87 100l31 -8q-51 -160 -119 -216t-202 -62q-134 -7 -232 -24t-166 -77t-106 -181q-39 -121 -60 -335l1 -2q94 337 429 337z" />
    <glyph glyph-name="uni0432" unicode="&#x432;" horiz-adv-x="1118" 
d="M555 43q287 0 287 252q0 123 -68 174t-190 51h-185v-330q-1 -85 33 -116t123 -31zM542 1010q-77 0 -110 -32t-33 -116v-307h82q227 4 276 103q23 46 23 114t-10 105t-33 69q-24 32 -71 48t-124 16zM969 805q1 -93 -79 -163t-230 -93q198 -9 286 -73t88 -188t-110 -206
t-349 -82l-274 8q-54 0 -242 -8v43q86 -1 121 31t35 116v672q0 84 -35 116t-121 32v43q212 -9 242 -9l268 9q400 0 400 -248z" />
    <glyph glyph-name="uni0433" unicode="&#x433;" horiz-adv-x="952" 
d="M877 825.5q0 -91.5 6 -137.5h-47q-20 234 -69.5 279t-143.5 45h-88q-75 0 -105.5 -32.5t-30.5 -117.5v-651q0 -95 54 -131.5t163 -36.5v-43q-252 8 -310.5 8t-246.5 -8v43q86 0 121 31.5t35 115.5v672q0 85 -35 116.5t-121 31.5v43q212 -9 246 -9l266 9h320
q-14 -136 -14 -227.5z" />
    <glyph glyph-name="uni0434" unicode="&#x434;" horiz-adv-x="1073" 
d="M666 190v672q0 84 -30 116t-106 32h-18q-73 0 -100 -30q-28 -30 -38 -150q-10 -118 -20 -209q-30 -275 -96 -435q-44 -104 -102 -143h374q76 -1 106 31t30 116zM1006 1010q-86 0 -121 -32t-35 -116v-672q0 -87 35 -117t143 -30q-14 -135 -14 -227t6 -138h-47
q-20 236 -70 283q-49 47 -143 47l-477 -8q-95 0 -138 -40q-44 -40 -61 -154q-7 -48 -14 -128h-47q6 46 6 140t-15 225h39q60 1 104 45t68 109q81 213 115 665l1 20q1 72 -39 100t-124 28v43q104 -9 139 -9l218 9l223 -9q32 0 248 9v-43z" />
    <glyph glyph-name="uni0435" unicode="&#x435;" horiz-adv-x="1036" 
d="M549.5 1044q-97.5 0 -167 -93.5t-85.5 -278.5h446q6 159 -45 265.5t-148.5 106.5zM565 -29q-219 0 -345 146t-126 400t125.5 410t323.5 156q397 0 397 -450h-640q-7 -55 -7 -131q0 -201 94 -323t219 -122q206 0 301 205l41 -16q-37 -113 -138.5 -194t-244.5 -81z" />
    <glyph glyph-name="uni0436" unicode="&#x436;" horiz-adv-x="1724" 
d="M1542 -14q-139 0 -186 164q-4 10 -14 46q-17 61 -38 121q-21 59 -60 115q-40 56 -108 76t-182 18v-336q0 -84 30 -116t106 -31v-43q-172 8 -228 8t-227 -8v43q75 -1 105 31t30 116v336q-110 2 -180 -18q-94 -28 -141 -126q-46 -98 -80 -232q-47 -164 -187 -164
q-66 0 -141 14v43q101 10 137 95q16 38 54 140q37 102 63 146q47 75 124 106t190 35q-79 28 -116 85t-55 103q-18 47 -27 69t-13 34t-12 31t-12 29t-12 26q-27 52 -57 66v-15q0 -59 -32 -95t-84 -36q-51 0 -81 30t-30 79q0 48 32 80t88 32t92 -16t58 -37t54 -81t49 -126
q55 -161 126 -205t193 -56v300q0 84 -30 116t-105 32v43q193 -9 227 -9t228 9v-43q-76 0 -106 -32t-30 -116v-300q180 16 246 106q39 54 76 163q37 108 65 152q63 100 175 100q67 0 99 -32t32 -80q1 -49 -29 -79t-82 -30t-85 36q-32 36 -32 95v15q-23 -12 -35 -31
q-25 -40 -35 -64l-15 -36q-5 -12 -17 -44t-23 -61q-26 -68 -62 -124q-37 -56 -116 -83q230 -8 304 -127q36 -57 72 -159q36 -103 54 -141q17 -38 47 -64t90 -31v-43q-75 -14 -141 -14z" />
    <glyph glyph-name="uni0437" unicode="&#x437;" horiz-adv-x="956" 
d="M532 1083q118 0 200.5 -66t82.5 -173q-3 -162 -203 -246q-50 -21 -108 -35q173 -6 271.5 -75t98.5 -197q0 -95 -62 -169.5t-162 -112.5t-236 -38t-239 69.5t-103 147.5q0 49 30.5 80t78.5 31t80 -30q32 -31 32 -77q0 -91 -86 -108q18 -31 87 -54.5t140 -23.5
q121 0 186.5 74t65.5 192.5t-58 195t-157 77.5q-49 -27 -90 -27t-41 34t39.5 34t93.5 -13q160 47 160 246q0 104 -40.5 164.5t-119.5 60.5q-116 0 -205.5 -100.5t-85.5 -253.5h-47q3 69 3 160.5t-13 216.5h47q11 -90 45 -90q19 0 61 28q42 29 66 41q70 38 188 37z" />
    <glyph glyph-name="uni0438" unicode="&#x438;" horiz-adv-x="1282" 
d="M1223 1010q-86 0 -121 -31.5t-35 -116.5v-672q0 -84 35 -115.5t121 -31.5v-43q-188 8 -245.5 8t-229.5 -8v43q75 0 105 31.5t30 115.5v624l-482 -666q7 -59 37.5 -82t96.5 -23v-43q-172 8 -230 8t-246 -8v43q86 0 121 31.5t35 115.5v672q0 85 -35 116.5t-121 31.5v43
q212 -9 247 -9t229 9v-43q-76 0 -106 -31.5t-30 -116.5v-648l484 667q-3 73 -33.5 101t-101.5 28v43q194 -9 229 -9t246 9v-43z" />
    <glyph glyph-name="uni0439" unicode="&#x439;" horiz-adv-x="1282" 
d="M1223 1010q-86 0 -121 -31.5t-35 -116.5v-672q0 -84 35 -115.5t121 -31.5v-43q-188 8 -245.5 8t-229.5 -8v43q75 0 105 31.5t30 115.5v624l-482 -666q7 -59 37.5 -82t96.5 -23v-43q-172 8 -230 8t-246 -8v43q86 0 121 31.5t35 115.5v672q0 85 -35 116.5t-121 31.5v43
q212 -9 247 -9t229 9v-43q-76 0 -106 -31.5t-30 -116.5v-648l484 667q-3 73 -33.5 101t-101.5 28v43q194 -9 229 -9t246 9v-43zM878 1411q-86 18 -86 109q0 46 32.5 76t80.5 30t78.5 -30.5t30.5 -77.5q0 -83 -102.5 -152.5t-274 -69.5t-274.5 70t-103 152q0 47 30.5 77.5
t78 30.5t80 -30t32.5 -76q0 -91 -86 -109q68 -74 241.5 -74t241.5 74z" />
    <glyph glyph-name="uni043A" unicode="&#x43a;" horiz-adv-x="1171" 
d="M984 -14q-132 0 -181 164q-3 10 -13 46q-18 61 -39 120.5t-60.5 115t-107 76t-184.5 18.5v-336q0 -84 30 -115.5t106 -31.5v-43q-172 8 -230 8t-246 -8v43q86 0 121 31.5t35 115.5v672q0 85 -35 116.5t-121 31.5v43q212 -9 247 -9t229 9v-43q-76 0 -106 -31.5t-30 -116.5
v-301q178 11 248 107q37 51 74 161t65 154q64 99 175 100q67 0 99 -32t32 -80t-29.5 -78.5t-82 -30.5t-84.5 36t-32 95v15q-29 -13 -51.5 -56t-52.5 -122q-30 -80 -38 -100q-30 -69 -66 -107t-95 -58q229 -5 316 -141q27 -42 63 -144q36 -104 53 -142q38 -85 137 -95v-43
q-79 -14 -146 -14z" />
    <glyph glyph-name="uni043B" unicode="&#x43b;" horiz-adv-x="1153" 
d="M309 1010v43q103 -9 140 -9h397q36 0 248 9v-43q-86 0 -121 -32t-35 -116v-672q0 -84 35 -116t121 -31v-43q-188 8 -244 8t-293 -8v43q99 0 148 32t49 115v672q0 84 -30 116t-106 32h-18q-50 0 -67 -30t-29 -156q-12 -127 -21 -217q-29 -259 -94 -421q-88 -215 -231 -215
q-60 1 -102 33t-42 86t30 84t78 29q48 1 76 -25t29 -74q0 -71 -77 -100q4 -2 30 -2t56 20q70 43 120 175q82 212 115 665l1 20q0 72 -40 100t-123 28z" />
    <glyph glyph-name="uni043C" unicode="&#x43c;" horiz-adv-x="1454" 
d="M1231 838v-621q-1 -57 5 -89t26 -52t50 -26t85 -9v-41q-95 6 -263 6t-253 -6v41q75 3 107 16t46 48t13 112v719l-381 -946h-33l-365 934v-707q0 -77 14 -112t46 -48t106 -16v-41q-74 6 -192 6t-185 -6v41q55 3 85 9t50 26t26 52t5 89v621q1 58 -5 90t-26 51
q-20 21 -50 27t-85 8v41q67 -6 173 -6t176 6l312 -829l329 823h96q155 0 254 6v-41q-55 -2 -85 -8t-50 -27q-20 -19 -26 -51t-5 -90z" />
    <glyph glyph-name="uni043D" unicode="&#x43d;" horiz-adv-x="1251" 
d="M1192 1010q-86 0 -121 -32t-35 -116v-672q0 -84 35 -116t121 -31v-43q-188 8 -246 8t-229 -8v43q75 -1 105 31t30 116v332h-453v-332q0 -84 30 -116t106 -31v-43q-172 8 -230 8t-246 -8v43q86 -1 121 31t35 116v672q0 84 -35 116t-121 32v43q212 -9 247 -9t229 9v-43
q-76 0 -106 -32t-30 -116v-299h453v299q0 84 -30 116t-105 32v43q193 -9 228 -9t247 9v-43z" />
    <glyph glyph-name="uni043E" unicode="&#x43e;" horiz-adv-x="1122" 
d="M561 1042q-123 0 -194.5 -126t-71.5 -389.5t71.5 -389t194.5 -125.5t194.5 125.5t71.5 389t-71.5 389.5t-194.5 126zM561 1083q255 -1 377 -191q88 -138 88 -366q0 -413 -282 -523q-82 -32 -183 -32q-202 0 -333.5 133.5t-131.5 421.5q0 336 189 474q114 83 276 83z" />
    <glyph glyph-name="uni043F" unicode="&#x43f;" horiz-adv-x="1251" 
d="M1192 1010q-86 0 -121 -32t-35 -116v-672q0 -84 35 -116t121 -31v-43q-188 8 -246 8t-229 -8v43q75 -1 105 31t30 116v672q0 84 -30 116t-105 32h-182q-76 0 -106 -32t-30 -116v-672q0 -84 30 -116t106 -31v-43q-172 8 -230 8t-246 -8v43q86 -1 121 31t35 116v672
q0 84 -35 116t-121 32v43q212 -9 246 -9l332 9l309 -9q34 0 246 9v-43z" />
    <glyph glyph-name="uni0440" unicode="&#x440;" horiz-adv-x="1190" 
d="M602 18q293 0 293 529q0 475 -238 475q-93 0 -167 -66t-105 -193v-613q66 -132 217 -132zM713 1083q167 0 274 -134t107 -374q0 -304 -160 -477q-117 -127 -309 -127q-78 1 -141 31t-99 80v-262q0 -84 49 -116t148 -32v-43q-270 9 -296 9t-220 -9v43q75 0 105 28t30 99
v1032q-1 95 -35 138t-121 43v43q65 -6 161 -6t179 28v-216q47 106 133 164t195 58z" />
    <glyph glyph-name="uni0441" unicode="&#x441;" horiz-adv-x="995" 
d="M571 1083q138 0 236 -65t98 -158q0 -54 -30.5 -84.5t-78 -30.5t-80 27.5t-32.5 73.5t24.5 75.5t61.5 39.5q-20 37 -73 61.5t-103 24.5q-50 -1 -90 -15q-89 -33 -150 -149t-61 -338q0 -371 182 -461q51 -26 125.5 -25.5t154 51.5t130.5 160l39 -14q-33 -108 -126.5 -196.5
t-250.5 -88.5q-193 0 -323 146t-130 397.5t133.5 410t343.5 158.5z" />
    <glyph glyph-name="uni0442" unicode="&#x442;" horiz-adv-x="1135" 
d="M1055 826q0 -92 6 -138h-47q-16 206 -84 268q-36 34 -79 45t-112 11h-80v-801q0 -95 54 -131t164 -37v-43q-255 8 -309 8t-310 -8v43q109 1 163 37t54 131v801h-100q-69 0 -109 -11t-72 -46q-57 -61 -73 -269h-47q6 46 6 138t-14 227h196l303 -4l307 6h197
q-14 -135 -14 -227z" />
    <glyph glyph-name="uni0443" unicode="&#x443;" horiz-adv-x="1032" 
d="M192 -154q107 0 107 -104q0 -54 -55 -84q4 -2 12 -2q113 0 174 160l73 187l-372 894q-57 115 -139 115v43q96 -13 192.5 -13t274.5 13v-43q-93 0 -118 -16.5t-25 -54t26 -101.5l247 -612l226 593q22 60 22 101q0 82 -153 92v41q108 -6 186 -6t142 6v-41q-41 -5 -73 -37
t-60 -107l-406 -1058q-39 -101 -93 -149q-52 -48 -134 -48q-160 0 -160 123q0 49 29 78.5t77 29.5z" />
    <glyph glyph-name="uni0444" unicode="&#x444;" horiz-adv-x="1634" 
d="M1065 18q272 0 272 529q1 247 -59 361t-180 114t-189 -76v-871q63 -57 156 -57zM573 33q93 0 152 43v866q-68 94 -182 94q-246 0 -246 -497q0 -256 68 -381t208 -125zM1145 1083q175 0 283 -132t108 -376q0 -305 -152 -477q-113 -127 -299 -127q-109 0 -176 54v-205
q1 -84 39 -116t117 -32v-43q-230 9 -246 9t-250 -9v43q79 0 117 32t39 116v205q-80 -54 -203 -54q-192 0 -308 142t-116 415t120 414t304 141q132 0 203 -78v224q-1 95 -35 137t-121 43v43q65 -6 162 -6t178 29v-474q93 82 236 82z" />
    <glyph glyph-name="uni0445" unicode="&#x445;" horiz-adv-x="1063" 
d="M876.5 8q-55.5 0 -227.5 -8v43q33 0 57 13t24 28.5t-9 28.5l-233 340l-150 -195q-57 -73 -57 -123q0 -84 151 -94v-41q-108 6 -216 6t-173 -6v41q79 10 180 143l236 311l-285 414q-41 59 -65.5 78.5t-61.5 24.5v43q108 -8 161.5 -8t225.5 8v-43q-33 0 -56.5 -12.5
t-23.5 -29t8 -28.5l219 -319l142 198q62 87 62 129q0 55 -117 64v41q106 -6 184 -6t143 6v-41q-83 -10 -180 -144l-207 -286l301 -439q36 -52 62 -73.5t65 -28.5v-43q-104 8 -159.5 8z" />
    <glyph glyph-name="uni0446" unicode="&#x446;" horiz-adv-x="1260" 
d="M59 43q86 -1 121 31t35 116v672q0 84 -35 116t-121 32v43q212 -9 247 -9t229 9v-43q-76 0 -106 -32t-30 -116v-672q0 -84 30 -116t106 -31h182q75 -1 105 31t30 116v672q0 84 -30 116t-105 32v43q193 -9 228 -9t247 9v-43q-86 0 -121 -32t-35 -116v-672q0 -87 35 -117
t143 -30q-14 -135 -14 -229t6 -140h-47q-17 152 -40 209q-23 56 -51 78q-61 47 -183 47l-248 -8l-332 8q-58 0 -246 -8v43z" />
    </font>
</defs>
</svg>
