<svg xmlns="http://www.w3.org/2000/svg">
<defs>
<font id="df346655a68224dfd32dc3ea4d88ff39" horiz-adv-x='1024' >
  <font-face 
    font-family="PTSerifPro-Book"
    font-weight="400"
    font-stretch="normal"
    units-per-em="2048"
    panose-1="2 10 5 3 4 5 5 2 2 4"
    ascent="1593"
    descent="-455"
    x-height="1024"
    cap-height="1434"
    bbox="-1077 -555 2330 2085.05"
    underline-thickness="102"
    underline-position="-102"
    unicode-range="U+0020-FB04"
  />
<missing-glyph horiz-adv-x="1452" 
d="M471 106q14 0 12 -14h-26q0 14 14 14zM471 66q-14 0 -14 14h43v14q0 27 -31 27t-31 -35t33 -35q17 0 25 8l-7 11q-4 -4 -18 -4zM410 78q0 -10 -14 -10t-25 6l-6 -19q20 -4 30 -4q33 0 33 29q0 16 -21 24q-22 8 -22 14t10 7q10 0 27 -4l4 16q-20 4 -27 4q-33 0 -32 -26
q0 -14 21 -24q22 -9 22 -13zM207 127h10q18 0 19 -12q0 -14 -21 -15h-8v27zM188 141v-86h19v29h10q37 0 37 29t-39 28h-27zM1325 109q14 0 12 -15h-26q0 15 14 15zM1325 68q-14 0 -14 14h43v14q0 27 -31 27t-31 -35t33 -35q17 0 25 8l-7 11q-4 -4 -18 -4zM1237 96
q0 13 13 13q14 0 14 -21t-19 -20q-4 0 -8 4v24zM1219 121v-90h18v26q4 -4 12 -4q33 0 33 35t-27 35q-12 0 -20 -10h-4l-2 8h-10zM1165 31q12 0 21 30l24 60h-18l-12 -37v-12h-2l-2 12l-15 37h-20l28 -66q-4 -10 -10 -10l-4 2l-4 -14q2 -2 14 -2zM1141 127v14h-74v-14h29v-72
h16v72h29zM1042 68q-10 0 -10 9t12 9l13 -2v-6q-5 -10 -15 -10zM1073 72v26q0 25 -24 25q-11 0 -19 -4t-10 -4l2 -11q20 4 27 4t8 -10v-4l-13 2q-31 0 -30 -24q0 -18 20 -19q16 0 23 13h2l2 -11h14q-2 2 -2 17zM1000 123q-8 0 -13 -12h-2l-2 10h-14v-66h18v41q0 10 14 10
l7 -2l4 17q-4 2 -12 2zM922 68q-10 0 -11 10q0 8 13 8h6l4 -2v-6q-2 -10 -12 -10zM934 98v-4h-4q-2 2 -6 2q-31 0 -31 -24q0 -18 20 -19q14 0 21 13l6 -11h14q-2 2 -2 17v26q0 25 -24 25q-6 0 -31 -8l4 -11q16 4 23 5q10 0 10 -11zM842 127h10q18 0 18 -13t-20 -14h-8v27z
M823 141v-86h19v29h10q37 0 37 29t-39 28h-27zM728 80q-7 0 -7 10t10 10h6l6 11q-8 4 -18 4q-20 0 -20 -25t20 -24q10 0 18 4l-4 12q-4 -2 -11 -2zM692 91q0 36 34 36t34 -36t-34 -36t-34 36zM678 92q0 -51 48 -51t48 49t-49 49q-20 0 -34 -13q-13 -14 -13 -34zM637 141h-19

<glyph glyph-name="IJ" unicode="IJ" horiz-adv-x="1347" 
d="M737 1434h508v-58q-72 -33 -155 -49v-1159q0 -422 -304 -496l-20 29q70 59 104 155t35 289v1182q-111 22 -168 49v58zM614 0h-512v57q80 37 164 49v1221q-80 14 -164 49v58h512v-58q-66 -31 -163 -49v-1221q85 -16 163 -49v-57z" />
    <glyph glyph-name="ij" unicode="ij" horiz-adv-x="1191" 
d="M788 1374q0 53 35 85t91 32t90 -32t34 -85t-34 -85t-90 -32t-91 32t-35 85zM827 49v860l-135 17v49q109 49 258 74h49v-961q0 -346 -213 -483q-41 -27 -81 -39l-23 37q57 29 101 140t44 306zM182 1374q0 53 35 85t91 32t90 -32t34 -85t-34 -85t-90 -32t-91 32t-35 85z
M528 0h-442v49q53 29 135 49v811l-135 17v49q119 49 258 74h49v-951q88 -20 135 -49v-49z" />
    <glyph glyph-name="uniF374.var.accented" unicode="&#xf374;`" horiz-adv-x="1167" 
d="M592 1257l242 357q33 4 95 -11t85 -34v-39l-381 -307zM733 -18q-623 0 -622 571q0 147 47 260t130 179q168 133 395 131q228 -1 351 -54q0 -147 -28 -283h-50l-92 232q-33 16 -147 16q-172 0 -288 -112t-128 -328l557 24q23 -70 6 -137q-246 25 -563 29q12 -207 130 -324
t317 -116q114 -1 143 28l82 203h49q27 -113 20 -256q-96 -63 -309 -63z" />
    <glyph glyph-name="uniF376.var.accented" unicode="&#xf376;`" horiz-adv-x="665" 
d="M256 1257l242 357q33 4 95 -11t85 -34v-39l-381 -307zM563 0h-461v51q61 29 140 41v920q-72 12 -140 43v49h461v-49q-55 -29 -139 -43v-920q82 -14 139 -41v-51z" />
    <glyph glyph-name="uniF377.var.accented" unicode="&#xf377;`" horiz-adv-x="665" 
d="M563 0h-461v51q61 29 140 41v920q-72 12 -140 43v49h461v-49q-55 -29 -139 -43v-920q82 -14 139 -41v-51zM276 1616l302 254q36 4 102 -18t88 -48v-41l-459 -186zM389 1398q0 46 30 75t77 29q46 0 76 -30q30 -28 30 -74t-30 -74t-76 -28t-77 28q-30 28 -30 74zM61 1398
q0 46 30 75t77 29t77 -30q29 -28 29 -74t-30 -74t-76 -28q-47 0 -77 28t-30 74z" />
    <glyph glyph-name="uniF350.var.accented" unicode="&#xf350;`" horiz-adv-x="1202" 
d="M498 1257l241 357q33 4 95 -11t86 -34v-39l-381 -307zM522 776l-133 -321h348l-137 323l-33 137h-4zM393 0h-393v51q63 29 125 41l438 1030h64l442 -1030q84 -14 133 -41v-51h-461v51q86 31 142 41l-115 275h-412l-114 -275q75 -8 151 -41v-51z" />
    <glyph glyph-name="uniF355.var.accented" unicode="&#xf355;`" horiz-adv-x="1056" 
d="M371 1257l241 357q34 4 96 -11t85 -34v-39l-381 -307zM61 1104h838q-4 -147 -20 -266h-50l-73 178h-371v-408h272l70 119h45q12 -162 0 -330h-45l-70 123h-272v-432h391l86 195h49q27 -156 21 -283h-871v51q76 31 142 41v920q-72 12 -142 41v51z" />
    <glyph glyph-name="uniF358.var.accented" unicode="&#xf358;`" horiz-adv-x="1327" 
d="M543 1257l241 357q34 4 96 -11t85 -34v-39l-381 -307zM516 0h-455v51q80 33 142 41v920q-88 18 -142 41v51h455v-51q-70 -31 -131 -41v-656l-18 -120l84 126l499 613v37q-76 16 -141 41v51h457v-51q-51 -23 -144 -41v-920q76 -12 144 -41v-51h-457v51q68 27 131 41v653
l18 121l-77 -121l-506 -618v-35q67 -10 141 -41v-51z" />
    <glyph glyph-name="uniF35E.var.accented" unicode="&#xf35e;`" horiz-adv-x="1337" 
d="M537 1257l241 357q33 4 95 -11t85 -34v-39l-380 -307zM313 555q-1 -215 95 -350t269 -135t260 135t87 348t-93 347t-273 134t-262 -132q-83 -132 -83 -347zM111 552q0 253 148 412q149 158 409 158t410 -158t149 -412q0 -253 -150 -412q-149 -158 -409 -158t-409 158
q-148 159 -148 412z" />
    <glyph glyph-name="uniF363.var.accented" unicode="&#xf363;`" horiz-adv-x="1155" 
d="M483 1257l242 357q33 4 95 -11t85 -34v-39l-381 -307zM762 1104h393v-51q-45 -20 -125 -41l-340 -695q-80 -182 -156 -262t-176 -63q-47 66 -57 180l27 47l184 -47q29 25 55 96l-438 744q-66 16 -129 41v51h473v-51q-63 -25 -139 -41l280 -490l37 -100h2l35 102l219 488
q-78 14 -145 41v51z" />
    <glyph glyph-name="uniF36B.var.accented" unicode="&#xf36b;`" horiz-adv-x="1517" 
d="M590 1257l241 357q33 4 95 -11t86 -34v-39l-381 -307zM500 582q-76 0 -115 -9v-483q31 -6 137 -6t176 66q72 66 72 194q0 238 -270 238zM61 0v51q66 29 142 41v920q-72 12 -142 41v51h478v-51q-86 -31 -154 -41v-353q102 10 156 11q432 0 432 -326q0 -172 -134 -260
t-327 -88l-219 4h-232zM1456 0h-455v51q53 23 134 41v920q-74 14 -136 41v51h457v-51q-66 -29 -139 -41v-920q63 -8 139 -41v-51z" />
    <glyph glyph-name="uniF36D.var.accented" unicode="&#xf36d;`" horiz-adv-x="1153" 
d="M356 1257l242 357q33 4 95 -11t85 -34v-39l-381 -307zM430 1034q-104 0 -137 -28l-90 -199h-49q-25 104 -21 250q94 66 309 65q600 0 600 -567q0 -147 -48 -261t-132 -180q-169 -134 -394 -133q-226 1 -345 56q10 172 27 282h49l92 -233q31 -16 149 -16q166 0 287 123
t123 344l-496 -48q-20 66 0 136l496 -2q-10 201 -120 306t-300 105z" />
    <glyph glyph-name="uniF36E.var.accented" unicode="&#xf36e;`" horiz-adv-x="1734" 
d="M758 1257l241 357q33 4 95 -11t86 -34v-39l-381 -307zM782 553q0 -483 334 -483q305 0 305 482t-334 482q-169 0 -237 -128t-68 -353zM516 0h-455v51q84 31 142 41v920q-72 10 -142 41v51h455v-51q-78 -31 -131 -41v-402h205q14 228 146 370t375 142t378 -156t135 -413
q0 -256 -135 -414q-135 -157 -385 -157t-379 146t-137 394h-203v-430q63 -12 131 -41v-51z" />
    <glyph glyph-name="uniF36F.var.accented" unicode="&#xf36f;`" horiz-adv-x="1140" 
d="M494 1257l241 357q33 4 95 -11t85 -34v-39l-380 -307zM635 539q80 0 119 8v465q-31 8 -105 8q-285 0 -284 -238q0 -243 270 -243zM1079 1104v-51q-63 -27 -143 -41v-920q84 -14 143 -41v-51h-475v51q68 29 150 41v369h-172q-33 -51 -82 -139t-92 -156t-97 -123l-61 -43
h-230v45l82 37q106 106 198 230q93 124 120 157q-113 31 -186 108t-72 203q0 166 142 247t345 81l197 -4h233z" />
    <glyph glyph-name="uniF371.var.accented" unicode="&#xf371;`" horiz-adv-x="1056" 
d="M385 1305l156 350q29 5 83 -13t83 -38v-33l-273 -287zM655 1398q0 40 26 64t67 25q40 0 66 -25q26 -24 26 -64t-26 -64t-66 -24t-67 24q-26 24 -26 64zM176 1398q0 40 26 64t66 25q40 0 67 -25q25 -24 25 -64t-26 -64t-66 -24t-66 24t-26 64zM61 1104h838
q-4 -147 -20 -266h-50l-73 178h-371v-408h272l70 119h45q12 -162 0 -330h-45l-70 123h-272v-432h391l86 195h49q27 -156 21 -283h-871v51q76 31 142 41v920q-72 12 -142 41v51z" />
    <glyph glyph-name="uniF38A.var.accented" unicode="&#xf38a;`" horiz-adv-x="1220" 
d="M555 1257l242 357q33 4 95 -11t85 -34v-39l-381 -307zM0 1104h479v-51q-63 -23 -141 -41l262 -650l37 -133h4l25 136q62 223 168 421t196 283q53 49 123 53q37 -12 71 -80t36 -118l-31 -45l-170 45q-115 -146 -236 -420t-170 -522h-80l-440 1030q-63 16 -133 41v51z" />
    <glyph glyph-name="afii10053.var.accented" unicode="&#x404;`" horiz-adv-x="1316" 
d="M686 1575l301 254q35 4 102 -18t89 -48v-41l-459 -186zM840 -25q-352 1 -540 183t-189 559q0 552 423 699q120 42 261 42q242 0 385 -69q4 -166 -29 -349h-49l-107 295q-39 20 -182 21q-211 0 -356 -152t-158 -438l686 29q23 -78 8 -154q-352 29 -694 33
q13 -276 159 -436t394 -160q139 0 174 39l96 250h49q27 -137 21 -308q-109 -84 -352 -84z" />
    <glyph glyph-name="afii10055.var.accented" unicode="&#x406;`" horiz-adv-x="716" 
d="M279 1575l301 254q36 4 102 -18t88 -48v-41l-459 -186zM614 0h-512v57q80 37 164 49v1221q-80 14 -164 49v58h512v-58q-66 -31 -163 -49v-1221q85 -16 163 -49v-57z" />
    <glyph glyph-name="afii10056.var.accented" unicode="&#x407;`" horiz-adv-x="716" 
d="M614 0h-512v57q80 37 164 49v1221q-80 14 -164 49v58h512v-58q-66 -31 -163 -49v-1221q85 -16 163 -49v-57zM289 1718l301 254q36 4 102 -18t88 -47v-41l-458 -187zM426 1616q0 45 31 70q31 24 80 24t79 -24t31 -70q0 -45 -31 -70q-32 -24 -80 -24t-79 24t-31 70z
M70 1616q0 45 30 70q31 24 80 24t80 -24t31 -70q0 -45 -31 -70q-31 -24 -80 -24t-80 24q-30 25 -30 70z" />
    <glyph glyph-name="afii10017.var.accented" unicode="&#x410;`" horiz-adv-x="1388" 
d="M584 1575l301 254q35 4 101 -18t89 -48v-41l-459 -186zM610 1024l-159 -436h417l-163 440l-39 176h-4zM449 0h-449v57q74 33 147 49l519 1352h49l518 -1352q104 -20 156 -49v-57h-512v57q98 37 167 49l-141 379h-493l-138 -379q87 -12 177 -49v-57z" />
    <glyph glyph-name="afii10022.var.accented" unicode="&#x415;`" horiz-adv-x="1185" 
d="M502 1575l301 254q35 4 101 -18t89 -48v-41l-458 -186zM61 1434h959q-4 -199 -21 -328h-49l-84 225h-452v-549h342l80 152h49q12 -203 0 -410h-49l-80 156h-342v-578h479l98 246h49q29 -199 21 -348h-1000v57q72 33 168 49v1221q-86 16 -168 49v58z" />
    <glyph glyph-name="afii10026.var.accented" unicode="&#x418;`" horiz-adv-x="1503" 
d="M645 1575l301 254q35 4 102 -18t89 -48v-41l-459 -186zM569 0h-508v57q82 37 168 49v1221q-104 23 -168 49v58h508v-58q-80 -37 -155 -49v-901l-21 -154l99 162l608 844v49q-96 20 -166 49v58h508v-58q-57 -27 -168 -49v-1221q96 -16 168 -49v-57h-508v57q88 37 156 49
v900l20 151l-90 -151l-617 -854v-46q84 -14 166 -49v-57z" />
    <glyph glyph-name="afii10032.var.accented" unicode="&#x41e;`" horiz-adv-x="1511" 
d="M666 1575l301 254q35 4 101 -18t89 -48v-41l-459 -186zM743 1356q-219 0 -323 -178t-105 -458q0 -280 119 -460q119 -182 332 -182q214 0 322 180t108 459t-117 459t-336 180zM111 717q0 329 173 535t472 206t472 -207t173 -535t-173 -534q-173 -207 -472 -207t-472 207
t-173 535z" />
    <glyph glyph-name="afii10037.var.accented" unicode="&#x423;`" horiz-adv-x="1345" 
d="M584 1575l301 254q35 4 101 -18t89 -48v-41l-459 -186zM893 1434h453v-58q-51 -25 -148 -49l-401 -915q-95 -240 -179 -342t-198 -80q-45 72 -60 217l27 49l207 -53q39 35 68 141l-506 983q-96 23 -156 49v58h528v-58q-68 -27 -168 -49l347 -692l43 -131h4l41 135
l274 688q-98 14 -176 49v58z" />
    <glyph glyph-name="afii10045.var.accented" unicode="&#x42b;`" horiz-adv-x="1708" 
d="M707 1575l301 254q36 4 102 -18t88 -48v-41l-459 -186zM557 766q-98 0 -143 -12v-648q33 -10 167 -10t226 91t92 255q0 324 -342 324zM61 0v57q80 37 168 49v1221q-86 16 -168 49v58h533v-58q-88 -35 -180 -49v-473q115 14 184 14q506 0 506 -422q0 -154 -81 -259
q-149 -193 -452 -193l-254 6h-256zM1647 0h-508v57q59 31 159 49v1221q-94 18 -159 49v58h508v-58q-72 -35 -164 -49v-1221q84 -12 164 -49v-57z" />
    <glyph glyph-name="afii10047.var.accented" unicode="&#x42d;`" horiz-adv-x="1292" 
d="M399 1575l301 254q35 4 102 -18t89 -48v-41l-459 -186zM485 1458q341 0 519 -177t178 -564q0 -187 -56 -333q-102 -265 -367 -365q-118 -44 -251 -44q-242 0 -385 70q8 184 29 348h49l106 -295q39 -20 182 -20q201 0 351 167q149 167 151 462l-604 -62q-20 74 0 154h604
q-14 274 -149 415t-369 142q-129 0 -164 -39l-106 -250h-49q-25 141 -21 307q109 84 352 84z" />
    <glyph glyph-name="afii10048.var.accented" unicode="&#x42e;`" horiz-adv-x="1968" 
d="M809 1575l301 254q36 4 102 -18t88 -48v-41l-458 -186zM854 696q0 -369 172 -529q96 -89 244 -89q201 0 292 176t91 457t-94 463t-324 182q-111 0 -187 -49q-194 -123 -194 -611zM569 0h-508v57q90 37 168 49v1221q-86 12 -168 49v58h508v-58q-74 -33 -155 -49v-541h245
q16 300 168 486q151 186 435 186t440 -204t156 -536t-158 -537q-158 -206 -447 -206t-439 193t-157 516h-243v-578q83 -14 155 -49v-57z" />
    <glyph glyph-name="afii10049.var.accented" unicode="&#x42f;`" horiz-adv-x="1290" 
d="M645 1575l301 254q35 4 102 -18t89 -48v-41l-459 -186zM733 690q92 0 144 15v622q-33 10 -127 10q-352 0 -353 -321q0 -156 84 -241t252 -85zM1229 1434v-58q-74 -33 -168 -49v-1221q102 -14 168 -49v-57h-533v57q76 37 181 49v498h-211q-27 -43 -137 -249t-195 -306
l-68 -49h-246v49l99 49q120 130 233 303t144 215q-133 40 -218 140t-85 252t85 252q156 180 476 180l219 -6h256z" />
    <glyph glyph-name="afii10023.var.accented" unicode="&#x401;`" horiz-adv-x="1185" 
d="M453 1554l217 291q29 5 85 -17t76 -48v-39l-350 -225zM797 1614q-1 46 25 70t68 24t68 -26t27 -68q0 -42 -27 -68q-27 -25 -67 -24q-94 0 -94 92zM231 1614q0 42 27 68t69 26q41 0 67 -25t26 -69t-26 -69q-26 -23 -68 -23t-68 24q-27 24 -27 68zM61 1434h959
q-4 -199 -21 -328h-49l-84 225h-452v-549h342l80 152h49q12 -203 0 -410h-49l-80 156h-342v-578h479l98 246h49q29 -199 21 -348h-1000v57q72 33 168 49v1221q-86 16 -168 49v58z" />
    <glyph glyph-name="afii10065.var.accented" unicode="&#x430;`" horiz-adv-x="1021" 
d="M418 1217l241 356q33 4 95 -11t86 -34v-39l-381 -307zM266 297q0 -99 46 -149t131 -50t141 60t78 123v215q-232 2 -314 -48t-82 -151zM360 -25q-122 0 -200 76t-78 208t90 202t285 94q82 10 205 16q18 187 -21 289t-156 103q-84 0 -137 -21l-96 -246h-49q-43 133 -51 254
q164 98 368 98t265 -109q49 -85 51 -216l-11 -457l6 -147l142 -21v-41q-106 -55 -223 -77h-50q-27 63 -30 229h-11q-16 -92 -96 -163t-203 -71z" />
    <glyph glyph-name="afii10070.var.accented" unicode="&#x435;`" horiz-adv-x="1021" 
d="M438 1217l242 356q33 4 95 -11t85 -34v-39l-381 -307zM532 963q-118 0 -180 -84t-76 -279h463q15 166 -37 264t-170 99zM86 516q0 254 120 393t337 140q176 0 293 -116t73 -419h-639q2 -186 90 -301t261 -115q73 0 147 22t109 52l28 -31q-33 -69 -130 -117t-202 -49
q-235 -1 -361 143t-126 398z" />
    <glyph glyph-name="afii10074.var.accented" unicode="&#x438;`" horiz-adv-x="1241" 
d="M520 1217l242 356q33 4 95 -11t85 -34v-39l-381 -307zM82 1024h422v-49q-47 -27 -123 -49v-574l-23 -190h11l80 153l446 709h264v-49q-66 -37 -135 -49v-828q98 -27 135 -49v-49h-422v49q57 33 123 49v596l21 162h-11l-77 -154l-443 -702h-268v49q53 27 135 49v828
q-80 12 -135 49v49z" />
    <glyph glyph-name="afii10080.var.accented" unicode="&#x43e;`" horiz-adv-x="1122" 
d="M438 1217l242 356q33 4 95 -11t85 -34v-39l-381 -307zM270 523q0 -212 80 -337t246 -125q116 0 186 115t70 326t-76 336t-231 125q-127 0 -201 -114t-74 -326zM86 514q0 252 128 393t358 141t348 -140q116 -142 116 -396t-128 -395t-356 -141t-346 142q-120 144 -120 396
z" />
    <glyph glyph-name="afii10085.var.accented" unicode="&#x443;`" horiz-adv-x="1030" 
d="M459 1217l241 356q34 4 96 -11t85 -34v-39l-381 -307zM-20 1024h415v-47q-43 -29 -116 -51l266 -617l41 -127h4l31 129l198 615q-61 12 -112 49v49h344v-49q-43 -29 -117 -49l-318 -926q-116 -313 -236 -390q-52 -34 -132 -50q-33 57 -66 170l27 49h209q27 33 43 73
t51 148l-424 926q-43 10 -108 49v49z" />
    <glyph glyph-name="afii10093.var.accented" unicode="&#x44b;`" horiz-adv-x="1509" 
d="M623 1217l241 356q33 4 95 -11t85 -34v-39l-380 -307zM1427 0h-430v49q72 35 123 49v828q-76 16 -123 49v49h430v-49q-41 -29 -135 -49v-828q82 -22 135 -49v-49zM528 536q-86 0 -139 -10v-440l111 -8q240 0 239 250q0 108 -62 158q-63 50 -149 50zM82 0v49q51 31 135 49
v828q-59 6 -135 49v49h430v-49q-45 -29 -123 -49v-320q121 16 201 17q160 0 249 -74q89 -75 89 -229t-110 -241t-290 -87l-256 8h-190z" />
    <glyph glyph-name="afii10095.var.accented" unicode="&#x44d;`" horiz-adv-x="1001" 
d="M356 1217l242 356q33 4 95 -11t85 -34v-39l-381 -307zM439 -25q-207 0 -341 123l35 131h39l123 -145q43 -16 127 -16q137 0 222 112t87 303l-409 -30q-23 53 0 106h407q-16 403 -303 404q-84 0 -104 -15l-91 -252h-49q-35 115 -51 273q152 80 330 80q455 0 454 -517
q-1 -274 -135 -416t-341 -141z" />
    <glyph glyph-name="afii10096.var.accented" unicode="&#x44e;`" horiz-adv-x="1591" 
d="M643 1217l242 356q33 4 95 -11t85 -34v-39l-381 -307zM1038 963q-122 0 -192 -122t-70 -331t83 -329t204 -120q258 0 258 451t-283 451zM512 0h-430v49q47 27 135 49v828q-82 23 -135 49v49h430v-49q-49 -29 -123 -49v-365h207q10 229 132 359t334 129t328 -139t116 -395
t-121 -398t-329 -141t-330 125q-122 126 -130 374h-207v-377q70 -12 123 -49v-49z" />
    <glyph glyph-name="afii10097.var.accented" unicode="&#x44f;`" horiz-adv-x="1073" 
d="M459 1217l241 356q34 4 96 -11t85 -34v-39l-381 -307zM684 498v440q-74 12 -143 12q-227 6 -228 -221q0 -103 80 -167t236 -64h55zM991 1024v-49q-43 -35 -135 -49v-828q78 -20 135 -49v-49h-430v49q41 27 123 49v351l-152 -21q-14 -23 -83 -150t-162 -231l-64 -47h-223
v49l117 49q74 76 170 210t104 145q-106 19 -182 87t-76 199t95 214t298 83l330 -12h135z" />
    <glyph glyph-name="afii10071.var.accented" unicode="&#x451;`" horiz-adv-x="1021" 
d="M414 1264l155 350q29 4 83 -13t83 -38v-33l-272 -287zM684 1357q0 41 26 65t66 24t67 -25q25 -25 25 -65t-26 -63t-66 -23t-66 24t-26 63zM205 1357q-1 41 25 65t67 24t67 -25t26 -65t-26 -63t-67 -23t-67 23q-25 24 -25 64zM532 963q-118 0 -180 -84t-76 -279h463
q15 166 -37 264t-170 99zM86 516q0 254 120 393t337 140q176 0 293 -116t73 -419h-639q2 -186 90 -301t261 -115q73 0 147 22t109 52l28 -31q-33 -69 -130 -117t-202 -49q-235 -1 -361 143t-126 398z" />
    <glyph glyph-name="afii10101.var.accented" unicode="&#x454;`" horiz-adv-x="970" 
d="M418 1217l241 356q33 4 95 -11t86 -34v-39l-381 -307zM86 515q0 249 133 391t341 142t325 -61q-16 -184 -64 -289h-49l-86 244q-31 20 -96 21q-307 0 -320 -420l404 30q23 -53 0 -106h-402q14 -153 116 -261t244 -108t230 70l27 -27q-41 -73 -123 -119t-186 -47
q-234 -1 -364 145t-130 395z" />
    <glyph glyph-name="afii10103.var.accented" unicode="&#x456;`" horiz-adv-x="610" 
d="M197 1217l241 356q34 4 96 -11t84 -34v-39l-380 -307zM528 0h-442v49q53 29 135 49v811l-135 17v49q119 49 258 74h49v-951q88 -20 135 -49v-49z" />
    <glyph glyph-name="afii10104.var.accented" unicode="&#x457;`" horiz-adv-x="704" 
d="M575 0h-442v49q53 29 135 49v811l-135 17v49q121 49 258 74h49v-951q88 -20 135 -49v-49zM297 1575l301 254q36 4 102 -18t88 -48v-41l-458 -186zM410 1357q0 46 29 75q30 28 77 28t77 -28t30 -75q0 -46 -30 -74t-77 -28t-77 28q-29 28 -29 74zM188 1255q-46 0 -76 28
t-30 74t30 75q30 28 76 28t77 -28q30 -28 30 -75q0 -46 -30 -74t-77 -28z" />
    <glyph glyph-name="afii10062.var.accented" unicode="&#x40e;`" horiz-adv-x="1345" 
d="M608 1657l219 295q35 4 102 -18t89 -48v-41l-377 -227zM728 1497q-179 0 -268 72t-89 188q35 37 147 45l49 -26v-177q57 -29 161 -29t163 23v121l49 27q80 0 139 -45q0 -86 -86 -142t-265 -57zM893 1434h453v-58q-51 -25 -148 -49l-401 -915q-95 -240 -179 -342t-198 -80
q-45 72 -60 217l27 49l207 -53q39 35 68 141l-506 983q-96 23 -156 49v58h528v-58q-68 -27 -168 -49l347 -692l43 -131h4l41 135l274 688q-98 14 -176 49v58z" />
    <glyph glyph-name="afii10110.var.accented" unicode="&#x45e;`" horiz-adv-x="1030" 
d="M459 1319l205 330q33 5 95 -11t85 -34v-39l-344 -281zM559 1149q-336 0 -336 250q59 45 148 55l49 -27v-182q51 -23 137 -23t145 17v147l50 27q88 -12 139 -55q0 -78 -79 -144t-253 -65zM-20 1024h415v-47q-43 -29 -116 -51l266 -617l41 -127h4l31 129l198 615
q-61 12 -112 49v49h344v-49q-43 -29 -117 -49l-318 -926q-116 -313 -236 -390q-52 -34 -132 -50q-33 57 -66 170l27 49h209q27 33 43 73t51 148l-424 926q-43 10 -108 49v49z" />
    <glyph glyph-name="afii10148.var.accented" unicode="&#x474;`" horiz-adv-x="1419" 
d="M645 1575l301 254q35 4 102 -18t89 -48v-41l-459 -186zM0 1434h528v-58q-70 -27 -168 -49l324 -895l43 -160h4l27 160q76 281 205 557t237 397q56 62 148 72q40 -16 74 -98t36 -139l-28 -47l-195 55q-141 -205 -289 -567t-205 -687h-69l-516 1352q-88 23 -156 49v58z" />
    <glyph glyph-name="afii10196.var.accented" unicode="&#x475;`" horiz-adv-x="1036" 
d="M459 1217l241 356q34 4 96 -11t85 -34v-39l-381 -307zM-20 1024h415v-47q-66 -35 -116 -51l243 -627l27 -106h4l20 120q102 418 240 631q37 55 87 81t91 17q31 -27 57 -84t29 -106l-26 -49l-172 41q-101 -162 -199 -488l-109 -356l-84 -25l-399 951q-59 20 -108 49v49z
" />
    <glyph glyph-name="uni04AE.var.accented" unicode="&#x4ae;`" horiz-adv-x="1306" 
d="M645 1575l301 254q35 4 102 -18t89 -48v-41l-459 -186zM862 1434h445v-58q-76 -37 -156 -49l-387 -717v-504q80 -10 156 -49v-57h-508v57q74 37 168 49v502l-414 719q-74 12 -166 49v58h528v-58q-66 -27 -157 -49l340 -608l319 608q-98 22 -168 49v58z" />
    <glyph glyph-name="uni04AF.var.accented" unicode="&#x4af;`" horiz-adv-x="1032" 
d="M459 1217l241 356q34 4 96 -11t85 -34v-39l-381 -307zM745 -410h-442v50q53 29 135 49v403l-350 834q-59 20 -108 49v49h415v-47q-66 -35 -116 -51l243 -627l41 -127h4l31 129l223 625q-55 12 -112 49v49h344v-49q-37 -27 -117 -49l-326 -828v-409q88 -20 135 -49v-50z
" />
    <glyph glyph-name="uni04B0.var.accented" unicode="&#x4b0;`" horiz-adv-x="1306" 
d="M645 1575l301 254q35 4 102 -18t89 -48v-41l-459 -186zM862 1434h445v-58q-76 -37 -156 -49l-387 -717h299v-102h-299v-402q80 -10 156 -49v-57h-508v57q74 37 168 49v402h-299v102h297l-412 717q-74 12 -166 49v58h528v-58q-66 -27 -157 -49l340 -608l319 608
q-98 22 -168 49v58z" />
    <glyph glyph-name="uni04B1.var.accented" unicode="&#x4b1;`" horiz-adv-x="1032" 
d="M459 1217l241 356q34 4 96 -11t85 -34v-39l-381 -307zM184 0v102h250l-346 824q-59 20 -108 49v49h415v-47q-66 -35 -116 -51l188 -488l92 -266h4l84 268l174 486q-55 12 -112 49v49h344v-49q-37 -27 -117 -49l-324 -824h252v-102h-252l-2 -311q88 -20 135 -49v-50h-442
v50q53 29 135 49v311h-254z" />
    <glyph glyph-name="uni04D0.var.accented" unicode="&#x4d0;`" horiz-adv-x="1388" 
d="M582 1657l219 295q35 4 101 -18t89 -48v-41l-377 -227zM701 1497q-179 0 -268 72t-89 188q35 37 148 45l49 -26v-177q57 -29 161 -29t162 23v121l49 27q80 0 140 -45q0 -86 -86 -143q-87 -56 -266 -56zM610 1024l-159 -436h417l-163 440l-39 176h-4zM449 0h-449v57
q74 33 147 49l519 1352h49l518 -1352q104 -20 156 -49v-57h-512v57q98 37 167 49l-141 379h-493l-138 -379q87 -12 177 -49v-57z" />
    <glyph glyph-name="uni04D1.var.accented" unicode="&#x4d1;`" horiz-adv-x="1021" 
d="M418 1319l205 330q33 5 95 -11t85 -34v-39l-344 -281zM518 1149q-336 0 -336 250q59 45 148 55l49 -27v-182q51 -23 137 -23t146 17v147l49 27q88 -12 139 -55q0 -78 -79 -144t-253 -65zM266 297q0 -99 46 -149t131 -50t141 60t78 123v215q-232 2 -314 -48t-82 -151z
M360 -25q-122 0 -200 76t-78 208t90 202t285 94q82 10 205 16q18 187 -21 289t-156 103q-84 0 -137 -21l-96 -246h-49q-43 133 -51 254q164 98 368 98t265 -109q49 -85 51 -216l-11 -457l6 -147l142 -21v-41q-106 -55 -223 -77h-50q-27 63 -30 229h-11q-16 -92 -96 -163
t-203 -71z" />
    <glyph glyph-name="uni04D2.var.accented" unicode="&#x4d2;`" horiz-adv-x="1388" 
d="M541 1554l217 291q29 5 85 -17t77 -48v-39l-351 -225zM885 1614q-1 46 25 70t68 24t69 -26t27 -68t-28 -68q-26 -25 -67 -24q-94 0 -94 92zM319 1614q0 42 27 68t69 26q41 0 67 -25t26 -69t-26 -69q-26 -23 -68 -23t-68 24q-27 24 -27 68zM610 1024l-159 -436h417
l-163 440l-39 176h-4zM449 0h-449v57q74 33 147 49l519 1352h49l518 -1352q104 -20 156 -49v-57h-512v57q98 37 167 49l-141 379h-493l-138 -379q87 -12 177 -49v-57z" />
    <glyph glyph-name="uni04D3.var.accented" unicode="&#x4d3;`" horiz-adv-x="1021" 
d="M373 1264l155 350q29 4 83 -13t83 -38v-33l-272 -287zM643 1357q0 41 26 65q27 24 67 24t66 -25t26 -65t-26 -63t-67 -23t-67 24t-25 63zM164 1357q0 41 26 65t66 24q41 0 67 -25q25 -25 25 -65t-26 -63t-66 -23q-41 0 -67 23q-25 24 -25 64zM266 297q0 -99 46 -149
t131 -50t141 60t78 123v215q-232 2 -314 -48t-82 -151zM360 -25q-122 0 -200 76t-78 208t90 202t285 94q82 10 205 16q18 187 -21 289t-156 103q-84 0 -137 -21l-96 -246h-49q-43 133 -51 254q164 98 368 98t265 -109q49 -85 51 -216l-11 -457l6 -147l142 -21v-41
q-106 -55 -223 -77h-50q-27 63 -30 229h-11q-16 -92 -96 -163t-203 -71z" />
    <glyph glyph-name="uni04D4.var.accented" unicode="&#x4d4;`" horiz-adv-x="1878" 
d="M952 1575l301 254q35 4 102 -18t89 -48v-41l-459 -186zM922 629v626h-4l-87 -190l-253 -436h344zM1106 1331v-549h342l80 152h49q12 -203 0 -410h-49l-80 156h-342v-578h479l98 246h50q29 -199 20 -348h-999v57q72 33 168 49v420h-404l-242 -420q86 -12 177 -49v-57h-453
v57q74 33 147 49l725 1231q-70 18 -118 39v58h958q-4 -199 -20 -328h-50l-83 225h-453z" />
    <glyph glyph-name="uni04D5.var.accented" unicode="&#x4d5;`" horiz-adv-x="1583" 
d="M664 1217l241 356q33 4 95 -11t85 -34v-39l-380 -307zM1093 963q-119 0 -181 -84t-74 -279h462q14 166 -38 264t-169 99zM266 297q0 -199 178 -199q86 0 142 56t76 118v224q-232 2 -314 -48t-82 -151zM1084 1049q106 0 178 -26t133 -87q120 -120 75 -422h-639
q3 -186 91 -301t260 -115q72 0 146 22t110 52l28 -31q-33 -69 -130 -117q-98 -48 -214 -48t-234 52t-173 175q-33 -98 -129 -163t-222 -65t-204 76t-78 208t90 202t285 94q82 10 205 16q18 187 -21 289t-156 103q-84 0 -137 -21l-96 -246h-49q-43 133 -51 254q164 98 375 98
t264 -122q55 61 121 92t172 31z" />
    <glyph glyph-name="uni04D6.var.accented" unicode="&#x4d6;`" horiz-adv-x="1185" 
d="M449 1657l219 295q36 4 102 -18t88 -48v-41l-377 -227zM568 1497q-179 0 -268 72t-89 188q35 37 147 45l50 -26v-177q57 -29 161 -29t162 23v121l49 27q80 0 140 -45q0 -86 -86 -143q-87 -56 -266 -56zM61 1434h959q-4 -199 -21 -328h-49l-84 225h-452v-549h342l80 152
h49q12 -203 0 -410h-49l-80 156h-342v-578h479l98 246h49q29 -199 21 -348h-1000v57q72 33 168 49v1221q-86 16 -168 49v58z" />
    <glyph glyph-name="uni04D7.var.accented" unicode="&#x4d7;`" horiz-adv-x="1021" 
d="M532 963q-118 0 -180 -84t-76 -279h463q15 166 -37 264t-170 99zM86 516q0 254 120 393t337 140q176 0 293 -116t73 -419h-639q2 -186 90 -301t261 -115q73 0 147 22t109 52l28 -31q-33 -69 -130 -117t-202 -49q-235 -1 -361 143t-126 398zM438 1319l205 330q33 5 95 -11
t85 -34v-39l-344 -281zM539 1149q-336 0 -336 250q59 45 147 55l49 -27v-182q51 -23 137 -23t146 17v147l49 27q88 -12 139 -55q0 -78 -78 -144q-79 -65 -253 -65z" />
    <glyph glyph-name="uni04D8.var.accented" unicode="&#x4d8;`" horiz-adv-x="1452" 
d="M502 1575l301 254q35 4 101 -18t89 -48v-41l-458 -186zM734 78q192 0 302 145t117 434h-842q-4 -57 -4 -84q0 -213 118 -354q117 -141 309 -141zM1341 722q0 -362 -164 -554q-163 -193 -449 -193t-452 169t-165 495q0 55 6 121h1036q-10 280 -144 438t-388 158
q-170 0 -224 -29l-106 -295h-49q-35 184 -27 344q168 82 412 82q354 0 534 -187t180 -549z" />
    <glyph glyph-name="afii10846.var.accented" unicode="&#x4d9;`" horiz-adv-x="1054" 
d="M465 1217l242 356q33 4 95 -11t85 -34v-39l-381 -307zM547 61q240 0 264 390h-502q-13 -174 53 -282t185 -108zM518 963q-84 0 -137 -21l-96 -246h-49q-43 133 -52 254q164 98 359 99q453 0 452 -537q1 -258 -119 -397t-337 -140q-178 0 -307 125q-65 63 -92 176
q-28 113 -1 261h678q-1 199 -67 313t-232 113z" />
    <glyph glyph-name="uni04DA.var.accented" unicode="&#x4da;`" horiz-adv-x="1452" 
d="M528 1554l217 291q29 5 85 -17t77 -48v-39l-350 -225zM872 1614q0 46 26 70t68 24t68 -26t27 -68q0 -42 -27 -68q-26 -24 -68 -24t-68 24t-26 68zM307 1614q0 42 27 68q26 26 68 26t68 -25t26 -69t-26 -69q-26 -23 -68 -23t-68 24t-27 68zM734 78q192 0 302 145t117 434
h-842q-4 -57 -4 -84q0 -213 118 -354q117 -141 309 -141zM1341 722q0 -362 -164 -554q-163 -193 -449 -193t-452 169t-165 495q0 55 6 121h1036q-10 280 -144 438t-388 158q-170 0 -224 -29l-106 -295h-49q-35 184 -27 344q168 82 412 82q354 0 534 -187t180 -549z" />
    <glyph glyph-name="uni04DB.var.accented" unicode="&#x4db;`" horiz-adv-x="1054" 
d="M430 1264l156 350q29 4 83 -13t83 -38v-33l-273 -287zM700 1357q0 41 26 65t67 24t67 -25t25 -65q0 -40 -26 -63q-27 -23 -67 -23t-66 24t-26 63zM221 1357q0 41 26 65q27 24 67 24t66 -25t26 -65t-26 -63t-67 -23t-67 24t-25 63zM547 61q240 0 264 390h-502
q-13 -174 53 -282t185 -108zM518 963q-84 0 -137 -21l-96 -246h-49q-43 133 -52 254q164 98 359 99q453 0 452 -537q1 -258 -119 -397t-337 -140q-178 0 -307 125q-65 63 -92 176q-28 113 -1 261h678q-1 199 -67 313t-232 113z" />
    <glyph glyph-name="uni04E2.var.accented" unicode="&#x4e2;`" horiz-adv-x="1503" 
d="M1067 1616h-612v102h612v-102zM645 1780l301 254q35 4 102 -18t89 -48v-41l-459 -186zM569 0h-508v57q82 37 168 49v1221q-104 23 -168 49v58h508v-58q-80 -37 -155 -49v-901l-21 -154l99 162l608 844v49q-96 20 -166 49v58h508v-58q-57 -27 -168 -49v-1221
q96 -16 168 -49v-57h-508v57q88 37 156 49v900l20 151l-90 -151l-617 -854v-46q84 -14 166 -49v-57z" />
    <glyph glyph-name="uni04E3.var.accented" unicode="&#x4e3;`" horiz-adv-x="1241" 
d="M541 1407l241 356q34 4 96 -11t85 -34v-39l-381 -307zM903 1227h-510v102h510v-102zM82 1024h422v-49q-47 -27 -123 -49v-574l-23 -190h11l80 153l446 709h264v-49q-66 -37 -135 -49v-828q98 -27 135 -49v-49h-422v49q57 33 123 49v596l21 162h-11l-77 -154l-443 -702
h-268v49q53 27 135 49v828q-80 12 -135 49v49z" />
    <glyph glyph-name="uni04E4.var.accented" unicode="&#x4e4;`" horiz-adv-x="1503" 
d="M600 1554l217 291q29 5 85 -17t77 -48v-39l-350 -225zM944 1614q0 46 26 70t68 24t68 -26q27 -26 27 -68t-27 -68q-27 -24 -69 -24q-41 0 -67 24t-26 68zM379 1614q0 42 27 68q26 26 68 26t68 -25t26 -69t-26 -69q-26 -23 -68 -23t-68 24t-27 68zM569 0h-508v57
q82 37 168 49v1221q-104 23 -168 49v58h508v-58q-80 -37 -155 -49v-901l-21 -154l99 162l608 844v49q-96 20 -166 49v58h508v-58q-57 -27 -168 -49v-1221q96 -16 168 -49v-57h-508v57q88 37 156 49v900l20 151l-90 -151l-617 -854v-46q84 -14 166 -49v-57z" />
    <glyph glyph-name="uni04E5.var.accented" unicode="&#x4e5;`" horiz-adv-x="1241" 
d="M502 1264l155 350q29 4 83 -13t83 -38v-33l-272 -287zM772 1357q0 41 26 65t66 24t67 -25q25 -25 25 -65t-26 -63t-66 -23t-66 24t-26 63zM293 1357q-1 41 25 65t67 24t67 -25t26 -65t-26 -63t-67 -23t-67 23q-25 24 -25 64zM82 1024h422v-49q-47 -27 -123 -49v-574
l-23 -190h11l80 153l446 709h264v-49q-66 -37 -135 -49v-828q98 -27 135 -49v-49h-422v49q57 33 123 49v596l21 162h-11l-77 -154l-443 -702h-268v49q53 27 135 49v828q-80 12 -135 49v49z" />
    <glyph glyph-name="uni04E6.var.accented" unicode="&#x4e6;`" horiz-adv-x="1511" 
d="M743 1356q-219 0 -323 -178t-105 -458q0 -280 119 -460q119 -182 332 -182q214 0 322 180t108 459t-117 459t-336 180zM111 717q0 329 173 535t472 206t472 -207t173 -535t-173 -534q-173 -207 -472 -207t-472 207t-173 535zM600 1554l217 291q29 5 85 -17t77 -48v-39
l-350 -225zM944 1614q0 46 26 70t68 24t68 -26q27 -26 27 -68t-27 -68q-27 -24 -69 -24q-41 0 -67 24t-26 68zM379 1614q0 42 27 68q26 26 68 26t68 -25t26 -69t-26 -69q-26 -23 -68 -23t-68 24t-27 68z" />
    <glyph glyph-name="uni04E7.var.accented" unicode="&#x4e7;`" horiz-adv-x="1122" 
d="M270 523q0 -212 80 -337t246 -125q116 0 186 115t70 326t-76 336t-231 125q-127 0 -201 -114t-74 -326zM86 514q0 252 128 393t358 141t348 -140q116 -142 116 -396t-128 -395t-356 -141t-346 142q-120 144 -120 396zM438 1264l156 350q29 4 83 -13t83 -38v-33l-273 -287
zM709 1357q-1 41 25 65t67 24t67 -25t25 -65q0 -40 -26 -63q-27 -23 -67 -23t-66 23q-25 24 -25 64zM229 1357q0 41 26 65t67 24q40 0 66 -25t26 -65t-26 -63t-66 -23t-67 24q-26 24 -26 63z" />
    <glyph glyph-name="uni04E8.var.accented" unicode="&#x4e8;`" horiz-adv-x="1511" 
d="M653 1575l301 254q35 4 102 -18t89 -48v-41l-459 -186zM743 1356q-205 0 -309 -156t-117 -409h877q-16 253 -131 409t-320 156zM766 78q204 0 312 166t116 428h-879q10 -260 128 -427t323 -167zM111 717q0 329 173 535t472 206t472 -207t173 -535t-173 -534
q-173 -207 -472 -207t-472 207t-173 535z" />
    <glyph glyph-name="uni04E9.var.accented" unicode="&#x4e9;`" horiz-adv-x="1122" 
d="M459 1217l241 356q34 4 96 -11t85 -34v-39l-381 -307zM596 61q108 -1 178 103t76 305h-580q8 -184 88 -296t238 -112zM556 963q-130 1 -203 -99t-81 -293h578q-12 176 -88 284t-206 108zM86 514q0 252 128 393t358 141t348 -140q116 -142 116 -396t-128 -395t-356 -141
t-346 142q-120 144 -120 396z" />
    <glyph glyph-name="uni04EA.var.accented" unicode="&#x4ea;`" horiz-adv-x="1511" 
d="M600 1554l217 291q29 5 85 -17t77 -48v-39l-350 -225zM944 1614q0 46 26 70t68 24t68 -26q27 -26 27 -68t-27 -68q-27 -24 -69 -24q-41 0 -67 24t-26 68zM379 1614q0 42 27 68q26 26 68 26t68 -25t26 -69t-26 -69q-26 -23 -68 -23t-68 24t-27 68zM743 1356
q-205 0 -309 -156t-117 -409h877q-16 253 -131 409t-320 156zM766 78q204 0 312 166t116 428h-879q10 -260 128 -427t323 -167zM111 717q0 329 173 535t472 206t472 -207t173 -535t-173 -534q-173 -207 -472 -207t-472 207t-173 535z" />
    <glyph glyph-name="uni04EB.var.accented" unicode="&#x4eb;`" horiz-adv-x="1122" 
d="M451 1264l155 350q29 4 83 -13t83 -38v-33l-272 -287zM721 1357q-1 41 25 65t67 24t67 -25t26 -65t-26 -63t-67 -23t-67 23q-25 24 -25 64zM242 1357q0 41 26 65t66 24t66 -25t26 -65t-26 -63t-66 -23t-67 23q-25 24 -25 64zM596 61q108 -1 178 103t76 305h-580
q8 -184 88 -296t238 -112zM556 963q-130 1 -203 -99t-81 -293h578q-12 176 -88 284t-206 108zM86 514q0 252 128 393t358 141t348 -140q116 -142 116 -396t-128 -395t-356 -141t-346 142q-120 144 -120 396z" />
    <glyph glyph-name="uni04EC.var.accented" unicode="&#x4ec;`" horiz-adv-x="1292" 
d="M406 1554l217 291q29 5 85 -17t76 -48v-39l-350 -225zM750 1614q0 46 26 70t67 24q43 0 69 -26t26 -68t-27 -68q-27 -25 -67 -24q-94 0 -94 92zM184 1614q0 42 27 68t69 26t68 -25t25 -69q0 -44 -26 -69q-25 -23 -67 -23t-69 24t-27 68zM485 1458q341 0 519 -177
t178 -564q0 -187 -56 -333q-102 -265 -367 -365q-118 -44 -251 -44q-242 0 -385 70q8 184 29 348h49l106 -295q39 -20 182 -20q201 0 351 167q149 167 151 462l-604 -62q-20 74 0 154h604q-14 274 -149 415t-369 142q-129 0 -164 -39l-106 -250h-49q-25 141 -21 307
q109 84 352 84z" />
    <glyph glyph-name="uni04ED.var.accented" unicode="&#x4ed;`" horiz-adv-x="1001" 
d="M373 1264l155 350q29 4 83 -13t83 -38v-33l-272 -287zM643 1357q0 41 26 65q27 24 67 24t66 -25t26 -65t-26 -63t-67 -23t-67 24t-25 63zM164 1357q0 41 26 65t66 24q41 0 67 -25q25 -25 25 -65t-26 -63t-66 -23q-41 0 -67 23q-25 24 -25 64zM439 -25q-207 0 -341 123
l35 131h39l123 -145q43 -16 127 -16q137 0 222 112t87 303l-409 -30q-23 53 0 106h407q-16 403 -303 404q-84 0 -104 -15l-91 -252h-49q-35 115 -51 273q152 80 330 80q455 0 454 -517q-1 -274 -135 -416t-341 -141z" />
    <glyph glyph-name="uni04EE.var.accented" unicode="&#x4ee;`" horiz-adv-x="1345" 
d="M1018 1616h-612v102h612v-102zM575 1780l302 254q35 4 101 -18t89 -48v-41l-459 -186zM893 1434h453v-58q-51 -25 -148 -49l-401 -915q-95 -240 -179 -342t-198 -80q-45 72 -60 217l27 49l207 -53q39 35 68 141l-506 983q-96 23 -156 49v58h528v-58q-68 -27 -168 -49
l347 -692l43 -131h4l41 135l274 688q-98 14 -176 49v58z" />
    <glyph glyph-name="uni04EF.var.accented" unicode="&#x4ef;`" horiz-adv-x="1030" 
d="M438 1407l242 356q33 4 95 -11t85 -34v-39l-381 -307zM801 1227h-510v102h510v-102zM-20 1024h415v-47q-43 -29 -116 -51l266 -617l41 -127h4l31 129l198 615q-61 12 -112 49v49h344v-49q-43 -29 -117 -49l-318 -926q-116 -313 -236 -390q-52 -34 -132 -50
q-33 57 -66 170l27 49h209q27 33 43 73t51 148l-424 926q-43 10 -108 49v49z" />
    <glyph glyph-name="uni04F0.var.accented" unicode="&#x4f0;`" horiz-adv-x="1345" 
d="M551 1554l217 291q29 5 85 -17t77 -48v-39l-350 -225zM895 1614q0 46 26 70q25 24 67 24t69 -26t27 -68t-28 -68q-26 -24 -68 -24t-68 24t-25 68zM330 1614q0 42 26 68t69 26q42 0 68 -25q25 -25 25 -69t-26 -69q-26 -23 -67 -23q-42 0 -69 24q-26 25 -26 68zM893 1434
h453v-58q-51 -25 -148 -49l-401 -915q-95 -240 -179 -342t-198 -80q-45 72 -60 217l27 49l207 -53q39 35 68 141l-506 983q-96 23 -156 49v58h528v-58q-68 -27 -168 -49l347 -692l43 -131h4l41 135l274 688q-98 14 -176 49v58z" />
    <glyph glyph-name="uni04F1.var.accented" unicode="&#x4f1;`" horiz-adv-x="1030" 
d="M432 1264l156 350q29 4 83 -13t83 -38v-33l-273 -287zM702 1357q0 41 26 65t67 24t67 -25t25 -65q0 -40 -26 -63q-27 -23 -67 -23t-66 24t-26 63zM223 1357q0 41 26 65q27 24 67 24t66 -25t26 -65t-26 -63t-67 -23t-67 24t-25 63zM-20 1024h415v-47q-43 -29 -116 -51
l266 -617l41 -127h4l31 129l198 615q-61 12 -112 49v49h344v-49q-43 -29 -117 -49l-318 -926q-116 -313 -236 -390q-52 -34 -132 -50q-33 57 -66 170l27 49h209q27 33 43 73t51 148l-424 926q-43 10 -108 49v49z" />
    <glyph glyph-name="uni04F2.var.accented" unicode="&#x4f2;`" horiz-adv-x="1345" 
d="M651 1647l244 307q31 2 74 -11t65 -34v-39l-342 -258zM770 1587l277 209q31 4 90 -13t77 -40l-2 -21l-403 -172zM389 1591l143 228q30 5 88 -11t70 -36v-29l-266 -189zM893 1434h453v-58q-51 -25 -148 -49l-401 -915q-95 -240 -179 -342t-198 -80q-45 72 -60 217l27 49
l207 -53q39 35 68 141l-506 983q-96 23 -156 49v58h528v-58q-68 -27 -168 -49l347 -692l43 -131h4l41 135l274 688q-98 14 -176 49v58z" />
    <glyph glyph-name="uni04F3.var.accented" unicode="&#x4f3;`" horiz-adv-x="1030" 
d="M555 1356l162 360q33 4 95 -11t85 -34v-39l-301 -311zM625 1264l272 309q33 4 90 -13t78 -44v-25l-406 -262zM264 1260l160 313q29 4 91 -11t75 -32v-29l-283 -272zM-20 1024h415v-47q-43 -29 -116 -51l266 -617l41 -127h4l31 129l198 615q-61 12 -112 49v49h344v-49
q-43 -29 -117 -49l-318 -926q-116 -313 -236 -390q-52 -34 -132 -50q-33 57 -66 170l27 49h209q27 33 43 73t51 148l-424 926q-43 10 -108 49v49z" />
    <glyph glyph-name="uni04F8.var.accented" unicode="&#x4f8;`" horiz-adv-x="1708" 
d="M698 1554l217 291q29 5 85 -17t77 -48v-39l-350 -225zM1042 1614q0 46 26 70t68 24t68 -26t27 -68q0 -42 -27 -68q-26 -24 -68 -24t-68 24t-26 68zM477 1614q0 42 27 68q26 26 68 26t68 -25t26 -69t-26 -69q-26 -23 -68 -23t-68 24t-27 68zM557 766q-98 0 -143 -12v-648
q33 -10 167 -10t226 91t92 255q0 324 -342 324zM61 0v57q80 37 168 49v1221q-86 16 -168 49v58h533v-58q-88 -35 -180 -49v-473q115 14 184 14q506 0 506 -422q0 -154 -81 -259q-149 -193 -452 -193l-254 6h-256zM1647 0h-508v57q59 31 159 49v1221q-94 18 -159 49v58h508
v-58q-72 -35 -164 -49v-1221q84 -12 164 -49v-57z" />
    <glyph glyph-name="uni04F9.var.accented" unicode="&#x4f9;`" horiz-adv-x="1509" 
d="M631 1264l155 350q29 4 83 -13t83 -38v-33l-272 -287zM901 1357q0 41 26 65q27 24 67 24t66 -25t26 -65t-26 -63t-67 -23t-67 24t-25 63zM422 1357q0 41 26 65t66 24q41 0 67 -25q25 -25 25 -65t-26 -63t-66 -23q-41 0 -67 23q-25 24 -25 64zM1427 0h-430v49
q72 35 123 49v828q-76 16 -123 49v49h430v-49q-41 -29 -135 -49v-828q82 -22 135 -49v-49zM528 536q-86 0 -139 -10v-440l111 -8q240 0 239 250q0 108 -62 158q-63 50 -149 50zM82 0v49q51 31 135 49v828q-59 6 -135 49v49h430v-49q-45 -29 -123 -49v-320q121 16 201 17
q160 0 249 -74q89 -75 89 -229t-110 -241t-290 -87l-256 8h-190z" />
    <glyph glyph-name="uniF37E.var.accented" unicode="&#xf37e;`" horiz-adv-x="1155" 
d="M526 1360l205 330q33 4 95 -12t85 -33v-39l-344 -281zM627 1190q-336 0 -336 250q59 45 147 55l49 -27v-182q51 -22 137 -22t146 16v147l49 27q88 -12 139 -55q0 -78 -78 -144q-79 -65 -253 -65zM762 1104h393v-51q-45 -20 -125 -41l-340 -695q-80 -182 -156 -262
t-176 -63q-47 66 -57 180l27 47l184 -47q29 25 55 96l-438 744q-66 16 -129 41v51h473v-51q-63 -25 -139 -41l280 -490l37 -100h2l35 102l219 488q-78 14 -145 41v51z" />
    <glyph glyph-name="uniF3A2.var.accented" unicode="&#xf3a2;`" horiz-adv-x="1134" 
d="M561 1257l242 357q33 4 95 -11t85 -34v-39l-381 -307zM745 1104h390v-51q-74 -33 -129 -41l-330 -545v-375q66 -8 133 -41v-51h-459v51q63 29 144 41v373l-353 547q-57 8 -141 41v51h477v-51q-78 -29 -133 -41l281 -449l264 449q-78 18 -144 41v51z" />
    <glyph glyph-name="uniF3A3.accented" unicode="&#xf3a3;`" horiz-adv-x="1134" 
d="M561 1257l242 357q33 4 95 -11t85 -34v-39l-381 -307zM745 1104h390v-51q-74 -33 -129 -41l-330 -545h250v-88h-250v-287q66 -8 133 -41v-51h-459v51q63 29 144 41v287h-250v88h248l-351 545q-57 8 -141 41v51h477v-51q-78 -29 -133 -41l281 -449l264 449q-78 18 -144 41
v51z" />
    <glyph glyph-name="uniF3B2.var.accented" unicode="&#xf3b2;`" horiz-adv-x="1202" 
d="M500 1360l205 330q33 4 95 -12t85 -33v-39l-344 -281zM600 1190q-336 0 -336 250q59 45 148 55l49 -27v-182q51 -22 137 -22t145 16v147l50 27q88 -12 139 -55q0 -77 -79 -143t-253 -66zM522 776l-133 -321h348l-137 323l-33 137h-4zM393 0h-393v51q63 29 125 41
l438 1030h64l442 -1030q84 -14 133 -41v-51h-461v51q86 31 142 41l-115 275h-412l-114 -275q75 -8 151 -41v-51z" />
    <glyph glyph-name="uniF3B3.var.accented" unicode="&#xf3b3;`" horiz-adv-x="1202" 
d="M489 1305l156 350q29 5 83 -13t83 -38v-33l-272 -287zM760 1398q0 40 26 64t66 25q41 0 67 -25q25 -24 25 -64t-26 -64t-66 -24q-41 0 -67 24q-25 24 -25 64zM281 1398q-1 40 25 64t67 25q41 0 67 -25q26 -24 25 -64q0 -40 -26 -64q-27 -24 -67 -24t-66 24q-25 24 -25 64
zM522 776l-133 -321h348l-137 323l-33 137h-4zM393 0h-393v51q63 29 125 41l438 1030h64l442 -1030q84 -14 133 -41v-51h-461v51q86 31 142 41l-115 275h-412l-114 -275q75 -8 151 -41v-51z" />
    <glyph glyph-name="uniF3B4.var.accented" unicode="&#xf3b4;`" horiz-adv-x="1638" 
d="M778 1257l242 357q33 4 95 -11t85 -34v-39l-381 -307zM784 485v469h-4l-69 -145l-209 -324h282zM967 1016v-408h270l72 119h43q12 -162 0 -330h-43l-72 123h-270v-432h389l86 195h49q29 -166 22 -283h-870v51q76 31 141 41v305h-340l-196 -305q78 -12 145 -41v-51h-393
v51q63 29 125 41l610 928q-33 8 -98 33v51h844q-4 -154 -23 -266h-49l-74 178h-368z" />
    <glyph glyph-name="uniF3B5.var.accented" unicode="&#xf3b5;`" horiz-adv-x="1056" 
d="M412 1360l204 330q34 4 96 -12t85 -33v-39l-344 -281zM512 1190q-336 0 -336 250q59 45 148 55l49 -27v-182q51 -22 137 -22t145 16v147l50 27q88 -12 139 -55q0 -77 -79 -143t-253 -66zM61 1104h838q-4 -147 -20 -266h-50l-73 178h-371v-408h272l70 119h45
q12 -162 0 -330h-45l-70 123h-272v-432h391l86 195h49q27 -156 21 -283h-871v51q76 31 142 41v920q-72 12 -142 41v51z" />
    <glyph glyph-name="uniF3B6.var.accented" unicode="&#xf3b6;`" horiz-adv-x="1282" 
d="M492 1257l241 357q33 4 95 -11t85 -34v-39l-381 -307zM646 70q155 0 239 110t92 322h-668q-4 -45 -4 -70q0 -156 93 -259t248 -103zM641 -18q-248 0 -389 129t-141 378q0 47 6 101h860q-7 215 -113 330t-315 114q-137 0 -182 -22l-93 -234h-49q-33 160 -24 279
q145 66 358 65q301 0 457 -144t156 -422t-142 -426q-141 -148 -389 -148z" />
    <glyph glyph-name="uniF3B7.accented" unicode="&#xf3b7;`" horiz-adv-x="1282" 
d="M487 1305l156 350q29 5 83 -13t83 -38v-33l-272 -287zM758 1398q0 40 26 64t66 25q40 0 66 -25q26 -24 26 -64t-26 -64t-66 -24t-67 24q-25 24 -25 64zM279 1398q-1 40 25 64t67 25q41 0 67 -25q26 -24 25 -64q0 -40 -26 -64q-27 -24 -67 -24t-66 24q-25 24 -25 64z
M646 70q155 0 239 110t92 322h-668q-4 -45 -4 -70q0 -156 93 -259t248 -103zM641 -18q-248 0 -389 129t-141 378q0 47 6 101h860q-7 215 -113 330t-315 114q-137 0 -182 -22l-93 -234h-49q-33 160 -24 279q145 66 358 65q301 0 457 -144t156 -422t-142 -426
q-141 -148 -389 -148z" />
    <glyph glyph-name="uniF3BB.var.accented" unicode="&#xf3bb;`" horiz-adv-x="1327" 
d="M555 1448l242 356q33 4 95 -11t85 -34v-39l-381 -307zM918 1268h-510v102h510v-102zM516 0h-455v51q80 33 142 41v920q-88 18 -142 41v51h455v-51q-70 -31 -131 -41v-656l-18 -120l84 126l499 613v37q-76 16 -141 41v51h457v-51q-51 -23 -144 -41v-920q76 -12 144 -41
v-51h-457v51q68 27 131 41v653l18 121l-77 -121l-506 -618v-35q67 -10 141 -41v-51z" />
    <glyph glyph-name="uniF3BC.var.accented" unicode="&#xf3bc;`" horiz-adv-x="1327" 
d="M541 1305l155 350q29 5 83 -13t83 -38v-33l-272 -287zM811 1398q0 40 26 64q27 24 67 25q40 0 66 -25q26 -24 26 -64t-26 -64t-67 -24t-67 24t-25 64zM332 1398q0 40 26 64t66 25q40 0 66 -25q26 -24 26 -64t-26 -64t-66 -24t-67 24q-25 24 -25 64zM516 0h-455v51
q80 33 142 41v920q-88 18 -142 41v51h455v-51q-70 -31 -131 -41v-656l-18 -120l84 126l499 613v37q-76 16 -141 41v51h457v-51q-51 -23 -144 -41v-920q76 -12 144 -41v-51h-457v51q68 27 131 41v653l18 121l-77 -121l-506 -618v-35q67 -10 141 -41v-51z" />
    <glyph glyph-name="uniF3BD.var.accented" unicode="&#xf3bd;`" horiz-adv-x="1337" 
d="M313 555q-1 -215 95 -350t269 -135t260 135t87 348t-93 347t-273 134t-262 -132q-83 -132 -83 -347zM111 552q0 253 148 412q149 158 409 158t410 -158t149 -412q0 -253 -150 -412q-149 -158 -409 -158t-409 158q-148 159 -148 412zM547 1305l155 350q29 5 83 -13t83 -38
v-33l-272 -287zM817 1398q0 40 26 64q27 24 67 25q40 0 66 -25q26 -24 26 -64t-26 -64t-67 -24t-67 24t-25 64zM338 1398q0 40 26 64t66 25q40 0 67 -25q25 -24 25 -64t-26 -64t-66 -24t-66 24t-26 64z" />
    <glyph glyph-name="uniF3BE.var.accented" unicode="&#xf3be;`" horiz-adv-x="1337" 
d="M584 1257l241 357q33 4 95 -11t86 -34v-39l-381 -307zM657 1034q-167 0 -249 -116t-93 -310h707q-12 193 -104 310q-93 116 -261 116zM677 70q163 0 249 120t96 316h-709q13 -196 107 -316t257 -120zM111 552q0 253 148 412q149 158 409 158t410 -158t149 -412
q0 -253 -150 -412q-149 -158 -409 -158t-409 158q-148 159 -148 412z" />
    <glyph glyph-name="uniF3BF.accented" unicode="&#xf3bf;`" horiz-adv-x="1337" 
d="M549 1305l156 350q29 5 83 -13t82 -38v-33l-272 -287zM819 1398q0 40 26 64q27 24 67 25q40 0 66 -25q26 -24 26 -64t-26 -64t-67 -24t-67 24t-25 64zM340 1398q0 40 26 64t66 25q40 0 67 -25q25 -24 25 -64t-26 -64t-66 -24t-66 24t-26 64zM657 1034q-167 0 -249 -116
t-93 -310h707q-12 193 -104 310q-93 116 -261 116zM677 70q163 0 249 120t96 316h-709q13 -196 107 -316t257 -120zM111 552q0 253 148 412q149 158 409 158t410 -158t149 -412q0 -253 -150 -412q-149 -158 -409 -158t-409 158q-148 159 -148 412z" />
    <glyph glyph-name="uniF3C0.var.accented" unicode="&#xf3c0;`" horiz-adv-x="1153" 
d="M383 1305l156 350q29 5 83 -13t83 -38v-33l-273 -287zM653 1398q0 40 26 64q27 24 67 25q40 0 66 -25q26 -24 26 -64t-26 -64t-67 -24t-67 24t-25 64zM174 1398q0 40 26 64t66 25q40 0 67 -25q25 -24 25 -64t-26 -64t-66 -24t-66 24t-26 64zM430 1034q-104 0 -137 -28
l-90 -199h-49q-25 104 -21 250q94 66 309 65q600 0 600 -567q0 -147 -48 -261t-132 -180q-169 -134 -394 -133q-226 1 -345 56q10 172 27 282h49l92 -233q31 -16 149 -16q166 0 287 123t123 344l-496 -48q-20 66 0 136l496 -2q-10 201 -120 306t-300 105z" />
    <glyph glyph-name="uniF3C1.var.accented" unicode="&#xf3c1;`" horiz-adv-x="1155" 
d="M516 1448l242 356q33 4 95 -11t85 -34v-39l-381 -307zM879 1268h-510v102h510v-102zM762 1104h393v-51q-45 -20 -125 -41l-340 -695q-80 -182 -156 -262t-176 -63q-47 66 -57 180l27 47l184 -47q29 25 55 96l-438 744q-66 16 -129 41v51h473v-51q-63 -25 -139 -41
l280 -490l37 -100h2l35 102l219 488q-78 14 -145 41v51z" />
    <glyph glyph-name="uniF3C2.var.accented" unicode="&#xf3c2;`" horiz-adv-x="1155" 
d="M500 1305l155 350q29 5 83 -13t83 -38v-33l-272 -287zM770 1398q0 40 26 64t66 25q40 0 67 -25q25 -24 25 -64t-26 -64t-66 -24t-66 24t-26 64zM291 1398q-1 40 25 64t67 25q41 0 67 -25q26 -24 26 -64t-26 -64t-67 -24t-67 24q-25 24 -25 64zM762 1104h393v-51
q-45 -20 -125 -41l-340 -695q-80 -182 -156 -262t-176 -63q-47 66 -57 180l27 47l184 -47q29 25 55 96l-438 744q-66 16 -129 41v51h473v-51q-63 -25 -139 -41l280 -490l37 -100h2l35 102l219 488q-78 14 -145 41v51z" />
    <glyph glyph-name="uniF3C3.var.accented" unicode="&#xf3c3;`" horiz-adv-x="1155" 
d="M600 1397l162 360q33 4 95 -11t85 -34v-39l-301 -311zM670 1305l272 309q33 4 90 -13t78 -45v-24l-405 -262zM309 1300l160 314q29 4 91 -11t75 -32v-29l-283 -272zM762 1104h393v-51q-45 -20 -125 -41l-340 -695q-80 -182 -156 -262t-176 -63q-47 66 -57 180l27 47
l184 -47q29 25 55 96l-438 744q-66 16 -129 41v51h473v-51q-63 -25 -139 -41l280 -490l37 -100h2l35 102l219 488q-78 14 -145 41v51z" />
    <glyph glyph-name="uniF3C6.accented" unicode="&#xf3c6;`" horiz-adv-x="1517" 
d="M651 1305l156 350q29 5 83 -13t83 -38v-33l-273 -287zM922 1398q0 40 26 64t66 25q40 0 66 -25q26 -24 26 -64t-26 -64t-66 -24t-67 24q-25 24 -25 64zM442 1398q0 40 26 64t67 25q41 0 67 -25q26 -24 25 -64q0 -40 -26 -64q-27 -24 -67 -24t-66 24t-26 64zM500 582
q-76 0 -115 -9v-483q31 -6 137 -6t176 66q72 66 72 194q0 238 -270 238zM61 0v51q66 29 142 41v920q-72 12 -142 41v51h478v-51q-86 -31 -154 -41v-353q102 10 156 11q432 0 432 -326q0 -172 -134 -260t-327 -88l-219 4h-232zM1456 0h-455v51q53 23 134 41v920
q-74 14 -136 41v51h457v-51q-66 -29 -139 -41v-920q63 -8 139 -41v-51z" />
    <glyph glyph-name="uniF684" unicode="&#xf769;&#xf76a;" horiz-adv-x="1226" 
d="M668 1104h456v-51q-59 -29 -131 -41v-858q0 -342 -282 -406l-21 29q59 45 90 125t31 237v873q-90 18 -143 41v51zM563 0h-461v51q61 29 140 41v920q-72 12 -140 43v49h461v-49q-55 -29 -139 -43v-920q82 -14 139 -41v-51z" />
    <glyph glyph-name="f_f" unicode="ff" horiz-adv-x="1327" 
d="M393 1075v-51h461v90q0 115 25 195q-105 63 -231 63t-190 -80t-65 -217zM1255 1540q119 0 183 -24q-12 -135 -43 -228h-49l-91 174q-127 0 -178 -66t-51 -270v-102h238v-98h-238v-828q109 -12 197 -49v-49h-504v49q63 37 135 49v828h-461v-828q80 -8 176 -49v-49h-483v49
q66 37 135 49v828h-155v49q72 45 155 67v58q0 174 111 266q112 92 300 92t279 -74q92 156 344 156z" />
    <glyph glyph-name="fi" unicode="fi" horiz-adv-x="1216" 
d="M1135 0h-443v49q53 29 135 49v828h-434v-828q106 -12 197 -49v-49h-504v49q66 37 135 49v828h-155v49q72 45 155 67v72q0 246 147 342q129 84 316 84q86 0 187 -19t139 -46q-6 -78 -43 -187h-49l-173 174q-352 0 -352 -336v-102h217q205 0 340 25h49v-951q89 -20 136 -49
v-49z" />
    <glyph glyph-name="fl" unicode="fl" horiz-adv-x="1243" 
d="M641 1462q-127 0 -187 -68t-61 -268v-102h238v-98h-238v-828q106 -12 197 -49v-49h-504v49q66 37 135 49v828h-155v49q72 45 155 67v72q-1 238 105 332t297 94q88 0 182 -37q143 37 151 37h50v-1442q104 -25 155 -49v-49h-463v49q68 33 136 49v1303q-111 61 -193 61z" />
    <glyph glyph-name="f_f_i" unicode="ffi" horiz-adv-x="1847" 
d="M393 1075v-51h459v90q0 109 33 191q-111 67 -237 67t-190 -80t-65 -217zM1765 0h-442v49q53 29 135 49v828h-434v-828q106 -12 197 -49v-49h-504v49q66 37 135 49v828h-459v-828q80 -8 176 -49v-49h-483v49q66 37 135 49v828h-155v49q72 45 155 67v58q0 174 111 266
q112 92 306 92t284 -82q113 164 393 164q86 0 187 -19t138 -46q-6 -80 -43 -187h-49l-172 174q-352 0 -352 -336v-102h217q205 0 340 25h49v-951q88 -20 135 -49v-49z" />
    <glyph glyph-name="f_f_l" unicode="ffl" horiz-adv-x="1873" 
d="M393 1075v-51h459v90q0 115 25 195q-107 63 -231 63t-188 -80t-65 -217zM1272 1462q-127 0 -188 -67q-60 -68 -60 -269v-102h238v-98h-238v-828q106 -12 197 -49v-49h-504v49q66 37 135 49v828h-459v-828q80 -8 176 -49v-49h-483v49q66 37 135 49v828h-155v49
q72 45 155 67v58q0 174 111 266q110 92 300 92t279 -74q92 156 342 156q88 0 183 -37q143 37 151 37h49v-1442q104 -25 156 -49v-49h-463v49q67 33 135 49v1303q-111 61 -192 61z" />
    <glyph glyph-name=".notdef" horiz-adv-x="1452" 
d="M471 106q14 0 12 -14h-26q0 14 14 14zM471 66q-14 0 -14 14h43v14q0 27 -31 27t-31 -35t33 -35q17 0 25 8l-7 11q-4 -4 -18 -4zM410 78q0 -10 -14 -10t-25 6l-6 -19q20 -4 30 -4q33 0 33 29q0 16 -21 24q-22 8 -22 14t10 7q10 0 27 -4l4 16q-20 4 -27 4q-33 0 -32 -26
q0 -14 21 -24q22 -9 22 -13zM207 127h10q18 0 19 -12q0 -14 -21 -15h-8v27zM188 141v-86h19v29h10q37 0 37 29t-39 28h-27zM1325 109q14 0 12 -15h-26q0 15 14 15zM1325 68q-14 0 -14 14h43v14q0 27 -31 27t-31 -35t33 -35q17 0 25 8l-7 11q-4 -4 -18 -4zM1237 96
q0 13 13 13q14 0 14 -21t-19 -20q-4 0 -8 4v24zM1219 121v-90h18v26q4 -4 12 -4q33 0 33 35t-27 35q-12 0 -20 -10h-4l-2 8h-10zM1165 31q12 0 21 30l24 60h-18l-12 -37v-12h-2l-2 12l-15 37h-20l28 -66q-4 -10 -10 -10l-4 2l-4 -14q2 -2 14 -2zM1141 127v14h-74v-14h29v-72
h16v72h29zM1042 68q-10 0 -10 9t12 9l13 -2v-6q-5 -10 -15 -10zM1073 72v26q0 25 -24 25q-11 0 -19 -4t-10 -4l2 -11q20 4 27 4t8 -10v-4l-13 2q-31 0 -30 -24q0 -18 20 -19q16 0 23 13h2l2 -11h14q-2 2 -2 17zM1000 123q-8 0 -13 -12h-2l-2 10h-14v-66h18v41q0 10 14 10
l7 -2l4 17q-4 2 -12 2zM922 68q-10 0 -11 10q0 8 13 8h6l4 -2v-6q-2 -10 -12 -10zM934 98v-4h-4q-2 2 -6 2q-31 0 -31 -24q0 -18 20 -19q14 0 21 13l6 -11h14q-2 2 -2 17v26q0 25 -24 25q-6 0 -31 -8l4 -11q16 4 23 5q10 0 10 -11zM842 127h10q18 0 18 -13t-20 -14h-8v27z
M823 141v-86h19v29h10q37 0 37 29t-39 28h-27zM728 80q-7 0 -7 10t10 10h6l6 11q-8 4 -18 4q-20 0 -20 -25t20 -24q10 0 18 4l-4 12q-4 -2 -11 -2zM692 91q0 36 34 36t34 -36t-34 -36t-34 36zM678 92q0 -51 48 -51t48 49t-49 49q-20 0 -34 -13q-13 -14 -13 -34zM637 141h-19
q-10 0 -10 -8q-2 -4 -2 -10v-4h-10v-15h10v-51h17v51h16v15h-16q0 8 8 8h12l2 12q0 2 -8 2zM565 119v-66h19v66h-19zM574 141q-10 0 -9 -9q0 -9 9 -9t10 8q0 10 -10 10zM544 121q-5 0 -16 -10v8h-14v-66h16v41q6 10 12 10t11 -2l2 17q-6 2 -11 2zM332 125v14h-72v-14h27v-72
h18v72h27zM1270 1229l-103 102l-399 -444l-399 444l-103 -102l404 -451l-404 -450l103 -103l399 445l399 -445l103 103l-406 450zM102 0v1434h1332v-1434h-1332z" />
    <glyph glyph-name=".null" horiz-adv-x="0" 
 />
    <glyph glyph-name="nonmarkingreturn" horiz-adv-x="681" 
 />
    <glyph glyph-name="space" unicode=" " horiz-adv-x="491" 
 />
    <glyph glyph-name="exclam" unicode="!" horiz-adv-x="665" 
d="M246 115q0 59 38 95t98 36t98 -36t38 -95t-38 -95t-98 -36t-98 36t-38 95zM406 446h-50l-61 357v610q86 45 172 0v-610z" />
    <glyph glyph-name="quotedbl" unicode="&#x22;" horiz-adv-x="770" 
d="M248 1036l-64 336q23 62 83 62t81 -62l-63 -336h-37zM485 1036l-63 336q23 62 83 62t81 -62l-64 -336h-37z" />
    <glyph glyph-name="numbersign" unicode="#" 
d="M428 883l-74 -312h295l74 312h-295zM543 119l86 362h-295l-86 -362h-105l86 362h-163l28 90h156l74 312h-156l29 90h149l82 342h102l-79 -342h294l82 342h103l-82 -342h164l-35 -90h-152l-73 -312h157l-35 -90h-143l-86 -362h-102z" />
    <glyph glyph-name="dollar" unicode="$" 
d="M285 1121q0 -95 52 -159t150 -116v508q-92 -10 -147 -74t-55 -159zM805 347q0 99 -56 163t-159 113v-533q98 26 156 92t59 165zM487 -143v118q-117 0 -217 32t-147 73q8 188 29 237h49l125 -198q63 -41 161 -41v592q-10 0 -10 4l-67 31q-143 66 -224 150q-80 85 -80 235
t108 251q108 102 273 115v100h103v-100q168 -10 295 -72q-4 -84 -49 -178h-50l-102 137q-51 10 -94 11v-555l57 -25q166 -84 223 -135q113 -104 113 -267q0 -164 -105 -266t-288 -124v-125h-103z" />
    <glyph glyph-name="percent" unicode="%" horiz-adv-x="1642" 
d="M184 49l1196 1403l68 -59l-1198 -1405zM991 324q0 -125 49 -200t140 -75q188 1 188 275t-188 274t-189 -274zM827 317q-1 163 99 259t257 96t253 -89t96 -254t-98 -259t-256 -94t-254 88q-96 90 -97 253zM274 1110q0 -125 50 -200t139 -74q188 0 188 274q-1 274 -189 274
t-188 -274zM111 1103q0 163 99 259t256 96t253 -89t96 -254t-98 -259t-256 -94t-254 89t-96 252z" />
    <glyph glyph-name="ampersand" unicode="&#x26;" horiz-adv-x="1773" 
d="M715 -25q-205 0 -337 118t-132 293t128 310q62 66 98 96t95 72q-61 68 -102 158t-41 164q0 112 84 192t222 80t219 -59t81 -174t-71 -208t-189 -186q145 -180 432 -438q45 63 95 221t40 312q-63 12 -123 49v49h410v-49q-55 -33 -135 -49q-59 -369 -209 -600
q195 -158 322 -228l114 -49v-49h-284q-168 109 -256 193q-62 -88 -184 -153t-277 -65zM567 1198q0 -72 49 -161t113 -158q174 147 158 340q-4 73 -43 115t-120 42t-119 -53t-38 -125zM442 442q0 -158 98 -261t246 -103q195 0 322 176q-117 104 -271 278q-155 174 -223 275
q-92 -88 -132 -172t-40 -193z" />
    <glyph glyph-name="quotesingle" unicode="'" horiz-adv-x="450" 
d="M248 1036l-64 336q23 62 83 62t81 -62l-63 -336h-37z" />
    <glyph glyph-name="parenleft" unicode="(" horiz-adv-x="696" 
d="M123 500q0 318 143 549q72 115 153 203t195 186l41 -33q-182 -195 -275 -403t-93 -504q-1 -531 368 -891l-47 -37q-231 170 -358 391t-127 539z" />
    <glyph glyph-name="parenright" unicode=")" horiz-adv-x="696" 
d="M573 518q0 -590 -485 -948l-47 37q166 162 267 393q102 231 102 522t-92 488q-91 197 -277 395l41 33q236 -182 364 -396t127 -524z" />
    <glyph glyph-name="asterisk" unicode="*" horiz-adv-x="952" 
d="M482 1536q54 0 77 -25l-41 -266q-30 -20 -63 0l-43 266q16 25 70 25zM555 1217l207 178q32 -3 58 -51t16 -80l-252 -101q-29 21 -29 54zM584 1133l250 -91q14 -30 -14 -76t-60 -55l-205 170q0 34 29 52zM490 772q-56 0 -76 23l43 264q32 16 65 0l39 -264q-15 -23 -71 -23
zM422 1083l-211 -170q-31 1 -59 49t-17 80l254 93q33 -19 33 -52zM391 1167l-254 99q-12 30 16 76t60 55l209 -176q0 -40 -31 -54z" />
    <glyph glyph-name="plus" unicode="+" 
d="M82 653v103h410v432h102v-432h410v-103h-410v-444h-102v444h-410z" />
    <glyph glyph-name="comma" unicode="," horiz-adv-x="575" 
d="M438 20q0 -108 -82 -228t-213 -161l-39 60q82 33 137 114q54 82 46 170q-51 45 -135 76q-16 72 24 135q41 63 88 66q76 -10 125 -66q49 -58 49 -166z" />
    <glyph glyph-name="hyphen" unicode="-" horiz-adv-x="872" 
d="M147 516v123h578v-123h-578z" />
    <glyph glyph-name="period" unicode="." horiz-adv-x="567" 
d="M147 115q0 59 38 95q39 36 99 36t98 -36t38 -95t-38 -95t-98 -36t-99 35q-38 37 -38 96z" />
    <glyph glyph-name="slash" unicode="/" horiz-adv-x="704" 
d="M-74 -227l746 1685l82 -37l-748 -1687z" />
    <glyph glyph-name="zero" unicode="0" 
d="M258 717q0 -659 270 -660q164 0 233 158t68 502q0 209 -23 348q-24 139 -89 225q-66 86 -174 86q-153 0 -219 -158t-66 -501zM74 717q0 367 120 554t356 187t350 -183t114 -558q0 -741 -484 -742q-242 -1 -349 187t-107 555z" />
    <glyph glyph-name="one" unicode="1" 
d="M860 0h-586v57q113 47 209 70v1012l9 121q-102 -43 -246 -39l-10 45q233 78 370 192h49v-1331q94 -23 205 -70v-57z" />
    <glyph glyph-name="two" unicode="2" 
d="M502 1458q208 0 306 -100t99 -252q0 -352 -524 -870l-84 -80v-9l115 13h352l100 229h49q20 -238 21 -389h-836v59q623 643 623 1002q1 125 -63 210t-175 85q-71 0 -149 -25l-66 -291h-49q-37 98 -82 287q155 131 363 131z" />
    <glyph glyph-name="three" unicode="3" 
d="M524 68q113 0 195 97t82 234t-86 218t-221 81h-134v52l349 469l69 71v8l-110 -12h-351l-79 -209h-50q-41 229 -41 357h791v-60l-342 -459l-88 -90v-4l70 15q188 -8 298 -123t110 -301t-145 -312q-144 -125 -345 -125q-96 0 -205 29t-166 74l55 182h39q10 -12 75 -80
t89 -96q71 -16 141 -16z" />
    <glyph glyph-name="four" unicode="4" 
d="M637 502v536l22 148h-6l-80 -148l-350 -483l-82 -68l146 15h350zM969 0h-520v57q100 35 188 49v293h-627v41l754 1018h49v-956h262v-103h-262v-293q80 -16 156 -49v-57z" />
    <glyph glyph-name="five" unicode="5" 
d="M467 874q205 0 331 -112t126 -322t-140 -338t-331 -127q-81 0 -179 29t-155 74l55 182h39q17 -20 71 -88t72 -88q72 -16 95 -16q135 0 222 100t87 253t-112 233t-281 75l-142 -2l82 707h484l86 112h49q-8 -168 -41 -266h-498l-49 -406h129z" />
    <glyph glyph-name="six" unicode="6" 
d="M836 419q0 144 -75 237q-75 94 -185 94t-181 -48q-72 -48 -104 -114q-4 -37 -4 -127q-1 -90 31 -177t102 -152t162 -64q126 0 190 104t64 247zM612 852q182 0 295 -112t113 -307q0 -193 -124 -325t-335 -132t-335 148t-124 391t109 451t277 334t364 170l20 -57
q-225 -82 -387 -271t-186 -437q35 59 122 103t191 44z" />
    <glyph glyph-name="seven" unicode="7" 
d="M135 1434h836v-56q-189 -344 -273 -619t-163 -759h-195q147 586 446 1198l60 98l-107 -10h-434l-80 -209h-49q-41 229 -41 357z" />
    <glyph glyph-name="eight" unicode="8" 
d="M766 1098q0 128 -56 198t-160 70t-164 -73q-62 -73 -62 -151t22 -128q45 -103 258 -211q162 127 162 295zM815 330q0 114 -89 201t-245 161q-113 -62 -163 -160t-50 -200t70 -184q70 -80 203 -80t203 74t71 188zM104 318q0 141 90 246t238 157q-274 143 -274 379
q0 160 108 259q109 99 286 99t277 -90t101 -235q0 -223 -279 -355q332 -174 332 -430q0 -160 -120 -266t-330 -106q-209 0 -319 100q-110 101 -110 242z" />
    <glyph glyph-name="nine" unicode="9" 
d="M283 999q1 -125 77 -220t195 -95q195 0 266 123q4 35 4 127q0 170 -71 301q-72 131 -204 131t-200 -98q-67 -99 -67 -269zM98 1003q0 201 120 328t342 127t334 -146t112 -409q0 -373 -201 -632t-500 -296l-37 58q233 61 370 240q136 179 171 425q-113 -116 -296 -116
t-299 110t-116 311z" />
    <glyph glyph-name="colon" unicode=":" horiz-adv-x="665" 
d="M246 115q0 59 38 95t98 36t98 -36t38 -95t-38 -95t-98 -36t-98 36t-38 95zM246 909q0 59 38 95t98 36t98 -36t38 -94q0 -60 -38 -96t-98 -36t-98 36t-38 95z" />
    <glyph glyph-name="semicolon" unicode=";" horiz-adv-x="675" 
d="M256 909q0 59 38 95t98 36t98 -36t38 -94q0 -60 -38 -96t-98 -36t-98 36t-38 95zM547 20q0 -108 -82 -228t-213 -161l-39 60q82 33 136 115t46 169q-51 45 -135 76q-16 72 25 135t88 66q76 -10 125 -66q49 -58 49 -166z" />
    <glyph glyph-name="less" unicode="&#x3c;" 
d="M872 211l-786 453v63l788 481l48 -86l-521 -313l-176 -84l174 -63l551 -324z" />
    <glyph glyph-name="equal" unicode="=" 
d="M82 489v103h922v-103h-922zM82 817v103h922v-103h-922z" />
    <glyph glyph-name="greater" unicode="&#x3e;" 
d="M213 1208l786 -452v-64l-788 -481l-47 86l520 313l176 84l-174 64l-551 323z" />
    <glyph glyph-name="question" unicode="?" horiz-adv-x="966" 
d="M293 115q0 59 38 95t98 36t98 -36t38 -95t-38 -95t-98 -36t-98 36t-38 95zM526 1458q176 0 272 -92t95 -242q0 -102 -47 -186t-115 -143l-133 -119q-162 -141 -162 -311h-37q-25 125 -5 201t73 146q51 72 105 120q137 123 137 282q-1 90 -61 166t-181 76t-164 -39
l-45 -250h-49q-49 176 -62 307q135 84 379 84z" />
    <glyph glyph-name="at" unicode="@" horiz-adv-x="2179" 
d="M797 356q0 -116 34 -171q35 -54 114 -54t175 132t170 310l51 301q-67 44 -163 44t-188 -92t-142 -224q-51 -130 -51 -246zM1473 111q151 1 283 159t132 398q0 307 -219 497t-543 191q-368 0 -592 -247t-224 -608t222 -564q223 -203 586 -203q145 0 273 57l32 -86
q-133 -74 -361 -74q-228 1 -422 93q-196 92 -320 290t-123 469q0 435 270 705q271 270 659 270t632 -214t243 -576q0 -262 -169 -461t-394 -199q-129 0 -171 85t3 286h-8q-51 -143 -162 -257q-110 -114 -226 -114t-183 84t-66 227q0 265 165 483t377 218q103 0 207 -47
q66 33 144 33l-105 -588q-29 -135 -17 -221t77 -86z" />
    <glyph glyph-name="A" unicode="A" horiz-adv-x="1388" 
d="M610 1024l-159 -436h417l-163 440l-39 176h-4zM449 0h-449v57q74 33 147 49l519 1352h49l518 -1352q104 -20 156 -49v-57h-512v57q98 37 167 49l-141 379h-493l-138 -379q87 -12 177 -49v-57z" />
    <glyph glyph-name="B" unicode="B" horiz-adv-x="1251" 
d="M401 780h107q94 0 166 11q98 33 159 107q60 75 60 171q0 133 -82 204t-213 71t-197 -11v-553zM610 90q144 0 245 87t101 220q0 281 -395 281h-160v-569q65 -19 209 -19zM61 0v57q82 39 168 49v1221q-86 16 -168 49v58h205l340 12q471 0 471 -340q1 -113 -69 -209
t-201 -129v-8q141 -25 237 -111t96 -234q0 -149 -84 -247q-156 -181 -472 -180l-330 12h-193z" />
    <glyph glyph-name="C" unicode="C" horiz-adv-x="1316" 
d="M840 -25q-352 1 -540 183t-189 559q0 552 423 699q120 42 261 42q242 0 385 -69q4 -166 -29 -349h-49l-107 295q-39 20 -182 21q-221 0 -367 -165t-147 -466q0 -301 147 -474t406 -173q139 0 174 39l96 250h49q27 -137 21 -308q-109 -84 -352 -84z" />
    <glyph glyph-name="D" unicode="D" horiz-adv-x="1443" 
d="M575 1348q-128 0 -174 -11v-1245q53 -8 217 -8t287 94t173 236t50 320q0 179 -74 331q-138 283 -479 283zM61 0v57q72 33 168 49v1221q-100 23 -168 49v58h205l348 16q344 0 532 -187t187 -527t-193 -548q-192 -207 -569 -206l-317 18h-193z" />
    <glyph glyph-name="E" unicode="E" horiz-adv-x="1185" 
d="M61 1434h959q-4 -199 -21 -328h-49l-84 225h-452v-549h342l80 152h49q12 -203 0 -410h-49l-80 156h-342v-578h479l98 246h49q29 -199 21 -348h-1000v57q72 33 168 49v1221q-86 16 -168 49v58z" />
    <glyph glyph-name="F" unicode="F" horiz-adv-x="1107" 
d="M393 639v-533q90 -12 176 -49v-57h-508v57q84 37 148 49v1221q-90 20 -148 49v58h949q-4 -199 -21 -328h-49l-84 225h-463v-590h373l72 131h49q14 -180 0 -368h-49l-72 135h-373z" />
    <glyph glyph-name="G" unicode="G" horiz-adv-x="1404" 
d="M819 -25q-336 -1 -522 183t-186 559q0 195 57 341q56 146 156 231q198 169 456 169q257 0 400 -69q4 -176 -29 -349h-49l-107 295q-39 20 -182 21q-221 0 -367 -165t-147 -463q0 -298 152 -474t380 -176q74 0 146 26t92 48v417q-78 6 -197 49v58h496v-58
q-51 -35 -127 -49v-469q-86 -49 -206 -87t-216 -38z" />
    <glyph glyph-name="H" unicode="H" horiz-adv-x="1482" 
d="M569 0h-508v57q82 33 168 49v1221q-100 16 -168 49v58h508v-58q-74 -37 -155 -49v-541h655v541q-72 12 -156 49v58h508v-58q-55 -29 -168 -49v-1221q98 -16 168 -49v-57h-508v57q72 33 156 49v578h-655v-578q83 -16 155 -49v-57z" />
    <glyph glyph-name="I" unicode="I" horiz-adv-x="716" 
d="M614 0h-512v57q80 37 164 49v1221q-80 14 -164 49v58h512v-58q-66 -31 -163 -49v-1221q85 -16 163 -49v-57z" />
    <glyph glyph-name="J" unicode="J" horiz-adv-x="692" 
d="M82 1434h508v-58q-72 -33 -156 -49v-1159q0 -422 -303 -496l-20 29q71 59 105 155t34 289v1182q-111 22 -168 49v58z" />
    <glyph glyph-name="K" unicode="K" horiz-adv-x="1308" 
d="M778 1434h443v-58q-78 -37 -156 -49l-414 -551q377 -481 559 -678l99 -49v-49h-246l-68 49q-219 250 -479 639h-102v-582q92 -16 155 -49v-57h-508v57q82 33 168 49v1221q-98 12 -168 49v58h508v-58q-63 -27 -155 -49v-573l123 28l389 545q-66 12 -148 49v58z" />
    <glyph glyph-name="L" unicode="L" horiz-adv-x="1116" 
d="M61 1434h549v-58q-98 -37 -196 -49v-1225h479l119 328h49q31 -219 20 -430h-1020v57q70 33 168 49v1221q-98 16 -168 49v58z" />
    <glyph glyph-name="M" unicode="M" horiz-adv-x="1761" 
d="M1698 0h-496v57q66 27 166 49v928l8 240h-16l-68 -219l-424 -1055h-49l-399 1057l-74 239h-18l2 -260v-932q72 -14 153 -47v-57h-420v57q80 33 166 49v1221q-90 16 -168 49v58h404l362 -949l70 -211h2l72 215l372 945h357v-58q-72 -33 -156 -49v-1223q93 -16 154 -47v-57
z" />
    <glyph glyph-name="N" unicode="N" horiz-adv-x="1492" 
d="M997 1434h435v-58q-82 -53 -168 -80v-1321h-109l-747 1139l-80 160h-6l18 -160v-985q90 -27 156 -72v-57h-435v57q66 41 168 72v1180q-88 33 -155 69v56h336l651 -988l94 -176h8l-10 176v850q-82 35 -156 80v58z" />
    <glyph glyph-name="O" unicode="O" horiz-adv-x="1511" 
d="M743 1356q-219 0 -323 -178t-105 -458q0 -280 119 -460q119 -182 332 -182q214 0 322 180t108 459t-117 459t-336 180zM111 717q0 329 173 535t472 206t472 -207t173 -535t-173 -534q-173 -207 -472 -207t-472 207t-173 535z" />
    <glyph glyph-name="P" unicode="P" horiz-adv-x="1210" 
d="M557 1348q-98 0 -143 -13v-667q33 -10 170 -10t238 87q102 87 102 259t-96 258t-271 86zM1128 1019q0 -236 -162 -350t-395 -114q-118 0 -157 8v-457q111 -16 196 -49v-57h-549v57q61 29 168 49v1221q-78 12 -168 49v58h177l360 16q211 0 370 -97q160 -98 160 -334z" />
    <glyph glyph-name="Q" unicode="Q" horiz-adv-x="1511" 
d="M743 1356q-219 0 -323 -178t-105 -458q0 -280 119 -460q119 -182 332 -182q214 0 322 180t108 459t-117 459t-336 180zM111 717q0 329 173 535t472 206t472 -207t173 -535t-173 -534q-173 -207 -472 -207t-472 207t-173 535zM1544 -211l10 -25q-199 -176 -352 -174
q-94 0 -223 48t-305 120t-322 111l64 37q122 14 276 -19t273 -75t281 -56q162 -16 298 33z" />
    <glyph glyph-name="R" unicode="R" horiz-adv-x="1290" 
d="M557 1348q-98 0 -143 -13v-616h149q145 0 231 91q85 92 85 240t-87 223q-88 75 -235 75zM1067 1049q0 -145 -79 -245t-216 -145q150 -240 387 -550l111 -60v-49h-236l-78 57q-199 248 -346 580h-196v-531q109 -23 176 -49v-57h-529v57q66 29 168 49v1221q-102 20 -168 49
v58h177l360 16q213 0 341 -99t128 -302z" />
    <glyph glyph-name="S" unicode="S" horiz-adv-x="1093" 
d="M495 78q129 0 220 72q90 72 90 194q0 90 -70 158t-169 114t-199 102q-100 54 -170 149t-70 227q0 166 115 265t305 99q254 0 389 -67q-8 -160 -49 -349h-49l-82 281q-74 33 -198 33t-188 -62t-64 -148q0 -88 37 -142q61 -87 239 -176q178 -88 252 -147q149 -122 149 -304
t-131 -292t-358 -110q-122 0 -222 29t-149 68q8 186 49 368h49l84 -301q61 -61 190 -61z" />
    <glyph glyph-name="T" unicode="T" horiz-adv-x="1257" 
d="M909 0h-561v57q109 37 189 49v1225h-322l-104 -287h-50q-14 117 -20 390h1176q-6 -272 -21 -390h-49l-105 287h-321v-1225q125 -22 188 -49v-57z" />
    <glyph glyph-name="U" unicode="U" horiz-adv-x="1366" 
d="M20 1434h508v-58q-59 -27 -155 -49v-844q0 -209 90 -297t268 -88q344 0 344 385v824q-82 27 -160 69v58h431v-58q-82 -49 -160 -69v-828q0 -252 -126 -375q-126 -122 -366 -122t-372 116q-133 116 -134 348v881q-86 12 -168 49v58z" />
    <glyph glyph-name="V" unicode="V" horiz-adv-x="1388" 
d="M936 1434h453v-58q-53 -29 -148 -49l-461 -1327l-102 -25l-522 1352q-88 23 -156 49v58h528v-58q-70 -27 -168 -49l357 -952l43 -160h4l41 164l307 948q-92 20 -176 49v58z" />
    <glyph glyph-name="W" unicode="W" horiz-adv-x="1890" 
d="M1438 1434h452v-58q-74 -33 -147 -49l-340 -1327l-117 -25l-332 1129l-325 -1104l-115 -25l-358 1352q-68 12 -156 49v58h518v-58q-96 -35 -168 -49l205 -838l45 -266h4l72 271l276 940h64l299 -942l57 -267h4l47 271l191 831q-82 12 -176 49v58z" />
    <glyph glyph-name="X" unicode="X" horiz-adv-x="1359" 
d="M801 1434h467v-58q-68 -27 -156 -49l-360 -559l419 -662q98 -16 168 -49v-57h-530v57q74 37 156 49l-328 521l-315 -523q111 -16 165 -47v-57h-467v57q55 29 154 49l399 615l-385 606q-74 18 -163 49v58h530v-58q-74 -29 -158 -49l291 -469l283 469q-92 20 -170 49v58z
" />
    <glyph glyph-name="Y" unicode="Y" horiz-adv-x="1306" 
d="M862 1434h445v-58q-76 -37 -156 -49l-387 -717v-504q80 -10 156 -49v-57h-508v57q74 37 168 49v502l-414 719q-74 12 -166 49v58h528v-58q-66 -27 -157 -49l340 -608l319 608q-98 22 -168 49v58z" />
    <glyph glyph-name="Z" unicode="Z" horiz-adv-x="1243" 
d="M82 0v102l856 1229h-643l-125 -287h-49q-25 188 -21 390h1041v-103l-854 -1229h680l125 287h49q27 -211 20 -389h-1079z" />
    <glyph glyph-name="bracketleft" unicode="[" horiz-adv-x="624" 
d="M172 -471v1905h377v-82h-213v-1741h213v-82h-377z" />
    <glyph glyph-name="backslash" unicode="\" horiz-adv-x="782" 
d="M-12 1458l848 -1677l-80 -47l-850 1679z" />
    <glyph glyph-name="bracketright" unicode="]" horiz-adv-x="624" 
d="M453 1434v-1905h-377v82h213v1741h-213v82h377z" />
    <glyph glyph-name="asciicircum" unicode="^" horiz-adv-x="1024" 
d="M96 889l381 567h64l348 -567h-174l-183 313l-49 139l-67 -141l-207 -311h-113z" />
    <glyph glyph-name="underscore" unicode="_" horiz-adv-x="839" 
d="M0 -401v102h840v-102h-840z" />
    <glyph glyph-name="grave" unicode="`" horiz-adv-x="577" 
d="M356 1573l222 -356l-41 -35l-381 307v39q23 18 94 34t106 11z" />
    <glyph glyph-name="a" unicode="a" horiz-adv-x="1021" 
d="M266 297q0 -99 46 -149t131 -50t141 60t78 123v215q-232 2 -314 -48t-82 -151zM360 -25q-122 0 -200 76t-78 208t90 202t285 94q82 10 205 16q18 187 -21 289t-156 103q-84 0 -137 -21l-96 -246h-49q-43 133 -51 254q164 98 368 98t265 -109q49 -85 51 -216l-11 -457
l6 -147l142 -21v-41q-106 -55 -223 -77h-50q-27 63 -30 229h-11q-16 -92 -96 -163t-203 -71z" />
    <glyph glyph-name="b" unicode="b" horiz-adv-x="1105" 
d="M588 926q-188 0 -256 -240v-573q80 -45 213 -45t212 120t79 320q0 418 -248 418zM332 1540v-719h4q35 103 118 165t181 63q385 0 385 -521q0 -266 -135 -406t-387 -140q-96 0 -192 23t-146 54v1342l-156 16v49q76 31 279 74h49z" />
    <glyph glyph-name="c" unicode="c" horiz-adv-x="950" 
d="M86 515q0 253 125 393t331 140t322 -61q-16 -184 -63 -289h-49l-86 244q-31 20 -97 21q-151 0 -225 -108t-74 -343q0 -166 94 -290t263 -124q127 0 215 70l26 -27q-41 -73 -123 -119t-186 -47q-231 -1 -352 143t-121 397z" />
    <glyph glyph-name="d" unicode="d" horiz-adv-x="1126" 
d="M522 98q197 0 248 240v582q-68 36 -206 36t-216 -122t-78 -314t64 -307t188 -115zM489 -25q-403 0 -403 533q0 256 125 395t344 139q125 0 215 -32v391l-156 16v49q102 43 279 74h49v-1425l135 -17v-41q-137 -66 -237 -77h-49l-19 223h-8q-24 -94 -98 -161t-177 -67z" />
    <glyph glyph-name="e" unicode="e" horiz-adv-x="1021" 
d="M532 963q-118 0 -180 -84t-76 -279h463q15 166 -37 264t-170 99zM86 516q0 254 120 393t337 140q176 0 293 -116t73 -419h-639q2 -186 90 -301t261 -115q73 0 147 22t109 52l28 -31q-33 -69 -130 -117t-202 -49q-235 -1 -361 143t-126 398z" />
    <glyph glyph-name="f" unicode="f" horiz-adv-x="694" 
d="M623 1540q119 0 182 -24q-12 -135 -43 -228h-49l-90 174q-127 0 -179 -65q-51 -66 -51 -271v-102h238v-98h-238v-828q106 -12 197 -49v-49h-504v49q66 37 135 49v828h-155v49q72 45 155 67v72q0 238 106 332t296 94z" />
    <glyph glyph-name="g" unicode="g" horiz-adv-x="1069" 
d="M274 719q0 -244 228 -244q115 0 171 68t56 176q1 244 -227 244t-228 -244zM811 -166q0 100 -109 149q-68 31 -184 58q-115 28 -151 41q-129 -78 -129 -211q0 -219 309 -219q264 0 264 182zM512 1049q200 0 299 -86q121 78 256 114q25 -43 25 -112l-27 -50h-215
q51 -76 51 -211t-105 -225t-294 -90q-78 0 -119 8q-3 -8 -21 -37t-18 -55q0 -45 65 -74t157 -51t188 -50q94 -28 160 -92t69 -161q2 -143 -129 -227t-343 -84t-329 74q-116 74 -116 186t61 172t195 102q-96 45 -97 142q0 43 35 89t78 77q-113 30 -174 116t-62 195
q0 145 105 237t305 93z" />
    <glyph glyph-name="h" unicode="h" horiz-adv-x="1189" 
d="M1153 0h-430v49q49 29 123 49v486q0 168 -48 255t-156 87t-182 -67q-73 -67 -104 -161v-600q82 -20 123 -49v-49h-430v49q66 33 135 49v1303l-155 16v49q104 43 278 74h49v-723h2q47 102 128 167t190 65q176 -1 259 -95t83 -336v-520q90 -18 135 -49v-49z" />
    <glyph glyph-name="i" unicode="i" horiz-adv-x="610" 
d="M182 1374q0 53 35 85t91 32t90 -32t34 -85t-34 -85t-90 -32t-91 32t-35 85zM528 0h-442v49q53 29 135 49v811l-135 17v49q119 49 258 74h49v-951q88 -20 135 -49v-49z" />
    <glyph glyph-name="j" unicode="j" horiz-adv-x="581" 
d="M178 1374q0 53 35 85t91 32t90 -32t34 -85t-34 -85t-90 -32t-91 32t-35 85zM217 49v860l-135 17v49q109 49 258 74h49v-961q0 -136 -33 -240t-86 -160q-92 -97 -176 -122l-22 37q57 29 101 140t44 306z" />
    <glyph glyph-name="k" unicode="k" horiz-adv-x="1040" 
d="M608 1024h387v-49q-78 -35 -157 -49q-176 -223 -297 -344q197 -268 385 -484l114 -49v-49h-243l-56 49q-145 182 -317 440l-68 21v-412q70 -12 136 -49v-49h-443v49q68 33 135 49v1303l-155 16v49q70 33 278 74h49v-981h54q164 176 301 367q-50 14 -103 49v49z" />
    <glyph glyph-name="l" unicode="l" horiz-adv-x="610" 
d="M528 0h-442v49q68 33 135 49v1303l-155 16v49q94 43 278 74h49v-1442q67 -16 135 -49v-49z" />
    <glyph glyph-name="m" unicode="m" horiz-adv-x="1753" 
d="M1112 0h-430v49q39 25 123 49v480q0 180 -39 264t-152 84q-86 0 -150 -66t-91 -158v-604q76 -20 123 -49v-49h-430v49q53 25 135 49v811l-135 17v49q117 51 258 74h49v-232h2q35 100 114 166q80 66 191 66q246 0 283 -252q39 117 121 185t200 67q158 1 228 -93t69 -342
v-516q70 -12 135 -49v-49h-430v49q61 33 123 49v516q0 160 -40 236t-155 76q-180 0 -237 -244v-584q69 -18 135 -49v-49z" />
    <glyph glyph-name="n" unicode="n" horiz-adv-x="1206" 
d="M1169 0h-430v49q51 29 123 49v486q0 168 -48 255t-156 87t-182 -67q-73 -67 -103 -161v-600q66 -12 123 -49v-49h-430v49q53 29 135 49v811l-135 17v49q104 45 258 74h49v-232h2q47 102 128 167t189 65q176 -1 259 -95t83 -336v-520q82 -14 135 -49v-49z" />
    <glyph glyph-name="o" unicode="o" horiz-adv-x="1122" 
d="M270 523q0 -212 80 -337t246 -125q116 0 186 115t70 326t-76 336t-231 125q-127 0 -201 -114t-74 -326zM86 514q0 252 128 393t358 141t348 -140q116 -142 116 -396t-128 -395t-356 -141t-346 142q-120 144 -120 396z" />
    <glyph glyph-name="p" unicode="p" horiz-adv-x="1148" 
d="M621 926q-195 0 -248 -242v-575q70 -47 207 -47t218 132q81 134 81 341q0 391 -258 391zM508 -410h-442v50q70 33 135 49v1220l-135 17v49q117 51 258 74h49v-230h2q92 229 307 230q381 0 381 -514q0 -258 -129 -409t-346 -151q-119 0 -215 41v-327q67 -10 135 -49v-50z
" />
    <glyph glyph-name="q" unicode="q" horiz-adv-x="1112" 
d="M524 98q193 0 248 238v592q-102 29 -209 28q-141 0 -217 -112t-76 -316q0 -430 254 -430zM772 182h-8q-33 -88 -106 -147t-177 -60q-395 0 -395 533q0 262 130 398t376 136q100 0 200 -19t152 -44v-1290q68 -12 135 -49v-50h-442v50q63 33 135 49v493z" />
    <glyph glyph-name="r" unicode="r" horiz-adv-x="776" 
d="M760 881h-271q-76 -49 -116 -166v-617q88 -10 164 -49v-49h-471v49q55 31 135 49v811l-135 17v49q119 49 258 74h49v-211h8q43 90 136 156t198 55q27 -49 45 -119v-49z" />
    <glyph glyph-name="s" unicode="s" horiz-adv-x="882" 
d="M404 61q88 0 146 50q58 49 58 117t-50 118t-122 89q-72 38 -144 82t-123 115q-50 72 -50 172t91 172t220 73q184 0 311 -45q-20 -164 -49 -267h-49l-76 209q-43 16 -117 16t-116 -46t-43 -106q0 -105 172 -198l143 -80q74 -44 124 -108t50 -148q0 -135 -108 -218
t-262 -83t-312 58q8 145 49 274h50l90 -223q29 -23 117 -23z" />
    <glyph glyph-name="t" unicode="t" horiz-adv-x="753" 
d="M33 926v49q78 49 164 69v177q37 33 122 73h50v-270h311v-98h-311v-602q0 -121 38 -173t119 -53q121 0 189 25l14 -27q-39 -43 -120 -82t-163 -39q-250 0 -249 295v656h-164z" />
    <glyph glyph-name="u" unicode="u" horiz-adv-x="1165" 
d="M547 98q180 0 258 244v567l-133 17v49q127 49 256 74h49v-934l135 -17v-41q-143 -63 -235 -77h-50l-14 243h-8q-21 -92 -107 -170t-200 -78q-174 1 -256 95t-82 336l12 503l-135 17v49q129 49 258 74h49l-12 -609q0 -172 46 -257t169 -85z" />
    <glyph glyph-name="v" unicode="v" horiz-adv-x="1032" 
d="M-20 1024h415v-47q-66 -35 -116 -51l243 -627l41 -127h4l31 129l223 625q-55 12 -112 49v49h344v-49q-37 -27 -117 -49l-365 -926l-84 -25l-399 951q-59 20 -108 49v49z" />
    <glyph glyph-name="w" unicode="w" horiz-adv-x="1478" 
d="M-20 1024h415v-47q-72 -41 -116 -51l182 -607l26 -147h5l30 150l221 679l58 23l235 -705l37 -147h4l31 150l160 604q-53 10 -113 49v49h344v-49q-43 -29 -117 -49l-290 -926l-101 -25l-205 588l-38 170h-7l-47 -170l-186 -563l-98 -25l-322 951q-68 23 -108 49v49z" />
    <glyph glyph-name="x" unicode="x" horiz-adv-x="1054" 
d="M1034 0h-409v47q76 43 104 51l-231 342l-234 -342q49 -18 103 -49v-49h-347v49q55 33 117 49l305 410l-307 418q-59 20 -102 49v49h401v-47q-55 -39 -102 -51l217 -314l213 314q-70 23 -103 49v49h338v-49q-36 -26 -116 -49l-281 -377l324 -451q72 -23 110 -49v-49z" />
    <glyph glyph-name="y" unicode="y" horiz-adv-x="1030" 
d="M-20 1024h415v-47q-43 -29 -116 -51l266 -617l41 -127h4l31 129l198 615q-61 12 -112 49v49h344v-49q-43 -29 -117 -49l-318 -926q-116 -313 -236 -390q-52 -34 -132 -50q-33 57 -66 170l27 49h209q27 33 43 73t51 148l-424 926q-43 10 -108 49v49z" />
    <glyph glyph-name="z" unicode="z" horiz-adv-x="993" 
d="M90 0v49l584 889h-391l-90 -242h-50q-20 117 -20 328h758v-49l-586 -889h405l111 262h49q29 -199 21 -348h-791z" />
    <glyph glyph-name="braceleft" unicode="{" horiz-adv-x="710" 
d="M279 -256v485q0 103 -43 163t-121 61v57q75 0 119 61t45 154v492q0 100 50 158t146 59h178v-82h-102q-55 0 -81 -29t-26 -94v-481q0 -123 -67 -184q-68 -60 -158 -72v-13q84 -8 155 -76t70 -188v-481q0 -63 26 -93t83 -30h100v-82h-178q-92 -1 -144 55t-52 160z" />
    <glyph glyph-name="bar" unicode="|" horiz-adv-x="485" 
d="M193 -266v1700h102v-1700h-102z" />
    <glyph glyph-name="braceright" unicode="}" horiz-adv-x="710" 
d="M485 1219v-484q0 -103 43 -163t121 -60v-57q-76 1 -120 -61t-44 -154v-494q0 -100 -50 -158t-146 -59h-176v82h102q55 0 81 29t26 94v483q0 123 59 184t145 72v12q-82 8 -143 76t-61 189v479q0 63 -26 93t-83 30h-100v82h178q92 0 143 -56t51 -159z" />
    <glyph glyph-name="asciitilde" unicode="~" 
d="M389 852q70 0 197 -70q128 -70 202 -70t150 70l25 -43q-106 -152 -230 -151q-70 0 -202 70t-197 69q-98 0 -184 -113l-29 48q133 190 268 190z" />
    <glyph glyph-name="uni00A0" unicode="&#xa0;" horiz-adv-x="491" 
 />
    <glyph glyph-name="exclamdown" unicode="&#xa1;" horiz-adv-x="665" 
d="M420 918q0 -60 -38 -96t-98 -36t-99 36q-38 36 -38 96t38 95q39 36 99 36t98 -36t38 -95zM260 586h49l62 -357v-610q-86 -45 -172 0v610z" />
    <glyph glyph-name="cent" unicode="&#xa2;" 
d="M313 512q1 -121 63 -225t177 -154v813q-240 -74 -240 -434zM655 -25v-323h-102v332q-207 31 -315 170t-109 359q0 220 117 357t307 170v312h102v-303q197 0 314 -62q-16 -184 -64 -289h-49l-86 244q-31 20 -96 21h-19v-859q37 -6 76 -6q127 0 215 70l27 -27
q-41 -76 -125 -121t-193 -45z" />
    <glyph glyph-name="sterling" unicode="&#xa3;" 
d="M59 680v102h177q-74 164 -74 321t114 256q115 99 306 99q254 0 389 -67q-8 -160 -49 -349h-50l-81 281q-74 33 -229 33t-206 -133q-16 -45 -16 -95q0 -145 74 -346h325v-102h-288q35 -111 34 -211q0 -158 -112 -256l-68 -57v-9l115 13h414l100 229h49q20 -238 21 -389
h-938v59q135 57 198 141q64 84 64 219q0 136 -49 261h-220z" />
    <glyph glyph-name="currency" unicode="&#xa4;" 
d="M543 541q74 0 124 47t50 121q0 73 -50 121t-124 50t-124 -48t-50 -124t50 -120q50 -47 124 -47zM262 706q0 104 53 173l-69 22l-170 172l104 105l170 -172l25 -68q76 55 173 53t165 -53l24 68l170 170l105 -105l-172 -170l-66 -22q49 -68 49 -168t-49 -174l66 -21
l170 -172l-105 -104l-170 170l-22 67q-72 -49 -166 -49t-176 49l-21 -65l-172 -170l-104 104l172 170l69 23q-53 63 -53 167z" />
    <glyph glyph-name="yen" unicode="&#xa5;" 
d="M731 1434h445v-58q-76 -37 -156 -49l-330 -643h301v-102h-338v-131h338v-103h-338v-242q80 -10 156 -49v-57h-508v57q74 37 168 49v242h-338v103h338v131h-338v102h297l-352 643q-74 12 -166 49v58h528v-58q-66 -27 -157 -49l319 -608l299 608q-98 22 -168 49v58z" />
    <glyph glyph-name="brokenbar" unicode="&#xa6;" horiz-adv-x="485" 
d="M295 1434v-656h-102v656h102zM193 -266v655h102v-655h-102z" />
    <glyph glyph-name="section" unicode="&#xa7;" horiz-adv-x="1071" 
d="M776 638q0 95 -79 145q-62 41 -133 67t-83 31q-76 -33 -131 -91t-55 -116t22 -100q38 -66 163 -118q36 -15 114 -44q76 44 129 110t53 116zM715 88q1 70 -61 115t-149 75t-173 64t-148 105q-61 71 -61 178q0 184 266 297q-205 96 -205 282q0 110 92 182t240 72
q205 0 332 -45q-6 -59 -49 -205h-49l-117 148q-43 16 -114 16t-117 -45t-46 -109t62 -114q62 -49 147 -81q86 -32 173 -69t149 -102q61 -66 61 -160q0 -190 -264 -315q96 -43 150 -97t53 -141q0 -141 -108 -224q-109 -83 -283 -83t-332 57q4 66 12 95q8 28 21 65
q12 37 16 53h49l131 -161q29 -23 111 -23t147 50q64 50 64 120z" />
    <glyph glyph-name="dieresis" unicode="&#xa8;" horiz-adv-x="909" 
d="M573 1357q0 46 30 75q30 28 77 28t77 -28q29 -28 29 -75q0 -46 -30 -74t-76 -28q-47 0 -77 28t-30 74zM229 1255q-47 0 -77 28t-29 74q0 46 30 75q31 28 77 28t76 -28t30 -75q0 -46 -30 -74t-77 -28z" />
    <glyph glyph-name="copyright" unicode="&#xa9;" horiz-adv-x="1650" 
d="M858 168q-184 0 -309 112t-125 314t129 316t293 114t250 -41q4 -37 -1 -110t-16 -113h-49l-61 168q-23 14 -105 14q-120 0 -188 -93t-68 -248t69 -253t208 -98q75 -1 100 24l57 146h50q25 -96 10 -205q-60 -47 -244 -47zM207 595q0 -280 178 -455t440 -175t441 175
q178 176 178 452t-184 454t-446 177q-262 0 -434 -174q-173 -174 -173 -454zM1546 594q0 -326 -213 -524t-514 -197q-301 -1 -508 195t-207 524t213 526t508 197q295 0 508 -198q213 -197 213 -523z" />
    <glyph glyph-name="ordfeminine" unicode="&#xaa;" horiz-adv-x="874" 
d="M369 862q127 0 188 135v107q-29 2 -103 2t-136 -33t-62 -87t31 -89t82 -35zM559 1235q0 141 -147 141q-59 0 -113 -20l-43 -115h-53q-45 53 -49 145q123 63 321 64q123 0 172 -51t49 -156l-6 -340l103 -20v-52q-88 -49 -166 -57h-33q-23 59 -27 139h-8
q-80 -143 -244 -143q-94 0 -153 53t-60 142q0 207 400 206l55 -2q2 16 2 66z" />
    <glyph glyph-name="guillemotleft" unicode="&#xab;" horiz-adv-x="956" 
d="M494 117l-443 413l430 420l49 -37l-284 -370l297 -387zM801 121l-359 409l344 416l48 -35l-218 -366l230 -387z" />
    <glyph glyph-name="logicalnot" unicode="&#xac;" 
d="M111 668v123h868v-381h-123v258h-745z" />
    <glyph glyph-name="uni00AD" unicode="&#xad;" horiz-adv-x="872" 
d="M147 516v123h578v-123h-578z" />
    <glyph glyph-name="registered" unicode="&#xae;" horiz-adv-x="1433" 
d="M713 967q125 0 121 114q-2 53 -36 81t-80 28t-71 -6v-217h66zM1014 633h-101l-57 22q-68 82 -135 254h-74v-211q39 -2 76 -18v-47h-252v47q35 12 72 18v482q-35 2 -72 22v43h76l172 8q98 0 164 -43t65 -129q0 -109 -147 -155l59 -97q43 -75 107 -131l47 -24v-41zM720 463
q194 0 320 125t127 334q0 210 -130 336q-131 126 -325 126t-320 -126t-126 -333q0 -208 130 -335t324 -127zM174 924q0 254 156 398t390 144t386 -144q154 -144 154 -398t-156 -398t-390 -145q-234 1 -386 145q-154 144 -154 398z" />
    <glyph glyph-name="macron" unicode="&#xaf;" horiz-adv-x="755" 
d="M633 1309h-510v102h510v-102z" />
    <glyph glyph-name="degree" unicode="&#xb0;" horiz-adv-x="870" 
d="M463 1360q-80 0 -129 -52t-49 -137q0 -84 53 -138t130 -54t125 50t48 138q0 89 -49 141t-129 52zM174 1166q0 128 84 210t207 82t205 -76t82 -210t-83 -213t-206 -79t-206 80q-83 78 -83 206z" />
    <glyph glyph-name="plusminus" unicode="&#xb1;" 
d="M82 367v102h922v-102h-922zM82 899v102h410v433h102v-433h410v-102h-410v-321h-102v321h-410z" />
    <glyph glyph-name="twosuperior" unicode="&#xb2;" horiz-adv-x="880" 
d="M426 1665q307 0 307 -238q0 -133 -124 -268t-330 -246v-12l63 14h285l90 138h43q18 -129 18 -262h-690v63q184 104 333 262q148 158 148 287q0 84 -39 127t-128 43t-142 -31l-39 -229h-45q-29 39 -59 124q-31 85 -35 130q172 98 344 98z" />
    <glyph glyph-name="threesuperior" unicode="&#xb3;" horiz-adv-x="880" 
d="M438 864q82 0 129 47t47 123t-50 114t-167 38h-67v51l178 227l90 86v4l-127 -8h-186l-72 -190h-43q-23 49 -40 145t-17 146h622v-72l-184 -217l-80 -84v-2l64 8q102 0 173 -63q70 -63 70 -185t-103 -190q-103 -70 -276 -70q-80 0 -168 28t-141 66l70 187h35
q31 -33 100 -168q61 -21 143 -21z" />
    <glyph glyph-name="acute" unicode="&#xb4;" horiz-adv-x="667" 
d="M123 1217l242 356q33 4 95 -11t85 -34v-39l-381 -307z" />
    <glyph glyph-name="mu" unicode="&#xb5;" horiz-adv-x="1165" 
d="M547 98q92 0 159 67t101 177v567l-135 17v49q127 49 258 74h49v-934l135 -17v-41q-143 -63 -237 -77h-50l-14 243h-8q-21 -92 -107 -170q-86 -77 -214 -77t-201 55h-13l70 -391v-50q-94 -29 -180 0v1319l-123 17v49q129 49 258 74h49l-12 -609q0 -172 46 -257t169 -85z
" />
    <glyph glyph-name="mu" unicode="&#x3bc;" horiz-adv-x="1165" 
d="M547 98q92 0 159 67t101 177v567l-135 17v49q127 49 258 74h49v-934l135 -17v-41q-143 -63 -237 -77h-50l-14 243h-8q-21 -92 -107 -170q-86 -77 -214 -77t-201 55h-13l70 -391v-50q-94 -29 -180 0v1319l-123 17v49q129 49 258 74h49l-12 -609q0 -172 46 -257t169 -85z
" />
    <glyph glyph-name="paragraph" unicode="&#xb6;" horiz-adv-x="1038" 
d="M670 193v1144h-90v-1288q-1 -193 -54 -289q82 34 113 138t31 295zM760 193q0 -177 -35 -279t-85 -140t-136 -57q-68 -111 -201 -151l-22 37q100 43 153 144t53 302v586q-147 0 -256 96q-109 97 -109 285t106 303q105 115 307 115h380v-58q-79 -37 -155 -49v-1134z" />
    <glyph glyph-name="periodcentered" unicode="&#xb7;" horiz-adv-x="491" 
d="M111 627q0 59 37 95q38 36 98 36t99 -36q38 -36 38 -95t-38 -95t-98 -36t-99 35q-37 37 -37 96z" />
    <glyph glyph-name="cedilla" unicode="&#xb8;" horiz-adv-x="575" 
d="M291 2l-53 -141q207 -6 213 -146q1 -109 -103 -171t-225 -56v59q178 25 174 131q-2 56 -43 80t-127 29l74 215h90z" />
    <glyph glyph-name="onesuperior" unicode="&#xb9;" horiz-adv-x="880" 
d="M743 791h-565v40q119 51 207 70v512l8 92q-92 -27 -229 -22v55q145 33 313 127h62v-764q128 -29 204 -70v-40z" />
    <glyph glyph-name="ordmasculine" unicode="&#xba;" horiz-adv-x="884" 
d="M254 1110q0 -125 49 -200t139 -74q188 0 189 274q-1 274 -189 274t-188 -274zM90 1103q0 163 99 259t256 96t253 -89t96 -254t-98 -259t-256 -94t-254 89t-96 252z" />
    <glyph glyph-name="guillemotright" unicode="&#xbb;" horiz-adv-x="956" 
d="M905 530l-442 -413l-49 39l297 376l-285 381l49 37zM514 530l-358 -409l-45 37l229 377l-217 376l47 35z" />
    <glyph glyph-name="onequarter" unicode="&#xbc;" horiz-adv-x="1916" 
d="M342 49l1196 1403l68 -59l-1198 -1405zM705 578h-566v40q119 51 207 70v512l8 92q-92 -27 -229 -22v55q145 33 313 127h62v-764q129 -29 205 -70v-40zM1427 334v272l21 88h-6l-72 -88l-233 -239l-74 -48l131 15h233zM1702 0h-424v41q80 37 149 49v152h-503v45l592 587h65
v-540h195v-92h-195v-152q70 -14 121 -49v-41z" />
    <glyph glyph-name="onehalf" unicode="&#xbd;" horiz-adv-x="2050" 
d="M342 49l1196 1403l68 -59l-1198 -1405zM705 578h-566v40q119 51 207 70v512l8 92q-92 -27 -229 -22v55q145 33 313 127h62v-764q129 -29 205 -70v-40zM1554 874q307 0 308 -237q0 -133 -124 -268t-331 -246v-12l63 14h285l90 137h43q18 -129 19 -262h-690v63
q184 105 332 263t149 286q0 84 -39 127t-128 43t-142 -30l-39 -230h-45q-29 37 -60 123t-35 131q172 98 344 98z" />
    <glyph glyph-name="threequarters" unicode="&#xbe;" horiz-adv-x="2031" 
d="M457 49l1196 1403l67 -59l-1198 -1405zM1542 334v272l21 88h-7l-71 -88l-234 -239l-73 -48l131 15h233zM1817 0h-424v41q80 37 149 49v152h-504v45l592 587h66v-540h194v-92h-194v-152q70 -14 121 -49v-41zM491 651q82 0 130 47q47 47 47 123t-50 114t-167 38h-68v51
l178 227l90 86v4l-127 -8h-186l-72 -190h-43q-23 49 -40 145t-17 146h622v-72l-184 -217l-80 -84v-2l64 8q102 0 173 -63q71 -62 71 -184t-104 -192q-103 -70 -275 -69q-80 0 -168 28t-142 66l70 187h35q31 -33 100 -168q61 -21 143 -21z" />
    <glyph glyph-name="questiondown" unicode="&#xbf;" horiz-adv-x="966" 
d="M674 918q0 -60 -38 -96t-98 -36t-99 36q-38 36 -38 96t38 95q39 36 99 36t98 -36t38 -95zM440 -426q-176 0 -271 92t-95 242q0 187 162 330l133 118q161 140 161 312h37q25 -125 5 -201q-20 -77 -72 -147t-106 -119t-95 -121t-41 -162t60 -166t182 -76t164 39l45 250h49
q49 -176 61 -307q-135 -84 -379 -84z" />
    <glyph glyph-name="Agrave" unicode="&#xc0;" horiz-adv-x="1388" 
d="M446 1829l302 -254l-33 -39l-459 186v41q23 27 89 49t101 17zM610 1024l-159 -436h417l-163 440l-39 176h-4zM449 0h-449v57q74 33 147 49l519 1352h49l518 -1352q104 -20 156 -49v-57h-512v57q98 37 167 49l-141 379h-493l-138 -379q87 -12 177 -49v-57z" />
    <glyph glyph-name="Aacute" unicode="&#xc1;" horiz-adv-x="1388" 
d="M623 1575l301 254q36 4 102 -18t88 -48v-41l-459 -186zM610 1024l-159 -436h417l-163 440l-39 176h-4zM449 0h-449v57q74 33 147 49l519 1352h49l518 -1352q104 -20 156 -49v-57h-512v57q98 37 167 49l-141 379h-493l-138 -379q87 -12 177 -49v-57z" />
    <glyph glyph-name="Acircumflex" unicode="&#xc2;" horiz-adv-x="1388" 
d="M686 1659l-248 -117l-26 37l260 229q25 12 45 0l256 -223l-27 -41zM610 1024l-159 -436h417l-163 440l-39 176h-4zM449 0h-449v57q74 33 147 49l519 1352h49l518 -1352q104 -20 156 -49v-57h-512v57q98 37 167 49l-141 379h-493l-138 -379q87 -12 177 -49v-57z" />
    <glyph glyph-name="Atilde" unicode="&#xc3;" horiz-adv-x="1388" 
d="M887 1698q49 0 106 41l25 -56q-115 -113 -223 -112q-53 0 -139 35q-86 34 -137 34q-50 0 -109 -51l-37 56q131 119 245 118q52 -1 136 -33t133 -32zM610 1024l-159 -436h417l-163 440l-39 176h-4zM449 0h-449v57q74 33 147 49l519 1352h49l518 -1352q104 -20 156 -49v-57
h-512v57q98 37 167 49l-141 379h-493l-138 -379q87 -12 177 -49v-57z" />
    <glyph glyph-name="Adieresis" unicode="&#xc4;" horiz-adv-x="1388" 
d="M809 1616q0 45 31 70q31 24 80 24q50 0 80 -24t30 -70q0 -45 -31 -70q-31 -24 -79 -24t-80 24q-31 24 -31 70zM358 1616q0 45 31 70q31 24 80 24t80 -24t31 -70q0 -45 -31 -70q-31 -24 -80 -24t-80 24t-31 70zM610 1024l-159 -436h417l-163 440l-39 176h-4zM449 0h-449
v57q74 33 147 49l519 1352h49l518 -1352q104 -20 156 -49v-57h-512v57q98 37 167 49l-141 379h-493l-138 -379q87 -12 177 -49v-57z" />
    <glyph glyph-name="Aring" unicode="&#xc5;" horiz-adv-x="1388" 
d="M578 1614q0 -39 33 -60q34 -20 79 -20q121 0 121 78q0 50 -35 72t-80 22q-118 0 -118 -92zM610 1024l-159 -436h417l-163 440l-39 176h-4zM469 1619q0 75 67 122q66 47 158 47t159 -43t67 -120t-60 -123t-143 -50l516 -1346q104 -20 156 -49v-57h-512v57q98 37 167 49
l-141 379h-493l-138 -379q86 -12 177 -49v-57h-449v57q74 33 147 49l517 1348q-88 6 -142 48q-53 42 -53 117z" />
    <glyph glyph-name="AE" unicode="&#xc6;" horiz-adv-x="1878" 
d="M922 629v626h-4l-87 -190l-253 -436h344zM1106 1331v-549h342l80 152h49q12 -203 0 -410h-49l-80 156h-342v-578h479l98 246h50q29 -199 20 -348h-999v57q72 33 168 49v420h-404l-242 -420q86 -12 177 -49v-57h-453v57q74 33 147 49l725 1231q-70 18 -118 39v58h958
q-4 -199 -20 -328h-50l-83 225h-453z" />
    <glyph glyph-name="Ccedilla" unicode="&#xc7;" horiz-adv-x="1316" 
d="M111 717q0 552 423 699q120 42 261 42q242 0 385 -69q4 -166 -29 -349h-49l-107 295q-39 20 -182 21q-221 0 -367 -165t-147 -466q0 -301 147 -474t406 -173q139 0 174 39l96 250h49q27 -137 21 -308q-111 -84 -391 -84l-49 -129q236 -6 235 -161q0 -111 -114 -174
t-248 -64v64q88 12 141 47t51 92q-2 102 -186 114l74 220q-594 66 -594 733z" />
    <glyph glyph-name="Egrave" unicode="&#xc8;" horiz-adv-x="1185" 
d="M426 1829l301 -254l-33 -39l-458 186v41q23 27 89 49t101 17zM61 1434h959q-4 -199 -21 -328h-49l-84 225h-452v-549h342l80 152h49q12 -203 0 -410h-49l-80 156h-342v-578h479l98 246h49q29 -199 21 -348h-1000v57q72 33 168 49v1221q-86 16 -168 49v58z" />
    <glyph glyph-name="Eacute" unicode="&#xc9;" horiz-adv-x="1185" 
d="M440 1575l301 254q35 4 102 -18t89 -48v-41l-459 -186zM61 1434h959q-4 -199 -21 -328h-49l-84 225h-452v-549h342l80 152h49q12 -203 0 -410h-49l-80 156h-342v-578h479l98 246h49q29 -199 21 -348h-1000v57q72 33 168 49v1221q-86 16 -168 49v58z" />
    <glyph glyph-name="Ecircumflex" unicode="&#xca;" horiz-adv-x="1185" 
d="M606 1659l-248 -117l-26 37l260 229q25 12 45 0l256 -223l-27 -41zM61 1434h959q-4 -199 -21 -328h-49l-84 225h-452v-549h342l80 152h49q12 -203 0 -410h-49l-80 156h-342v-578h479l98 246h49q29 -199 21 -348h-1000v57q72 33 168 49v1221q-86 16 -168 49v58z" />
    <glyph glyph-name="Edieresis" unicode="&#xcb;" horiz-adv-x="1185" 
d="M700 1616q0 45 31 70q31 24 80 24t80 -24t31 -70q0 -45 -31 -70q-31 -24 -80 -24t-80 24t-31 70zM250 1616q0 45 31 70q31 24 79 24t80 -24q31 -24 31 -70q0 -45 -31 -70q-31 -24 -80 -24q-50 0 -80 24t-30 70zM61 1434h959q-4 -199 -21 -328h-49l-84 225h-452v-549h342
l80 152h49q12 -203 0 -410h-49l-80 156h-342v-578h479l98 246h49q29 -199 21 -348h-1000v57q72 33 168 49v1221q-86 16 -168 49v58z" />
    <glyph glyph-name="Igrave" unicode="&#xcc;" horiz-adv-x="716" 
d="M264 1829l301 -254l-33 -39l-458 186v41q23 27 89 49t101 17zM614 0h-512v57q80 37 164 49v1221q-80 14 -164 49v58h512v-58q-66 -31 -163 -49v-1221q85 -16 163 -49v-57z" />
    <glyph glyph-name="Iacute" unicode="&#xcd;" horiz-adv-x="716" 
d="M197 1575l301 254q36 4 102 -18t88 -48v-41l-459 -186zM614 0h-512v57q80 37 164 49v1221q-80 14 -164 49v58h512v-58q-66 -31 -163 -49v-1221q85 -16 163 -49v-57z" />
    <glyph glyph-name="Icircumflex" unicode="&#xce;" horiz-adv-x="716" 
d="M352 1659l-248 -117l-26 37l260 229q25 12 45 0l256 -223l-27 -41zM614 0h-512v57q80 37 164 49v1221q-80 14 -164 49v58h512v-58q-66 -31 -163 -49v-1221q85 -16 163 -49v-57z" />
    <glyph glyph-name="Idieresis" unicode="&#xcf;" horiz-adv-x="716" 
d="M473 1616q0 45 31 70q31 24 80 24t80 -24q30 -24 30 -70q0 -45 -30 -70q-30 -24 -80 -24q-49 0 -80 24t-31 70zM23 1616q0 45 30 70q31 24 80 24t80 -24t31 -70q0 -45 -31 -70q-31 -24 -80 -24t-80 24q-30 25 -30 70zM614 0h-512v57q80 37 164 49v1221q-80 14 -164 49v58
h512v-58q-66 -31 -163 -49v-1221q85 -16 163 -49v-57z" />
    <glyph glyph-name="Eth" unicode="&#xd0;" horiz-adv-x="1443" 
d="M575 1348q-128 0 -174 -11v-555h344v-102h-344v-588q53 -8 217 -8t287 94t173 236t50 320q0 179 -74 331q-138 283 -479 283zM61 0v57q72 33 168 49v574h-184v102h184v545q-100 23 -168 49v58h205l348 16q344 0 532 -187t187 -527t-193 -548q-192 -207 -569 -206l-317 18
h-193z" />
    <glyph glyph-name="Ntilde" unicode="&#xd1;" horiz-adv-x="1492" 
d="M938 1698q49 0 106 41l25 -56q-115 -113 -223 -112q-53 0 -139 35q-86 34 -136 34t-110 -51l-37 56q131 119 246 118q51 -1 135 -33t133 -32zM997 1434h435v-58q-82 -53 -168 -80v-1321h-109l-747 1139l-80 160h-6l18 -160v-985q90 -27 156 -72v-57h-435v57q66 41 168 72
v1180q-88 33 -155 69v56h336l651 -988l94 -176h8l-10 176v850q-82 35 -156 80v58z" />
    <glyph glyph-name="Ograve" unicode="&#xd2;" horiz-adv-x="1511" 
d="M590 1829l301 -254l-33 -39l-459 186v41q23 27 89 49t102 17zM743 1356q-219 0 -323 -178t-105 -458q0 -280 119 -460q119 -182 332 -182q214 0 322 180t108 459t-117 459t-336 180zM111 717q0 329 173 535t472 206t472 -207t173 -535t-173 -534q-173 -207 -472 -207
t-472 207t-173 535z" />
    <glyph glyph-name="Oacute" unicode="&#xd3;" horiz-adv-x="1511" 
d="M563 1575l301 254q35 4 102 -18t89 -48v-41l-459 -186zM743 1356q-219 0 -323 -178t-105 -458q0 -280 119 -460q119 -182 332 -182q214 0 322 180t108 459t-117 459t-336 180zM111 717q0 329 173 535t472 206t472 -207t173 -535t-173 -534q-173 -207 -472 -207t-472 207
t-173 535z" />
    <glyph glyph-name="Ocircumflex" unicode="&#xd4;" horiz-adv-x="1511" 
d="M750 1659l-248 -117l-27 37l260 229q25 12 45 0l256 -223l-26 -41zM743 1356q-219 0 -323 -178t-105 -458q0 -280 119 -460q119 -182 332 -182q214 0 322 180t108 459t-117 459t-336 180zM111 717q0 329 173 535t472 206t472 -207t173 -535t-173 -534
q-173 -207 -472 -207t-472 207t-173 535z" />
    <glyph glyph-name="Otilde" unicode="&#xd5;" horiz-adv-x="1511" 
d="M948 1698q50 0 107 41l24 -56q-115 -113 -223 -112q-53 0 -139 35q-86 34 -136 34t-110 -51l-37 56q131 119 246 118q51 -1 135 -33q83 -32 133 -32zM743 1356q-219 0 -323 -178t-105 -458q0 -280 119 -460q119 -182 332 -182q214 0 322 180t108 459t-117 459t-336 180z
M111 717q0 329 173 535t472 206t472 -207t173 -535t-173 -534q-173 -207 -472 -207t-472 207t-173 535z" />
    <glyph glyph-name="Odieresis" unicode="&#xd6;" horiz-adv-x="1511" 
d="M870 1616q0 45 31 70q31 24 80 24t80 -24t31 -70q0 -45 -31 -70q-31 -24 -80 -24t-80 24t-31 70zM420 1616q0 45 31 70q31 24 79 24t80 -24q31 -24 31 -70q0 -45 -31 -70q-31 -24 -80 -24q-50 0 -80 24t-30 70zM743 1356q-219 0 -323 -178t-105 -458q0 -280 119 -460
q119 -182 332 -182q214 0 322 180t108 459t-117 459t-336 180zM111 717q0 329 173 535t472 206t472 -207t173 -535t-173 -534q-173 -207 -472 -207t-472 207t-173 535z" />
    <glyph glyph-name="multiply" unicode="&#xd7;" 
d="M250 344l-72 72l289 289l-285 286l72 72l287 -285l288 289l72 -72l-289 -288l295 -295l-73 -74l-295 295z" />
    <glyph glyph-name="Oslash" unicode="&#xd8;" horiz-adv-x="1511" 
d="M1196 708q0 270 -100 439l-602 -961q113 -109 280 -108q206 0 314 180t108 450zM739 1356q-215 0 -319 -178t-105 -452q0 -274 105 -445l602 964q-115 111 -283 111zM111 717q0 329 173 535t472 206q193 0 342 -94l59 96l100 -57l-69 -111q213 -207 213 -575
q0 -328 -173 -535t-472 -207q-193 0 -340 91l-58 -93l-94 58l64 102q-217 205 -217 584z" />
    <glyph glyph-name="Ugrave" unicode="&#xd9;" horiz-adv-x="1366" 
d="M508 1829l301 -254l-33 -39l-459 186v41q23 27 89 49t102 17zM20 1434h508v-58q-59 -27 -155 -49v-844q0 -209 90 -297t268 -88q344 0 344 385v824q-82 27 -160 69v58h431v-58q-82 -49 -160 -69v-828q0 -252 -126 -375q-126 -122 -366 -122t-372 116q-133 116 -134 348
v881q-86 12 -168 49v58z" />
    <glyph glyph-name="Uacute" unicode="&#xda;" horiz-adv-x="1366" 
d="M645 1575l301 254q35 4 102 -18t89 -48v-41l-459 -186zM20 1434h508v-58q-59 -27 -155 -49v-844q0 -209 90 -297t268 -88q344 0 344 385v824q-82 27 -160 69v58h431v-58q-82 -49 -160 -69v-828q0 -252 -126 -375q-126 -122 -366 -122t-372 116q-133 116 -134 348v881
q-86 12 -168 49v58z" />
    <glyph glyph-name="Ucircumflex" unicode="&#xdb;" horiz-adv-x="1366" 
d="M717 1659l-248 -117l-27 37l260 229q25 12 46 0l256 -223l-27 -41zM20 1434h508v-58q-59 -27 -155 -49v-844q0 -209 90 -297t268 -88q344 0 344 385v824q-82 27 -160 69v58h431v-58q-82 -49 -160 -69v-828q0 -252 -126 -375q-126 -122 -366 -122t-372 116
q-133 116 -134 348v881q-86 12 -168 49v58z" />
    <glyph glyph-name="Udieresis" unicode="&#xdc;" horiz-adv-x="1366" 
d="M838 1616q0 45 30 70q31 24 80 24t80 -24t31 -70q0 -45 -31 -70q-31 -24 -80 -24t-80 24q-30 25 -30 70zM387 1616q0 45 31 70q31 24 80 24t80 -24q30 -24 30 -70q0 -45 -30 -70q-30 -24 -80 -24q-49 0 -80 24t-31 70zM20 1434h508v-58q-59 -27 -155 -49v-844
q0 -209 90 -297t268 -88q344 0 344 385v824q-82 27 -160 69v58h431v-58q-82 -49 -160 -69v-828q0 -252 -126 -375q-126 -122 -366 -122t-372 116q-133 116 -134 348v881q-86 12 -168 49v58z" />
    <glyph glyph-name="Yacute" unicode="&#xdd;" horiz-adv-x="1306" 
d="M645 1575l301 254q35 4 102 -18t89 -48v-41l-459 -186zM862 1434h445v-58q-76 -37 -156 -49l-387 -717v-504q80 -10 156 -49v-57h-508v57q74 37 168 49v502l-414 719q-74 12 -166 49v58h528v-58q-66 -27 -157 -49l340 -608l319 608q-98 22 -168 49v58z" />
    <glyph glyph-name="Thorn" unicode="&#xde;" horiz-adv-x="1210" 
d="M557 1130q-98 0 -143 -12v-647q33 -10 169 -10t238 87q103 87 103 250q0 164 -98 248t-269 84zM610 0h-549v57q61 29 168 49v1221q-80 14 -163 49v58h512v-58q-66 -31 -164 -49v-102q124 8 196 8q266 0 409 -138q111 -107 109 -294q0 -217 -162 -330t-395 -113
q-118 1 -157 9v-261q111 -16 196 -49v-57z" />
    <glyph glyph-name="germandbls" unicode="&#xdf;" horiz-adv-x="1292" 
d="M682 1454q-72 0 -118 -12q-114 -31 -149 -166q-22 -80 -22 -201v-1075h-307v49q66 37 135 49v828h-155v49q72 45 155 67v72q0 321 295 407q70 19 141 19q203 0 298 -105t100 -259q-168 -24 -251 -88t-83 -191t172 -229l143 -93q74 -49 124 -123t50 -169q0 -143 -98 -225
t-272 -83q-174 0 -332 58q6 88 49 172h49l131 -127q39 -16 115 -16t132 48q54 50 54 114t-26 110t-71 81q-44 33 -95 65q-131 81 -200 149q-99 97 -97 248q0 117 77 199t257 134q-1 90 -65 167t-136 77z" />
    <glyph glyph-name="agrave" unicode="&#xe0;" horiz-adv-x="1021" 
d="M418 1573l221 -356l-41 -35l-381 307v39q23 18 95 34t106 11zM266 297q0 -99 46 -149t131 -50t141 60t78 123v215q-232 2 -314 -48t-82 -151zM360 -25q-122 0 -200 76t-78 208t90 202t285 94q82 10 205 16q18 187 -21 289t-156 103q-84 0 -137 -21l-96 -246h-49
q-43 133 -51 254q164 98 368 98t265 -109q49 -85 51 -216l-11 -457l6 -147l142 -21v-41q-106 -55 -223 -77h-50q-27 63 -30 229h-11q-16 -92 -96 -163t-203 -71z" />
    <glyph glyph-name="aacute" unicode="&#xe1;" horiz-adv-x="1021" 
d="M381 1217l242 356q33 4 95 -11t85 -34v-39l-381 -307zM266 297q0 -99 46 -149t131 -50t141 60t78 123v215q-232 2 -314 -48t-82 -151zM360 -25q-122 0 -200 76t-78 208t90 202t285 94q82 10 205 16q18 187 -21 289t-156 103q-84 0 -137 -21l-96 -246h-49q-43 133 -51 254
q164 98 368 98t265 -109q49 -85 51 -216l-11 -457l6 -147l142 -21v-41q-106 -55 -223 -77h-50q-27 63 -30 229h-11q-16 -92 -96 -163t-203 -71z" />
    <glyph glyph-name="acircumflex" unicode="&#xe2;" horiz-adv-x="1021" 
d="M500 1434l-185 -222l-55 31l225 381q25 12 45 0l234 -379l-53 -33zM266 297q0 -99 46 -149t131 -50t141 60t78 123v215q-232 2 -314 -48t-82 -151zM360 -25q-122 0 -200 76t-78 208t90 202t285 94q82 10 205 16q18 187 -21 289t-156 103q-84 0 -137 -21l-96 -246h-49
q-43 133 -51 254q164 98 368 98t265 -109q49 -85 51 -216l-11 -457l6 -147l142 -21v-41q-106 -55 -223 -77h-50q-27 63 -30 229h-11q-16 -92 -96 -163t-203 -71z" />
    <glyph glyph-name="atilde" unicode="&#xe3;" horiz-adv-x="1021" 
d="M321 1333q-48 0 -106 -51l-37 55q129 119 240 119q51 0 129 -33t126 -33t105 42l25 -56q-115 -113 -219 -112q-51 0 -133 34t-130 35zM266 297q0 -99 46 -149t131 -50t141 60t78 123v215q-232 2 -314 -48t-82 -151zM360 -25q-122 0 -200 76t-78 208t90 202t285 94
q82 10 205 16q18 187 -21 289t-156 103q-84 0 -137 -21l-96 -246h-49q-43 133 -51 254q164 98 368 98t265 -109q49 -85 51 -216l-11 -457l6 -147l142 -21v-41q-106 -55 -223 -77h-50q-27 63 -30 229h-11q-16 -92 -96 -163t-203 -71z" />
    <glyph glyph-name="adieresis" unicode="&#xe4;" horiz-adv-x="1021" 
d="M608 1357q0 46 30 75q30 28 77 28t77 -28t30 -75q0 -46 -30 -74t-77 -28t-77 28t-30 74zM158 1357q0 46 29 75q30 28 77 28t77 -28t30 -75q0 -46 -30 -74t-77 -28t-77 28q-29 28 -29 74zM266 297q0 -99 46 -149t131 -50t141 60t78 123v215q-232 2 -314 -48t-82 -151z
M360 -25q-122 0 -200 76t-78 208t90 202t285 94q82 10 205 16q18 187 -21 289t-156 103q-84 0 -137 -21l-96 -246h-49q-43 133 -51 254q164 98 368 98t265 -109q49 -85 51 -216l-11 -457l6 -147l142 -21v-41q-106 -55 -223 -77h-50q-27 63 -30 229h-11q-16 -92 -96 -163
t-203 -71z" />
    <glyph glyph-name="aring" unicode="&#xe5;" horiz-adv-x="1021" 
d="M393 1405q0 -51 27 -79q26 -28 66 -28t66 26t26 77t-26 83t-67 32q-92 0 -92 -111zM291 1400q0 83 58 140q59 57 141 57t136 -52t54 -136t-57 -138t-139 -54t-138 50q-55 50 -55 133zM266 297q0 -99 46 -149t131 -50t141 60t78 123v215q-232 2 -314 -48t-82 -151z
M360 -25q-122 0 -200 76t-78 208t90 202t285 94q82 10 205 16q18 187 -21 289t-156 103q-84 0 -137 -21l-96 -246h-49q-43 133 -51 254q164 98 368 98t265 -109q49 -85 51 -216l-11 -457l6 -147l142 -21v-41q-106 -55 -223 -77h-50q-27 63 -30 229h-11q-16 -92 -96 -163
t-203 -71z" />
    <glyph glyph-name="ae" unicode="&#xe6;" horiz-adv-x="1583" 
d="M1093 963q-119 0 -181 -84t-74 -279h462q14 166 -38 264t-169 99zM266 297q0 -199 178 -199q86 0 142 56t76 118v224q-232 2 -314 -48t-82 -151zM1084 1049q106 0 178 -26t133 -87q120 -120 75 -422h-639q3 -186 91 -301t260 -115q72 0 146 22t110 52l28 -31
q-33 -69 -130 -117q-98 -48 -214 -48t-234 52t-173 175q-33 -98 -129 -163t-222 -65t-204 76t-78 208t90 202t285 94q82 10 205 16q18 187 -21 289t-156 103q-84 0 -137 -21l-96 -246h-49q-43 133 -51 254q164 98 375 98t264 -122q55 61 121 92t172 31z" />
    <glyph glyph-name="ccedilla" unicode="&#xe7;" horiz-adv-x="950" 
d="M86 530q0 238 125 378t331 140t322 -61q-16 -184 -63 -289h-49l-86 244q-31 20 -97 21q-151 0 -225 -108t-74 -343q0 -166 94 -290t263 -124q127 0 215 70l26 -27q-41 -76 -125 -121t-194 -45l-43 -114q207 -6 213 -146q1 -109 -103 -171t-225 -56v59q178 25 174 131
q-2 56 -43 80t-127 29l68 197q-184 29 -281 168q-96 140 -96 378z" />
    <glyph glyph-name="egrave" unicode="&#xe8;" horiz-adv-x="1021" 
d="M438 1573l221 -356l-41 -35l-380 307v39q23 18 94 34t106 11zM532 963q-118 0 -180 -84t-76 -279h463q15 166 -37 264t-170 99zM86 516q0 254 120 393t337 140q176 0 293 -116t73 -419h-639q2 -186 90 -301t261 -115q73 0 147 22t109 52l28 -31q-33 -69 -130 -117
t-202 -49q-235 -1 -361 143t-126 398z" />
    <glyph glyph-name="eacute" unicode="&#xe9;" horiz-adv-x="1021" 
d="M422 1217l242 356q33 4 95 -11t85 -34v-39l-381 -307zM532 963q-118 0 -180 -84t-76 -279h463q15 166 -37 264t-170 99zM86 516q0 254 120 393t337 140q176 0 293 -116t73 -419h-639q2 -186 90 -301t261 -115q73 0 147 22t109 52l28 -31q-33 -69 -130 -117t-202 -49
q-235 -1 -361 143t-126 398z" />
    <glyph glyph-name="ecircumflex" unicode="&#xea;" horiz-adv-x="1021" 
d="M520 1434l-184 -222l-55 31l225 381q25 12 45 0l233 -379l-53 -33zM532 963q-118 0 -180 -84t-76 -279h463q15 166 -37 264t-170 99zM86 516q0 254 120 393t337 140q176 0 293 -116t73 -419h-639q2 -186 90 -301t261 -115q73 0 147 22t109 52l28 -31q-33 -69 -130 -117
t-202 -49q-235 -1 -361 143t-126 398z" />
    <glyph glyph-name="edieresis" unicode="&#xeb;" horiz-adv-x="1021" 
d="M643 1357q0 46 30 75q30 28 77 28q46 0 76 -28t30 -75q0 -46 -30 -74t-76 -28t-77 28q-30 28 -30 74zM193 1357q0 46 29 75q30 28 77 28t77 -28t30 -75q0 -46 -30 -74t-77 -28t-77 28q-29 28 -29 74zM532 963q-118 0 -180 -84t-76 -279h463q15 166 -37 264t-170 99z
M86 516q0 254 120 393t337 140q176 0 293 -116t73 -419h-639q2 -186 90 -301t261 -115q73 0 147 22t109 52l28 -31q-33 -69 -130 -117t-202 -49q-235 -1 -361 143t-126 398z" />
    <glyph glyph-name="igrave" unicode="&#xec;" horiz-adv-x="610" 
d="M184 1573l222 -356l-41 -35l-381 307v39q23 18 94 34t106 11zM528 0h-442v49q53 29 135 49v811l-135 17v49q119 49 258 74h49v-951q88 -20 135 -49v-49z" />
    <glyph glyph-name="iacute" unicode="&#xed;" horiz-adv-x="610" 
d="M168 1217l242 356q33 4 95 -11t85 -34v-39l-381 -307zM528 0h-442v49q53 29 135 49v811l-135 17v49q119 49 258 74h49v-951q88 -20 135 -49v-49z" />
    <glyph glyph-name="icircumflex" unicode="&#xee;" horiz-adv-x="610" 
d="M293 1434l-184 -222l-56 31l226 381q25 12 45 0l233 -379l-53 -33zM528 0h-442v49q53 29 135 49v811l-135 17v49q119 49 258 74h49v-951q88 -20 135 -49v-49z" />
    <glyph glyph-name="idieresis" unicode="&#xef;" horiz-adv-x="610" 
d="M528 1255q-46 0 -76 28t-30 74t30 75q30 28 76 28t77 -28q30 -28 30 -75q0 -46 -30 -74t-77 -28zM-29 1357q0 46 30 75q30 28 77 28t77 -28q29 -28 29 -75q0 -46 -30 -74t-76 -28q-47 0 -77 28t-30 74zM528 0h-442v49q53 29 135 49v811l-135 17v49q119 49 258 74h49v-951
q88 -20 135 -49v-49z" />
    <glyph glyph-name="eth" unicode="&#xf0;" 
d="M535 946q-131 0 -212 -116t-81 -314q0 -196 83 -322t218 -126t209 133t74 329t-23 293q-33 55 -103 89t-165 34zM307 1536h117q131 -37 256 -154l227 95l37 -84l-194 -80q256 -299 256 -721q0 -279 -122 -448t-346 -169q-224 1 -353 145q-128 144 -128 390t132 392
q133 146 311 146t291 -116q-57 176 -170 328l-263 -109l-39 84l238 96q-117 123 -250 172v33z" />
    <glyph glyph-name="ntilde" unicode="&#xf1;" horiz-adv-x="1206" 
d="M433 1333q-48 0 -105 -51l-37 55q129 119 239 119q51 0 129 -33q79 -33 127 -33t105 42l24 -56q-115 -113 -219 -112q-51 0 -133 34t-130 35zM1169 0h-430v49q51 29 123 49v486q0 168 -48 255t-156 87t-182 -67q-73 -67 -103 -161v-600q66 -12 123 -49v-49h-430v49
q53 29 135 49v811l-135 17v49q104 45 258 74h49v-232h2q47 102 128 167t189 65q176 -1 259 -95t83 -336v-520q82 -14 135 -49v-49z" />
    <glyph glyph-name="ograve" unicode="&#xf2;" horiz-adv-x="1122" 
d="M469 1573l221 -356l-41 -35l-381 307v39q22 18 94 34t107 11zM270 523q0 -212 80 -337t246 -125q116 0 186 115t70 326t-76 336t-231 125q-127 0 -201 -114t-74 -326zM86 514q0 252 128 393t358 141t348 -140q116 -142 116 -396t-128 -395t-356 -141t-346 142
q-120 144 -120 396z" />
    <glyph glyph-name="oacute" unicode="&#xf3;" horiz-adv-x="1122" 
d="M432 1217l242 356q33 4 95 -11t85 -34v-39l-381 -307zM270 523q0 -212 80 -337t246 -125q116 0 186 115t70 326t-76 336t-231 125q-127 0 -201 -114t-74 -326zM86 514q0 252 128 393t358 141t348 -140q116 -142 116 -396t-128 -395t-356 -141t-346 142q-120 144 -120 396
z" />
    <glyph glyph-name="ocircumflex" unicode="&#xf4;" horiz-adv-x="1122" 
d="M549 1434l-184 -222l-56 31l226 381q25 12 45 0l233 -379l-53 -33zM270 523q0 -212 80 -337t246 -125q116 0 186 115t70 326t-76 336t-231 125q-127 0 -201 -114t-74 -326zM86 514q0 252 128 393t358 141t348 -140q116 -142 116 -396t-128 -395t-356 -141t-346 142
q-120 144 -120 396z" />
    <glyph glyph-name="otilde" unicode="&#xf5;" horiz-adv-x="1122" 
d="M390 1333q-48 0 -105 -51l-37 55q129 119 239 119q51 0 129 -33t126 -33t106 42l24 -56q-115 -113 -219 -112q-51 0 -133 34t-130 35zM270 523q0 -212 80 -337t246 -125q116 0 186 115t70 326t-76 336t-231 125q-127 0 -201 -114t-74 -326zM86 514q0 252 128 393t358 141
t348 -140q116 -142 116 -396t-128 -395t-356 -141t-346 142q-120 144 -120 396z" />
    <glyph glyph-name="odieresis" unicode="&#xf6;" horiz-adv-x="1122" 
d="M786 1255q-46 0 -76 28t-30 74t30 75q30 28 76 28t77 -28q30 -28 30 -75q0 -46 -30 -74t-77 -28zM229 1357q0 46 30 75q30 28 77 28t77 -28q29 -28 29 -75q0 -46 -30 -74t-76 -28q-47 0 -77 28t-30 74zM270 523q0 -212 80 -337t246 -125q116 0 186 115t70 326t-76 336
t-231 125q-127 0 -201 -114t-74 -326zM86 514q0 252 128 393t358 141t348 -140q116 -142 116 -396t-128 -395t-356 -141t-346 142q-120 144 -120 396z" />
    <glyph glyph-name="divide" unicode="&#xf7;" 
d="M82 657v103h922v-103h-922zM406 317q0 59 37 96q39 36 99 36t98 -36q38 -35 38 -95t-38 -96t-98 -36t-99 36q-37 36 -37 95zM406 1100q0 59 37 95q39 36 99 36t98 -36t38 -95t-38 -95t-98 -36t-99 36q-37 36 -37 95z" />
    <glyph glyph-name="oslash" unicode="&#xf8;" horiz-adv-x="1122" 
d="M586 61q126 0 196 115q70 116 70 308t-51 307l-418 -648q78 -82 203 -82zM270 534q0 -202 58 -311l420 649q-78 90 -204 90t-200 -113t-74 -315zM86 494q0 272 128 413t347 142q160 0 260 -62l94 146l76 -50l-98 -149q143 -136 143 -406t-128 -411t-347 -142
q-145 0 -250 58l-102 -160l-74 51l103 160q-152 138 -152 410z" />
    <glyph glyph-name="ugrave" unicode="&#xf9;" horiz-adv-x="1165" 
d="M489 1573l222 -356l-41 -35l-381 307v39q23 18 94 34t106 11zM547 98q180 0 258 244v567l-133 17v49q127 49 256 74h49v-934l135 -17v-41q-143 -63 -235 -77h-50l-14 243h-8q-21 -92 -107 -170t-200 -78q-174 1 -256 95t-82 336l12 503l-135 17v49q129 49 258 74h49
l-12 -609q0 -172 46 -257t169 -85z" />
    <glyph glyph-name="uacute" unicode="&#xfa;" horiz-adv-x="1165" 
d="M453 1217l241 356q34 4 96 -11t84 -34v-39l-380 -307zM547 98q180 0 258 244v567l-133 17v49q127 49 256 74h49v-934l135 -17v-41q-143 -63 -235 -77h-50l-14 243h-8q-21 -92 -107 -170t-200 -78q-174 1 -256 95t-82 336l12 503l-135 17v49q129 49 258 74h49l-12 -609
q0 -172 46 -257t169 -85z" />
    <glyph glyph-name="ucircumflex" unicode="&#xfb;" horiz-adv-x="1165" 
d="M569 1434l-184 -222l-55 31l225 381q25 12 45 0l234 -379l-54 -33zM547 98q180 0 258 244v567l-133 17v49q127 49 256 74h49v-934l135 -17v-41q-143 -63 -235 -77h-50l-14 243h-8q-21 -92 -107 -170t-200 -78q-174 1 -256 95t-82 336l12 503l-135 17v49q129 49 258 74h49
l-12 -609q0 -172 46 -257t169 -85z" />
    <glyph glyph-name="udieresis" unicode="&#xfc;" horiz-adv-x="1165" 
d="M700 1357q0 46 30 75q30 28 77 28t77 -28t30 -75q0 -46 -30 -74t-77 -28t-77 28t-30 74zM356 1255q-46 0 -76 28t-30 74t30 75q30 28 76 28t77 -28q30 -28 30 -75q0 -46 -30 -74t-77 -28zM547 98q180 0 258 244v567l-133 17v49q127 49 256 74h49v-934l135 -17v-41
q-143 -63 -235 -77h-50l-14 243h-8q-21 -92 -107 -170t-200 -78q-174 1 -256 95t-82 336l12 503l-135 17v49q129 49 258 74h49l-12 -609q0 -172 46 -257t169 -85z" />
    <glyph glyph-name="yacute" unicode="&#xfd;" horiz-adv-x="1030" 
d="M406 1217l241 356q33 4 95 -11t85 -34v-39l-381 -307zM-20 1024h415v-47q-43 -29 -116 -51l266 -617l41 -127h4l31 129l198 615q-61 12 -112 49v49h344v-49q-43 -29 -117 -49l-318 -926q-116 -313 -236 -390q-52 -34 -132 -50q-33 57 -66 170l27 49h209q27 33 43 73
t51 148l-424 926q-43 10 -108 49v49z" />
    <glyph glyph-name="thorn" unicode="&#xfe;" horiz-adv-x="1148" 
d="M616 926q-195 0 -247 -242v-575q71 -47 207 -47t218 132q82 134 80 341q0 391 -258 391zM369 1540v-721h2q92 229 307 230q381 0 381 -514q0 -258 -129 -409t-346 -151q-119 0 -215 41v-327q68 -10 135 -49v-50h-443v50q70 33 136 49v1712l-156 16v49q94 43 278 74h50z
" />
    <glyph glyph-name="ydieresis" unicode="&#xff;" horiz-adv-x="1030" 
d="M653 1357q0 46 30 75q30 28 77 28t77 -28q29 -28 29 -75q0 -46 -30 -74t-76 -28q-47 0 -77 28t-30 74zM203 1357q0 46 29 75q30 28 77 28t77 -28t30 -75q0 -46 -30 -74t-77 -28t-77 28q-29 28 -29 74zM-20 1024h415v-47q-43 -29 -116 -51l266 -617l41 -127h4l31 129
l198 615q-61 12 -112 49v49h344v-49q-43 -29 -117 -49l-318 -926q-116 -313 -236 -390q-52 -34 -132 -50q-33 57 -66 170l27 49h209q27 33 43 73t51 148l-424 926q-43 10 -108 49v49z" />
    <glyph glyph-name="Amacron" unicode="&#x100;" horiz-adv-x="1388" 
d="M1001 1616h-612v102h612v-102zM610 1024l-159 -436h417l-163 440l-39 176h-4zM449 0h-449v57q74 33 147 49l519 1352h49l518 -1352q104 -20 156 -49v-57h-512v57q98 37 167 49l-141 379h-493l-138 -379q87 -12 177 -49v-57z" />
    <glyph glyph-name="amacron" unicode="&#x101;" horiz-adv-x="1021" 
d="M766 1309h-510v102h510v-102zM266 297q0 -99 46 -149t131 -50t141 60t78 123v215q-232 2 -314 -48t-82 -151zM360 -25q-122 0 -200 76t-78 208t90 202t285 94q82 10 205 16q18 187 -21 289t-156 103q-84 0 -137 -21l-96 -246h-49q-43 133 -51 254q164 98 368 98t265 -109
q49 -85 51 -216l-11 -457l6 -147l142 -21v-41q-106 -55 -223 -77h-50q-27 63 -30 229h-11q-16 -92 -96 -163t-203 -71z" />
    <glyph glyph-name="Abreve" unicode="&#x102;" horiz-adv-x="1388" 
d="M694 1554q-102 0 -184 60t-121 170q27 37 84 28q27 -48 95 -82t134 -36q158 -5 234 112q31 4 63 -26q-37 -94 -119 -160t-186 -66zM610 1024l-159 -436h417l-163 440l-39 176h-4zM449 0h-449v57q74 33 147 49l519 1352h49l518 -1352q104 -20 156 -49v-57h-512v57
q98 37 167 49l-141 379h-493l-138 -379q87 -12 177 -49v-57z" />
    <glyph glyph-name="abreve" unicode="&#x103;" horiz-adv-x="1021" 
d="M739 1493l47 -20q-41 -102 -109 -175q-69 -72 -161 -71q-190 0 -278 250l55 24q27 -51 95 -92t130 -43q137 -4 221 127zM266 297q0 -99 46 -149t131 -50t141 60t78 123v215q-232 2 -314 -48t-82 -151zM360 -25q-122 0 -200 76t-78 208t90 202t285 94q82 10 205 16
q18 187 -21 289t-156 103q-84 0 -137 -21l-96 -246h-49q-43 133 -51 254q164 98 368 98t265 -109q49 -85 51 -216l-11 -457l6 -147l142 -21v-41q-106 -55 -223 -77h-50q-27 63 -30 229h-11q-16 -92 -96 -163t-203 -71z" />
    <glyph glyph-name="Aogonek" unicode="&#x104;" horiz-adv-x="1388" 
d="M610 1024l-159 -436h417l-163 440l-39 176h-4zM449 0h-449v57q74 33 147 49l519 1352h49l518 -1352q104 -20 156 -49v-57h-89q-211 -119 -210 -276q0 -57 37 -96q38 -38 104 -38t115 13v-58q-74 -57 -176 -57t-171 56q-67 56 -67 150t67 166q68 73 193 140h-315v57
q98 37 167 49l-141 379h-493l-138 -379q87 -12 177 -49v-57z" />
    <glyph glyph-name="aogonek" unicode="&#x105;" horiz-adv-x="1021" 
d="M266 297q0 -99 46 -149t131 -50t141 60t78 123v215q-232 2 -314 -48t-82 -151zM700 -242q0 -47 31 -86t83 -39t118 19v-64q-72 -41 -170 -41q-98 -1 -160 49q-63 50 -63 130q0 150 190 254h-29q-27 63 -30 229h-11q-16 -92 -96 -163t-203 -71q-122 0 -200 76t-78 208
t90 202t285 94q82 10 205 16q18 187 -21 289t-156 103q-84 0 -137 -21l-96 -246h-49q-43 133 -51 254q164 98 368 98t265 -109q49 -85 51 -216l-11 -457l6 -147l142 -21v-41q-10 -6 -58 -26q-215 -109 -215 -273z" />
    <glyph glyph-name="Cacute" unicode="&#x106;" horiz-adv-x="1316" 
d="M604 1575l301 254q35 4 102 -18t89 -48v-41l-459 -186zM840 -25q-352 1 -540 183t-189 559q0 552 423 699q120 42 261 42q242 0 385 -69q4 -166 -29 -349h-49l-107 295q-39 20 -182 21q-221 0 -367 -165t-147 -466q0 -301 147 -474t406 -173q139 0 174 39l96 250h49
q27 -137 21 -308q-109 -84 -352 -84z" />
    <glyph glyph-name="cacute" unicode="&#x107;" horiz-adv-x="950" 
d="M408 1217l241 356q33 4 95 -11t85 -34v-39l-380 -307zM86 515q0 253 125 393t331 140t322 -61q-16 -184 -63 -289h-49l-86 244q-31 20 -97 21q-151 0 -225 -108t-74 -343q0 -166 94 -290t263 -124q127 0 215 70l26 -27q-41 -73 -123 -119t-186 -47q-231 -1 -352 143
t-121 397z" />
    <glyph glyph-name="Ccircumflex" unicode="&#x108;" horiz-adv-x="1316" 
d="M750 1659l-248 -117l-27 37l260 229q25 12 45 0l256 -223l-26 -41zM840 -25q-352 1 -540 183t-189 559q0 552 423 699q120 42 261 42q242 0 385 -69q4 -166 -29 -349h-49l-107 295q-39 20 -182 21q-221 0 -367 -165t-147 -466q0 -301 147 -474t406 -173q139 0 174 39
l96 250h49q27 -137 21 -308q-109 -84 -352 -84z" />
    <glyph glyph-name="ccircumflex" unicode="&#x109;" horiz-adv-x="950" 
d="M524 1434l-184 -222l-55 31l225 381q25 12 45 0l233 -379l-53 -33zM86 515q0 253 125 393t331 140t322 -61q-16 -184 -63 -289h-49l-86 244q-31 20 -97 21q-151 0 -225 -108t-74 -343q0 -166 94 -290t263 -124q127 0 215 70l26 -27q-41 -73 -123 -119t-186 -47
q-231 -1 -352 143t-121 397z" />
    <glyph glyph-name="Cdotaccent" unicode="&#x10a;" horiz-adv-x="1316" 
d="M651 1673q0 51 36 80t90 29t89 -29t35 -80t-35 -80t-89 -29t-90 30q-36 28 -36 79zM840 -25q-352 1 -540 183t-189 559q0 552 423 699q120 42 261 42q242 0 385 -69q4 -166 -29 -349h-49l-107 295q-39 20 -182 21q-221 0 -367 -165t-147 -466q0 -301 147 -474t406 -173
q139 0 174 39l96 250h49q27 -137 21 -308q-109 -84 -352 -84z" />
    <glyph glyph-name="cdotaccent" unicode="&#x10b;" horiz-adv-x="950" 
d="M412 1374q0 53 34 85q36 32 92 32t90 -32t34 -85t-34 -85t-90 -32t-92 32q-34 32 -34 85zM86 515q0 253 125 393t331 140t322 -61q-16 -184 -63 -289h-49l-86 244q-31 20 -97 21q-151 0 -225 -108t-74 -343q0 -166 94 -290t263 -124q127 0 215 70l26 -27
q-41 -73 -123 -119t-186 -47q-231 -1 -352 143t-121 397z" />
    <glyph glyph-name="Ccaron" unicode="&#x10c;" horiz-adv-x="1316" 
d="M793 1704l225 113q33 0 49 -33l-260 -230q-25 -12 -45 0l-256 224q23 39 49 39zM840 -25q-352 1 -540 183t-189 559q0 552 423 699q120 42 261 42q242 0 385 -69q4 -166 -29 -349h-49l-107 295q-39 20 -182 21q-221 0 -367 -165t-147 -466q0 -301 147 -474t406 -173
q139 0 174 39l96 250h49q27 -137 21 -308q-109 -84 -352 -84z" />
    <glyph glyph-name="ccaron" unicode="&#x10d;" horiz-adv-x="950" 
d="M528 1411l205 221q41 0 55 -30l-251 -381q-25 -12 -45 0l-248 378q18 33 67 33zM86 515q0 253 125 393t331 140t322 -61q-16 -184 -63 -289h-49l-86 244q-31 20 -97 21q-151 0 -225 -108t-74 -343q0 -166 94 -290t263 -124q127 0 215 70l26 -27q-41 -73 -123 -119
t-186 -47q-231 -1 -352 143t-121 397z" />
    <glyph glyph-name="Dcaron" unicode="&#x10e;" horiz-adv-x="1443" 
d="M608 1704l226 113q33 0 49 -33l-260 -230q-25 -12 -45 0l-256 224q23 39 49 39zM575 1348q-128 0 -174 -11v-1245q53 -8 217 -8t287 94t173 236t50 320q0 179 -74 331q-138 283 -479 283zM61 0v57q72 33 168 49v1221q-100 23 -168 49v58h205l348 16q344 0 532 -187
t187 -527t-193 -548q-192 -207 -569 -206l-317 18h-193z" />
    <glyph glyph-name="dcaron" unicode="&#x10f;" horiz-adv-x="1126" 
d="M1067 1094l-39 20q88 188 88 391l23 31q31 4 84 -11t75 -34q-16 -105 -86 -215t-145 -182zM522 98q197 0 248 240v582q-68 36 -206 36t-216 -122t-78 -314t64 -307t188 -115zM489 -25q-403 0 -403 533q0 256 125 395t344 139q125 0 215 -32v391l-156 16v49q102 43 279 74
h49v-1425l135 -17v-41q-137 -66 -237 -77h-49l-19 223h-8q-24 -94 -98 -161t-177 -67z" />
    <glyph glyph-name="Dcroat" unicode="&#x110;" horiz-adv-x="1443" 
d="M575 1348q-128 0 -174 -11v-555h344v-102h-344v-588q53 -8 217 -8t287 94t173 236t50 320q0 179 -74 331q-138 283 -479 283zM61 0v57q72 33 168 49v574h-184v102h184v545q-100 23 -168 49v58h205l348 16q344 0 532 -187t187 -527t-193 -548q-192 -207 -569 -206l-317 18
h-193z" />
    <glyph glyph-name="dcroat" unicode="&#x111;" horiz-adv-x="1126" 
d="M522 98q197 0 248 240v582q-68 36 -206 36t-216 -122t-78 -314t64 -307t188 -115zM455 1171v103h315v127l-156 16v49q102 43 279 74h49v-266h193v-103h-193v-1056l135 -17v-41q-137 -66 -237 -77h-49l-19 223h-8q-24 -94 -98 -161t-177 -67q-403 0 -403 533
q0 256 125 395t344 139q125 0 215 -32v161h-315z" />
    <glyph glyph-name="Emacron" unicode="&#x112;" horiz-adv-x="1185" 
d="M924 1616h-613v102h613v-102zM61 1434h959q-4 -199 -21 -328h-49l-84 225h-452v-549h342l80 152h49q12 -203 0 -410h-49l-80 156h-342v-578h479l98 246h49q29 -199 21 -348h-1000v57q72 33 168 49v1221q-86 16 -168 49v58z" />
    <glyph glyph-name="emacron" unicode="&#x113;" horiz-adv-x="1021" 
d="M786 1309h-510v102h510v-102zM532 963q-118 0 -180 -84t-76 -279h463q15 166 -37 264t-170 99zM86 516q0 254 120 393t337 140q176 0 293 -116t73 -419h-639q2 -186 90 -301t261 -115q73 0 147 22t109 52l28 -31q-33 -69 -130 -117t-202 -49q-235 -1 -361 143t-126 398z
" />
    <glyph glyph-name="Ebreve" unicode="&#x114;" horiz-adv-x="1185" 
d="M626 1554q-102 0 -184 60t-120 170q27 37 84 28q28 -48 96 -82t133 -36q157 -5 233 112q31 4 64 -26q-37 -94 -120 -160q-84 -66 -186 -66zM61 1434h959q-4 -199 -21 -328h-49l-84 225h-452v-549h342l80 152h49q12 -203 0 -410h-49l-80 156h-342v-578h479l98 246h49
q29 -199 21 -348h-1000v57q72 33 168 49v1221q-86 16 -168 49v58z" />
    <glyph glyph-name="ebreve" unicode="&#x115;" horiz-adv-x="1021" 
d="M741 1493l47 -20q-41 -102 -109 -175q-69 -72 -161 -71q-190 0 -278 250l55 24q27 -51 95 -92t130 -43q137 -4 221 127zM532 963q-118 0 -180 -84t-76 -279h463q15 166 -37 264t-170 99zM86 516q0 254 120 393t337 140q176 0 293 -116t73 -419h-639q2 -186 90 -301
t261 -115q73 0 147 22t109 52l28 -31q-33 -69 -130 -117t-202 -49q-235 -1 -361 143t-126 398z" />
    <glyph glyph-name="Edotaccent" unicode="&#x116;" horiz-adv-x="1185" 
d="M467 1673q0 51 36 80t90 29t89 -29t35 -80t-35 -80t-89 -29t-90 30q-36 28 -36 79zM61 1434h959q-4 -199 -21 -328h-49l-84 225h-452v-549h342l80 152h49q12 -203 0 -410h-49l-80 156h-342v-578h479l98 246h49q29 -199 21 -348h-1000v57q72 33 168 49v1221
q-86 16 -168 49v58z" />
    <glyph glyph-name="edotaccent" unicode="&#x117;" horiz-adv-x="1021" 
d="M406 1374q0 53 34 85q35 32 91 32q57 0 91 -32t34 -85t-34 -85t-90 -32t-92 32q-34 32 -34 85zM532 963q-118 0 -180 -84t-76 -279h463q15 166 -37 264t-170 99zM86 516q0 254 120 393t337 140q176 0 293 -116t73 -419h-639q2 -186 90 -301t261 -115q73 0 147 22t109 52
l28 -31q-33 -69 -130 -117t-202 -49q-235 -1 -361 143t-126 398z" />
    <glyph glyph-name="Eogonek" unicode="&#x118;" horiz-adv-x="1185" 
d="M61 1434h959q-4 -199 -21 -328h-49l-84 225h-452v-549h342l80 152h49q12 -203 0 -410h-49l-80 156h-342v-578h479l98 246h49q27 -117 21 -348h-92q-211 -119 -211 -276q0 -58 38 -96t104 -38t114 13v-58q-74 -57 -176 -57t-170 56t-68 150t68 166q68 73 192 140h-799v57
q72 33 168 49v1221q-86 16 -168 49v58z" />
    <glyph glyph-name="eogonek" unicode="&#x119;" horiz-adv-x="1021" 
d="M532 963q-118 0 -180 -84t-76 -279h463q15 166 -37 264t-170 99zM567 -242q0 -47 30 -86t83 -39t119 19v-64q-71 -41 -169 -41q-98 -1 -161 49t-63 130q0 145 182 249q-246 1 -374 141t-128 397t120 396t337 140q176 0 293 -116t73 -419h-639q2 -186 90 -301t261 -115
q73 0 147 22t109 52l28 -31q-39 -82 -162 -133q-176 -98 -176 -250z" />
    <glyph glyph-name="Ecaron" unicode="&#x11a;" horiz-adv-x="1185" 
d="M608 1704l226 113q33 0 49 -33l-260 -230q-25 -12 -45 0l-256 224q23 39 49 39zM61 1434h959q-4 -199 -21 -328h-49l-84 225h-452v-549h342l80 152h49q12 -203 0 -410h-49l-80 156h-342v-578h479l98 246h49q29 -199 21 -348h-1000v57q72 33 168 49v1221q-86 16 -168 49
v58z" />
    <glyph glyph-name="ecaron" unicode="&#x11b;" horiz-adv-x="1021" 
d="M524 1411l205 221q41 0 55 -30l-252 -381q-25 -12 -45 0l-247 378q18 33 67 33zM532 963q-118 0 -180 -84t-76 -279h463q15 166 -37 264t-170 99zM86 516q0 254 120 393t337 140q176 0 293 -116t73 -419h-639q2 -186 90 -301t261 -115q73 0 147 22t109 52l28 -31
q-33 -69 -130 -117t-202 -49q-235 -1 -361 143t-126 398z" />
    <glyph glyph-name="Gcircumflex" unicode="&#x11c;" horiz-adv-x="1404" 
d="M750 1659l-248 -117l-27 37l260 229q25 12 45 0l256 -223l-26 -41zM819 -25q-336 -1 -522 183t-186 559q0 195 57 341q56 146 156 231q198 169 456 169q257 0 400 -69q4 -176 -29 -349h-49l-107 295q-39 20 -182 21q-221 0 -367 -165t-147 -463q0 -298 152 -474t380 -176
q74 0 146 26t92 48v417q-78 6 -197 49v58h496v-58q-51 -35 -127 -49v-469q-86 -49 -206 -87t-216 -38z" />
    <glyph glyph-name="gcircumflex" unicode="&#x11d;" horiz-adv-x="1069" 
d="M485 1434l-184 -222l-55 31l225 381q25 12 45 0l234 -379l-54 -33zM274 719q0 -244 228 -244q115 0 171 68t56 176q1 244 -227 244t-228 -244zM811 -166q0 100 -109 149q-68 31 -184 58q-115 28 -151 41q-129 -78 -129 -211q0 -219 309 -219q264 0 264 182zM512 1049
q200 0 299 -86q121 78 256 114q25 -43 25 -112l-27 -50h-215q51 -76 51 -211t-105 -225t-294 -90q-78 0 -119 8q-3 -8 -21 -37t-18 -55q0 -45 65 -74t157 -51t188 -50q94 -28 160 -92t69 -161q2 -143 -129 -227t-343 -84t-329 74q-116 74 -116 186t61 172t195 102
q-96 45 -97 142q0 43 35 89t78 77q-113 30 -174 116t-62 195q0 145 105 237t305 93z" />
    <glyph glyph-name="Gbreve" unicode="&#x11e;" horiz-adv-x="1404" 
d="M808 1554q-102 0 -184 60t-120 170q27 37 84 28q28 -48 96 -82t133 -36q158 -5 234 112q31 4 63 -26q-37 -94 -120 -160q-84 -66 -186 -66zM819 -25q-336 -1 -522 183t-186 559q0 195 57 341q56 146 156 231q198 169 456 169q257 0 400 -69q4 -176 -29 -349h-49l-107 295
q-39 20 -182 21q-221 0 -367 -165t-147 -463q0 -298 152 -474t380 -176q74 0 146 26t92 48v417q-78 6 -197 49v58h496v-58q-51 -35 -127 -49v-469q-86 -49 -206 -87t-216 -38z" />
    <glyph glyph-name="gbreve" unicode="&#x11f;" horiz-adv-x="1069" 
d="M721 1493l47 -20q-41 -103 -110 -175t-160 -71q-190 0 -279 250l55 24q27 -51 96 -92t130 -43q137 -4 221 127zM274 719q0 -244 228 -244q115 0 171 68t56 176q1 244 -227 244t-228 -244zM811 -166q0 100 -109 149q-68 31 -184 58q-115 28 -151 41q-129 -78 -129 -211
q0 -219 309 -219q264 0 264 182zM512 1049q200 0 299 -86q121 78 256 114q25 -43 25 -112l-27 -50h-215q51 -76 51 -211t-105 -225t-294 -90q-78 0 -119 8q-3 -8 -21 -37t-18 -55q0 -45 65 -74t157 -51t188 -50q94 -28 160 -92t69 -161q2 -143 -129 -227t-343 -84t-329 74
q-116 74 -116 186t61 172t195 102q-96 45 -97 142q0 43 35 89t78 77q-113 30 -174 116t-62 195q0 145 105 237t305 93z" />
    <glyph glyph-name="Gdotaccent" unicode="&#x120;" horiz-adv-x="1404" 
d="M686 1673q0 51 36 80t90 29t89 -29t35 -80t-35 -80t-89 -29t-90 30q-36 28 -36 79zM819 -25q-336 -1 -522 183t-186 559q0 195 57 341q56 146 156 231q198 169 456 169q257 0 400 -69q4 -176 -29 -349h-49l-107 295q-39 20 -182 21q-221 0 -367 -165t-147 -463
q0 -298 152 -474t380 -176q74 0 146 26t92 48v417q-78 6 -197 49v58h496v-58q-51 -35 -127 -49v-469q-86 -49 -206 -87t-216 -38z" />
    <glyph glyph-name="gdotaccent" unicode="&#x121;" horiz-adv-x="1069" 
d="M373 1374q0 53 35 85t91 32t90 -32t34 -85t-34 -85t-90 -32t-91 32t-35 85zM274 719q0 -244 228 -244q115 0 171 68t56 176q1 244 -227 244t-228 -244zM811 -166q0 100 -109 149q-68 31 -184 58q-115 28 -151 41q-129 -78 -129 -211q0 -219 309 -219q264 0 264 182z
M512 1049q200 0 299 -86q121 78 256 114q25 -43 25 -112l-27 -50h-215q51 -76 51 -211t-105 -225t-294 -90q-78 0 -119 8q-3 -8 -21 -37t-18 -55q0 -45 65 -74t157 -51t188 -50q94 -28 160 -92t69 -161q2 -143 -129 -227t-343 -84t-329 74q-116 74 -116 186t61 172t195 102
q-96 45 -97 142q0 43 35 89t78 77q-113 30 -174 116t-62 195q0 145 105 237t305 93z" />
    <glyph glyph-name="Gcommaaccent" unicode="&#x122;" horiz-adv-x="1404" 
d="M911 -290q0 -89 -58 -162q-59 -72 -163 -103l-33 68q45 20 77 61t26 96q-45 33 -133 66q-16 59 24 112q41 53 88 56q72 -8 122 -56t50 -138zM819 -25q-336 -1 -522 183t-186 559q0 195 57 341q56 146 156 231q198 169 456 169q257 0 400 -69q4 -176 -29 -349h-49
l-107 295q-39 20 -182 21q-221 0 -367 -165t-147 -463q0 -298 152 -474t380 -176q74 0 146 26t92 48v417q-78 6 -197 49v58h496v-58q-51 -35 -127 -49v-469q-86 -49 -206 -87t-216 -38z" />
    <glyph glyph-name="gcommaaccent" unicode="&#x123;" horiz-adv-x="1069" 
d="M395 1402q-1 88 61 164t154 99l33 -68q-113 -47 -113 -153q45 -33 134 -66q16 -59 -25 -112t-88 -56q-70 8 -113 56t-43 136zM274 719q0 -244 228 -244q115 0 171 68t56 176q1 244 -227 244t-228 -244zM811 -166q0 100 -109 149q-68 31 -184 58q-115 28 -151 41
q-129 -78 -129 -211q0 -219 309 -219q264 0 264 182zM512 1049q200 0 299 -86q121 78 256 114q25 -43 25 -112l-27 -50h-215q51 -76 51 -211t-105 -225t-294 -90q-78 0 -119 8q-3 -8 -21 -37t-18 -55q0 -45 65 -74t157 -51t188 -50q94 -28 160 -92t69 -161q2 -143 -129 -227
t-343 -84t-329 74q-116 74 -116 186t61 172t195 102q-96 45 -97 142q0 43 35 89t78 77q-113 30 -174 116t-62 195q0 145 105 237t305 93z" />
    <glyph glyph-name="Hcircumflex" unicode="&#x124;" horiz-adv-x="1482" 
d="M735 1659l-248 -117l-26 37l260 229q25 12 45 0l256 -223l-27 -41zM569 0h-508v57q82 33 168 49v1221q-100 16 -168 49v58h508v-58q-74 -37 -155 -49v-541h655v541q-72 12 -156 49v58h508v-58q-55 -29 -168 -49v-1221q98 -16 168 -49v-57h-508v57q72 33 156 49v578h-655
v-578q83 -16 155 -49v-57z" />
    <glyph glyph-name="hcircumflex" unicode="&#x125;" horiz-adv-x="1189" 
d="M299 1659l-248 -117l-26 37l260 229q25 12 45 0l256 -223l-27 -41zM1153 0h-430v49q49 29 123 49v486q0 168 -48 255t-156 87t-182 -67q-73 -67 -104 -161v-600q82 -20 123 -49v-49h-430v49q66 33 135 49v1303l-155 16v49q104 43 278 74h49v-723h2q47 102 128 167t190 65
q176 -1 259 -95t83 -336v-520q90 -18 135 -49v-49z" />
    <glyph glyph-name="Hbar" unicode="&#x126;" horiz-adv-x="1482" 
d="M414 786h655v252h-655v-252zM63 1038v103h166v186q-100 16 -168 49v58h508v-58q-74 -37 -155 -49v-186h655v186q-72 12 -156 49v58h508v-58q-55 -29 -168 -49v-186h166v-103h-166v-932q98 -16 168 -49v-57h-508v57q72 33 156 49v578h-655v-578q84 -16 155 -49v-57h-508
v57q82 33 168 49v932h-166z" />
    <glyph glyph-name="hbar" unicode="&#x127;" horiz-adv-x="1189" 
d="M4 1171v103h180v127l-155 16v49q104 43 278 74h49v-266h328v-103h-328v-354h2q47 102 128 167t190 65q176 -1 259 -95t83 -336v-520q90 -18 135 -49v-49h-430v49q49 29 123 49v486q0 168 -48 255t-156 87t-182 -67q-73 -67 -104 -161v-600q82 -20 123 -49v-49h-430v49
q66 33 135 49v1073h-180z" />
    <glyph glyph-name="Itilde" unicode="&#x128;" horiz-adv-x="716" 
d="M551 1698q49 0 106 41l25 -56q-115 -113 -223 -112q-53 0 -139 35q-86 34 -136 34t-110 -51l-37 56q131 119 246 118q51 -1 135 -33t133 -32zM614 0h-512v57q80 37 164 49v1221q-80 14 -164 49v58h512v-58q-66 -31 -163 -49v-1221q85 -16 163 -49v-57z" />
    <glyph glyph-name="itilde" unicode="&#x129;" horiz-adv-x="610" 
d="M134 1333q-48 0 -105 -51l-37 55q129 119 239 119q51 0 129 -33t126 -33t106 42l24 -56q-115 -113 -219 -112q-51 0 -133 34t-130 35zM528 0h-442v49q53 29 135 49v811l-135 17v49q119 49 258 74h49v-951q88 -20 135 -49v-49z" />
    <glyph glyph-name="Imacron" unicode="&#x12a;" horiz-adv-x="716" 
d="M666 1616h-613v102h613v-102zM614 0h-512v57q80 37 164 49v1221q-80 14 -164 49v58h512v-58q-66 -31 -163 -49v-1221q85 -16 163 -49v-57z" />
    <glyph glyph-name="imacron" unicode="&#x12b;" horiz-adv-x="610" 
d="M559 1309h-510v102h510v-102zM528 0h-442v49q53 29 135 49v811l-135 17v49q119 49 258 74h49v-951q88 -20 135 -49v-49z" />
    <glyph glyph-name="Ibreve" unicode="&#x12c;" horiz-adv-x="716" 
d="M358 1554q-102 0 -184 60t-121 170q27 37 84 28q27 -48 95 -82t135 -36q157 -5 233 112q31 4 64 -26q-37 -94 -120 -160q-84 -66 -186 -66zM614 0h-512v57q80 37 164 49v1221q-80 14 -164 49v58h512v-58q-66 -31 -163 -49v-1221q85 -16 163 -49v-57z" />
    <glyph glyph-name="ibreve" unicode="&#x12d;" horiz-adv-x="610" 
d="M532 1493l48 -20q-41 -103 -110 -175t-161 -71q-190 0 -278 250l55 24q28 -51 96 -92t129 -43q137 -4 221 127zM528 0h-442v49q53 29 135 49v811l-135 17v49q119 49 258 74h49v-951q88 -20 135 -49v-49z" />
    <glyph glyph-name="Iogonek" unicode="&#x12e;" horiz-adv-x="716" 
d="M614 0h-84q-211 -119 -211 -276q0 -58 38 -96t104 -38t114 13v-58q-74 -57 -176 -57t-170 56q-67 56 -67 150t67 166q68 73 193 140h-320v57q80 37 164 49v1221q-80 14 -164 49v58h512v-58q-66 -31 -163 -49v-1221q85 -16 163 -49v-57z" />
    <glyph glyph-name="iogonek" unicode="&#x12f;" horiz-adv-x="610" 
d="M182 1374q0 53 35 85t91 32t90 -32t34 -85t-34 -85t-90 -32t-91 32t-35 85zM528 0h-79q-160 -100 -160 -242q-1 -47 29 -86t84 -39t118 19v-64q-72 -41 -169 -41q-97 -1 -161 49t-63 130q0 166 229 274h-270v49q53 29 135 49v811l-135 17v49q119 49 258 74h49v-951
q88 -20 135 -49v-49z" />
    <glyph glyph-name="Idotaccent" unicode="&#x130;" horiz-adv-x="716" 
d="M233 1673q0 51 36 80t90 29q53 0 89 -29t36 -80t-36 -80q-34 -29 -88 -29t-91 30q-36 28 -36 79zM614 0h-512v57q80 37 164 49v1221q-80 14 -164 49v58h512v-58q-66 -31 -163 -49v-1221q85 -16 163 -49v-57z" />
    <glyph glyph-name="dotlessi" unicode="&#x131;" horiz-adv-x="610" 
d="M528 0h-442v49q53 29 135 49v811l-135 17v49q119 49 258 74h49v-951q88 -20 135 -49v-49z" />
    <glyph glyph-name="Jcircumflex" unicode="&#x134;" horiz-adv-x="692" 
d="M334 1659l-248 -117l-27 37l260 229q25 12 46 0l256 -223l-27 -41zM82 1434h508v-58q-72 -33 -156 -49v-1159q0 -422 -303 -496l-20 29q71 59 105 155t34 289v1182q-111 22 -168 49v58z" />
    <glyph glyph-name="jcircumflex" unicode="&#x135;" horiz-adv-x="581" 
d="M287 1434l-185 -222l-55 31l225 381q25 12 45 0l234 -379l-53 -33zM217 49v860l-135 17v49q109 49 258 74h49v-961q0 -136 -33 -240t-86 -160q-92 -97 -176 -122l-22 37q57 29 101 140t44 306z" />
    <glyph glyph-name="Kcommaaccent" unicode="&#x136;" horiz-adv-x="1308" 
d="M788 -290q0 -89 -58 -162q-59 -72 -163 -103l-32 68q45 20 77 61t25 96q-45 33 -133 66q-16 59 24 112q41 53 88 56q72 -8 122 -56t50 -138zM778 1434h443v-58q-78 -37 -156 -49l-414 -551q377 -481 559 -678l99 -49v-49h-246l-68 49q-219 250 -479 639h-102v-582
q92 -16 155 -49v-57h-508v57q82 33 168 49v1221q-98 12 -168 49v58h508v-58q-63 -27 -155 -49v-573l123 28l389 545q-66 12 -148 49v58z" />
    <glyph glyph-name="kcommaaccent" unicode="&#x137;" horiz-adv-x="1040" 
d="M653 -288q0 -89 -61 -165q-62 -75 -154 -98l-32 68q113 47 112 153q-45 33 -133 66q-16 59 25 112t88 56q70 -8 112 -56t43 -136zM608 1024h387v-49q-78 -35 -157 -49q-176 -223 -297 -344q197 -268 385 -484l114 -49v-49h-243l-56 49q-145 182 -317 440l-68 21v-412
q70 -12 136 -49v-49h-443v49q68 33 135 49v1303l-155 16v49q70 33 278 74h49v-981h54q164 176 301 367q-50 14 -103 49v49z" />
    <glyph glyph-name="kgreenlandic" unicode="&#x138;" horiz-adv-x="1095" 
d="M662 1024h387v-49q-37 -29 -138 -60q-154 -184 -315 -346q62 -65 200 -233t203 -238l97 -49v-49h-230l-65 47q-74 86 -197 256l-133 184h-82v-389q96 -25 135 -49v-49h-442v49q55 33 135 49v828q-70 16 -135 49v49h410v-49q-41 -29 -103 -49v-389l94 20l101 111
q128 142 200 247q-83 35 -122 60v49z" />
    <glyph glyph-name="Lacute" unicode="&#x139;" horiz-adv-x="1116" 
d="M297 1575l301 254q36 4 102 -18t88 -48v-41l-458 -186zM61 1434h549v-58q-98 -37 -196 -49v-1225h479l119 328h49q31 -219 20 -430h-1020v57q70 33 168 49v1221q-98 16 -168 49v58z" />
    <glyph glyph-name="lacute" unicode="&#x13a;" horiz-adv-x="610" 
d="M174 1575l301 254q35 4 102 -18t89 -48v-41l-459 -186zM528 0h-442v49q68 33 135 49v1303l-155 16v49q94 43 278 74h49v-1442q67 -16 135 -49v-49z" />
    <glyph glyph-name="Lcommaaccent" unicode="&#x13b;" horiz-adv-x="1116" 
d="M485 -555l-32 68q45 20 77 61t25 96q-45 33 -133 66q-16 59 24 112q41 53 89 56q71 -8 121 -56t50 -138t-58 -162q-59 -72 -163 -103zM61 1434h549v-58q-98 -37 -196 -49v-1225h479l119 328h49q31 -219 20 -430h-1020v57q70 33 168 49v1221q-98 16 -168 49v58z" />
    <glyph glyph-name="lcommaaccent" unicode="&#x13c;" horiz-adv-x="610" 
d="M449 -288q0 -88 -62 -164t-154 -99l-32 68q113 47 112 153q-45 33 -133 66q-16 59 25 112t88 56q70 -8 113 -56t43 -136zM528 0h-442v49q68 33 135 49v1303l-155 16v49q94 43 278 74h49v-1442q67 -16 135 -49v-49z" />
    <glyph glyph-name="Lcaron" unicode="&#x13d;" horiz-adv-x="1116" 
d="M731 1016l-39 20q88 188 88 391l23 31q35 4 94 -16t86 -49q-16 -104 -95 -214t-157 -163zM61 1434h549v-58q-98 -37 -196 -49v-1225h479l119 328h49q31 -219 20 -430h-1020v57q70 33 168 49v1221q-98 16 -168 49v58z" />
    <glyph glyph-name="lcaron" unicode="&#x13e;" horiz-adv-x="610" 
d="M526 1094l-39 20q88 188 88 391l23 31q31 4 84 -11t76 -34q-16 -105 -86 -215t-146 -182zM528 0h-442v49q68 33 135 49v1303l-155 16v49q94 43 278 74h49v-1442q67 -16 135 -49v-49z" />
    <glyph glyph-name="Ldot" unicode="&#x13f;" horiz-adv-x="1116" 
d="M717 791q0 59 38 95t98 36t98 -36t38 -95t-38 -95t-98 -37q-60 1 -98 37t-38 95zM61 1434h549v-58q-98 -37 -196 -49v-1225h479l119 328h49q31 -219 20 -430h-1020v57q70 33 168 49v1221q-98 16 -168 49v58z" />
    <glyph glyph-name="ldot" unicode="&#x140;" horiz-adv-x="610" 
d="M475 729q0 59 38 95t98 36q61 0 99 -36t38 -95t-38 -95t-98 -36t-99 36q-38 36 -38 95zM528 0h-442v49q68 33 135 49v1303l-155 16v49q94 43 278 74h49v-1442q67 -16 135 -49v-49z" />
    <glyph glyph-name="Lslash" unicode="&#x141;" horiz-adv-x="1116" 
d="M61 1434h549v-58q-98 -37 -196 -49v-530l280 174v-131l-280 -174v-564h479l119 328h49q31 -219 20 -430h-1020v57q70 33 168 49v445l-194 -119v131l194 119v645q-98 16 -168 49v58z" />
    <glyph glyph-name="lslash" unicode="&#x142;" horiz-adv-x="659" 
d="M418 1540v-709l192 119v-131l-192 -119v-602q68 -16 135 -49v-49h-442v49q68 33 135 49v496l-197 -121v131l197 121v676l-156 16v49q94 43 279 74h49z" />
    <glyph glyph-name="Nacute" unicode="&#x143;" horiz-adv-x="1492" 
d="M666 1575l301 254q35 4 101 -18t89 -48v-41l-459 -186zM997 1434h435v-58q-82 -53 -168 -80v-1321h-109l-747 1139l-80 160h-6l18 -160v-985q90 -27 156 -72v-57h-435v57q66 41 168 72v1180q-88 33 -155 69v56h336l651 -988l94 -176h8l-10 176v850q-82 35 -156 80v58z
" />
    <glyph glyph-name="nacute" unicode="&#x144;" horiz-adv-x="1206" 
d="M535 1217l241 356q33 4 95 -11t85 -34v-39l-381 -307zM1169 0h-430v49q51 29 123 49v486q0 168 -48 255t-156 87t-182 -67q-73 -67 -103 -161v-600q66 -12 123 -49v-49h-430v49q53 29 135 49v811l-135 17v49q104 45 258 74h49v-232h2q47 102 128 167t189 65
q176 -1 259 -95t83 -336v-520q82 -14 135 -49v-49z" />
    <glyph glyph-name="Ncommaaccent" unicode="&#x145;" horiz-adv-x="1492" 
d="M889 -290q-1 -90 -59 -162t-162 -103l-33 68q45 20 77 61t25 96q-45 33 -133 66q-16 59 25 112t88 56q72 -8 122 -56t50 -138zM997 1434h435v-58q-82 -53 -168 -80v-1321h-109l-747 1139l-80 160h-6l18 -160v-985q90 -27 156 -72v-57h-435v57q66 41 168 72v1180
q-88 33 -155 69v56h336l651 -988l94 -176h8l-10 176v850q-82 35 -156 80v58z" />
    <glyph glyph-name="ncommaaccent" unicode="&#x146;" horiz-adv-x="1206" 
d="M756 -288q0 -88 -62 -164t-153 -99l-33 68q113 47 113 153q-45 33 -134 66q-16 59 25 112t88 56q70 -8 113 -56t43 -136zM1169 0h-430v49q51 29 123 49v486q0 168 -48 255t-156 87t-182 -67q-73 -67 -103 -161v-600q66 -12 123 -49v-49h-430v49q53 29 135 49v811l-135 17
v49q104 45 258 74h49v-232h2q47 102 128 167t189 65q176 -1 259 -95t83 -336v-520q82 -14 135 -49v-49z" />
    <glyph glyph-name="Ncaron" unicode="&#x147;" horiz-adv-x="1492" 
d="M752 1704l225 113q33 0 49 -33l-260 -230q-25 -12 -45 0l-256 224q23 39 49 39zM997 1434h435v-58q-82 -53 -168 -80v-1321h-109l-747 1139l-80 160h-6l18 -160v-985q90 -27 156 -72v-57h-435v57q66 41 168 72v1180q-88 33 -155 69v56h336l651 -988l94 -176h8l-10 176
v850q-82 35 -156 80v58z" />
    <glyph glyph-name="ncaron" unicode="&#x148;" horiz-adv-x="1206" 
d="M616 1411l205 221q39 0 56 -30l-252 -381q-25 -12 -45 0l-248 378q18 33 67 33zM1169 0h-430v49q51 29 123 49v486q0 168 -48 255t-156 87t-182 -67q-73 -67 -103 -161v-600q66 -12 123 -49v-49h-430v49q53 29 135 49v811l-135 17v49q104 45 258 74h49v-232h2
q47 102 128 167t189 65q176 -1 259 -95t83 -336v-520q82 -14 135 -49v-49z" />
    <glyph glyph-name="napostrophe" unicode="&#x149;" horiz-adv-x="1308" 
d="M-96 905l-33 68q82 27 132 88t42 137q-45 33 -133 66q-16 59 25 112t88 56q71 -8 121 -56t50 -141q0 -91 -80 -193q-81 -102 -212 -137zM1272 0h-430v49q51 29 123 49v486q-1 168 -49 255t-156 87t-181 -67t-104 -161v-600q66 -12 123 -49v-49h-430v49q53 29 135 49v811
l-135 17v49q104 45 258 74h49v-232h2q47 102 128 167t190 65q176 -1 259 -95t83 -336v-520q82 -14 135 -49v-49z" />
    <glyph glyph-name="Eng" unicode="&#x14a;" horiz-adv-x="1492" 
d="M496 0h-435v57q66 41 168 72v1180q-88 33 -155 69v56h336l651 -1016l94 -176h8l-10 176v878q-82 35 -156 80v58h435v-58q-82 -53 -168 -80v-1321q-4 -250 -100 -333q-50 -42 -111 -58t-158 -16l-12 51q78 18 124 51t77 115q32 82 32 217l-708 1112l-80 160h-6l18 -160
v-985q90 -27 156 -72v-57z" />
    <glyph glyph-name="eng" unicode="&#x14b;" horiz-adv-x="1206" 
d="M862 2v582q0 168 -48 255t-156 87t-182 -67q-73 -67 -103 -161v-600q66 -12 123 -49v-49h-430v49q53 29 135 49v811l-135 17v49q104 45 258 74h49v-232h2q47 102 128 167t189 65q176 -1 259 -95t83 -336v-618q0 -164 -44 -259t-116 -131t-192 -44l-10 53q114 35 152 105
t38 278z" />
    <glyph glyph-name="Omacron" unicode="&#x14c;" horiz-adv-x="1511" 
d="M1063 1616h-612v102h612v-102zM743 1356q-219 0 -323 -178t-105 -458q0 -280 119 -460q119 -182 332 -182q214 0 322 180t108 459t-117 459t-336 180zM111 717q0 329 173 535t472 206t472 -207t173 -535t-173 -534q-173 -207 -472 -207t-472 207t-173 535z" />
    <glyph glyph-name="omacron" unicode="&#x14d;" horiz-adv-x="1122" 
d="M817 1309h-510v102h510v-102zM270 523q0 -212 80 -337t246 -125q116 0 186 115t70 326t-76 336t-231 125q-127 0 -201 -114t-74 -326zM86 514q0 252 128 393t358 141t348 -140q116 -142 116 -396t-128 -395t-356 -141t-346 142q-120 144 -120 396z" />
    <glyph glyph-name="Obreve" unicode="&#x14e;" horiz-adv-x="1511" 
d="M756 1554q-102 0 -185 60q-82 60 -120 170q27 37 84 28q27 -48 95 -82t134 -36q157 -5 233 112q31 4 64 -26q-37 -94 -120 -160t-185 -66zM743 1356q-219 0 -323 -178t-105 -458q0 -280 119 -460q119 -182 332 -182q214 0 322 180t108 459t-117 459t-336 180zM111 717
q0 329 173 535t472 206t472 -207t173 -535t-173 -534q-173 -207 -472 -207t-472 207t-173 535z" />
    <glyph glyph-name="obreve" unicode="&#x14f;" horiz-adv-x="1122" 
d="M788 1493l48 -20q-41 -103 -110 -175t-161 -71q-190 0 -278 250l55 24q28 -51 96 -92t129 -43q137 -4 221 127zM270 523q0 -212 80 -337t246 -125q116 0 186 115t70 326t-76 336t-231 125q-127 0 -201 -114t-74 -326zM86 514q0 252 128 393t358 141t348 -140
q116 -142 116 -396t-128 -395t-356 -141t-346 142q-120 144 -120 396z" />
    <glyph glyph-name="Ohungarumlaut" unicode="&#x150;" horiz-adv-x="1511" 
d="M784 1587l236 232q31 5 90 -13t78 -41l-2 -20l-363 -195zM526 1591l144 228q29 5 87 -11t70 -36v-29l-266 -189zM743 1356q-219 0 -323 -178t-105 -458q0 -280 119 -460q119 -182 332 -182q214 0 322 180t108 459t-117 459t-336 180zM111 717q0 329 173 535t472 206
t472 -207t173 -535t-173 -534q-173 -207 -472 -207t-472 207t-173 535z" />
    <glyph glyph-name="ohungarumlaut" unicode="&#x151;" horiz-adv-x="1122" 
d="M584 1264l272 309q33 4 90 -13t78 -44v-25l-406 -262zM346 1260l160 313q29 4 91 -11t75 -32v-29l-283 -272zM270 523q0 -212 80 -337t246 -125q116 0 186 115t70 326t-76 336t-231 125q-127 0 -201 -114t-74 -326zM86 514q0 252 128 393t358 141t348 -140
q116 -142 116 -396t-128 -395t-356 -141t-346 142q-120 144 -120 396z" />
    <glyph glyph-name="OE" unicode="&#x152;" horiz-adv-x="1947" 
d="M774 78q123 0 217 39v1190q-119 49 -252 49q-215 0 -319 -178t-104 -458t118 -460q119 -182 340 -182zM756 -25q-299 0 -472 207t-173 535q0 329 173 535t472 206q117 0 235 -24h791q-4 -199 -21 -328h-49l-84 225h-452v-549h342l79 152h50q12 -203 0 -410h-50l-79 156
h-342v-578h479l98 246h49q29 -198 21 -348h-828q-123 -25 -239 -25z" />
    <glyph glyph-name="oe" unicode="&#x153;" horiz-adv-x="1785" 
d="M1295 963q-118 0 -180 -84t-75 -279h463q14 166 -38 264t-170 99zM561 -25q-235 -1 -355 143t-120 396t128 393t347 142q266 0 379 -179q46 84 152 131t204 47q188 1 304 -115t73 -419h-639q2 -186 90 -301t260 -115q72 0 147 22t109 52l29 -31q-33 -69 -130 -117
q-204 -100 -434 4q-118 52 -161 130q-66 -94 -169 -138t-214 -45zM270 523q0 -212 80 -337t246 -125q116 0 186 115t70 326t-76 336t-231 125q-127 0 -201 -114t-74 -326z" />
    <glyph glyph-name="Racute" unicode="&#x154;" horiz-adv-x="1290" 
d="M481 1575l301 254q35 4 102 -18t89 -48v-41l-459 -186zM557 1348q-98 0 -143 -13v-616h149q145 0 231 91q85 92 85 240t-87 223q-88 75 -235 75zM1067 1049q0 -145 -79 -245t-216 -145q150 -240 387 -550l111 -60v-49h-236l-78 57q-199 248 -346 580h-196v-531
q109 -23 176 -49v-57h-529v57q66 29 168 49v1221q-102 20 -168 49v58h177l360 16q213 0 341 -99t128 -302z" />
    <glyph glyph-name="racute" unicode="&#x155;" horiz-adv-x="776" 
d="M319 1217l242 356q33 4 95 -11t85 -34v-39l-381 -307zM760 881h-271q-76 -49 -116 -166v-617q88 -10 164 -49v-49h-471v49q55 31 135 49v811l-135 17v49q119 49 258 74h49v-211h8q43 90 136 156t198 55q27 -49 45 -119v-49z" />
    <glyph glyph-name="Rcommaaccent" unicode="&#x156;" horiz-adv-x="1290" 
d="M788 -290q0 -89 -58 -162q-59 -72 -163 -103l-32 68q45 20 77 61t25 96q-45 33 -133 66q-16 59 24 112q41 53 88 56q72 -8 122 -56t50 -138zM557 1348q-98 0 -143 -13v-616h149q145 0 231 91q85 92 85 240t-87 223q-88 75 -235 75zM1067 1049q0 -145 -79 -245t-216 -145
q150 -240 387 -550l111 -60v-49h-236l-78 57q-199 248 -346 580h-196v-531q109 -23 176 -49v-57h-529v57q66 29 168 49v1221q-102 20 -168 49v58h177l360 16q213 0 341 -99t128 -302z" />
    <glyph glyph-name="rcommaaccent" unicode="&#x157;" horiz-adv-x="776" 
d="M469 -288q0 -89 -61 -165q-62 -75 -154 -98l-33 68q113 47 113 153q-45 33 -133 66q-16 59 24 112q41 53 88 56q70 -8 113 -56t43 -136zM760 881h-271q-76 -49 -116 -166v-617q88 -10 164 -49v-49h-471v49q55 31 135 49v811l-135 17v49q119 49 258 74h49v-211h8
q43 90 136 156t198 55q27 -49 45 -119v-49z" />
    <glyph glyph-name="Rcaron" unicode="&#x158;" horiz-adv-x="1290" 
d="M588 1704l225 113q33 0 49 -33l-260 -230q-25 -12 -45 0l-256 224q23 39 49 39zM557 1348q-98 0 -143 -13v-616h149q145 0 231 91q85 92 85 240t-87 223q-88 75 -235 75zM1067 1049q0 -145 -79 -245t-216 -145q150 -240 387 -550l111 -60v-49h-236l-78 57
q-199 248 -346 580h-196v-531q109 -23 176 -49v-57h-529v57q66 29 168 49v1221q-102 20 -168 49v58h177l360 16q213 0 341 -99t128 -302z" />
    <glyph glyph-name="rcaron" unicode="&#x159;" horiz-adv-x="776" 
d="M457 1411l205 221q39 0 55 -30l-252 -381q-25 -12 -45 0l-248 378q18 33 68 33zM760 881h-271q-76 -49 -116 -166v-617q88 -10 164 -49v-49h-471v49q55 31 135 49v811l-135 17v49q119 49 258 74h49v-211h8q43 90 136 156t198 55q27 -49 45 -119v-49z" />
    <glyph glyph-name="Sacute" unicode="&#x15a;" horiz-adv-x="1093" 
d="M444 1575l301 254q35 4 102 -18t89 -48v-41l-459 -186zM495 78q129 0 220 72q90 72 90 194q0 90 -70 158t-169 114t-199 102q-100 54 -170 149t-70 227q0 166 115 265t305 99q254 0 389 -67q-8 -160 -49 -349h-49l-82 281q-74 33 -198 33t-188 -62t-64 -148
q0 -88 37 -142q61 -87 239 -176q178 -88 252 -147q149 -122 149 -304t-131 -292t-358 -110q-122 0 -222 29t-149 68q8 186 49 368h49l84 -301q61 -61 190 -61z" />
    <glyph glyph-name="sacute" unicode="&#x15b;" horiz-adv-x="882" 
d="M332 1217l241 356q33 4 95 -11t86 -34v-39l-381 -307zM404 61q88 0 146 50q58 49 58 117t-50 118t-122 89q-72 38 -144 82t-123 115q-50 72 -50 172t91 172t220 73q184 0 311 -45q-20 -164 -49 -267h-49l-76 209q-43 16 -117 16t-116 -46t-43 -106q0 -105 172 -198
l143 -80q74 -44 124 -108t50 -148q0 -135 -108 -218t-262 -83t-312 58q8 145 49 274h50l90 -223q29 -23 117 -23z" />
    <glyph glyph-name="Scircumflex" unicode="&#x15c;" horiz-adv-x="1093" 
d="M573 1659l-247 -117l-27 37l260 229q25 12 45 0l256 -223l-26 -41zM495 78q129 0 220 72q90 72 90 194q0 90 -70 158t-169 114t-199 102q-100 54 -170 149t-70 227q0 166 115 265t305 99q254 0 389 -67q-8 -160 -49 -349h-49l-82 281q-74 33 -198 33t-188 -62t-64 -148
q0 -88 37 -142q61 -87 239 -176q178 -88 252 -147q149 -122 149 -304t-131 -292t-358 -110q-122 0 -222 29t-149 68q8 186 49 368h49l84 -301q61 -61 190 -61z" />
    <glyph glyph-name="scircumflex" unicode="&#x15d;" horiz-adv-x="882" 
d="M430 1434l-184 -222l-56 31l226 381q25 12 45 0l233 -379l-53 -33zM404 61q88 0 146 50q58 49 58 117t-50 118t-122 89q-72 38 -144 82t-123 115q-50 72 -50 172t91 172t220 73q184 0 311 -45q-20 -164 -49 -267h-49l-76 209q-43 16 -117 16t-116 -46t-43 -106
q0 -105 172 -198l143 -80q74 -44 124 -108t50 -148q0 -135 -108 -218t-262 -83t-312 58q8 145 49 274h50l90 -223q29 -23 117 -23z" />
    <glyph glyph-name="Scedilla" unicode="&#x15e;" horiz-adv-x="1093" 
d="M495 78q129 0 220 72q90 72 90 194q0 90 -70 158t-169 114t-199 102q-100 54 -170 149t-70 227q0 166 115 265t305 99q254 0 389 -67q-8 -160 -49 -349h-49l-82 281q-74 33 -198 33t-188 -62t-64 -148q0 -88 37 -142q61 -87 239 -176q178 -88 252 -147q149 -122 149 -297
t-114 -283t-312 -121l-51 -134q236 -6 235 -161q1 -111 -113 -174t-249 -64v64q88 12 141 47t51 92q-2 102 -186 114l72 211q-109 4 -200 33t-134 64q8 186 49 368h49l84 -301q61 -61 190 -61z" />
    <glyph glyph-name="scedilla" unicode="&#x15f;" horiz-adv-x="923" 
d="M419 61q103 0 167 50q64 49 63 113q0 113 -105 173q-46 27 -143 68t-177 99q-107 84 -105 231q0 111 92 183t240 71q205 0 331 -45q-20 -164 -49 -267h-49l-76 209q-43 16 -134 16t-137 -44q-46 -45 -46 -110t54 -114t133 -81q79 -33 157 -69t132 -102t54 -159
q0 -135 -99 -217t-267 -89l-43 -116q207 -6 213 -146q1 -109 -103 -171t-225 -56v59q178 25 174 131q-2 56 -43 80t-127 29l66 190q-145 10 -269 56q8 145 49 274h50l90 -223q29 -23 132 -23z" />
    <glyph glyph-name="Scaron" unicode="&#x160;" horiz-adv-x="1093" 
d="M567 1704l226 113q33 0 49 -33l-260 -230q-25 -12 -45 0l-256 224q23 39 49 39zM495 78q129 0 220 72q90 72 90 194q0 90 -70 158t-169 114t-199 102q-100 54 -170 149t-70 227q0 166 115 265t305 99q254 0 389 -67q-8 -160 -49 -349h-49l-82 281q-74 33 -198 33
t-188 -62t-64 -148q0 -88 37 -142q61 -87 239 -176q178 -88 252 -147q149 -122 149 -304t-131 -292t-358 -110q-122 0 -222 29t-149 68q8 186 49 368h49l84 -301q61 -61 190 -61z" />
    <glyph glyph-name="scaron" unicode="&#x161;" horiz-adv-x="882" 
d="M455 1411l204 221q41 0 56 -30l-252 -381q-25 -12 -45 0l-248 378q18 33 68 33zM404 61q88 0 146 50q58 49 58 117t-50 118t-122 89q-72 38 -144 82t-123 115q-50 72 -50 172t91 172t220 73q184 0 311 -45q-20 -164 -49 -267h-49l-76 209q-43 16 -117 16t-116 -46
t-43 -106q0 -105 172 -198l143 -80q74 -44 124 -108t50 -148q0 -135 -108 -218t-262 -83t-312 58q8 145 49 274h50l90 -223q29 -23 117 -23z" />
    <glyph glyph-name="Tcedilla" unicode="&#x162;" horiz-adv-x="1257" 
d="M909 0h-241l-60 -154q236 -6 236 -161q0 -111 -114 -174t-249 -64v64q88 12 142 47q53 35 51 92q-2 102 -187 114l80 236h-219v57q109 37 189 49v1225h-322l-104 -287h-50q-14 117 -20 390h1176q-6 -272 -21 -390h-49l-105 287h-321v-1225q125 -22 188 -49v-57z" />
    <glyph glyph-name="tcedilla" unicode="&#x163;" horiz-adv-x="753" 
d="M33 926v49q78 49 164 69v177q84 74 147 73h25v-270h311v-98h-311v-602q0 -121 38 -173t119 -53q121 0 189 25l14 -27q-39 -43 -120 -82t-163 -39q-18 0 -26 2l-43 -116q207 -6 213 -146q2 -109 -102 -171t-226 -56v59q178 25 174 131q-2 56 -43 80t-127 29l70 207
q-139 49 -139 276v656h-164z" />
    <glyph glyph-name="Tcaron" unicode="&#x164;" horiz-adv-x="1257" 
d="M635 1704l225 113q33 0 49 -33l-260 -230q-25 -12 -45 0l-256 224q23 39 49 39zM909 0h-561v57q109 37 189 49v1225h-322l-104 -287h-50q-14 117 -20 390h1176q-6 -272 -21 -390h-49l-105 287h-321v-1225q125 -22 188 -49v-57z" />
    <glyph glyph-name="tcaron" unicode="&#x165;" horiz-adv-x="753" 
d="M506 1094l-39 20q88 188 88 391l23 31q31 4 84 -11t75 -34q-15 -105 -85 -215t-146 -182zM33 926v49q78 49 164 69v177q37 33 122 73h50v-270h311v-98h-311v-602q0 -121 38 -173t119 -53q121 0 189 25l14 -27q-39 -43 -120 -82t-163 -39q-250 0 -249 295v656h-164z" />
    <glyph glyph-name="Tbar" unicode="&#x166;" horiz-adv-x="1298" 
d="M135 735v103h422v493h-321l-105 -287h-49q-14 117 -21 390h1176q-6 -272 -20 -390h-50l-104 287h-322v-493h422v-103h-422v-629q125 -23 189 -49v-57h-561v57q109 37 188 49v629h-422z" />
    <glyph glyph-name="tbar" unicode="&#x167;" horiz-adv-x="757" 
d="M49 926v49q78 49 164 69v156q37 33 123 74h49v-250h291v-98h-291v-308h293v-102h-293v-192q0 -126 30 -176t107 -50q121 0 189 25l14 -27q-39 -43 -120 -82t-163 -39q-121 0 -175 70t-54 225v246h-160v102h160v308h-164z" />
    <glyph glyph-name="Utilde" unicode="&#x168;" horiz-adv-x="1366" 
d="M918 1698q50 0 106 41l25 -56q-115 -113 -224 -112q-53 0 -139 35q-86 34 -136 34t-110 -51l-37 56q131 119 246 118q51 -1 135 -33t134 -32zM20 1434h508v-58q-59 -27 -155 -49v-844q0 -209 90 -297t268 -88q344 0 344 385v824q-82 27 -160 69v58h431v-58
q-82 -49 -160 -69v-828q0 -252 -126 -375q-126 -122 -366 -122t-372 116q-133 116 -134 348v881q-86 12 -168 49v58z" />
    <glyph glyph-name="utilde" unicode="&#x169;" horiz-adv-x="1165" 
d="M413 1333q-48 0 -106 -51l-37 55q129 119 240 119q51 0 129 -33t126 -33t105 42l25 -56q-115 -113 -219 -112q-51 0 -133 34t-130 35zM547 98q180 0 258 244v567l-133 17v49q127 49 256 74h49v-934l135 -17v-41q-143 -63 -235 -77h-50l-14 243h-8q-21 -92 -107 -170
t-200 -78q-174 1 -256 95t-82 336l12 503l-135 17v49q129 49 258 74h49l-12 -609q0 -172 46 -257t169 -85z" />
    <glyph glyph-name="Umacron" unicode="&#x16a;" horiz-adv-x="1366" 
d="M1026 1616h-612v102h612v-102zM20 1434h508v-58q-59 -27 -155 -49v-844q0 -209 90 -297t268 -88q344 0 344 385v824q-82 27 -160 69v58h431v-58q-82 -49 -160 -69v-828q0 -252 -126 -375q-126 -122 -366 -122t-372 116q-133 116 -134 348v881q-86 12 -168 49v58z" />
    <glyph glyph-name="umacron" unicode="&#x16b;" horiz-adv-x="1165" 
d="M838 1309h-510v102h510v-102zM547 98q180 0 258 244v567l-133 17v49q127 49 256 74h49v-934l135 -17v-41q-143 -63 -235 -77h-50l-14 243h-8q-21 -92 -107 -170t-200 -78q-174 1 -256 95t-82 336l12 503l-135 17v49q129 49 258 74h49l-12 -609q0 -172 46 -257t169 -85z
" />
    <glyph glyph-name="Ubreve" unicode="&#x16c;" horiz-adv-x="1366" 
d="M702 1554q-102 0 -184 60t-121 170q27 37 84 28q27 -48 96 -82t134 -36q157 -5 233 112q31 4 64 -26q-37 -94 -120 -160q-84 -66 -186 -66zM20 1434h508v-58q-59 -27 -155 -49v-844q0 -209 90 -297t268 -88q344 0 344 385v824q-82 27 -160 69v58h431v-58
q-82 -49 -160 -69v-828q0 -252 -126 -375q-126 -122 -366 -122t-372 116q-133 116 -134 348v881q-86 12 -168 49v58z" />
    <glyph glyph-name="ubreve" unicode="&#x16d;" horiz-adv-x="1165" 
d="M807 1493l47 -20q-41 -103 -110 -175t-160 -71q-190 0 -279 250l55 24q27 -51 96 -92t130 -43q137 -4 221 127zM547 98q180 0 258 244v567l-133 17v49q127 49 256 74h49v-934l135 -17v-41q-143 -63 -235 -77h-50l-14 243h-8q-21 -92 -107 -170t-200 -78q-174 1 -256 95
t-82 336l12 503l-135 17v49q129 49 258 74h49l-12 -609q0 -172 46 -257t169 -85z" />
    <glyph glyph-name="Uring" unicode="&#x16e;" horiz-adv-x="1366" 
d="M606 1614q0 -40 34 -60t79 -20q121 0 121 78q0 50 -35 72t-80 22q-119 0 -119 -92zM498 1616q0 78 66 125q67 47 159 47t159 -43q66 -43 66 -122t-66 -125t-161 -46q-96 0 -160 43q-63 43 -63 121zM20 1434h508v-58q-59 -27 -155 -49v-844q0 -209 90 -297t268 -88
q344 0 344 385v824q-82 27 -160 69v58h431v-58q-82 -49 -160 -69v-828q0 -252 -126 -375q-126 -122 -366 -122t-372 116q-133 116 -134 348v881q-86 12 -168 49v58z" />
    <glyph glyph-name="uring" unicode="&#x16f;" horiz-adv-x="1165" 
d="M489 1405q0 -51 27 -79t67 -28q39 0 65 26t26 77t-26 83t-66 32q-93 0 -93 -111zM387 1400q0 83 58 140q59 57 141 57t136 -52t54 -136t-57 -138t-139 -54t-138 50q-55 50 -55 133zM547 98q180 0 258 244v567l-133 17v49q127 49 256 74h49v-934l135 -17v-41
q-143 -63 -235 -77h-50l-14 243h-8q-21 -92 -107 -170t-200 -78q-174 1 -256 95t-82 336l12 503l-135 17v49q129 49 258 74h49l-12 -609q0 -172 46 -257t169 -85z" />
    <glyph glyph-name="Uhungarumlaut" unicode="&#x170;" horiz-adv-x="1366" 
d="M743 1587l236 232q31 5 90 -13t78 -41l-2 -20l-363 -195zM485 1591l144 228q29 5 87 -11t70 -36v-29l-266 -189zM20 1434h508v-58q-59 -27 -155 -49v-844q0 -209 90 -297t268 -88q344 0 344 385v824q-82 27 -160 69v58h431v-58q-82 -49 -160 -69v-828q0 -252 -126 -375
q-126 -122 -366 -122t-372 116q-133 116 -134 348v881q-86 12 -168 49v58z" />
    <glyph glyph-name="uhungarumlaut" unicode="&#x171;" horiz-adv-x="1165" 
d="M584 1264l272 309q33 4 90 -13t78 -44v-25l-406 -262zM346 1260l160 313q29 4 91 -11t75 -32v-29l-283 -272zM547 98q180 0 258 244v567l-133 17v49q127 49 256 74h49v-934l135 -17v-41q-143 -63 -235 -77h-50l-14 243h-8q-21 -92 -107 -170t-200 -78q-174 1 -256 95
t-82 336l12 503l-135 17v49q129 49 258 74h49l-12 -609q0 -172 46 -257t169 -85z" />
    <glyph glyph-name="Uogonek" unicode="&#x172;" horiz-adv-x="1366" 
d="M20 1434h508v-58q-59 -27 -155 -49v-844q0 -209 90 -297t268 -88q344 0 344 385v824q-82 27 -160 69v58h431v-58q-82 -49 -160 -69v-828q0 -360 -262 -463q-242 -123 -242 -292q0 -58 38 -96t104 -38t114 13v-58q-74 -57 -176 -57t-170 56t-68 145q0 164 230 295
q-14 -2 -43 -2q-256 0 -389 116t-134 348v881q-86 12 -168 49v58z" />
    <glyph glyph-name="uogonek" unicode="&#x173;" horiz-adv-x="1165" 
d="M498 -25q-196 0 -275 120q-63 98 -63 311l12 503l-135 17v49q199 74 282 74h25l-12 -609q0 -172 46 -257t169 -85q180 0 258 244v567l-133 17v49q127 49 256 74h49v-934l135 -17v-41l-96 -41q-190 -104 -191 -258q0 -47 31 -86t83 -39t118 19v-64q-71 -41 -169 -41
q-98 -1 -161 49t-63 130q0 150 190 254h-27l-14 243h-8q-21 -92 -107 -170t-200 -78z" />
    <glyph glyph-name="Wcircumflex" unicode="&#x174;" horiz-adv-x="1890" 
d="M979 1659l-248 -117l-26 37l260 229q25 12 45 0l256 -223l-27 -41zM1438 1434h452v-58q-74 -33 -147 -49l-340 -1327l-117 -25l-332 1129l-325 -1104l-115 -25l-358 1352q-68 12 -156 49v58h518v-58q-96 -35 -168 -49l205 -838l45 -266h4l72 271l276 940h64l299 -942
l57 -267h4l47 271l191 831q-82 12 -176 49v58z" />
    <glyph glyph-name="wcircumflex" unicode="&#x175;" horiz-adv-x="1478" 
d="M748 1434l-185 -222l-55 31l225 381q25 12 45 0l234 -379l-54 -33zM-20 1024h415v-47q-72 -41 -116 -51l182 -607l26 -147h5l30 150l221 679l58 23l235 -705l37 -147h4l31 150l160 604q-53 10 -113 49v49h344v-49q-43 -29 -117 -49l-290 -926l-101 -25l-205 588l-38 170
h-7l-47 -170l-186 -563l-98 -25l-322 951q-68 23 -108 49v49z" />
    <glyph glyph-name="Ycircumflex" unicode="&#x176;" horiz-adv-x="1306" 
d="M680 1659l-248 -117l-26 37l260 229q25 12 45 0l256 -223l-27 -41zM862 1434h445v-58q-76 -37 -156 -49l-387 -717v-504q80 -10 156 -49v-57h-508v57q74 37 168 49v502l-414 719q-74 12 -166 49v58h528v-58q-66 -27 -157 -49l340 -608l319 608q-98 22 -168 49v58z" />
    <glyph glyph-name="ycircumflex" unicode="&#x177;" horiz-adv-x="1030" 
d="M549 1434l-184 -222l-56 31l226 381q25 12 45 0l233 -379l-53 -33zM-20 1024h415v-47q-43 -29 -116 -51l266 -617l41 -127h4l31 129l198 615q-61 12 -112 49v49h344v-49q-43 -29 -117 -49l-318 -926q-116 -313 -236 -390q-52 -34 -132 -50q-33 57 -66 170l27 49h209
q27 33 43 73t51 148l-424 926q-43 10 -108 49v49z" />
    <glyph glyph-name="Ydieresis" unicode="&#x178;" horiz-adv-x="1306" 
d="M811 1616q0 45 31 70q31 24 80 24q50 0 80 -24t30 -70q0 -45 -31 -70q-31 -24 -79 -24t-80 24q-31 24 -31 70zM360 1616q0 45 31 70q31 24 80 24t80 -24t31 -70q0 -45 -31 -70q-31 -24 -80 -24t-80 24t-31 70zM862 1434h445v-58q-76 -37 -156 -49l-387 -717v-504
q80 -10 156 -49v-57h-508v57q74 37 168 49v502l-414 719q-74 12 -166 49v58h528v-58q-66 -27 -157 -49l340 -608l319 608q-98 22 -168 49v58z" />
    <glyph glyph-name="Zacute" unicode="&#x179;" horiz-adv-x="1243" 
d="M522 1575l301 254q35 4 102 -18t89 -48v-41l-459 -186zM82 0v102l856 1229h-643l-125 -287h-49q-25 188 -21 390h1041v-103l-854 -1229h680l125 287h49q27 -211 20 -389h-1079z" />
    <glyph glyph-name="zacute" unicode="&#x17a;" horiz-adv-x="993" 
d="M367 1217l241 356q33 4 95 -11t85 -34v-39l-380 -307zM90 0v49l584 889h-391l-90 -242h-50q-20 117 -20 328h758v-49l-586 -889h405l111 262h49q29 -199 21 -348h-791z" />
    <glyph glyph-name="Zdotaccent" unicode="&#x17b;" horiz-adv-x="1243" 
d="M487 1673q0 51 36 80t90 29t89 -29t35 -80t-35 -80t-89 -29t-90 30q-36 28 -36 79zM82 0v102l856 1229h-643l-125 -287h-49q-25 188 -21 390h1041v-103l-854 -1229h680l125 287h49q27 -211 20 -389h-1079z" />
    <glyph glyph-name="zdotaccent" unicode="&#x17c;" horiz-adv-x="993" 
d="M371 1374q0 53 35 85t91 32t90 -32t34 -85t-34 -85t-90 -32t-91 32t-35 85zM90 0v49l584 889h-391l-90 -242h-50q-20 117 -20 328h758v-49l-586 -889h405l111 262h49q29 -199 21 -348h-791z" />
    <glyph glyph-name="Zcaron" unicode="&#x17d;" horiz-adv-x="1243" 
d="M629 1704l225 113q33 0 49 -33l-260 -230q-25 -12 -45 0l-256 224q23 39 49 39zM82 0v102l856 1229h-643l-125 -287h-49q-25 188 -21 390h1041v-103l-854 -1229h680l125 287h49q27 -211 20 -389h-1079z" />
    <glyph glyph-name="zcaron" unicode="&#x17e;" horiz-adv-x="993" 
d="M510 1411l205 221q39 0 55 -30l-252 -381q-25 -12 -45 0l-248 378q18 33 68 33zM90 0v49l584 889h-391l-90 -242h-50q-20 117 -20 328h758v-49l-586 -889h405l111 262h49q29 -199 21 -348h-791z" />
    <glyph glyph-name="longs" unicode="&#x17f;" horiz-adv-x="694" 
d="M623 1540q119 0 182 -24q-12 -135 -43 -228h-49l-90 174q-127 0 -179 -65q-51 -66 -51 -271v-1028q106 -12 197 -49v-49h-504v49q66 37 135 49v828h-155v49q72 45 155 67v72q0 238 106 332t296 94z" />
    <glyph glyph-name="uni018F" unicode="&#x18f;" horiz-adv-x="1452" 
d="M734 78q192 0 302 145t117 434h-842q-4 -57 -4 -84q0 -213 118 -354q117 -141 309 -141zM1341 722q0 -362 -164 -554q-163 -193 -449 -193t-452 169t-165 495q0 55 6 121h1036q-10 280 -144 438t-388 158q-170 0 -224 -29l-106 -295h-49q-35 184 -27 344q168 82 412 82
q354 0 534 -187t180 -549z" />
    <glyph glyph-name="florin" unicode="&#x192;" 
d="M254 926v49q72 41 174 67l14 72q51 238 170 332t301 94q86 0 154 -31q-8 -113 -76 -172l-155 125q-62 -16 -94 -36t-70 -91q-38 -72 -66 -209l-20 -102h227q10 -47 -20 -98h-228l-131 -838q-18 -111 -57 -201q-65 -150 -175 -237q-76 -60 -151 -84l-14 37q63 31 133 147
t100 299l133 877h-149z" />
    <glyph glyph-name="uni01DD" unicode="&#x1dd;" horiz-adv-x="1054" 
d="M547 61q240 0 264 390h-502q-13 -174 53 -282t185 -108zM518 963q-84 0 -137 -21l-96 -246h-49q-43 133 -52 254q164 98 359 99q453 0 452 -537q1 -258 -119 -397t-337 -140q-178 0 -307 125q-65 63 -92 176q-28 113 -1 261h678q-1 199 -67 313t-232 113z" />
    <glyph glyph-name="Gcaron" unicode="&#x1e6;" horiz-adv-x="1404" 
d="M772 1704l225 113q33 0 50 -33l-261 -230q-25 -12 -45 0l-256 224q23 39 50 39zM819 -25q-336 -1 -522 183t-186 559q0 195 57 341q56 146 156 231q198 169 456 169q257 0 400 -69q4 -176 -29 -349h-49l-107 295q-39 20 -182 21q-221 0 -367 -165t-147 -463
q0 -298 152 -474t380 -176q74 0 146 26t92 48v417q-78 6 -197 49v58h496v-58q-51 -35 -127 -49v-469q-86 -49 -206 -87t-216 -38z" />
    <glyph glyph-name="gcaron" unicode="&#x1e7;" horiz-adv-x="1069" 
d="M510 1411l205 221q39 0 55 -30l-252 -381q-25 -12 -45 0l-248 378q18 33 68 33zM274 719q0 -244 228 -244q115 0 171 68t56 176q1 244 -227 244t-228 -244zM811 -166q0 100 -109 149q-68 31 -184 58q-115 28 -151 41q-129 -78 -129 -211q0 -219 309 -219q264 0 264 182z
M512 1049q200 0 299 -86q121 78 256 114q25 -43 25 -112l-27 -50h-215q51 -76 51 -211t-105 -225t-294 -90q-78 0 -119 8q-3 -8 -21 -37t-18 -55q0 -45 65 -74t157 -51t188 -50q94 -28 160 -92t69 -161q2 -143 -129 -227t-343 -84t-329 74q-116 74 -116 186t61 172t195 102
q-96 45 -97 142q0 43 35 89t78 77q-113 30 -174 116t-62 195q0 145 105 237t305 93z" />
    <glyph glyph-name="uni01F4" unicode="&#x1f4;" horiz-adv-x="1404" 
d="M666 1575l301 254q35 4 101 -18t89 -48v-41l-459 -186zM819 -25q-336 -1 -522 183t-186 559q0 195 57 341q56 146 156 231q198 169 456 169q257 0 400 -69q4 -176 -29 -349h-49l-107 295q-39 20 -182 21q-221 0 -367 -165t-147 -463q0 -298 152 -474t380 -176
q74 0 146 26t92 48v417q-78 6 -197 49v58h496v-58q-51 -35 -127 -49v-469q-86 -49 -206 -87t-216 -38z" />
    <glyph glyph-name="uni01F5" unicode="&#x1f5;" horiz-adv-x="1069" 
d="M446 1217l242 356q33 4 95 -11t85 -34v-39l-381 -307zM274 719q0 -244 228 -244q115 0 171 68t56 176q1 244 -227 244t-228 -244zM811 -166q0 100 -109 149q-68 31 -184 58q-115 28 -151 41q-129 -78 -129 -211q0 -219 309 -219q264 0 264 182zM512 1049q200 0 299 -86
q121 78 256 114q25 -43 25 -112l-27 -50h-215q51 -76 51 -211t-105 -225t-294 -90q-78 0 -119 8q-3 -8 -21 -37t-18 -55q0 -45 65 -74t157 -51t188 -50q94 -28 160 -92t69 -161q2 -143 -129 -227t-343 -84t-329 74q-116 74 -116 186t61 172t195 102q-96 45 -97 142
q0 43 35 89t78 77q-113 30 -174 116t-62 195q0 145 105 237t305 93z" />
    <glyph glyph-name="Aringacute" unicode="&#x1fa;" horiz-adv-x="1388" 
d="M586 1614q0 -40 34 -60t78 -20q121 0 121 78q0 50 -35 72t-79 22q-119 0 -119 -92zM610 1024l-159 -436h417l-163 440l-39 176h-4zM625 1862l301 223q36 1 102 -19t88 -47v-41l-459 -155zM477 1620q0 74 67 121t159 47q93 0 159 -43t66 -122t-62 -124t-149 -47l516 -1346
q104 -20 156 -49v-57h-512v57q98 37 167 49l-141 379h-493l-138 -379q86 -12 177 -49v-57h-449v57q74 33 147 49l517 1348q-84 8 -136 50q-51 42 -51 116z" />
    <glyph glyph-name="aringacute" unicode="&#x1fb;" horiz-adv-x="1021" 
d="M379 1575l301 254q36 4 102 -18t88 -48v-41l-458 -186zM393 1323q0 -51 27 -79q26 -28 66 -28t66 26t26 77t-26 83t-67 32q-92 0 -92 -111zM291 1318q0 83 58 140q59 58 141 58t136 -52t54 -137q0 -84 -57 -138t-139 -54t-138 50q-55 50 -55 133zM266 297q0 -99 46 -149
t131 -50t141 60t78 123v215q-232 2 -314 -48t-82 -151zM360 -25q-122 0 -200 76t-78 208t90 202t285 94q82 10 205 16q18 187 -21 289t-156 103q-84 0 -137 -21l-96 -246h-49q-43 133 -51 254q164 98 368 98t265 -109q49 -85 51 -216l-11 -457l6 -147l142 -21v-41
q-106 -55 -223 -77h-50q-27 63 -30 229h-11q-16 -92 -96 -163t-203 -71z" />
    <glyph glyph-name="AEacute" unicode="&#x1fc;" horiz-adv-x="1878" 
d="M952 1575l301 254q35 4 102 -18t89 -48v-41l-459 -186zM922 629v626h-4l-87 -190l-253 -436h344zM1106 1331v-549h342l80 152h49q12 -203 0 -410h-49l-80 156h-342v-578h479l98 246h50q29 -199 20 -348h-999v57q72 33 168 49v420h-404l-242 -420q86 -12 177 -49v-57h-453
v57q74 33 147 49l725 1231q-70 18 -118 39v58h958q-4 -199 -20 -328h-50l-83 225h-453z" />
    <glyph glyph-name="aeacute" unicode="&#x1fd;" horiz-adv-x="1583" 
d="M705 1217l241 356q33 4 95 -11t85 -34v-39l-381 -307zM1093 963q-119 0 -181 -84t-74 -279h462q14 166 -38 264t-169 99zM266 297q0 -199 178 -199q86 0 142 56t76 118v224q-232 2 -314 -48t-82 -151zM1084 1049q106 0 178 -26t133 -87q120 -120 75 -422h-639
q3 -186 91 -301t260 -115q72 0 146 22t110 52l28 -31q-33 -69 -130 -117q-98 -48 -214 -48t-234 52t-173 175q-33 -98 -129 -163t-222 -65t-204 76t-78 208t90 202t285 94q82 10 205 16q18 187 -21 289t-156 103q-84 0 -137 -21l-96 -246h-49q-43 133 -51 254q164 98 375 98
t264 -122q55 61 121 92t172 31z" />
    <glyph glyph-name="Oslashacute" unicode="&#x1fe;" horiz-adv-x="1511" 
d="M686 1575l301 254q35 4 102 -18t89 -48v-41l-459 -186zM1196 708q0 270 -100 439l-602 -961q113 -109 280 -108q206 0 314 180t108 450zM739 1356q-215 0 -319 -178t-105 -452q0 -274 105 -445l602 964q-115 111 -283 111zM111 717q0 329 173 535t472 206q193 0 342 -94
l59 96l100 -57l-69 -111q213 -207 213 -575q0 -328 -173 -535t-472 -207q-193 0 -340 91l-58 -93l-94 58l64 102q-217 205 -217 584z" />
    <glyph glyph-name="oslashacute" unicode="&#x1ff;" horiz-adv-x="1122" 
d="M479 1217l242 356q33 4 95 -11t85 -34v-39l-381 -307zM586 61q126 0 196 115q70 116 70 308t-51 307l-418 -648q78 -82 203 -82zM270 534q0 -202 58 -311l420 649q-78 90 -204 90t-200 -113t-74 -315zM86 494q0 272 128 413t347 142q160 0 260 -62l94 146l76 -50
l-98 -149q143 -136 143 -406t-128 -411t-347 -142q-145 0 -250 58l-102 -160l-74 51l103 160q-152 138 -152 410z" />
    <glyph glyph-name="Scommaaccent" unicode="&#x218;" horiz-adv-x="1093" 
d="M686 -290q0 -89 -58 -162q-59 -72 -163 -103l-33 68q45 20 77 61t26 96q-45 33 -134 66q-16 59 25 112t88 56q72 -8 122 -56t50 -138zM495 78q129 0 220 72q90 72 90 194q0 90 -70 158t-169 114t-199 102q-100 54 -170 149t-70 227q0 166 115 265t305 99q254 0 389 -67
q-8 -160 -49 -349h-49l-82 281q-74 33 -198 33t-188 -62t-64 -148q0 -88 37 -142q61 -87 239 -176q178 -88 252 -147q149 -122 149 -304t-131 -292t-358 -110q-122 0 -222 29t-149 68q8 186 49 368h49l84 -301q61 -61 190 -61z" />
    <glyph glyph-name="scommaaccent" unicode="&#x219;" horiz-adv-x="882" 
d="M551 -288q1 -88 -61 -164t-154 -99l-33 68q113 47 113 153q-45 33 -133 66q-16 59 24 112q41 53 88 56q70 -8 113 -56t43 -136zM404 61q88 0 146 50q58 49 58 117t-50 118t-122 89q-72 38 -144 82t-123 115q-50 72 -50 172t91 172t220 73q184 0 311 -45
q-20 -164 -49 -267h-49l-76 209q-43 16 -117 16t-116 -46t-43 -106q0 -105 172 -198l143 -80q74 -44 124 -108t50 -148q0 -135 -108 -218t-262 -83t-312 58q8 145 49 274h50l90 -223q29 -23 117 -23z" />
    <glyph glyph-name="Tcommaaccent" unicode="&#x21a;" horiz-adv-x="1257" 
d="M784 -290q0 -89 -58 -162q-59 -72 -163 -103l-33 68q45 20 77 61t26 96q-45 33 -133 66q-16 59 24 112q41 53 88 56q72 -8 122 -56t50 -138zM909 0h-561v57q109 37 189 49v1225h-322l-104 -287h-50q-14 117 -20 390h1176q-6 -272 -21 -390h-49l-105 287h-321v-1225
q125 -22 188 -49v-57z" />
    <glyph glyph-name="tcommaaccent" unicode="&#x21b;" horiz-adv-x="753" 
d="M530 -288q0 -89 -61 -165q-62 -75 -154 -98l-32 68q113 47 112 153q-45 33 -133 66q-16 59 25 112t88 56q71 -8 113 -56t42 -136zM33 926v49q78 49 164 69v177q37 33 122 73h50v-270h311v-98h-311v-602q0 -121 38 -173t119 -53q121 0 189 25l14 -27q-39 -43 -120 -82
t-163 -39q-250 0 -249 295v656h-164z" />
    <glyph glyph-name="uni0237" unicode="&#x237;" horiz-adv-x="581" 
d="M217 49v860l-135 17v49q109 49 258 74h49v-961q0 -136 -33 -240t-86 -160q-92 -97 -176 -122l-22 37q57 29 101 140t44 306z" />
    <glyph glyph-name="uni0259" unicode="&#x259;" horiz-adv-x="1054" 
d="M547 61q240 0 264 390h-502q-13 -174 53 -282t185 -108zM518 963q-84 0 -137 -21l-96 -246h-49q-43 133 -52 254q164 98 359 99q453 0 452 -537q1 -258 -119 -397t-337 -140q-178 0 -307 125q-65 63 -92 176q-28 113 -1 261h678q-1 199 -67 313t-232 113z" />
    <glyph glyph-name="afii57929" unicode="&#x2bc;" horiz-adv-x="593" 
d="M442 1235q0 -91 -80 -193t-212 -137l-33 68q82 27 132 88t42 137q-45 33 -133 66q-16 59 24 112q41 53 88 56q72 -8 122 -56t50 -141z" />
    <glyph glyph-name="circumflex" unicode="&#x2c6;" horiz-adv-x="749" 
d="M362 1434l-184 -222l-55 31l225 381q25 12 45 0l234 -379l-54 -33z" />
    <glyph glyph-name="caron" unicode="&#x2c7;" horiz-adv-x="790" 
d="M408 1411l204 221q39 0 56 -30l-252 -381q-25 -12 -45 0l-248 378q18 33 67 33z" />
    <glyph glyph-name="breve" unicode="&#x2d8;" horiz-adv-x="794" 
d="M625 1493l47 -20q-41 -103 -110 -175t-161 -71q-190 0 -278 250l55 24q28 -51 96 -92t129 -43q138 -4 222 127z" />
    <glyph glyph-name="dotaccent" unicode="&#x2d9;" horiz-adv-x="495" 
d="M123 1374q0 53 35 85t91 32t90 -32t34 -85t-34 -85t-90 -32t-91 32t-35 85z" />
    <glyph glyph-name="ring" unicode="&#x2da;" horiz-adv-x="634" 
d="M225 1405q0 -51 27 -79q26 -28 66 -28t66 26t26 77t-26 83t-67 32q-92 0 -92 -111zM123 1400q0 83 58 140q59 57 141 57t136 -52t54 -136t-57 -138t-139 -54t-138 50q-55 50 -55 133z" />
    <glyph glyph-name="ogonek" unicode="&#x2db;" horiz-adv-x="645" 
d="M398 -367q54 0 118 19v-64q-72 -41 -169 -41q-97 -1 -161 49t-63 130q0 196 326 315h73q-238 -111 -237 -283q-1 -47 29 -86t84 -39z" />
    <glyph glyph-name="tilde" unicode="&#x2dc;" horiz-adv-x="870" 
d="M265 1333q-48 0 -105 -51l-37 55q129 119 239 119q52 0 130 -33t126 -33t105 42l25 -56q-115 -113 -220 -112q-51 0 -133 34t-130 35z" />
    <glyph glyph-name="hungarumlaut" unicode="&#x2dd;" horiz-adv-x="923" 
d="M360 1264l273 309q33 4 90 -13t78 -44v-25l-406 -262zM123 1260l160 313q29 4 91 -11t75 -32v-29l-283 -272z" />
    <glyph glyph-name="uni02EE" unicode="&#x2ee;" horiz-adv-x="962" 
d="M811 1235q0 -91 -81 -193t-212 -137l-33 68q82 27 132 88t42 137q-45 33 -133 66q-16 59 25 112t88 56q72 -8 122 -56t50 -141zM442 1235q0 -91 -80 -193t-212 -137l-33 68q82 27 132 88t42 137q-45 33 -133 66q-16 59 24 112q41 53 88 56q72 -8 122 -56t50 -141z" />
    <glyph glyph-name="gravecomb" unicode="&#x300;" horiz-adv-x="4" 
d="M-725 1573l221 -356l-41 -35l-381 307v39q22 18 94 34t107 11z" />
    <glyph glyph-name="acutecomb" unicode="&#x301;" horiz-adv-x="4" 
d="M-618 1217l241 356q33 4 95 -11t85 -34v-39l-381 -307z" />
    <glyph glyph-name="uni0394" unicode="&#x394;" horiz-adv-x="1325" 
d="M1057 123l-428 1042l-447 -1042h875zM1284 0h-1243v61l600 1373h55l588 -1373v-61z" />
    <glyph glyph-name="uni0394" unicode="&#x2206;" horiz-adv-x="1325" 
d="M1057 123l-428 1042l-447 -1042h875zM1284 0h-1243v61l600 1373h55l588 -1373v-61z" />
    <glyph glyph-name="uni03A9" unicode="&#x3a9;" horiz-adv-x="1632" 
d="M713 0h-590q0 152 20 389h50l90 -242h323q-196 72 -322 234t-126 385q0 312 182 502t492 190t480 -181t169 -489q0 -236 -132 -406t-305 -235h304l92 242h49q20 -238 20 -389h-569v162q120 49 228 211q108 163 108 405t-115 410t-330 168q-121 0 -214 -46t-147 -126
q-108 -160 -108 -394t114 -408q114 -173 237 -220v-162z" />
    <glyph glyph-name="uni03A9" unicode="&#x2126;" horiz-adv-x="1632" 
d="M713 0h-590q0 152 20 389h50l90 -242h323q-196 72 -322 234t-126 385q0 312 182 502t492 190t480 -181t169 -489q0 -236 -132 -406t-305 -235h304l92 242h49q20 -238 20 -389h-569v162q120 49 228 211q108 163 108 405t-115 410t-330 168q-121 0 -214 -46t-147 -126
q-108 -160 -108 -394t114 -408q114 -173 237 -220v-162z" />
    <glyph glyph-name="pi" unicode="&#x3c0;" horiz-adv-x="1245" 
d="M809 -18v919h-401v-405q0 -295 -82 -496q-46 -20 -121 -12q-76 8 -76 12l-10 16q86 132 140 400t54 485h-34q-123 0 -213 -121l-25 17q39 186 159 224q54 17 132 15q356 -12 531 -12t225 9t90 44l26 -18q-8 -68 -56 -113t-130 -45h-25v-784l135 -17v-41
q-127 -57 -270 -77h-49z" />
    <glyph glyph-name="afii10023" unicode="&#x401;" horiz-adv-x="1185" 
d="M715 1616q0 45 30 70q31 24 80 24t80 -24t31 -70q0 -45 -31 -70q-31 -24 -80 -24t-80 24q-30 25 -30 70zM264 1616q0 45 31 70q31 24 80 24t80 -24t31 -70q0 -45 -32 -70q-30 -24 -79 -24t-80 24t-31 70zM61 1434h959q-4 -199 -21 -328h-49l-84 225h-452v-549h342l80 152
h49q12 -203 0 -410h-49l-80 156h-342v-578h479l98 246h49q29 -199 21 -348h-1000v57q72 33 168 49v1221q-86 16 -168 49v58z" />
    <glyph glyph-name="afii10051" unicode="&#x402;" horiz-adv-x="1525" 
d="M1444 487q0 -295 -118 -401q-58 -52 -127 -72t-165 -20l-12 51q78 18 125 53t80 127t33 248q0 313 -254 313q-166 0 -306 -86v-594q78 -20 148 -49v-57h-520v57q109 37 188 49v1225h-321l-105 -287h-49q-14 117 -21 390h1176q-6 -272 -20 -390h-50l-104 287h-322v-534
q166 92 356 92t289 -86q99 -87 99 -316z" />
    <glyph glyph-name="afii10052" unicode="&#x403;" horiz-adv-x="1030" 
d="M457 1575l301 254q36 4 102 -18t88 -48v-41l-459 -186zM414 1331v-1225q102 -16 196 -49v-57h-549v57q82 33 168 49v1221q-86 16 -168 49v58h949q-6 -289 -21 -406h-49l-104 303h-422z" />
    <glyph glyph-name="afii10053" unicode="&#x404;" horiz-adv-x="1316" 
d="M840 -25q-352 1 -540 183t-189 559q0 552 423 699q120 42 261 42q242 0 385 -69q4 -166 -29 -349h-49l-107 295q-39 20 -182 21q-211 0 -356 -152t-158 -438l686 29q23 -78 8 -154q-352 29 -694 33q13 -276 159 -436t394 -160q139 0 174 39l96 250h49q27 -137 21 -308
q-109 -84 -352 -84z" />
    <glyph glyph-name="afii10054" unicode="&#x405;" horiz-adv-x="1093" 
d="M495 78q129 0 220 72q90 72 90 194q0 90 -70 158t-169 114t-199 102q-100 54 -170 149t-70 227q0 166 115 265t305 99q254 0 389 -67q-8 -160 -49 -349h-49l-82 281q-74 33 -198 33t-188 -62t-64 -148q0 -88 37 -142q61 -87 239 -176q178 -88 252 -147q149 -122 149 -304
t-131 -292t-358 -110q-122 0 -222 29t-149 68q8 186 49 368h49l84 -301q61 -61 190 -61z" />
    <glyph glyph-name="afii10055" unicode="&#x406;" horiz-adv-x="716" 
d="M614 0h-512v57q80 37 164 49v1221q-80 14 -164 49v58h512v-58q-66 -31 -163 -49v-1221q85 -16 163 -49v-57z" />
    <glyph glyph-name="afii10056" unicode="&#x407;" horiz-adv-x="716" 
d="M614 0h-512v57q80 37 164 49v1221q-80 14 -164 49v58h512v-58q-66 -31 -163 -49v-1221q85 -16 163 -49v-57zM426 1616q0 45 31 70q31 24 80 24t79 -24t31 -70q0 -45 -31 -70q-32 -24 -80 -24t-79 24t-31 70zM70 1616q0 45 30 70q31 24 80 24t80 -24t31 -70q0 -45 -31 -70
q-31 -24 -80 -24t-80 24q-30 25 -30 70z" />
    <glyph glyph-name="afii10057" unicode="&#x408;" horiz-adv-x="692" 
d="M82 1434h508v-58q-72 -33 -156 -49v-1159q0 -422 -303 -496l-20 29q71 59 105 155t34 289v1182q-111 22 -168 49v58z" />
    <glyph glyph-name="afii10058" unicode="&#x409;" horiz-adv-x="1873" 
d="M1245 766q-98 0 -143 -12v-648q33 -10 167 -10t226 91t92 255q0 324 -342 324zM762 0v57q78 37 156 49v1225h-390q-10 -410 -47 -671q-37 -262 -82 -374t-123 -211t-213 -100q-29 37 -55 110q-27 73 -28 122l26 49l236 -41q168 272 170 1102q-129 23 -207 59v58h1077v-58
q-88 -35 -180 -49v-473q115 14 184 14q506 0 506 -422q0 -154 -81 -259q-149 -193 -451 -193l-254 6h-244z" />
    <glyph glyph-name="afii10059" unicode="&#x40a;" horiz-adv-x="2025" 
d="M1397 723q-98 0 -144 -12v-605q33 -10 169 -10t226 80q91 80 91 234t-87 233q-87 80 -255 80zM913 0v57q84 39 156 49v605h-655v-605q84 -16 155 -49v-57h-508v57q82 33 168 49v1221q-100 16 -168 49v58h508v-58q-74 -37 -155 -49v-514h655v514q-63 12 -156 49v58h521
v-58q-88 -35 -181 -49v-516q86 14 185 14q506 0 506 -407q0 -113 -46 -198t-124 -133q-153 -95 -363 -93l-254 6h-244z" />
    <glyph glyph-name="afii10060" unicode="&#x40b;" horiz-adv-x="1570" 
d="M700 1331v-534q166 92 343 92t269 -82t91 -299v-402q74 -12 147 -49v-57h-331v473q-1 154 -53 234q-52 79 -189 79t-277 -86v-594q78 -20 148 -49v-57h-520v57q109 37 188 49v1225h-321l-105 -287h-49q-14 117 -21 390h1176q-6 -272 -20 -390h-50l-104 287h-322z" />
    <glyph glyph-name="afii10061" unicode="&#x40c;" horiz-adv-x="1308" 
d="M561 1575l301 254q35 4 102 -18t89 -48v-41l-459 -186zM778 1434h443v-58q-78 -37 -156 -49l-414 -551q377 -481 559 -678l99 -49v-49h-246l-68 49q-219 250 -479 639h-102v-582q92 -16 155 -49v-57h-508v57q82 33 168 49v1221q-98 12 -168 49v58h508v-58
q-63 -27 -155 -49v-573l123 28l389 545q-66 12 -148 49v58z" />
    <glyph glyph-name="afii10062" unicode="&#x40e;" horiz-adv-x="1345" 
d="M719 1497q-180 0 -269 72t-90 188q35 37 148 45l49 -26v-177q57 -29 161 -29t163 23v183l49 26q80 0 139 -45q0 -117 -85 -189t-265 -71zM893 1434h453v-58q-51 -25 -148 -49l-401 -915q-95 -240 -179 -342t-198 -80q-45 72 -60 217l27 49l207 -53q39 35 68 141l-506 983
q-96 23 -156 49v58h528v-58q-68 -27 -168 -49l347 -692l43 -131h4l41 135l274 688q-98 14 -176 49v58z" />
    <glyph glyph-name="afii10145" unicode="&#x40f;" horiz-adv-x="1462" 
d="M569 1434v-58q-72 -33 -155 -49v-1225h635v1225q-111 20 -156 49v58h508v-58q-86 -39 -168 -49v-1221q113 -20 168 -49v-57h-580q-27 -211 -65 -389h-49q-23 119 -66 389h-580v57q82 33 168 49v1221q-96 14 -168 49v58h508z" />
    <glyph glyph-name="afii10017" unicode="&#x410;" horiz-adv-x="1388" 
d="M610 1024l-159 -436h417l-163 440l-39 176h-4zM449 0h-449v57q74 33 147 49l519 1352h49l518 -1352q104 -20 156 -49v-57h-512v57q98 37 167 49l-141 379h-493l-138 -379q87 -12 177 -49v-57z" />
    <glyph glyph-name="afii10018" unicode="&#x411;" horiz-adv-x="1218" 
d="M557 745q-98 0 -143 -12v-627q33 -10 168 -10t228 84t93 243t-88 241t-258 81zM61 0v57q80 37 168 49v1221q-78 12 -168 49v58h969q4 -176 -20 -365h-49l-105 262h-442v-497q116 14 202 14q194 0 343 -95t149 -317q0 -223 -154 -333t-383 -109l-254 6h-256z" />
    <glyph glyph-name="afii10019" unicode="&#x412;" horiz-adv-x="1251" 
d="M401 780h107q94 0 166 11q98 33 159 107q60 75 60 171q0 133 -82 204t-213 71t-197 -11v-553zM610 90q144 0 245 87t101 220q0 281 -395 281h-160v-569q65 -19 209 -19zM61 0v57q82 39 168 49v1221q-86 16 -168 49v58h205l340 12q471 0 471 -340q1 -113 -69 -209
t-201 -129v-8q141 -25 237 -111t96 -234q0 -149 -84 -247q-156 -181 -472 -180l-330 12h-193z" />
    <glyph glyph-name="afii10020" unicode="&#x413;" horiz-adv-x="1030" 
d="M414 1331v-1225q102 -16 196 -49v-57h-549v57q82 33 168 49v1221q-86 16 -168 49v58h949q-6 -289 -21 -406h-49l-104 303h-422z" />
    <glyph glyph-name="afii10021" unicode="&#x414;" horiz-adv-x="1392" 
d="M942 102v1229h-401q-23 -453 -95 -759t-153 -470h649zM1126 102h234q-4 -190 -41 -409h-49l-84 307h-1012l-84 -307h-49q-37 168 -41 409h170q106 170 179 518t75 697q-115 23 -207 59v58h1077v-58q-70 -29 -168 -49v-1225z" />
    <glyph glyph-name="afii10022" unicode="&#x415;" horiz-adv-x="1185" 
d="M61 1434h959q-4 -199 -21 -328h-49l-84 225h-452v-549h342l80 152h49q12 -203 0 -410h-49l-80 156h-342v-578h479l98 246h49q29 -199 21 -348h-1000v57q72 33 168 49v1221q-86 16 -168 49v58z" />
    <glyph glyph-name="afii10024" unicode="&#x416;" horiz-adv-x="1923" 
d="M864 770v557q-86 20 -147 49v58h467v-58q-45 -23 -135 -49v-573l143 28l348 545q-53 16 -147 49v58h442v-58q-59 -27 -156 -49l-372 -551l209 -287q190 -262 309 -391l98 -49v-49h-246l-67 49q-74 84 -144 184l-295 455h-122v-582q88 -23 135 -49v-57h-467v57
q61 33 147 49v599l-123 -29l-286 -445q-68 -98 -142 -182l-67 -49h-246v49l98 49q233 252 514 660l-389 569q-78 20 -145 49v58h442v-58q-61 -29 -139 -49l352 -557h131z" />
    <glyph glyph-name="afii10025" unicode="&#x417;" horiz-adv-x="1128" 
d="M1020 408q0 -211 -152 -322t-375 -111q-222 0 -387 80q-2 98 50 338h49l86 -284q57 -31 205 -31t244 92t96 236t-88 214q-88 69 -226 68l-157 -22q-12 61 -3 114h66q94 0 166 11q198 69 198 297q0 116 -78 192q-79 76 -212 76t-168 -39l-107 -250h-49q-25 141 -20 307
q109 84 322 84q497 0 497 -356q-1 -106 -63 -195q-62 -90 -187 -139v-8q293 -51 293 -352z" />
    <glyph glyph-name="afii10026" unicode="&#x418;" horiz-adv-x="1503" 
d="M569 0h-508v57q82 37 168 49v1221q-104 23 -168 49v58h508v-58q-80 -37 -155 -49v-901l-21 -154l99 162l608 844v49q-96 20 -166 49v58h508v-58q-57 -27 -168 -49v-1221q96 -16 168 -49v-57h-508v57q88 37 156 49v900l20 151l-90 -151l-617 -854v-46q84 -14 166 -49v-57z
" />
    <glyph glyph-name="afii10027" unicode="&#x419;" horiz-adv-x="1503" 
d="M766 1497q-180 0 -269 72t-89 188q35 37 147 45l49 -26v-177q58 -29 162 -29t162 23v183l49 26q80 0 139 -45q0 -117 -85 -189t-265 -71zM569 0h-508v57q82 37 168 49v1221q-104 23 -168 49v58h508v-58q-80 -37 -155 -49v-901l-21 -154l99 162l608 844v49q-96 20 -166 49
v58h508v-58q-57 -27 -168 -49v-1221q96 -16 168 -49v-57h-508v57q88 37 156 49v900l20 151l-90 -151l-617 -854v-46q84 -14 166 -49v-57z" />
    <glyph glyph-name="afii10028" unicode="&#x41a;" horiz-adv-x="1308" 
d="M778 1434h443v-58q-78 -37 -156 -49l-414 -551q377 -481 559 -678l99 -49v-49h-246l-68 49q-219 250 -479 639h-102v-582q92 -16 155 -49v-57h-508v57q82 33 168 49v1221q-98 12 -168 49v58h508v-58q-63 -27 -155 -49v-573l123 28l389 545q-66 12 -148 49v58z" />
    <glyph glyph-name="afii10029" unicode="&#x41b;" horiz-adv-x="1331" 
d="M205 1434h1065v-58q-68 -33 -168 -49v-1221q96 -16 168 -49v-57h-508v57q57 27 156 49v1225h-390q-10 -410 -47 -671q-37 -262 -82 -374t-123 -211t-213 -100q-29 37 -55 110q-27 73 -28 122l26 49l236 -41q168 273 170 1102q-129 23 -207 59v58z" />
    <glyph glyph-name="afii10030" unicode="&#x41c;" horiz-adv-x="1761" 
d="M1698 0h-496v57q66 27 166 49v928l8 240h-16l-68 -219l-424 -1055h-49l-399 1057l-74 239h-18l2 -260v-932q72 -14 153 -47v-57h-420v57q80 33 166 49v1221q-90 16 -168 49v58h404l362 -949l70 -211h2l72 215l372 945h357v-58q-72 -33 -156 -49v-1223q93 -16 154 -47v-57
z" />
    <glyph glyph-name="afii10031" unicode="&#x41d;" horiz-adv-x="1482" 
d="M569 0h-508v57q82 33 168 49v1221q-100 16 -168 49v58h508v-58q-74 -37 -155 -49v-541h655v541q-72 12 -156 49v58h508v-58q-55 -29 -168 -49v-1221q98 -16 168 -49v-57h-508v57q72 33 156 49v578h-655v-578q83 -16 155 -49v-57z" />
    <glyph glyph-name="afii10032" unicode="&#x41e;" horiz-adv-x="1511" 
d="M743 1356q-219 0 -323 -178t-105 -458q0 -280 119 -460q119 -182 332 -182q214 0 322 180t108 459t-117 459t-336 180zM111 717q0 329 173 535t472 206t472 -207t173 -535t-173 -534q-173 -207 -472 -207t-472 207t-173 535z" />
    <glyph glyph-name="afii10033" unicode="&#x41f;" horiz-adv-x="1462" 
d="M569 0h-508v57q72 35 168 49v1221q-86 16 -168 49v58h1340v-58q-55 -29 -168 -49v-1221q82 -10 168 -49v-57h-508v57q45 29 156 49v1225h-635v-1225q83 -16 155 -49v-57z" />
    <glyph glyph-name="afii10034" unicode="&#x420;" horiz-adv-x="1210" 
d="M557 1348q-98 0 -143 -13v-667q33 -10 170 -10t238 87q102 87 102 259t-96 258t-271 86zM1128 1019q0 -236 -162 -350t-395 -114q-118 0 -157 8v-457q111 -16 196 -49v-57h-549v57q61 29 168 49v1221q-78 12 -168 49v58h177l360 16q211 0 370 -97q160 -98 160 -334z" />
    <glyph glyph-name="afii10035" unicode="&#x421;" horiz-adv-x="1316" 
d="M840 -25q-352 1 -540 183t-189 559q0 552 423 699q120 42 261 42q242 0 385 -69q4 -166 -29 -349h-49l-107 295q-39 20 -182 21q-221 0 -367 -165t-147 -466q0 -301 147 -474t406 -173q139 0 174 39l96 250h49q27 -137 21 -308q-109 -84 -352 -84z" />
    <glyph glyph-name="afii10036" unicode="&#x422;" horiz-adv-x="1257" 
d="M909 0h-561v57q109 37 189 49v1225h-322l-104 -287h-50q-14 117 -20 390h1176q-6 -272 -21 -390h-49l-105 287h-321v-1225q125 -22 188 -49v-57z" />
    <glyph glyph-name="afii10037" unicode="&#x423;" horiz-adv-x="1345" 
d="M893 1434h453v-58q-51 -25 -148 -49l-401 -915q-95 -240 -179 -342t-198 -80q-45 72 -60 217l27 49l207 -53q39 35 68 141l-506 983q-96 23 -156 49v58h528v-58q-68 -27 -168 -49l347 -692l43 -131h4l41 135l274 688q-98 14 -176 49v58z" />
    <glyph glyph-name="afii10038" unicode="&#x424;" horiz-adv-x="1595" 
d="M614 313q61 0 101 11v813q-49 6 -101 6q-145 0 -248 -110q-104 -110 -104 -307t98 -305t254 -108zM995 1143q-70 0 -114 -13v-811q27 -6 100 -6q150 0 251 108t101 307t-89 307t-249 108zM567 1434h451v-58q-51 -29 -135 -49v-104q57 14 170 14q201 0 331 -136t129 -373
q0 -237 -148 -373t-347 -136q-92 0 -135 14v-127q88 -20 135 -49v-57h-451v57q59 31 146 47v125q-61 -10 -170 -10q-186 0 -324 126q-137 126 -137 368t146 383t356 141q88 0 129 -8v98q-87 18 -146 49v58z" />
    <glyph glyph-name="afii10039" unicode="&#x425;" horiz-adv-x="1359" 
d="M801 1434h467v-58q-68 -27 -156 -49l-360 -559l419 -662q98 -16 168 -49v-57h-530v57q74 37 156 49l-328 521l-315 -523q111 -16 165 -47v-57h-467v57q55 29 154 49l399 615l-385 606q-74 18 -163 49v58h530v-58q-74 -29 -158 -49l291 -469l283 469q-92 20 -170 49v58z
" />
    <glyph glyph-name="afii10040" unicode="&#x426;" horiz-adv-x="1488" 
d="M61 0v57q57 27 168 49v1221q-86 12 -168 49v58h508v-58q-63 -29 -155 -49v-1225h624v1225q-80 12 -155 49v58h508v-58q-78 -33 -168 -49v-1225h233q-4 -190 -41 -409h-49l-84 307h-1221z" />
    <glyph glyph-name="afii10041" unicode="&#x427;" horiz-adv-x="1292" 
d="M1231 0h-508v57q90 39 188 49v531q-166 -92 -354 -92t-289 83q-100 83 -100 298v401q-74 12 -148 49v58h467v-58q-76 -37 -135 -49v-366q0 -313 254 -314q166 0 305 86v594q-76 20 -147 49v58h467v-58q-59 -29 -135 -49v-1221q72 -14 135 -49v-57z" />
    <glyph glyph-name="afii10042" unicode="&#x428;" horiz-adv-x="1888" 
d="M719 1434h455v-58q-68 -33 -136 -49v-1225h461v1225q-68 14 -139 49v58h467v-58q-59 -27 -144 -49v-1221q84 -16 144 -49v-57h-1766v57q78 37 148 49v1221q-78 16 -148 49v58h467v-58q-55 -29 -135 -49v-1225h461v1225q-78 22 -135 49v58z" />
    <glyph glyph-name="afii10043" unicode="&#x429;" horiz-adv-x="1949" 
d="M61 0v57q78 37 148 49v1221q-78 12 -148 49v58h467v-58q-55 -29 -135 -49v-1225h461v1225q-94 27 -135 49v58h455v-58q-41 -29 -136 -49v-1225h461v1225q-70 14 -139 49v58h467v-58q-55 -33 -144 -49v-1225h234q-4 -190 -41 -409h-49l-84 307h-1682z" />
    <glyph glyph-name="afii10044" unicode="&#x42a;" horiz-adv-x="1466" 
d="M813 766q-98 0 -143 -12v-648q33 -10 149 -10q158 0 259 88t102 265q0 317 -367 317zM317 0v57q72 33 168 49v1225h-270l-104 -287h-50q-14 118 -20 390h809v-58q-74 -27 -180 -49v-473q115 14 184 14q530 0 530 -422q0 -224 -162 -338t-395 -114l-254 6h-256z" />
    <glyph glyph-name="afii10045" unicode="&#x42b;" horiz-adv-x="1708" 
d="M557 766q-98 0 -143 -12v-648q33 -10 167 -10t226 91t92 255q0 324 -342 324zM61 0v57q80 37 168 49v1221q-86 16 -168 49v58h533v-58q-88 -35 -180 -49v-473q115 14 184 14q506 0 506 -422q0 -154 -81 -259q-149 -193 -452 -193l-254 6h-256zM1647 0h-508v57
q59 31 159 49v1221q-94 18 -159 49v58h508v-58q-72 -35 -164 -49v-1221q84 -12 164 -49v-57z" />
    <glyph glyph-name="afii10046" unicode="&#x42c;" horiz-adv-x="1210" 
d="M557 766q-98 0 -143 -12v-648q33 -10 149 -10q158 0 259 88t102 265q0 317 -367 317zM61 0v57q80 37 168 49v1221q-86 16 -168 49v58h533v-58q-88 -35 -180 -49v-473q115 14 184 14q530 0 530 -422q0 -224 -162 -338t-395 -114l-254 6h-256z" />
    <glyph glyph-name="afii10047" unicode="&#x42d;" horiz-adv-x="1292" 
d="M485 1458q341 0 519 -177t178 -564q0 -187 -56 -333q-102 -265 -367 -365q-118 -44 -251 -44q-242 0 -385 70q8 184 29 348h49l106 -295q39 -20 182 -20q201 0 351 167q149 167 151 462l-604 -62q-20 74 0 154h604q-14 274 -149 415t-369 142q-129 0 -164 -39l-106 -250
h-49q-25 141 -21 307q109 84 352 84z" />
    <glyph glyph-name="afii10048" unicode="&#x42e;" horiz-adv-x="1968" 
d="M854 696q0 -369 172 -529q96 -89 244 -89q201 0 292 176t91 457t-94 463t-324 182q-111 0 -187 -49q-194 -123 -194 -611zM569 0h-508v57q90 37 168 49v1221q-86 12 -168 49v58h508v-58q-74 -33 -155 -49v-541h245q16 300 168 486q151 186 435 186t440 -204t156 -536
t-158 -537q-158 -206 -447 -206t-439 193t-157 516h-243v-578q83 -14 155 -49v-57z" />
    <glyph glyph-name="afii10049" unicode="&#x42f;" horiz-adv-x="1290" 
d="M733 690q92 0 144 15v622q-33 10 -127 10q-352 0 -353 -321q0 -156 84 -241t252 -85zM1229 1434v-58q-74 -33 -168 -49v-1221q102 -14 168 -49v-57h-533v57q76 37 181 49v498h-211q-27 -43 -137 -249t-195 -306l-68 -49h-246v49l99 49q120 130 233 303t144 215
q-133 40 -218 140t-85 252t85 252q156 180 476 180l219 -6h256z" />
    <glyph glyph-name="afii10065" unicode="&#x430;" horiz-adv-x="1021" 
d="M266 297q0 -99 46 -149t131 -50t141 60t78 123v215q-232 2 -314 -48t-82 -151zM360 -25q-122 0 -200 76t-78 208t90 202t285 94q82 10 205 16q18 187 -21 289t-156 103q-84 0 -137 -21l-96 -246h-49q-43 133 -51 254q164 98 368 98t265 -109q49 -85 51 -216l-11 -457
l6 -147l142 -21v-41q-106 -55 -223 -77h-50q-27 63 -30 229h-11q-16 -92 -96 -163t-203 -71z" />
    <glyph glyph-name="afii10066" unicode="&#x431;" horiz-adv-x="1097" 
d="M266 537q0 -242 85 -359t213 -117t194 113t66 317t-82 305q-81 101 -228 101q-55 0 -120 -35t-107 -90q-21 -100 -21 -235zM86 535q0 666 304 839q148 84 392 84l133 103h50q-3 -68 -23 -149t-35 -109q-199 -1 -317 -19t-208 -78q-91 -60 -133 -168q-42 -109 -56 -290h10
q49 112 163 192t234 80q412 0 412 -502q0 -242 -129 -392t-340 -151q-211 0 -334 150t-123 410z" />
    <glyph glyph-name="afii10067" unicode="&#x432;" horiz-adv-x="1071" 
d="M737 779q0 87 -60 127q-59 40 -159 40t-129 -8v-395l234 20q45 23 79 76t35 140zM389 485v-399q31 -8 150 -8t181 53t62 151t-71 151q-72 52 -191 52h-131zM909 788q1 -90 -67 -150t-158 -81q125 -9 206 -75t81 -183q0 -155 -128 -231t-323 -76l-252 8h-186v49
q66 33 135 49v828q-78 16 -135 49v49h174l274 8q186 0 282 -57t97 -187z" />
    <glyph glyph-name="afii10068" unicode="&#x433;" horiz-adv-x="874" 
d="M82 1024h752q-4 -199 -21 -328h-49l-90 242h-285v-840q117 -20 184 -49v-49h-491v49q51 31 135 49v830q-76 12 -135 47v49z" />
    <glyph glyph-name="afii10069" unicode="&#x434;" horiz-adv-x="1167" 
d="M752 926h-303q-2 -520 -168 -828h471v828zM199 1024h860v-49q-55 -37 -135 -49v-828h180q2 -184 -21 -401h-49l-90 303h-764l-90 -303h-49q-20 221 -21 401h140q66 78 122 281t58 526q-66 18 -141 70v49z" />
    <glyph glyph-name="afii10070" unicode="&#x435;" horiz-adv-x="1021" 
d="M532 963q-118 0 -180 -84t-76 -279h463q15 166 -37 264t-170 99zM86 516q0 254 120 393t337 140q176 0 293 -116t73 -419h-639q2 -186 90 -301t261 -115q73 0 147 22t109 52l28 -31q-33 -69 -130 -117t-202 -49q-235 -1 -361 143t-126 398z" />
    <glyph glyph-name="afii10072" unicode="&#x436;" horiz-adv-x="1460" 
d="M1075 1024h346v-49q-33 -25 -116 -49l-277 -355l135 -188q133 -188 213 -285l84 -49v-49h-209l-57 47q-55 74 -164 251t-117 189h-100v-389q63 -16 123 -49v-49h-401v49q59 31 114 49v402l-112 -21q-7 -8 -109 -187t-162 -245l-61 -47h-205v49l96 49q80 94 201 267
l133 192q-164 190 -289 369q-53 12 -102 49v49h346v-49q-39 -29 -102 -49q70 -121 260 -377h106v377q-68 14 -114 49v49h389v-49q-47 -35 -111 -49v-389l115 20q158 211 250 369q-66 22 -103 49v49z" />
    <glyph glyph-name="afii10073" unicode="&#x437;" horiz-adv-x="964" 
d="M641 772q0 189 -201 191q-86 0 -118 -15l-93 -231h-49q-37 109 -41 266q135 66 315 66q358 0 359 -240q1 -90 -65 -157t-154 -97q116 -10 188 -76t72 -174q0 -160 -110 -245t-311 -85t-335 123l35 131h39l123 -145q43 -16 125 -16q121 0 183 70q63 70 63 166
q0 95 -38 132t-120 51l-193 -30q-16 57 0 106h209q43 19 80 75t37 134z" />
    <glyph glyph-name="afii10074" unicode="&#x438;" horiz-adv-x="1241" 
d="M82 1024h422v-49q-47 -27 -123 -49v-574l-23 -190h11l80 153l446 709h264v-49q-66 -37 -135 -49v-828q98 -27 135 -49v-49h-422v49q57 33 123 49v596l21 162h-11l-77 -154l-443 -702h-268v49q53 27 135 49v828q-80 12 -135 49v49z" />
    <glyph glyph-name="afii10075" unicode="&#x439;" horiz-adv-x="1241" 
d="M641 1149q-336 0 -336 250q59 45 148 55l49 -27v-182q51 -23 137 -23t145 17v188l50 27q88 -12 139 -55q0 -106 -77 -178t-255 -72zM82 1024h422v-49q-47 -27 -123 -49v-574l-23 -190h11l80 153l446 709h264v-49q-66 -37 -135 -49v-828q98 -27 135 -49v-49h-422v49
q57 33 123 49v596l21 162h-11l-77 -154l-443 -702h-268v49q53 27 135 49v828q-80 12 -135 49v49z" />
    <glyph glyph-name="afii10076" unicode="&#x43a;" horiz-adv-x="1095" 
d="M662 1024h387v-49q-37 -29 -138 -60q-154 -184 -315 -346q62 -65 200 -233t203 -238l97 -49v-49h-230l-65 47q-74 86 -197 256l-133 184h-82v-389q96 -25 135 -49v-49h-442v49q55 33 135 49v828q-70 16 -135 49v49h410v-49q-41 -29 -103 -49v-389l94 20l101 111
q128 142 200 247q-83 35 -122 60v49z" />
    <glyph glyph-name="afii10077" unicode="&#x43b;" horiz-adv-x="1101" 
d="M195 1024h825v-49q-66 -37 -135 -49v-828q80 -20 135 -49v-49h-430v49q49 33 123 49v840h-277q-14 -629 -174 -868q-37 -55 -82 -81t-86 -18q-78 98 -86 191l27 49l172 -41q55 90 88 303t35 432q-68 20 -135 70v49z" />
    <glyph glyph-name="afii10078" unicode="&#x43c;" horiz-adv-x="1488" 
d="M422 0h-356v49q68 33 135 49l30 807q-70 27 -135 70v49h387l213 -608l39 -142h6l43 144l226 606h372v-49q-61 -37 -135 -49l41 -828q68 -12 135 -49v-49h-422v49q49 27 123 49l-41 840h-16l-340 -938h-49l-332 938h-16l-31 -840q74 -20 123 -49v-49z" />
    <glyph glyph-name="afii10079" unicode="&#x43d;" horiz-adv-x="1241" 
d="M512 0h-430v49q47 27 135 49v828q-88 23 -135 49v49h430v-49q-45 -29 -123 -49v-365h463v365q-72 12 -123 49v49h430v-49q-55 -33 -135 -49v-828q90 -18 135 -49v-49h-430v49q53 37 123 49v377h-463v-377q70 -12 123 -49v-49z" />
    <glyph glyph-name="afii10080" unicode="&#x43e;" horiz-adv-x="1122" 
d="M270 523q0 -212 80 -337t246 -125q116 0 186 115t70 326t-76 336t-231 125q-127 0 -201 -114t-74 -326zM86 514q0 252 128 393t358 141t348 -140q116 -142 116 -396t-128 -395t-356 -141t-346 142q-120 144 -120 396z" />
    <glyph glyph-name="afii10081" unicode="&#x43f;" horiz-adv-x="1241" 
d="M512 0h-430v49q70 39 135 49v828q-92 23 -135 49v49h1077v-49q-63 -41 -135 -49v-828q70 -12 135 -49v-49h-430v49q43 31 123 49v840h-463v-840q76 -22 123 -49v-49z" />
    <glyph glyph-name="afii10082" unicode="&#x440;" horiz-adv-x="1148" 
d="M621 926q-195 0 -248 -242v-575q70 -47 207 -47t218 132q81 134 81 341q0 391 -258 391zM508 -410h-442v50q70 33 135 49v1220l-135 17v49q117 51 258 74h49v-230h2q92 229 307 230q381 0 381 -514q0 -258 -129 -409t-346 -151q-119 0 -215 41v-327q67 -10 135 -49v-50z
" />
    <glyph glyph-name="afii10083" unicode="&#x441;" horiz-adv-x="950" 
d="M86 515q0 253 125 393t331 140t322 -61q-16 -184 -63 -289h-49l-86 244q-31 20 -97 21q-151 0 -225 -108t-74 -343q0 -166 94 -290t263 -124q127 0 215 70l26 -27q-41 -73 -123 -119t-186 -47q-231 -1 -352 143t-121 397z" />
    <glyph glyph-name="afii10084" unicode="&#x442;" horiz-adv-x="1007" 
d="M725 0h-442v49q66 33 135 49v840h-197l-90 -242h-49q-16 160 -21 328h885q-4 -170 -20 -328h-49l-91 242h-196v-840q100 -26 135 -49v-49z" />
    <glyph glyph-name="afii10085" unicode="&#x443;" horiz-adv-x="1030" 
d="M-20 1024h415v-47q-43 -29 -116 -51l266 -617l41 -127h4l31 129l198 615q-61 12 -112 49v49h344v-49q-43 -29 -117 -49l-318 -926q-116 -313 -236 -390q-52 -34 -132 -50q-33 57 -66 170l27 49h209q27 33 43 73t51 148l-424 926q-43 10 -108 49v49z" />
    <glyph glyph-name="afii10086" unicode="&#x444;" horiz-adv-x="1466" 
d="M961 950q-96 0 -146 -43v-796q45 -37 145 -37t170 105t70 337t-58 333t-181 101zM514 74q90 0 137 47v794q-51 35 -151 35t-168 -98q-66 -98 -66 -297q0 -481 248 -481zM950 -410h-434v50q57 33 135 49v364q-72 -78 -178 -78q-180 0 -284 125q-103 126 -103 394t109 411
t301 144q113 0 155 -66v418l-155 16v49q119 53 270 74h49v-569q68 78 191 78q176 0 275 -120t99 -356q0 -299 -108 -449t-293 -149q-111 0 -164 64v-350q78 -12 135 -49v-50z" />
    <glyph glyph-name="afii10087" unicode="&#x445;" horiz-adv-x="1054" 
d="M1034 0h-409v47q76 43 104 51l-231 342l-234 -342q49 -18 103 -49v-49h-347v49q55 33 117 49l305 410l-307 418q-59 20 -102 49v49h401v-47q-55 -39 -102 -51l217 -314l213 314q-70 23 -103 49v49h338v-49q-36 -26 -116 -49l-281 -377l324 -451q72 -23 110 -49v-49z" />
    <glyph glyph-name="afii10088" unicode="&#x446;" horiz-adv-x="1245" 
d="M82 0v49q55 33 135 49v828q-78 12 -135 49v49h430v-49q-45 -29 -123 -49v-840h442v840q-57 12 -122 49v49h430v-49q-55 -29 -135 -49v-840h180q-4 -133 -21 -389h-49l-90 303h-942z" />
    <glyph glyph-name="afii10089" unicode="&#x447;" horiz-adv-x="1132" 
d="M33 1024h430v-49q-51 -35 -123 -49v-250q0 -215 184 -215q111 0 219 65v400q-63 12 -122 49v49h430v-49q-55 -33 -136 -49v-828q88 -20 136 -49v-49h-471v49q84 35 163 49v371q-111 -121 -284 -121q-137 0 -214 78t-77 211v289q-78 16 -135 49v49z" />
    <glyph glyph-name="afii10090" unicode="&#x448;" horiz-adv-x="1687" 
d="M930 86h368v840q-68 16 -112 49v49h420v-49q-63 -35 -136 -49v-828q78 -16 136 -49v-49h-1524v49q57 33 135 49v828q-74 10 -135 49v49h420v-49q-51 -33 -113 -49v-840h369v840q-80 23 -125 49v49h409v-49q-35 -27 -112 -49v-840z" />
    <glyph glyph-name="afii10091" unicode="&#x449;" horiz-adv-x="1712" 
d="M82 0v49q57 33 135 49v828q-72 14 -135 49v49h420v-49q-47 -33 -113 -49v-840h369v840q-63 12 -125 49v49h409v-49q-45 -33 -112 -49v-840h368v840q-68 16 -112 49v49h420v-49q-47 -29 -136 -49v-840h181q-2 -94 -21 -389h-49l-90 303h-1409z" />
    <glyph glyph-name="afii10092" unicode="&#x44a;" horiz-adv-x="1169" 
d="M221 0v49q57 33 135 49v840h-163l-91 -242h-49q-16 140 -20 328h618v-49q-43 -29 -123 -49v-320q121 16 201 17q358 0 358 -297q1 -160 -115 -247t-304 -87l-256 8h-191zM899 328q1 108 -65 158t-160 50t-146 -10v-440l111 -8q260 0 260 250z" />
    <glyph glyph-name="afii10093" unicode="&#x44b;" horiz-adv-x="1509" 
d="M1427 0h-430v49q72 35 123 49v828q-76 16 -123 49v49h430v-49q-41 -29 -135 -49v-828q82 -22 135 -49v-49zM528 536q-86 0 -139 -10v-440l111 -8q240 0 239 250q0 108 -62 158q-63 50 -149 50zM82 0v49q51 31 135 49v828q-59 6 -135 49v49h430v-49q-45 -29 -123 -49v-320
q121 16 201 17q160 0 249 -74q89 -75 89 -229t-110 -241t-290 -87l-256 8h-190z" />
    <glyph glyph-name="afii10094" unicode="&#x44c;" horiz-adv-x="1030" 
d="M760 328q0 108 -66 158t-159 50t-146 -10v-440l111 -8q260 0 260 250zM82 0v49q47 27 135 49v828q-61 12 -135 49v49h430v-49q-49 -29 -123 -49v-320q121 16 201 17q358 0 358 -297q0 -160 -116 -247t-304 -87l-256 8h-190z" />
    <glyph glyph-name="afii10095" unicode="&#x44d;" horiz-adv-x="1001" 
d="M439 -25q-207 0 -341 123l35 131h39l123 -145q43 -16 127 -16q137 0 222 112t87 303l-409 -30q-23 53 0 106h407q-16 403 -303 404q-84 0 -104 -15l-91 -252h-49q-35 115 -51 273q152 80 330 80q455 0 454 -517q-1 -274 -135 -416t-341 -141z" />
    <glyph glyph-name="afii10096" unicode="&#x44e;" horiz-adv-x="1591" 
d="M1038 963q-122 0 -192 -122t-70 -331t83 -329t204 -120q258 0 258 451t-283 451zM512 0h-430v49q47 27 135 49v828q-82 23 -135 49v49h430v-49q-49 -29 -123 -49v-365h207q10 229 132 359t334 129t328 -139t116 -395t-121 -398t-329 -141t-330 125q-122 126 -130 374
h-207v-377q70 -12 123 -49v-49z" />
    <glyph glyph-name="afii10097" unicode="&#x44f;" horiz-adv-x="1073" 
d="M684 498v440q-74 12 -143 12q-227 6 -228 -221q0 -103 80 -167t236 -64h55zM991 1024v-49q-43 -35 -135 -49v-828q78 -20 135 -49v-49h-430v49q41 27 123 49v351l-152 -21q-14 -23 -83 -150t-162 -231l-64 -47h-223v49l117 49q74 76 170 210t104 145q-106 19 -182 87
t-76 199t95 214t298 83l330 -12h135z" />
    <glyph glyph-name="afii10071" unicode="&#x451;" horiz-adv-x="1021" 
d="M649 1357q0 46 30 75q30 28 77 28t77 -28q29 -28 29 -75q0 -46 -30 -74t-76 -28q-47 0 -77 28t-30 74zM199 1357q0 46 29 75q30 28 77 28t77 -28t30 -75q0 -46 -30 -74t-77 -28t-77 28q-29 28 -29 74zM532 963q-118 0 -180 -84t-76 -279h463q15 166 -37 264t-170 99z
M86 516q0 254 120 393t337 140q176 0 293 -116t73 -419h-639q2 -186 90 -301t261 -115q73 0 147 22t109 52l28 -31q-33 -69 -130 -117t-202 -49q-235 -1 -361 143t-126 398z" />
    <glyph glyph-name="afii10099" unicode="&#x452;" horiz-adv-x="1165" 
d="M45 1120v103h139v178l-155 16v49q104 43 278 74h49v-317h430v-103h-430v-379h2q47 102 128 167t190 65q176 0 259 -94t83 -336v-541q0 -240 -86 -332t-268 -104l-11 53q115 35 154 106t39 277v506q0 168 -48 255t-156 87t-182 -67q-73 -67 -104 -160v-525q82 -20 123 -49
v-49h-430v49q66 33 135 49v1022h-139z" />
    <glyph glyph-name="afii10100" unicode="&#x453;" horiz-adv-x="874" 
d="M371 1217l241 356q34 4 96 -11t85 -34v-39l-381 -307zM82 1024h752q-4 -199 -21 -328h-49l-90 242h-285v-840q117 -20 184 -49v-49h-491v49q51 31 135 49v830q-76 12 -135 47v49z" />
    <glyph glyph-name="afii10101" unicode="&#x454;" horiz-adv-x="970" 
d="M86 515q0 249 133 391t341 142t325 -61q-16 -184 -64 -289h-49l-86 244q-31 20 -96 21q-307 0 -320 -420l404 30q23 -53 0 -106h-402q14 -153 116 -261t244 -108t230 70l27 -27q-41 -73 -123 -119t-186 -47q-234 -1 -364 145t-130 395z" />
    <glyph glyph-name="afii10102" unicode="&#x455;" horiz-adv-x="882" 
d="M404 61q88 0 146 50q58 49 58 117t-50 118t-122 89q-72 38 -144 82t-123 115q-50 72 -50 172t91 172t220 73q184 0 311 -45q-20 -164 -49 -267h-49l-76 209q-43 16 -117 16t-116 -46t-43 -106q0 -105 172 -198l143 -80q74 -44 124 -108t50 -148q0 -135 -108 -218
t-262 -83t-312 58q8 145 49 274h50l90 -223q29 -23 117 -23z" />
    <glyph glyph-name="afii10103" unicode="&#x456;" horiz-adv-x="610" 
d="M182 1374q0 53 35 85t91 32t90 -32t34 -85t-34 -85t-90 -32t-91 32t-35 85zM528 0h-442v49q53 29 135 49v811l-135 17v49q119 49 258 74h49v-951q88 -20 135 -49v-49z" />
    <glyph glyph-name="afii10104" unicode="&#x457;" horiz-adv-x="704" 
d="M575 0h-442v49q53 29 135 49v811l-135 17v49q121 49 258 74h49v-951q88 -20 135 -49v-49zM410 1373q0 50 29 83q30 33 77 33t77 -33t30 -83t-30 -82q-30 -31 -77 -31t-77 31q-29 32 -29 82zM82 1373q0 50 30 83t76 33t77 -33q30 -33 30 -83t-30 -82q-30 -31 -77 -31
q-46 0 -76 32t-30 81z" />
    <glyph glyph-name="afii10105" unicode="&#x458;" horiz-adv-x="581" 
d="M178 1374q0 53 35 85t91 32t90 -32t34 -85t-34 -85t-90 -32t-91 32t-35 85zM217 49v860l-135 17v49q109 49 258 74h49v-961q0 -136 -33 -240t-86 -160q-92 -97 -176 -122l-22 37q57 29 101 140t44 306z" />
    <glyph glyph-name="afii10106" unicode="&#x459;" horiz-adv-x="1505" 
d="M1235 328q-1 108 -63 158t-148 50t-139 -10v-440l110 -8q240 0 240 250zM590 0v49q49 33 123 49v840h-277q-14 -629 -174 -868q-37 -55 -82 -81t-86 -18q-78 98 -86 191l27 49l172 -41q55 90 88 303t35 432q-68 20 -135 70v49h825v-49q-35 -20 -135 -49v-320
q121 16 200 17q160 0 249 -74q89 -75 89 -229q1 -154 -109 -241t-290 -87l-256 8h-178z" />
    <glyph glyph-name="afii10107" unicode="&#x45a;" horiz-adv-x="1644" 
d="M1164 536q-86 0 -140 -10v-440l111 -8q240 0 239 250q0 108 -62 158t-148 50zM729 0v49q53 37 123 49v377h-463v-377q70 -12 123 -49v-49h-430v49q47 27 135 49v828q-88 23 -135 49v49h430v-49q-45 -29 -123 -49v-365h463v365q-72 12 -123 49v49h430v-49
q-35 -20 -135 -49v-320q121 16 201 17q160 0 249 -74q89 -75 89 -229t-110 -241t-290 -87l-256 8h-178z" />
    <glyph glyph-name="afii10108" unicode="&#x45b;" horiz-adv-x="1185" 
d="M45 1120v103h139v178l-155 16v49q104 43 278 74h49v-317h430v-103h-430v-379h2q47 102 128 167t190 65q176 0 259 -94t83 -336v-428l129 -17v-41q-135 -61 -252 -77h-49v528q0 168 -48 255t-156 87t-182 -67q-73 -67 -104 -160v-525q82 -20 123 -49v-49h-430v49
q66 33 135 49v1022h-139z" />
    <glyph glyph-name="afii10109" unicode="&#x45c;" horiz-adv-x="1095" 
d="M461 1217l241 356q34 4 96 -11t85 -34v-39l-381 -307zM662 1024h387v-49q-37 -29 -138 -60q-154 -184 -315 -346q62 -65 200 -233t203 -238l97 -49v-49h-230l-65 47q-74 86 -197 256l-133 184h-82v-389q96 -25 135 -49v-49h-442v49q55 33 135 49v828q-70 16 -135 49v49
h410v-49q-41 -29 -103 -49v-389l94 20l101 111q128 142 200 247q-83 35 -122 60v49z" />
    <glyph glyph-name="afii10110" unicode="&#x45e;" horiz-adv-x="1030" 
d="M555 1149q-336 0 -336 250q59 45 148 55l49 -27v-182q51 -23 137 -23t145 17v188l50 27q88 -12 139 -55q0 -106 -77 -178t-255 -72zM-20 1024h415v-47q-43 -29 -116 -51l266 -617l41 -127h4l31 129l198 615q-61 12 -112 49v49h344v-49q-43 -29 -117 -49l-318 -926
q-116 -313 -236 -390q-52 -34 -132 -50q-33 57 -66 170l27 49h209q27 33 43 73t51 148l-424 926q-43 10 -108 49v49z" />
    <glyph glyph-name="afii10193" unicode="&#x45f;" horiz-adv-x="1220" 
d="M512 1024v-49q-47 -27 -123 -49v-840h442v840q-80 18 -122 49v49h430v-49q-66 -37 -135 -49v-828q72 -8 135 -49v-49h-445q-31 -231 -59 -369h-49l-21 119l-20 135q-12 72 -19 115h-444v49q43 27 135 49v828q-66 10 -135 49v49h430z" />
    <glyph glyph-name="afii10146" unicode="&#x462;" horiz-adv-x="1445" 
d="M793 745q-98 0 -144 -12v-627q33 -10 171 -10t239 84q100 84 100 258q1 307 -366 307zM297 0v57q80 37 168 49v1053h-270l-105 -287h-49q-14 117 -21 390h445v108q-86 16 -168 49v58h532v-58q-88 -35 -180 -49v-108h525q0 -164 -21 -349h-49l-105 246h-350v-325
q115 14 185 14q530 0 530 -412q0 -267 -240 -380q-131 -62 -317 -62l-254 6h-256z" />
    <glyph glyph-name="afii10194" unicode="&#x463;" horiz-adv-x="1181" 
d="M541 86l110 -8q125 0 193 62t68 180q-1 215 -236 217q-82 -1 -135 -11v-440zM233 0v49q47 27 136 49v840h-176l-91 -242h-49q-16 160 -20 328h336v377l-156 16v49q94 43 279 74h49v-516h377q2 -70 -21 -287h-49l-111 201h-196v-332q121 16 200 17q358 0 359 -297
q0 -160 -116 -247t-304 -87l-256 8h-191z" />
    </font>
</defs>
</svg>
