<svg xmlns="http://www.w3.org/2000/svg">
<defs>
<font id="58e86747171b4812544a1cb7030cc435" horiz-adv-x='1024' >
  <font-face 
    font-family="PTSerifPro-BookItalic"
    font-weight="400"
    font-style="italic"
    font-stretch="normal"
    units-per-em="2048"
    panose-1="2 10 5 3 4 5 5 9 2 4"
    ascent="1597"
    descent="-451"
    x-height="1036"
    cap-height="1434"
    bbox="-872 -553 2251 2085.05"
    underline-thickness="102"
    underline-position="-102"
    slope="-12"
    unicode-range="U+0020-FB04"
  />
<missing-glyph horiz-adv-x="1452" 
d="M471 106q14 0 12 -14h-26q0 14 14 14zM471 66q-14 0 -14 14h43v14q0 27 -31 27t-31 -35t33 -35q17 0 25 8l-7 11q-4 -4 -18 -4zM410 78q0 -10 -14 -10t-25 6l-6 -19q20 -4 30 -4q33 0 33 29q0 16 -21 24q-22 8 -22 14t10 7q10 0 27 -4l4 16q-20 4 -27 4q-33 0 -32 -26
q0 -14 21 -24q22 -9 22 -13zM207 127h10q18 0 19 -12q0 -14 -21 -15h-8v27zM188 141v-86h19v29h10q37 0 37 29t-39 28h-27zM1325 109q14 0 12 -15h-26q0 15 14 15zM1325 68q-14 0 -14 14h43v14q0 27 -31 27t-31 -35t33 -35q17 0 25 8l-7 11q-4 -4 -18 -4zM1237 96
q0 13 13 13q14 0 14 -21t-19 -20q-4 0 -8 4v24zM1219 121v-90h18v26q4 -4 12 -4q33 0 33 35t-27 35q-12 0 -20 -10h-4l-2 8h-10zM1165 31q12 0 21 30l24 60h-18l-12 -37v-12h-2l-2 12l-15 37h-20l28 -66q-4 -10 -10 -10l-4 2l-4 -14q2 -2 14 -2zM1141 127v14h-74v-14h29v-72
h16v72h29zM1042 68q-10 0 -10 9t12 9l13 -2v-6q-5 -10 -15 -10zM1073 72v26q0 25 -24 25q-11 0 -19 -4t-10 -4l2 -11q20 4 27 4t8 -10v-4l-13 2q-31 0 -30 -24q0 -18 20 -19q16 0 23 13h2l2 -11h14q-2 2 -2 17zM1000 123q-8 0 -13 -12h-2l-2 10h-14v-66h18v41q0 10 14 10
l7 -2l4 17q-4 2 -12 2zM922 68q-10 0 -11 10q0 8 13 8h6l4 -2v-6q-2 -10 -12 -10zM934 98v-4h-4q-2 2 -6 2q-31 0 -31 -24q0 -18 20 -19q14 0 21 13l6 -11h14q-2 2 -2 17v26q0 25 -24 25q-6 0 -31 -8l4 -11q16 4 23 5q10 0 10 -11zM842 127h10q18 0 18 -13t-20 -14h-8v27z

<glyph glyph-name="IJ" unicode="IJ" horiz-adv-x="1273" 
d="M870 1376l13 58h510l-11 -58q-59 -27 -176 -49l-243 -1159q-90 -422 -410 -496l-14 29q92 70 142 158t93 286l248 1182q-84 16 -152 49zM522 57l-10 -57h-512l10 57q90 37 176 49l258 1221q-74 14 -153 49l12 58h512l-12 -58q-72 -31 -174 -49l-258 -1221q85 -16 151 -49
z" />
    <glyph glyph-name="ij" unicode="ij" horiz-adv-x="1110" 
d="M1090 1381q0 -51 -32 -79t-84 -28t-84 28t-32 79q0 50 32 80t84 30t84 -30t32 -80zM545 1381q0 -51 -32 -79t-84 -28t-84 28t-32 79q0 50 32 80t84 30t84 -30t32 -80zM643 49l182 860l-125 17v49q168 74 271 74l41 -25l-199 -936q-29 -136 -82 -240t-115 -160
q-109 -98 -192 -122l-23 43q63 31 133 139q68 108 109 301zM422 61q-94 -73 -203 -73t-109 95q0 46 23 159l146 665l-134 19v49q184 74 281 74l37 -25l-193 -913h152v-50z" />
    <glyph glyph-name="uniF374.var.accented" unicode="&#xf374;`" horiz-adv-x="1142" 
d="M678 1257l262 357q33 4 95 -11t85 -34v-39l-401 -307zM137 422q1 322 191 511t508 189q211 0 321 -53q-25 -133 -88 -283h-49l-43 232q-55 16 -148 16q-199 0 -319 -122t-158 -316l537 22q6 -74 -25 -137q-217 20 -522 29q-2 -23 -2 -70q0 -371 317 -370q100 -1 174 28
l125 203h50q4 -102 -37 -254q-123 -66 -322 -65q-272 0 -391 122t-119 318z" />
    <glyph glyph-name="uniF376.var.accented" unicode="&#xf376;`" horiz-adv-x="641" 
d="M399 1257l263 357q33 4 95 -11t85 -34v-39l-402 -307zM471 51l-10 -51h-461l10 51q68 29 148 41l196 920q-70 12 -131 43l10 49h461l-10 -49q-59 -27 -147 -43l-197 -920q80 -14 131 -41z" />
    <glyph glyph-name="uniF377.var.accented" unicode="&#xf377;`" horiz-adv-x="641" 
d="M471 51l-10 -51h-461l10 51q68 29 148 41l196 920q-70 12 -131 43l10 49h461l-10 -49q-59 -27 -147 -43l-197 -920q80 -14 131 -41zM543 1406q0 46 29 75q30 29 77 29t77 -30q30 -28 30 -74t-30 -74t-77 -28t-77 28q-29 28 -29 74zM215 1406q0 46 30 75t77 29
q46 0 76 -30q30 -28 30 -74t-30 -74t-76 -28t-77 28q-30 28 -30 74zM436 1616l357 254q35 4 97 -18t79 -48l-8 -41l-500 -186z" />
    <glyph glyph-name="uniF350.var.accented" unicode="&#xf350;`" horiz-adv-x="1183" 
d="M629 1257l262 357q33 4 95 -11t85 -34v-39l-401 -307zM592 776l-205 -321h342l-65 323l-2 137h-5zM311 51l-10 -51h-401l10 51q59 27 133 41l659 1030h60l225 -1030q82 -16 125 -41l-10 -51h-455l10 51q82 29 150 41l-59 275h-414l-166 -275q84 -14 143 -41z" />
    <glyph glyph-name="uniF355.var.accented" unicode="&#xf355;`" horiz-adv-x="1030" 
d="M473 1257l262 357q33 4 95 -11t85 -34v-39l-401 -307zM193 1104h837q-20 -104 -78 -266h-49l-35 178h-370l-86 -408h272l94 119h45q-23 -162 -69 -330h-45l-45 123h-273l-90 -432h391l127 195h49q-8 -154 -39 -283h-870l10 51q86 31 150 41l196 920q-70 12 -133 41z" />
    <glyph glyph-name="uniF358.var.accented" unicode="&#xf358;`" horiz-adv-x="1302" 
d="M686 1257l262 357q33 4 95 -11t85 -34v-39l-401 -307zM424 51l-10 -51h-455l10 51q76 33 150 41l196 920q-80 14 -133 41l11 51h454l-10 -51q-63 -29 -139 -41l-142 -656l-43 -120l105 129l637 610l8 37q-90 20 -133 41l10 51h457l-11 -51q-55 -23 -151 -41l-197 -920
q76 -12 136 -41l-11 -51h-456l10 51q70 27 139 41l139 653l43 121l-96 -123l-643 -616l-8 -35q67 -10 133 -41z" />
    <glyph glyph-name="uniF35E.var.accented" unicode="&#xf35e;`" horiz-adv-x="1323" 
d="M633 1257l262 357q33 4 95 -11t85 -34v-39l-401 -307zM340 428q0 -180 87 -269t208 -89t204 55q143 95 194 344q22 103 22 233t-74 231t-221 101q-200 0 -310 -172t-110 -434zM770 1122q246 0 367 -124t120 -332q0 -254 -140 -455q-71 -101 -197 -165t-289 -64
q-223 0 -359 113q-135 114 -135 359t155 450q74 98 198 158t280 60z" />
    <glyph glyph-name="uniF363.var.accented" unicode="&#xf363;`" horiz-adv-x="1134" 
d="M606 1257l262 357q34 4 96 -11t85 -34v-39l-402 -307zM233 96q0 64 3 76l36 47l174 -47q37 27 76 96l-278 744q-74 14 -121 41l10 51h471l-10 -51q-55 -25 -148 -41l172 -490l15 -100h2l57 102l326 488q-78 14 -137 41l10 51h397l-10 -51q-59 -31 -133 -41l-490 -695
q-117 -180 -211 -261t-188 -64q-23 40 -23 104z" />
    <glyph glyph-name="uniF36B.var.accented" unicode="&#xf36b;`" horiz-adv-x="1492" 
d="M754 1257l262 357q33 4 95 -11t85 -34v-39l-401 -307zM520 582q-47 0 -117 -9l-102 -483q31 -6 119 -6q150 0 240 86t92 236q0 94 -50 135t-182 41zM408 -4l-220 4h-229l10 51q84 33 150 41l196 920q-78 14 -133 41l11 51h477l-11 -51q-68 -31 -161 -41l-76 -353
q86 10 160 11q373 0 372 -262q0 -142 -86 -240t-204 -135t-256 -37zM1364 51l-10 -51h-455l10 51q59 23 142 41l196 920q-68 12 -127 41l10 51h457l-10 -51q-72 -29 -147 -41l-197 -920q63 -10 131 -41z" />
    <glyph glyph-name="uniF36D.var.accented" unicode="&#xf36d;`" horiz-adv-x="1132" 
d="M438 1257l262 357q34 4 96 -11t85 -34v-39l-402 -307zM553 1034q-84 0 -154 -28l-133 -199h-49q0 115 33 250q112 65 352 65t352 -114t113 -302q0 -188 -62 -335q-109 -259 -387 -351q-117 -39 -245 -38q-240 0 -350 55q20 113 88 282h49l41 -233q43 -16 174 -16
q172 0 315 118t182 349l-514 -48q-4 68 29 136l496 -2q25 221 -57 316t-273 95z" />
    <glyph glyph-name="uniF36E.var.accented" unicode="&#xf36e;`" horiz-adv-x="1724" 
d="M842 1257l262 357q33 4 95 -11t85 -34v-39l-401 -307zM778 428q0 -358 271 -358q135 0 230 98q177 183 177 514q0 106 -18 172q-50 180 -238 180t-305 -176t-117 -430zM586 436q0 57 4 86h-197l-92 -430q57 -10 123 -41l-10 -51h-455l10 51q92 33 150 41l196 920
q-70 8 -133 41l11 51h454l-10 -51q-92 -33 -139 -41l-86 -402h192q49 220 202 366t392 146q461 0 461 -456q0 -247 -141 -455q-70 -101 -193 -165t-278 -64q-461 -1 -461 454z" />
    <glyph glyph-name="uniF36F.var.accented" unicode="&#xf36f;`" horiz-adv-x="1118" 
d="M614 1257l263 357q33 4 95 -11t85 -34v-39l-402 -307zM647 539q82 0 121 8l100 465q-31 8 -110 8q-334 0 -334 -301q0 -180 223 -180zM221 713q-1 199 147 297t414 98l197 -4h233l-10 -51q-72 -29 -151 -41l-197 -920q82 -14 135 -41l-10 -51h-475l10 51q74 29 158 41
l78 369h-148q-42 -49 -110 -139q-150 -197 -248 -279l-70 -43h-254l8 45l90 37q80 66 150 135l145 145l109 113q-72 12 -136 77t-65 161z" />
    <glyph glyph-name="uniF371.var.accented" unicode="&#xf371;`" horiz-adv-x="1030" 
d="M819 1398q0 40 26 64q27 24 67 25q40 0 66 -25q26 -24 26 -64t-26 -64t-67 -24t-67 24t-25 64zM340 1398q0 40 26 64t66 25q40 0 67 -25q25 -24 25 -64t-26 -64t-66 -24t-66 24t-26 64zM549 1305l156 350q29 5 83 -13t82 -38v-33l-272 -287zM193 1104h837
q-20 -104 -78 -266h-49l-35 178h-370l-86 -408h272l94 119h45q-23 -162 -69 -330h-45l-45 123h-273l-90 -432h391l127 195h49q-8 -154 -39 -283h-870l10 51q86 31 150 41l196 920q-70 12 -133 41z" />
    <glyph glyph-name="uniF38A.var.accented" unicode="&#xf38a;`" horiz-adv-x="1204" 
d="M637 1257l262 357q33 4 95 -11t85 -34v-39l-401 -307zM1288 1122q29 -10 53 -77t13 -121l-39 -45l-162 45q-145 -150 -325 -423t-279 -519h-80l-221 1030q-92 20 -125 41l10 51h477l-10 -51q-59 -23 -149 -41l122 -650l9 -133h4l51 136q111 221 258 419t256 285
q63 49 137 53z" />
    <glyph glyph-name="afii10053.var.accented" unicode="&#x404;`" horiz-adv-x="1316" 
d="M809 1575l301 254q36 4 102 -18t88 -48v-41l-458 -186zM764 -25q-164 1 -290 49t-196 130q-140 163 -141 372q1 420 229 676t615 256q248 0 383 -69q-31 -166 -104 -349h-50l-43 295q-57 20 -190 21q-238 0 -403 -152t-214 -438l687 29q10 -72 -25 -154q-338 29 -674 33
q-6 -68 -6 -166t44 -190q74 -157 261 -217q77 -23 179 -23t163 39l150 250h49q-4 -139 -45 -308q-145 -84 -379 -84z" />
    <glyph glyph-name="afii10055.var.accented" unicode="&#x406;`" horiz-adv-x="696" 
d="M397 1575l301 254q35 4 102 -18t89 -48v-41l-459 -186zM522 57l-10 -57h-512l10 57q90 37 176 49l258 1221q-74 14 -153 49l12 58h512l-12 -58q-72 -31 -174 -49l-258 -1221q85 -16 151 -49z" />
    <glyph glyph-name="afii10056.var.accented" unicode="&#x407;`" horiz-adv-x="696" 
d="M666 1616q0 45 30 70q31 24 80 24t80 -24t31 -70q0 -45 -31 -70q-31 -24 -80 -24t-80 24q-30 25 -30 70zM309 1616q0 45 31 70q31 24 80 24t80 -24q30 -24 30 -70q0 -45 -30 -70q-30 -24 -80 -24q-49 0 -80 24t-31 70zM522 57l-10 -57h-512l10 57q90 37 176 49l258 1221
q-74 14 -153 49l12 58h512l-12 -58q-72 -31 -174 -49l-258 -1221q85 -16 151 -49zM520 1718l354 254q36 4 98 -18t79 -47l-9 -41l-497 -187z" />
    <glyph glyph-name="afii10017.var.accented" unicode="&#x410;`" horiz-adv-x="1368" 
d="M821 1575l301 254q35 4 102 -18t89 -48v-41l-459 -186zM733 1024l-254 -436h412l-68 440l-4 176h-4zM365 57l-11 -57h-454l10 57q86 35 160 49l809 1352h43l231 -1352q94 -20 143 -49l-10 -57h-508l10 57q92 35 181 49l-62 379h-485l-221 -379q84 -12 164 -49z" />
    <glyph glyph-name="afii10022.var.accented" unicode="&#x415;`" horiz-adv-x="1165" 
d="M707 1575l301 254q36 4 102 -18t88 -48v-41l-459 -186zM262 1434h959q-43 -203 -91 -328h-49l-34 225h-455l-115 -549h342l111 152h49q-31 -199 -86 -410h-49l-47 156h-342l-121 -578h477l152 246h49q-10 -182 -54 -348h-999l10 57q84 35 181 49l258 1221q-82 16 -158 49
z" />
    <glyph glyph-name="afii10026.var.accented" unicode="&#x418;`" horiz-adv-x="1482" 
d="M768 1575l301 254q35 4 101 -18t90 -48v-41l-459 -186zM477 57l-10 -57h-508l10 57q90 37 181 49l258 1221q-98 20 -158 49l12 58h508l-12 -58q-70 -31 -166 -49l-191 -901l-53 -154l125 166l795 840l10 49q-106 27 -156 49l13 58h507l-12 -58q-78 -33 -178 -49
l-258 -1221q94 -16 156 -49l-11 -57h-508l11 57q96 37 168 49l190 900l53 151l-114 -156l-807 -849l-8 -46q83 -14 153 -49z" />
    <glyph glyph-name="afii10032.var.accented" unicode="&#x41e;`" horiz-adv-x="1490" 
d="M803 1575l301 254q36 4 102 -18t88 -48v-41l-458 -186zM342 573q0 -225 114 -360t272 -135t266 74t165 196q111 237 111 533q0 215 -100 345t-279 130q-137 0 -247 -73q-192 -127 -269 -440q-33 -135 -33 -270zM137 571q0 381 222 634t587 253q146 0 252 -48t164 -133
q112 -163 113 -394q0 -348 -186 -618q-91 -132 -243 -211t-344 -79q-279 0 -422 169t-143 427z" />
    <glyph glyph-name="afii10037.var.accented" unicode="&#x423;`" horiz-adv-x="1325" 
d="M768 1575l301 254q35 4 101 -18t90 -48v-41l-459 -186zM848 639l399 688q-94 14 -166 49l13 58h452l-12 -58q-63 -33 -158 -49l-608 -977q-134 -205 -238 -294t-215 -66q-45 115 -32 217l57 49l209 -53q20 16 55 62t49 79l-317 983q-88 18 -146 49l13 58h526l-12 -58
q-66 -29 -178 -49l219 -692l16 -131h4z" />
    <glyph glyph-name="afii10045.var.accented" unicode="&#x42b;`" horiz-adv-x="1687" 
d="M870 1575l301 254q35 4 102 -18t89 -48v-41l-459 -186zM621 766q-92 0 -150 -12l-137 -648q31 -10 145 -10q195 0 305 115t111 338q0 217 -274 217zM680 868q200 0 310 -86t110 -237q0 -271 -175 -411t-458 -140l-252 6h-256l10 57q88 37 181 49l258 1221q-82 16 -158 49
l12 58h533l-13 -58q-92 -37 -190 -49l-100 -473q72 14 188 14zM1554 57l-10 -57h-508l11 57q68 31 172 49l258 1221q-88 18 -150 49l12 58h508l-12 -58q-78 -37 -174 -49l-258 -1221q83 -14 151 -49z" />
    <glyph glyph-name="afii10047.var.accented" unicode="&#x42d;`" horiz-adv-x="1267" 
d="M539 1575l301 254q36 4 102 -18t88 -48v-41l-459 -186zM631 1356q-129 0 -195 -39l-160 -250h-49q10 172 45 307q143 84 407 84q265 0 419 -154t153 -430q0 -391 -233 -645t-627 -254q-221 0 -350 70q25 160 102 348h50l45 -295q53 -20 170 -20q240 0 414 164t220 465
l-616 -62q-4 86 33 154h598q14 245 -107 401t-319 156z" />
    <glyph glyph-name="afii10048.var.accented" unicode="&#x42e;`" horiz-adv-x="1953" 
d="M967 1575l301 254q36 4 102 -18t88 -48v-41l-459 -186zM877 554q0 -475 315 -476q141 0 250 88q185 149 259 516q53 262 19 418q-52 256 -321 256q-131 0 -236 -82q-183 -144 -255 -474q-30 -138 -31 -246zM1430 1458q141 0 245 -47q105 -47 159 -127q106 -155 104 -339
q-1 -185 -52 -353q-114 -376 -392 -532q-153 -85 -337 -85q-119 0 -211 43t-144 114t-85 163q-52 146 -23 389h-239l-121 -578q80 -16 143 -49l-10 -57h-508l10 57q104 37 181 49l258 1221q-82 12 -158 49l12 58h508l-12 -58q-76 -33 -166 -49l-115 -541h238q57 296 247 484
t468 188z" />
    <glyph glyph-name="afii10049.var.accented" unicode="&#x42f;`" horiz-adv-x="1269" 
d="M788 1575l302 254q36 4 102 -18t88 -48v-41l-459 -186zM698 690q145 0 201 15l131 622q-61 10 -125 10q-221 1 -323 -117t-103 -284q-1 -110 73 -178t146 -68zM274 942q0 240 169 367t489 131l217 -6h256l-12 -58q-72 -33 -179 -49l-258 -1221q100 -16 156 -49l-10 -57
h-533l11 57q86 37 192 49l105 498h-193q-57 -70 -141 -184q-179 -245 -312 -371l-77 -49h-260l10 49l108 49q96 84 178 172l310 351q-80 31 -153 113t-73 208z" />
    <glyph glyph-name="afii10023.var.accented" unicode="&#x401;`" horiz-adv-x="1165" 
d="M635 1554l217 291q29 5 85 -17t77 -48v-39l-350 -225zM979 1614q0 46 26 70q25 24 67 24t69 -26t27 -68t-28 -68q-26 -24 -68 -24t-68 24t-25 68zM414 1614q0 42 26 68t69 26q42 0 68 -25q25 -25 25 -69t-26 -69q-26 -23 -67 -23q-42 0 -69 24q-26 25 -26 68zM262 1434
h959q-43 -203 -91 -328h-49l-34 225h-455l-115 -549h342l111 152h49q-31 -199 -86 -410h-49l-47 156h-342l-121 -578h477l152 246h49q-10 -182 -54 -348h-999l10 57q84 35 181 49l258 1221q-82 16 -158 49z" />
    <glyph glyph-name="afii10065.var.accented" unicode="&#x430;`" horiz-adv-x="1089" 
d="M602 1217l262 356q33 4 95 -11t85 -34v-39l-401 -307zM303 -25q-211 0 -211 310q0 193 70 363t210 283q140 112 320 111q68 0 154 -36q80 43 162 43l-187 -938h152v-50q-94 -74 -203 -73q-53 0 -81 24t-27 54q0 86 59 344h-8q-61 -172 -170 -304t-240 -131zM381 98
q69 0 151 96t132 190q49 95 90 191l65 345q-57 37 -131 36q-123 0 -222 -100q-98 -100 -150 -244t-52 -293q0 -221 117 -221z" />
    <glyph glyph-name="afii10070.var.accented" unicode="&#x435;`" horiz-adv-x="925" 
d="M582 1217l262 356q33 4 95 -11t85 -34v-39l-401 -307zM586 963q-201 0 -299 -363q203 6 315 70t113 174q0 119 -129 119zM86 340q0 301 156 505t407 204q102 -1 169 -53t67 -144q-1 -150 -147 -232t-466 -106q-14 -66 -14 -133q0 -129 65 -206t181 -77t260 117l31 -37
q-39 -84 -137 -143t-244 -59t-237 96q-91 98 -91 268z" />
    <glyph glyph-name="afii10074.var.accented" unicode="&#x438;`" horiz-adv-x="1099" 
d="M602 1217l262 356q33 4 95 -11t85 -34v-39l-401 -307zM985 111v-50q-94 -74 -203 -73q-53 0 -81 24t-27 54q0 135 57 344h-8q-197 -434 -444 -435q-72 1 -120 53t-48 156t135 725l-125 17v49q176 66 270 74l45 -25q-14 -66 -88 -382t-74 -445q0 -43 24 -71t56 -28
q66 0 136 58t122 143q106 172 144 272l88 453h157l-167 -913h151z" />
    <glyph glyph-name="afii10080.var.accented" unicode="&#x43e;`" horiz-adv-x="1034" 
d="M582 1217l262 356q33 4 95 -11t85 -34v-39l-401 -307zM772 674q0 290 -182 289q-92 1 -162 -61q-114 -100 -154 -363q-14 -98 -14 -211t55 -190t147 -77q92 1 165 95q74 94 109 235q36 141 36 283zM948 662q0 -279 -148 -483t-376 -204q-158 -1 -248 103t-90 320t135 423
q67 99 175 163t239 65q313 0 313 -387z" />
    <glyph glyph-name="afii10085.var.accented" unicode="&#x443;`" horiz-adv-x="923" 
d="M504 1217l262 356q33 4 95 -11t85 -34v-39l-401 -307zM260 1049q70 0 88 -76l172 -727l6 -123h4l48 121q141 315 202 536q-2 43 -15 130t-22 114q59 25 119 25t107 -25q-100 -399 -416 -1024q-113 -221 -222 -325q-110 -103 -245 -103q-45 0 -113 31q-4 49 25 108t78 88
l168 -84q110 72 182 285l-238 909l-131 17v49q31 23 93 49t110 25z" />
    <glyph glyph-name="afii10093.var.accented" unicode="&#x44b;`" horiz-adv-x="1359" 
d="M705 1217l262 356q33 4 95 -11t85 -34v-39l-402 -307zM1217 61q-94 -73 -203 -73t-109 95q0 46 23 159l170 782h164l-197 -913h152v-50zM621 668q74 0 132 -50t58 -149q0 -186 -146 -340t-339 -154q-92 -1 -154 57t-61 179q0 121 102 444l45 136q33 96 41 118l-125 17v49
q127 61 291 74l45 -25q-143 -377 -188 -520h8q133 164 291 164zM274 215q0 -154 113 -154t185 112t73 243q0 66 -40 98t-87 31q-119 0 -207 -125q-37 -111 -37 -205z" />
    <glyph glyph-name="afii10095.var.accented" unicode="&#x44d;`" horiz-adv-x="948" 
d="M418 1217l262 356q33 4 95 -11t85 -34v-39l-401 -307zM309 61q121 0 229 119t142 316l-393 -50q-20 57 0 127h401q4 49 4 78q0 143 -60 227t-165 85q-41 0 -94 -13q-23 -26 -71 -94t-60 -82q-39 18 -66 76t-12 113q137 86 352 86q162 1 260 -97t98 -262q0 -311 -162 -513
t-399 -202q-236 0 -338 99q4 51 38 105t81 85l142 -192q34 -11 73 -11z" />
    <glyph glyph-name="afii10096.var.accented" unicode="&#x44e;`" horiz-adv-x="1449" 
d="M705 1217l262 356q33 4 95 -11t85 -34v-39l-402 -307zM1011 963q-87 -1 -152 -63t-99 -162q-62 -185 -64 -400q0 -123 47 -200t123 -77q139 0 231 193q91 193 91 434q0 127 -45 201t-132 74zM530 379q0 47 7 96h-187l-98 -475h-160l180 909l-125 17l-2 49q57 29 139 51
t138 23l41 -25l-96 -463h186q47 201 178 344t320 144q313 0 313 -387q0 -276 -154 -482t-381 -205q-141 -1 -220 103t-79 301z" />
    <glyph glyph-name="afii10097.var.accented" unicode="&#x44f;`" horiz-adv-x="1015" 
d="M541 1217l262 356q33 4 95 -11t85 -34v-39l-401 -307zM162 696q0 148 137 244t323 96t283 -24l-178 -901h152v-50q-94 -74 -203 -73q-53 0 -82 24t-29 58q0 35 27 172l41 207l-144 -21q-259 -440 -411 -440q-76 0 -139 71v52h98q66 47 165 157t152 185q-78 16 -135 82
t-57 161zM604 950q-114 0 -192 -77t-78 -195q0 -84 66 -132t192 -48h51l94 440q-70 12 -133 12z" />
    <glyph glyph-name="afii10071.var.accented" unicode="&#x451;`" horiz-adv-x="925" 
d="M516 1264l156 350q29 4 83 -13t83 -38v-33l-273 -287zM786 1357q0 41 26 65t67 24t67 -25t25 -65q0 -40 -26 -63q-27 -23 -67 -23t-66 24t-26 63zM307 1357q0 41 26 65q27 24 67 24t66 -25t26 -65t-26 -63t-67 -23t-67 24t-25 63zM586 963q-201 0 -299 -363q203 6 315 70
t113 174q0 119 -129 119zM86 340q0 301 156 505t407 204q102 -1 169 -53t67 -144q-1 -150 -147 -232t-466 -106q-14 -66 -14 -133q0 -129 65 -206t181 -77t260 117l31 -37q-39 -84 -137 -143t-244 -59t-237 96q-91 98 -91 268z" />
    <glyph glyph-name="afii10101.var.accented" unicode="&#x454;`" horiz-adv-x="892" 
d="M520 1217l262 356q34 4 96 -11t85 -34v-39l-402 -307zM86 334q0 284 148 476q180 234 471 239q143 0 194 -45q5 -42 -19 -102t-59 -79l-141 140q-131 -1 -244 -105t-151 -301l387 29q10 -57 -23 -107h-377q-4 -70 -4 -106q0 -137 67 -206t175 -69q50 0 92 17l39 16
q24 9 72 45l32 21l23 18l29 -37q-49 -84 -145 -143t-234 -59q-140 0 -236 96q-96 98 -96 262z" />
    <glyph glyph-name="afii10103.var.accented" unicode="&#x456;`" horiz-adv-x="561" 
d="M340 1217l262 356q33 4 95 -11t85 -34v-39l-401 -307zM422 61q-94 -73 -203 -73t-109 95q0 46 23 159l146 665l-134 19v49q184 74 281 74l37 -25l-193 -913h152v-50z" />
    <glyph glyph-name="afii10104.var.accented" unicode="&#x457;`" horiz-adv-x="622" 
d="M379 1575l301 254q36 4 102 -18t88 -48v-41l-458 -186zM442 61q-94 -73 -202 -73t-109 95q0 46 23 159l145 665l-133 19v49q184 74 280 74l37 -25l-192 -913h151v-50zM578 1491q46 0 76 -29t30 -75q0 -45 -30 -73t-76 -28t-77 28q-30 28 -30 73q0 46 30 75t77 29z
M250 1286q-47 0 -77 28t-30 73q0 46 30 75t77 29t77 -29q29 -29 29 -75q0 -45 -30 -73t-76 -28z" />
    <glyph glyph-name="afii10062.var.accented" unicode="&#x40e;`" horiz-adv-x="1325" 
d="M920 1495q-152 0 -223 76t-60 153q53 41 188 56l49 -27v-137q34 -27 106 -27t160 48q87 48 111 122q49 0 70 -30q-29 -92 -139 -163t-262 -71zM918 1657l219 295q35 4 101 -18t89 -48v-41l-377 -227zM848 639l399 688q-94 14 -166 49l13 58h452l-12 -58q-63 -33 -158 -49
l-608 -977q-134 -205 -238 -294t-215 -66q-45 115 -32 217l57 49l209 -53q20 16 55 62t49 79l-317 983q-88 18 -146 49l13 58h526l-12 -58q-66 -29 -178 -49l219 -692l16 -131h4z" />
    <glyph glyph-name="afii10110.var.accented" unicode="&#x45e;`" horiz-adv-x="923" 
d="M594 1149q-88 0 -146 27q-58 26 -84 68q-43 73 -34 155q59 45 147 55l49 -27v-157q35 -27 84 -27q88 0 157 55t95 136q49 0 70 -31q-31 -98 -119 -176t-219 -78zM565 1319l205 330q33 5 95 -11t85 -34v-39l-344 -281zM260 1049q70 0 88 -76l172 -727l6 -123h4l48 121
q141 315 202 536q-2 43 -15 130t-22 114q59 25 119 25t107 -25q-100 -399 -416 -1024q-113 -221 -222 -325q-110 -103 -245 -103q-45 0 -113 31q-4 49 25 108t78 88l168 -84q110 72 182 285l-238 909l-131 17v49q31 23 93 49t110 25z" />
    <glyph glyph-name="afii10148.var.accented" unicode="&#x474;`" horiz-adv-x="1392" 
d="M803 1575l301 254q36 4 102 -18t88 -48v-41l-458 -186zM1624 1288q0 -42 -4 -67l-39 -47l-182 55q-185 -207 -409 -569t-351 -685h-70l-229 1352q-90 18 -145 49l12 58h528l-12 -58q-80 -31 -178 -49l133 -895l10 -160h4l60 160q135 281 323 557t322 397q72 62 164 72
q29 -12 46 -70t17 -100z" />
    <glyph glyph-name="afii10196.var.accented" unicode="&#x475;`" horiz-adv-x="976" 
d="M541 1217l262 356q33 4 95 -11t85 -34v-39l-401 -307zM236 1049q74 0 88 -76l94 -674l10 -127h4l62 141q70 152 108 230q39 79 111 199t128 184q100 115 212 118q18 0 24 -2q47 -51 47 -157q0 -23 -2 -33l-37 -49l-184 41q-130 -159 -266 -426l-203 -418l-117 -25
l-151 934l-131 17v49q31 23 93 49t110 25z" />
    <glyph glyph-name="uni04AE.var.accented" unicode="&#x4ae;`" horiz-adv-x="1286" 
d="M768 1575l301 254q35 4 101 -18t90 -48v-41l-459 -186zM1044 1376l13 58h450l-12 -58q-72 -35 -166 -49l-538 -717l-107 -504q76 -10 143 -49l-10 -57h-508l10 57q82 37 181 49l106 502l-262 719q-82 14 -156 49l13 58h528l-12 -58q-84 -31 -168 -49l209 -608l440 608
q-76 14 -154 49z" />
    <glyph glyph-name="uni04AF.var.accented" unicode="&#x4af;`" horiz-adv-x="907" 
d="M479 1217l262 356q33 4 95 -11t86 -34v-39l-402 -307zM236 1049q74 0 88 -76l110 -744l10 -127h5l67 131q154 293 219 547q-2 43 -15 130t-22 114q58 25 118 25t108 -25q-154 -610 -449 -1024l-63 -301q68 -12 143 -51v-58h-309l-19 17l90 393l-153 909l-131 17v49
q31 23 93 49t110 25z" />
    <glyph glyph-name="uni04B0.var.accented" unicode="&#x4b0;`" horiz-adv-x="1286" 
d="M748 1575l301 254q35 4 101 -18t89 -48v-41l-459 -186zM1044 1376l13 58h450l-12 -58q-72 -35 -166 -49l-538 -717h299l-23 -102h-299l-84 -402q76 -10 143 -49l-10 -57h-508l10 57q82 37 181 49l84 402h-299l22 102h297l-260 717q-82 14 -156 49l13 58h528l-12 -58
q-84 -31 -168 -49l209 -608l440 608q-76 14 -154 49z" />
    <glyph glyph-name="uni04B1.var.accented" unicode="&#x4b1;`" horiz-adv-x="907" 
d="M479 1217l262 356q33 4 95 -11t86 -34v-39l-402 -307zM236 1049q74 0 88 -76l110 -744l10 -127h5l67 131q154 293 219 547q-2 43 -15 130t-22 114q58 25 118 25t108 -25q-135 -530 -379 -922h213l-25 -102h-258l-63 -301q68 -12 143 -51v-58h-309l-19 17l90 393h-264
l25 102h221l-135 807l-131 17v49q31 23 93 49t110 25z" />
    <glyph glyph-name="uni04D0.var.accented" unicode="&#x4d0;`" horiz-adv-x="1368" 
d="M881 1495q-152 0 -223 76t-60 153q53 41 188 56l50 -27v-137q34 -27 106 -27t159 48t111 122q49 0 70 -30q-29 -92 -139 -163t-262 -71zM879 1657l219 295q36 4 102 -18t88 -48v-41l-377 -227zM733 1024l-254 -436h412l-68 440l-4 176h-4zM365 57l-11 -57h-454l10 57
q86 35 160 49l809 1352h43l231 -1352q94 -20 143 -49l-10 -57h-508l10 57q92 35 181 49l-62 379h-485l-221 -379q84 -12 164 -49z" />
    <glyph glyph-name="uni04D1.var.accented" unicode="&#x4d1;`" horiz-adv-x="1089" 
d="M692 1149q-88 0 -146 27q-58 26 -83 68q-44 73 -35 155q59 45 147 55l50 -27v-157q35 -27 84 -27q89 0 157 55t95 136q49 0 69 -31q-31 -98 -119 -176t-219 -78zM664 1319l204 330q34 5 96 -11t85 -34v-39l-344 -281zM303 -25q-211 0 -211 310q0 193 70 363t210 283
q140 112 320 111q68 0 154 -36q80 43 162 43l-187 -938h152v-50q-94 -74 -203 -73q-53 0 -81 24t-27 54q0 86 59 344h-8q-61 -172 -170 -304t-240 -131zM381 98q69 0 151 96t132 190q49 95 90 191l65 345q-57 37 -131 36q-123 0 -222 -100q-98 -100 -150 -244t-52 -293
q0 -221 117 -221z" />
    <glyph glyph-name="uni04D2.var.accented" unicode="&#x4d2;`" horiz-adv-x="1368" 
d="M778 1554l217 291q29 5 85 -17t77 -48v-39l-350 -225zM1122 1614q0 46 26 70t68 24t68 -26t27 -68q0 -42 -27 -68q-26 -24 -68 -24t-68 24t-26 68zM557 1614q0 42 27 68q26 26 68 26t68 -25t26 -69t-26 -69q-26 -23 -68 -23t-68 24t-27 68zM733 1024l-254 -436h412
l-68 440l-4 176h-4zM365 57l-11 -57h-454l10 57q86 35 160 49l809 1352h43l231 -1352q94 -20 143 -49l-10 -57h-508l10 57q92 35 181 49l-62 379h-485l-221 -379q84 -12 164 -49z" />
    <glyph glyph-name="uni04D3.var.accented" unicode="&#x4d3;`" horiz-adv-x="1089" 
d="M557 1264l156 350q29 4 83 -13t83 -38v-33l-273 -287zM827 1357q0 41 26 65t67 24q40 0 66 -25t26 -65t-26 -63t-66 -23t-67 24q-26 24 -26 63zM348 1357q0 41 26 65t66 24t67 -25q25 -25 25 -65t-26 -63t-66 -23t-66 24t-26 63zM303 -25q-211 0 -211 310q0 193 70 363
t210 283q140 112 320 111q68 0 154 -36q80 43 162 43l-187 -938h152v-50q-94 -74 -203 -73q-53 0 -81 24t-27 54q0 86 59 344h-8q-61 -172 -170 -304t-240 -131zM381 98q69 0 151 96t132 190q49 95 90 191l65 345q-57 37 -131 36q-123 0 -222 -100q-98 -100 -150 -244
t-52 -293q0 -221 117 -221z" />
    <glyph glyph-name="uni04D4.var.accented" unicode="&#x4d4;`" horiz-adv-x="1861" 
d="M1141 1575l301 254q36 4 102 -18t88 -48v-41l-458 -186zM965 1065l-349 -436h340l134 626h-5zM1917 1434q-29 -158 -90 -328h-49l-35 225h-455l-114 -549h342l110 152h49q-33 -244 -86 -410h-49l-47 156h-342l-123 -578h479l152 246h49q-10 -180 -53 -348h-1000l11 57
q84 35 180 49l88 420h-397l-326 -420q84 -12 164 -49l-10 -57h-465l10 57q86 35 160 49l985 1231q-59 12 -111 39l12 58h961z" />
    <glyph glyph-name="uni04D5.var.accented" unicode="&#x4d5;`" horiz-adv-x="1503" 
d="M797 1217l262 356q33 4 95 -11t85 -34v-39l-401 -307zM1163 963q-201 0 -299 -363q203 6 316 70t112 174q0 119 -129 119zM326 -25q-109 0 -187 76t-78 197q-1 158 175 253t454 70q37 123 44 205q16 186 -140 186q-82 0 -139 -20l-107 -225h-49q-35 111 -39 233
q186 98 396 98t239 -122q143 123 332 123q102 -1 169 -53t66 -144q0 -150 -146 -232t-466 -106q-14 -66 -14 -133q0 -129 64 -206t180 -77t261 117l31 -37q-39 -84 -137 -143t-223 -60q-271 0 -334 244q-127 -244 -352 -244zM254 275q0 -177 156 -177q74 0 148 75
q75 75 106 167q0 49 10 156q-200 26 -310 -50t-110 -171z" />
    <glyph glyph-name="uni04D6.var.accented" unicode="&#x4d6;`" horiz-adv-x="1165" 
d="M758 1495q-152 0 -222 76t-61 153q53 41 189 56l49 -27v-137q35 -27 107 -27t158 48q87 48 112 122q49 0 69 -30q-29 -92 -139 -163t-262 -71zM756 1657l219 295q35 4 101 -18t89 -48v-41l-377 -227zM262 1434h959q-43 -203 -91 -328h-49l-34 225h-455l-115 -549h342
l111 152h49q-31 -199 -86 -410h-49l-47 156h-342l-121 -578h477l152 246h49q-10 -182 -54 -348h-999l10 57q84 35 181 49l258 1221q-82 16 -158 49z" />
    <glyph glyph-name="uni04D7.var.accented" unicode="&#x4d7;`" horiz-adv-x="925" 
d="M631 1149q-89 0 -147 27q-98 45 -114 148q-7 38 -3 75q59 45 147 55l49 -27v-157q35 -27 84 -27q88 0 157 55t95 136q49 0 70 -31q-31 -98 -119 -176t-219 -78zM602 1319l205 330q33 5 95 -11t85 -34v-39l-344 -281zM586 963q-201 0 -299 -363q203 6 315 70t113 174
q0 119 -129 119zM86 340q0 301 156 505t407 204q102 -1 169 -53t67 -144q-1 -150 -147 -232t-466 -106q-14 -66 -14 -133q0 -129 65 -206t181 -77t260 117l31 -37q-39 -84 -137 -143t-244 -59t-237 96q-91 98 -91 268z" />
    <glyph glyph-name="uni04D8.var.accented" unicode="&#x4d8;`" horiz-adv-x="1427" 
d="M707 1575l301 254q36 4 102 -18t88 -48v-41l-459 -186zM680 78q205 0 342 164t182 415h-854q-16 -57 -16 -161q0 -222 87 -320t259 -98zM137 508q0 143 31 252h1051q41 280 -59 438t-351 158q-168 0 -229 -29l-168 -295h-50q4 182 46 344q186 82 430 82q168 0 286 -45
t176 -124q111 -149 111 -345q0 -397 -181 -672q-90 -137 -242 -217t-349 -80t-342 115q-74 59 -117 167t-43 251z" />
    <glyph glyph-name="afii10846.var.accented" unicode="&#x4d9;`" horiz-adv-x="978" 
d="M516 1217l262 356q33 4 95 -11t85 -34v-39l-401 -307zM404 61q85 0 171 112t125 319q-223 34 -340 -54t-116 -225q0 -152 160 -152zM528 963q-43 0 -88 -25q-22 -24 -68 -94t-63 -90q-39 18 -65 75q-27 57 -13 113q123 78 232 96q55 10 117 11q152 -1 232 -93t81 -272
q0 -301 -156 -505t-407 -204q-109 1 -183 61q-73 60 -73 175t83 211q162 186 558 156q6 16 6 65q1 139 -45 229t-148 91z" />
    <glyph glyph-name="uni04DA.var.accented" unicode="&#x4da;`" horiz-adv-x="1427" 
d="M713 1554l217 291q29 5 85 -17t77 -48v-39l-351 -225zM1057 1614q-1 46 25 70t68 24t69 -26t27 -68t-28 -68q-26 -25 -67 -24q-94 0 -94 92zM492 1614q0 42 26 68t69 26q41 0 67 -25t26 -69t-26 -69q-26 -23 -68 -23t-68 24q-26 25 -26 68zM680 78q205 0 342 164t182 415
h-854q-16 -57 -16 -161q0 -222 87 -320t259 -98zM137 508q0 143 31 252h1051q41 280 -59 438t-351 158q-168 0 -229 -29l-168 -295h-50q4 182 46 344q186 82 430 82q168 0 286 -45t176 -124q111 -149 111 -345q0 -397 -181 -672q-90 -137 -242 -217t-349 -80t-342 115
q-74 59 -117 167t-43 251z" />
    <glyph glyph-name="uni04DB.var.accented" unicode="&#x4db;`" horiz-adv-x="978" 
d="M522 1264l156 350q29 4 83 -13t83 -38v-33l-273 -287zM793 1357q-1 41 25 65t67 24t67 -25t25 -65q0 -40 -26 -63q-27 -23 -67 -23t-66 23q-25 24 -25 64zM313 1357q0 41 26 65t67 24q40 0 66 -25t26 -65t-26 -63t-66 -23t-67 24q-26 24 -26 63zM404 61q85 0 171 112
t125 319q-223 34 -340 -54t-116 -225q0 -152 160 -152zM528 963q-43 0 -88 -25q-22 -24 -68 -94t-63 -90q-39 18 -65 75q-27 57 -13 113q123 78 232 96q55 10 117 11q152 -1 232 -93t81 -272q0 -301 -156 -505t-407 -204q-109 1 -183 61q-73 60 -73 175t83 211
q162 186 558 156q6 16 6 65q1 139 -45 229t-148 91z" />
    <glyph glyph-name="uni04E2.var.accented" unicode="&#x4e2;`" horiz-adv-x="1482" 
d="M1272 1616h-613l21 102h612zM831 1780l302 254q35 4 101 -18t89 -48v-41l-459 -186zM477 57l-10 -57h-508l10 57q90 37 181 49l258 1221q-98 20 -158 49l12 58h508l-12 -58q-70 -31 -166 -49l-191 -901l-53 -154l125 166l795 840l10 49q-106 27 -156 49l13 58h507
l-12 -58q-78 -33 -178 -49l-258 -1221q94 -16 156 -49l-11 -57h-508l11 57q96 37 168 49l190 900l53 151l-114 -156l-807 -849l-8 -46q83 -14 153 -49z" />
    <glyph glyph-name="uni04E3.var.accented" unicode="&#x4e3;`" horiz-adv-x="1099" 
d="M582 1427l262 357q33 4 95 -11t85 -34v-39l-401 -307zM934 1227h-510l20 102h510zM985 111v-50q-94 -74 -203 -73q-53 0 -81 24t-27 54q0 135 57 344h-8q-197 -434 -444 -435q-72 1 -120 53t-48 156t135 725l-125 17v49q176 66 270 74l45 -25q-14 -66 -88 -382t-74 -445
q0 -43 24 -71t56 -28q66 0 136 58t122 143q106 172 144 272l88 453h157l-167 -913h151z" />
    <glyph glyph-name="uni04E4.var.accented" unicode="&#x4e4;`" horiz-adv-x="1482" 
d="M825 1554l217 291q29 5 85 -17t77 -48v-39l-350 -225zM1169 1614q0 46 26 70t68 24q43 0 69 -26t26 -68t-27 -68q-27 -24 -69 -24t-67 24q-26 24 -26 68zM604 1614q0 42 27 68t69 26t67 -25q26 -25 26 -69t-26 -69q-26 -23 -68 -23q-43 0 -69 24t-26 68zM477 57l-10 -57
h-508l10 57q90 37 181 49l258 1221q-98 20 -158 49l12 58h508l-12 -58q-70 -31 -166 -49l-191 -901l-53 -154l125 166l795 840l10 49q-106 27 -156 49l13 58h507l-12 -58q-78 -33 -178 -49l-258 -1221q94 -16 156 -49l-11 -57h-508l11 57q96 37 168 49l190 900l53 151
l-114 -156l-807 -849l-8 -46q83 -14 153 -49z" />
    <glyph glyph-name="uni04E5.var.accented" unicode="&#x4e5;`" horiz-adv-x="1099" 
d="M557 1264l156 350q29 4 83 -13t83 -38v-33l-273 -287zM827 1357q0 41 26 65t67 24q40 0 66 -25t26 -65t-26 -63t-66 -23t-67 24q-26 24 -26 63zM348 1357q0 41 26 65t66 24t67 -25q25 -25 25 -65t-26 -63t-66 -23t-66 24t-26 63zM985 111v-50q-94 -74 -203 -73
q-53 0 -81 24t-27 54q0 135 57 344h-8q-197 -434 -444 -435q-72 1 -120 53t-48 156t135 725l-125 17v49q176 66 270 74l45 -25q-14 -66 -88 -382t-74 -445q0 -43 24 -71t56 -28q66 0 136 58t122 143q106 172 144 272l88 453h157l-167 -913h151z" />
    <glyph glyph-name="uni04E6.var.accented" unicode="&#x4e6;`" horiz-adv-x="1490" 
d="M342 573q0 -225 114 -360t272 -135t266 74t165 196q111 237 111 533q0 215 -100 345t-279 130q-137 0 -247 -73q-192 -127 -269 -440q-33 -135 -33 -270zM137 571q0 381 222 634t587 253q146 0 252 -48t164 -133q112 -163 113 -394q0 -348 -186 -618q-91 -132 -243 -211
t-344 -79q-279 0 -422 169t-143 427zM778 1554l217 291q29 5 85 -17t77 -48v-39l-350 -225zM1122 1614q0 46 26 70t68 24t68 -26t27 -68q0 -42 -27 -68q-26 -24 -68 -24t-68 24t-26 68zM557 1614q0 42 27 68q26 26 68 26t68 -25t26 -69t-26 -69q-26 -23 -68 -23t-68 24
t-27 68z" />
    <glyph glyph-name="uni04E7.var.accented" unicode="&#x4e7;`" horiz-adv-x="1034" 
d="M541 1264l155 350q29 4 83 -13t83 -38v-33l-272 -287zM811 1357q0 41 26 65q27 24 67 24t66 -25t26 -65t-26 -63t-67 -23t-67 24t-25 63zM332 1357q0 41 26 65t66 24t66 -25t26 -65t-26 -63t-66 -23t-67 23q-25 24 -25 64zM772 674q0 290 -182 289q-92 1 -162 -61
q-114 -100 -154 -363q-14 -98 -14 -211t55 -190t147 -77q92 1 165 95q74 94 109 235q36 141 36 283zM948 662q0 -279 -148 -483t-376 -204q-158 -1 -248 103t-90 320t135 423q67 99 175 163t239 65q313 0 313 -387z" />
    <glyph glyph-name="uni04E8.var.accented" unicode="&#x4e8;`" horiz-adv-x="1490" 
d="M817 1575l301 254q35 4 102 -18t89 -48v-41l-459 -186zM891 1356q-215 0 -349 -163t-180 -402h904q4 61 4 115t-17 130q-31 148 -125 234t-237 86zM342 573q0 -225 114 -360t285 -135q331 0 462 372q36 101 52 222h-909q-4 -33 -4 -99zM137 571q0 381 222 634t587 253
q146 0 252 -48t164 -133q112 -163 113 -394q0 -348 -186 -618q-91 -132 -243 -211t-344 -79q-279 0 -422 169t-143 427z" />
    <glyph glyph-name="uni04E9.var.accented" unicode="&#x4e9;`" horiz-adv-x="1034" 
d="M520 1217l262 356q34 4 96 -11t85 -34v-39l-402 -307zM260 316q0 -102 56 -178q56 -77 152 -77q97 0 173 113t109 287h-486q-4 -43 -4 -145zM594 963q-250 0 -315 -400h487q6 61 6 125q0 127 -45 201t-133 74zM948 662q0 -279 -148 -483t-376 -204q-158 -1 -248 103
t-90 320t135 423q67 99 175 163t239 65q313 0 313 -387z" />
    <glyph glyph-name="uni04EA.var.accented" unicode="&#x4ea;`" horiz-adv-x="1490" 
d="M764 1554l217 291q29 5 85 -17t77 -48v-39l-350 -225zM1108 1614q0 46 26 70t68 24t68 -26t26 -68t-26 -68q-26 -24 -69 -24q-41 0 -67 24t-26 68zM543 1614q1 42 27 68t68 26t68 -25t26 -69t-26 -69q-26 -23 -68 -23t-69 24q-26 25 -26 68zM891 1356q-215 0 -349 -163
t-180 -402h904q4 61 4 115t-17 130q-31 148 -125 234t-237 86zM342 573q0 -225 114 -360t285 -135q331 0 462 372q36 101 52 222h-909q-4 -33 -4 -99zM137 571q0 381 222 634t587 253q146 0 252 -48t164 -133q112 -163 113 -394q0 -348 -186 -618q-91 -132 -243 -211
t-344 -79q-279 0 -422 169t-143 427z" />
    <glyph glyph-name="uni04EB.var.accented" unicode="&#x4eb;`" horiz-adv-x="1034" 
d="M537 1264l155 350q29 4 83 -13t83 -38v-33l-272 -287zM807 1357q0 41 26 65q27 24 67 24t66 -25t26 -65t-26 -63t-67 -23t-67 24t-25 63zM328 1357q0 41 26 65t66 24t66 -25t26 -65t-26 -63t-66 -23t-67 23q-25 24 -25 64zM260 316q0 -102 56 -178q56 -77 152 -77
q97 0 173 113t109 287h-486q-4 -43 -4 -145zM594 963q-250 0 -315 -400h487q6 61 6 125q0 127 -45 201t-133 74zM948 662q0 -279 -148 -483t-376 -204q-158 -1 -248 103t-90 320t135 423q67 99 175 163t239 65q313 0 313 -387z" />
    <glyph glyph-name="uni04EC.var.accented" unicode="&#x4ec;`" horiz-adv-x="1267" 
d="M524 1554l217 291q29 5 85 -17t77 -48v-39l-350 -225zM868 1614q0 46 26 70t68 24t68 -26t27 -68q0 -42 -27 -68q-26 -24 -68 -24t-68 24t-26 68zM303 1614q0 42 27 68q26 26 68 26t68 -25t26 -69t-26 -69q-26 -23 -68 -23t-68 24t-27 68zM631 1356q-129 0 -195 -39
l-160 -250h-49q10 172 45 307q143 84 407 84q265 0 419 -154t153 -430q0 -391 -233 -645t-627 -254q-221 0 -350 70q25 160 102 348h50l45 -295q53 -20 170 -20q240 0 414 164t220 465l-616 -62q-4 86 33 154h598q14 245 -107 401t-319 156z" />
    <glyph glyph-name="uni04ED.var.accented" unicode="&#x4ed;`" horiz-adv-x="948" 
d="M455 1264l155 350q29 4 83 -13t83 -38v-33l-272 -287zM725 1357q0 41 26 65q27 24 67 24t66 -25t26 -65t-26 -63t-67 -23t-67 24t-25 63zM246 1357q0 41 26 65t66 24t66 -25t26 -65t-26 -63t-66 -23t-67 23q-25 24 -25 64zM309 61q121 0 229 119t142 316l-393 -50
q-20 57 0 127h401q4 49 4 78q0 143 -60 227t-165 85q-41 0 -94 -13q-23 -26 -71 -94t-60 -82q-39 18 -66 76t-12 113q137 86 352 86q162 1 260 -97t98 -262q0 -311 -162 -513t-399 -202q-236 0 -338 99q4 51 38 105t81 85l142 -192q34 -11 73 -11z" />
    <glyph glyph-name="uni04EE.var.accented" unicode="&#x4ee;`" horiz-adv-x="1325" 
d="M1202 1616h-612l20 102h613zM741 1780l301 254q35 4 102 -18t89 -48v-41l-459 -186zM848 639l399 688q-94 14 -166 49l13 58h452l-12 -58q-63 -33 -158 -49l-608 -977q-134 -205 -238 -294t-215 -66q-45 115 -32 217l57 49l209 -53q20 16 55 62t49 79l-317 983
q-88 18 -146 49l13 58h526l-12 -58q-66 -29 -178 -49l219 -692l16 -131h4z" />
    <glyph glyph-name="uni04EF.var.accented" unicode="&#x4ef;`" horiz-adv-x="923" 
d="M504 1427l262 357q33 4 95 -11t85 -34v-39l-401 -307zM856 1227h-510l21 102h510zM260 1049q70 0 88 -76l172 -727l6 -123h4l48 121q141 315 202 536q-2 43 -15 130t-22 114q59 25 119 25t107 -25q-100 -399 -416 -1024q-113 -221 -222 -325q-110 -103 -245 -103
q-45 0 -113 31q-4 49 25 108t78 88l168 -84q110 72 182 285l-238 909l-131 17v49q31 23 93 49t110 25z" />
    <glyph glyph-name="uni04F0.var.accented" unicode="&#x4f0;`" horiz-adv-x="1325" 
d="M756 1554l217 291q29 5 85 -17t77 -48v-39l-351 -225zM1100 1614q0 46 26 70t67 24q42 0 69 -26q26 -26 26 -68t-26 -68q-26 -25 -68 -24q-94 0 -94 92zM535 1614q1 42 27 68t68 26t68 -25t25 -69q0 -44 -26 -69q-25 -23 -67 -23t-69 24q-26 25 -26 68zM848 639l399 688
q-94 14 -166 49l13 58h452l-12 -58q-63 -33 -158 -49l-608 -977q-134 -205 -238 -294t-215 -66q-45 115 -32 217l57 49l209 -53q20 16 55 62t49 79l-317 983q-88 18 -146 49l13 58h526l-12 -58q-66 -29 -178 -49l219 -692l16 -131h4z" />
    <glyph glyph-name="uni04F1.var.accented" unicode="&#x4f1;`" horiz-adv-x="923" 
d="M457 1264l155 350q29 4 83 -13t83 -38v-33l-272 -287zM727 1357q0 41 26 65q27 24 67 24t66 -25t26 -65t-26 -63t-67 -23t-67 24t-25 63zM248 1357q0 41 26 65t66 24q41 0 67 -25q25 -25 25 -65t-26 -63t-66 -23q-41 0 -67 23q-25 24 -25 64zM260 1049q70 0 88 -76
l172 -727l6 -123h4l48 121q141 315 202 536q-2 43 -15 130t-22 114q59 25 119 25t107 -25q-100 -399 -416 -1024q-113 -221 -222 -325q-110 -103 -245 -103q-45 0 -113 31q-4 49 25 108t78 88l168 -84q110 72 182 285l-238 909l-131 17v49q31 23 93 49t110 25z" />
    <glyph glyph-name="uni04F2.var.accented" unicode="&#x4f2;`" horiz-adv-x="1325" 
d="M836 1647l243 307q31 2 74 -11t66 -34v-39l-342 -258zM954 1587l277 209q31 4 90 -13t78 -40l-2 -21l-404 -172zM573 1591l144 228q29 5 87 -11t70 -36v-29l-266 -189zM848 639l399 688q-94 14 -166 49l13 58h452l-12 -58q-63 -33 -158 -49l-608 -977
q-134 -205 -238 -294t-215 -66q-45 115 -32 217l57 49l209 -53q20 16 55 62t49 79l-317 983q-88 18 -146 49l13 58h526l-12 -58q-66 -29 -178 -49l219 -692l16 -131h4z" />
    <glyph glyph-name="uni04F3.var.accented" unicode="&#x4f3;`" horiz-adv-x="923" 
d="M600 1356l172 360q31 4 84 -11t76 -34v-39l-291 -311zM670 1264l293 309q31 4 77 -13t70 -44v-25l-405 -262zM309 1260l160 313q29 4 81 -10t64 -33v-29l-262 -272zM260 1049q70 0 88 -76l172 -727l6 -123h4l48 121q141 315 202 536q-2 43 -15 130t-22 114q59 25 119 25
t107 -25q-100 -399 -416 -1024q-113 -221 -222 -325q-110 -103 -245 -103q-45 0 -113 31q-4 49 25 108t78 88l168 -84q110 72 182 285l-238 909l-131 17v49q31 23 93 49t110 25z" />
    <glyph glyph-name="uni04F8.var.accented" unicode="&#x4f8;`" horiz-adv-x="1687" 
d="M903 1554l217 291q29 5 85 -17t77 -48v-39l-350 -225zM1247 1614q0 46 26 70q25 24 67 24t69 -26t27 -68t-27 -68q-27 -24 -69 -24t-68 24t-25 68zM682 1614q0 42 27 68t69 26t67 -25t25 -69t-26 -69q-26 -23 -67 -23q-43 0 -69 24t-26 68zM621 766q-92 0 -150 -12
l-137 -648q31 -10 145 -10q195 0 305 115t111 338q0 217 -274 217zM680 868q200 0 310 -86t110 -237q0 -271 -175 -411t-458 -140l-252 6h-256l10 57q88 37 181 49l258 1221q-82 16 -158 49l12 58h533l-13 -58q-92 -37 -190 -49l-100 -473q72 14 188 14zM1554 57l-10 -57
h-508l11 57q68 31 172 49l258 1221q-88 18 -150 49l12 58h508l-12 -58q-78 -37 -174 -49l-258 -1221q83 -14 151 -49z" />
    <glyph glyph-name="uni04F9.var.accented" unicode="&#x4f9;`" horiz-adv-x="1359" 
d="M700 1264l156 350q29 4 83 -13t83 -38v-33l-272 -287zM971 1357q-1 41 25 65t67 24t67 -25t25 -65q0 -40 -26 -63q-27 -23 -67 -23t-66 23q-25 24 -25 64zM492 1357q0 41 26 65t66 24t66 -25t26 -65t-26 -63t-66 -23t-67 23q-25 24 -25 64zM1217 61q-94 -73 -203 -73
t-109 95q0 46 23 159l170 782h164l-197 -913h152v-50zM621 668q74 0 132 -50t58 -149q0 -186 -146 -340t-339 -154q-92 -1 -154 57t-61 179q0 121 102 444l45 136q33 96 41 118l-125 17v49q127 61 291 74l45 -25q-143 -377 -188 -520h8q133 164 291 164zM274 215
q0 -154 113 -154t185 112t73 243q0 66 -40 98t-87 31q-119 0 -207 -125q-37 -111 -37 -205z" />
    <glyph glyph-name="uniF37E.var.accented" unicode="&#xf37e;`" horiz-adv-x="1134" 
d="M760 1190q-88 0 -146 27q-98 45 -115 148q-7 38 -3 75q59 45 147 55l49 -27v-157q35 -27 84 -27q88 0 157 55t95 136q49 0 70 -31q-31 -98 -119 -176t-219 -78zM731 1360l205 330q33 4 95 -12t85 -33v-39l-344 -281zM233 96q0 64 3 76l36 47l174 -47q37 27 76 96
l-278 744q-74 14 -121 41l10 51h471l-10 -51q-55 -25 -148 -41l172 -490l15 -100h2l57 102l326 488q-78 14 -137 41l10 51h397l-10 -51q-59 -31 -133 -41l-490 -695q-117 -180 -211 -261t-188 -64q-23 40 -23 104z" />
    <glyph glyph-name="uniF3A2.var.accented" unicode="&#xf3a2;`" horiz-adv-x="1110" 
d="M680 1257l262 357q33 4 95 -11t85 -34v-39l-401 -307zM864 1053l10 51h390l-11 -51q-59 -31 -137 -41l-446 -545l-80 -375q66 -10 125 -41l-10 -51h-459l10 51q59 27 152 41l79 373l-235 547q-78 12 -133 41l10 51h477l-10 -51q-49 -23 -141 -41l184 -449l360 449
q-88 18 -135 41z" />
    <glyph glyph-name="uniF3A3.accented" unicode="&#xf3a3;`" horiz-adv-x="1110" 
d="M623 1257l262 357q33 4 95 -11t85 -34v-39l-401 -307zM864 1053l10 51h390l-11 -51q-59 -31 -137 -41l-446 -545h252l-19 -88h-252l-61 -287q66 -10 125 -41l-10 -51h-459l10 51q59 27 152 41l61 287h-248l19 88h245l-233 545q-78 12 -133 41l10 51h477l-10 -51
q-49 -23 -141 -41l184 -449l360 449q-88 18 -135 41z" />
    <glyph glyph-name="uniF3B2.var.accented" unicode="&#xf3b2;`" horiz-adv-x="1183" 
d="M750 1190q-88 0 -146 27t-84 69q-44 73 -35 154q59 45 148 55l49 -27v-157q35 -27 84 -27q88 0 157 55t95 136q49 0 69 -31q-31 -98 -119 -176t-218 -78zM721 1360l205 330q33 4 95 -12t85 -33v-39l-344 -281zM592 776l-205 -321h342l-65 323l-2 137h-5zM311 51l-10 -51
h-401l10 51q59 27 133 41l659 1030h60l225 -1030q82 -16 125 -41l-10 -51h-455l10 51q82 29 150 41l-59 275h-414l-166 -275q84 -14 143 -41z" />
    <glyph glyph-name="uniF3B3.var.accented" unicode="&#xf3b3;`" horiz-adv-x="1183" 
d="M926 1398q0 40 26 64t66 25q40 0 66 -25q26 -24 26 -64t-26 -64t-66 -24t-67 24q-25 24 -25 64zM446 1398q0 40 26 64t67 25q41 0 67 -25q26 -24 25 -64q0 -40 -26 -64q-27 -24 -67 -24t-66 24t-26 64zM655 1305l156 350q29 5 83 -13t83 -38v-33l-272 -287zM592 776
l-205 -321h342l-65 323l-2 137h-5zM311 51l-10 -51h-401l10 51q59 27 133 41l659 1030h60l225 -1030q82 -16 125 -41l-10 -51h-455l10 51q82 29 150 41l-59 275h-414l-166 -275q84 -14 143 -41z" />
    <glyph glyph-name="uniF3B4.var.accented" unicode="&#xf3b4;`" horiz-adv-x="1613" 
d="M924 1257l262 357q33 4 95 -11t85 -34v-39l-401 -307zM791 809l-279 -324h274l101 469h-4zM553 51q70 29 149 41l66 305h-332l-260 -305q76 -12 137 -41l-10 -51h-403l10 51q59 27 133 41l807 928q-37 10 -90 33l10 51h844q-25 -123 -80 -266h-49l-35 178h-369l-86 -408
h271l96 119h43q-20 -178 -70 -330h-43l-47 123h-270l-90 -432h389l127 195h49q-4 -145 -37 -283h-870z" />
    <glyph glyph-name="uniF3B5.var.accented" unicode="&#xf3b5;`" horiz-adv-x="1030" 
d="M645 1190q-88 0 -146 27t-83 69q-44 73 -35 154q59 45 147 55l50 -27v-157q35 -27 84 -27q88 0 156 55t95 136q49 0 70 -31q-31 -98 -119 -176t-219 -78zM616 1360l205 330q33 4 95 -12t85 -33v-39l-344 -281zM193 1104h837q-20 -104 -78 -266h-49l-35 178h-370l-86 -408
h272l94 119h45q-23 -162 -69 -330h-45l-45 123h-273l-90 -432h391l127 195h49q-8 -154 -39 -283h-870l10 51q86 31 150 41l196 920q-70 12 -133 41z" />
    <glyph glyph-name="uniF3B6.var.accented" unicode="&#xf3b6;`" horiz-adv-x="1261" 
d="M608 1257l262 357q34 4 96 -11t85 -34v-39l-402 -307zM586 70q152 0 255 110t144 322h-645q-14 -47 -14 -123q0 -154 54 -232q54 -77 206 -77zM547 -18q-154 0 -271 75q-63 41 -101 126t-38 199t25 208h837q16 233 -50 339q-67 105 -269 105q-100 0 -176 -22l-144 -234
h-49q4 162 35 279q160 66 363 65q487 0 487 -436q0 -304 -166 -504t-483 -200z" />
    <glyph glyph-name="uniF3B7.accented" unicode="&#xf3b7;`" horiz-adv-x="1261" 
d="M932 1398q0 40 26 64t66 25q41 0 67 -25q25 -24 25 -64t-26 -64t-66 -24q-41 0 -67 24q-25 24 -25 64zM453 1398q-1 40 25 64t67 25q41 0 67 -25q26 -24 25 -64q0 -40 -26 -64q-27 -24 -67 -24t-66 24q-25 24 -25 64zM662 1305l155 350q29 5 83 -13t83 -38v-33l-272 -287
zM586 70q152 0 255 110t144 322h-645q-14 -47 -14 -123q0 -154 54 -232q54 -77 206 -77zM547 -18q-154 0 -271 75q-63 41 -101 126t-38 199t25 208h837q16 233 -50 339q-67 105 -269 105q-100 0 -176 -22l-144 -234h-49q4 162 35 279q160 66 363 65q487 0 487 -436
q0 -304 -166 -504t-483 -200z" />
    <glyph glyph-name="uniF3BB.var.accented" unicode="&#xf3bb;`" horiz-adv-x="1302" 
d="M1059 1268h-510l20 102h510zM684 1448l262 356q33 4 95 -11t85 -34v-39l-401 -307zM424 51l-10 -51h-455l10 51q76 33 150 41l196 920q-80 14 -133 41l11 51h454l-10 -51q-63 -29 -139 -41l-142 -656l-43 -120l105 129l637 610l8 37q-90 20 -133 41l10 51h457l-11 -51
q-55 -23 -151 -41l-197 -920q76 -12 136 -41l-11 -51h-456l10 51q70 27 139 41l139 653l43 121l-96 -123l-643 -616l-8 -35q67 -10 133 -41z" />
    <glyph glyph-name="uniF3BC.var.accented" unicode="&#xf3bc;`" horiz-adv-x="1302" 
d="M969 1398q-1 40 25 64t67 25q41 0 67 -25q26 -24 25 -64q0 -40 -26 -64q-27 -24 -67 -24t-66 24q-25 24 -25 64zM489 1398q0 40 26 64t67 25q40 0 66 -25q26 -24 26 -64t-26 -64t-66 -24t-67 24q-26 24 -26 64zM698 1305l156 350q29 5 83 -13t83 -38v-33l-272 -287z
M424 51l-10 -51h-455l10 51q76 33 150 41l196 920q-80 14 -133 41l11 51h454l-10 -51q-63 -29 -139 -41l-142 -656l-43 -120l105 129l637 610l8 37q-90 20 -133 41l10 51h457l-11 -51q-55 -23 -151 -41l-197 -920q76 -12 136 -41l-11 -51h-456l10 51q70 27 139 41l139 653
l43 121l-96 -123l-643 -616l-8 -35q67 -10 133 -41z" />
    <glyph glyph-name="uniF3BD.var.accented" unicode="&#xf3bd;`" horiz-adv-x="1323" 
d="M944 1398q0 40 26 64t66 25q40 0 67 -25q25 -24 25 -64t-26 -64t-66 -24t-66 24t-26 64zM465 1398q-1 40 25 64t67 25q41 0 67 -25q26 -24 26 -64t-26 -64t-67 -24t-67 24q-25 24 -25 64zM674 1305l155 350q29 5 83 -13t83 -38v-33l-272 -287zM340 428q0 -180 87 -269
t208 -89t204 55q143 95 194 344q22 103 22 233t-74 231t-221 101q-200 0 -310 -172t-110 -434zM770 1122q246 0 367 -124t120 -332q0 -254 -140 -455q-71 -101 -197 -165t-289 -64q-223 0 -359 113q-135 114 -135 359t155 450q74 98 198 158t280 60z" />
    <glyph glyph-name="uniF3BE.var.accented" unicode="&#xf3be;`" horiz-adv-x="1323" 
d="M686 1257l262 357q33 4 95 -11t85 -34v-39l-401 -307zM752 1034q-156 0 -259 -116t-139 -310h697q4 49 4 74q0 150 -74 251q-73 101 -229 101zM340 428q0 -180 87 -269t220 -89q168 0 265 124t128 312h-698q-2 -27 -2 -78zM770 1122q246 0 367 -124t120 -332
q0 -254 -140 -455q-71 -101 -197 -165t-289 -64q-223 0 -359 113q-135 114 -135 359t155 450q74 98 198 158t280 60z" />
    <glyph glyph-name="uniF3BF.accented" unicode="&#xf3bf;`" horiz-adv-x="1323" 
d="M963 1398q-1 40 25 64t67 25q41 0 67 -25q26 -24 25 -64q0 -40 -26 -64q-27 -24 -67 -24t-66 24q-25 24 -25 64zM483 1398q0 40 26 64q27 24 67 25q40 0 66 -25q26 -24 26 -64t-26 -64t-67 -24t-67 24t-25 64zM692 1305l156 350q29 5 83 -13t83 -38v-33l-273 -287z
M752 1034q-156 0 -259 -116t-139 -310h697q4 49 4 74q0 150 -74 251q-73 101 -229 101zM340 428q0 -180 87 -269t220 -89q168 0 265 124t128 312h-698q-2 -27 -2 -78zM770 1122q246 0 367 -124t120 -332q0 -254 -140 -455q-71 -101 -197 -165t-289 -64q-223 0 -359 113
q-135 114 -135 359t155 450q74 98 198 158t280 60z" />
    <glyph glyph-name="uniF3C0.var.accented" unicode="&#xf3c0;`" horiz-adv-x="1132" 
d="M756 1398q0 40 26 64t66 25q40 0 66 -25q26 -24 26 -64t-26 -64t-66 -24t-67 24q-25 24 -25 64zM276 1398q0 40 26 64t67 25q41 0 67 -25q26 -24 25 -64q0 -40 -26 -64q-27 -24 -67 -24t-66 24t-26 64zM485 1305l156 350q29 5 83 -13t83 -38v-33l-272 -287zM553 1034
q-84 0 -154 -28l-133 -199h-49q0 115 33 250q112 65 352 65t352 -114t113 -302q0 -188 -62 -335q-109 -259 -387 -351q-117 -39 -245 -38q-240 0 -350 55q20 113 88 282h49l41 -233q43 -16 174 -16q172 0 315 118t182 349l-514 -48q-4 68 29 136l496 -2q25 221 -57 316
t-273 95z" />
    <glyph glyph-name="uniF3C1.var.accented" unicode="&#xf3c1;`" horiz-adv-x="1134" 
d="M1028 1268h-510l21 102h510zM688 1448l262 356q34 4 96 -11t84 -34v-39l-401 -307zM233 96q0 64 3 76l36 47l174 -47q37 27 76 96l-278 744q-74 14 -121 41l10 51h471l-10 -51q-55 -25 -148 -41l172 -490l15 -100h2l57 102l326 488q-78 14 -137 41l10 51h397l-10 -51
q-59 -31 -133 -41l-490 -695q-117 -180 -211 -261t-188 -64q-23 40 -23 104z" />
    <glyph glyph-name="uniF3C2.var.accented" unicode="&#xf3c2;`" horiz-adv-x="1134" 
d="M881 1398q-1 40 25 64t67 25q41 0 67 -25q26 -24 25 -64q0 -40 -26 -64q-27 -24 -67 -24t-66 24q-25 24 -25 64zM401 1398q0 40 26 64t67 25q40 0 66 -25q26 -24 26 -64t-26 -64t-66 -24t-67 24q-26 24 -26 64zM610 1305l156 350q29 5 83 -13t83 -38v-33l-273 -287z
M233 96q0 64 3 76l36 47l174 -47q37 27 76 96l-278 744q-74 14 -121 41l10 51h471l-10 -51q-55 -25 -148 -41l172 -490l15 -100h2l57 102l326 488q-78 14 -137 41l10 51h397l-10 -51q-59 -31 -133 -41l-490 -695q-117 -180 -211 -261t-188 -64q-23 40 -23 104z" />
    <glyph glyph-name="uniF3C3.var.accented" unicode="&#xf3c3;`" horiz-adv-x="1134" 
d="M723 1397l172 360q31 4 84 -11t76 -34v-39l-291 -311zM793 1305l292 309q31 4 78 -13t70 -45v-24l-406 -262zM432 1300l160 314q29 4 81 -10t64 -33v-29l-262 -272zM233 96q0 64 3 76l36 47l174 -47q37 27 76 96l-278 744q-74 14 -121 41l10 51h471l-10 -51
q-55 -25 -148 -41l172 -490l15 -100h2l57 102l326 488q-78 14 -137 41l10 51h397l-10 -51q-59 -31 -133 -41l-490 -695q-117 -180 -211 -261t-188 -64q-23 40 -23 104z" />
    <glyph glyph-name="uniF3C6.accented" unicode="&#xf3c6;`" horiz-adv-x="1492" 
d="M1081 1398q0 40 26 64t67 25q40 0 66 -25q26 -24 26 -64t-26 -64t-66 -24t-67 24q-26 24 -26 64zM602 1398q0 40 26 64t66 25q40 0 67 -25q25 -24 25 -64t-26 -64t-66 -24t-66 24t-26 64zM811 1305l156 350q29 5 83 -13t83 -38v-33l-273 -287zM520 582q-47 0 -117 -9
l-102 -483q31 -6 119 -6q150 0 240 86t92 236q0 94 -50 135t-182 41zM408 -4l-220 4h-229l10 51q84 33 150 41l196 920q-78 14 -133 41l11 51h477l-11 -51q-68 -31 -161 -41l-76 -353q86 10 160 11q373 0 372 -262q0 -142 -86 -240t-204 -135t-256 -37zM1364 51l-10 -51
h-455l10 51q59 23 142 41l196 920q-68 12 -127 41l10 51h457l-10 -51q-72 -29 -147 -41l-197 -920q63 -10 131 -41z" />
    <glyph glyph-name="uniF684" unicode="&#xf769;&#xf76a;" horiz-adv-x="1202" 
d="M788 1053l11 51h456l-10 -51q-53 -25 -139 -41l-182 -858q-72 -342 -371 -406l-14 29q70 45 116 125q47 80 82 237l187 873q-85 14 -136 41zM471 51l-10 -51h-461l10 51q68 29 148 41l196 920q-70 12 -131 43l10 49h461l-10 -49q-59 -27 -147 -43l-197 -920
q80 -14 131 -41z" />
    <glyph glyph-name="f_f" unicode="ff" horiz-adv-x="1136" 
d="M471 1126l-20 -102h368l21 90q27 135 82 225q-74 51 -176 53t-174 -62q-74 -65 -101 -204zM119 926v49q72 41 174 67l14 72q74 365 471 365q113 0 215 -47q115 109 318 108q86 0 153 -31q-8 -113 -75 -172l-156 125q-61 -16 -93 -36t-70 -91q-38 -72 -66 -209l-21 -102
h227q10 -47 -20 -98h-227l-119 -760q-18 -111 -58 -201q-67 -153 -175 -237q-75 -59 -150 -84l-19 43q66 31 136 145t102 295l121 799h-371l-131 -838q-18 -111 -57 -201q-65 -150 -175 -237q-76 -60 -151 -84l-18 43q66 31 136 145t101 295l133 877h-149z" />
    <glyph glyph-name="fi" unicode="fi" horiz-adv-x="1069" 
d="M954 61q-94 -73 -202 -73t-109 104q0 54 23 150l131 684h-367l-131 -838q-18 -111 -57 -201q-65 -150 -175 -237q-76 -60 -151 -84l-18 43q66 31 136 145t101 295l133 877h-149v49q72 41 174 67l14 72q51 238 170 332t290 94t286 -86q-4 -47 -35 -100t-74 -74l-162 182
q-116 -2 -192 -70t-119 -266l-20 -102h120q195 0 367 25l37 -25l-172 -913h151v-50z" />
    <glyph glyph-name="fl" unicode="fl" horiz-adv-x="1105" 
d="M977 61q-94 -73 -205 -73t-111 95q0 46 109 575t125 677l6 54q-70 75 -161 75q-90 0 -158 -70t-111 -268l-20 -102h227q10 -47 -21 -98h-227l-115 -733q-94 -532 -399 -627l-18 43q66 31 136 145t101 295l133 877h-149v49q72 41 174 67l14 72q90 426 445 426
q88 0 143 -29q96 27 154 29l41 -22l-265 -1407h152v-50z" />
    <glyph glyph-name="f_f_i" unicode="ffi" horiz-adv-x="1601" 
d="M1487 61q-94 -73 -203 -73q-108 0 -108 104q0 54 22 150l131 684h-366l-119 -760q-18 -111 -58 -201q-67 -153 -175 -237q-75 -59 -150 -84l-19 43q66 31 137 145t101 295l121 799h-371l-131 -838q-18 -111 -57 -201q-65 -150 -175 -237q-76 -60 -151 -84l-18 43
q66 31 136 145t101 295l133 877h-149v49q72 41 174 67l14 72q74 365 471 365q113 0 215 -47q115 109 318 108q160 0 274 -86q-4 -47 -35 -100t-73 -74l-162 182q-117 -2 -193 -70t-118 -266l-21 -102h121q195 0 366 25l37 -25l-172 -913h152v-50zM471 1126l-20 -102h368
l21 90q27 135 82 225q-74 51 -176 53t-174 -62q-74 -65 -101 -204z" />
    <glyph glyph-name="f_f_l" unicode="ffl" horiz-adv-x="1638" 
d="M1509 61q-95 -73 -205 -73t-110 95q0 46 108 570t125 682l7 54q-70 75 -161 75t-159 -70t-110 -268l-21 -102h227q10 -47 -20 -98h-227l-119 -760q-18 -111 -58 -201q-67 -153 -175 -237q-75 -59 -150 -84l-19 43q66 31 137 145t101 295l121 799h-371l-131 -838
q-18 -111 -57 -201q-65 -150 -175 -237q-76 -60 -151 -84l-18 43q66 31 136 145t101 295l133 877h-149v49q72 41 174 67l14 72q74 365 471 365q113 0 215 -47q115 109 318 108q55 0 116 -29q96 27 154 29l41 -22l-264 -1407h151v-50zM471 1126l-20 -102h368l21 90
q27 135 82 225q-74 51 -176 53t-174 -62q-74 -65 -101 -204z" />
    <glyph glyph-name=".notdef" horiz-adv-x="1452" 
d="M471 106q14 0 12 -14h-26q0 14 14 14zM471 66q-14 0 -14 14h43v14q0 27 -31 27t-31 -35t33 -35q17 0 25 8l-7 11q-4 -4 -18 -4zM410 78q0 -10 -14 -10t-25 6l-6 -19q20 -4 30 -4q33 0 33 29q0 16 -21 24q-22 8 -22 14t10 7q10 0 27 -4l4 16q-20 4 -27 4q-33 0 -32 -26
q0 -14 21 -24q22 -9 22 -13zM207 127h10q18 0 19 -12q0 -14 -21 -15h-8v27zM188 141v-86h19v29h10q37 0 37 29t-39 28h-27zM1325 109q14 0 12 -15h-26q0 15 14 15zM1325 68q-14 0 -14 14h43v14q0 27 -31 27t-31 -35t33 -35q17 0 25 8l-7 11q-4 -4 -18 -4zM1237 96
q0 13 13 13q14 0 14 -21t-19 -20q-4 0 -8 4v24zM1219 121v-90h18v26q4 -4 12 -4q33 0 33 35t-27 35q-12 0 -20 -10h-4l-2 8h-10zM1165 31q12 0 21 30l24 60h-18l-12 -37v-12h-2l-2 12l-15 37h-20l28 -66q-4 -10 -10 -10l-4 2l-4 -14q2 -2 14 -2zM1141 127v14h-74v-14h29v-72
h16v72h29zM1042 68q-10 0 -10 9t12 9l13 -2v-6q-5 -10 -15 -10zM1073 72v26q0 25 -24 25q-11 0 -19 -4t-10 -4l2 -11q20 4 27 4t8 -10v-4l-13 2q-31 0 -30 -24q0 -18 20 -19q16 0 23 13h2l2 -11h14q-2 2 -2 17zM1000 123q-8 0 -13 -12h-2l-2 10h-14v-66h18v41q0 10 14 10
l7 -2l4 17q-4 2 -12 2zM922 68q-10 0 -11 10q0 8 13 8h6l4 -2v-6q-2 -10 -12 -10zM934 98v-4h-4q-2 2 -6 2q-31 0 -31 -24q0 -18 20 -19q14 0 21 13l6 -11h14q-2 2 -2 17v26q0 25 -24 25q-6 0 -31 -8l4 -11q16 4 23 5q10 0 10 -11zM842 127h10q18 0 18 -13t-20 -14h-8v27z
M823 141v-86h19v29h10q37 0 37 29t-39 28h-27zM728 80q-7 0 -7 10t10 10h6l6 11q-8 4 -18 4q-20 0 -20 -25t20 -24q10 0 18 4l-4 12q-4 -2 -11 -2zM692 91q0 36 34 36t34 -36t-34 -36t-34 36zM678 92q0 -51 48 -51t48 49t-49 49q-20 0 -34 -13q-13 -14 -13 -34zM637 141h-19
q-10 0 -10 -8q-2 -4 -2 -10v-4h-10v-15h10v-51h17v51h16v15h-16q0 8 8 8h12l2 12q0 2 -8 2zM565 119v-66h19v66h-19zM574 141q-10 0 -9 -9q0 -9 9 -9t10 8q0 10 -10 10zM544 121q-5 0 -16 -10v8h-14v-66h16v41q6 10 12 10t11 -2l2 17q-6 2 -11 2zM332 125v14h-72v-14h27v-72
h18v72h27zM1270 1229l-103 102l-399 -444l-399 444l-103 -102l404 -451l-404 -450l103 -103l399 445l399 -445l103 103l-406 450zM102 0v1434h1332v-1434h-1332z" />
    <glyph glyph-name=".null" horiz-adv-x="0" 
 />
    <glyph glyph-name="nonmarkingreturn" horiz-adv-x="681" 
 />
    <glyph glyph-name="space" unicode=" " horiz-adv-x="491" 
 />
    <glyph glyph-name="exclam" unicode="!" horiz-adv-x="665" 
d="M139 115q0 59 38 95t98 36q61 0 99 -36t38 -95t-38 -95t-98 -36t-99 36q-38 36 -38 95zM528 1436q47 0 88 -23l-135 -610l-135 -357h-49l12 357l123 610q49 23 96 23z" />
    <glyph glyph-name="quotedbl" unicode="&#x22;" horiz-adv-x="686" 
d="M184 1036l2 336q38 62 96 62t68 -62l-129 -336h-37zM422 1036l2 336q37 62 95 62t69 -62l-129 -336h-37z" />
    <glyph glyph-name="numbersign" unicode="#" 
d="M535 883l-140 -312h295l139 312h-294zM487 119l162 362h-295l-161 -362h-105l162 362h-164l49 90h156l139 312h-156l48 90h149l156 342h102l-154 -342h295l156 342h102l-155 -342h164l-54 -90h-151l-139 -312h157l-55 -90h-143l-162 -362h-103z" />
    <glyph glyph-name="dollar" unicode="$" 
d="M762 344q0 147 -144 258l-110 -518q110 20 182 87t72 173zM426 1110q0 -133 147 -233l103 477q-114 -8 -182 -72t-68 -172zM358 -143l25 118q-97 6 -201 43t-147 72q31 135 86 227h49l84 -198q39 -39 152 -41l124 586q-74 48 -106 72q-123 96 -155 184q-22 59 -21 135
q0 155 118 273t330 128l23 100h102l-22 -100q180 -8 291 -65q-25 -100 -115 -185h-49l-74 137q-20 2 -74 11l-112 -535q208 -129 253 -268q22 -68 21 -152q0 -163 -124 -281t-331 -138l-24 -123h-103z" />
    <glyph glyph-name="percent" unicode="%" horiz-adv-x="1591" 
d="M102 49l1360 1403l68 -59l-1362 -1405zM903 238q0 -82 35 -136t106 -53q102 0 182 99q79 98 79 274t-144 176q-96 0 -177 -106t-81 -254zM739 238q0 184 133 309t306 125q137 0 213 -72t75 -192q0 -201 -133 -317t-303 -116q-121 0 -206 75t-85 188zM313 1024
q0 -82 35 -135t107 -53q102 0 181 99t79 275t-144 174q-96 0 -177 -106t-81 -254zM150 1024q0 184 133 309t305 125q137 0 213 -72t76 -192q1 -200 -133 -316t-304 -116q-122 0 -206 74t-84 188z" />
    <glyph glyph-name="ampersand" unicode="&#x26;" horiz-adv-x="1779" 
d="M515 -25q-171 1 -274 95t-104 237q0 289 434 557q-80 115 -79 277q0 127 111 222q112 95 259 95q256 0 256 -205q0 -131 -115 -237t-235 -185q113 -188 338 -438q59 63 143 222t107 311q-63 12 -113 49l10 49h410l-10 -49q-66 -35 -146 -49q-57 -150 -152 -324t-186 -276
q168 -160 275 -228l104 -49l-10 -49h-285q-139 100 -217 193q-82 -88 -216 -153t-305 -65zM637 1155q0 -131 100 -276q231 170 231 334t-128 163q-88 0 -146 -66q-57 -67 -57 -155zM348 342q0 -120 75 -192t202 -72q194 0 358 176q-96 104 -213 278t-164 275
q-258 -207 -258 -465z" />
    <glyph glyph-name="quotesingle" unicode="'" horiz-adv-x="448" 
d="M184 1036l2 336q38 62 96 62t68 -62l-129 -336h-37z" />
    <glyph glyph-name="parenleft" unicode="(" horiz-adv-x="696" 
d="M127 238q0 725 721 1200l33 -33q-223 -193 -395 -461q-91 -143 -144 -319t-53 -361q0 -399 211 -657l-56 -37q-317 276 -317 668z" />
    <glyph glyph-name="parenright" unicode=")" horiz-adv-x="696" 
d="M426 772q0 190 -44 326t-167 307l49 33q322 -301 322 -678q0 -205 -62 -394q-62 -190 -166 -338q-206 -292 -483 -458l-39 37q100 82 196 192q394 460 394 973z" />
    <glyph glyph-name="asterisk" unicode="*" horiz-adv-x="952" 
d="M655 1536q55 0 78 -25l-41 -266q-30 -20 -63 0l-43 266q14 25 69 25zM729 1217l207 178q32 -3 58 -51t16 -80l-252 -101q-29 21 -29 54zM758 1133l250 -91q14 -30 -14 -76t-60 -55l-205 170q0 34 29 52zM662 772q-57 0 -74 23l43 264q32 16 65 0l39 -264q-16 -23 -73 -23
zM596 1083l-211 -170q-31 1 -59 49t-17 80l254 93q33 -19 33 -52zM565 1167l-254 99q-12 30 16 76t60 55l209 -176q0 -40 -31 -54z" />
    <glyph glyph-name="plus" unicode="+" 
d="M92 653v103h410v432h102v-432h410v-103h-410v-444h-102v444h-410z" />
    <glyph glyph-name="comma" unicode="," horiz-adv-x="575" 
d="M336 87q0 -147 -116 -279t-271 -177l-27 60q88 31 161 113t83 171q-41 43 -119 76q-2 72 53 135t103 66q133 -18 133 -165z" />
    <glyph glyph-name="hyphen" unicode="-" horiz-adv-x="872" 
d="M147 516l27 123h578l-27 -123h-578z" />
    <glyph glyph-name="period" unicode="." horiz-adv-x="550" 
d="M61 115q0 59 38 95q39 36 99 36t98 -36t38 -95t-38 -95t-98 -36t-99 35q-38 37 -38 96z" />
    <glyph glyph-name="slash" unicode="/" horiz-adv-x="704" 
d="M-74 -227l746 1685l82 -37l-748 -1687z" />
    <glyph glyph-name="zero" unicode="0" 
d="M225 410q-1 -88 15 -162t65 -132t125 -59q143 0 250 153q201 290 201 812q0 146 -47 250t-158 104q-145 0 -252 -156q-106 -157 -152 -371t-47 -439zM41 468q0 130 41 312t119 336t205 248t282 94q297 0 363 -294q14 -67 14 -138q0 -387 -160 -703q-78 -155 -205 -251
t-262 -96t-214 42q-78 43 -116 115q-38 73 -52 139t-15 196z" />
    <glyph glyph-name="one" unicode="1" 
d="M774 57l-10 -57h-586l10 57q92 41 226 70l215 1012l39 121q-111 -43 -260 -39v45q254 80 411 192h49l-282 -1331q90 -21 188 -70z" />
    <glyph glyph-name="two" unicode="2" 
d="M680 1458q192 0 276 -79t84 -208q0 -354 -721 -935l-100 -80v-9l115 13h352l150 229h49q-8 -176 -62 -389h-835l12 59q856 707 856 1110q0 87 -51 137t-143 50t-162 -25l-129 -291h-49q-27 166 -21 287q187 131 379 131z" />
    <glyph glyph-name="three" unicode="3" 
d="M414 68q164 0 258 118t94 279q0 233 -266 233h-123v47l440 474l92 71v8l-110 -12h-336l-125 -209h-49q8 229 35 357h778v-60l-420 -459l-123 -90v-4l72 15q319 -27 319 -332q0 -229 -147 -379t-445 -150q-96 0 -199 29t-149 74l92 182h39q5 -10 57 -78t70 -98
q72 -16 146 -16z" />
    <glyph glyph-name="four" unicode="4" 
d="M614 502l113 536l61 148h-6l-108 -148l-453 -483l-96 -68l149 15h340zM850 57l-10 -57h-521l11 57q113 35 200 49l62 293h-627l8 41l971 1018h49l-202 -956h262l-23 -103h-262l-61 -293q80 -16 143 -49z" />
    <glyph glyph-name="five" unicode="5" 
d="M516 874q195 0 301 -89t107 -257q0 -248 -155 -400t-409 -153q-94 0 -187 29t-140 74l92 182h39l106 -176q72 -16 109 -16q186 0 284 119q97 120 97 294q0 254 -342 248l-142 -2l232 707h483l111 112h49q-35 -154 -98 -266h-498l-135 -406h96z" />
    <glyph glyph-name="six" unicode="6" 
d="M829 530q-1 218 -213 220q-106 0 -187 -46t-132 -116q-13 -30 -23 -96t-10 -97q0 -328 223 -327q113 0 195 79q147 143 147 383zM1014 541q0 -206 -135 -378q-66 -83 -177 -135t-259 -52t-256 92q-107 94 -107 310t115 438t341 402t515 252l8 -57q-557 -205 -733 -708
q53 63 145 105t197 42q174 0 260 -83t86 -228z" />
    <glyph glyph-name="seven" unicode="7" 
d="M1085 1434v-56q-268 -330 -426 -637t-313 -741h-194q283 655 690 1198l80 98l-109 -10h-424l-125 -209h-49q8 211 35 357h835z" />
    <glyph glyph-name="eight" unicode="8" 
d="M410 1079q0 -77 66 -151t159 -125q238 172 237 364q0 91 -49 145t-161 54t-182 -83t-70 -204zM756 360q0 108 -67 181q-67 72 -202 151q-297 -154 -297 -405q0 -95 64 -157t166 -62q166 0 251 92t85 200zM399 -25q-174 -1 -273 83t-99 228q-1 144 107 260
q108 114 310 175q-200 141 -200 323t125 298t311 116t272 -75t86 -199t-99 -238q-99 -113 -263 -168q125 -86 184 -167t60 -212q0 -170 -136 -297t-385 -127z" />
    <glyph glyph-name="nine" unicode="9" 
d="M311 902q0 -218 230 -218q90 0 171 46t132 116q12 30 22 96t11 96q0 328 -224 328q-113 0 -194 -80q-148 -145 -148 -384zM127 893q0 206 135 378q66 83 176 135t260 52q148 0 256 -93t107 -309q0 -216 -115 -438t-341 -403q-226 -180 -515 -252l-8 57q557 205 733 709
q-53 -63 -145 -105t-197 -42q-174 0 -260 83t-86 228z" />
    <glyph glyph-name="colon" unicode=":" horiz-adv-x="657" 
d="M162 115q0 59 38 95t98 36t98 -36t38 -95t-38 -95t-98 -36t-98 36t-38 95zM264 909q0 59 38 95t98 36t99 -35q38 -35 38 -95t-38 -96q-39 -36 -99 -36t-98 36t-38 95z" />
    <glyph glyph-name="semicolon" unicode=";" horiz-adv-x="632" 
d="M252 909q0 59 38 95t98 36t98 -36t38 -94q0 -60 -38 -96t-98 -36t-98 36t-38 95zM20 -369l-26 60q88 31 161 113t83 171q-41 43 -119 76q-2 72 53 135t102 66q134 -18 134 -165t-117 -279t-271 -177z" />
    <glyph glyph-name="less" unicode="&#x3c;" 
d="M893 211l-787 453v63l789 481l47 -86l-520 -313l-176 -84l174 -63l551 -324z" />
    <glyph glyph-name="equal" unicode="=" 
d="M92 489v103h922v-103h-922zM92 817v103h922v-103h-922z" />
    <glyph glyph-name="greater" unicode="&#x3e;" 
d="M213 1208l786 -452v-64l-788 -481l-47 86l520 313l176 84l-174 64l-551 323z" />
    <glyph glyph-name="question" unicode="?" horiz-adv-x="1009" 
d="M238 115q0 59 37 95q39 36 99 36t98 -36t38 -95t-38 -95t-98 -36t-99 35q-37 37 -37 96zM842 1174q0 182 -211 182q-107 0 -158 -39l-78 -250h-49q-31 186 -16 307q154 84 339 84t273 -72t88 -194q0 -217 -209 -371l-176 -129q-90 -61 -160 -145t-82 -182h-36
q-8 119 36 218q45 99 117 167l146 131q176 149 176 293z" />
    <glyph glyph-name="at" unicode="@" horiz-adv-x="2058" 
d="M764 356q0 -116 35 -170t113 -55q78 0 175 132q96 132 170 310l52 301q-68 44 -164 44q-95 0 -187 -92t-143 -224q-51 -130 -51 -246zM1440 111q150 1 282 159t133 398q0 307 -219 497t-542 191q-369 0 -593 -247q-225 -247 -225 -608t224 -564t585 -203q145 0 273 57
l33 -86q-133 -74 -361 -74q-228 1 -424 93t-318 290q-124 198 -124 469q0 435 270 705t658 270t632 -214t244 -576q0 -262 -169 -461t-394 -199q-129 0 -171 85t3 286h-8q-51 -143 -162 -257t-227 -114t-182 84q-67 84 -66 227q0 265 165 483t378 218q102 0 206 -47
q66 33 144 33l-105 -588q-30 -135 -18 -221t78 -86z" />
    <glyph glyph-name="A" unicode="A" horiz-adv-x="1368" 
d="M733 1024l-254 -436h412l-68 440l-4 176h-4zM365 57l-11 -57h-454l10 57q86 35 160 49l809 1352h43l231 -1352q94 -20 143 -49l-10 -57h-508l10 57q92 35 181 49l-62 379h-485l-221 -379q84 -12 164 -49z" />
    <glyph glyph-name="B" unicode="B" horiz-adv-x="1230" 
d="M569 780q94 0 170 11q291 102 291 370q0 182 -256 182q-125 0 -192 -10l-119 -553h106zM516 90q180 0 303 98t123 271q0 131 -84 175t-256 44h-160l-120 -569q63 -19 194 -19zM1126 496q0 -224 -168 -366t-481 -142l-325 12h-193l10 57q92 39 181 49l258 1221
q-82 16 -158 49l12 58h205l346 12q176 0 289 -64q112 -64 112 -204q0 -141 -90 -253t-270 -159v-8q108 -8 190 -75t82 -187z" />
    <glyph glyph-name="C" unicode="C" horiz-adv-x="1296" 
d="M764 -25q-164 1 -290 49t-196 130q-140 163 -141 372q1 420 229 676t615 256q248 0 383 -69q-31 -166 -104 -349h-50l-43 295q-57 20 -190 21q-283 0 -459 -213t-176 -611q0 -121 44 -214q74 -157 261 -217q77 -23 179 -23t163 39l150 250h49q-4 -139 -45 -308
q-145 -84 -379 -84z" />
    <glyph glyph-name="D" unicode="D" horiz-adv-x="1429" 
d="M778 1348q-121 0 -186 -11l-264 -1245q80 -8 213 -8t254 51t197 136q216 244 216 694q0 179 -94 281t-336 102zM1413 952q0 -289 -111 -520q-65 -133 -165 -229q-99 -97 -267 -159t-381 -62l-337 18h-193l10 57q84 35 181 49l258 1221q-98 25 -158 49l12 58h205l352 16
q309 0 451 -136t143 -362z" />
    <glyph glyph-name="E" unicode="E" horiz-adv-x="1165" 
d="M262 1434h959q-43 -203 -91 -328h-49l-34 225h-455l-115 -549h342l111 152h49q-31 -199 -86 -410h-49l-47 156h-342l-121 -578h477l152 246h49q-10 -182 -54 -348h-999l10 57q84 35 181 49l258 1221q-82 16 -158 49z" />
    <glyph glyph-name="F" unicode="F" horiz-adv-x="1087" 
d="M426 639l-113 -533q86 -12 164 -49l-10 -57h-508l10 57q84 35 160 49l258 1221q-86 23 -137 49l12 58h948q-47 -209 -90 -328h-49l-35 225h-465l-125 -590h367l111 152h49q-23 -197 -86 -410h-49l-43 156h-369z" />
    <glyph glyph-name="G" unicode="G" horiz-adv-x="1384" 
d="M713 -25q-272 -1 -424 145t-152 408q-1 420 229 675t623 255q256 0 385 -69q-35 -178 -104 -349h-49l-43 295q-74 20 -201 21q-307 0 -471 -230t-164 -589q0 -139 41 -237t107 -143q119 -79 258 -79q76 0 148 24t103 50l91 417q-80 6 -187 49l12 58h496l-12 -58
q-57 -35 -137 -49l-101 -469q-86 -55 -215 -90t-233 -35z" />
    <glyph glyph-name="H" unicode="H" horiz-adv-x="1462" 
d="M477 57l-10 -57h-508l10 57q82 35 181 49l258 1221q-88 14 -158 49l12 58h508l-12 -58q-61 -33 -166 -49l-115 -541h656l114 541q-96 23 -145 49l12 58h508l-12 -58q-72 -35 -178 -49l-258 -1221q88 -14 155 -49l-10 -57h-508l10 57q74 33 168 49l121 578h-655l-121 -578
q82 -16 143 -49z" />
    <glyph glyph-name="I" unicode="I" horiz-adv-x="696" 
d="M522 57l-10 -57h-512l10 57q90 37 176 49l258 1221q-74 14 -153 49l12 58h512l-12 -58q-72 -31 -174 -49l-258 -1221q85 -16 151 -49z" />
    <glyph glyph-name="J" unicode="J" horiz-adv-x="671" 
d="M268 1376l13 58h510l-11 -58q-59 -27 -176 -49l-244 -1159q-90 -422 -409 -496l-14 29q92 70 142 158t93 286l248 1182q-84 16 -152 49z" />
    <glyph glyph-name="K" unicode="K" horiz-adv-x="1288" 
d="M956 1376l13 58h454l-12 -58q-72 -35 -166 -49l-534 -559q238 -420 417 -670l89 -49l-11 -49h-235l-60 49q-166 250 -346 639h-108l-123 -582q82 -14 143 -49l-10 -57h-508l10 57q92 37 181 49l258 1221q-94 12 -158 49l12 58h508l-12 -58q-74 -33 -166 -49l-121 -573
l123 28l500 545q-91 20 -138 49z" />
    <glyph glyph-name="L" unicode="L" horiz-adv-x="1093" 
d="M250 1376l12 58h549l-12 -58q-104 -37 -207 -49l-258 -1225h477l188 328h50q-16 -223 -70 -430h-1020l10 57q80 33 181 49l258 1221q-95 16 -158 49z" />
    <glyph glyph-name="M" unicode="M" horiz-adv-x="1738" 
d="M1604 57l-11 -57h-495l10 57q76 29 178 49l193 928l63 240h-16l-111 -219l-651 -1055h-49l-178 1057l-23 239h-18l-250 -1192q84 -18 143 -47l-10 -57h-420l10 57q78 33 178 49l256 1221q-84 16 -157 49l12 58h412l147 -949l25 -211h2l108 215l586 945h360l-12 -58
q-78 -33 -166 -49l-260 -1223q93 -16 144 -47z" />
    <glyph glyph-name="N" unicode="N" horiz-adv-x="1472" 
d="M1190 1376l12 58h430l-12 -58q-76 -53 -184 -80l-281 -1321h-104l-514 1139l-43 160h-7l-20 -160l-209 -985q86 -29 139 -72l-10 -57h-428l10 57q88 53 185 72l249 1180q-80 31 -139 69l10 56h330l445 -988l61 -176h8l33 176l178 850q-80 35 -139 80z" />
    <glyph glyph-name="O" unicode="O" horiz-adv-x="1490" 
d="M342 573q0 -225 114 -360t272 -135t266 74t165 196q111 237 111 533q0 215 -100 345t-279 130q-137 0 -247 -73q-192 -127 -269 -440q-33 -135 -33 -270zM137 571q0 381 222 634t587 253q146 0 252 -48t164 -133q112 -163 113 -394q0 -348 -186 -618q-91 -132 -243 -211
t-344 -79q-279 0 -422 169t-143 427z" />
    <glyph glyph-name="P" unicode="P" horiz-adv-x="1185" 
d="M752 1348q-102 0 -158 -13l-141 -667q45 -10 147 -11q213 0 326 121t112 336q0 114 -61 174t-225 60zM1243 1116q0 -244 -173 -402t-454 -159q-118 0 -186 8l-96 -457q109 -16 184 -49l-10 -57h-549l10 57q70 31 181 49l258 1221q-74 12 -158 49l12 58h176l363 16
q205 0 323 -84t119 -250z" />
    <glyph glyph-name="Q" unicode="Q" horiz-adv-x="1490" 
d="M342 573q0 -225 114 -360t272 -135t266 74t165 196q111 237 111 533q0 215 -100 345t-279 130q-137 0 -247 -73q-192 -127 -269 -440q-33 -135 -33 -270zM137 571q0 381 222 634t587 253q146 0 252 -48t164 -133q112 -163 113 -394q0 -348 -186 -618q-91 -132 -243 -211
t-344 -79q-279 0 -422 169t-143 427zM1513 -211l5 -25q-236 -176 -390 -174q-94 0 -213 48t-279 120t-298 111l72 37q125 14 272 -19t257 -75q111 -42 269 -56q158 -16 305 33z" />
    <glyph glyph-name="R" unicode="R" horiz-adv-x="1269" 
d="M739 1348q-70 0 -147 -13l-129 -616h149q207 0 302 119t98 297q2 109 -64 161t-209 52zM1200 1116q0 -162 -106 -287t-289 -170q96 -231 274 -550l99 -60l-11 -49h-223l-67 57q-156 266 -230 580h-201l-112 -531q92 -16 164 -49l-11 -57h-528l10 57q74 31 181 49
l258 1221q-100 23 -158 49l12 58h176l365 16q197 0 297 -86t100 -248z" />
    <glyph glyph-name="S" unicode="S" horiz-adv-x="1073" 
d="M454 78q76 0 153 22t133 84t56 158t-54 167q-56 71 -134 118l-157 96q-78 49 -134 129q-55 80 -55 188q0 188 133 303t379 115t371 -67q-37 -145 -123 -349h-49l-23 281q-68 33 -205 33t-221 -62t-84 -184q0 -78 40 -138t100 -98l129 -81q68 -45 127 -91t99 -124t40 -179
q-1 -193 -147 -309t-402 -115q-121 0 -227 30t-152 67q35 160 127 368h49l21 -301q25 -23 79 -42q55 -19 131 -19z" />
    <glyph glyph-name="T" unicode="T" horiz-adv-x="1236" 
d="M817 57l-10 -57h-561l10 57q90 35 201 49l260 1225h-322l-166 -287h-49q14 180 62 390h1175q-37 -195 -102 -390h-49l-43 287h-322l-260 -1225q121 -22 176 -49z" />
    <glyph glyph-name="U" unicode="U" horiz-adv-x="1353" 
d="M264 1376l12 58h508l-12 -58q-72 -31 -166 -49l-174 -819q-45 -209 33 -309q78 -101 251 -101t273 94t141 291l175 824q-88 31 -146 69l12 58h431l-13 -58q-63 -43 -174 -69l-176 -828q-55 -260 -197 -379q-142 -118 -386 -118q-242 0 -351 141t-61 369l178 835
q-97 18 -158 49z" />
    <glyph glyph-name="V" unicode="V" horiz-adv-x="1368" 
d="M782 379l512 948q-104 20 -166 49l13 58h448l-12 -58q-70 -31 -158 -49l-741 -1327l-103 -25l-235 1352q-82 16 -145 49l12 58h522l-12 -58q-70 -29 -178 -49l153 -952l10 -160h5z" />
    <glyph glyph-name="W" unicode="W" horiz-adv-x="1871" 
d="M1432 492l370 835q-115 20 -166 49l13 58h444l-12 -58q-55 -29 -158 -49l-620 -1327l-123 -25l-93 1129l-559 -1104l-116 -25l-72 1352q-76 14 -145 49l12 58h514l-12 -58q-86 -33 -179 -49l27 -842l-6 -266h4l125 270l479 945h66l84 -947l10 -266h4z" />
    <glyph glyph-name="X" unicode="X" horiz-adv-x="1339" 
d="M1001 1376l13 58h465l-13 -58q-59 -27 -166 -49l-487 -559l279 -662q96 -16 155 -49l-10 -57h-532l10 57q82 37 168 49l-209 521l-436 -523q106 -16 155 -47l-10 -57h-465l10 57q63 29 166 49l537 615l-254 606q-84 16 -154 49l13 58h532l-12 -58q-68 -31 -168 -49
l184 -469l389 469q-99 20 -160 49z" />
    <glyph glyph-name="Y" unicode="Y" horiz-adv-x="1286" 
d="M1044 1376l13 58h450l-12 -58q-72 -35 -166 -49l-538 -717l-107 -504q76 -10 143 -49l-10 -57h-508l10 57q82 37 181 49l106 502l-262 719q-82 14 -156 49l13 58h528l-12 -58q-84 -31 -168 -49l209 -608l440 608q-76 14 -154 49z" />
    <glyph glyph-name="Z" unicode="Z" horiz-adv-x="1228" 
d="M10 0v102l1086 1229h-611l-186 -287h-49q14 180 61 390h1014v-103l-1083 -1229h653l186 287h49q-14 -197 -61 -389h-1059z" />
    <glyph glyph-name="bracketleft" unicode="[" horiz-adv-x="624" 
d="M-12 -471l403 1905h377l-16 -82h-213l-371 -1741h213l-16 -82h-377z" />
    <glyph glyph-name="backslash" unicode="\" horiz-adv-x="782" 
d="M-12 1458l848 -1677l-80 -47l-850 1679z" />
    <glyph glyph-name="bracketright" unicode="]" horiz-adv-x="624" 
d="M666 1434l-404 -1905h-375l17 82h211l370 1741h-213l17 82h377z" />
    <glyph glyph-name="asciicircum" unicode="^" 
d="M217 889l381 567h64l348 -567h-174l-183 313l-49 139l-67 -141l-207 -311h-113z" />
    <glyph glyph-name="underscore" unicode="_" horiz-adv-x="839" 
d="M-92 -401v102h840v-102h-840z" />
    <glyph glyph-name="grave" unicode="`" horiz-adv-x="659" 
d="M479 1573l180 -356l-41 -35l-339 307v39q23 18 94 34t106 11z" />
    <glyph glyph-name="a" unicode="a" horiz-adv-x="1089" 
d="M303 -25q-211 0 -211 310q0 193 70 363t210 283q140 112 320 111q68 0 154 -36q80 43 162 43l-187 -938h152v-50q-94 -74 -203 -73q-53 0 -81 24t-27 54q0 86 59 344h-8q-61 -172 -170 -304t-240 -131zM381 98q69 0 151 96t132 190q49 95 90 191l65 345q-57 37 -131 36
q-123 0 -222 -100q-98 -100 -150 -244t-52 -293q0 -221 117 -221z" />
    <glyph glyph-name="b" unicode="b" horiz-adv-x="1069" 
d="M676 926q-76 0 -144 -86l-59 -78q-25 -31 -59 -100l-45 -89q-10 -16 -41 -81l-78 -388q64 -43 170 -43q106 1 200 95t145 240q52 146 52 302q0 228 -141 228zM989 739q0 -323 -171 -543t-437 -221q-92 1 -178 25t-127 59l264 1342l-143 16v45q152 61 288 78l43 -22
l-182 -863h10q193 393 398 394q111 0 173 -78t62 -232z" />
    <glyph glyph-name="c" unicode="c" horiz-adv-x="872" 
d="M86 334q0 293 175 504t423 211q143 0 195 -45q6 -42 -19 -102t-59 -79l-142 140q-155 0 -273 -165t-118 -432t221 -268q51 0 93 17l39 16q22 8 71 45l33 21l23 18l28 -37q-49 -84 -144 -143q-96 -59 -234 -59t-225 96t-87 262z" />
    <glyph glyph-name="d" unicode="d" horiz-adv-x="1087" 
d="M307 -25q-211 0 -211 310q0 197 71 367t210 281q139 110 319 109q70 0 146 -32l78 391l-144 16v49q129 53 289 74l43 -16l-283 -1413h152v-50q-94 -74 -203 -73q-53 0 -81 24t-27 54q0 86 59 344h-8q-61 -172 -170 -304t-240 -131zM385 98q70 0 152 96t131 190
q49 95 90 191l65 345q-57 37 -131 36q-129 0 -228 -100q-100 -100 -148 -244t-48 -293q0 -221 117 -221z" />
    <glyph glyph-name="e" unicode="e" horiz-adv-x="925" 
d="M586 963q-201 0 -299 -363q203 6 315 70t113 174q0 119 -129 119zM86 340q0 301 156 505t407 204q102 -1 169 -53t67 -144q-1 -150 -147 -232t-466 -106q-14 -66 -14 -133q0 -129 65 -206t181 -77t260 117l31 -37q-39 -84 -137 -143t-244 -59t-237 96q-91 98 -91 268z
" />
    <glyph glyph-name="f" unicode="f" horiz-adv-x="604" 
d="M119 926v49q72 41 174 67l14 72q51 238 170 332t301 94q86 0 154 -31q-8 -113 -76 -172l-156 125q-61 -16 -93 -36q-31 -20 -69 -91q-38 -72 -67 -209l-20 -102h227q10 -47 -21 -98h-227l-131 -838q-18 -111 -57 -201q-65 -150 -175 -237q-76 -60 -151 -84l-18 43
q66 31 136 145t101 295l133 877h-149z" />
    <glyph glyph-name="g" unicode="g" horiz-adv-x="993" 
d="M299 686q0 -74 49 -114t113 -40q117 0 180 77t63 173q1 190 -149 189q-117 0 -187 -82t-69 -203zM339 -348q132 0 243 76t110 198q0 93 -122 134q-56 19 -111 32l-123 27q-68 12 -103 24q-172 -127 -172 -295q0 -90 73 -143t205 -53zM147 682q0 158 125 262t293 105
q168 0 258 -78q72 59 254 110q15 -14 13 -71t-29 -95l-211 13q18 -55 18 -92q0 -162 -125 -272t-299 -109q-70 0 -104 8q-4 -3 -24 -21q-58 -53 -58 -90q0 -38 62 -62t152 -41q89 -17 178 -42q90 -25 152 -81t62 -142q0 -182 -190 -300t-436 -118q-174 0 -262 68
q-87 69 -87 171q0 184 306 357q-66 39 -66 102q0 86 162 215q-55 15 -99 69t-45 134z" />
    <glyph glyph-name="h" unicode="h" horiz-adv-x="1103" 
d="M809 806q-1 120 -91 120q-46 0 -111 -45t-117 -116q-99 -135 -150 -249l-107 -516h-159l280 1401l-139 16v45q182 74 289 78l43 -18l-187 -867h11q84 176 196 285q113 109 217 109q190 0 189 -189q0 -94 -35 -242l-117 -507h152v-50q-94 -74 -203 -73q-53 0 -78 22
q-24 22 -24 51q0 28 30 181l74 342q37 168 37 222z" />
    <glyph glyph-name="i" unicode="i" horiz-adv-x="561" 
d="M541 1381q0 -51 -32 -79t-84 -28t-84 28t-32 79q0 50 32 80t84 30t84 -30t32 -80zM422 61q-94 -73 -203 -73t-109 95q0 46 23 159l146 665l-134 19v49q184 74 281 74l37 -25l-193 -913h152v-50z" />
    <glyph glyph-name="j" unicode="j" horiz-adv-x="561" 
d="M415 1274q-52 0 -84 28t-32 79q0 50 32 80t84 30t84 -30q31 -30 31 -80q0 -51 -32 -79t-83 -28zM94 49l182 860l-124 17v49q168 74 270 74l41 -25l-199 -936q-74 -345 -304 -483q-44 -27 -85 -39l-22 43q63 31 132 139q68 108 109 301z" />
    <glyph glyph-name="k" unicode="k" horiz-adv-x="972" 
d="M858 1051q66 0 115 -27q-52 -131 -208 -265q-79 -69 -114 -97l-104 -80q31 -84 119 -238t155 -233h131v-50q-94 -73 -188 -73t-156 104q-77 127 -149 287l-51 110l-74 21l-96 -510h-164l278 1401l-143 16v49q150 68 289 74l43 -22l-195 -959h60q82 51 176 141t135 150
q12 59 -2 174q77 27 143 27z" />
    <glyph glyph-name="l" unicode="l" horiz-adv-x="563" 
d="M414 61q-94 -73 -205 -73t-111 95q0 46 23 159l239 1159l-145 16v49q164 70 291 74l41 -22l-285 -1407h152v-50z" />
    <glyph glyph-name="m" unicode="m" horiz-adv-x="1626" 
d="M1329 805q0 121 -80 121q-92 0 -192 -130t-160 -278l-125 -518h-151l129 575q34 158 34 254t-75 97q-79 0 -185 -134t-162 -276l-106 -516h-164l191 909l-125 17v49q147 74 270 74l43 -25l-92 -369h8q53 135 178 265t246 129q133 0 133 -191q0 -76 -31 -203
q70 154 188 274t238 120q76 1 116 -49t40 -122t-39 -264l-135 -503h152v-50q-93 -73 -199 -73t-107 90q0 60 29 164l98 372q35 139 35 191z" />
    <glyph glyph-name="n" unicode="n" horiz-adv-x="1122" 
d="M991 61q-93 -73 -199 -73t-106 82q0 37 31 172l74 342q37 168 37 223q-1 119 -93 119q-71 0 -153 -81q-133 -130 -224 -329l-106 -516h-160l180 909l-125 17l5 49q143 74 266 74l41 -25l-80 -369h10q84 174 200 284t238 110q82 -1 123 -53t41 -141t-35 -237l-116 -507
h151v-50z" />
    <glyph glyph-name="o" unicode="o" horiz-adv-x="1034" 
d="M772 674q0 290 -182 289q-92 1 -162 -61q-114 -100 -154 -363q-14 -98 -14 -211t55 -190t147 -77q92 1 165 95q74 94 109 235q36 141 36 283zM948 662q0 -279 -148 -483t-376 -204q-158 -1 -248 103t-90 320t135 423q67 99 175 163t239 65q313 0 313 -387z" />
    <glyph glyph-name="p" unicode="p" horiz-adv-x="1103" 
d="M721 926q-176 0 -365 -437l-77 -380q55 -47 162 -47t203 100q96 102 152 255q54 153 54 275q0 234 -129 234zM334 -410h-309l-19 17l279 1302l-125 17v49q180 74 270 74l41 -25l-86 -369h8q174 393 418 394q95 0 157 -73t62 -208q0 -317 -176 -555t-420 -238
q-80 -1 -110 11q-31 12 -66 30l-68 -317q68 -12 144 -51v-58z" />
    <glyph glyph-name="q" unicode="q" horiz-adv-x="1048" 
d="M373 98q69 0 151 96t131 190q49 95 90 191l68 353q-45 29 -133 28q-136 0 -236 -101q-188 -189 -188 -536q0 -221 117 -221zM856 -410h-309l-19 17l185 803h-8q-61 -172 -170 -304t-240 -131q-211 0 -211 310q0 199 67 367t207 280q141 111 332 110q80 0 167 -19t130 -44
l-274 -1280q68 -12 143 -51v-58z" />
    <glyph glyph-name="r" unicode="r" horiz-adv-x="778" 
d="M750 1049q59 0 102 -25q0 -36 -22 -102t-48 -95l-159 80q-59 -25 -127 -113t-119 -227l-121 -567h-164l191 909l-125 17v49q125 57 270 74l41 -25l-59 -274h8q61 137 149 218t183 81z" />
    <glyph glyph-name="s" unicode="s" horiz-adv-x="851" 
d="M172 750q0 145 104 222t262 77t253 -52q-2 -47 -31 -108t-62 -80l-151 154q-207 0 -207 -162q0 -104 127 -193q53 -37 106 -78q129 -100 128 -244t-122 -228q-122 -83 -297 -83t-266 60q2 6 8 30q5 25 7 31t7 26t15 44q10 25 45 61l183 -166q97 -1 171 47t74 138
t-126 180q-52 37 -103 78q-125 101 -125 246z" />
    <glyph glyph-name="t" unicode="t" horiz-adv-x="684" 
d="M285 196q1 -46 29 -72t69 -26q86 0 221 66l21 -35q-39 -55 -139 -104t-183 -50q-190 0 -190 166q0 51 16 129l137 656h-155l2 49q80 45 178 69l33 156q43 35 133 74l43 -25l-49 -225h256q8 -57 -21 -98h-256l-129 -602q-16 -82 -16 -128z" />
    <glyph glyph-name="u" unicode="u" horiz-adv-x="1099" 
d="M985 111v-50q-94 -74 -203 -73q-53 0 -81 24t-27 54q0 135 57 344h-8q-197 -434 -444 -435q-72 1 -120 53t-48 156t135 725l-125 17v49q176 66 270 74l45 -25q-14 -66 -88 -382t-74 -445q0 -43 24 -71t56 -28q66 0 136 58t122 143q106 172 144 272l88 453h157l-167 -913
h151z" />
    <glyph glyph-name="v" unicode="v" horiz-adv-x="907" 
d="M236 1049q74 0 88 -76l94 -674l10 -127h4l68 131q162 262 235 477q-2 43 -15 130t-22 114q129 55 226 0q-125 -498 -523 -1024l-86 -25l-151 934l-131 17v49q31 23 93 49t110 25z" />
    <glyph glyph-name="w" unicode="w" horiz-adv-x="1390" 
d="M1300 1049q60 0 107 -25q-63 -250 -197 -519t-313 -505l-82 -25l-86 588v170h-6l-361 -733l-100 -25l-98 934l-131 17v49q31 23 93 49t110 25q86 0 94 -76l55 -654l-8 -147h4l61 150l338 679l60 23l92 -705l2 -147h4l53 131q143 233 228 477q-2 43 -16 130
q-13 87 -21 114q58 25 118 25z" />
    <glyph glyph-name="x" unicode="x" horiz-adv-x="917" 
d="M630 -13q-81 0 -104 76l-114 375l-115 -116q-72 -83 -92 -117q-6 -29 -9 -97t1 -94q-68 -26 -135 -26t-111 26q47 160 436 502l-139 381l-131 16v50q31 23 91 49t114 24q54 0 88 -75l102 -361q164 168 193 221q10 47 -9 191q146 52 246 0q-47 -164 -410 -482l150 -403
l131 -16v-50q-102 -74 -183 -74z" />
    <glyph glyph-name="y" unicode="y" horiz-adv-x="923" 
d="M260 1049q70 0 88 -76l172 -727l6 -123h4l48 121q141 315 202 536q-2 43 -15 130t-22 114q59 25 119 25t107 -25q-100 -399 -416 -1024q-113 -221 -222 -325q-110 -103 -245 -103q-45 0 -113 31q-4 49 25 108t78 88l168 -84q110 72 182 285l-238 909l-131 17v49
q31 23 93 49t110 25z" />
    <glyph glyph-name="z" unicode="z" horiz-adv-x="886" 
d="M260 1051q43 0 224 -23t321 -31l45 52q68 -12 78 -64l-711 -786q262 -47 455 -152l116 135l48 -28l-70 -201q-20 -72 -100 -72q-44 0 -234 88t-323 109l-82 -90q-74 16 -76 65l741 821q-164 -10 -428 31l-94 -147l-49 12l29 201q12 80 110 80z" />
    <glyph glyph-name="braceleft" unicode="{" horiz-adv-x="716" 
d="M741 1352q-55 0 -87 -29t-46 -94l-102 -481q-27 -124 -108 -184t-171 -72l-4 -13q70 -6 123 -58t53 -142q0 -31 -6 -64l-102 -481q-6 -29 -6 -47q0 -76 88 -76h100l-16 -82h-178q-160 0 -160 147q0 35 8 68l102 485q27 129 -22 186q-33 38 -94 38l12 57q76 0 133 61
t78 154l104 492q20 100 82 158t160 59h178l-16 -82h-103z" />
    <glyph glyph-name="bar" unicode="|" horiz-adv-x="485" 
d="M252 -266v1700h102v-1700h-102z" />
    <glyph glyph-name="braceright" unicode="}" horiz-adv-x="716" 
d="M516 655q0 -143 127 -143l-12 -57q-76 1 -133 -61t-78 -154l-105 -494q-21 -100 -83 -158t-158 -59h-176l16 82h102q55 0 87 29t47 94l102 483q27 123 99 184q73 61 161 72l2 12q-66 7 -112 55t-46 136q0 39 9 74l102 479q18 75 -9 98q-26 24 -73 25h-100l16 82h178
q158 0 158 -148q0 -34 -8 -67l-103 -484q-10 -47 -10 -80z" />
    <glyph glyph-name="asciitilde" unicode="~" 
d="M399 852q70 0 197 -70t202 -70t150 70l25 -43q-106 -152 -230 -151q-69 0 -201 70t-198 69q-98 0 -184 -113l-29 48q133 190 268 190z" />
    <glyph glyph-name="uni00A0" unicode="&#xa0;" horiz-adv-x="491" 
 />
    <glyph glyph-name="exclamdown" unicode="&#xa1;" horiz-adv-x="665" 
d="M295 918q0 59 38 95t98 36t98 -36t38 -95q0 -60 -38 -96t-98 -36t-98 36t-38 96zM350 586h49l-12 -357l-123 -610q-45 -23 -97 -23t-87 23l135 610z" />
    <glyph glyph-name="cent" unicode="&#xa2;" 
d="M279 358q0 -210 174 -252l178 822q-164 -60 -258 -210t-94 -360zM96 350q0 254 161 446t394 238l70 318h102l-65 -305l20 2q84 -1 169 -13t108 -32q6 -42 -19 -102t-59 -79l-141 140q-57 0 -99 -9l-182 -856q166 11 287 117l28 -37q-45 -78 -135 -135t-207 -66l-67 -325
h-103l70 328q-168 18 -250 114t-82 256z" />
    <glyph glyph-name="sterling" unicode="&#xa3;" 
d="M324 496q0 106 -25 184h-219l22 102h177q-29 133 -29 238q0 438 514 438q252 0 379 -67q-37 -145 -123 -349h-49l-23 281q-74 33 -211 33q-203 0 -270 -129q-39 -77 -39 -179t27 -266h327l-22 -102h-289l12 -96q0 -12 -3 -77t-51 -149t-134 -145l-80 -57v-9l115 13h413
l150 229h49q-16 -195 -61 -389h-938l12 59q102 41 164 89q61 48 133 146q72 96 72 202z" />
    <glyph glyph-name="currency" unicode="&#xa4;" 
d="M553 541q74 0 124 47t50 121q0 73 -50 121t-124 50t-124 -48t-50 -124t50 -120q50 -47 124 -47zM557 428q-94 0 -176 49l-21 -65l-172 -170l-104 104l172 170l70 23q-54 63 -54 167t54 173l-70 22l-170 172l104 105l170 -172l25 -68q76 55 173 53t165 -53l25 68l170 170
l104 -105l-172 -170l-66 -22q50 -68 50 -168t-50 -174l66 -21l170 -172l-105 -104l-170 170l-22 67q-72 -49 -166 -49z" />
    <glyph glyph-name="yen" unicode="&#xa5;" 
d="M897 1376l12 58h449l-12 -58q-82 -37 -166 -49l-467 -643h301l-21 -102h-338l-28 -131h338l-21 -103h-338l-51 -242q76 -10 143 -49l-10 -57h-508l10 57q82 37 181 49l51 242h-338l20 103h338l29 131h-338l21 102h297l-215 643q-70 12 -156 49l12 58h524l-12 -58
q-66 -25 -168 -49l191 -608l428 608q-95 20 -158 49z" />
    <glyph glyph-name="brokenbar" unicode="&#xa6;" horiz-adv-x="485" 
d="M354 1434v-656h-102v656h102zM252 -266v655h102v-655h-102z" />
    <glyph glyph-name="section" unicode="&#xa7;" horiz-adv-x="1071" 
d="M842 638q0 93 -70 140t-142 72q-71 26 -83 31q-76 -33 -131 -91q-56 -58 -56 -116q-1 -112 98 -171q52 -32 88 -47t113 -44q75 44 129 110t54 116zM780 88q0 70 -61 115t-149 75t-173 64q-86 34 -147 106q-61 70 -62 177q0 184 267 297q-205 96 -205 282q0 110 92 182
t240 72q205 0 331 -45q-6 -59 -49 -205h-49l-117 148q-44 16 -114 16t-116 -45t-46 -109q0 -118 209 -195q86 -32 173 -69q87 -36 148 -102t62 -160q0 -190 -264 -315q96 -43 149 -97t53 -141q0 -141 -108 -224t-282 -83q-175 0 -333 57q4 71 25 134q20 63 25 79h49
l131 -161q29 -23 111 -23t147 50q63 50 63 120z" />
    <glyph glyph-name="dieresis" unicode="&#xa8;" horiz-adv-x="827" 
d="M737 1357q0 46 30 75q30 28 77 28t77 -28q29 -28 29 -75q0 -46 -30 -74t-76 -28q-47 0 -77 28t-30 74zM328 1357q0 46 29 75q30 28 77 28t77 -28t30 -75q0 -46 -30 -74t-77 -28t-77 28q-29 28 -29 74z" />
    <glyph glyph-name="copyright" unicode="&#xa9;" horiz-adv-x="1628" 
d="M874 168q-184 0 -309 112t-125 314t129 316t293 114t250 -41q4 -37 -1 -110t-15 -113h-49l-62 168q-23 14 -104 14q-119 0 -188 -93t-69 -248t70 -253q68 -98 207 -98q75 -1 100 24l58 146h49q25 -96 10 -205q-60 -47 -244 -47zM1460 592q0 276 -184 454t-445 177
q-261 0 -435 -174t-173 -454q0 -280 178 -455q179 -175 441 -175t440 175q178 176 178 452zM1563 594q0 -326 -213 -524t-514 -197q-301 -1 -508 195t-207 524t213 526t508 197q295 0 508 -198q213 -197 213 -523z" />
    <glyph glyph-name="ordfeminine" unicode="&#xaa;" horiz-adv-x="874" 
d="M246 1032q0 -160 112 -160q58 0 136 78t114 158l49 238q-88 39 -131 38q-112 0 -196 -96t-84 -256zM286 774q-96 0 -150 62t-54 176q0 198 126 322t304 124q96 0 162 -39l117 31l34 -16l-116 -553l104 -19v-35q-80 -53 -190 -53q-74 0 -62 74l29 153h-8
q-41 -83 -120 -155t-176 -72z" />
    <glyph glyph-name="guillemotleft" unicode="&#xab;" horiz-adv-x="935" 
d="M451 117l-355 413l518 420l41 -37l-368 -387l221 -370zM758 121l-271 409l433 416l38 -35l-301 -383l154 -370z" />
    <glyph glyph-name="logicalnot" unicode="&#xac;" 
d="M119 668v123h868v-381h-123v258h-745z" />
    <glyph glyph-name="uni00AD" unicode="&#xad;" horiz-adv-x="872" 
d="M147 516l27 123h578l-27 -123h-578z" />
    <glyph glyph-name="registered" unicode="&#xae;" horiz-adv-x="1423" 
d="M801 967q125 0 121 114q-2 53 -36 81t-80 28t-71 -6v-217h66zM1102 633h-101l-57 22q-68 82 -135 254h-74v-211q39 -2 76 -18v-47h-252v47q35 12 72 18v482q-35 2 -72 22v43h76l172 8q98 0 164 -43t65 -129q0 -109 -147 -155l29 -45l28 -52q68 -96 109 -131l47 -24v-41z
M808 463q194 0 320 125t127 334q0 210 -130 336q-131 126 -325 126t-320 -126t-126 -333q0 -208 130 -335t324 -127zM262 924q0 254 156 398t390 144t386 -144q154 -144 154 -398t-156 -398t-390 -145q-234 1 -386 145q-154 144 -154 398z" />
    <glyph glyph-name="macron" unicode="&#xaf;" horiz-adv-x="735" 
d="M838 1309h-510l20 102h510z" />
    <glyph glyph-name="degree" unicode="&#xb0;" horiz-adv-x="849" 
d="M551 1360q-80 0 -129 -52t-49 -137q0 -84 53 -138t130 -54t125 50t48 138q0 89 -49 141t-129 52zM262 1166q0 128 84 210t207 82t205 -76t82 -210t-83 -213t-206 -79t-206 80q-83 78 -83 206z" />
    <glyph glyph-name="plusminus" unicode="&#xb1;" 
d="M92 367v102h922v-102h-922zM92 899v102h410v433h102v-433h410v-102h-410v-321h-102v321h-410z" />
    <glyph glyph-name="twosuperior" unicode="&#xb2;" horiz-adv-x="880" 
d="M670 1665q285 0 284 -201q0 -143 -156 -285t-415 -266v-12l63 14h285l121 138h43q-8 -133 -39 -262h-690l14 63q274 150 443 307q168 158 168 293q0 119 -152 119q-80 0 -141 -31l-86 -229h-45q-14 41 -29 127q-14 86 -12 127q96 53 167 75t177 23z" />
    <glyph glyph-name="threesuperior" unicode="&#xb3;" horiz-adv-x="880" 
d="M540 864q94 0 152 65t58 131t-42 96t-151 30h-68l13 51l219 227l115 86l2 4l-129 -8h-187l-112 -190h-43q-20 149 4 291h622l-14 -72l-227 -217l-101 -84l-2 -2l66 8q88 -8 143 -57t55 -136q1 -139 -107 -227t-325 -88q-78 0 -166 28t-133 66l111 187h35q23 -33 63 -168
q55 -21 149 -21z" />
    <glyph glyph-name="acute" unicode="&#xb4;" horiz-adv-x="647" 
d="M328 1217l262 356q33 4 95 -11t85 -34v-39l-401 -307z" />
    <glyph glyph-name="mu" unicode="&#xb5;" horiz-adv-x="1165" 
d="M526 98q94 0 209 136t193 337l86 453h157l-167 -913h151v-52l-53 -36q-66 -48 -98 -49t-52 14l-110 80l61 342h-8q-203 -434 -446 -435q-56 1 -117 56h-13l7 -391l-11 -50q-98 -29 -178 0l279 1319l-125 17v49q156 57 270 74l45 -25q-121 -549 -129 -584
q-37 -160 -31 -251t80 -91z" />
    <glyph glyph-name="mu" unicode="&#x3bc;" horiz-adv-x="1165" 
d="M526 98q94 0 209 136t193 337l86 453h157l-167 -913h151v-52l-53 -36q-66 -48 -98 -49t-52 14l-110 80l61 342h-8q-203 -434 -446 -435q-56 1 -117 56h-13l7 -391l-11 -50q-98 -29 -178 0l279 1319l-125 17v49q156 57 270 74l45 -25q-121 -549 -129 -584
q-37 -160 -31 -251t80 -91z" />
    <glyph glyph-name="paragraph" unicode="&#xb6;" horiz-adv-x="1038" 
d="M727 193v1144h-90v-1288q0 -193 -53 -289q82 34 112 138t31 295zM817 193q0 -177 -35 -279t-85 -140t-136 -57q-68 -111 -201 -151l-22 37q100 43 154 144q53 101 53 302v586q-147 0 -256 96q-109 97 -109 285t106 303t306 115h381v-58q-80 -37 -156 -49v-1134z" />
    <glyph glyph-name="periodcentered" unicode="&#xb7;" horiz-adv-x="471" 
d="M127 627q0 59 38 95t98 36t98 -36t38 -95t-38 -95t-98 -36t-98 36t-38 95z" />
    <glyph glyph-name="cedilla" unicode="&#xb8;" horiz-adv-x="595" 
d="M346 2l-82 -141q154 -6 160 -133q2 -80 -62 -138t-147 -83q-84 -24 -160 -19v59q89 13 153 49t62 84t-28 74t-101 33l115 215h90z" />
    <glyph glyph-name="onesuperior" unicode="&#xb9;" horiz-adv-x="880" 
d="M821 831l-10 -40h-565l10 40q115 49 221 70l109 512l30 92q-96 -27 -237 -22l12 55q150 31 340 127h62l-162 -764q122 -31 190 -70z" />
    <glyph glyph-name="ordmasculine" unicode="&#xba;" horiz-adv-x="890" 
d="M246 1024q0 -82 35 -135t106 -53q102 0 181 99t79 275t-143 174q-96 0 -177 -106t-81 -254zM82 1024q0 184 133 309t305 125q137 0 213 -72t76 -192q0 -200 -133 -316t-303 -116q-121 0 -206 74t-85 188z" />
    <glyph glyph-name="guillemotright" unicode="&#xbb;" horiz-adv-x="935" 
d="M565 950l355 -413l-519 -420l-41 37l369 387l-221 370zM258 946l270 -409l-432 -416l-39 35l301 383l-153 370z" />
    <glyph glyph-name="onequarter" unicode="&#xbc;" horiz-adv-x="1896" 
d="M311 49l1360 1403l68 -59l-1362 -1405zM717 618l-10 -40h-566l11 40q115 49 221 70l108 512l31 92q-96 -27 -238 -22l13 55q150 31 340 127h61l-162 -764q123 -31 191 -70zM1503 334l58 272l43 88h-7l-86 -88l-276 -239l-82 -48l133 15h217zM1716 41l-10 -41h-424l10 41
q63 33 160 49l33 152h-496l8 45l709 587h66l-115 -540h194l-18 -92h-195l-32 -152q63 -14 110 -49z" />
    <glyph glyph-name="onehalf" unicode="&#xbd;" horiz-adv-x="2029" 
d="M311 49l1360 1403l68 -59l-1362 -1405zM717 618l-10 -40h-566l11 40q115 49 221 70l108 512l31 92q-96 -27 -238 -22l13 55q150 31 340 127h61l-162 -764q123 -31 191 -70zM1966 674q0 -144 -156 -286t-415 -265v-12l63 14h285l121 137h43q-8 -133 -39 -262h-690l14 63
q274 150 442 308t168 293q0 119 -151 118q-81 1 -142 -30l-86 -230h-45q-14 41 -28 127t-13 127q96 53 167 76t177 22q285 0 285 -200z" />
    <glyph glyph-name="threequarters" unicode="&#xbe;" horiz-adv-x="2011" 
d="M420 49l1360 1403l67 -59l-1362 -1405zM494 651q113 0 170 65t57 131t-42 96t-151 30h-67l12 51l219 227l115 86l2 4l-129 -8h-186l-113 -190h-43q-8 61 -6 149t10 142h623l-15 -72l-227 -217l-100 -84l-2 -2l65 8q88 -8 143 -57t56 -136q0 -139 -108 -227t-324 -88
q-78 0 -166 28t-133 66l110 187h35q23 -33 63 -168q58 -21 132 -21zM1628 334l58 272l43 88h-7l-86 -88l-276 -239l-82 -48l133 15h217zM1841 41l-10 -41h-424l10 41q63 33 160 49l33 152h-496l8 45l709 587h65l-114 -540h194l-18 -92h-195l-32 -152q63 -14 110 -49z" />
    <glyph glyph-name="questiondown" unicode="&#xbf;" horiz-adv-x="966" 
d="M502 918q0 59 38 95t98 36t98 -36t38 -95q0 -60 -38 -96t-98 -36t-98 36t-38 96zM162 -141q0 -183 210 -183q106 0 158 39l78 250h49q21 -143 21 -199t-4 -108q-154 -84 -340 -84t-273 72q-88 72 -88 194q0 215 209 371l176 129q90 61 160 145t82 183h37q8 -119 -37 -218
t-117 -167l-145 -131q-176 -149 -176 -293z" />
    <glyph glyph-name="Agrave" unicode="&#xc0;" horiz-adv-x="1368" 
d="M684 1829l301 -254l-33 -39l-458 186v41q23 27 89 49t101 17zM733 1024l-254 -436h412l-68 440l-4 176h-4zM365 57l-11 -57h-454l10 57q86 35 160 49l809 1352h43l231 -1352q94 -20 143 -49l-10 -57h-508l10 57q92 35 181 49l-62 379h-485l-221 -379q84 -12 164 -49z" />
    <glyph glyph-name="Aacute" unicode="&#xc1;" horiz-adv-x="1368" 
d="M860 1575l301 254q35 4 102 -18t89 -48v-41l-459 -186zM733 1024l-254 -436h412l-68 440l-4 176h-4zM365 57l-11 -57h-454l10 57q86 35 160 49l809 1352h43l231 -1352q94 -20 143 -49l-10 -57h-508l10 57q92 35 181 49l-62 379h-485l-221 -379q84 -12 164 -49z" />
    <glyph glyph-name="Acircumflex" unicode="&#xc2;" horiz-adv-x="1368" 
d="M938 1659l-303 -117l-27 37l342 229q8 6 22 6t23 -6l174 -223l-26 -41zM733 1024l-254 -436h412l-68 440l-4 176h-4zM365 57l-11 -57h-454l10 57q86 35 160 49l809 1352h43l231 -1352q94 -20 143 -49l-10 -57h-508l10 57q92 35 181 49l-62 379h-485l-221 -379
q84 -12 164 -49z" />
    <glyph glyph-name="Atilde" unicode="&#xc3;" horiz-adv-x="1368" 
d="M1145 1698q49 0 106 41l25 -56q-115 -113 -223 -112q-53 0 -139 35q-86 34 -137 34q-50 0 -109 -51l-37 56q131 119 246 118q51 -1 135 -33t133 -32zM733 1024l-254 -436h412l-68 440l-4 176h-4zM365 57l-11 -57h-454l10 57q86 35 160 49l809 1352h43l231 -1352
q94 -20 143 -49l-10 -57h-508l10 57q92 35 181 49l-62 379h-485l-221 -379q84 -12 164 -49z" />
    <glyph glyph-name="Adieresis" unicode="&#xc4;" horiz-adv-x="1368" 
d="M1032 1616q0 45 31 70q31 24 80 24t80 -24t31 -70q0 -45 -32 -70q-30 -24 -79 -24t-80 24t-31 70zM582 1616q0 45 30 70q31 24 80 24t80 -24t31 -70q0 -45 -31 -70q-31 -24 -80 -24t-80 24q-30 25 -30 70zM733 1024l-254 -436h412l-68 440l-4 176h-4zM365 57l-11 -57
h-454l10 57q86 35 160 49l809 1352h43l231 -1352q94 -20 143 -49l-10 -57h-508l10 57q92 35 181 49l-62 379h-485l-221 -379q84 -12 164 -49z" />
    <glyph glyph-name="Aring" unicode="&#xc5;" horiz-adv-x="1368" 
d="M815 1599q0 -66 92 -65q61 0 102 29q40 29 40 69q0 74 -95 74q-59 0 -99 -30t-40 -77zM733 1024l-254 -436h412l-68 440l-4 176h-4zM707 1593q0 82 79 139q80 56 189 56q182 0 182 -148q0 -74 -71 -128t-164 -60l231 -1346q94 -20 143 -49l-10 -57h-508l10 57
q92 35 181 49l-62 379h-485l-221 -379q84 -12 164 -49l-11 -57h-454l10 57q86 35 160 49l804 1346q-167 10 -167 141z" />
    <glyph glyph-name="AE" unicode="&#xc6;" horiz-adv-x="1861" 
d="M965 1065l-349 -436h340l134 626h-5zM1917 1434q-29 -158 -90 -328h-49l-35 225h-455l-114 -549h342l110 152h49q-33 -244 -86 -410h-49l-47 156h-342l-123 -578h479l152 246h49q-10 -180 -53 -348h-1000l11 57q84 35 180 49l88 420h-397l-326 -420q84 -12 164 -49
l-10 -57h-465l10 57q86 35 160 49l985 1231q-59 12 -111 39l12 58h961z" />
    <glyph glyph-name="Ccedilla" unicode="&#xc7;" horiz-adv-x="1296" 
d="M891 -303q0 -117 -131 -183t-273 -67v64q98 14 167 52t67 95t-31 79t-115 27l109 216q-143 10 -253 62t-171 131q-123 159 -123 353q1 420 229 676t615 256q248 0 383 -69q-31 -166 -104 -349h-50l-43 295q-57 20 -190 21q-283 0 -459 -213t-176 -611q0 -121 44 -214
q74 -157 261 -217q77 -23 179 -23t163 39l150 250h49q-4 -139 -45 -308q-137 -80 -361 -84l-75 -129q104 -2 144 -41t40 -108z" />
    <glyph glyph-name="Egrave" unicode="&#xc8;" horiz-adv-x="1165" 
d="M631 1829l301 -254l-33 -39l-459 186v41q24 27 90 49t101 17zM262 1434h959q-43 -203 -91 -328h-49l-34 225h-455l-115 -549h342l111 152h49q-31 -199 -86 -410h-49l-47 156h-342l-121 -578h477l152 246h49q-10 -182 -54 -348h-999l10 57q84 35 181 49l258 1221
q-82 16 -158 49z" />
    <glyph glyph-name="Eacute" unicode="&#xc9;" horiz-adv-x="1165" 
d="M645 1575l301 254q35 4 102 -18t89 -48v-41l-459 -186zM262 1434h959q-43 -203 -91 -328h-49l-34 225h-455l-115 -549h342l111 152h49q-31 -199 -86 -410h-49l-47 156h-342l-121 -578h477l152 246h49q-10 -182 -54 -348h-999l10 57q84 35 181 49l258 1221q-82 16 -158 49
z" />
    <glyph glyph-name="Ecircumflex" unicode="&#xca;" horiz-adv-x="1165" 
d="M866 1659l-303 -117l-26 37l342 229q23 14 45 0l174 -223l-27 -41zM262 1434h959q-43 -203 -91 -328h-49l-34 225h-455l-115 -549h342l111 152h49q-31 -199 -86 -410h-49l-47 156h-342l-121 -578h477l152 246h49q-10 -182 -54 -348h-999l10 57q84 35 181 49l258 1221
q-82 16 -158 49z" />
    <glyph glyph-name="Edieresis" unicode="&#xcb;" horiz-adv-x="1165" 
d="M926 1616q0 45 30 70q31 24 80 24t80 -24t31 -70q0 -45 -31 -70q-31 -24 -80 -24t-80 24q-30 25 -30 70zM475 1616q0 45 31 70q31 24 80 24t80 -24q30 -24 30 -70q0 -45 -30 -70q-30 -24 -80 -24q-49 0 -80 24t-31 70zM262 1434h959q-43 -203 -91 -328h-49l-34 225h-455
l-115 -549h342l111 152h49q-31 -199 -86 -410h-49l-47 156h-342l-121 -578h477l152 246h49q-10 -182 -54 -348h-999l10 57q84 35 181 49l258 1221q-82 16 -158 49z" />
    <glyph glyph-name="Igrave" unicode="&#xcc;" horiz-adv-x="696" 
d="M428 1829l301 -254l-33 -39l-458 186v41q23 27 89 49t101 17zM522 57l-10 -57h-512l10 57q90 37 176 49l258 1221q-74 14 -153 49l12 58h512l-12 -58q-72 -31 -174 -49l-258 -1221q85 -16 151 -49z" />
    <glyph glyph-name="Iacute" unicode="&#xcd;" horiz-adv-x="696" 
d="M397 1575l301 254q35 4 102 -18t89 -48v-41l-459 -186zM522 57l-10 -57h-512l10 57q90 37 176 49l258 1221q-74 14 -153 49l12 58h512l-12 -58q-72 -31 -174 -49l-258 -1221q85 -16 151 -49z" />
    <glyph glyph-name="Icircumflex" unicode="&#xce;" horiz-adv-x="696" 
d="M612 1659l-303 -117l-26 37l342 229q21 15 45 0l174 -223l-27 -41zM522 57l-10 -57h-512l10 57q90 37 176 49l258 1221q-74 14 -153 49l12 58h512l-12 -58q-72 -31 -174 -49l-258 -1221q85 -16 151 -49z" />
    <glyph glyph-name="Idieresis" unicode="&#xcf;" horiz-adv-x="696" 
d="M684 1616q0 45 31 70q31 24 80 24t79 -24t31 -70q0 -45 -31 -70q-32 -24 -80 -24t-79 24t-31 70zM233 1616q0 45 31 70q31 24 80 24t80 -24t31 -70q0 -45 -31 -70q-31 -24 -80 -24t-80 24t-31 70zM522 57l-10 -57h-512l10 57q90 37 176 49l258 1221q-74 14 -153 49l12 58
h512l-12 -58q-72 -31 -174 -49l-258 -1221q85 -16 151 -49z" />
    <glyph glyph-name="Eth" unicode="&#xd0;" horiz-adv-x="1429" 
d="M778 1348q-131 0 -196 -11l-119 -555h346l-23 -102h-344l-125 -588q81 -8 219 -8t259 51t197 136q216 244 216 694q0 179 -94 281t-336 102zM1413 952q0 -289 -111 -520q-65 -133 -165 -229q-99 -97 -267 -159t-381 -62l-337 18h-193l10 57q84 35 181 49l120 574h-184
l23 102h182l117 545q-98 25 -158 49l12 58h205l352 16q309 0 451 -136t143 -362z" />
    <glyph glyph-name="Ntilde" unicode="&#xd1;" horiz-adv-x="1472" 
d="M1154 1698q50 0 106 41l24 -56q-115 -113 -223 -112q-53 0 -139 35q-86 34 -136 34t-110 -51l-37 56q131 119 246 118q51 -1 135 -33t134 -32zM1190 1376l12 58h430l-12 -58q-76 -53 -184 -80l-281 -1321h-104l-514 1139l-43 160h-7l-20 -160l-209 -985q86 -29 139 -72
l-10 -57h-428l10 57q88 53 185 72l249 1180q-80 31 -139 69l10 56h330l445 -988l61 -176h8l33 176l178 850q-80 35 -139 80z" />
    <glyph glyph-name="Ograve" unicode="&#xd2;" horiz-adv-x="1490" 
d="M788 1829l302 -254l-33 -39l-459 186v41q23 27 89 49t101 17zM342 573q0 -225 114 -360t272 -135t266 74t165 196q111 237 111 533q0 215 -100 345t-279 130q-137 0 -247 -73q-192 -127 -269 -440q-33 -135 -33 -270zM137 571q0 381 222 634t587 253q146 0 252 -48
t164 -133q112 -163 113 -394q0 -348 -186 -618q-91 -132 -243 -211t-344 -79q-279 0 -422 169t-143 427z" />
    <glyph glyph-name="Oacute" unicode="&#xd3;" horiz-adv-x="1490" 
d="M803 1575l301 254q36 4 102 -18t88 -48v-41l-458 -186zM342 573q0 -225 114 -360t272 -135t266 74t165 196q111 237 111 533q0 215 -100 345t-279 130q-137 0 -247 -73q-192 -127 -269 -440q-33 -135 -33 -270zM137 571q0 381 222 634t587 253q146 0 252 -48t164 -133
q112 -163 113 -394q0 -348 -186 -618q-91 -132 -243 -211t-344 -79q-279 0 -422 169t-143 427z" />
    <glyph glyph-name="Ocircumflex" unicode="&#xd4;" horiz-adv-x="1490" 
d="M997 1659l-303 -117l-26 37l342 229q21 15 45 0l174 -223l-27 -41zM342 573q0 -225 114 -360t272 -135t266 74t165 196q111 237 111 533q0 215 -100 345t-279 130q-137 0 -247 -73q-192 -127 -269 -440q-33 -135 -33 -270zM137 571q0 381 222 634t587 253q146 0 252 -48
t164 -133q112 -163 113 -394q0 -348 -186 -618q-91 -132 -243 -211t-344 -79q-279 0 -422 169t-143 427z" />
    <glyph glyph-name="Otilde" unicode="&#xd5;" horiz-adv-x="1490" 
d="M1158 1698q50 0 106 41l24 -56q-115 -113 -223 -112q-53 0 -139 35q-86 34 -136 34t-110 -51l-37 56q131 119 246 118q51 -1 135 -33t134 -32zM342 573q0 -225 114 -360t272 -135t266 74t165 196q111 237 111 533q0 215 -100 345t-279 130q-137 0 -247 -73
q-192 -127 -269 -440q-33 -135 -33 -270zM137 571q0 381 222 634t587 253q146 0 252 -48t164 -133q112 -163 113 -394q0 -348 -186 -618q-91 -132 -243 -211t-344 -79q-279 0 -422 169t-143 427z" />
    <glyph glyph-name="Odieresis" unicode="&#xd6;" horiz-adv-x="1490" 
d="M1067 1616q0 45 31 70q31 24 80 24q50 0 80 -24t30 -70q0 -45 -31 -70q-31 -24 -79 -24t-80 24q-31 24 -31 70zM616 1616q0 45 31 70q31 24 80 24t80 -24t31 -70q0 -45 -31 -70q-31 -24 -80 -24t-80 24t-31 70zM342 573q0 -225 114 -360t272 -135t266 74t165 196
q111 237 111 533q0 215 -100 345t-279 130q-137 0 -247 -73q-192 -127 -269 -440q-33 -135 -33 -270zM137 571q0 381 222 634t587 253q146 0 252 -48t164 -133q112 -163 113 -394q0 -348 -186 -618q-91 -132 -243 -211t-344 -79q-279 0 -422 169t-143 427z" />
    <glyph glyph-name="multiply" unicode="&#xd7;" 
d="M260 344l-72 72l289 289l-284 286l71 72l287 -285l289 289l71 -72l-288 -288l295 -295l-74 -74l-295 295z" />
    <glyph glyph-name="Oslash" unicode="&#xd8;" horiz-adv-x="1490" 
d="M891 1356q-137 0 -247 -73t-173 -189q-129 -239 -129 -521q0 -143 49 -258l772 918q-100 123 -272 123zM741 78q145 0 253 74t165 196q111 237 111 533q0 145 -51 260l-770 -920q110 -143 292 -143zM137 571q0 381 222 634t587 253q201 0 328 -94l80 96l80 -63l-86 -103
q127 -150 127 -411q0 -348 -186 -618q-91 -132 -243 -211t-359 -79q-208 0 -349 115l-98 -117l-78 68l102 121q-127 155 -127 409z" />
    <glyph glyph-name="Ugrave" unicode="&#xd9;" horiz-adv-x="1353" 
d="M768 1829l301 -254l-33 -39l-458 186v41q23 27 89 49t101 17zM264 1376l12 58h508l-12 -58q-72 -31 -166 -49l-174 -819q-45 -209 33 -309q78 -101 251 -101t273 94t141 291l175 824q-88 31 -146 69l12 58h431l-13 -58q-63 -43 -174 -69l-176 -828q-55 -260 -197 -379
q-142 -118 -386 -118q-242 0 -351 141t-61 369l178 835q-97 18 -158 49z" />
    <glyph glyph-name="Uacute" unicode="&#xda;" horiz-adv-x="1353" 
d="M905 1575l301 254q35 4 102 -18t89 -48v-41l-459 -186zM264 1376l12 58h508l-12 -58q-72 -31 -166 -49l-174 -819q-45 -209 33 -309q78 -101 251 -101t273 94t141 291l175 824q-88 31 -146 69l12 58h431l-13 -58q-63 -43 -174 -69l-176 -828q-55 -260 -197 -379
q-142 -118 -386 -118q-242 0 -351 141t-61 369l178 835q-97 18 -158 49z" />
    <glyph glyph-name="Ucircumflex" unicode="&#xdb;" horiz-adv-x="1353" 
d="M1012 1659l-303 -117l-27 37l342 229q24 15 45 0l174 -223l-26 -41zM264 1376l12 58h508l-12 -58q-72 -31 -166 -49l-174 -819q-45 -209 33 -309q78 -101 251 -101t273 94t141 291l175 824q-88 31 -146 69l12 58h431l-13 -58q-63 -43 -174 -69l-176 -828
q-55 -260 -197 -379q-142 -118 -386 -118q-242 0 -351 141t-61 369l178 835q-97 18 -158 49z" />
    <glyph glyph-name="Udieresis" unicode="&#xdc;" horiz-adv-x="1353" 
d="M1118 1616q0 45 31 70q31 24 80 24t80 -24t31 -70q0 -45 -32 -70q-30 -24 -79 -24t-80 24t-31 70zM668 1616q0 45 30 70q31 24 80 24t80 -24t31 -70q0 -45 -31 -70q-31 -24 -80 -24t-80 24q-30 25 -30 70zM264 1376l12 58h508l-12 -58q-72 -31 -166 -49l-174 -819
q-45 -209 33 -309q78 -101 251 -101t273 94t141 291l175 824q-88 31 -146 69l12 58h431l-13 -58q-63 -43 -174 -69l-176 -828q-55 -260 -197 -379q-142 -118 -386 -118q-242 0 -351 141t-61 369l178 835q-97 18 -158 49z" />
    <glyph glyph-name="Yacute" unicode="&#xdd;" horiz-adv-x="1286" 
d="M768 1575l301 254q35 4 101 -18t90 -48v-41l-459 -186zM1044 1376l13 58h450l-12 -58q-72 -35 -166 -49l-538 -717l-107 -504q76 -10 143 -49l-10 -57h-508l10 57q82 37 181 49l106 502l-262 719q-82 14 -156 49l13 58h528l-12 -58q-84 -31 -168 -49l209 -608l440 608
q-76 14 -154 49z" />
    <glyph glyph-name="Thorn" unicode="&#xde;" horiz-adv-x="1185" 
d="M694 1130q-98 0 -145 -12l-139 -647q33 -10 147 -10q205 -1 323 111t117 296q0 139 -69 201q-70 61 -234 61zM756 1233q214 0 330 -86t116 -266t-152 -344q-75 -80 -206 -129q-132 -49 -276 -49t-179 8l-55 -261q109 -16 184 -49l-10 -57h-549l10 57q70 31 181 49
l258 1221q-82 16 -158 49l12 58h516l-12 -58q-72 -31 -174 -49l-21 -102q123 8 185 8z" />
    <glyph glyph-name="germandbls" unicode="&#xdf;" horiz-adv-x="1239" 
d="M788 1454q-108 0 -198 -75t-119 -253l-172 -1038q-18 -111 -57 -201q-65 -150 -175 -237q-76 -60 -151 -84l-18 43q66 31 136 145t101 295l133 877h-149v49q72 41 174 67l14 72q67 324 375 407q74 19 145 19q174 0 252 -78t78 -202q0 -27 -8 -84q-178 -23 -293 -108
t-115 -226q0 -95 127 -193l107 -86q127 -108 127 -255q0 -148 -123 -240t-297 -92t-264 59q2 6 7 30q5 25 7 31t7 26q17 64 61 105l182 -166q92 1 169 57t77 135q0 130 -125 226l-103 80q-127 98 -127 234q0 135 108 249t302 168q18 92 -35 168q-52 76 -160 76z" />
    <glyph glyph-name="agrave" unicode="&#xe0;" horiz-adv-x="1089" 
d="M582 1573l180 -356l-41 -35l-340 307v39q23 18 95 34t106 11zM303 -25q-211 0 -211 310q0 193 70 363t210 283q140 112 320 111q68 0 154 -36q80 43 162 43l-187 -938h152v-50q-94 -74 -203 -73q-53 0 -81 24t-27 54q0 86 59 344h-8q-61 -172 -170 -304t-240 -131z
M381 98q69 0 151 96t132 190q49 95 90 191l65 345q-57 37 -131 36q-123 0 -222 -100q-98 -100 -150 -244t-52 -293q0 -221 117 -221z" />
    <glyph glyph-name="aacute" unicode="&#xe1;" horiz-adv-x="1089" 
d="M586 1217l262 356q33 4 95 -11t85 -34v-39l-401 -307zM303 -25q-211 0 -211 310q0 193 70 363t210 283q140 112 320 111q68 0 154 -36q80 43 162 43l-187 -938h152v-50q-94 -74 -203 -73q-53 0 -81 24t-27 54q0 86 59 344h-8q-61 -172 -170 -304t-240 -131zM381 98
q69 0 151 96t132 190q49 95 90 191l65 345q-57 37 -131 36q-123 0 -222 -100q-98 -100 -150 -244t-52 -293q0 -221 117 -221z" />
    <glyph glyph-name="acircumflex" unicode="&#xe2;" horiz-adv-x="1089" 
d="M773 1630q13 0 24 -6l151 -379l-53 -33l-160 222l-235 -222l-56 31l308 381q8 6 21 6zM303 -25q-211 0 -211 310q0 193 70 363t210 283q140 112 320 111q68 0 154 -36q80 43 162 43l-187 -938h152v-50q-94 -74 -203 -73q-53 0 -81 24t-27 54q0 86 59 344h-8
q-61 -172 -170 -304t-240 -131zM381 98q69 0 151 96t132 190q49 95 90 191l65 345q-57 37 -131 36q-123 0 -222 -100q-98 -100 -150 -244t-52 -293q0 -221 117 -221z" />
    <glyph glyph-name="atilde" unicode="&#xe3;" horiz-adv-x="1089" 
d="M526 1333q-48 0 -106 -51l-37 55q129 119 240 119q51 0 129 -33t126 -33t105 42l25 -56q-115 -113 -220 -112q-51 0 -133 34q-81 34 -129 35zM303 -25q-211 0 -211 310q0 193 70 363t210 283q140 112 320 111q68 0 154 -36q80 43 162 43l-187 -938h152v-50
q-94 -74 -203 -73q-53 0 -81 24t-27 54q0 86 59 344h-8q-61 -172 -170 -304t-240 -131zM381 98q69 0 151 96t132 190q49 95 90 191l65 345q-57 37 -131 36q-123 0 -222 -100q-98 -100 -150 -244t-52 -293q0 -221 117 -221z" />
    <glyph glyph-name="adieresis" unicode="&#xe4;" horiz-adv-x="1089" 
d="M813 1357q0 46 30 75q30 28 77 28q46 0 76 -28t30 -75q0 -46 -30 -74t-76 -28t-77 28q-30 28 -30 74zM403 1357q0 46 30 75q30 28 77 28t77 -28q29 -28 29 -75q0 -46 -30 -74t-76 -28q-47 0 -77 28t-30 74zM303 -25q-211 0 -211 310q0 193 70 363t210 283
q140 112 320 111q68 0 154 -36q80 43 162 43l-187 -938h152v-50q-94 -74 -203 -73q-53 0 -81 24t-27 54q0 86 59 344h-8q-61 -172 -170 -304t-240 -131zM381 98q69 0 151 96t132 190q49 95 90 191l65 345q-57 37 -131 36q-123 0 -222 -100q-98 -100 -150 -244t-52 -293
q0 -221 117 -221z" />
    <glyph glyph-name="aring" unicode="&#xe5;" horiz-adv-x="1089" 
d="M823 1447q0 69 -60 69t-92 -44t-32 -90q0 -45 20 -64q21 -20 57 -20t72 40t35 109zM537 1379q0 83 64 151q65 68 153 68t130 -43q42 -41 42 -125t-66 -149t-150 -65t-128 40t-45 123zM303 -25q-211 0 -211 310q0 193 70 363t210 283q140 112 320 111q68 0 154 -36
q80 43 162 43l-187 -938h152v-50q-94 -74 -203 -73q-53 0 -81 24t-27 54q0 86 59 344h-8q-61 -172 -170 -304t-240 -131zM381 98q69 0 151 96t132 190q49 95 90 191l65 345q-57 37 -131 36q-123 0 -222 -100q-98 -100 -150 -244t-52 -293q0 -221 117 -221z" />
    <glyph glyph-name="ae" unicode="&#xe6;" horiz-adv-x="1503" 
d="M1163 963q-201 0 -299 -363q203 6 316 70t112 174q0 119 -129 119zM326 -25q-109 0 -187 76t-78 197q-1 158 175 253t454 70q37 123 44 205q16 186 -140 186q-82 0 -139 -20l-107 -225h-49q-35 111 -39 233q186 98 396 98t239 -122q143 123 332 123q102 -1 169 -53
t66 -144q0 -150 -146 -232t-466 -106q-14 -66 -14 -133q0 -129 64 -206t180 -77t261 117l31 -37q-39 -84 -137 -143t-223 -60q-271 0 -334 244q-127 -244 -352 -244zM254 275q0 -177 156 -177q74 0 148 75q75 75 106 167q0 49 10 156q-200 26 -310 -50t-110 -171z" />
    <glyph glyph-name="ccedilla" unicode="&#xe7;" horiz-adv-x="872" 
d="M86 334q0 293 175 504t423 211q143 0 195 -45q6 -42 -19 -102t-59 -79l-142 140q-155 0 -273 -165t-118 -432t221 -268q51 0 93 17l39 16q22 8 71 45l33 21l23 18l28 -37q-43 -74 -122 -129t-183 -69l-68 -119q154 -6 160 -133q2 -80 -61 -138q-64 -58 -148 -83
q-84 -24 -159 -19v59q90 13 153 49q64 36 62 84t-28 74t-101 33l100 190q-137 11 -216 105t-79 252z" />
    <glyph glyph-name="egrave" unicode="&#xe8;" horiz-adv-x="925" 
d="M561 1573l180 -356l-41 -35l-340 307v39q22 18 94 34t107 11zM586 963q-201 0 -299 -363q203 6 315 70t113 174q0 119 -129 119zM86 340q0 301 156 505t407 204q102 -1 169 -53t67 -144q-1 -150 -147 -232t-466 -106q-14 -66 -14 -133q0 -129 65 -206t181 -77t260 117
l31 -37q-39 -84 -137 -143t-244 -59t-237 96q-91 98 -91 268z" />
    <glyph glyph-name="eacute" unicode="&#xe9;" horiz-adv-x="925" 
d="M524 1217l262 356q34 4 96 -11t85 -34v-39l-402 -307zM586 963q-201 0 -299 -363q203 6 315 70t113 174q0 119 -129 119zM86 340q0 301 156 505t407 204q102 -1 169 -53t67 -144q-1 -150 -147 -232t-466 -106q-14 -66 -14 -133q0 -129 65 -206t181 -77t260 117l31 -37
q-39 -84 -137 -143t-244 -59t-237 96q-91 98 -91 268z" />
    <glyph glyph-name="ecircumflex" unicode="&#xea;" horiz-adv-x="925" 
d="M712 1630q14 0 23 -6l152 -379l-53 -33l-160 222l-236 -222l-55 31l307 381q8 6 22 6zM586 963q-201 0 -299 -363q203 6 315 70t113 174q0 119 -129 119zM86 340q0 301 156 505t407 204q102 -1 169 -53t67 -144q-1 -150 -147 -232t-466 -106q-14 -66 -14 -133
q0 -129 65 -206t181 -77t260 117l31 -37q-39 -84 -137 -143t-244 -59t-237 96q-91 98 -91 268z" />
    <glyph glyph-name="edieresis" unicode="&#xeb;" horiz-adv-x="925" 
d="M745 1357q0 46 30 75q30 28 77 28t77 -28q29 -28 29 -75q0 -46 -30 -74t-76 -28q-47 0 -77 28t-30 74zM442 1255q-46 0 -76 28t-30 74t30 75q30 28 76 28t77 -28q30 -28 30 -75q0 -46 -30 -74t-77 -28zM586 963q-201 0 -299 -363q203 6 315 70t113 174q0 119 -129 119z
M86 340q0 301 156 505t407 204q102 -1 169 -53t67 -144q-1 -150 -147 -232t-466 -106q-14 -66 -14 -133q0 -129 65 -206t181 -77t260 117l31 -37q-39 -84 -137 -143t-244 -59t-237 96q-91 98 -91 268z" />
    <glyph glyph-name="igrave" unicode="&#xec;" horiz-adv-x="561" 
d="M307 1573l180 -356l-41 -35l-340 307v39q22 18 94 34t107 11zM422 61q-94 -73 -203 -73t-109 95q0 46 23 159l146 665l-134 19v49q184 74 281 74l37 -25l-193 -913h152v-50z" />
    <glyph glyph-name="iacute" unicode="&#xed;" horiz-adv-x="561" 
d="M311 1217l262 356q33 4 95 -11t86 -34v-39l-402 -307zM422 61q-94 -73 -203 -73t-109 95q0 46 23 159l146 665l-134 19v49q184 74 281 74l37 -25l-193 -913h152v-50z" />
    <glyph glyph-name="icircumflex" unicode="&#xee;" horiz-adv-x="561" 
d="M506 1630q14 0 22 -6l152 -379l-53 -33l-160 222l-236 -222l-55 31l307 381q9 6 23 6zM422 61q-94 -73 -203 -73t-109 95q0 46 23 159l146 665l-134 19v49q184 74 281 74l37 -25l-193 -913h152v-50z" />
    <glyph glyph-name="idieresis" unicode="&#xef;" horiz-adv-x="561" 
d="M610 1255q-46 0 -76 28t-30 74t30 75q30 28 76 28t77 -28q30 -28 30 -75q0 -46 -30 -74t-77 -28zM94 1357q0 46 30 75q30 28 77 28t77 -28t30 -75q0 -46 -30 -74t-77 -28t-77 28t-30 74zM422 61q-94 -73 -203 -73t-109 95q0 46 23 159l146 665l-134 19v49q184 74 281 74
l37 -25l-193 -913h152v-50z" />
    <glyph glyph-name="eth" unicode="&#xf0;" horiz-adv-x="1007" 
d="M626 950q-92 0 -176 -60t-128 -156q-89 -191 -89 -398q0 -274 173 -275q143 0 268 250t125 596q-81 43 -173 43zM487 1536h177q90 -35 165 -123l205 94l43 -73l-198 -93q92 -156 92 -383q-1 -414 -183 -698t-432 -285q-143 1 -219 97t-76 267t71 328t212 263t322 106
q84 0 133 -32q0 152 -62 274l-229 -104l-45 73l229 105q-82 106 -205 143v41z" />
    <glyph glyph-name="ntilde" unicode="&#xf1;" horiz-adv-x="1122" 
d="M536 1333q-48 0 -106 -51l-37 55q129 119 240 119q51 0 129 -33t126 -33t105 42l25 -56q-115 -113 -219 -112q-51 0 -133 34t-130 35zM991 61q-93 -73 -199 -73t-106 82q0 37 31 172l74 342q37 168 37 223q-1 119 -93 119q-71 0 -153 -81q-133 -130 -224 -329l-106 -516
h-160l180 909l-125 17l5 49q143 74 266 74l41 -25l-80 -369h10q84 174 200 284t238 110q82 -1 123 -53t41 -141t-35 -237l-116 -507h151v-50z" />
    <glyph glyph-name="ograve" unicode="&#xf2;" horiz-adv-x="1034" 
d="M530 1573l181 -356l-41 -35l-340 307v39q23 18 94 34t106 11zM772 674q0 290 -182 289q-92 1 -162 -61q-114 -100 -154 -363q-14 -98 -14 -211t55 -190t147 -77q92 1 165 95q74 94 109 235q36 141 36 283zM948 662q0 -279 -148 -483t-376 -204q-158 -1 -248 103t-90 320
t135 423q67 99 175 163t239 65q313 0 313 -387z" />
    <glyph glyph-name="oacute" unicode="&#xf3;" horiz-adv-x="1034" 
d="M535 1217l262 356q33 4 95 -11t85 -34v-39l-402 -307zM772 674q0 290 -182 289q-92 1 -162 -61q-114 -100 -154 -363q-14 -98 -14 -211t55 -190t147 -77q92 1 165 95q74 94 109 235q36 141 36 283zM948 662q0 -279 -148 -483t-376 -204q-158 -1 -248 103t-90 320t135 423
q67 99 175 163t239 65q313 0 313 -387z" />
    <glyph glyph-name="ocircumflex" unicode="&#xf4;" horiz-adv-x="1034" 
d="M741 1630q12 0 23 -6l151 -379l-53 -33l-160 222l-235 -222l-55 31l307 381q10 6 22 6zM772 674q0 290 -182 289q-92 1 -162 -61q-114 -100 -154 -363q-14 -98 -14 -211t55 -190t147 -77q92 1 165 95q74 94 109 235q36 141 36 283zM948 662q0 -279 -148 -483t-376 -204
q-158 -1 -248 103t-90 320t135 423q67 99 175 163t239 65q313 0 313 -387z" />
    <glyph glyph-name="otilde" unicode="&#xf5;" horiz-adv-x="1034" 
d="M513 1333q-48 0 -105 -51l-37 55q129 119 239 119q51 0 129 -33q79 -33 127 -33t105 42l24 -56q-115 -113 -219 -112q-51 0 -133 34t-130 35zM772 674q0 290 -182 289q-92 1 -162 -61q-114 -100 -154 -363q-14 -98 -14 -211t55 -190t147 -77q92 1 165 95q74 94 109 235
q36 141 36 283zM948 662q0 -279 -148 -483t-376 -204q-158 -1 -248 103t-90 320t135 423q67 99 175 163t239 65q313 0 313 -387z" />
    <glyph glyph-name="odieresis" unicode="&#xf6;" horiz-adv-x="1034" 
d="M741 1357q0 46 30 75q30 28 77 28t77 -28q29 -28 29 -75q0 -46 -30 -74t-76 -28q-47 0 -77 28t-30 74zM332 1357q0 46 29 75q30 28 77 28t77 -28t30 -75q0 -46 -30 -74t-77 -28t-77 28q-29 28 -29 74zM772 674q0 290 -182 289q-92 1 -162 -61q-114 -100 -154 -363
q-14 -98 -14 -211t55 -190t147 -77q92 1 165 95q74 94 109 235q36 141 36 283zM948 662q0 -279 -148 -483t-376 -204q-158 -1 -248 103t-90 320t135 423q67 99 175 163t239 65q313 0 313 -387z" />
    <glyph glyph-name="divide" unicode="&#xf7;" 
d="M92 657v103h922v-103h-922zM418 317q0 59 38 95t98 37q60 0 98 -36q38 -35 38 -95t-38 -96t-98 -36t-98 36t-38 95zM418 1100q0 59 38 95t98 36t98 -36t38 -95t-38 -95t-98 -36t-98 36t-38 95z" />
    <glyph glyph-name="oslash" unicode="&#xf8;" horiz-adv-x="1034" 
d="M599 963q-260 0 -325 -424q-14 -98 -14 -166t2 -84l483 563q-45 111 -146 111zM461 61q92 1 166 95t109 235q36 141 36 297q0 8 -1 22t-1 23l-477 -555q51 -117 168 -117zM86 363q0 250 135 458q67 99 175 163t240 64t212 -75l147 172l76 -62l-166 -192q43 -92 43 -229
q0 -279 -148 -483t-376 -204q-145 0 -231 86l-162 -188l-72 64l176 204q-49 93 -49 222z" />
    <glyph glyph-name="ugrave" unicode="&#xf9;" horiz-adv-x="1099" 
d="M530 1573l181 -356l-41 -35l-340 307v39q23 18 94 34t106 11zM985 111v-50q-94 -74 -203 -73q-53 0 -81 24t-27 54q0 135 57 344h-8q-197 -434 -444 -435q-72 1 -120 53t-48 156t135 725l-125 17v49q176 66 270 74l45 -25q-14 -66 -88 -382t-74 -445q0 -43 24 -71t56 -28
q66 0 136 58t122 143q106 172 144 272l88 453h157l-167 -913h151z" />
    <glyph glyph-name="uacute" unicode="&#xfa;" horiz-adv-x="1099" 
d="M575 1217l263 356q33 4 95 -11t85 -34v-39l-402 -307zM985 111v-50q-94 -74 -203 -73q-53 0 -81 24t-27 54q0 135 57 344h-8q-197 -434 -444 -435q-72 1 -120 53t-48 156t135 725l-125 17v49q176 66 270 74l45 -25q-14 -66 -88 -382t-74 -445q0 -43 24 -71t56 -28
q66 0 136 58t122 143q106 172 144 272l88 453h157l-167 -913h151z" />
    <glyph glyph-name="ucircumflex" unicode="&#xfb;" horiz-adv-x="1099" 
d="M736 1630q13 0 24 -6l151 -379l-53 -33l-160 222l-235 -222l-55 31l307 381q8 6 21 6zM985 111v-50q-94 -74 -203 -73q-53 0 -81 24t-27 54q0 135 57 344h-8q-197 -434 -444 -435q-72 1 -120 53t-48 156t135 725l-125 17v49q176 66 270 74l45 -25q-14 -66 -88 -382
t-74 -445q0 -43 24 -71t56 -28q66 0 136 58t122 143q106 172 144 272l88 453h157l-167 -913h151z" />
    <glyph glyph-name="udieresis" unicode="&#xfc;" horiz-adv-x="1099" 
d="M874 1255q-46 0 -76 28t-30 74t30 75q30 28 76 28t77 -28q30 -28 30 -75q0 -46 -30 -74t-77 -28zM358 1357q0 46 30 75q30 28 77 28t77 -28t30 -75q0 -46 -30 -74t-77 -28t-77 28t-30 74zM985 111v-50q-94 -74 -203 -73q-53 0 -81 24t-27 54q0 135 57 344h-8
q-197 -434 -444 -435q-72 1 -120 53t-48 156t135 725l-125 17v49q176 66 270 74l45 -25q-14 -66 -88 -382t-74 -445q0 -43 24 -71t56 -28q66 0 136 58t122 143q106 172 144 272l88 453h157l-167 -913h151z" />
    <glyph glyph-name="yacute" unicode="&#xfd;" horiz-adv-x="923" 
d="M512 1217l262 356q33 4 95 -11t85 -34v-39l-401 -307zM260 1049q70 0 88 -76l172 -727l6 -123h4l48 121q141 315 202 536q-2 43 -15 130t-22 114q59 25 119 25t107 -25q-100 -399 -416 -1024q-113 -221 -222 -325q-110 -103 -245 -103q-45 0 -113 31q-4 49 25 108t78 88
l168 -84q110 72 182 285l-238 909l-131 17v49q31 23 93 49t110 25z" />
    <glyph glyph-name="thorn" unicode="&#xfe;" horiz-adv-x="1103" 
d="M721 926q-176 0 -365 -437l-77 -380q55 -47 162 -47t203 100q96 102 152 255q54 153 54 275q0 234 -129 234zM334 -410h-309l-19 17l375 1814l-125 17v49q180 74 270 74l41 -25l-182 -881h8q174 393 418 394q95 0 157 -73t62 -208q0 -317 -176 -555t-420 -238
q-80 -1 -110 11q-31 12 -66 30l-68 -317q68 -12 144 -51v-58z" />
    <glyph glyph-name="ydieresis" unicode="&#xff;" horiz-adv-x="923" 
d="M698 1357q0 46 30 75q30 28 77 28t77 -28t30 -75q0 -46 -30 -74t-77 -28t-77 28t-30 74zM289 1357q0 46 29 75q30 28 77 28t77 -28t30 -75q0 -46 -30 -74t-77 -28t-77 28q-29 28 -29 74zM260 1049q70 0 88 -76l172 -727l6 -123h4l48 121q141 315 202 536q-2 43 -15 130
t-22 114q59 25 119 25t107 -25q-100 -399 -416 -1024q-113 -221 -222 -325q-110 -103 -245 -103q-45 0 -113 31q-4 49 25 108t78 88l168 -84q110 72 182 285l-238 909l-131 17v49q31 23 93 49t110 25z" />
    <glyph glyph-name="Amacron" unicode="&#x100;" horiz-adv-x="1368" 
d="M1239 1616h-612l20 102h613zM733 1024l-254 -436h412l-68 440l-4 176h-4zM365 57l-11 -57h-454l10 57q86 35 160 49l809 1352h43l231 -1352q94 -20 143 -49l-10 -57h-508l10 57q92 35 181 49l-62 379h-485l-221 -379q84 -12 164 -49z" />
    <glyph glyph-name="amacron" unicode="&#x101;" horiz-adv-x="1089" 
d="M1001 1309h-509l20 102h510zM303 -25q-211 0 -211 310q0 193 70 363t210 283q140 112 320 111q68 0 154 -36q80 43 162 43l-187 -938h152v-50q-94 -74 -203 -73q-53 0 -81 24t-27 54q0 86 59 344h-8q-61 -172 -170 -304t-240 -131zM381 98q69 0 151 96t132 190
q49 95 90 191l65 345q-57 37 -131 36q-123 0 -222 -100q-98 -100 -150 -244t-52 -293q0 -221 117 -221z" />
    <glyph glyph-name="Abreve" unicode="&#x102;" horiz-adv-x="1368" 
d="M897 1554q-215 0 -250 230q27 37 84 28q15 -48 69 -82t115 -36q181 -3 279 112q31 4 63 -26q-33 -76 -149 -151t-211 -75zM733 1024l-254 -436h412l-68 440l-4 176h-4zM365 57l-11 -57h-454l10 57q86 35 160 49l809 1352h43l231 -1352q94 -20 143 -49l-10 -57h-508l10 57
q92 35 181 49l-62 379h-485l-221 -379q84 -12 164 -49z" />
    <glyph glyph-name="abreve" unicode="&#x103;" horiz-adv-x="1089" 
d="M716 1227q-99 0 -161 68q-61 69 -72 182l56 24q20 -53 72 -93q104 -80 259 -10q76 34 115 95l47 -20q-37 -96 -127 -171t-189 -75zM303 -25q-211 0 -211 310q0 193 70 363t210 283q140 112 320 111q68 0 154 -36q80 43 162 43l-187 -938h152v-50q-94 -74 -203 -73
q-53 0 -81 24t-27 54q0 86 59 344h-8q-61 -172 -170 -304t-240 -131zM381 98q69 0 151 96t132 190q49 95 90 191l65 345q-57 37 -131 36q-123 0 -222 -100q-98 -100 -150 -244t-52 -293q0 -221 117 -221z" />
    <glyph glyph-name="Aogonek" unicode="&#x104;" horiz-adv-x="1368" 
d="M733 1024l-254 -436h412l-68 440l-4 176h-4zM971 -276q0 -58 38 -96q37 -38 103 -38t115 13v-58q-75 -57 -177 -57t-170 56t-67 145q0 186 281 311h-316l10 57q92 35 181 49l-62 379h-485l-221 -379q84 -12 164 -49l-11 -57h-454l10 57q86 35 160 49l809 1352h43
l231 -1352q94 -20 143 -49l-4 -20l-6 -37h-82q-233 -115 -233 -276z" />
    <glyph glyph-name="aogonek" unicode="&#x105;" horiz-adv-x="1089" 
d="M381 98q69 0 151 96t132 190q49 95 90 191l65 345q-57 37 -131 36q-123 0 -222 -100q-98 -100 -150 -244t-52 -293q0 -221 117 -221zM303 -25q-211 0 -211 310q0 193 70 363t210 283q140 112 320 111q68 0 154 -36q80 43 162 43l-187 -938h152v-50q-45 -35 -96 -53
q-74 -40 -129 -106t-56 -144q0 -125 127 -125q18 0 84 19v-64q-72 -41 -151 -41q-221 0 -222 179q0 168 224 264q-45 2 -69 24t-23 52q0 86 59 344h-8q-61 -172 -170 -304t-240 -131z" />
    <glyph glyph-name="Cacute" unicode="&#x106;" horiz-adv-x="1296" 
d="M809 1575l301 254q36 4 102 -18t88 -48v-41l-458 -186zM764 -25q-164 1 -290 49t-196 130q-140 163 -141 372q1 420 229 676t615 256q248 0 383 -69q-31 -166 -104 -349h-50l-43 295q-57 20 -190 21q-283 0 -459 -213t-176 -611q0 -121 44 -214q74 -157 261 -217
q77 -23 179 -23t163 39l150 250h49q-4 -139 -45 -308q-145 -84 -379 -84z" />
    <glyph glyph-name="cacute" unicode="&#x107;" horiz-adv-x="872" 
d="M551 1217l262 356q33 4 95 -11t85 -34v-39l-401 -307zM86 334q0 293 175 504t423 211q143 0 195 -45q6 -42 -19 -102t-59 -79l-142 140q-155 0 -273 -165t-118 -432t221 -268q51 0 93 17l39 16q22 8 71 45l33 21l23 18l28 -37q-49 -84 -144 -143q-96 -59 -234 -59
t-225 96t-87 262z" />
    <glyph glyph-name="Ccircumflex" unicode="&#x108;" horiz-adv-x="1296" 
d="M1010 1659l-303 -117l-27 37l342 229q21 15 45 0l174 -223l-27 -41zM764 -25q-164 1 -290 49t-196 130q-140 163 -141 372q1 420 229 676t615 256q248 0 383 -69q-31 -166 -104 -349h-50l-43 295q-57 20 -190 21q-283 0 -459 -213t-176 -611q0 -121 44 -214
q74 -157 261 -217q77 -23 179 -23t163 39l150 250h49q-4 -139 -45 -308q-145 -84 -379 -84z" />
    <glyph glyph-name="ccircumflex" unicode="&#x109;" horiz-adv-x="872" 
d="M736 1630q13 0 24 -6l151 -379l-53 -33l-160 222l-235 -222l-55 31l307 381q8 6 21 6zM86 334q0 293 175 504t423 211q143 0 195 -45q6 -42 -19 -102t-59 -79l-142 140q-155 0 -273 -165t-118 -432t221 -268q51 0 93 17l39 16q22 8 71 45l33 21l23 18l28 -37
q-49 -84 -144 -143q-96 -59 -234 -59t-225 96t-87 262z" />
    <glyph glyph-name="Cdotaccent" unicode="&#x10a;" horiz-adv-x="1296" 
d="M913 1673q0 51 36 80t90 29t89 -29t35 -80t-35 -80t-89 -29t-90 30q-36 28 -36 79zM764 -25q-164 1 -290 49t-196 130q-140 163 -141 372q1 420 229 676t615 256q248 0 383 -69q-31 -166 -104 -349h-50l-43 295q-57 20 -190 21q-283 0 -459 -213t-176 -611
q0 -121 44 -214q74 -157 261 -217q77 -23 179 -23t163 39l150 250h49q-4 -139 -45 -308q-145 -84 -379 -84z" />
    <glyph glyph-name="cdotaccent" unicode="&#x10b;" horiz-adv-x="872" 
d="M774 1381q0 -51 -32 -79t-84 -28t-84 28t-31 79q0 50 31 80q32 30 84 30t84 -30t32 -80zM86 334q0 293 175 504t423 211q143 0 195 -45q6 -42 -19 -102t-59 -79l-142 140q-155 0 -273 -165t-118 -432t221 -268q51 0 93 17l39 16q22 8 71 45l33 21l23 18l28 -37
q-49 -84 -144 -143q-96 -59 -234 -59t-225 96t-87 262z" />
    <glyph glyph-name="Ccaron" unicode="&#x10c;" horiz-adv-x="1296" 
d="M992 1548q-14 0 -21 6l-174 224q23 39 49 39l182 -113l281 113q33 0 49 -33l-342 -230q-10 -6 -24 -6zM764 -25q-164 1 -290 49t-196 130q-140 163 -141 372q1 420 229 676t615 256q248 0 383 -69q-31 -166 -104 -349h-50l-43 295q-57 20 -190 21q-283 0 -459 -213
t-176 -611q0 -121 44 -214q74 -157 261 -217q77 -23 179 -23t163 39l150 250h49q-4 -139 -45 -308q-145 -84 -379 -84z" />
    <glyph glyph-name="ccaron" unicode="&#x10d;" horiz-adv-x="872" 
d="M672 1411l266 221q41 0 55 -30l-334 -381q-25 -15 -45 0l-165 378q18 33 67 33zM86 334q0 293 175 504t423 211q143 0 195 -45q6 -42 -19 -102t-59 -79l-142 140q-155 0 -273 -165t-118 -432t221 -268q51 0 93 17l39 16q22 8 71 45l33 21l23 18l28 -37q-49 -84 -144 -143
q-96 -59 -234 -59t-225 96t-87 262z" />
    <glyph glyph-name="Dcaron" unicode="&#x10e;" horiz-adv-x="1429" 
d="M784 1548q-14 0 -22 6l-174 224q23 39 49 39l182 -113l281 113q33 0 49 -33l-342 -230q-9 -6 -23 -6zM778 1348q-121 0 -186 -11l-264 -1245q80 -8 213 -8t254 51t197 136q216 244 216 694q0 179 -94 281t-336 102zM1413 952q0 -289 -111 -520q-65 -133 -165 -229
q-99 -97 -267 -159t-381 -62l-337 18h-193l10 57q84 35 181 49l258 1221q-98 25 -158 49l12 58h205l352 16q309 0 451 -136t143 -362z" />
    <glyph glyph-name="dcaron" unicode="&#x10f;" horiz-adv-x="1087" 
d="M1149 1094l-39 20q129 229 129 391l23 31q31 4 84 -11t75 -34q-16 -103 -98 -211t-174 -186zM307 -25q-211 0 -211 310q0 197 71 367t210 281q139 110 319 109q70 0 146 -32l78 391l-144 16v49q129 53 289 74l43 -16l-283 -1413h152v-50q-94 -74 -203 -73q-53 0 -81 24
t-27 54q0 86 59 344h-8q-61 -172 -170 -304t-240 -131zM385 98q70 0 152 96t131 190q49 95 90 191l65 345q-57 37 -131 36q-129 0 -228 -100q-100 -100 -148 -244t-48 -293q0 -221 117 -221z" />
    <glyph glyph-name="Dcroat" unicode="&#x110;" horiz-adv-x="1429" 
d="M778 1348q-131 0 -196 -11l-119 -555h346l-23 -102h-344l-125 -588q81 -8 219 -8t259 51t197 136q216 244 216 694q0 179 -94 281t-336 102zM1413 952q0 -289 -111 -520q-65 -133 -165 -229q-99 -97 -267 -159t-381 -62l-337 18h-193l10 57q84 35 181 49l120 574h-184
l23 102h182l117 545q-98 25 -158 49l12 58h205l352 16q309 0 451 -136t143 -362z" />
    <glyph glyph-name="dcroat" unicode="&#x111;" horiz-adv-x="1087" 
d="M385 98q70 0 152 96t131 190q49 95 90 191l65 345q-57 37 -131 36q-129 0 -228 -100q-100 -100 -148 -244t-48 -293q0 -221 117 -221zM977 111v-50q-94 -74 -203 -73q-53 0 -81 24t-27 54q0 86 59 344h-8q-61 -172 -170 -304t-240 -131q-211 0 -211 310q0 197 71 367
t210 281q139 110 319 109q70 0 146 -32l30 161h-335l24 103h332l27 127l-144 16v49q129 53 289 74l43 -16l-51 -250h184l-24 -103h-181l-211 -1060h152z" />
    <glyph glyph-name="Emacron" unicode="&#x112;" horiz-adv-x="1165" 
d="M1108 1616h-612l20 102h612zM262 1434h959q-43 -203 -91 -328h-49l-34 225h-455l-115 -549h342l111 152h49q-31 -199 -86 -410h-49l-47 156h-342l-121 -578h477l152 246h49q-10 -182 -54 -348h-999l10 57q84 35 181 49l258 1221q-82 16 -158 49z" />
    <glyph glyph-name="emacron" unicode="&#x113;" horiz-adv-x="925" 
d="M920 1309h-510l20 102h510zM586 963q-201 0 -299 -363q203 6 315 70t113 174q0 119 -129 119zM86 340q0 301 156 505t407 204q102 -1 169 -53t67 -144q-1 -150 -147 -232t-466 -106q-14 -66 -14 -133q0 -129 65 -206t181 -77t260 117l31 -37q-39 -84 -137 -143t-244 -59
t-237 96q-91 98 -91 268z" />
    <glyph glyph-name="Ebreve" unicode="&#x114;" horiz-adv-x="1165" 
d="M811 1554q-215 0 -250 230q27 37 84 28q15 -48 69 -82t115 -36q181 -3 279 112q31 4 63 -26q-33 -76 -149 -151t-211 -75zM262 1434h959q-43 -203 -91 -328h-49l-34 225h-455l-115 -549h342l111 152h49q-31 -199 -86 -410h-49l-47 156h-342l-121 -578h477l152 246h49
q-10 -182 -54 -348h-999l10 57q84 35 181 49l258 1221q-82 16 -158 49z" />
    <glyph glyph-name="ebreve" unicode="&#x115;" horiz-adv-x="925" 
d="M657 1227q-99 0 -161 68q-61 69 -72 182l55 24q21 -53 73 -93q105 -80 259 -10q76 34 115 95l47 -20q-37 -96 -127 -171t-189 -75zM586 963q-201 0 -299 -363q203 6 315 70t113 174q0 119 -129 119zM86 340q0 301 156 505t407 204q102 -1 169 -53t67 -144
q-1 -150 -147 -232t-466 -106q-14 -66 -14 -133q0 -129 65 -206t181 -77t260 117l31 -37q-39 -84 -137 -143t-244 -59t-237 96q-91 98 -91 268z" />
    <glyph glyph-name="Edotaccent" unicode="&#x116;" horiz-adv-x="1165" 
d="M672 1673q0 51 36 80t90 29t89 -29t35 -80t-35 -80t-89 -29t-90 30q-36 28 -36 79zM262 1434h959q-43 -203 -91 -328h-49l-34 225h-455l-115 -549h342l111 152h49q-31 -199 -86 -410h-49l-47 156h-342l-121 -578h477l152 246h49q-10 -182 -54 -348h-999l10 57
q84 35 181 49l258 1221q-82 16 -158 49z" />
    <glyph glyph-name="edotaccent" unicode="&#x117;" horiz-adv-x="925" 
d="M768 1381q0 -51 -32 -79t-84 -28t-84 28t-31 79q0 50 31 80q32 30 84 30t84 -30t32 -80zM586 963q-201 0 -299 -363q203 6 315 70t113 174q0 119 -129 119zM86 340q0 301 156 505t407 204q102 -1 169 -53t67 -144q-1 -150 -147 -232t-466 -106q-14 -66 -14 -133
q0 -129 65 -206t181 -77t260 117l31 -37q-39 -84 -137 -143t-244 -59t-237 96q-91 98 -91 268z" />
    <glyph glyph-name="Eogonek" unicode="&#x118;" horiz-adv-x="1165" 
d="M629 -276q0 -58 38 -96q37 -38 103 -38t115 13v-58q-75 -57 -177 -57t-170 56t-67 145q0 186 281 311h-793l10 57q84 35 181 49l258 1221q-82 16 -158 49l12 58h959q-43 -203 -91 -328h-49l-34 225h-455l-115 -549h342l111 152h49q-31 -199 -86 -410h-49l-47 156h-342
l-121 -578h477l152 246h49q-10 -182 -54 -348h-96q-233 -115 -233 -276z" />
    <glyph glyph-name="eogonek" unicode="&#x119;" horiz-adv-x="925" 
d="M586 963q-201 0 -299 -363q203 6 315 70t113 174q0 119 -129 119zM416 -242q0 -125 127 -125q18 0 84 19v-64q-72 -41 -152 -41q-221 0 -221 179q0 158 195 249q-175 1 -269 95t-94 270q0 301 156 505t407 204q102 -1 169 -53t67 -144q-1 -150 -147 -232t-466 -106
q-14 -66 -14 -133q0 -125 64 -204t180 -79q117 0 262 117l31 -37q-55 -119 -199 -174q-74 -38 -127 -104t-53 -142z" />
    <glyph glyph-name="Ecaron" unicode="&#x11a;" horiz-adv-x="1165" 
d="M795 1548q-12 0 -23 6l-174 224q23 39 49 39l182 -113l281 113q33 0 49 -33l-342 -230q-10 -6 -22 -6zM262 1434h959q-43 -203 -91 -328h-49l-34 225h-455l-115 -549h342l111 152h49q-31 -199 -86 -410h-49l-47 156h-342l-121 -578h477l152 246h49q-10 -182 -54 -348
h-999l10 57q84 35 181 49l258 1221q-82 16 -158 49z" />
    <glyph glyph-name="ecaron" unicode="&#x11b;" horiz-adv-x="925" 
d="M668 1411l266 221q41 0 55 -30l-334 -381q-8 -7 -22 -7t-23 7l-166 378q18 33 68 33zM586 963q-201 0 -299 -363q203 6 315 70t113 174q0 119 -129 119zM86 340q0 301 156 505t407 204q102 -1 169 -53t67 -144q-1 -150 -147 -232t-466 -106q-14 -66 -14 -133
q0 -129 65 -206t181 -77t260 117l31 -37q-39 -84 -137 -143t-244 -59t-237 96q-91 98 -91 268z" />
    <glyph glyph-name="Gcircumflex" unicode="&#x11c;" horiz-adv-x="1384" 
d="M1010 1659l-303 -117l-27 37l342 229q21 15 45 0l174 -223l-27 -41zM713 -25q-272 -1 -424 145t-152 408q-1 420 229 675t623 255q256 0 385 -69q-35 -178 -104 -349h-49l-43 295q-74 20 -201 21q-307 0 -471 -230t-164 -589q0 -139 41 -237t107 -143q119 -79 258 -79
q76 0 148 24t103 50l91 417q-80 6 -187 49l12 58h496l-12 -58q-57 -35 -137 -49l-101 -469q-86 -55 -215 -90t-233 -35z" />
    <glyph glyph-name="gcircumflex" unicode="&#x11d;" horiz-adv-x="993" 
d="M698 1630q14 0 23 -6l151 -379l-53 -33l-160 222l-235 -222l-55 31l307 381q8 6 22 6zM299 686q0 -74 49 -114t113 -40q117 0 180 77t63 173q1 190 -149 189q-117 0 -187 -82t-69 -203zM339 -348q132 0 243 76t110 198q0 93 -122 134q-56 19 -111 32l-123 27
q-68 12 -103 24q-172 -127 -172 -295q0 -90 73 -143t205 -53zM147 682q0 158 125 262t293 105q168 0 258 -78q72 59 254 110q15 -14 13 -71t-29 -95l-211 13q18 -55 18 -92q0 -162 -125 -272t-299 -109q-70 0 -104 8q-4 -3 -24 -21q-58 -53 -58 -90q0 -38 62 -62t152 -41
q89 -17 178 -42q90 -25 152 -81t62 -142q0 -182 -190 -300t-436 -118q-174 0 -262 68q-87 69 -87 171q0 184 306 357q-66 39 -66 102q0 86 162 215q-55 15 -99 69t-45 134z" />
    <glyph glyph-name="Gbreve" unicode="&#x11e;" horiz-adv-x="1384" 
d="M999 1554q-215 0 -249 230q27 37 84 28q16 -48 69 -82t115 -36q180 -3 278 112q31 4 64 -26q-33 -76 -149 -151t-212 -75zM713 -25q-272 -1 -424 145t-152 408q-1 420 229 675t623 255q256 0 385 -69q-35 -178 -104 -349h-49l-43 295q-74 20 -201 21q-307 0 -471 -230
t-164 -589q0 -139 41 -237t107 -143q119 -79 258 -79q76 0 148 24t103 50l91 417q-80 6 -187 49l12 58h496l-12 -58q-57 -35 -137 -49l-101 -469q-86 -55 -215 -90t-233 -35z" />
    <glyph glyph-name="gbreve" unicode="&#x11f;" horiz-adv-x="993" 
d="M616 1227q-99 0 -161 68q-61 69 -72 182l55 24q20 -53 72 -93q105 -80 260 -10q76 34 115 95l47 -20q-37 -96 -127 -171t-189 -75zM299 686q0 -74 49 -114t113 -40q117 0 180 77t63 173q1 190 -149 189q-117 0 -187 -82t-69 -203zM339 -348q132 0 243 76t110 198
q0 93 -122 134q-56 19 -111 32l-123 27q-68 12 -103 24q-172 -127 -172 -295q0 -90 73 -143t205 -53zM147 682q0 158 125 262t293 105q168 0 258 -78q72 59 254 110q15 -14 13 -71t-29 -95l-211 13q18 -55 18 -92q0 -162 -125 -272t-299 -109q-70 0 -104 8q-4 -3 -24 -21
q-58 -53 -58 -90q0 -38 62 -62t152 -41q89 -17 178 -42q90 -25 152 -81t62 -142q0 -182 -190 -300t-436 -118q-174 0 -262 68q-87 69 -87 171q0 184 306 357q-66 39 -66 102q0 86 162 215q-55 15 -99 69t-45 134z" />
    <glyph glyph-name="Gdotaccent" unicode="&#x120;" horiz-adv-x="1384" 
d="M895 1673q0 51 36 80t90 29t89 -29t35 -80t-35 -80t-89 -29t-90 30q-36 28 -36 79zM713 -25q-272 -1 -424 145t-152 408q-1 420 229 675t623 255q256 0 385 -69q-35 -178 -104 -349h-49l-43 295q-74 20 -201 21q-307 0 -471 -230t-164 -589q0 -139 41 -237t107 -143
q119 -79 258 -79q76 0 148 24t103 50l91 417q-80 6 -187 49l12 58h496l-12 -58q-57 -35 -137 -49l-101 -469q-86 -55 -215 -90t-233 -35z" />
    <glyph glyph-name="gdotaccent" unicode="&#x121;" horiz-adv-x="993" 
d="M735 1381q0 -51 -32 -79t-84 -28q-51 0 -83 28t-32 79q0 50 32 80t84 30t83 -30q32 -30 32 -80zM299 686q0 -74 49 -114t113 -40q117 0 180 77t63 173q1 190 -149 189q-117 0 -187 -82t-69 -203zM339 -348q132 0 243 76t110 198q0 93 -122 134q-56 19 -111 32l-123 27
q-68 12 -103 24q-172 -127 -172 -295q0 -90 73 -143t205 -53zM147 682q0 158 125 262t293 105q168 0 258 -78q72 59 254 110q15 -14 13 -71t-29 -95l-211 13q18 -55 18 -92q0 -162 -125 -272t-299 -109q-70 0 -104 8q-4 -3 -24 -21q-58 -53 -58 -90q0 -38 62 -62t152 -41
q89 -17 178 -42q90 -25 152 -81t62 -142q0 -182 -190 -300t-436 -118q-174 0 -262 68q-87 69 -87 171q0 184 306 357q-66 39 -66 102q0 86 162 215q-55 15 -99 69t-45 134z" />
    <glyph glyph-name="Gcommaaccent" unicode="&#x122;" horiz-adv-x="1384" 
d="M866 -244q0 -114 -104 -200t-262 -109l-29 70q168 45 188 168q-49 53 -106 71q-2 54 55 100t103 48q67 -6 111 -46t44 -102zM713 -25q-272 -1 -424 145t-152 408q-1 420 229 675t623 255q256 0 385 -69q-35 -178 -104 -349h-49l-43 295q-74 20 -201 21q-307 0 -471 -230
t-164 -589q0 -139 41 -237t107 -143q119 -79 258 -79q76 0 148 24t103 50l91 417q-80 6 -187 49l12 58h496l-12 -58q-57 -35 -137 -49l-101 -469q-86 -55 -215 -90t-233 -35z" />
    <glyph glyph-name="gcommaaccent" unicode="&#x123;" horiz-adv-x="993" 
d="M473 1352q0 106 91 188q92 82 231 105l22 -60q-162 -45 -176 -166q37 -47 102 -67q2 -52 -49 -96t-94 -46q-59 6 -93 43t-34 99zM299 686q0 -74 49 -114t113 -40q117 0 180 77t63 173q1 190 -149 189q-117 0 -187 -82t-69 -203zM339 -348q132 0 243 76t110 198
q0 93 -122 134q-56 19 -111 32l-123 27q-68 12 -103 24q-172 -127 -172 -295q0 -90 73 -143t205 -53zM147 682q0 158 125 262t293 105q168 0 258 -78q72 59 254 110q15 -14 13 -71t-29 -95l-211 13q18 -55 18 -92q0 -162 -125 -272t-299 -109q-70 0 -104 8q-4 -3 -24 -21
q-58 -53 -58 -90q0 -38 62 -62t152 -41q89 -17 178 -42q90 -25 152 -81t62 -142q0 -182 -190 -300t-436 -118q-174 0 -262 68q-87 69 -87 171q0 184 306 357q-66 39 -66 102q0 86 162 215q-55 15 -99 69t-45 134z" />
    <glyph glyph-name="Hcircumflex" unicode="&#x124;" horiz-adv-x="1462" 
d="M1016 1659l-303 -117l-27 37l342 229q8 6 22 6t23 -6l174 -223l-26 -41zM477 57l-10 -57h-508l10 57q82 35 181 49l258 1221q-88 14 -158 49l12 58h508l-12 -58q-61 -33 -166 -49l-115 -541h656l114 541q-96 23 -145 49l12 58h508l-12 -58q-72 -35 -178 -49l-258 -1221
q88 -14 155 -49l-10 -57h-508l10 57q74 33 168 49l121 578h-655l-121 -578q82 -16 143 -49z" />
    <glyph glyph-name="hcircumflex" unicode="&#x125;" horiz-adv-x="1103" 
d="M580 1659l-304 -117l-26 37l342 229q21 15 45 0l174 -223l-27 -41zM809 806q-1 120 -91 120q-46 0 -111 -45t-117 -116q-99 -135 -150 -249l-107 -516h-159l280 1401l-139 16v45q182 74 289 78l43 -18l-187 -867h11q84 176 196 285q113 109 217 109q190 0 189 -189
q0 -94 -35 -242l-117 -507h152v-50q-94 -74 -203 -73q-53 0 -78 22q-24 22 -24 51q0 28 30 181l74 342q37 168 37 222z" />
    <glyph glyph-name="Hbar" unicode="&#x126;" horiz-adv-x="1462" 
d="M477 786h656l53 252h-656zM180 1038l23 103h164l41 186q-88 14 -158 49l12 58h508l-12 -58q-61 -33 -166 -49l-41 -186h655l41 186q-96 23 -145 49l12 58h508l-12 -58q-72 -35 -178 -49l-39 -186h166l-23 -103h-166l-196 -932q88 -14 155 -49l-10 -57h-508l10 57
q74 33 168 49l121 578h-655l-121 -578q82 -16 143 -49l-10 -57h-508l10 57q82 35 181 49l196 932h-166z" />
    <glyph glyph-name="hbar" unicode="&#x127;" horiz-adv-x="1103" 
d="M809 806q-1 120 -91 120q-46 0 -111 -45t-117 -116q-99 -135 -150 -249l-107 -516h-159l229 1151h-176l25 102h172l30 148l-139 16v45q182 74 289 78l43 -18l-58 -269h342l-24 -102h-340l-107 -496h11q84 176 196 285q113 109 217 109q190 0 189 -189q0 -94 -35 -242
l-117 -507h152v-50q-94 -74 -203 -73q-53 0 -78 22q-24 22 -24 51q0 28 30 181l74 342q37 168 37 222z" />
    <glyph glyph-name="Itilde" unicode="&#x128;" horiz-adv-x="696" 
d="M776 1698q50 0 107 41l24 -56q-115 -113 -223 -112q-53 0 -139 35q-86 34 -136 34t-110 -51l-37 56q131 119 246 118q51 -1 135 -33q83 -32 133 -32zM522 57l-10 -57h-512l10 57q90 37 176 49l258 1221q-74 14 -153 49l12 58h512l-12 -58q-72 -31 -174 -49l-258 -1221
q85 -16 151 -49z" />
    <glyph glyph-name="itilde" unicode="&#x129;" horiz-adv-x="561" 
d="M257 1333q-48 0 -105 -51l-37 55q129 119 239 119q51 0 129 -33q79 -33 127 -33t105 42l24 -56q-115 -113 -219 -112q-51 0 -133 34t-130 35zM422 61q-94 -73 -203 -73t-109 95q0 46 23 159l146 665l-134 19v49q184 74 281 74l37 -25l-193 -913h152v-50z" />
    <glyph glyph-name="Imacron" unicode="&#x12a;" horiz-adv-x="696" 
d="M893 1616h-612l20 102h612zM522 57l-10 -57h-512l10 57q90 37 176 49l258 1221q-74 14 -153 49l12 58h512l-12 -58q-72 -31 -174 -49l-258 -1221q85 -16 151 -49z" />
    <glyph glyph-name="imacron" unicode="&#x12b;" horiz-adv-x="561" 
d="M692 1309h-510l21 102h510zM422 61q-94 -73 -203 -73t-109 95q0 46 23 159l146 665l-134 19v49q184 74 281 74l37 -25l-193 -913h152v-50z" />
    <glyph glyph-name="Ibreve" unicode="&#x12c;" horiz-adv-x="696" 
d="M559 1554q-215 0 -250 230q27 37 84 28q15 -48 69 -82t116 -36q180 -3 278 112q31 4 64 -26q-33 -76 -149 -151t-212 -75zM522 57l-10 -57h-512l10 57q90 37 176 49l258 1221q-74 14 -153 49l12 58h512l-12 -58q-72 -31 -174 -49l-258 -1221q85 -16 151 -49z" />
    <glyph glyph-name="ibreve" unicode="&#x12d;" horiz-adv-x="561" 
d="M427 1227q-99 0 -161 68q-61 69 -71 182l55 24q20 -53 72 -93q104 -79 260 -10q75 34 114 95l47 -20q-37 -96 -127 -171t-189 -75zM422 61q-94 -73 -203 -73t-109 95q0 46 23 159l146 665l-134 19v49q184 74 281 74l37 -25l-193 -913h152v-50z" />
    <glyph glyph-name="Iogonek" unicode="&#x12e;" horiz-adv-x="696" 
d="M316 -410q66 0 114 13v-58q-74 -57 -176 -57t-170 56t-68 145q0 186 281 311h-297l10 57q90 37 176 49l258 1221q-74 14 -153 49l12 58h512l-12 -58q-72 -31 -174 -49l-258 -1221q85 -16 151 -49l-10 -57h-104q-233 -115 -234 -276q0 -58 38 -96t104 -38z" />
    <glyph glyph-name="iogonek" unicode="&#x12f;" horiz-adv-x="561" 
d="M541 1381q0 -51 -32 -79t-84 -28t-84 28t-32 79q0 50 32 80t84 30t84 -30t32 -80zM422 111v-50q-53 -39 -103 -55q-75 -40 -127 -106t-53 -142q0 -125 127 -125q18 0 84 19v-64q-72 -41 -151 -41q-221 0 -222 179q0 168 224 264q-90 8 -90 86q0 53 22 166l146 665
l-134 19v49q184 74 281 74l37 -25l-193 -913h152z" />
    <glyph glyph-name="Idotaccent" unicode="&#x130;" horiz-adv-x="696" 
d="M455 1673q0 51 35 80q36 29 90 29t90 -29q35 -29 35 -80t-35 -80t-89 -29t-91 29q-35 29 -35 80zM522 57l-10 -57h-512l10 57q90 37 176 49l258 1221q-74 14 -153 49l12 58h512l-12 -58q-72 -31 -174 -49l-258 -1221q85 -16 151 -49z" />
    <glyph glyph-name="dotlessi" unicode="&#x131;" horiz-adv-x="561" 
d="M422 61q-94 -73 -203 -73t-109 95q0 46 23 159l146 665l-134 19v49q184 74 281 74l37 -25l-193 -913h152v-50z" />
    <glyph glyph-name="Jcircumflex" unicode="&#x134;" horiz-adv-x="671" 
d="M594 1659l-303 -117l-27 37l342 229q8 6 22 6t23 -6l174 -223l-26 -41zM268 1376l13 58h510l-11 -58q-59 -27 -176 -49l-244 -1159q-90 -422 -409 -496l-14 29q92 70 142 158t93 286l248 1182q-84 16 -152 49z" />
    <glyph glyph-name="jcircumflex" unicode="&#x135;" horiz-adv-x="561" 
d="M478 1630q13 0 24 -6l151 -379l-53 -33l-160 222l-235 -222l-55 31l307 381q8 6 21 6zM94 49l182 860l-124 17v49q168 74 270 74l41 -25l-199 -936q-74 -345 -304 -483q-44 -27 -85 -39l-22 43q63 31 132 139q68 108 109 301z" />
    <glyph glyph-name="Kcommaaccent" unicode="&#x136;" horiz-adv-x="1288" 
d="M760 -244q0 -114 -104 -200t-263 -109l-28 70q168 45 188 168q-49 53 -107 71q-2 54 56 100t102 48q66 -6 111 -46t45 -102zM956 1376l13 58h454l-12 -58q-72 -35 -166 -49l-534 -559q238 -420 417 -670l89 -49l-11 -49h-235l-60 49q-166 250 -346 639h-108l-123 -582
q82 -14 143 -49l-10 -57h-508l10 57q92 37 181 49l258 1221q-94 12 -158 49l12 58h508l-12 -58q-74 -33 -166 -49l-121 -573l123 28l500 545q-91 20 -138 49z" />
    <glyph glyph-name="kcommaaccent" unicode="&#x137;" horiz-adv-x="972" 
d="M254 -530l-23 59q162 45 177 166q-37 47 -103 67q-2 52 49 96t95 46q59 -6 93 -43t33 -99q0 -106 -91 -188t-230 -104zM858 1051q66 0 115 -27q-52 -131 -208 -265q-79 -69 -114 -97l-104 -80q31 -84 119 -238t155 -233h131v-50q-94 -73 -188 -73t-156 104
q-77 127 -149 287l-51 110l-74 21l-96 -510h-164l278 1401l-143 16v49q150 68 289 74l43 -22l-195 -959h60q82 51 176 141t135 150q12 59 -2 174q77 27 143 27z" />
    <glyph glyph-name="kgreenlandic" unicode="&#x138;" horiz-adv-x="1036" 
d="M896 1051q66 0 116 -27q-33 -78 -136 -181t-157 -147l-154 -114q27 -72 117 -224t158 -247h131v-50q-94 -74 -183 -74t-159 116t-203 386l-74 21l-96 -510h-164l178 909l-143 17v49q150 68 289 74l43 -23l-94 -467h59q88 55 191 147t141 144q12 59 -2 174q76 27 142 27z
" />
    <glyph glyph-name="Lacute" unicode="&#x139;" horiz-adv-x="1093" 
d="M502 1575l301 254q35 4 101 -18t89 -48v-41l-458 -186zM250 1376l12 58h549l-12 -58q-104 -37 -207 -49l-258 -1225h477l188 328h50q-16 -223 -70 -430h-1020l10 57q80 33 181 49l258 1221q-95 16 -158 49z" />
    <glyph glyph-name="lacute" unicode="&#x13a;" horiz-adv-x="563" 
d="M338 1595l301 254q35 5 101 -17t89 -48v-41l-458 -187zM414 61q-94 -73 -205 -73t-111 95q0 46 23 159l239 1159l-145 16v49q164 70 291 74l41 -22l-285 -1407h152v-50z" />
    <glyph glyph-name="Lcommaaccent" unicode="&#x13b;" horiz-adv-x="1093" 
d="M297 -553l-29 70q168 45 189 168q-49 53 -107 71q-2 54 56 100t102 48q66 -6 110 -46t46 -102q0 -114 -104 -200t-263 -109zM250 1376l12 58h549l-12 -58q-104 -37 -207 -49l-258 -1225h477l188 328h50q-16 -223 -70 -430h-1020l10 57q80 33 181 49l258 1221
q-95 16 -158 49z" />
    <glyph glyph-name="lcommaaccent" unicode="&#x13c;" horiz-adv-x="563" 
d="M350 -238q0 -106 -91 -188t-230 -104l-23 59q162 45 176 166q-37 47 -102 67q-2 52 49 96t94 46q59 -6 93 -43t34 -99zM414 61q-94 -73 -205 -73t-111 95q0 46 23 159l239 1159l-145 16v49q164 70 291 74l41 -22l-285 -1407h152v-50z" />
    <glyph glyph-name="Lcaron" unicode="&#x13d;" horiz-adv-x="1093" 
d="M936 1016l-39 20q88 188 88 391l23 31q35 4 94 -16t86 -49q-16 -104 -95 -214t-157 -163zM250 1376l12 58h549l-12 -58q-104 -37 -207 -49l-258 -1225h477l188 328h50q-16 -223 -70 -430h-1020l10 57q80 33 181 49l258 1221q-95 16 -158 49z" />
    <glyph glyph-name="lcaron" unicode="&#x13e;" horiz-adv-x="563" 
d="M608 1094l-39 20q129 229 129 391l23 31q31 4 84 -11t76 -34q-17 -103 -99 -211t-174 -186zM414 61q-94 -73 -205 -73t-111 95q0 46 23 159l239 1159l-145 16v49q164 70 291 74l41 -22l-285 -1407h152v-50z" />
    <glyph glyph-name="Ldot" unicode="&#x13f;" horiz-adv-x="1093" 
d="M788 791q0 59 38 95t98 36t99 -36q38 -36 38 -95t-38 -95t-98 -37q-60 0 -99 36q-38 37 -38 96zM250 1376l12 58h549l-12 -58q-104 -37 -207 -49l-258 -1225h477l188 328h50q-16 -223 -70 -430h-1020l10 57q80 33 181 49l258 1221q-95 16 -158 49z" />
    <glyph glyph-name="ldot" unicode="&#x140;" horiz-adv-x="724" 
d="M535 729q0 59 37 95q38 36 98 36t99 -36q38 -36 38 -95t-38 -95t-98 -36t-99 36q-37 36 -37 95zM414 61q-94 -73 -205 -73t-111 95q0 46 23 159l239 1159l-145 16v49q164 70 291 74l41 -22l-285 -1407h152v-50z" />
    <glyph glyph-name="Lslash" unicode="&#x141;" horiz-adv-x="1093" 
d="M250 1376l12 58h549l-12 -58q-104 -37 -207 -49l-113 -530l318 174l-27 -131l-317 -174l-119 -564h477l188 328h50q-16 -223 -70 -430h-1020l10 57q80 33 181 49l94 447l-221 -121l28 131l219 121l138 643q-95 16 -158 49z" />
    <glyph glyph-name="lslash" unicode="&#x142;" horiz-adv-x="604" 
d="M428 61q-94 -73 -205 -73t-111 95q0 46 23 159l72 352l-207 -121l27 131l206 121l142 676l-146 16v49q164 70 291 74l41 -22l-139 -682l215 125l-27 -132l-215 -124l-119 -594h152v-50z" />
    <glyph glyph-name="Nacute" unicode="&#x143;" horiz-adv-x="1472" 
d="M768 1575l301 254q35 4 101 -18t90 -48v-41l-459 -186zM1190 1376l12 58h430l-12 -58q-76 -53 -184 -80l-281 -1321h-104l-514 1139l-43 160h-7l-20 -160l-209 -985q86 -29 139 -72l-10 -57h-428l10 57q88 53 185 72l249 1180q-80 31 -139 69l10 56h330l445 -988l61 -176
h8l33 176l178 850q-80 35 -139 80z" />
    <glyph glyph-name="nacute" unicode="&#x144;" horiz-adv-x="1122" 
d="M616 1217l263 356q33 4 95 -11t85 -34v-39l-402 -307zM991 61q-93 -73 -199 -73t-106 82q0 37 31 172l74 342q37 168 37 223q-1 119 -93 119q-71 0 -153 -81q-133 -130 -224 -329l-106 -516h-160l180 909l-125 17l5 49q143 74 266 74l41 -25l-80 -369h10q84 174 200 284
t238 110q82 -1 123 -53t41 -141t-35 -237l-116 -507h151v-50z" />
    <glyph glyph-name="Ncommaaccent" unicode="&#x145;" horiz-adv-x="1472" 
d="M758 -244q0 -114 -104 -200t-263 -109l-29 70q168 45 189 168q-49 53 -107 71q-2 54 56 100t102 48q66 -6 111 -46t45 -102zM1190 1376l12 58h430l-12 -58q-76 -53 -184 -80l-281 -1321h-104l-514 1139l-43 160h-7l-20 -160l-209 -985q86 -29 139 -72l-10 -57h-428l10 57
q88 53 185 72l249 1180q-80 31 -139 69l10 56h330l445 -988l61 -176h8l33 176l178 850q-80 35 -139 80z" />
    <glyph glyph-name="ncommaaccent" unicode="&#x146;" horiz-adv-x="1122" 
d="M254 -530l-23 59q162 45 177 166q-37 47 -103 67q-2 52 49 96t95 46q59 -6 93 -43t33 -99q0 -106 -91 -188t-230 -104zM991 61q-93 -73 -199 -73t-106 82q0 37 31 172l74 342q37 168 37 223q-1 119 -93 119q-71 0 -153 -81q-133 -130 -224 -329l-106 -516h-160l180 909
l-125 17l5 49q143 74 266 74l41 -25l-80 -369h10q84 174 200 284t238 110q82 -1 123 -53t41 -141t-35 -237l-116 -507h151v-50z" />
    <glyph glyph-name="Ncaron" unicode="&#x147;" horiz-adv-x="1472" 
d="M952 1548q-14 0 -22 6l-174 224q23 39 49 39l182 -113l281 113q33 0 49 -33l-342 -230q-9 -6 -23 -6zM1190 1376l12 58h430l-12 -58q-76 -53 -184 -80l-281 -1321h-104l-514 1139l-43 160h-7l-20 -160l-209 -985q86 -29 139 -72l-10 -57h-428l10 57q88 53 185 72
l249 1180q-80 31 -139 69l10 56h330l445 -988l61 -176h8l33 176l178 850q-80 35 -139 80z" />
    <glyph glyph-name="ncaron" unicode="&#x148;" horiz-adv-x="1122" 
d="M698 1411l267 221q39 0 55 -30l-334 -381q-23 -14 -45 0l-166 378q18 33 68 33zM991 61q-93 -73 -199 -73t-106 82q0 37 31 172l74 342q37 168 37 223q-1 119 -93 119q-71 0 -153 -81q-133 -130 -224 -329l-106 -516h-160l180 909l-125 17l5 49q143 74 266 74l41 -25
l-80 -369h10q84 174 200 284t238 110q82 -1 123 -53t41 -141t-35 -237l-116 -507h151v-50z" />
    <glyph glyph-name="napostrophe" unicode="&#x149;" horiz-adv-x="1218" 
d="M213 1292q-1 -122 -103 -236q-102 -112 -233 -151l-27 60q74 27 128 93t63 140q-27 29 -109 64q-2 59 54 113t98 57q129 -18 129 -140zM924 807q0 55 -24 87t-69 32q-71 0 -153 -81q-131 -128 -223 -329l-107 -516h-160l181 909l-125 17l4 49q143 74 266 74l41 -25
l-80 -369h10q84 174 200 284t239 110q82 -1 123 -53t41 -141t-35 -237l-117 -507h151v-50q-94 -74 -202 -73q-53 0 -78 22t-25 60q0 37 31 172l74 342q37 168 37 223z" />
    <glyph glyph-name="Eng" unicode="&#x14a;" horiz-adv-x="1492" 
d="M1014 2l-475 1112l-43 160h-7l-16 -160l-209 -985q86 -29 139 -72l-10 -57h-434l10 57q88 51 185 72l249 1180q-80 31 -139 69l10 56h336l437 -1016l57 -176h8l27 176l186 878q-82 37 -139 80l12 58h434l-12 -58q-82 -51 -184 -80l-281 -1321q-56 -250 -170 -333
q-59 -42 -124 -58t-161 -16l-2 51q123 29 199 109t117 274z" />
    <glyph glyph-name="eng" unicode="&#x14b;" horiz-adv-x="1089" 
d="M827 1049q82 -1 123 -53t41 -126t-35 -252l-116 -542q-59 -264 -185 -383q-102 -98 -198 -127l-23 43q76 49 130 140t76 163t46 184l105 488q37 168 37 223q-1 119 -93 119q-129 0 -289 -248q-53 -84 -88 -162l-106 -516h-160l180 909l-125 17l5 49q143 74 266 74l41 -25
l-80 -369h10q84 174 200 284t238 110z" />
    <glyph glyph-name="Omacron" unicode="&#x14c;" horiz-adv-x="1490" 
d="M1276 1616h-612l20 102h612zM342 573q0 -225 114 -360t272 -135t266 74t165 196q111 237 111 533q0 215 -100 345t-279 130q-137 0 -247 -73q-192 -127 -269 -440q-33 -135 -33 -270zM137 571q0 381 222 634t587 253q146 0 252 -48t164 -133q112 -163 113 -394
q0 -348 -186 -618q-91 -132 -243 -211t-344 -79q-279 0 -422 169t-143 427z" />
    <glyph glyph-name="omacron" unicode="&#x14d;" horiz-adv-x="1034" 
d="M909 1309h-510l21 102h510zM772 674q0 290 -182 289q-92 1 -162 -61q-114 -100 -154 -363q-14 -98 -14 -211t55 -190t147 -77q92 1 165 95q74 94 109 235q36 141 36 283zM948 662q0 -279 -148 -483t-376 -204q-158 -1 -248 103t-90 320t135 423q67 99 175 163t239 65
q313 0 313 -387z" />
    <glyph glyph-name="Obreve" unicode="&#x14e;" horiz-adv-x="1490" 
d="M969 1554q-215 0 -250 230q27 37 84 28q16 -48 69 -82t115 -36q181 -3 279 112q31 4 63 -26q-33 -76 -149 -151t-211 -75zM342 573q0 -225 114 -360t272 -135t266 74t165 196q111 237 111 533q0 215 -100 345t-279 130q-137 0 -247 -73q-192 -127 -269 -440
q-33 -135 -33 -270zM137 571q0 381 222 634t587 253q146 0 252 -48t164 -133q112 -163 113 -394q0 -348 -186 -618q-91 -132 -243 -211t-344 -79q-279 0 -422 169t-143 427z" />
    <glyph glyph-name="obreve" unicode="&#x14f;" horiz-adv-x="1034" 
d="M663 1227q-99 0 -161 68q-61 69 -72 182l55 24q21 -53 73 -93q105 -80 259 -10q76 34 115 95l47 -20q-37 -96 -127 -171t-189 -75zM772 674q0 290 -182 289q-92 1 -162 -61q-114 -100 -154 -363q-14 -98 -14 -211t55 -190t147 -77q92 1 165 95q74 94 109 235
q36 141 36 283zM948 662q0 -279 -148 -483t-376 -204q-158 -1 -248 103t-90 320t135 423q67 99 175 163t239 65q313 0 313 -387z" />
    <glyph glyph-name="Ohungarumlaut" unicode="&#x150;" horiz-adv-x="1490" 
d="M942 1587l236 232q31 5 90 -13t78 -41l-3 -20l-362 -195zM684 1591l143 228q29 5 87 -11t71 -36v-29l-266 -189zM342 573q0 -225 114 -360t272 -135t266 74t165 196q111 237 111 533q0 215 -100 345t-279 130q-137 0 -247 -73q-192 -127 -269 -440q-33 -135 -33 -270z
M137 571q0 381 222 634t587 253q146 0 252 -48t164 -133q112 -163 113 -394q0 -348 -186 -618q-91 -132 -243 -211t-344 -79q-279 0 -422 169t-143 427z" />
    <glyph glyph-name="ohungarumlaut" unicode="&#x151;" horiz-adv-x="1034" 
d="M686 1264l272 309q32 4 90 -13t78 -44v-25l-405 -262zM449 1260l159 313q29 4 91 -11t75 -32v-29l-282 -272zM772 674q0 290 -182 289q-92 1 -162 -61q-114 -100 -154 -363q-14 -98 -14 -211t55 -190t147 -77q92 1 165 95q74 94 109 235q36 141 36 283zM948 662
q0 -279 -148 -483t-376 -204q-158 -1 -248 103t-90 320t135 423q67 99 175 163t239 65q313 0 313 -387z" />
    <glyph glyph-name="OE" unicode="&#x152;" horiz-adv-x="1929" 
d="M926 1356q-266 0 -425 -239t-159 -605q0 -168 67 -289q77 -145 291 -145q112 0 215 39l252 1190q-109 49 -241 49zM692 -25q-276 1 -416 141t-139 415q0 275 119 507q133 260 387 364q139 56 289 56t262 -24h791q-47 -209 -91 -328h-49l-35 225h-454l-115 -549h342
l111 152h49q-31 -199 -86 -410h-49l-47 156h-342l-123 -578h479l151 246h50q-15 -196 -54 -348h-827q-129 -25 -203 -25z" />
    <glyph glyph-name="oe" unicode="&#x153;" horiz-adv-x="1585" 
d="M1245 963q-201 0 -299 -363q203 6 316 70t112 174q0 119 -129 119zM424 -25q-158 -1 -248 103t-90 320t135 423q67 99 175 163t224 64t192 -48q77 -48 103 -134q158 182 394 183q102 -1 169 -53t66 -144q0 -150 -146 -232t-466 -106q-14 -66 -14 -133q0 -129 64 -206
t180 -77t261 117l31 -37q-39 -84 -137 -143t-221 -59t-202 50q-79 52 -112 130q-70 -94 -169 -138t-189 -43zM772 674q0 290 -182 289q-92 1 -162 -61q-114 -100 -154 -363q-14 -98 -14 -211t55 -190t147 -77q92 1 165 95q74 94 109 235q36 141 36 283z" />
    <glyph glyph-name="Racute" unicode="&#x154;" horiz-adv-x="1269" 
d="M666 1575l301 254q35 4 101 -18t89 -48v-41l-459 -186zM739 1348q-70 0 -147 -13l-129 -616h149q207 0 302 119t98 297q2 109 -64 161t-209 52zM1200 1116q0 -162 -106 -287t-289 -170q96 -231 274 -550l99 -60l-11 -49h-223l-67 57q-156 266 -230 580h-201l-112 -531
q92 -16 164 -49l-11 -57h-528l10 57q74 31 181 49l258 1221q-100 23 -158 49l12 58h176l365 16q197 0 297 -86t100 -248z" />
    <glyph glyph-name="racute" unicode="&#x155;" horiz-adv-x="778" 
d="M463 1217l262 356q33 4 95 -11t85 -34v-39l-401 -307zM750 1049q59 0 102 -25q0 -36 -22 -102t-48 -95l-159 80q-59 -25 -127 -113t-119 -227l-121 -567h-164l191 909l-125 17v49q125 57 270 74l41 -25l-59 -274h8q61 137 149 218t183 81z" />
    <glyph glyph-name="Rcommaaccent" unicode="&#x156;" horiz-adv-x="1269" 
d="M698 -244q0 -114 -104 -200t-262 -109l-29 70q168 45 189 168q-49 53 -107 71q-2 54 55 100t103 48q67 -6 111 -46t44 -102zM739 1348q-70 0 -147 -13l-129 -616h149q207 0 302 119t98 297q2 109 -64 161t-209 52zM1200 1116q0 -162 -106 -287t-289 -170
q96 -231 274 -550l99 -60l-11 -49h-223l-67 57q-156 266 -230 580h-201l-112 -531q92 -16 164 -49l-11 -57h-528l10 57q74 31 181 49l258 1221q-100 23 -158 49l12 58h176l365 16q197 0 297 -86t100 -248z" />
    <glyph glyph-name="rcommaaccent" unicode="&#x157;" horiz-adv-x="778" 
d="M350 -238q0 -106 -91 -188t-230 -104l-23 59q162 45 176 166q-37 47 -102 67q-2 52 49 96t94 46q59 -6 93 -43t34 -99zM750 1049q59 0 102 -25q0 -36 -22 -102t-48 -95l-159 80q-59 -25 -127 -113t-119 -227l-121 -567h-164l191 909l-125 17v49q125 57 270 74l41 -25
l-59 -274h8q61 137 149 218t183 81z" />
    <glyph glyph-name="Rcaron" unicode="&#x158;" horiz-adv-x="1269" 
d="M764 1548q-14 0 -23 6l-174 224q23 39 49 39l183 -113l280 113q33 0 49 -33l-342 -230q-8 -6 -22 -6zM739 1348q-70 0 -147 -13l-129 -616h149q207 0 302 119t98 297q2 109 -64 161t-209 52zM1200 1116q0 -162 -106 -287t-289 -170q96 -231 274 -550l99 -60l-11 -49h-223
l-67 57q-156 266 -230 580h-201l-112 -531q92 -16 164 -49l-11 -57h-528l10 57q74 31 181 49l258 1221q-100 23 -158 49l12 58h176l365 16q197 0 297 -86t100 -248z" />
    <glyph glyph-name="rcaron" unicode="&#x159;" horiz-adv-x="778" 
d="M580 1411l266 221q39 0 55 -30l-334 -381q-23 -14 -45 0l-166 378q18 33 68 33zM750 1049q59 0 102 -25q0 -36 -22 -102t-48 -95l-159 80q-59 -25 -127 -113t-119 -227l-121 -567h-164l191 909l-125 17v49q125 57 270 74l41 -25l-59 -274h8q61 137 149 218t183 81z" />
    <glyph glyph-name="Sacute" unicode="&#x15a;" horiz-adv-x="1073" 
d="M608 1575l301 254q35 4 102 -18t89 -48v-41l-459 -186zM454 78q76 0 153 22t133 84t56 158t-54 167q-56 71 -134 118l-157 96q-78 49 -134 129q-55 80 -55 188q0 188 133 303t379 115t371 -67q-37 -145 -123 -349h-49l-23 281q-68 33 -205 33t-221 -62t-84 -184
q0 -78 40 -138t100 -98l129 -81q68 -45 127 -91t99 -124t40 -179q-1 -193 -147 -309t-402 -115q-121 0 -227 30t-152 67q35 160 127 368h49l21 -301q25 -23 79 -42q55 -19 131 -19z" />
    <glyph glyph-name="sacute" unicode="&#x15b;" horiz-adv-x="851" 
d="M475 1217l262 356q33 4 95 -11t86 -34v-39l-402 -307zM172 750q0 145 104 222t262 77t253 -52q-2 -47 -31 -108t-62 -80l-151 154q-207 0 -207 -162q0 -104 127 -193q53 -37 106 -78q129 -100 128 -244t-122 -228q-122 -83 -297 -83t-266 60q2 6 8 30q5 25 7 31t7 26
t15 44q10 25 45 61l183 -166q97 -1 171 47t74 138t-126 180q-52 37 -103 78q-125 101 -125 246z" />
    <glyph glyph-name="Scircumflex" unicode="&#x15c;" horiz-adv-x="1073" 
d="M844 1659l-303 -117l-27 37l342 229q8 6 22 6t23 -6l174 -223l-26 -41zM454 78q76 0 153 22t133 84t56 158t-54 167q-56 71 -134 118l-157 96q-78 49 -134 129q-55 80 -55 188q0 188 133 303t379 115t371 -67q-37 -145 -123 -349h-49l-23 281q-68 33 -205 33t-221 -62
t-84 -184q0 -78 40 -138t100 -98l129 -81q68 -45 127 -91t99 -124t40 -179q-1 -193 -147 -309t-402 -115q-121 0 -227 30t-152 67q35 160 127 368h49l21 -301q25 -23 79 -42q55 -19 131 -19z" />
    <glyph glyph-name="scircumflex" unicode="&#x15d;" horiz-adv-x="851" 
d="M643 1630q12 0 23 -6l151 -379l-53 -33l-160 222l-235 -222l-56 31l308 381q10 6 22 6zM172 750q0 145 104 222t262 77t253 -52q-2 -47 -31 -108t-62 -80l-151 154q-207 0 -207 -162q0 -104 127 -193q53 -37 106 -78q129 -100 128 -244t-122 -228q-122 -83 -297 -83
t-266 60q2 6 8 30q5 25 7 31t7 26t15 44q10 25 45 61l183 -166q97 -1 171 47t74 138t-126 180q-52 37 -103 78q-125 101 -125 246z" />
    <glyph glyph-name="Scedilla" unicode="&#x15e;" horiz-adv-x="1073" 
d="M454 78q76 0 153 22t133 84t56 158t-54 167q-56 71 -134 118l-157 96q-78 49 -134 129q-55 80 -55 188q0 188 133 303t379 115t371 -67q-37 -145 -123 -349h-49l-23 281q-68 33 -205 33t-221 -62t-84 -184q0 -78 40 -138t100 -98l129 -81q68 -45 127 -91t99 -124t40 -179
q0 -184 -134 -299t-372 -123l-76 -131q105 -2 145 -41t40 -108q0 -117 -132 -183t-272 -67v64q98 14 167 52t67 95t-31 79t-115 27l109 213q-105 6 -195 34t-129 61q35 160 127 368h49l21 -301q25 -23 79 -42q55 -19 131 -19z" />
    <glyph glyph-name="scedilla" unicode="&#x15f;" horiz-adv-x="851" 
d="M172 750q0 145 104 222t262 77t253 -52q-2 -47 -31 -108t-62 -80l-151 154q-207 0 -207 -162q0 -104 127 -193q53 -37 106 -78q129 -100 128 -236t-100 -217t-253 -97l-67 -119q154 -6 159 -133q2 -80 -61 -138t-147 -83q-84 -24 -160 -19v59q90 13 153 49t61 84t-27 74
q-26 26 -101 33l100 188q-162 6 -242 60q2 6 8 30q5 25 7 31t7 26t15 44q10 25 45 61l183 -166q97 -1 171 47t74 138t-126 180q-52 37 -103 78q-125 101 -125 246z" />
    <glyph glyph-name="Scaron" unicode="&#x160;" horiz-adv-x="1073" 
d="M784 1548q-14 0 -22 6l-174 224q23 39 49 39l182 -113l281 113q33 0 49 -33l-342 -230q-9 -6 -23 -6zM454 78q76 0 153 22t133 84t56 158t-54 167q-56 71 -134 118l-157 96q-78 49 -134 129q-55 80 -55 188q0 188 133 303t379 115t371 -67q-37 -145 -123 -349h-49
l-23 281q-68 33 -205 33t-221 -62t-84 -184q0 -78 40 -138t100 -98l129 -81q68 -45 127 -91t99 -124t40 -179q-1 -193 -147 -309t-402 -115q-121 0 -227 30t-152 67q35 160 127 368h49l21 -301q25 -23 79 -42q55 -19 131 -19z" />
    <glyph glyph-name="scaron" unicode="&#x161;" horiz-adv-x="851" 
d="M557 1411l266 221q41 0 56 -30l-334 -381q-9 -7 -23 -7t-22 7l-166 378q18 33 67 33zM172 750q0 145 104 222t262 77t253 -52q-2 -47 -31 -108t-62 -80l-151 154q-207 0 -207 -162q0 -104 127 -193q53 -37 106 -78q129 -100 128 -244t-122 -228q-122 -83 -297 -83
t-266 60q2 6 8 30q5 25 7 31t7 26t15 44q10 25 45 61l183 -166q97 -1 171 47t74 138t-126 180q-52 37 -103 78q-125 101 -125 246z" />
    <glyph glyph-name="Tcedilla" unicode="&#x162;" horiz-adv-x="1236" 
d="M666 -303q0 -117 -131 -183t-273 -67v64q98 14 167 52t67 95t-31 79t-115 27l121 236h-225l10 57q90 35 201 49l260 1225h-322l-166 -287h-49q14 180 62 390h1175q-37 -195 -102 -390h-49l-43 287h-322l-260 -1225q121 -22 176 -49l-10 -57h-236l-90 -154q105 -2 145 -41
t40 -108z" />
    <glyph glyph-name="tcedilla" unicode="&#x163;" horiz-adv-x="684" 
d="M285 196q1 -46 29 -72t69 -26q86 0 221 66l21 -35q-33 -47 -115 -91t-162 -58l-67 -119q154 -6 159 -133q2 -80 -61 -138t-147 -83q-84 -24 -160 -19v59q90 13 153 49t61 84t-27 74q-26 26 -101 33l100 190q-145 20 -145 164q0 51 16 129l137 656h-155l2 49q80 45 178 69
l33 156q43 35 133 74l43 -25l-49 -225h256q8 -57 -21 -98h-256l-129 -602q-16 -82 -16 -128z" />
    <glyph glyph-name="Tcaron" unicode="&#x164;" horiz-adv-x="1236" 
d="M847 1548q-13 0 -22 6l-174 224q23 39 49 39l183 -113l280 113q33 0 49 -33l-342 -230q-10 -6 -23 -6zM817 57l-10 -57h-561l10 57q90 35 201 49l260 1225h-322l-166 -287h-49q14 180 62 390h1175q-37 -195 -102 -390h-49l-43 287h-322l-260 -1225q121 -22 176 -49z" />
    <glyph glyph-name="tcaron" unicode="&#x165;" horiz-adv-x="684" 
d="M588 1094l-39 20q129 229 129 391l22 31q31 4 84 -11t76 -34q-16 -103 -98 -211t-174 -186zM285 196q1 -46 29 -72t69 -26q86 0 221 66l21 -35q-39 -55 -139 -104t-183 -50q-190 0 -190 166q0 51 16 129l137 656h-155l2 49q80 45 178 69l33 156q43 35 133 74l43 -25
l-49 -225h256q8 -57 -21 -98h-256l-129 -602q-16 -82 -16 -128z" />
    <glyph glyph-name="Tbar" unicode="&#x166;" horiz-adv-x="1290" 
d="M201 735l20 103h422l107 493h-322l-166 -287h-49q8 113 61 390h1176q-47 -223 -102 -390h-50l-43 287h-321l-107 -493h422l-20 -103h-422l-133 -629q121 -23 176 -49l-10 -57h-561l10 57q123 39 200 49l134 629h-422z" />
    <glyph glyph-name="tbar" unicode="&#x167;" horiz-adv-x="684" 
d="M285 196q1 -46 29 -72t69 -26q86 0 221 66l21 -35q-39 -55 -139 -104t-183 -50q-190 0 -190 166q0 51 16 129l51 246h-127l23 102h125l65 308h-155l2 49q80 45 178 69l33 156q43 35 133 74l43 -25l-49 -225h256q8 -57 -21 -98h-256l-68 -308h273l-23 -102h-270l-41 -192
q-16 -82 -16 -128z" />
    <glyph glyph-name="Utilde" unicode="&#x168;" horiz-adv-x="1353" 
d="M1194 1698q49 0 106 41l25 -56q-115 -113 -223 -112q-53 0 -139 35q-86 34 -136 34t-110 -51l-37 56q131 119 246 118q51 -1 135 -33t133 -32zM264 1376l12 58h508l-12 -58q-72 -31 -166 -49l-174 -819q-45 -209 33 -309q78 -101 251 -101t273 94t141 291l175 824
q-88 31 -146 69l12 58h431l-13 -58q-63 -43 -174 -69l-176 -828q-55 -260 -197 -379q-142 -118 -386 -118q-242 0 -351 141t-61 369l178 835q-97 18 -158 49z" />
    <glyph glyph-name="utilde" unicode="&#x169;" horiz-adv-x="1099" 
d="M515 1333q-48 0 -105 -51l-37 55q129 119 239 119q51 0 129 -33q79 -33 127 -33t105 42l24 -56q-115 -113 -219 -112q-51 0 -133 34t-130 35zM985 111v-50q-94 -74 -203 -73q-53 0 -81 24t-27 54q0 135 57 344h-8q-197 -434 -444 -435q-72 1 -120 53t-48 156t135 725
l-125 17v49q176 66 270 74l45 -25q-14 -66 -88 -382t-74 -445q0 -43 24 -71t56 -28q66 0 136 58t122 143q106 172 144 272l88 453h157l-167 -913h151z" />
    <glyph glyph-name="Umacron" unicode="&#x16a;" horiz-adv-x="1353" 
d="M1284 1616h-612l20 102h613zM264 1376l12 58h508l-12 -58q-72 -31 -166 -49l-174 -819q-45 -209 33 -309q78 -101 251 -101t273 94t141 291l175 824q-88 31 -146 69l12 58h431l-13 -58q-63 -43 -174 -69l-176 -828q-55 -260 -197 -379q-142 -118 -386 -118
q-242 0 -351 141t-61 369l178 835q-97 18 -158 49z" />
    <glyph glyph-name="umacron" unicode="&#x16b;" horiz-adv-x="1099" 
d="M950 1309h-510l21 102h510zM985 111v-50q-94 -74 -203 -73q-53 0 -81 24t-27 54q0 135 57 344h-8q-197 -434 -444 -435q-72 1 -120 53t-48 156t135 725l-125 17v49q176 66 270 74l45 -25q-14 -66 -88 -382t-74 -445q0 -43 24 -71t56 -28q66 0 136 58t122 143
q106 172 144 272l88 453h157l-167 -913h151z" />
    <glyph glyph-name="Ubreve" unicode="&#x16c;" horiz-adv-x="1353" 
d="M969 1554q-215 0 -250 230q27 37 84 28q16 -48 69 -82t115 -36q181 -3 279 112q31 4 63 -26q-33 -76 -149 -151t-211 -75zM264 1376l12 58h508l-12 -58q-72 -31 -166 -49l-174 -819q-45 -209 33 -309q78 -101 251 -101t273 94t141 291l175 824q-88 31 -146 69l12 58h431
l-13 -58q-63 -43 -174 -69l-176 -828q-55 -260 -197 -379q-142 -118 -386 -118q-242 0 -351 141t-61 369l178 835q-97 18 -158 49z" />
    <glyph glyph-name="ubreve" unicode="&#x16d;" horiz-adv-x="1099" 
d="M681 1227q-99 0 -161 68q-61 69 -71 182l55 24q20 -53 72 -93q104 -79 260 -10q75 34 114 95l47 -20q-37 -96 -127 -171t-189 -75zM985 111v-50q-94 -74 -203 -73q-53 0 -81 24t-27 54q0 135 57 344h-8q-197 -434 -444 -435q-72 1 -120 53t-48 156t135 725l-125 17v49
q176 66 270 74l45 -25q-14 -66 -88 -382t-74 -445q0 -43 24 -71t56 -28q66 0 136 58t122 143q106 172 144 272l88 453h157l-167 -913h151z" />
    <glyph glyph-name="Uring" unicode="&#x16e;" horiz-adv-x="1353" 
d="M881 1599q0 -66 92 -65q61 0 101 29t40 69q0 74 -94 74q-59 0 -99 -30t-40 -77zM967 1452q-195 0 -195 147q0 77 80 133t188 56q182 0 183 -148q0 -78 -78 -133t-178 -55zM264 1376l12 58h508l-12 -58q-72 -31 -166 -49l-174 -819q-45 -209 33 -309q78 -101 251 -101
t273 94t141 291l175 824q-88 31 -146 69l12 58h431l-13 -58q-63 -43 -174 -69l-176 -828q-55 -260 -197 -379q-142 -118 -386 -118q-242 0 -351 141t-61 369l178 835q-97 18 -158 49z" />
    <glyph glyph-name="uring" unicode="&#x16f;" horiz-adv-x="1099" 
d="M797 1447q-1 69 -61 69t-92 -44t-32 -90q0 -45 20 -64q20 -20 57 -20q36 0 72 40t36 109zM899 1430q1 -84 -65 -149t-150 -65t-129 40t-45 123t64 151q65 68 153 68t130 -43q42 -41 42 -125zM985 111v-50q-94 -74 -203 -73q-53 0 -81 24t-27 54q0 135 57 344h-8
q-197 -434 -444 -435q-72 1 -120 53t-48 156t135 725l-125 17v49q176 66 270 74l45 -25q-14 -66 -88 -382t-74 -445q0 -43 24 -71t56 -28q66 0 136 58t122 143q106 172 144 272l88 453h157l-167 -913h151z" />
    <glyph glyph-name="Uhungarumlaut" unicode="&#x170;" horiz-adv-x="1353" 
d="M1004 1587l235 232q31 5 90 -13t78 -41l-2 -20l-363 -195zM745 1591l144 228q29 5 87 -11t71 -36v-29l-267 -189zM264 1376l12 58h508l-12 -58q-72 -31 -166 -49l-174 -819q-45 -209 33 -309q78 -101 251 -101t273 94t141 291l175 824q-88 31 -146 69l12 58h431l-13 -58
q-63 -43 -174 -69l-176 -828q-55 -260 -197 -379q-142 -118 -386 -118q-242 0 -351 141t-61 369l178 835q-97 18 -158 49z" />
    <glyph glyph-name="uhungarumlaut" unicode="&#x171;" horiz-adv-x="1099" 
d="M707 1264l272 309q33 4 90 -13t78 -44v-25l-406 -262zM469 1260l160 313q29 4 91 -11t75 -32v-29l-283 -272zM985 111v-50q-94 -74 -203 -73q-53 0 -81 24t-27 54q0 135 57 344h-8q-197 -434 -444 -435q-72 1 -120 53t-48 156t135 725l-125 17v49q176 66 270 74l45 -25
q-14 -66 -88 -382t-74 -445q0 -43 24 -71t56 -28q66 0 136 58t122 143q106 172 144 272l88 453h157l-167 -913h151z" />
    <glyph glyph-name="Uogonek" unicode="&#x172;" horiz-adv-x="1353" 
d="M764 -410q66 0 115 13v-58q-75 -57 -177 -57t-170 56t-67 145q0 170 242 295l-35 -2q-258 0 -367 141t-61 369l178 835q-97 18 -158 49l12 58h508l-12 -58q-72 -31 -166 -49l-174 -819q-45 -209 33 -309q78 -101 251 -101t273 94t141 291l175 824q-88 31 -146 69l12 58
h431l-13 -58q-63 -43 -174 -69l-176 -828q-82 -387 -369 -471q-248 -119 -247 -284q0 -57 37 -96q38 -38 104 -38z" />
    <glyph glyph-name="uogonek" unicode="&#x173;" horiz-adv-x="1099" 
d="M985 111v-50q-45 -35 -96 -53q-74 -40 -129 -106t-55 -144q0 -125 126 -125q18 0 84 19v-64q-72 -41 -151 -41q-221 0 -221 179q0 166 223 262q-45 4 -69 26t-23 52q0 135 57 344h-8q-197 -434 -444 -435q-72 1 -120 53t-48 156t135 725l-125 17v49q176 66 270 74l45 -25
q-14 -66 -88 -382t-74 -445q0 -43 24 -71t56 -28q66 0 136 58t122 143q106 172 144 272l88 453h157l-167 -913h151z" />
    <glyph glyph-name="Wcircumflex" unicode="&#x174;" horiz-adv-x="1871" 
d="M1243 1659l-303 -117l-27 37l342 229q24 15 45 0l175 -223l-27 -41zM1432 492l370 835q-115 20 -166 49l13 58h444l-12 -58q-55 -29 -158 -49l-620 -1327l-123 -25l-93 1129l-559 -1104l-116 -25l-72 1352q-76 14 -145 49l12 58h514l-12 -58q-86 -33 -179 -49l27 -842
l-6 -266h4l125 270l479 945h66l84 -947l10 -266h4z" />
    <glyph glyph-name="wcircumflex" unicode="&#x175;" horiz-adv-x="1390" 
d="M899 1630q14 0 23 -6l151 -379l-53 -33l-160 222l-235 -222l-56 31l308 381q8 6 22 6zM1300 1049q60 0 107 -25q-63 -250 -197 -519t-313 -505l-82 -25l-86 588v170h-6l-361 -733l-100 -25l-98 934l-131 17v49q31 23 93 49t110 25q86 0 94 -76l55 -654l-8 -147h4l61 150
l338 679l60 23l92 -705l2 -147h4l53 131q143 233 228 477q-2 43 -16 130q-13 87 -21 114q58 25 118 25z" />
    <glyph glyph-name="Ycircumflex" unicode="&#x176;" horiz-adv-x="1286" 
d="M942 1659l-303 -117l-27 37l342 229q8 6 22 6t23 -6l175 -223l-27 -41zM1044 1376l13 58h450l-12 -58q-72 -35 -166 -49l-538 -717l-107 -504q76 -10 143 -49l-10 -57h-508l10 57q82 37 181 49l106 502l-262 719q-82 14 -156 49l13 58h528l-12 -58q-84 -31 -168 -49
l209 -608l440 608q-76 14 -154 49z" />
    <glyph glyph-name="ycircumflex" unicode="&#x177;" horiz-adv-x="923" 
d="M684 1630q12 0 23 -6l151 -379l-53 -33l-160 222l-235 -222l-56 31l308 381q10 6 22 6zM260 1049q70 0 88 -76l172 -727l6 -123h4l48 121q141 315 202 536q-2 43 -15 130t-22 114q59 25 119 25t107 -25q-100 -399 -416 -1024q-113 -221 -222 -325q-110 -103 -245 -103
q-45 0 -113 31q-4 49 25 108t78 88l168 -84q110 72 182 285l-238 909l-131 17v49q31 23 93 49t110 25z" />
    <glyph glyph-name="Ydieresis" unicode="&#x178;" horiz-adv-x="1286" 
d="M1012 1616q0 45 30 70q31 24 80 24t80 -24t31 -70q0 -45 -31 -70q-31 -24 -80 -24t-80 24q-30 25 -30 70zM561 1616q0 45 31 70q31 24 80 24t80 -24q30 -24 30 -70q0 -45 -30 -70q-30 -24 -80 -24q-49 0 -80 24t-31 70zM1044 1376l13 58h450l-12 -58q-72 -35 -166 -49
l-538 -717l-107 -504q76 -10 143 -49l-10 -57h-508l10 57q82 37 181 49l106 502l-262 719q-82 14 -156 49l13 58h528l-12 -58q-84 -31 -168 -49l209 -608l440 608q-76 14 -154 49z" />
    <glyph glyph-name="Zacute" unicode="&#x179;" horiz-adv-x="1228" 
d="M727 1575l301 254q36 4 102 -18t89 -48v-41l-459 -186zM10 0v102l1086 1229h-611l-186 -287h-49q14 180 61 390h1014v-103l-1083 -1229h653l186 287h49q-14 -197 -61 -389h-1059z" />
    <glyph glyph-name="zacute" unicode="&#x17a;" horiz-adv-x="886" 
d="M489 1217l263 356q33 4 95 -11t85 -34v-39l-402 -307zM260 1051q43 0 224 -23t321 -31l45 52q68 -12 78 -64l-711 -786q262 -47 455 -152l116 135l48 -28l-70 -201q-20 -72 -100 -72q-44 0 -234 88t-323 109l-82 -90q-74 16 -76 65l741 821q-164 -10 -428 31l-94 -147
l-49 12l29 201q12 80 110 80z" />
    <glyph glyph-name="Zdotaccent" unicode="&#x17b;" horiz-adv-x="1228" 
d="M702 1673q0 51 36 80t90 29t90 -29t34 -80q0 -51 -34 -80t-90 -29q-54 0 -90 30q-36 28 -36 79zM10 0v102l1086 1229h-611l-186 -287h-49q14 180 61 390h1014v-103l-1083 -1229h653l186 287h49q-14 -197 -61 -389h-1059z" />
    <glyph glyph-name="zdotaccent" unicode="&#x17c;" horiz-adv-x="886" 
d="M692 1381q0 -51 -32 -79t-84 -28t-84 28t-31 79q0 50 32 80q31 30 83 30t84 -30t32 -80zM260 1051q43 0 224 -23t321 -31l45 52q68 -12 78 -64l-711 -786q262 -47 455 -152l116 135l48 -28l-70 -201q-20 -72 -100 -72q-44 0 -234 88t-323 109l-82 -90q-74 16 -76 65
l741 821q-164 -10 -428 31l-94 -147l-49 12l29 201q12 80 110 80z" />
    <glyph glyph-name="Zcaron" unicode="&#x17d;" horiz-adv-x="1228" 
d="M805 1548q-14 0 -23 6l-174 224q23 39 49 39l183 -113l280 113q33 0 49 -33l-342 -230q-8 -6 -22 -6zM10 0v102l1086 1229h-611l-186 -287h-49q14 180 61 390h1014v-103l-1083 -1229h653l186 287h49q-14 -197 -61 -389h-1059z" />
    <glyph glyph-name="zcaron" unicode="&#x17e;" horiz-adv-x="886" 
d="M592 1411l266 221q39 0 55 -30l-333 -381q-24 -15 -45 0l-166 378q18 33 67 33zM260 1051q43 0 224 -23t321 -31l45 52q68 -12 78 -64l-711 -786q262 -47 455 -152l116 135l48 -28l-70 -201q-20 -72 -100 -72q-44 0 -234 88t-323 109l-82 -90q-74 16 -76 65l741 821
q-164 -10 -428 31l-94 -147l-49 12l29 201q12 80 110 80z" />
    <glyph glyph-name="longs" unicode="&#x17f;" horiz-adv-x="604" 
d="M119 926v49q72 41 174 67l14 72q51 238 170 332t301 94q86 0 154 -31q-8 -113 -76 -172l-156 125q-61 -16 -93 -36q-31 -20 -69 -91q-38 -72 -67 -209l-172 -1038q-18 -111 -57 -201q-65 -150 -175 -237q-76 -60 -151 -84l-18 43q66 31 136 145t101 295l133 877h-149z
" />
    <glyph glyph-name="uni018F" unicode="&#x18f;" horiz-adv-x="1427" 
d="M680 78q205 0 342 164t182 415h-854q-16 -57 -16 -161q0 -222 87 -320t259 -98zM137 508q0 143 31 252h1051q41 280 -59 438t-351 158q-168 0 -229 -29l-168 -295h-50q4 182 46 344q186 82 430 82q168 0 286 -45t176 -124q111 -149 111 -345q0 -397 -181 -672
q-90 -137 -242 -217t-349 -80t-342 115q-74 59 -117 167t-43 251z" />
    <glyph glyph-name="florin" unicode="&#x192;" 
d="M233 926v49q72 41 175 67l14 72q51 238 170 332t301 94q86 0 154 -31q-8 -113 -76 -172l-156 125q-61 -16 -93 -36t-70 -91q-38 -72 -66 -209l-21 -102h228q10 -47 -21 -98h-227l-131 -838q-18 -111 -58 -201q-66 -151 -175 -237q-75 -59 -150 -84l-15 37q63 31 133 147
t101 299l133 877h-150z" />
    <glyph glyph-name="uni01DD" unicode="&#x1dd;" horiz-adv-x="978" 
d="M404 61q85 0 171 112t125 319q-223 34 -340 -54t-116 -225q0 -152 160 -152zM593 1049q144 1 222 -93t78 -272q0 -301 -156 -505t-407 -204q-109 1 -183 61q-73 60 -73 175t83 211q162 186 558 156q6 16 6 65q0 135 -42 209t-144 74q-73 0 -113 -25l-45 -22
q-18 -10 -41 -31l-33 -33q-11 -7 -31 -31t-24 -28l-43 28q29 98 136 182q108 83 252 83z" />
    <glyph glyph-name="Gcaron" unicode="&#x1e6;" horiz-adv-x="1384" 
d="M986 1548q-14 0 -23 6l-175 224q23 39 50 39l182 -113l280 113q33 0 50 -33l-342 -230q-8 -6 -22 -6zM713 -25q-272 -1 -424 145t-152 408q-1 420 229 675t623 255q256 0 385 -69q-35 -178 -104 -349h-49l-43 295q-74 20 -201 21q-307 0 -471 -230t-164 -589
q0 -139 41 -237t107 -143q119 -79 258 -79q76 0 148 24t103 50l91 417q-80 6 -187 49l12 58h496l-12 -58q-57 -35 -137 -49l-101 -469q-86 -55 -215 -90t-233 -35z" />
    <glyph glyph-name="gcaron" unicode="&#x1e7;" horiz-adv-x="993" 
d="M592 1411l266 221q39 0 55 -30l-333 -381q-24 -15 -45 0l-166 378q18 33 67 33zM299 686q0 -74 49 -114t113 -40q117 0 180 77t63 173q1 190 -149 189q-117 0 -187 -82t-69 -203zM339 -348q132 0 243 76t110 198q0 93 -122 134q-56 19 -111 32l-123 27q-68 12 -103 24
q-172 -127 -172 -295q0 -90 73 -143t205 -53zM147 682q0 158 125 262t293 105q168 0 258 -78q72 59 254 110q15 -14 13 -71t-29 -95l-211 13q18 -55 18 -92q0 -162 -125 -272t-299 -109q-70 0 -104 8q-4 -3 -24 -21q-58 -53 -58 -90q0 -38 62 -62t152 -41q89 -17 178 -42
q90 -25 152 -81t62 -142q0 -182 -190 -300t-436 -118q-174 0 -262 68q-87 69 -87 171q0 184 306 357q-66 39 -66 102q0 86 162 215q-55 15 -99 69t-45 134z" />
    <glyph glyph-name="uni01F4" unicode="&#x1f4;" horiz-adv-x="1384" 
d="M850 1575l301 254q35 4 101 -18t89 -48v-41l-458 -186zM713 -25q-272 -1 -424 145t-152 408q-1 420 229 675t623 255q256 0 385 -69q-35 -178 -104 -349h-49l-43 295q-74 20 -201 21q-307 0 -471 -230t-164 -589q0 -139 41 -237t107 -143q119 -79 258 -79q76 0 148 24
t103 50l91 417q-80 6 -187 49l12 58h496l-12 -58q-57 -35 -137 -49l-101 -469q-86 -55 -215 -90t-233 -35z" />
    <glyph glyph-name="uni01F5" unicode="&#x1f5;" horiz-adv-x="993" 
d="M549 1217l262 356q33 4 95 -11t85 -34v-39l-401 -307zM299 686q0 -74 49 -114t113 -40q117 0 180 77t63 173q1 190 -149 189q-117 0 -187 -82t-69 -203zM339 -348q132 0 243 76t110 198q0 93 -122 134q-56 19 -111 32l-123 27q-68 12 -103 24q-172 -127 -172 -295
q0 -90 73 -143t205 -53zM147 682q0 158 125 262t293 105q168 0 258 -78q72 59 254 110q15 -14 13 -71t-29 -95l-211 13q18 -55 18 -92q0 -162 -125 -272t-299 -109q-70 0 -104 8q-4 -3 -24 -21q-58 -53 -58 -90q0 -38 62 -62t152 -41q89 -17 178 -42q90 -25 152 -81t62 -142
q0 -182 -190 -300t-436 -118q-174 0 -262 68q-87 69 -87 171q0 184 306 357q-66 39 -66 102q0 86 162 215q-55 15 -99 69t-45 134z" />
    <glyph glyph-name="Aringacute" unicode="&#x1fa;" horiz-adv-x="1368" 
d="M817 1599q0 -66 92 -65q61 0 102 29q40 29 40 69q0 74 -95 74q-59 0 -99 -30t-40 -77zM733 1024l-254 -436h412l-68 440l-4 176h-4zM897 1841l301 244q36 1 102 -19t89 -47v-41l-459 -176zM709 1593q0 82 79 139q80 56 189 56q182 0 182 -148q-1 -74 -71 -128t-166 -60
l231 -1346q94 -20 143 -49l-10 -57h-508l10 57q92 35 181 49l-62 379h-485l-221 -379q84 -12 164 -49l-11 -57h-454l10 57q86 35 160 49l804 1346q-165 12 -165 141z" />
    <glyph glyph-name="aringacute" unicode="&#x1fb;" horiz-adv-x="1089" 
d="M584 1575l301 254q35 4 101 -18t89 -48v-41l-459 -186zM618 1300q0 -83 77 -83q36 -1 72 39t36 109q-1 69 -61 69t-92 -44t-32 -90zM734 1516q172 0 171 -168q1 -84 -65 -149t-150 -65t-129 40t-45 123t65 151t153 68zM303 -25q-211 0 -211 310q0 193 70 363t210 283
q140 112 320 111q68 0 154 -36q80 43 162 43l-187 -938h152v-50q-94 -74 -203 -73q-53 0 -81 24t-27 54q0 86 59 344h-8q-61 -172 -170 -304t-240 -131zM381 98q69 0 151 96t132 190q49 95 90 191l65 345q-57 37 -131 36q-123 0 -222 -100q-98 -100 -150 -244t-52 -293
q0 -221 117 -221z" />
    <glyph glyph-name="AEacute" unicode="&#x1fc;" horiz-adv-x="1861" 
d="M1141 1575l301 254q36 4 102 -18t88 -48v-41l-458 -186zM965 1065l-349 -436h340l134 626h-5zM1917 1434q-29 -158 -90 -328h-49l-35 225h-455l-114 -549h342l110 152h49q-33 -244 -86 -410h-49l-47 156h-342l-123 -578h479l152 246h49q-10 -180 -53 -348h-1000l11 57
q84 35 180 49l88 420h-397l-326 -420q84 -12 164 -49l-10 -57h-465l10 57q86 35 160 49l985 1231q-59 12 -111 39l12 58h961z" />
    <glyph glyph-name="aeacute" unicode="&#x1fd;" horiz-adv-x="1503" 
d="M756 1217l262 356q33 4 95 -11t85 -34v-39l-401 -307zM1163 963q-201 0 -299 -363q203 6 316 70t112 174q0 119 -129 119zM326 -25q-109 0 -187 76t-78 197q-1 158 175 253t454 70q37 123 44 205q16 186 -140 186q-82 0 -139 -20l-107 -225h-49q-35 111 -39 233
q186 98 396 98t239 -122q143 123 332 123q102 -1 169 -53t66 -144q0 -150 -146 -232t-466 -106q-14 -66 -14 -133q0 -129 64 -206t180 -77t261 117l31 -37q-39 -84 -137 -143t-223 -60q-271 0 -334 244q-127 -244 -352 -244zM254 275q0 -177 156 -177q74 0 148 75
q75 75 106 167q0 49 10 156q-200 26 -310 -50t-110 -171z" />
    <glyph glyph-name="Oslashacute" unicode="&#x1fe;" horiz-adv-x="1490" 
d="M850 1575l301 254q35 4 101 -18t89 -48v-41l-458 -186zM891 1356q-137 0 -247 -73t-173 -189q-129 -239 -129 -521q0 -143 49 -258l772 918q-100 123 -272 123zM741 78q145 0 253 74t165 196q111 237 111 533q0 145 -51 260l-770 -920q110 -143 292 -143zM137 571
q0 381 222 634t587 253q201 0 328 -94l80 96l80 -63l-86 -103q127 -150 127 -411q0 -348 -186 -618q-91 -132 -243 -211t-359 -79q-208 0 -349 115l-98 -117l-78 68l102 121q-127 155 -127 409z" />
    <glyph glyph-name="oslashacute" unicode="&#x1ff;" horiz-adv-x="1034" 
d="M561 1217l262 356q33 4 95 -11t86 -34v-39l-402 -307zM599 963q-260 0 -325 -424q-14 -98 -14 -166t2 -84l483 563q-45 111 -146 111zM461 61q92 1 166 95t109 235q36 141 36 297q0 8 -1 22t-1 23l-477 -555q51 -117 168 -117zM86 363q0 250 135 458q67 99 175 163
t240 64t212 -75l147 172l76 -62l-166 -192q43 -92 43 -229q0 -279 -148 -483t-376 -204q-145 0 -231 86l-162 -188l-72 64l176 204q-49 93 -49 222z" />
    <glyph glyph-name="Scommaaccent" unicode="&#x218;" horiz-adv-x="1073" 
d="M580 -244q0 -114 -104 -200t-263 -109l-29 70q168 45 189 168q-49 53 -107 71q-2 54 56 100t102 48q66 -6 111 -46t45 -102zM454 78q76 0 153 22t133 84t56 158t-54 167q-56 71 -134 118l-157 96q-78 49 -134 129q-55 80 -55 188q0 188 133 303t379 115t371 -67
q-37 -145 -123 -349h-49l-23 281q-68 33 -205 33t-221 -62t-84 -184q0 -78 40 -138t100 -98l129 -81q68 -45 127 -91t99 -124t40 -179q-1 -193 -147 -309t-402 -115q-121 0 -227 30t-152 67q35 160 127 368h49l21 -301q25 -23 79 -42q55 -19 131 -19z" />
    <glyph glyph-name="scommaaccent" unicode="&#x219;" horiz-adv-x="851" 
d="M412 -238q0 -106 -91 -188q-92 -81 -231 -104l-22 59q162 45 176 166q-37 47 -103 67q-2 52 49 96t95 46q59 -6 93 -43t34 -99zM172 750q0 145 104 222t262 77t253 -52q-2 -47 -31 -108t-62 -80l-151 154q-207 0 -207 -162q0 -104 127 -193q53 -37 106 -78
q129 -100 128 -244t-122 -228q-122 -83 -297 -83t-266 60q2 6 8 30q5 25 7 31t7 26t15 44q10 25 45 61l183 -166q97 -1 171 47t74 138t-126 180q-52 37 -103 78q-125 101 -125 246z" />
    <glyph glyph-name="Tcommaaccent" unicode="&#x21a;" horiz-adv-x="1236" 
d="M666 -244q0 -114 -104 -200t-263 -109l-29 70q168 45 189 168q-49 53 -107 71q-2 54 56 100t102 48q66 -6 111 -46t45 -102zM817 57l-10 -57h-561l10 57q90 35 201 49l260 1225h-322l-166 -287h-49q14 180 62 390h1175q-37 -195 -102 -390h-49l-43 287h-322l-260 -1225
q121 -22 176 -49z" />
    <glyph glyph-name="tcommaaccent" unicode="&#x21b;" horiz-adv-x="684" 
d="M412 -238q0 -106 -91 -188q-92 -81 -231 -104l-22 59q162 45 176 166q-37 47 -103 67q-2 52 49 96t95 46q59 -6 93 -43t34 -99zM285 196q1 -46 29 -72t69 -26q86 0 221 66l21 -35q-39 -55 -139 -104t-183 -50q-190 0 -190 166q0 51 16 129l137 656h-155l2 49
q80 45 178 69l33 156q43 35 133 74l43 -25l-49 -225h256q8 -57 -21 -98h-256l-129 -602q-16 -82 -16 -128z" />
    <glyph glyph-name="uni0237" unicode="&#x237;" horiz-adv-x="561" 
d="M94 49l182 860l-124 17v49q168 74 270 74l41 -25l-199 -936q-74 -345 -304 -483q-44 -27 -85 -39l-22 43q63 31 132 139q68 108 109 301z" />
    <glyph glyph-name="uni0259" unicode="&#x259;" horiz-adv-x="978" 
d="M404 61q85 0 171 112t125 319q-223 34 -340 -54t-116 -225q0 -152 160 -152zM593 1049q144 1 222 -93t78 -272q0 -301 -156 -505t-407 -204q-109 1 -183 61q-73 60 -73 175t83 211q162 186 558 156q6 16 6 65q0 135 -42 209t-144 74q-73 0 -113 -25l-45 -22
q-18 -10 -41 -31l-33 -33q-11 -7 -31 -31t-24 -28l-43 28q29 98 136 182q108 83 252 83z" />
    <glyph glyph-name="afii57929" unicode="&#x2bc;" horiz-adv-x="567" 
d="M690 1292q0 -122 -102 -236q-102 -112 -234 -151l-26 60q74 27 128 93t62 140q-27 29 -108 64q-2 59 53 113t98 57q129 -18 129 -140z" />
    <glyph glyph-name="circumflex" unicode="&#x2c6;" horiz-adv-x="708" 
d="M657 1630q14 0 23 -6l151 -379l-53 -33l-160 222l-235 -222l-55 31l307 381q8 6 22 6z" />
    <glyph glyph-name="caron" unicode="&#x2c7;" horiz-adv-x="749" 
d="M551 1411l266 221q39 0 55 -30l-333 -381q-24 -15 -45 0l-166 378q18 33 67 33z" />
    <glyph glyph-name="breve" unicode="&#x2d8;" horiz-adv-x="753" 
d="M560 1227q-100 0 -161 68q-61 69 -71 182l55 24q21 -53 73 -93q104 -79 259 -10q75 34 114 95l48 -20q-37 -96 -127 -171t-190 -75z" />
    <glyph glyph-name="dotaccent" unicode="&#x2d9;" horiz-adv-x="436" 
d="M559 1381q0 -51 -32 -79t-84 -28q-51 0 -83 28t-32 79q0 50 31 80q32 30 84 30t84 -30t32 -80z" />
    <glyph glyph-name="ring" unicode="&#x2da;" horiz-adv-x="593" 
d="M554 1516q-60 0 -92 -44t-32 -90q0 -45 20 -64q20 -20 57 -20q36 0 72 40q35 40 35 109t-60 69zM328 1379q0 83 64 151q65 68 153 68t130 -43q42 -41 42 -125t-66 -149q-65 -65 -149 -65t-129 40t-45 123z" />
    <glyph glyph-name="ogonek" unicode="&#x2db;" horiz-adv-x="704" 
d="M211 -242q0 -125 127 -125q18 0 84 19v-64q-72 -41 -152 -41q-221 0 -221 179q0 203 342 305l47 -2q-82 -33 -154 -108t-73 -163z" />
    <glyph glyph-name="tilde" unicode="&#x2dc;" horiz-adv-x="829" 
d="M470 1333q-48 0 -105 -51l-37 55q129 119 239 119q51 0 129 -33t126 -33t106 42l24 -56q-115 -113 -219 -112q-51 0 -133 34t-130 35z" />
    <glyph glyph-name="hungarumlaut" unicode="&#x2dd;" horiz-adv-x="882" 
d="M565 1264l273 309q33 4 90 -13t78 -44v-25l-406 -262zM328 1260l159 313q29 4 91 -11t75 -32v-29l-282 -272z" />
    <glyph glyph-name="uni02EE" unicode="&#x2ee;" horiz-adv-x="942" 
d="M608 1292q0 -122 -102 -236q-102 -112 -234 -151l-26 60q74 27 128 93t62 140q-27 29 -108 64q-2 59 53 113t98 57q129 -18 129 -140zM977 1292q-1 -122 -103 -236q-102 -112 -233 -151l-27 60q74 27 128 93t63 140q-27 29 -109 64q-2 59 54 113t98 57q129 -18 129 -140z
" />
    <glyph glyph-name="gravecomb" unicode="&#x300;" horiz-adv-x="4" 
d="M-561 1573l180 -356l-41 -35l-340 307v39q22 18 94 34t107 11z" />
    <glyph glyph-name="acutecomb" unicode="&#x301;" horiz-adv-x="4" 
d="M-475 1217l262 356q33 4 95 -11t85 -34v-39l-401 -307z" />
    <glyph glyph-name="uni0394" unicode="&#x394;" horiz-adv-x="1325" 
d="M1077 123l-428 1042l-446 -1042h874zM1305 0h-1244v61l601 1373h55l588 -1373v-61z" />
    <glyph glyph-name="uni0394" unicode="&#x2206;" horiz-adv-x="1325" 
d="M1077 123l-428 1042l-446 -1042h874zM1305 0h-1244v61l601 1373h55l588 -1373v-61z" />
    <glyph glyph-name="uni03A9" unicode="&#x3a9;" horiz-adv-x="1632" 
d="M733 0h-590q0 152 21 389h49l90 -242h324q-195 72 -322 234t-127 385q0 312 182 502t492 190t480 -181q169 -181 169 -489q0 -236 -132 -406t-304 -235h303l92 242h49q20 -238 21 -389h-569v162q121 49 229 211q108 163 106 405q0 242 -114 410q-115 168 -330 168
q-121 0 -214 -46q-170 -84 -228 -305q-27 -99 -27 -217q0 -233 114 -406t236 -220v-162z" />
    <glyph glyph-name="uni03A9" unicode="&#x2126;" horiz-adv-x="1632" 
d="M733 0h-590q0 152 21 389h49l90 -242h324q-195 72 -322 234t-127 385q0 312 182 502t492 190t480 -181q169 -181 169 -489q0 -236 -132 -406t-304 -235h303l92 242h49q20 -238 21 -389h-569v162q121 49 229 211q108 163 106 405q0 242 -114 410q-115 168 -330 168
q-121 0 -214 -46q-170 -84 -228 -305q-27 -99 -27 -217q0 -233 114 -406t236 -220v-162z" />
    <glyph glyph-name="pi" unicode="&#x3c0;" horiz-adv-x="1245" 
d="M262 0q-28 -12 -112 -12t-84 12l-9 16q115 132 227 400t156 485h-34q-121 0 -240 -121l-21 17q35 78 66 123q31 46 103 82t173 34q357 -12 531 -12t226 9t97 44l23 -18q-20 -68 -78 -113t-141 -45h-25l-166 -784l131 -17l-8 -41q-141 -57 -286 -77h-50l195 919h-401
l-86 -405q-61 -289 -187 -496z" />
    <glyph glyph-name="afii10023" unicode="&#x401;" horiz-adv-x="1165" 
d="M928 1616q0 45 30 70q31 24 80 24t80 -24t31 -70q0 -45 -31 -70q-31 -24 -80 -24t-80 24q-30 25 -30 70zM477 1616q0 45 31 70q31 24 80 24t80 -24q30 -24 30 -70q0 -45 -30 -70q-30 -24 -80 -24q-49 0 -80 24t-31 70zM262 1434h959q-43 -203 -91 -328h-49l-34 225h-455
l-115 -549h342l111 152h49q-31 -199 -86 -410h-49l-47 156h-342l-121 -578h477l152 246h49q-10 -182 -54 -348h-999l10 57q84 35 181 49l258 1221q-82 16 -158 49z" />
    <glyph glyph-name="afii10051" unicode="&#x402;" horiz-adv-x="1517" 
d="M1462 596q0 -152 -49 -272q-86 -209 -300 -293q-91 -37 -183 -37l-2 51q350 102 350 533q0 100 -48 154t-188 54t-297 -86l-124 -594q53 -14 135 -49l-11 -57h-520l11 57q90 35 200 49l260 1225h-321l-166 -287h-49q12 135 61 390h1176q-35 -209 -103 -390h-49l-43 287
h-321l-115 -534q184 92 375 92q321 0 321 -293z" />
    <glyph glyph-name="afii10052" unicode="&#x403;" horiz-adv-x="1009" 
d="M662 1575l301 254q35 4 101 -18t89 -48v-41l-459 -186zM592 1331l-258 -1225q100 -16 184 -49l-10 -57h-549l10 57q92 35 181 49l258 1221q-82 16 -158 49l12 58h948q-43 -219 -106 -406h-49l-39 303h-424z" />
    <glyph glyph-name="afii10053" unicode="&#x404;" horiz-adv-x="1316" 
d="M764 -25q-164 1 -290 49t-196 130q-140 163 -141 372q1 420 229 676t615 256q248 0 383 -69q-31 -166 -104 -349h-50l-43 295q-57 20 -190 21q-238 0 -403 -152t-214 -438l687 29q10 -72 -25 -154q-338 29 -674 33q-6 -68 -6 -166t44 -190q74 -157 261 -217
q77 -23 179 -23t163 39l150 250h49q-4 -139 -45 -308q-145 -84 -379 -84z" />
    <glyph glyph-name="afii10054" unicode="&#x405;" horiz-adv-x="1073" 
d="M454 78q76 0 153 22t133 84t56 158t-54 167q-56 71 -134 118l-157 96q-78 49 -134 129q-55 80 -55 188q0 188 133 303t379 115t371 -67q-37 -145 -123 -349h-49l-23 281q-68 33 -205 33t-221 -62t-84 -184q0 -78 40 -138t100 -98l129 -81q68 -45 127 -91t99 -124t40 -179
q-1 -193 -147 -309t-402 -115q-121 0 -227 30t-152 67q35 160 127 368h49l21 -301q25 -23 79 -42q55 -19 131 -19z" />
    <glyph glyph-name="afii10055" unicode="&#x406;" horiz-adv-x="696" 
d="M522 57l-10 -57h-512l10 57q90 37 176 49l258 1221q-74 14 -153 49l12 58h512l-12 -58q-72 -31 -174 -49l-258 -1221q85 -16 151 -49z" />
    <glyph glyph-name="afii10056" unicode="&#x407;" horiz-adv-x="696" 
d="M666 1616q0 45 30 70q31 24 80 24t80 -24t31 -70q0 -45 -31 -70q-31 -24 -80 -24t-80 24q-30 25 -30 70zM309 1616q0 45 31 70q31 24 80 24t80 -24q30 -24 30 -70q0 -45 -30 -70q-30 -24 -80 -24q-49 0 -80 24t-31 70zM522 57l-10 -57h-512l10 57q90 37 176 49l258 1221
q-74 14 -153 49l12 58h512l-12 -58q-72 -31 -174 -49l-258 -1221q85 -16 151 -49z" />
    <glyph glyph-name="afii10057" unicode="&#x408;" horiz-adv-x="671" 
d="M268 1376l13 58h510l-11 -58q-59 -27 -176 -49l-244 -1159q-90 -422 -409 -496l-14 29q92 70 142 158t93 286l248 1182q-84 16 -152 49z" />
    <glyph glyph-name="afii10058" unicode="&#x409;" horiz-adv-x="1853" 
d="M1305 766q-88 0 -146 -12l-137 -648q31 -10 145 -10q178 0 302 111t124 334q1 225 -288 225zM-84 160q0 18 4 47l37 49l227 -41q225 270 404 1102q-123 23 -195 59l13 58h1077l-13 -58q-94 -35 -190 -49l-100 -473q90 14 188 14q198 0 314 -86t116 -240t-62 -266
q-62 -113 -164 -171q-198 -113 -417 -111l-252 6h-244l11 57q86 37 168 49l258 1225h-387q-99 -410 -191 -671q-92 -262 -161 -374t-167 -211t-235 -100q-39 70 -39 185z" />
    <glyph glyph-name="afii10059" unicode="&#x40a;" horiz-adv-x="2000" 
d="M1452 723q-92 0 -152 -12l-126 -605q31 -10 145 -10q184 0 303 95t119 307q0 225 -289 225zM1509 825q201 0 319 -83t118 -231q0 -147 -62 -253t-162 -160q-195 -106 -422 -104l-251 6h-238l10 57q94 39 168 49l127 605h-655l-127 -605q82 -16 143 -49l-10 -57h-508
l10 57q70 31 181 49l258 1221q-96 16 -158 49l12 58h508l-12 -58q-78 -37 -166 -49l-109 -514h656l108 514q-59 12 -145 49l12 58h520l-12 -58q-94 -35 -190 -49l-109 -516q90 14 186 14z" />
    <glyph glyph-name="afii10060" unicode="&#x40b;" horiz-adv-x="1550" 
d="M1120 889q293 0 293 -283q0 -66 -18 -151l-74 -349q72 -12 135 -49l-10 -57h-330l98 473q14 82 13 152q-2 69 -47 115t-131 46q-145 0 -304 -86l-124 -594q72 -20 135 -49l-11 -57h-520l11 57q123 39 200 49l258 1225h-319l-166 -287h-49q14 180 61 390h1176
q-47 -223 -103 -390h-49l-43 287h-321l-115 -534q184 92 354 92z" />
    <glyph glyph-name="afii10061" unicode="&#x40c;" horiz-adv-x="1288" 
d="M766 1575l301 254q35 4 101 -18t89 -48v-41l-458 -186zM956 1376l13 58h454l-12 -58q-72 -35 -166 -49l-534 -559q238 -420 417 -670l89 -49l-11 -49h-235l-60 49q-166 250 -346 639h-108l-123 -582q82 -14 143 -49l-10 -57h-508l10 57q92 37 181 49l258 1221
q-94 12 -158 49l12 58h508l-12 -58q-74 -33 -166 -49l-121 -573l123 28l500 545q-91 20 -138 49z" />
    <glyph glyph-name="afii10062" unicode="&#x40e;" horiz-adv-x="1325" 
d="M897 1495q-153 0 -223 76t-60 153q53 41 189 56l49 -27v-137q34 -27 106 -27t159 48t112 122q49 0 69 -30q-29 -92 -139 -163t-262 -71zM848 639l399 688q-94 14 -166 49l13 58h452l-12 -58q-63 -33 -158 -49l-608 -977q-134 -205 -238 -294t-215 -66q-45 115 -32 217
l57 49l209 -53q20 16 55 62t49 79l-317 983q-88 18 -146 49l13 58h526l-12 -58q-66 -29 -178 -49l219 -692l16 -131h4z" />
    <glyph glyph-name="afii10145" unicode="&#x40f;" horiz-adv-x="1441" 
d="M1083 1376l11 58h508l-11 -58q-84 -37 -180 -49l-258 -1221q82 -16 158 -49l-13 -57h-581q-66 -215 -148 -389h-49q2 199 19 389h-580l12 57q59 29 179 49l258 1221q-80 10 -156 49l10 58h508l-10 -58q-57 -33 -168 -49l-258 -1225h635l258 1225q-83 16 -144 49z" />
    <glyph glyph-name="afii10017" unicode="&#x410;" horiz-adv-x="1368" 
d="M733 1024l-254 -436h412l-68 440l-4 176h-4zM365 57l-11 -57h-454l10 57q86 35 160 49l809 1352h43l231 -1352q94 -20 143 -49l-10 -57h-508l10 57q92 35 181 49l-62 379h-485l-221 -379q84 -12 164 -49z" />
    <glyph glyph-name="afii10018" unicode="&#x411;" horiz-adv-x="1198" 
d="M631 745q-90 0 -164 -12l-133 -627q31 -10 145 -10q195 0 309 118t113 304q0 109 -56 168t-214 59zM674 848q204 0 318 -77t114 -230q0 -238 -173 -393t-466 -154l-252 6h-256l10 57q89 37 181 49l258 1221q-74 12 -158 49l12 58h969q-35 -197 -98 -365h-50l-47 262h-444
l-105 -497q92 14 187 14z" />
    <glyph glyph-name="afii10019" unicode="&#x412;" horiz-adv-x="1230" 
d="M569 780q94 0 170 11q291 102 291 370q0 182 -256 182q-125 0 -192 -10l-119 -553h106zM516 90q180 0 303 98t123 271q0 131 -84 175t-256 44h-160l-120 -569q63 -19 194 -19zM1126 496q0 -224 -168 -366t-481 -142l-325 12h-193l10 57q92 39 181 49l258 1221
q-82 16 -158 49l12 58h205l346 12q176 0 289 -64q112 -64 112 -204q0 -141 -90 -253t-270 -159v-8q108 -8 190 -75t82 -187z" />
    <glyph glyph-name="afii10020" unicode="&#x413;" horiz-adv-x="1009" 
d="M592 1331l-258 -1225q100 -16 184 -49l-10 -57h-549l10 57q92 35 181 49l258 1221q-82 16 -158 49l12 58h948q-43 -219 -106 -406h-49l-39 303h-424z" />
    <glyph glyph-name="afii10021" unicode="&#x414;" horiz-adv-x="1378" 
d="M223 102h645l258 1229h-397q-234 -893 -506 -1229zM1053 102h233q-57 -250 -127 -409h-49l-10 307h-1012l-158 -307h-47q8 233 43 409h170q144 170 290 518t222 697q-109 20 -194 59l12 58h1075l-12 -58q-76 -31 -178 -49z" />
    <glyph glyph-name="afii10022" unicode="&#x415;" horiz-adv-x="1165" 
d="M262 1434h959q-43 -203 -91 -328h-49l-34 225h-455l-115 -549h342l111 152h49q-31 -199 -86 -410h-49l-47 156h-342l-121 -578h477l152 246h49q-10 -182 -54 -348h-999l10 57q84 35 181 49l258 1221q-82 16 -158 49z" />
    <glyph glyph-name="afii10024" unicode="&#x416;" horiz-adv-x="1902" 
d="M926 770l118 557q-84 23 -137 49l13 58h466l-12 -58q-61 -29 -145 -49l-121 -573l137 28l463 545q-66 16 -137 49l12 58h455l-13 -58q-66 -27 -165 -49l-500 -561l164 -320q105 -199 211 -348l88 -49l-11 -49h-233l-57 49q-103 157 -217 436l-86 203h-125l-123 -582
q76 -20 123 -49l-11 -57h-467l11 57q72 35 159 49l127 599l-143 -29q-14 -18 -82 -111l-98 -139l-96 -123q-109 -140 -232 -254l-78 -49h-258l11 49l108 49q193 171 461 484q135 158 162 186l-265 559q-76 18 -135 49l13 58h428l-13 -58q-55 -27 -149 -49l237 -557h142z" />
    <glyph glyph-name="afii10025" unicode="&#x417;" horiz-adv-x="1140" 
d="M399 -25q-229 0 -379 80q33 156 121 338h49l27 -284q57 -31 226 -31t284 103t115 308q0 99 -72 149t-199 50l-161 -22q0 66 20 114h66q98 0 174 11q118 41 194 137t76 214t-57 166t-175 47t-192 -38l-160 -250h-49q10 182 45 307q141 84 342 84t316 -73t114 -214
q0 -289 -333 -405v-8q91 -12 163 -83t72 -181q0 -240 -167 -380t-460 -139z" />
    <glyph glyph-name="afii10026" unicode="&#x418;" horiz-adv-x="1482" 
d="M477 57l-10 -57h-508l10 57q90 37 181 49l258 1221q-98 20 -158 49l12 58h508l-12 -58q-70 -31 -166 -49l-191 -901l-53 -154l125 166l795 840l10 49q-106 27 -156 49l13 58h507l-12 -58q-78 -33 -178 -49l-258 -1221q94 -16 156 -49l-11 -57h-508l11 57q96 37 168 49
l190 900l53 151l-114 -156l-807 -849l-8 -46q83 -14 153 -49z" />
    <glyph glyph-name="afii10027" unicode="&#x419;" horiz-adv-x="1482" 
d="M958 1495q-152 0 -222 76t-60 153q53 41 188 56l49 -27v-137q35 -27 107 -27t159 48t111 122q49 0 70 -30q-30 -92 -140 -163t-262 -71zM477 57l-10 -57h-508l10 57q90 37 181 49l258 1221q-98 20 -158 49l12 58h508l-12 -58q-70 -31 -166 -49l-191 -901l-53 -154
l125 166l795 840l10 49q-106 27 -156 49l13 58h507l-12 -58q-78 -33 -178 -49l-258 -1221q94 -16 156 -49l-11 -57h-508l11 57q96 37 168 49l190 900l53 151l-114 -156l-807 -849l-8 -46q83 -14 153 -49z" />
    <glyph glyph-name="afii10028" unicode="&#x41a;" horiz-adv-x="1288" 
d="M956 1376l13 58h454l-12 -58q-72 -35 -166 -49l-534 -559q238 -420 417 -670l89 -49l-11 -49h-235l-60 49q-166 250 -346 639h-108l-123 -582q82 -14 143 -49l-10 -57h-508l10 57q92 37 181 49l258 1221q-94 12 -158 49l12 58h508l-12 -58q-74 -33 -166 -49l-121 -573
l123 28l500 545q-91 20 -138 49z" />
    <glyph glyph-name="afii10029" unicode="&#x41b;" horiz-adv-x="1310" 
d="M596 1317q-123 23 -195 59l13 58h1065l-13 -58q-72 -33 -178 -49l-258 -1221q94 -16 156 -49l-10 -57h-508l10 57q68 29 168 49l258 1225h-387q-141 -592 -256 -851t-260 -404q-100 -100 -238 -101q-20 37 -32 110q-11 73 -3 122l37 49l228 -41q225 271 403 1102z" />
    <glyph glyph-name="afii10030" unicode="&#x41c;" horiz-adv-x="1738" 
d="M1604 57l-11 -57h-495l10 57q76 29 178 49l193 928l63 240h-16l-111 -219l-651 -1055h-49l-178 1057l-23 239h-18l-250 -1192q84 -18 143 -47l-10 -57h-420l10 57q78 33 178 49l256 1221q-84 16 -157 49l12 58h412l147 -949l25 -211h2l108 215l586 945h360l-12 -58
q-78 -33 -166 -49l-260 -1223q93 -16 144 -47z" />
    <glyph glyph-name="afii10031" unicode="&#x41d;" horiz-adv-x="1462" 
d="M477 57l-10 -57h-508l10 57q82 35 181 49l258 1221q-88 14 -158 49l12 58h508l-12 -58q-61 -33 -166 -49l-115 -541h656l114 541q-96 23 -145 49l12 58h508l-12 -58q-72 -35 -178 -49l-258 -1221q88 -14 155 -49l-10 -57h-508l10 57q74 33 168 49l121 578h-655l-121 -578
q82 -16 143 -49z" />
    <glyph glyph-name="afii10032" unicode="&#x41e;" horiz-adv-x="1490" 
d="M342 573q0 -225 114 -360t272 -135t266 74t165 196q111 237 111 533q0 215 -100 345t-279 130q-137 0 -247 -73q-192 -127 -269 -440q-33 -135 -33 -270zM137 571q0 381 222 634t587 253q146 0 252 -48t164 -133q112 -163 113 -394q0 -348 -186 -618q-91 -132 -243 -211
t-344 -79q-279 0 -422 169t-143 427z" />
    <glyph glyph-name="afii10033" unicode="&#x41f;" horiz-adv-x="1441" 
d="M477 57l-10 -57h-508l10 57q84 37 181 49l258 1221q-82 16 -158 49l12 58h1340l-13 -58q-59 -29 -178 -49l-258 -1221q80 -10 156 -49l-11 -57h-507l10 57q57 33 168 49l258 1225h-635l-258 -1225q82 -16 143 -49z" />
    <glyph glyph-name="afii10034" unicode="&#x420;" horiz-adv-x="1185" 
d="M752 1348q-102 0 -158 -13l-141 -667q45 -10 147 -11q213 0 326 121t112 336q0 114 -61 174t-225 60zM1243 1116q0 -244 -173 -402t-454 -159q-118 0 -186 8l-96 -457q109 -16 184 -49l-10 -57h-549l10 57q70 31 181 49l258 1221q-74 12 -158 49l12 58h176l363 16
q205 0 323 -84t119 -250z" />
    <glyph glyph-name="afii10035" unicode="&#x421;" horiz-adv-x="1296" 
d="M764 -25q-164 1 -290 49t-196 130q-140 163 -141 372q1 420 229 676t615 256q248 0 383 -69q-31 -166 -104 -349h-50l-43 295q-57 20 -190 21q-283 0 -459 -213t-176 -611q0 -121 44 -214q74 -157 261 -217q77 -23 179 -23t163 39l150 250h49q-4 -139 -45 -308
q-145 -84 -379 -84z" />
    <glyph glyph-name="afii10036" unicode="&#x422;" horiz-adv-x="1236" 
d="M817 57l-10 -57h-561l10 57q90 35 201 49l260 1225h-322l-166 -287h-49q14 180 62 390h1175q-37 -195 -102 -390h-49l-43 287h-322l-260 -1225q121 -22 176 -49z" />
    <glyph glyph-name="afii10037" unicode="&#x423;" horiz-adv-x="1325" 
d="M848 639l399 688q-94 14 -166 49l13 58h452l-12 -58q-63 -33 -158 -49l-608 -977q-134 -205 -238 -294t-215 -66q-45 115 -32 217l57 49l209 -53q20 16 55 62t49 79l-317 983q-88 18 -146 49l13 58h526l-12 -58q-66 -29 -178 -49l219 -692l16 -131h4z" />
    <glyph glyph-name="afii10038" unicode="&#x424;" horiz-adv-x="1574" 
d="M590 313q63 0 98 11l172 813q-45 6 -117 6q-201 1 -319 -147t-119 -384q0 -135 85 -217t200 -82zM967 313q207 0 325 153t117 388q-1 141 -71 214t-195 75q-70 0 -117 -13l-172 -811q37 -6 113 -6zM1210 1237q188 0 284 -103t95 -272q0 -272 -169 -458t-437 -185
q-86 0 -145 14l-27 -127q78 -20 123 -49l-10 -57h-451l10 57q70 31 156 47l27 125q-68 -10 -134 -10q-164 0 -286 98t-121 281q0 266 172 452t440 187q68 0 142 -8l20 98q-92 22 -135 49l12 58h451l-13 -58q-59 -33 -145 -49l-22 -104q63 14 163 14z" />
    <glyph glyph-name="afii10039" unicode="&#x425;" horiz-adv-x="1339" 
d="M1001 1376l13 58h465l-13 -58q-59 -27 -166 -49l-487 -559l279 -662q96 -16 155 -49l-10 -57h-532l10 57q82 37 168 49l-209 521l-436 -523q106 -16 155 -47l-10 -57h-465l10 57q63 29 166 49l537 615l-254 606q-84 16 -154 49l13 58h532l-12 -58q-68 -31 -168 -49
l184 -469l389 469q-99 20 -160 49z" />
    <glyph glyph-name="afii10040" unicode="&#x426;" horiz-adv-x="1468" 
d="M1188 0h-1229l10 57q63 27 181 49l258 1221q-82 12 -158 49l12 58h508l-12 -58q-70 -31 -166 -49l-258 -1225h622l261 1225q-76 12 -146 49l12 58h508l-12 -58q-84 -33 -178 -49l-260 -1225h233q-37 -172 -127 -409h-49z" />
    <glyph glyph-name="afii10041" unicode="&#x427;" horiz-adv-x="1271" 
d="M588 545q-379 0 -287 436l74 346q-90 20 -137 49l12 58h467l-12 -58q-72 -35 -146 -49l-72 -342q-35 -168 5 -253t184 -85q146 0 317 86l125 594q-80 18 -137 49l12 58h467l-12 -58q-70 -35 -145 -49l-259 -1221q72 -14 123 -49l-10 -57h-508l10 57q98 39 201 49l113 531
q-188 -92 -385 -92z" />
    <glyph glyph-name="afii10042" unicode="&#x428;" horiz-adv-x="1867" 
d="M907 1376l13 58h454l-12 -58q-68 -35 -145 -49l-261 -1225h461l260 1225q-74 16 -129 49l13 58h467l-13 -58q-68 -33 -153 -49l-258 -1221q82 -16 131 -49l-11 -57h-1765l10 57q86 37 160 49l258 1221q-90 18 -137 49l12 58h467l-12 -58q-53 -29 -146 -49l-260 -1225h461
l260 1225q-86 22 -125 49z" />
    <glyph glyph-name="afii10043" unicode="&#x429;" horiz-adv-x="1904" 
d="M1649 0h-1690l10 57q92 39 160 49l258 1221q-96 20 -137 49l12 58h467l-12 -58q-53 -29 -146 -49l-260 -1225h461l260 1225q-84 23 -125 49l13 58h454l-12 -58q-55 -31 -145 -49l-261 -1225h461l260 1225q-78 16 -129 49l13 58h467l-13 -58q-59 -33 -153 -49l-260 -1225
h233q-43 -188 -127 -409h-49z" />
    <glyph glyph-name="afii10044" unicode="&#x42a;" horiz-adv-x="1431" 
d="M877 766q-90 0 -150 -12l-137 -648q31 -10 145 -10q201 0 319 113t117 340q0 97 -68 157t-226 60zM936 868q200 0 320 -83t120 -238q0 -261 -172 -407t-481 -146l-252 6h-256l10 57q84 35 181 49l258 1225h-269l-166 -287h-49q9 114 62 390h809l-13 -58
q-100 -37 -190 -49l-100 -473q72 14 188 14z" />
    <glyph glyph-name="afii10045" unicode="&#x42b;" horiz-adv-x="1687" 
d="M621 766q-92 0 -150 -12l-137 -648q31 -10 145 -10q195 0 305 115t111 338q0 217 -274 217zM680 868q200 0 310 -86t110 -237q0 -271 -175 -411t-458 -140l-252 6h-256l10 57q88 37 181 49l258 1221q-82 16 -158 49l12 58h533l-13 -58q-92 -37 -190 -49l-100 -473
q72 14 188 14zM1554 57l-10 -57h-508l11 57q68 31 172 49l258 1221q-88 18 -150 49l12 58h508l-12 -58q-78 -37 -174 -49l-258 -1221q83 -14 151 -49z" />
    <glyph glyph-name="afii10046" unicode="&#x42c;" horiz-adv-x="1175" 
d="M621 766q-92 0 -150 -12l-137 -648q31 -10 145 -10q201 0 319 113t117 340q0 97 -68 157t-226 60zM680 868q204 0 322 -85t118 -238q0 -279 -182 -415t-471 -136l-252 6h-256l10 57q88 37 181 49l258 1221q-82 16 -158 49l12 58h533l-13 -58q-92 -37 -190 -49l-100 -473
q72 14 188 14z" />
    <glyph glyph-name="afii10047" unicode="&#x42d;" horiz-adv-x="1267" 
d="M631 1356q-129 0 -195 -39l-160 -250h-49q10 172 45 307q143 84 407 84q265 0 419 -154t153 -430q0 -391 -233 -645t-627 -254q-221 0 -350 70q25 160 102 348h50l45 -295q53 -20 170 -20q240 0 414 164t220 465l-616 -62q-4 86 33 154h598q14 245 -107 401t-319 156z
" />
    <glyph glyph-name="afii10048" unicode="&#x42e;" horiz-adv-x="1953" 
d="M877 554q0 -475 315 -476q141 0 250 88q185 149 259 516q53 262 19 418q-52 256 -321 256q-131 0 -236 -82q-183 -144 -255 -474q-30 -138 -31 -246zM1430 1458q141 0 245 -47q105 -47 159 -127q106 -155 104 -339q-1 -185 -52 -353q-114 -376 -392 -532
q-153 -85 -337 -85q-119 0 -211 43t-144 114t-85 163q-52 146 -23 389h-239l-121 -578q80 -16 143 -49l-10 -57h-508l10 57q104 37 181 49l258 1221q-82 12 -158 49l12 58h508l-12 -58q-76 -33 -166 -49l-115 -541h238q57 296 247 484t468 188z" />
    <glyph glyph-name="afii10049" unicode="&#x42f;" horiz-adv-x="1269" 
d="M698 690q145 0 201 15l131 622q-61 10 -125 10q-221 1 -323 -117t-103 -284q-1 -110 73 -178t146 -68zM274 942q0 240 169 367t489 131l217 -6h256l-12 -58q-72 -33 -179 -49l-258 -1221q100 -16 156 -49l-10 -57h-533l11 57q86 37 192 49l105 498h-193
q-57 -70 -141 -184q-179 -245 -312 -371l-77 -49h-260l10 49l108 49q96 84 178 172l310 351q-80 31 -153 113t-73 208z" />
    <glyph glyph-name="afii10065" unicode="&#x430;" horiz-adv-x="1089" 
d="M303 -25q-211 0 -211 310q0 193 70 363t210 283q140 112 320 111q68 0 154 -36q80 43 162 43l-187 -938h152v-50q-94 -74 -203 -73q-53 0 -81 24t-27 54q0 86 59 344h-8q-61 -172 -170 -304t-240 -131zM381 98q69 0 151 96t132 190q49 95 90 191l65 345q-57 37 -131 36
q-123 0 -222 -100q-98 -100 -150 -244t-52 -293q0 -221 117 -221z" />
    <glyph glyph-name="afii10066" unicode="&#x431;" horiz-adv-x="1046" 
d="M258 342q0 -141 49 -211t125 -70q140 -1 246 187t106 418q0 135 -41 197q-41 63 -135 63t-181 -85t-128 -179t-41 -320zM86 383q0 309 103 581t300 384q150 88 443 106l133 107h49q-6 -115 -90 -224q-39 -49 -158 -59q-330 -29 -460 -151t-197 -472h10q90 181 223 287
q134 106 260 106t196 -94q70 -96 71 -258q0 -162 -71 -331q-71 -168 -202 -279t-282 -111q-152 1 -240 105t-88 303z" />
    <glyph glyph-name="afii10067" unicode="&#x432;" horiz-adv-x="989" 
d="M621 963q-103 -1 -193 -97t-147 -303q190 -2 314 82t124 199q-1 49 -25 84t-73 35zM469 61q73 0 141 77q68 78 68 176t-44 140t-149 60q-82 -16 -213 -27q-14 -68 -14 -170t53 -179t158 -77zM891 852q0 -180 -283 -285q128 -6 186 -66t58 -136q0 -143 -126 -267
t-300 -123t-257 95t-83 243q0 209 81 382q166 354 486 354q102 -1 170 -53t68 -144z" />
    <glyph glyph-name="afii10068" unicode="&#x433;" horiz-adv-x="790" 
d="M33 183q0 149 186 280l156 108q186 122 186 220q0 135 -117 135q-123 0 -239 -113l-29 33q37 72 132 138t205 65q110 1 169 -55t59 -137t-54 -155t-132 -129l-156 -106q-186 -122 -186 -234q0 -59 38 -97t122 -38q123 0 258 107l26 -29q-57 -82 -162 -141t-215 -59
t-178 62t-69 145z" />
    <glyph glyph-name="afii10069" unicode="&#x434;" horiz-adv-x="1007" 
d="M626 950q-92 0 -176 -60t-128 -156q-89 -191 -89 -398q0 -274 173 -275q143 0 268 250t125 596q-81 43 -173 43zM356 -25q-143 1 -219 97t-76 267t71 328t212 263t322 106q84 0 133 -32q0 141 -50 281q-57 157 -225 157q-94 0 -194 -53l-27 36q45 49 138 84t182 35
q164 0 256 -146t92 -440q-1 -414 -183 -698t-432 -285z" />
    </font>
</defs>
</svg>
