<svg width="333" height="212" viewBox="0 0 333 212" fill="none" xmlns="http://www.w3.org/2000/svg">
<path d="M28.0192 196.159H19.4578L17.9575 199.178C17.5878 199.921 17.403 200.475 17.403 200.842C17.403 201.133 17.5607 201.392 17.8759 201.618C18.2021 201.834 18.8979 201.975 19.9633 202.041V202.563H13V202.041C13.9241 201.9 14.522 201.716 14.7938 201.491C15.3483 201.039 15.9625 200.123 16.6366 198.74L24.4154 183H24.986L32.6832 198.91C33.3029 200.189 33.8627 201.021 34.3629 201.406C34.8739 201.782 35.5804 201.994 36.4828 202.041V202.563H27.7583V202.041C28.6389 202.003 29.2313 201.876 29.5359 201.66C29.851 201.444 30.0086 201.181 30.0086 200.87C30.0086 200.456 29.7913 199.803 29.3563 198.91L28.0192 196.159ZM27.5627 195.116L23.8119 187.386L19.9633 195.116H27.5627ZM40.9426 183.437H46.9438L60.4626 197.781V186.752C60.4626 185.576 60.3104 184.843 60.0061 184.551C59.6039 184.157 58.9678 183.959 58.098 183.959H57.3316V183.437H65.0287V183.959H64.2459C63.311 183.959 62.6478 184.203 62.2565 184.693C62.0173 184.993 61.8977 185.68 61.8977 186.752V202.873H61.3107L46.7317 187.471V199.248C46.7317 200.424 46.8785 201.157 47.172 201.448C47.5853 201.843 48.2211 202.041 49.08 202.041H49.8628V202.563H42.1656V202.041H42.9321C43.8779 202.041 44.5465 201.796 44.9379 201.307C45.1771 201.007 45.2967 200.32 45.2967 199.248V185.948C44.6552 185.299 44.1659 184.871 43.829 184.664C43.5028 184.457 43.0192 184.265 42.3777 184.086C42.0623 184.001 41.5841 183.959 40.9426 183.959V183.437ZM80.333 202.041V202.563H70.8583V202.041H71.641C72.5542 202.041 73.2174 201.81 73.6307 201.35C73.8916 201.049 74.0221 200.325 74.0221 199.178V186.822C74.0221 185.854 73.9513 185.214 73.81 184.904C73.7013 184.669 73.4783 184.467 73.1414 184.298C72.663 184.072 72.1629 183.959 71.641 183.959H70.8583V183.437H80.333V183.959H79.534C78.6316 183.959 77.9739 184.189 77.5608 184.65C77.289 184.951 77.1531 185.675 77.1531 186.822V199.178C77.1531 200.146 77.2237 200.786 77.365 201.096C77.4737 201.331 77.7021 201.533 78.0499 201.702C78.5174 201.928 79.0121 202.041 79.534 202.041H80.333ZM109.368 183.437V183.959C108.585 184.081 107.993 184.298 107.591 184.608C107.014 185.069 106.503 185.774 106.058 186.724L98.3442 203H97.741L89.4566 186.512C89.0327 185.666 88.7338 185.149 88.5597 184.96C88.2879 184.669 87.951 184.443 87.5488 184.283C87.1574 184.114 86.6247 184.006 85.9505 183.959V183.437H94.985V183.959C93.963 184.044 93.2999 184.194 92.9953 184.41C92.691 184.627 92.5388 184.904 92.5388 185.242C92.5388 185.713 92.7889 186.446 93.289 187.443L98.9151 198.656L104.133 187.584C104.644 186.493 104.9 185.736 104.9 185.313C104.9 185.04 104.742 184.782 104.427 184.537C104.112 184.283 103.579 184.105 102.829 184.001C102.774 183.992 102.682 183.978 102.552 183.959V183.437H109.368ZM121.281 184.481V192.041H126.14C127.401 192.041 128.244 191.876 128.668 191.547C129.233 191.115 129.548 190.353 129.614 189.262H130.217V195.92H129.614C129.461 194.989 129.309 194.392 129.157 194.128C128.961 193.799 128.641 193.541 128.195 193.352C127.749 193.165 127.064 193.071 126.14 193.071H121.281V199.375C121.281 200.221 121.324 200.739 121.411 200.927C121.498 201.105 121.65 201.251 121.867 201.364C122.085 201.467 122.498 201.519 123.107 201.519H126.858C128.108 201.519 129.016 201.444 129.581 201.293C130.146 201.143 130.69 200.847 131.212 200.405C131.886 199.822 132.576 198.943 133.283 197.767H133.935L132.027 202.563H114.986V202.041H115.768C116.29 202.041 116.785 201.933 117.253 201.716C117.601 201.566 117.834 201.34 117.954 201.039C118.084 200.739 118.149 200.123 118.149 199.192V186.766C118.149 185.553 118.008 184.805 117.725 184.523C117.334 184.147 116.682 183.959 115.768 183.959H114.986V183.437H132.027L132.272 187.626H131.636C131.407 186.62 131.152 185.929 130.869 185.553C130.597 185.177 130.19 184.89 129.646 184.693C129.211 184.551 128.445 184.481 127.347 184.481H121.281ZM161.796 202.563H155.893L148.408 193.621C147.853 193.639 147.402 193.649 147.054 193.649C146.913 193.649 146.761 193.649 146.597 193.649C146.434 193.639 146.266 193.63 146.092 193.621V199.178C146.092 200.381 146.244 201.129 146.549 201.42C146.962 201.834 147.581 202.041 148.408 202.041H149.272V202.563H139.797V202.041H140.629C141.564 202.041 142.233 201.778 142.635 201.251C142.863 200.96 142.977 200.268 142.977 199.178V186.822C142.977 185.619 142.825 184.871 142.521 184.58C142.097 184.166 141.466 183.959 140.629 183.959H139.797V183.437H147.853C150.202 183.437 151.93 183.588 153.039 183.888C154.159 184.18 155.105 184.725 155.876 185.525C156.659 186.314 157.051 187.259 157.051 188.36C157.051 189.535 156.605 190.555 155.713 191.42C154.833 192.285 153.463 192.896 151.604 193.254L156.17 198.74C157.214 200 158.111 200.837 158.861 201.251C159.611 201.665 160.589 201.928 161.796 202.041V202.563ZM146.092 192.732C146.299 192.732 146.478 192.737 146.63 192.746C146.782 192.746 146.907 192.746 147.005 192.746C149.114 192.746 150.702 192.351 151.767 191.561C152.843 190.772 153.381 189.765 153.381 188.543C153.381 187.349 152.947 186.38 152.077 185.637C151.218 184.885 150.076 184.509 148.652 184.509C148.022 184.509 147.168 184.598 146.092 184.777V192.732ZM181.324 183V189.615H180.721C180.525 188.346 180.172 187.335 179.661 186.582C179.161 185.83 178.443 185.233 177.508 184.791C176.573 184.349 175.606 184.128 174.605 184.128C173.475 184.128 172.54 184.429 171.8 185.031C171.061 185.623 170.691 186.3 170.691 187.062C170.691 187.645 170.925 188.176 171.393 188.656C172.067 189.361 173.67 190.301 176.204 191.477C178.269 192.436 179.677 193.174 180.427 193.691C181.188 194.199 181.77 194.801 182.172 195.496C182.585 196.192 182.792 196.921 182.792 197.683C182.792 199.131 182.139 200.381 180.835 201.434C179.541 202.478 177.872 203 175.828 203C175.187 203 174.584 202.958 174.018 202.873C173.681 202.826 172.98 202.657 171.915 202.365C170.86 202.064 170.192 201.914 169.909 201.914C169.637 201.914 169.42 201.984 169.256 202.125C169.104 202.266 168.99 202.558 168.914 203H168.311V196.441H168.914C169.197 197.814 169.577 198.844 170.055 199.53C170.534 200.207 171.262 200.771 172.241 201.223C173.23 201.674 174.312 201.9 175.486 201.9C176.845 201.9 177.916 201.589 178.699 200.969C179.492 200.348 179.889 199.615 179.889 198.769C179.889 198.298 179.737 197.824 179.432 197.344C179.139 196.865 178.677 196.418 178.046 196.004C177.622 195.722 176.464 195.125 174.573 194.213C172.681 193.291 171.333 192.558 170.528 192.013C169.735 191.467 169.131 190.865 168.718 190.207C168.305 189.549 168.099 188.825 168.099 188.035C168.099 186.662 168.707 185.482 169.925 184.495C171.143 183.498 172.692 183 174.573 183C175.747 183 176.992 183.249 178.307 183.747C178.916 183.982 179.345 184.1 179.596 184.1C179.878 184.1 180.107 184.03 180.28 183.888C180.465 183.738 180.612 183.442 180.721 183H181.324ZM204.391 196.159H195.829L194.329 199.178C193.959 199.921 193.775 200.475 193.775 200.842C193.775 201.133 193.932 201.392 194.247 201.618C194.574 201.834 195.269 201.975 196.335 202.041V202.563H189.371V202.041C190.296 201.9 190.894 201.716 191.165 201.491C191.72 201.039 192.334 200.123 193.008 198.74L200.787 183H201.357L209.055 198.91C209.674 200.189 210.234 201.021 210.734 201.406C211.245 201.782 211.953 201.994 212.854 202.041V202.563H204.13V202.041C205.01 202.003 205.603 201.876 205.907 201.66C206.223 201.444 206.38 201.181 206.38 200.87C206.38 200.456 206.163 199.803 205.728 198.91L204.391 196.159ZM203.934 195.116L200.183 187.386L196.335 195.116H203.934ZM240.324 202.563H234.421L226.936 193.621C226.38 193.639 225.929 193.649 225.581 193.649C225.441 193.649 225.289 193.649 225.126 193.649C224.963 193.639 224.794 193.63 224.621 193.621V199.178C224.621 200.381 224.771 201.129 225.076 201.42C225.489 201.834 226.109 202.041 226.936 202.041H227.8V202.563H218.325V202.041H219.156C220.091 202.041 220.761 201.778 221.162 201.251C221.392 200.96 221.504 200.268 221.504 199.178V186.822C221.504 185.619 221.352 184.871 221.049 184.58C220.623 184.166 219.993 183.959 219.156 183.959H218.325V183.437H226.38C228.729 183.437 230.457 183.588 231.567 183.888C232.686 184.18 233.632 184.725 234.404 185.525C235.187 186.314 235.579 187.259 235.579 188.36C235.579 189.535 235.133 190.555 234.241 191.42C233.36 192.285 231.991 192.896 230.131 193.254L234.698 198.74C235.742 200 236.638 200.837 237.389 201.251C238.138 201.665 239.117 201.928 240.324 202.041V202.563ZM224.621 192.732C224.827 192.732 225.005 192.737 225.157 192.746C225.31 192.746 225.435 192.746 225.533 192.746C227.641 192.746 229.23 192.351 230.294 191.561C231.371 190.772 231.91 189.765 231.91 188.543C231.91 187.349 231.474 186.38 230.605 185.637C229.745 184.885 228.603 184.509 227.18 184.509C226.549 184.509 225.696 184.598 224.621 184.777V192.732ZM254.846 202.041V202.563H245.371V202.041H246.154C247.066 202.041 247.73 201.81 248.143 201.35C248.404 201.049 248.533 200.325 248.533 199.178V186.822C248.533 185.854 248.465 185.214 248.323 184.904C248.214 184.669 247.991 184.467 247.655 184.298C247.175 184.072 246.676 183.959 246.154 183.959H245.371V183.437H254.846V183.959H254.046C253.144 183.959 252.487 184.189 252.074 184.65C251.802 184.951 251.665 185.675 251.665 186.822V199.178C251.665 200.146 251.736 200.786 251.877 201.096C251.986 201.331 252.214 201.533 252.562 201.702C253.03 201.928 253.524 202.041 254.046 202.041H254.846ZM272.384 183C275.254 183 277.738 183.945 279.836 185.835C281.946 187.715 283 190.066 283 192.887C283 195.793 281.94 198.204 279.821 200.123C277.7 202.041 275.135 203 272.123 203C269.079 203 266.518 202.064 264.441 200.193C262.377 198.322 261.344 195.901 261.344 192.929C261.344 189.892 262.54 187.415 264.932 185.496C267.009 183.832 269.493 183 272.384 183ZM272.075 184.03C270.096 184.03 268.507 184.664 267.311 185.934C265.823 187.513 265.078 189.826 265.078 192.873C265.078 195.995 265.85 198.397 267.393 200.08C268.578 201.359 270.144 201.999 272.089 201.999C274.166 201.999 275.88 201.298 277.226 199.897C278.585 198.496 279.266 196.286 279.266 193.268C279.266 189.996 278.52 187.556 277.032 185.948C275.836 184.669 274.183 184.03 272.075 184.03Z" fill="white"/>
<path d="M98.1324 29.3578L61.175 138.573C59.0326 145.003 57.9613 149.647 57.9613 152.505C57.9613 154.908 58.9177 156.759 60.8308 158.058C62.82 159.292 67.411 160.137 74.6038 160.591L73.4559 164.196H14.3469L15.9537 160.591C22.228 160.461 26.3599 160.039 28.3493 159.325C31.563 158.156 33.9733 156.597 35.5801 154.648C38.1052 151.661 40.6686 146.302 43.2702 138.573L69.8979 60.1446C71.5046 55.4031 72.3847 52.6751 72.5377 51.9608C72.7674 50.6618 72.8819 49.3952 72.8819 48.1612C72.8819 45.8878 72.1552 44.1016 70.7013 42.8028C69.2474 41.5038 67.2582 40.8541 64.733 40.8541C62.7436 40.8541 59.6447 41.244 55.4362 42.0234L53.944 38.5158L92.6232 29.3578H98.1324ZM174.71 29.3578L137.753 138.573C135.61 145.003 134.539 149.647 134.539 152.505C134.539 154.908 135.495 156.759 137.408 158.058C139.398 159.292 143.989 160.137 151.181 160.591L150.034 164.196H90.9247L92.5314 160.591C98.8058 160.461 102.938 160.039 104.927 159.325C108.141 158.156 110.551 156.597 112.158 154.648C114.683 151.661 117.246 146.302 119.848 138.573L146.476 60.1446C148.082 55.4031 148.962 52.6751 149.115 51.9608C149.345 50.6618 149.46 49.3952 149.46 48.1612C149.46 45.8878 148.733 44.1016 147.279 42.8028C145.825 41.5038 143.836 40.8541 141.311 40.8541C139.321 40.8541 136.222 41.244 132.014 42.0234L130.522 38.5158L169.201 29.3578H174.71ZM231.202 32.0858H283.194L277.915 48.1612H231.202L222.594 64.4314C234.99 66.1201 244.631 69.4001 251.518 74.2715C262.154 81.8707 267.472 92.4902 267.472 106.13C267.472 115.158 265.482 123.342 261.503 130.681C257.6 137.956 252.781 144.061 247.042 148.998C241.379 153.934 235.296 157.831 228.792 160.689C219.916 164.586 210.964 166.534 201.935 166.534C194.207 166.534 188.085 165.105 183.571 162.248C180.51 160.299 178.98 157.831 178.98 154.843C178.98 152.505 179.974 150.524 181.964 148.9C183.953 147.211 186.402 146.367 189.31 146.367C193.365 146.367 197.879 148.088 202.853 151.531C205.914 153.674 208.439 155.103 210.428 155.818C212.035 156.402 213.948 156.694 216.167 156.694C224.813 156.694 232.771 153.057 240.04 145.782C247.309 138.443 250.945 128.928 250.945 117.236C250.945 109.118 248.993 102.2 245.09 96.4847C241.264 90.7691 236.367 86.7421 230.399 84.4039C224.431 82.0656 216.473 80.4417 206.526 79.5324L231.202 32.0858Z" fill="white"/>
</svg>
