<svg width="255" height="139" viewBox="0 0 255 139" fill="none" xmlns="http://www.w3.org/2000/svg">
<path d="M50.9286 98.0025H4L4.38212 96.2547L31.6583 69.4132C38.1214 63.0046 43.3802 56.6375 47.4347 50.3121C51.5595 43.9867 54.2315 38.0358 55.4507 32.4594C56.779 26.3837 56.2968 21.5148 54.004 17.8527C51.7997 14.1074 48.0611 12.2347 42.7882 12.2347C40.6791 12.2347 38.7432 12.5676 36.9806 13.2335C35.2362 13.8161 33.5324 14.8564 31.869 16.3546C30.2239 17.7695 28.549 19.6421 26.8443 21.9725C25.1396 24.303 23.3076 27.216 21.3481 30.7116L18.9536 30.0874C19.9917 27.5905 20.966 25.3849 21.8766 23.4707C22.8576 21.5564 23.7931 19.8502 24.683 18.3521C25.6433 16.8539 26.6115 15.4806 27.5875 14.2322C28.5635 12.9838 29.6801 11.7353 30.9373 10.4869C33.8057 7.6571 36.8801 5.49313 40.1604 3.99501C43.5111 2.49688 46.8386 1.74782 50.1429 1.74782C53.3067 1.74782 56.0788 2.41365 58.4592 3.74532C60.9282 4.99376 62.9013 6.74157 64.3785 8.98876C65.9261 11.236 66.9256 13.8993 67.3773 16.9788C67.9174 19.975 67.8053 23.221 67.0411 26.7166C65.7855 32.4594 63.2827 38.119 59.5325 43.6954C55.8527 49.2717 50.6394 55.4307 43.8926 62.1723L18.1859 87.1411H46.8704C48.2062 87.1411 49.3844 87.0578 50.405 86.8914C51.4439 86.6417 52.4228 86.1839 53.3417 85.5181C54.331 84.8523 55.3487 83.8951 56.395 82.6467C57.5116 81.3983 58.8598 79.7337 60.4396 77.6529L61.8304 78.5268L50.9286 98.0025Z" fill="white"/>
<path d="M112.257 1.74782C116.124 1.74782 119.411 2.95464 122.117 5.36829C124.912 7.69871 127.032 11.0279 128.476 15.3558C129.92 19.6837 130.611 24.8856 130.548 30.9613C130.573 36.9538 129.786 43.6122 128.184 50.9363C127.202 55.4307 125.965 59.8003 124.475 64.0449C122.984 68.2896 121.311 72.243 119.456 75.9051C117.601 79.5672 115.572 82.8964 113.371 85.8926C111.239 88.8889 109.05 91.3442 106.804 93.2584C101.603 97.7528 96.0848 100 90.2495 100C86.5233 100 83.3046 99.1261 80.5933 97.3783C77.9705 95.5472 75.9072 92.9255 74.4035 89.5131C73.5226 87.4324 72.8382 84.9355 72.3501 82.0225C71.8803 79.0262 71.5966 75.8219 71.499 72.4095C71.4899 68.9139 71.6487 65.2934 71.9754 61.5481C72.3906 57.7195 73.0076 53.9326 73.8264 50.1873C74.7726 45.8593 75.9819 41.6147 77.4541 37.4532C79.0149 33.2085 80.7229 29.2551 82.5781 25.593C84.5036 21.9309 86.5581 18.6434 88.7417 15.7303C90.9435 12.7341 93.1676 10.2788 95.4141 8.36454C98.103 6.03412 100.787 4.36954 103.466 3.37079C106.163 2.28881 109.094 1.74782 112.257 1.74782ZM110.728 5.36829C105.666 5.36829 100.979 9.28007 96.6672 17.1036C92.3554 24.9272 88.571 36.288 85.3139 51.186C78.745 81.2318 80.6631 96.2547 91.0683 96.2547C96.2006 96.2547 100.877 92.551 105.098 85.1436C109.407 77.6529 113.172 66.5418 116.393 51.8102C119.777 36.3296 120.98 24.7191 120.001 16.9788C119.092 9.23845 116.001 5.36829 110.728 5.36829Z" fill="white"/>
<path d="M171.361 98.0025H124.433L124.815 96.2547L152.091 69.4132C158.554 63.0046 163.813 56.6375 167.867 50.3121C171.992 43.9867 174.664 38.0358 175.883 32.4594C177.212 26.3837 176.729 21.5148 174.437 17.8527C172.232 14.1074 168.494 12.2347 163.221 12.2347C161.112 12.2347 159.176 12.5676 157.413 13.2335C155.669 13.8161 153.965 14.8564 152.302 16.3546C150.657 17.7695 148.982 19.6421 147.277 21.9725C145.572 24.303 143.74 27.216 141.781 30.7116L139.386 30.0874C140.424 27.5905 141.399 25.3849 142.309 23.4707C143.29 21.5564 144.226 19.8502 145.116 18.3521C146.076 16.8539 147.044 15.4806 148.02 14.2322C148.996 12.9838 150.113 11.7353 151.37 10.4869C154.238 7.6571 157.313 5.49313 160.593 3.99501C163.944 2.49688 167.271 1.74782 170.576 1.74782C173.739 1.74782 176.511 2.41365 178.892 3.74532C181.361 4.99376 183.334 6.74157 184.811 8.98876C186.359 11.236 187.358 13.8993 187.81 16.9788C188.35 19.975 188.238 23.221 187.474 26.7166C186.218 32.4594 183.715 38.119 179.965 43.6954C176.285 49.2717 171.072 55.4307 164.325 62.1723L138.619 87.1411H167.303C168.639 87.1411 169.817 87.0578 170.838 86.8914C171.877 86.6417 172.855 86.1839 173.774 85.5181C174.764 84.8523 175.781 83.8951 176.828 82.6467C177.944 81.3983 179.292 79.7337 180.872 77.6529L182.263 78.5268L171.361 98.0025Z" fill="white"/>
<path d="M213.334 27.0911C216.756 27.8402 219.712 28.6309 222.202 29.4632C224.761 30.2955 226.952 31.211 228.772 32.2097C230.663 33.2085 232.245 34.3321 233.519 35.5805C234.863 36.829 236.065 38.2439 237.126 39.8252C238.202 41.6563 239.041 43.4457 239.643 45.1935C240.245 46.9413 240.653 48.7724 240.868 50.6866C241.1 52.5177 241.12 54.5152 240.928 56.6792C240.755 58.7599 240.395 61.0487 239.849 63.5456C237.502 74.2821 233.018 82.7299 226.399 88.8889C222.505 92.551 218.204 95.3392 213.497 97.2534C208.879 99.0845 204.038 100 198.976 100C194.477 100 191.099 99.2093 188.844 97.628C186.658 96.0466 185.857 93.9243 186.439 91.2609C187.222 87.6821 189.265 85.8926 192.569 85.8926C193.975 85.8926 195.3 86.2672 196.542 87.0162C197.803 87.6821 199.191 88.8889 200.707 90.6367C202.26 92.2181 203.535 93.3 204.532 93.8827C205.53 94.4653 206.626 94.7566 207.821 94.7566C210.211 94.7566 212.563 94.1323 214.874 92.8839C217.186 91.6355 219.317 89.9293 221.266 87.7653C223.304 85.5181 225.064 82.938 226.544 80.025C228.025 77.112 229.138 73.9492 229.884 70.5368C231.503 63.1294 231.117 57.1785 228.725 52.6841C226.351 48.1065 221.835 44.4861 215.176 41.8227C212.879 41.0737 210.721 40.4911 208.703 40.0749C206.773 39.5755 204.895 39.3258 203.067 39.3258C202.082 39.3258 201.672 38.9513 201.836 38.2022C201.927 37.7861 202.017 37.5364 202.105 37.4532L222.579 3.62047H247.783C249.048 3.62047 250.078 3.4124 250.872 2.99625C251.755 2.49688 252.852 1.49813 254.164 0L255 0.998752L247.576 13.7328C247.274 14.149 246.92 14.4819 246.514 14.7316C246.196 14.898 245.545 14.9813 244.561 14.9813H221.044L213.334 27.0911Z" fill="white"/>
<path d="M10.1562 125.863C10.0911 125.421 10.0065 125.062 9.90234 124.789C9.8112 124.503 9.67448 124.281 9.49219 124.125C9.32292 123.969 9.08854 123.865 8.78906 123.812C8.5026 123.747 8.13802 123.715 7.69531 123.715H4.47266V128.598C4.47266 128.988 4.49219 129.307 4.53125 129.555C4.58333 129.802 4.68099 130.004 4.82422 130.16C4.98047 130.303 5.1888 130.408 5.44922 130.473C5.72266 130.525 6.07422 130.564 6.50391 130.59V131H0.273438V130.59C0.690104 130.564 1.02214 130.518 1.26953 130.453C1.52995 130.388 1.72526 130.277 1.85547 130.121C1.9987 129.952 2.08984 129.73 2.12891 129.457C2.18099 129.171 2.20703 128.793 2.20703 128.324V118.676C2.20703 118.285 2.18099 117.966 2.12891 117.719C2.08984 117.471 1.9987 117.276 1.85547 117.133C1.71224 116.99 1.51042 116.885 1.25 116.82C1.0026 116.755 0.677083 116.71 0.273438 116.684V116.234H12.1094L12.1484 119.438H11.6211C11.5169 118.93 11.3997 118.526 11.2695 118.227C11.1393 117.914 10.9505 117.673 10.7031 117.504C10.4688 117.335 10.1497 117.224 9.74609 117.172C9.35547 117.12 8.84766 117.094 8.22266 117.094H5.19531C4.88281 117.094 4.68099 117.139 4.58984 117.23C4.51172 117.322 4.47266 117.53 4.47266 117.855V122.797H7.69531C8.13802 122.797 8.5026 122.771 8.78906 122.719C9.08854 122.667 9.32292 122.562 9.49219 122.406C9.67448 122.25 9.8112 122.035 9.90234 121.762C10.0065 121.488 10.0911 121.13 10.1562 120.688H10.6836V125.863H10.1562ZM40.2156 125.336C40.2156 126.195 40.157 126.911 40.0398 127.484C39.9357 128.044 39.7534 128.559 39.493 129.027C38.6076 130.551 36.9409 131.312 34.493 131.312C32.5919 131.312 31.1857 130.85 30.2742 129.926C29.3628 129.001 28.907 127.569 28.907 125.629V118.676C28.907 118.272 28.881 117.947 28.8289 117.699C28.7898 117.452 28.6987 117.257 28.5555 117.113C28.4253 116.97 28.2299 116.872 27.9695 116.82C27.7091 116.755 27.3576 116.71 26.9148 116.684V116.234H33.2234V116.684C32.7677 116.723 32.4031 116.775 32.1297 116.84C31.8693 116.892 31.6674 116.99 31.5242 117.133C31.381 117.276 31.2833 117.471 31.2313 117.719C31.1922 117.953 31.1727 118.272 31.1727 118.676V125.805C31.1727 126.508 31.2182 127.087 31.3094 127.543C31.4005 127.999 31.5438 128.402 31.7391 128.754C32.351 129.809 33.4448 130.336 35.0203 130.336C35.8667 130.336 36.6219 130.18 37.2859 129.867C37.95 129.555 38.4318 129.132 38.7313 128.598C38.9135 128.246 39.0372 127.842 39.1023 127.387C39.1805 126.918 39.2195 126.299 39.2195 125.531V119.516C39.2195 118.956 39.1935 118.5 39.1414 118.148C39.0893 117.797 38.9852 117.517 38.8289 117.309C38.6857 117.1 38.4773 116.951 38.2039 116.859C37.9435 116.768 37.5984 116.71 37.1688 116.684V116.234H42.325V116.684C41.8693 116.736 41.4982 116.807 41.2117 116.898C40.9383 116.99 40.7234 117.133 40.5672 117.328C40.424 117.523 40.3263 117.797 40.2742 118.148C40.2352 118.5 40.2156 118.956 40.2156 119.516V125.336ZM70.1578 131.254L60.2945 118.988V127.719C60.2945 128.292 60.3206 128.76 60.3727 129.125C60.4378 129.477 60.5484 129.757 60.7047 129.965C60.8609 130.173 61.0758 130.323 61.3492 130.414C61.6227 130.505 61.9742 130.564 62.4039 130.59V131H57.1695V130.59C57.6253 130.551 57.9898 130.492 58.2633 130.414C58.5497 130.323 58.7646 130.173 58.9078 129.965C59.0641 129.757 59.1682 129.477 59.2203 129.125C59.2724 128.76 59.2984 128.292 59.2984 127.719V117.914C59.0771 117.654 58.8883 117.445 58.732 117.289C58.5758 117.12 58.4195 116.996 58.2633 116.918C58.107 116.827 57.9443 116.768 57.775 116.742C57.6057 116.703 57.4039 116.684 57.1695 116.684V116.234H60.9781L69.5523 127.035V119.516C69.5523 118.161 69.3375 117.328 68.9078 117.016C68.7385 116.911 68.5497 116.84 68.3414 116.801C68.1461 116.749 67.8401 116.71 67.4234 116.684V116.234H72.6383V116.684C72.2216 116.71 71.9091 116.755 71.7008 116.82C71.5055 116.885 71.3362 116.97 71.193 117.074C70.7503 117.361 70.5289 118.174 70.5289 119.516V131.254H70.1578ZM89.4945 118.676C89.4945 118.259 89.475 117.927 89.4359 117.68C89.3969 117.432 89.3057 117.243 89.1625 117.113C89.0323 116.97 88.837 116.872 88.5766 116.82C88.3292 116.768 87.9841 116.723 87.5414 116.684V116.234H93.557C94.9503 116.234 96.2003 116.404 97.307 116.742C98.4138 117.068 99.3448 117.543 100.1 118.168C100.868 118.793 101.454 119.561 101.858 120.473C102.261 121.384 102.463 122.413 102.463 123.559C102.463 124.691 102.248 125.746 101.819 126.723C101.389 127.699 100.784 128.52 100.002 129.184C99.3122 129.757 98.4203 130.206 97.3266 130.531C96.2458 130.844 95.087 131 93.85 131H87.5414V130.59C87.9711 130.564 88.3096 130.525 88.557 130.473C88.8174 130.408 89.0128 130.303 89.143 130.16C89.2862 130.004 89.3773 129.802 89.4164 129.555C89.4685 129.307 89.4945 128.988 89.4945 128.598V118.676ZM91.7602 129.262C91.7602 129.626 91.8383 129.874 91.9945 130.004C92.1638 130.121 92.4633 130.18 92.893 130.18C93.8956 130.18 94.7354 130.115 95.4125 129.984C96.1026 129.841 96.7341 129.6 97.307 129.262C99.1299 128.22 100.041 126.371 100.041 123.715C100.041 122.491 99.807 121.404 99.3383 120.453C98.8826 119.503 98.2055 118.728 97.307 118.129C96.7602 117.764 96.1286 117.497 95.4125 117.328C94.7094 117.159 93.8695 117.074 92.893 117.074C92.4503 117.074 92.1508 117.133 91.9945 117.25C91.8383 117.367 91.7602 117.595 91.7602 117.934V129.262ZM133.265 131H127.581V130.59C127.777 130.59 127.939 130.59 128.07 130.59C128.2 130.577 128.304 130.564 128.382 130.551C128.473 130.525 128.551 130.505 128.616 130.492C128.682 130.466 128.747 130.434 128.812 130.395C128.916 130.329 128.994 130.251 129.046 130.16C129.111 130.056 129.144 129.952 129.144 129.848C129.144 129.483 129.001 128.975 128.714 128.324L127.777 126.195H121.956L120.921 128.793C120.869 128.936 120.823 129.086 120.784 129.242C120.758 129.385 120.745 129.529 120.745 129.672C120.745 129.971 120.863 130.199 121.097 130.355C121.331 130.512 121.722 130.59 122.269 130.59V131H117.835V130.59C118.109 130.577 118.343 130.531 118.538 130.453C118.734 130.375 118.929 130.212 119.124 129.965C119.32 129.704 119.528 129.34 119.749 128.871C119.984 128.389 120.277 127.738 120.628 126.918L125.257 115.98H125.687L131.253 128.637C131.435 129.053 131.592 129.385 131.722 129.633C131.865 129.88 132.008 130.076 132.152 130.219C132.295 130.349 132.451 130.44 132.62 130.492C132.803 130.544 133.017 130.577 133.265 130.59V131ZM127.484 125.297L124.905 119.145L122.327 125.297H127.484ZM160.941 120.961C160.837 120.596 160.733 120.284 160.629 120.023C160.525 119.75 160.414 119.509 160.297 119.301C160.193 119.079 160.069 118.884 159.926 118.715C159.796 118.546 159.639 118.37 159.457 118.188C159.014 117.732 158.507 117.393 157.934 117.172C157.374 116.938 156.775 116.82 156.137 116.82C155.329 116.82 154.594 116.977 153.93 117.289C153.279 117.602 152.719 118.051 152.25 118.637C151.794 119.21 151.443 119.906 151.195 120.727C150.948 121.547 150.824 122.458 150.824 123.461C150.824 124.763 151 125.902 151.352 126.879C151.703 127.855 152.204 128.617 152.855 129.164C153.832 129.945 154.997 130.336 156.352 130.336C157.276 130.336 158.129 130.16 158.91 129.809C159.691 129.457 160.499 128.884 161.332 128.09L161.723 128.48C161.046 129.379 160.18 130.076 159.125 130.57C158.083 131.065 156.924 131.312 155.648 131.312C154.542 131.312 153.533 131.13 152.621 130.766C151.71 130.401 150.928 129.893 150.277 129.242C149.626 128.578 149.118 127.784 148.754 126.859C148.402 125.935 148.227 124.906 148.227 123.773C148.227 122.484 148.448 121.326 148.891 120.297C149.333 119.255 149.984 118.383 150.844 117.68C151.521 117.133 152.283 116.71 153.129 116.41C153.975 116.098 154.828 115.941 155.688 115.941C156.794 115.941 157.888 116.124 158.969 116.488C159.333 116.618 159.626 116.684 159.848 116.684C160.069 116.684 160.258 116.618 160.414 116.488C160.583 116.358 160.701 116.176 160.766 115.941H161.234L161.449 120.961H160.941ZM179.243 118.676C179.243 118.259 179.217 117.927 179.165 117.68C179.126 117.432 179.028 117.237 178.872 117.094C178.716 116.951 178.494 116.853 178.208 116.801C177.921 116.749 177.544 116.71 177.075 116.684V116.234H183.696V116.684C183.227 116.697 182.85 116.736 182.563 116.801C182.277 116.853 182.055 116.951 181.899 117.094C181.743 117.237 181.639 117.439 181.587 117.699C181.535 117.947 181.509 118.272 181.509 118.676V128.598C181.509 129.001 181.535 129.333 181.587 129.594C181.652 129.841 181.762 130.036 181.919 130.18C182.075 130.323 182.296 130.427 182.583 130.492C182.869 130.544 183.24 130.577 183.696 130.59V131H177.075V130.59C177.544 130.577 177.921 130.544 178.208 130.492C178.494 130.427 178.709 130.323 178.852 130.18C179.009 130.036 179.113 129.841 179.165 129.594C179.217 129.346 179.243 129.014 179.243 128.598V118.676ZM204.752 114.945L208.013 111.664C208.222 111.456 208.384 111.319 208.502 111.254C208.632 111.189 208.782 111.156 208.951 111.156C209.485 111.156 209.752 111.397 209.752 111.879C209.752 112.204 209.517 112.517 209.048 112.816L205.63 114.945H204.752ZM206.49 115.941C207.545 115.941 208.547 116.163 209.498 116.605C210.461 117.048 211.275 117.66 211.939 118.441C212.486 119.105 212.909 119.88 213.209 120.766C213.508 121.651 213.658 122.602 213.658 123.617C213.658 124.75 213.476 125.792 213.111 126.742C212.759 127.68 212.258 128.487 211.607 129.164C210.969 129.841 210.201 130.368 209.302 130.746C208.417 131.124 207.44 131.312 206.373 131.312C205.292 131.312 204.302 131.124 203.404 130.746C202.505 130.368 201.737 129.841 201.099 129.164C200.461 128.474 199.966 127.654 199.615 126.703C199.263 125.753 199.087 124.704 199.087 123.559C199.087 122.439 199.27 121.41 199.634 120.473C199.999 119.535 200.507 118.734 201.158 118.07C201.809 117.393 202.584 116.872 203.482 116.508C204.393 116.13 205.396 115.941 206.49 115.941ZM206.295 116.723C205.683 116.723 205.097 116.866 204.537 117.152C203.977 117.426 203.489 117.81 203.072 118.305C202.851 118.565 202.649 118.891 202.466 119.281C202.297 119.672 202.147 120.102 202.017 120.57C201.887 121.026 201.789 121.514 201.724 122.035C201.659 122.556 201.627 123.077 201.627 123.598C201.627 124.939 201.802 126.13 202.154 127.172C202.505 128.214 202.994 128.995 203.619 129.516C204.4 130.18 205.324 130.512 206.392 130.512C206.952 130.512 207.479 130.408 207.974 130.199C208.482 129.991 208.925 129.698 209.302 129.32C210.513 128.135 211.119 126.195 211.119 123.5C211.119 122.211 210.936 121.065 210.572 120.062C210.22 119.06 209.726 118.285 209.087 117.738C208.267 117.061 207.336 116.723 206.295 116.723ZM241.881 131.254L232.018 118.988V127.719C232.018 128.292 232.044 128.76 232.096 129.125C232.161 129.477 232.272 129.757 232.428 129.965C232.584 130.173 232.799 130.323 233.073 130.414C233.346 130.505 233.698 130.564 234.127 130.59V131H228.893V130.59C229.349 130.551 229.713 130.492 229.987 130.414C230.273 130.323 230.488 130.173 230.631 129.965C230.788 129.757 230.892 129.477 230.944 129.125C230.996 128.76 231.022 128.292 231.022 127.719V117.914C230.801 117.654 230.612 117.445 230.455 117.289C230.299 117.12 230.143 116.996 229.987 116.918C229.83 116.827 229.668 116.768 229.498 116.742C229.329 116.703 229.127 116.684 228.893 116.684V116.234H232.702L241.276 127.035V119.516C241.276 118.161 241.061 117.328 240.631 117.016C240.462 116.911 240.273 116.84 240.065 116.801C239.87 116.749 239.564 116.71 239.147 116.684V116.234H244.362V116.684C243.945 116.71 243.633 116.755 243.424 116.82C243.229 116.885 243.06 116.97 242.916 117.074C242.474 117.361 242.252 118.174 242.252 119.516V131.254H241.881Z" fill="white"/>
</svg>
